<svg xmlns="http://www.w3.org/2000/svg" xmlns:xlink="http://www.w3.org/1999/xlink" contentStyleType="text/css" data-diagram-type="SEQUENCE" height="1294px" preserveAspectRatio="none" style="width:1296px;height:1294px;background:#FFFFFF;" version="1.1" viewBox="0 0 1296 1294" width="1296px" zoomAndPan="magnify"><title>Clear the key cache in the Encryption Engine</title><defs/><g><rect fill="#DDDDDD" height="1214.7305" style="stroke:#181818;stroke-width:0.5;" width="221.8394" x="186.6211" y="56.2656"/><text fill="#000000" font-family="sans-serif" font-size="13" font-weight="bold" lengthAdjust="spacing" textLength="52.7935" x="271.144" y="68.834">Caliptra</text><rect fill="#DDDDDD" height="1214.7305" style="stroke:#181818;stroke-width:0.5;" width="365.2666" x="759.8145" y="56.2656"/><text fill="#000000" font-family="sans-serif" font-size="13" font-weight="bold" lengthAdjust="spacing" textLength="121.291" x="881.8022" y="68.834">Encryption Engine</text><text fill="#888888" font-family="sans-serif" font-size="10" lengthAdjust="spacing" textLength="46.0254" x="1242.748" y="14.668">Version 1</text><text fill="#000000" font-family="sans-serif" font-size="14" font-weight="bold" lengthAdjust="spacing" textLength="321.2754" x="486.249" y="41.3125">Clear the key cache in the Encryption Engine</text><g><title>Storage</title><rect fill="transparent" height="1060.4902" width="8" x="34.1826" y="140.041"/><line style="stroke:#181818;stroke-width:0.5;stroke-dasharray:5.0,5.0;" x1="37.6826" x2="37.6826" y1="140.041" y2="1200.5313"/></g><g><title/><rect fill="#FFFFFF" height="92.9316" style="stroke:#181818;stroke-width:1;" width="10" x="32.6826" y="1107.5996"/></g><g><title>Mail Box</title><rect fill="transparent" height="1060.4902" width="8" x="222.897" y="140.041"/><line style="stroke:#181818;stroke-width:0.5;stroke-dasharray:5.0,5.0;" x1="226.397" x2="226.397" y1="140.041" y2="1200.5313"/></g><g><title/><rect fill="#FFFFFF" height="143.8633" style="stroke:#181818;stroke-width:1;" width="10" x="221.397" y="265.9043"/></g><g><title>FW</title><rect fill="transparent" height="1060.4902" width="8" x="384.2192" y="140.041"/><line style="stroke:#181818;stroke-width:0.5;stroke-dasharray:5.0,5.0;" x1="387.7192" x2="387.7192" y1="140.041" y2="1200.5313"/></g><g><title/><rect fill="#FFFFFF" height="727.1426" style="stroke:#181818;stroke-width:1;" width="10" x="382.7192" y="380.457"/></g><g><title>SFR</title><rect fill="transparent" height="1060.4902" width="8" x="796.9824" y="140.041"/><line style="stroke:#181818;stroke-width:0.5;stroke-dasharray:5.0,5.0;" x1="800.4824" x2="800.4824" y1="140.041" y2="1200.5313"/></g><g><title>Control</title><rect fill="transparent" height="1060.4902" width="8" x="976.4165" y="140.041"/><line style="stroke:#181818;stroke-width:0.5;stroke-dasharray:5.0,5.0;" x1="979.9165" x2="979.9165" y1="140.041" y2="1200.5313"/></g><g><title/><rect fill="#FFFFFF" height="236.7949" style="stroke:#181818;stroke-width:1;" width="10" x="974.9165" y="762.873"/></g><g><title>Key Cache</title><rect fill="transparent" height="1060.4902" width="8" x="1075.7007" y="140.041"/><line style="stroke:#181818;stroke-width:0.5;stroke-dasharray:5.0,5.0;" x1="1079.2007" x2="1079.2007" y1="140.041" y2="1200.5313"/></g><rect fill="#E2E2F0" height="63.4648" rx="2.5" ry="2.5" style="stroke:#181818;stroke-width:0.5;" width="65.3652" x="5" y="75.5762"/><text fill="#000000" font-family="sans-serif" font-size="14" lengthAdjust="spacing" textLength="51.3652" x="12" y="96.1113">Storage</text><text fill="#000000" font-family="sans-serif" font-size="14" lengthAdjust="spacing" textLength="44.5498" x="15.4077" y="112.5996">Device</text><text fill="#000000" font-family="sans-serif" font-size="14" lengthAdjust="spacing" textLength="19.4824" x="27.9414" y="129.0879">FW</text><rect fill="#E2E2F0" height="30.4883" rx="2.5" ry="2.5" style="stroke:#181818;stroke-width:0.5;" width="71.5518" x="190.6211" y="108.5527"/><text fill="#000000" font-family="sans-serif" font-size="14" lengthAdjust="spacing" textLength="57.5518" x="197.6211" y="129.0879">Mail Box</text><rect fill="#E2E2F0" height="30.4883" rx="2.5" ry="2.5" style="stroke:#181818;stroke-width:0.5;" width="33.4824" x="370.978" y="108.5527"/><text fill="#000000" font-family="sans-serif" font-size="14" lengthAdjust="spacing" textLength="19.4824" x="377.978" y="129.0879">FW</text><rect fill="#E2E2F0" height="46.9766" rx="2.5" ry="2.5" style="stroke:#181818;stroke-width:0.5;" width="73.3359" x="763.8145" y="92.0645"/><text fill="#000000" font-family="sans-serif" font-size="14" lengthAdjust="spacing" textLength="23.8984" x="788.5332" y="112.5996">SFR</text><text fill="#000000" font-family="sans-serif" font-size="14" lengthAdjust="spacing" textLength="59.3359" x="770.8145" y="129.0879">Interface</text><rect fill="#E2E2F0" height="30.4883" rx="2.5" ry="2.5" style="stroke:#181818;stroke-width:0.5;" width="64.5859" x="947.6235" y="108.5527"/><text fill="#000000" font-family="sans-serif" font-size="14" lengthAdjust="spacing" textLength="50.5859" x="954.6235" y="129.0879">Control</text><rect fill="#E2E2F0" height="30.4883" rx="2.5" ry="2.5" style="stroke:#181818;stroke-width:0.5;" width="83.7607" x="1037.3203" y="108.5527"/><text fill="#000000" font-family="sans-serif" font-size="14" lengthAdjust="spacing" textLength="69.7607" x="1044.3203" y="129.0879">Key Cache</text><rect fill="#E2E2F0" height="63.4648" rx="2.5" ry="2.5" style="stroke:#181818;stroke-width:0.5;" width="65.3652" x="5" y="1200.5313"/><text fill="#000000" font-family="sans-serif" font-size="14" lengthAdjust="spacing" textLength="51.3652" x="12" y="1221.0664">Storage</text><text fill="#000000" font-family="sans-serif" font-size="14" lengthAdjust="spacing" textLength="44.5498" x="15.4077" y="1237.5547">Device</text><text fill="#000000" font-family="sans-serif" font-size="14" lengthAdjust="spacing" textLength="19.4824" x="27.9414" y="1254.043">FW</text><rect fill="#E2E2F0" height="30.4883" rx="2.5" ry="2.5" style="stroke:#181818;stroke-width:0.5;" width="71.5518" x="190.6211" y="1200.5313"/><text fill="#000000" font-family="sans-serif" font-size="14" lengthAdjust="spacing" textLength="57.5518" x="197.6211" y="1221.0664">Mail Box</text><rect fill="#E2E2F0" height="30.4883" rx="2.5" ry="2.5" style="stroke:#181818;stroke-width:0.5;" width="33.4824" x="370.978" y="1200.5313"/><text fill="#000000" font-family="sans-serif" font-size="14" lengthAdjust="spacing" textLength="19.4824" x="377.978" y="1221.0664">FW</text><rect fill="#E2E2F0" height="46.9766" rx="2.5" ry="2.5" style="stroke:#181818;stroke-width:0.5;" width="73.3359" x="763.8145" y="1200.5313"/><text fill="#000000" font-family="sans-serif" font-size="14" lengthAdjust="spacing" textLength="23.8984" x="788.5332" y="1221.0664">SFR</text><text fill="#000000" font-family="sans-serif" font-size="14" lengthAdjust="spacing" textLength="59.3359" x="770.8145" y="1237.5547">Interface</text><rect fill="#E2E2F0" height="30.4883" rx="2.5" ry="2.5" style="stroke:#181818;stroke-width:0.5;" width="64.5859" x="947.6235" y="1200.5313"/><text fill="#000000" font-family="sans-serif" font-size="14" lengthAdjust="spacing" textLength="50.5859" x="954.6235" y="1221.0664">Control</text><rect fill="#E2E2F0" height="30.4883" rx="2.5" ry="2.5" style="stroke:#181818;stroke-width:0.5;" width="83.7607" x="1037.3203" y="1200.5313"/><text fill="#000000" font-family="sans-serif" font-size="14" lengthAdjust="spacing" textLength="69.7607" x="1044.3203" y="1221.0664">Key Cache</text><path d="M5.4011,153.041 L5.4011,239.041 L1111.4011,239.041 L1111.4011,163.041 L1101.4011,153.041 L5.4011,153.041 " fill="#FEFFDD" style="stroke:#181818;stroke-width:0.5;"/><path d="M1101.4011,153.041 L1101.4011,163.041 L1111.4011,163.041 L1101.4011,153.041 " fill="#FEFFDD" style="stroke:#181818;stroke-width:0.5;"/><text fill="#000000" font-family="sans-serif" font-size="13" font-weight="bold" lengthAdjust="spacing" textLength="94.999" x="173.2363" y="170.6094">Preconditions:</text><ellipse cx="178.7363" cy="181.1621" fill="#000000" rx="2.5" ry="2.5"/><text fill="#000000" font-family="sans-serif" font-size="13" lengthAdjust="spacing" textLength="465.7529" x="185.2363" y="185.9199">Keys may or may not be loaded in the Key Cache of the Encryption Engine</text><text fill="#000000" font-family="sans-serif" font-size="13" lengthAdjust="spacing" textLength="4.1133" x="173.2363" y="201.2305">&#160;</text><text fill="#000000" font-family="sans-serif" font-size="13" font-weight="bold" lengthAdjust="spacing" textLength="41.7422" x="173.2363" y="216.541">Notes:</text><ellipse cx="178.7363" cy="227.0938" fill="#000000" rx="2.5" ry="2.5"/><text fill="#000000" font-family="sans-serif" font-size="13" lengthAdjust="spacing" textLength="749.4106" x="185.2363" y="231.8516">This sequence diagram is not showing any error reporting due to timeouts or errors reported by the Encryption Engine</text><line style="stroke:#008000;stroke-width:1;" x1="219.397" x2="209.397" y1="265.9043" y2="261.9043"/><line style="stroke:#008000;stroke-width:1;" x1="219.397" x2="209.397" y1="265.9043" y2="269.9043"/><line style="stroke:#008000;stroke-width:1;" x1="37.6826" x2="220.397" y1="265.9043" y2="265.9043"/><text fill="#000000" font-family="sans-serif" font-size="13" font-weight="bold" lengthAdjust="spacing" textLength="35.3628" x="44.6826" y="261.1621">[001]</text><text fill="#000000" font-family="sans-serif" font-size="13" lengthAdjust="spacing" textLength="120.3516" x="84.0454" y="261.1621">CLEAR_KEY_CACHE</text><path d="M236.397,278.9043 L236.397,353.9043 L891.397,353.9043 L891.397,288.9043 L881.397,278.9043 L236.397,278.9043 " fill="#FEFFDD" style="stroke:#181818;stroke-width:0.5;"/><path d="M881.397,278.9043 L881.397,288.9043 L891.397,288.9043 L881.397,278.9043 " fill="#FEFFDD" style="stroke:#181818;stroke-width:0.5;"/><text fill="#000000" font-family="sans-serif" font-size="13" lengthAdjust="spacing" textLength="4.1133" x="242.397" y="298.4727">&#160;</text><text fill="#000000" font-family="sans-serif" font-size="13" font-weight="bold" lengthAdjust="spacing" textLength="32.1509" x="246.5103" y="298.4727">Field</text><text fill="#000000" font-family="sans-serif" font-size="13" lengthAdjust="spacing" textLength="4.1133" x="333.0161" y="298.4727">&#160;</text><text fill="#000000" font-family="sans-serif" font-size="13" font-weight="bold" lengthAdjust="spacing" textLength="26.9521" x="337.1294" y="298.4727">Size</text><text fill="#000000" font-family="sans-serif" font-size="13" lengthAdjust="spacing" textLength="4.1133" x="382.2041" y="298.4727">&#160;</text><text fill="#000000" font-family="sans-serif" font-size="13" font-weight="bold" lengthAdjust="spacing" textLength="66.644" x="386.3174" y="298.4727">Definition</text><text fill="#000000" font-family="sans-serif" font-size="13" lengthAdjust="spacing" textLength="49.1563" x="246.5103" y="313.7832">chksum</text><text fill="#000000" font-family="sans-serif" font-size="13" lengthAdjust="spacing" textLength="24.5083" x="337.1294" y="313.7832">u32</text><text fill="#000000" font-family="sans-serif" font-size="13" lengthAdjust="spacing" textLength="486.459" x="386.3174" y="313.7832">Checksum over other input arguments, computed by the caller. Little endian.</text><text fill="#000000" font-family="sans-serif" font-size="13" lengthAdjust="spacing" textLength="75.7085" x="246.5103" y="329.0938">rdy_timeout</text><text fill="#000000" font-family="sans-serif" font-size="13" lengthAdjust="spacing" textLength="24.5083" x="337.1294" y="329.0938">u32</text><text fill="#000000" font-family="sans-serif" font-size="13" lengthAdjust="spacing" textLength="469.6758" x="386.3174" y="329.0938">Timeout in ms for encryption engine to become ready for a new command</text><text fill="#000000" font-family="sans-serif" font-size="13" lengthAdjust="spacing" textLength="82.3926" x="246.5103" y="344.4043">cmd_timeout</text><text fill="#000000" font-family="sans-serif" font-size="13" lengthAdjust="spacing" textLength="24.5083" x="337.1294" y="344.4043">u32</text><text fill="#000000" font-family="sans-serif" font-size="13" lengthAdjust="spacing" textLength="366.3613" x="386.3174" y="344.4043">Timeout in ms for command to crypto engine to complete</text><line style="stroke:#000000;stroke-width:0.5;" x1="242.397" x2="876.8896" y1="285.9043" y2="285.9043"/><line style="stroke:#000000;stroke-width:0.5;" x1="242.397" x2="876.8896" y1="301.2148" y2="301.2148"/><line style="stroke:#000000;stroke-width:0.5;" x1="242.397" x2="876.8896" y1="316.5254" y2="316.5254"/><line style="stroke:#000000;stroke-width:0.5;" x1="242.397" x2="876.8896" y1="331.8359" y2="331.8359"/><line style="stroke:#000000;stroke-width:0.5;" x1="242.397" x2="876.8896" y1="347.1465" y2="347.1465"/><line style="stroke:#000000;stroke-width:0.5;" x1="242.397" x2="242.397" y1="285.9043" y2="347.1465"/><line style="stroke:#000000;stroke-width:0.5;" x1="333.0161" x2="333.0161" y1="285.9043" y2="347.1465"/><line style="stroke:#000000;stroke-width:0.5;" x1="382.2041" x2="382.2041" y1="285.9043" y2="347.1465"/><line style="stroke:#000000;stroke-width:0.5;" x1="876.8896" x2="876.8896" y1="285.9043" y2="347.1465"/><line style="stroke:#008000;stroke-width:1;" x1="380.7192" x2="370.7192" y1="380.457" y2="376.457"/><line style="stroke:#008000;stroke-width:1;" x1="380.7192" x2="370.7192" y1="380.457" y2="384.457"/><line style="stroke:#008000;stroke-width:1;" x1="231.397" x2="381.7192" y1="380.457" y2="380.457"/><text fill="#000000" font-family="sans-serif" font-size="13" font-weight="bold" lengthAdjust="spacing" textLength="35.3628" x="238.397" y="375.7148">[002]</text><text fill="#000000" font-family="sans-serif" font-size="13" lengthAdjust="spacing" textLength="64.6826" x="277.7598" y="375.7148">Command</text><polygon fill="#FF0000" points="242.397,405.7676,232.397,409.7676,242.397,413.7676,238.397,409.7676" style="stroke:#FF0000;stroke-width:1;"/><line style="stroke:#FF0000;stroke-width:1;" x1="236.397" x2="381.7192" y1="409.7676" y2="409.7676"/><text fill="#000000" font-family="sans-serif" font-size="13" font-weight="bold" lengthAdjust="spacing" textLength="35.3628" x="248.397" y="405.0254">[003]</text><text fill="#000000" font-family="sans-serif" font-size="13" lengthAdjust="spacing" textLength="87.9595" x="287.7598" y="405.0254">Get command</text><line style="stroke:#FF0000;stroke-width:1;" x1="392.7192" x2="434.7192" y1="439.0781" y2="439.0781"/><line style="stroke:#FF0000;stroke-width:1;" x1="434.7192" x2="434.7192" y1="439.0781" y2="452.0781"/><line style="stroke:#FF0000;stroke-width:1;" x1="393.7192" x2="434.7192" y1="452.0781" y2="452.0781"/><polygon fill="#FF0000" points="403.7192,448.0781,393.7192,452.0781,403.7192,456.0781,399.7192,452.0781" style="stroke:#FF0000;stroke-width:1;"/><text fill="#000000" font-family="sans-serif" font-size="13" font-weight="bold" lengthAdjust="spacing" textLength="35.3628" x="399.7192" y="434.3359">[004]</text><text fill="#000000" font-family="sans-serif" font-size="13" lengthAdjust="spacing" textLength="132.0693" x="439.082" y="434.3359">Determine command</text><path d="M333.7192,464.0781 L395.8579,464.0781 L395.8579,471.3887 L385.8579,481.3887 L333.7192,481.3887 L333.7192,464.0781 " fill="#EEEEEE" style="stroke:#000000;stroke-width:1.5;"/><rect fill="transparent" height="592.9004" style="stroke:#000000;stroke-width:1.5;" width="947.0542" x="333.7192" y="464.0781"/><text fill="#000000" font-family="sans-serif" font-size="13" font-weight="bold" lengthAdjust="spacing" textLength="17.1387" x="348.7192" y="477.6465">alt</text><text fill="#000000" font-family="sans-serif" font-size="11" font-weight="bold" lengthAdjust="spacing" textLength="210.4663" x="410.8579" y="476.7129">[Encryption Engin has become ready]</text><polygon fill="#FF0000" points="788.4824,508.6992,798.4824,512.6992,788.4824,516.6992,792.4824,512.6992" style="stroke:#FF0000;stroke-width:1;"/><line style="stroke:#FF0000;stroke-width:1;" x1="392.7192" x2="794.4824" y1="512.6992" y2="512.6992"/><text fill="#000000" font-family="sans-serif" font-size="13" font-weight="bold" lengthAdjust="spacing" textLength="35.3628" x="399.7192" y="507.957">[005]</text><text fill="#000000" font-family="sans-serif" font-size="13" lengthAdjust="spacing" textLength="109.5923" x="439.082" y="507.957">Read Control Reg</text><path d="M352.7192,524.6992 L414.8579,524.6992 L414.8579,532.0098 L404.8579,542.0098 L352.7192,542.0098 L352.7192,524.6992 " fill="#EEEEEE" style="stroke:#000000;stroke-width:1.5;"/><rect fill="transparent" height="202.8633" style="stroke:#000000;stroke-width:1.5;" width="556.9912" x="352.7192" y="524.6992"/><text fill="#000000" font-family="sans-serif" font-size="13" font-weight="bold" lengthAdjust="spacing" textLength="17.1387" x="367.7192" y="538.2676">alt</text><text fill="#000000" font-family="sans-serif" font-size="11" font-weight="bold" lengthAdjust="spacing" textLength="225.1777" x="429.8579" y="537.334">[(DN == 1b || ERR == 1b || EXE == 1b)]</text><polygon fill="#FF0000" points="788.4824,569.3203,798.4824,573.3203,788.4824,577.3203,792.4824,573.3203" style="stroke:#FF0000;stroke-width:1;"/><line style="stroke:#FF0000;stroke-width:1;" x1="392.7192" x2="794.4824" y1="573.3203" y2="573.3203"/><text fill="#000000" font-family="sans-serif" font-size="13" font-weight="bold" lengthAdjust="spacing" textLength="35.3628" x="399.7192" y="568.5781">[006]</text><text fill="#000000" font-family="sans-serif" font-size="13" lengthAdjust="spacing" textLength="177.9438" x="439.082" y="568.5781">Write Control Reg (DN = 1b)</text><line style="stroke:#FF0000;stroke-width:1;" x1="392.7192" x2="434.7192" y1="602.6309" y2="602.6309"/><line style="stroke:#FF0000;stroke-width:1;" x1="434.7192" x2="434.7192" y1="602.6309" y2="615.6309"/><line style="stroke:#FF0000;stroke-width:1;" x1="393.7192" x2="434.7192" y1="615.6309" y2="615.6309"/><polygon fill="#FF0000" points="403.7192,611.6309,393.7192,615.6309,403.7192,619.6309,399.7192,615.6309" style="stroke:#FF0000;stroke-width:1;"/><text fill="#000000" font-family="sans-serif" font-size="13" font-weight="bold" lengthAdjust="spacing" textLength="35.3628" x="399.7192" y="597.8887">[007]</text><text fill="#000000" font-family="sans-serif" font-size="13" lengthAdjust="spacing" textLength="82.2529" x="439.082" y="597.8887">Start timeout</text><polygon fill="#FF0000" points="788.4824,640.9414,798.4824,644.9414,788.4824,648.9414,792.4824,644.9414" style="stroke:#FF0000;stroke-width:1;"/><line style="stroke:#FF0000;stroke-width:1;" x1="392.7192" x2="794.4824" y1="644.9414" y2="644.9414"/><text fill="#000000" font-family="sans-serif" font-size="13" font-weight="bold" lengthAdjust="spacing" textLength="35.3628" x="399.7192" y="640.1992">[008]</text><text fill="#000000" font-family="sans-serif" font-size="13" lengthAdjust="spacing" textLength="109.5923" x="439.082" y="640.1992">Read Control Reg</text><path d="M371.7192,656.9414 L868.7104,656.9414 L868.7104,664.252 L858.7104,674.252 L371.7192,674.252 L371.7192,656.9414 " fill="#EEEEEE" style="stroke:#000000;stroke-width:1.5;"/><rect fill="transparent" height="56.6211" style="stroke:#000000;stroke-width:1.5;" width="512.9912" x="371.7192" y="656.9414"/><text fill="#000000" font-family="sans-serif" font-size="13" font-weight="bold" lengthAdjust="spacing" textLength="451.9912" x="386.7192" y="670.5098">loop until (rdy_timeout or (DN == 0b &amp;&amp; ERR == 0b &amp;&amp; EXE == 0b)</text><polygon fill="#FF0000" points="788.4824,701.5625,798.4824,705.5625,788.4824,709.5625,792.4824,705.5625" style="stroke:#FF0000;stroke-width:1;"/><line style="stroke:#FF0000;stroke-width:1;" x1="392.7192" x2="794.4824" y1="705.5625" y2="705.5625"/><text fill="#000000" font-family="sans-serif" font-size="13" font-weight="bold" lengthAdjust="spacing" textLength="35.3628" x="399.7192" y="700.8203">[009]</text><text fill="#000000" font-family="sans-serif" font-size="13" lengthAdjust="spacing" textLength="109.5923" x="439.082" y="700.8203">Read Control Reg</text><polygon fill="#FF0000" points="788.4824,758.873,798.4824,762.873,788.4824,766.873,792.4824,762.873" style="stroke:#FF0000;stroke-width:1;"/><line style="stroke:#FF0000;stroke-width:1;" x1="392.7192" x2="794.4824" y1="762.873" y2="762.873"/><text fill="#000000" font-family="sans-serif" font-size="13" font-weight="bold" lengthAdjust="spacing" textLength="35.3628" x="399.7192" y="758.1309">[010]</text><text fill="#000000" font-family="sans-serif" font-size="13" lengthAdjust="spacing" textLength="349.4004" x="439.082" y="758.1309">Write Control Reg (CMD = Sanitize, DN = 0b, EXE = 1b)</text><line style="stroke:#008000;stroke-width:1;" x1="972.9165" x2="962.9165" y1="762.873" y2="758.873"/><line style="stroke:#008000;stroke-width:1;" x1="972.9165" x2="962.9165" y1="762.873" y2="766.873"/><line style="stroke:#008000;stroke-width:1;" x1="800.4824" x2="973.9165" y1="762.873" y2="762.873"/><text fill="#000000" font-family="sans-serif" font-size="13" font-weight="bold" lengthAdjust="spacing" textLength="35.3628" x="807.4824" y="758.1309">[011]</text><text fill="#000000" font-family="sans-serif" font-size="13" lengthAdjust="spacing" textLength="4.1133" x="846.8452" y="758.1309">&#160;</text><polygon fill="#FF0000" points="1067.2007,788.1836,1077.2007,792.1836,1067.2007,796.1836,1071.2007,792.1836" style="stroke:#FF0000;stroke-width:1;"/><line style="stroke:#FF0000;stroke-width:1;" x1="984.9165" x2="1073.2007" y1="792.1836" y2="792.1836"/><text fill="#000000" font-family="sans-serif" font-size="13" font-weight="bold" lengthAdjust="spacing" textLength="35.3628" x="991.9165" y="787.4414">[012]</text><text fill="#000000" font-family="sans-serif" font-size="13" lengthAdjust="spacing" textLength="35.9214" x="1031.2793" y="787.4414">Purge</text><line style="stroke:#FF0000;stroke-width:1;" x1="392.7192" x2="434.7192" y1="821.4941" y2="821.4941"/><line style="stroke:#FF0000;stroke-width:1;" x1="434.7192" x2="434.7192" y1="821.4941" y2="834.4941"/><line style="stroke:#FF0000;stroke-width:1;" x1="393.7192" x2="434.7192" y1="834.4941" y2="834.4941"/><polygon fill="#FF0000" points="403.7192,830.4941,393.7192,834.4941,403.7192,838.4941,399.7192,834.4941" style="stroke:#FF0000;stroke-width:1;"/><text fill="#000000" font-family="sans-serif" font-size="13" font-weight="bold" lengthAdjust="spacing" textLength="35.3628" x="399.7192" y="816.752">[013]</text><text fill="#000000" font-family="sans-serif" font-size="13" lengthAdjust="spacing" textLength="82.2529" x="439.082" y="816.752">Start timeout</text><polygon fill="#FF0000" points="788.4824,859.8047,798.4824,863.8047,788.4824,867.8047,792.4824,863.8047" style="stroke:#FF0000;stroke-width:1;"/><line style="stroke:#FF0000;stroke-width:1;" x1="392.7192" x2="794.4824" y1="863.8047" y2="863.8047"/><text fill="#000000" font-family="sans-serif" font-size="13" font-weight="bold" lengthAdjust="spacing" textLength="35.3628" x="399.7192" y="859.0625">[014]</text><text fill="#000000" font-family="sans-serif" font-size="13" lengthAdjust="spacing" textLength="109.5923" x="439.082" y="859.0625">Read Control Reg</text><path d="M371.7192,875.8047 L671.1587,875.8047 L671.1587,883.1152 L661.1587,893.1152 L371.7192,893.1152 L371.7192,875.8047 " fill="#EEEEEE" style="stroke:#000000;stroke-width:1.5;"/><rect fill="transparent" height="131.8633" style="stroke:#000000;stroke-width:1.5;" width="624.1973" x="371.7192" y="875.8047"/><text fill="#000000" font-family="sans-serif" font-size="13" font-weight="bold" lengthAdjust="spacing" textLength="254.4395" x="386.7192" y="889.373">loop until (cmd_timeout or DN == 1b)</text><polygon fill="#FF0000" points="788.4824,920.4258,798.4824,924.4258,788.4824,928.4258,792.4824,924.4258" style="stroke:#FF0000;stroke-width:1;"/><line style="stroke:#FF0000;stroke-width:1;" x1="392.7192" x2="794.4824" y1="924.4258" y2="924.4258"/><text fill="#000000" font-family="sans-serif" font-size="13" font-weight="bold" lengthAdjust="spacing" textLength="35.3628" x="399.7192" y="919.6836">[015]</text><text fill="#000000" font-family="sans-serif" font-size="13" lengthAdjust="spacing" textLength="109.5923" x="439.082" y="919.6836">Read Control Reg</text><polygon fill="#FF0000" points="811.4824,995.668,801.4824,999.668,811.4824,1003.668,807.4824,999.668" style="stroke:#FF0000;stroke-width:1;"/><line style="stroke:#FF0000;stroke-width:1;" x1="805.4824" x2="973.9165" y1="999.668" y2="999.668"/><text fill="#000000" font-family="sans-serif" font-size="13" font-weight="bold" lengthAdjust="spacing" textLength="35.3628" x="817.4824" y="971.96">[016]</text><text fill="#000000" font-family="sans-serif" font-size="13" lengthAdjust="spacing" textLength="111.0713" x="856.8452" y="948.9941">Write Control Reg</text><text fill="#000000" font-family="sans-serif" font-size="13" lengthAdjust="spacing" textLength="76.3369" x="856.8452" y="964.3047">(Done = 1b,</text><text fill="#000000" font-family="sans-serif" font-size="13" lengthAdjust="spacing" textLength="61.8833" x="860.9585" y="979.6152">Error = 0,</text><text fill="#000000" font-family="sans-serif" font-size="13" lengthAdjust="spacing" textLength="53.2378" x="860.9585" y="994.9258">EXE = 0)</text><polygon fill="#FF0000" points="788.4824,1038.9785,798.4824,1042.9785,788.4824,1046.9785,792.4824,1042.9785" style="stroke:#FF0000;stroke-width:1;"/><line style="stroke:#FF0000;stroke-width:1;" x1="392.7192" x2="794.4824" y1="1042.9785" y2="1042.9785"/><text fill="#000000" font-family="sans-serif" font-size="13" font-weight="bold" lengthAdjust="spacing" textLength="35.3628" x="399.7192" y="1038.2363">[017]</text><text fill="#000000" font-family="sans-serif" font-size="13" lengthAdjust="spacing" textLength="177.9438" x="439.082" y="1038.2363">Write Control Reg (DN = 1b)</text><path d="M805.4824,1026.668 L805.4824,1051.668 L1259.4824,1051.668 L1259.4824,1036.668 L1249.4824,1026.668 L805.4824,1026.668 " fill="#FEFFDD" style="stroke:#181818;stroke-width:0.5;"/><path d="M1249.4824,1026.668 L1249.4824,1036.668 L1259.4824,1036.668 L1249.4824,1026.668 " fill="#FEFFDD" style="stroke:#181818;stroke-width:0.5;"/><text fill="#000000" font-family="sans-serif" font-size="13" lengthAdjust="spacing" textLength="433.291" x="811.4824" y="1044.2363">Reset the SFR interface for next operation - not waiting for response</text><polygon fill="#FF0000" points="237.397,1103.5996,227.397,1107.5996,237.397,1111.5996,233.397,1107.5996" style="stroke:#FF0000;stroke-width:1;"/><line style="stroke:#FF0000;stroke-width:1;" x1="231.397" x2="381.7192" y1="1107.5996" y2="1107.5996"/><text fill="#000000" font-family="sans-serif" font-size="13" font-weight="bold" lengthAdjust="spacing" textLength="35.3628" x="243.397" y="1095.2021">[018]</text><text fill="#000000" font-family="sans-serif" font-size="13" lengthAdjust="spacing" textLength="64.6826" x="282.7598" y="1087.5469">Command</text><text fill="#000000" font-family="sans-serif" font-size="13" lengthAdjust="spacing" textLength="60.1948" x="282.7598" y="1102.8574">Response</text><line style="stroke:#008000;stroke-width:1;" x1="43.6826" x2="53.6826" y1="1107.5996" y2="1103.5996"/><line style="stroke:#008000;stroke-width:1;" x1="43.6826" x2="53.6826" y1="1107.5996" y2="1111.5996"/><line style="stroke:#008000;stroke-width:1;" x1="42.6826" x2="225.397" y1="1107.5996" y2="1107.5996"/><text fill="#000000" font-family="sans-serif" font-size="13" font-weight="bold" lengthAdjust="spacing" textLength="35.3628" x="59.6826" y="1095.2021">[019]</text><text fill="#000000" font-family="sans-serif" font-size="13" lengthAdjust="spacing" textLength="64.6826" x="99.0454" y="1087.5469">Command</text><text fill="#000000" font-family="sans-serif" font-size="13" lengthAdjust="spacing" textLength="60.4043" x="99.0454" y="1102.8574">Complete</text><path d="M231.397,1125.5996 L231.397,1184.5996 L873.397,1184.5996 L873.397,1135.5996 L863.397,1125.5996 L231.397,1125.5996 " fill="#FEFFDD" style="stroke:#181818;stroke-width:0.5;"/><path d="M863.397,1125.5996 L863.397,1135.5996 L873.397,1135.5996 L863.397,1125.5996 " fill="#FEFFDD" style="stroke:#181818;stroke-width:0.5;"/><text fill="#000000" font-family="sans-serif" font-size="13" lengthAdjust="spacing" textLength="4.1133" x="237.397" y="1145.168">&#160;</text><text fill="#000000" font-family="sans-serif" font-size="13" font-weight="bold" lengthAdjust="spacing" textLength="32.1509" x="241.5103" y="1145.168">Field</text><text fill="#000000" font-family="sans-serif" font-size="13" lengthAdjust="spacing" textLength="4.1133" x="315.3462" y="1145.168">&#160;</text><text fill="#000000" font-family="sans-serif" font-size="13" font-weight="bold" lengthAdjust="spacing" textLength="26.9521" x="319.4595" y="1145.168">Size</text><text fill="#000000" font-family="sans-serif" font-size="13" lengthAdjust="spacing" textLength="4.1133" x="364.5342" y="1145.168">&#160;</text><text fill="#000000" font-family="sans-serif" font-size="13" font-weight="bold" lengthAdjust="spacing" textLength="66.644" x="368.6475" y="1145.168">Definition</text><text fill="#000000" font-family="sans-serif" font-size="13" lengthAdjust="spacing" textLength="49.1563" x="241.5103" y="1160.4785">chksum</text><text fill="#000000" font-family="sans-serif" font-size="13" lengthAdjust="spacing" textLength="24.5083" x="319.4595" y="1160.4785">u32</text><text fill="#000000" font-family="sans-serif" font-size="13" lengthAdjust="spacing" textLength="486.5796" x="368.6475" y="1160.4785">Checksum over other output arguments, computed by Caliptra. Little endian.</text><text fill="#000000" font-family="sans-serif" font-size="13" lengthAdjust="spacing" textLength="68.0723" x="241.5103" y="1175.7891">fips_status</text><text fill="#000000" font-family="sans-serif" font-size="13" lengthAdjust="spacing" textLength="24.5083" x="319.4595" y="1175.7891">u32</text><text fill="#000000" font-family="sans-serif" font-size="13" lengthAdjust="spacing" textLength="338.4253" x="368.6475" y="1175.7891">Indicates if the command is FIPS approved or an error</text><line style="stroke:#000000;stroke-width:0.5;" x1="237.397" x2="859.3403" y1="1132.5996" y2="1132.5996"/><line style="stroke:#000000;stroke-width:0.5;" x1="237.397" x2="859.3403" y1="1147.9102" y2="1147.9102"/><line style="stroke:#000000;stroke-width:0.5;" x1="237.397" x2="859.3403" y1="1163.2207" y2="1163.2207"/><line style="stroke:#000000;stroke-width:0.5;" x1="237.397" x2="859.3403" y1="1178.5313" y2="1178.5313"/><line style="stroke:#000000;stroke-width:0.5;" x1="237.397" x2="237.397" y1="1132.5996" y2="1178.5313"/><line style="stroke:#000000;stroke-width:0.5;" x1="315.3462" x2="315.3462" y1="1132.5996" y2="1178.5313"/><line style="stroke:#000000;stroke-width:0.5;" x1="364.5342" x2="364.5342" y1="1132.5996" y2="1178.5313"/><line style="stroke:#000000;stroke-width:0.5;" x1="859.3403" x2="859.3403" y1="1132.5996" y2="1178.5313"/><text fill="#888888" font-family="sans-serif" font-size="10" lengthAdjust="spacing" textLength="148.6572" x="572.5581" y="1284.6641">Filename: clear_key_cache.uml</text><!--SRC=[hLPjRziu3FxkNy44lIwz9bstuRuKwu32IRTYBoYI0dS750XactQ4sf8doSiy-CUFaktKJjqY1ro-M18fyk53Yio8Yp0j8WGPvkjKXW_hml1Kdz6nvusEz4PkronDuHB-CAh0oOdtgdyQirJROs_4OvZiH2SUqAzHpHM6KaGT8nsXuIR5OH7B-R0WqyawPqfpaGmhH59qROwGG3w3g0rW2DA0hC4q8Da3DQ3Hecf58nGHZtlKETVrfJk7Okodo1IO3S83bX2oa5PSk8E525MP6ou5BHCkS3naiecrDYgaGM2XabgxlVsz3pxSrZhSsj8Nxry77tRIF-4pbXeoLe9KxaCs84189OimQh6G4lWEd8o7mNbTXzy8nnD7TnkkGUFt0aM8476MA9O1dLcFDXPBBHCbe5A4HM4kbR5dKO5W91YUeIoCja2TYcvq26PGFeFAkYRI73Cx-bu1CJB3drmx-zem4jhZgziRoa6QUl4MZfWkHGXPS7eA5-1_MLmjrvyN_wxzA__JelyWSjwXN_5aO-ZQBlBACdBDCOrsknN_XVLgZZ4NBZ5GTMw4cmTTPEskUFUsMVaR39r4_a05ac9MbAAyCC1KKcGeZ9v2A3CwUMJ5HeJg3BvmOslEai34MS-VYifrms_FtrrpHcMGQOWjyuyKewFOfYQW-ieeT6HHwRGO2DnQ81aZydkHPT61djhRPD-vb1s7DiGKYUrgECDPqEOlZBTr0cjhlSHrtdITmD3clKaxtVc8faNXn5amcxd5aSOqden9VJo5yPo0gCmYQvJ7tPxaBhMuM6gU52bicEunwErXqR4YC4iIKHJ2A9dI9gcrhC79_1jSNiAR0AeA5ijbP_FFejwSx3AmR_PlnOd6ZjtQdBipSCckBc1bc3BjWtpMz1F4hMAYP95JXv4v58864aowzKUfRo8w3-3uk8sesTGHdNVH_IVVsEJIVhq32V6_pecH5RCFzHTEmH5q7anhD3jwZvs5fkuGJqzh1uYD_OUGpDyMAi5zpqEiUWU7zPJExYCZEjlw6CpeIzNLWq-AizaGGVTYCgzdtvjWUazLxVetCUGsZgBp4wzBlZDrCFsxUkptM0jQqmkrBMvrlQJEGSymPZHRRFSG-9DYpr4nzz9cRifi6NSTFtRpHUSq3YaNhXJsddxJBkx5ibKxXiUcqkyfzy9lsf6rOb_xm6oegh-gwj0fyVyF2Qg45wQ4prAU6yLUd14np_NQpif2zzpTa6v84rG3h_yRj8sRHllrpUqAM9uhWXBPKcIY6U_3ZVit]--></g></svg>