<svg xmlns="http://www.w3.org/2000/svg" xmlns:xlink="http://www.w3.org/1999/xlink" contentStyleType="text/css" data-diagram-type="SEQUENCE" height="1750px" preserveAspectRatio="none" style="width:1508px;height:1750px;background:#FFFFFF;" version="1.1" viewBox="0 0 1508 1750" width="1508px" zoomAndPan="magnify"><title>Mix PMEK into MEK seed</title><defs/><g><rect fill="#DDDDDD" height="1670.9414" style="stroke:#181818;stroke-width:0.5;" width="1238.1177" x="181.5903" y="56.2656"/><text fill="#000000" font-family="sans-serif" font-size="13" font-weight="bold" lengthAdjust="spacing" textLength="52.7935" x="774.2524" y="68.834">Caliptra</text><text fill="#888888" font-family="sans-serif" font-size="10" lengthAdjust="spacing" textLength="46.0254" x="1454.2705" y="14.668">Version 1</text><text fill="#000000" font-family="sans-serif" font-size="14" font-weight="bold" lengthAdjust="spacing" textLength="176.6475" x="689.6433" y="41.3125">Mix PMEK into MEK seed</text><g><title>Storage</title><rect fill="transparent" height="1516.7012" width="8" x="84.8208" y="140.041"/><line style="stroke:#181818;stroke-width:0.5;stroke-dasharray:5.0,5.0;" x1="88.3208" x2="88.3208" y1="140.041" y2="1656.7422"/></g><g><title/><rect fill="#FFFFFF" height="87.9316" style="stroke:#181818;stroke-width:1;" width="10" x="83.3208" y="1568.8105"/></g><g><title>Mail Box</title><rect fill="transparent" height="1516.7012" width="8" x="217.8662" y="140.041"/><line style="stroke:#181818;stroke-width:0.5;stroke-dasharray:5.0,5.0;" x1="221.3662" x2="221.3662" y1="140.041" y2="1656.7422"/></g><g><title/><rect fill="#FFFFFF" height="143.8633" style="stroke:#181818;stroke-width:1;" width="10" x="216.3662" y="311.8359"/></g><g><title>FW</title><rect fill="transparent" height="1516.7012" width="8" x="379.1885" y="140.041"/><line style="stroke:#181818;stroke-width:0.5;stroke-dasharray:5.0,5.0;" x1="382.6885" x2="382.6885" y1="140.041" y2="1656.7422"/></g><g><title/><rect fill="#FFFFFF" height="1142.4219" style="stroke:#181818;stroke-width:1;" width="10" x="377.6885" y="426.3887"/></g><g><title>Key Vault</title><rect fill="transparent" height="1516.7012" width="8" x="692.8564" y="140.041"/><line style="stroke:#181818;stroke-width:0.5;stroke-dasharray:5.0,5.0;" x1="696.3564" x2="696.3564" y1="140.041" y2="1656.7422"/></g><g><title/><rect fill="#FFFFFF" height="130.2422" style="stroke:#181818;stroke-width:1;" width="10" x="691.3564" y="620.5625"/></g><g><title/><rect fill="#FFFFFF" height="130.2422" style="stroke:#181818;stroke-width:1;" width="10" x="691.3564" y="867.0469"/></g><g><title/><rect fill="#FFFFFF" height="130.2422" style="stroke:#181818;stroke-width:1;" width="10" x="691.3564" y="1057.2207"/></g><g><title/><rect fill="#FFFFFF" height="159.5527" style="stroke:#181818;stroke-width:1;" width="10" x="691.3564" y="1247.3945"/></g><g><title/><rect fill="#FFFFFF" height="58.6211" style="stroke:#181818;stroke-width:1;" width="10" x="691.3564" y="1451.5684"/></g><g><title>Key Vault</title><rect fill="transparent" height="1516.7012" width="8" x="946.3462" y="140.041"/><line style="stroke:#181818;stroke-width:0.5;stroke-dasharray:5.0,5.0;" x1="949.8462" x2="949.8462" y1="140.041" y2="1656.7422"/></g><g><title>Key Vault</title><rect fill="transparent" height="1516.7012" width="8" x="1047.7837" y="140.041"/><line style="stroke:#181818;stroke-width:0.5;stroke-dasharray:5.0,5.0;" x1="1051.2837" x2="1051.2837" y1="140.041" y2="1656.7422"/></g><g><title/><rect fill="#ADD8E6" height="1366.2168" style="stroke:#181818;stroke-width:1;" width="10" x="1046.2837" y="290.5254"/></g><g><title>Key Vault</title><rect fill="transparent" height="1516.7012" width="8" x="1154.5874" y="140.041"/><line style="stroke:#181818;stroke-width:0.5;stroke-dasharray:5.0,5.0;" x1="1158.0874" x2="1158.0874" y1="140.041" y2="1656.7422"/></g><g><title/><rect fill="#ADD8E6" height="1366.2168" style="stroke:#181818;stroke-width:1;" width="10" x="1153.0874" y="290.5254"/></g><g><title>Key Vault</title><rect fill="transparent" height="1516.7012" width="8" x="1257.0947" y="140.041"/><line style="stroke:#181818;stroke-width:0.5;stroke-dasharray:5.0,5.0;" x1="1260.5947" x2="1260.5947" y1="140.041" y2="1656.7422"/></g><g><title/><rect fill="#ADD8E6" height="512.9004" style="stroke:#181818;stroke-width:1;" width="10" x="1255.5947" y="967.9785"/></g><line style="stroke:#181818;stroke-width:2;" x1="1251.5947" x2="1269.5947" y1="1471.8789" y2="1489.8789"/><line style="stroke:#181818;stroke-width:2;" x1="1251.5947" x2="1269.5947" y1="1489.8789" y2="1471.8789"/><g><title>Key Vault</title><rect fill="transparent" height="1516.7012" width="8" x="1363.8369" y="140.041"/><line style="stroke:#181818;stroke-width:0.5;stroke-dasharray:5.0,5.0;" x1="1367.3369" x2="1367.3369" y1="140.041" y2="1656.7422"/></g><g><title/><rect fill="#ADD8E6" height="322.7266" style="stroke:#181818;stroke-width:1;" width="10" x="1362.3369" y="1158.1523"/></g><rect fill="#E2E2F0" height="63.4648" rx="2.5" ry="2.5" style="stroke:#181818;stroke-width:0.5;" width="65.3652" x="55.6382" y="75.5762"/><text fill="#000000" font-family="sans-serif" font-size="14" lengthAdjust="spacing" textLength="51.3652" x="62.6382" y="96.1113">Storage</text><text fill="#000000" font-family="sans-serif" font-size="14" lengthAdjust="spacing" textLength="44.5498" x="66.0459" y="112.5996">Device</text><text fill="#000000" font-family="sans-serif" font-size="14" lengthAdjust="spacing" textLength="19.4824" x="78.5796" y="129.0879">FW</text><rect fill="#E2E2F0" height="30.4883" rx="2.5" ry="2.5" style="stroke:#181818;stroke-width:0.5;" width="71.5518" x="185.5903" y="108.5527"/><text fill="#000000" font-family="sans-serif" font-size="14" lengthAdjust="spacing" textLength="57.5518" x="192.5903" y="129.0879">Mail Box</text><rect fill="#E2E2F0" height="30.4883" rx="2.5" ry="2.5" style="stroke:#181818;stroke-width:0.5;" width="33.4824" x="365.9473" y="108.5527"/><text fill="#000000" font-family="sans-serif" font-size="14" lengthAdjust="spacing" textLength="19.4824" x="372.9473" y="129.0879">FW</text><rect fill="#E2E2F0" height="30.4883" rx="2.5" ry="2.5" style="stroke:#181818;stroke-width:0.5;" width="77.54" x="657.5864" y="108.5527"/><text fill="#000000" font-family="sans-serif" font-size="14" lengthAdjust="spacing" textLength="63.54" x="664.5864" y="129.0879">Key Vault</text><rect fill="#E2E2F0" height="63.4648" rx="2.5" ry="2.5" style="stroke:#181818;stroke-width:0.5;" width="77.54" x="911.0762" y="75.5762"/><text fill="#000000" font-family="sans-serif" font-size="14" lengthAdjust="spacing" textLength="63.54" x="918.0762" y="96.1113">Key Vault</text><text fill="#000000" font-family="sans-serif" font-size="14" lengthAdjust="spacing" textLength="39.5117" x="930.0903" y="112.5996">Slot A</text><text fill="#000000" font-family="sans-serif" font-size="14" lengthAdjust="spacing" textLength="33.3389" x="933.1768" y="129.0879">(FEK)</text><rect fill="#E2E2F0" height="63.4648" rx="2.5" ry="2.5" style="stroke:#181818;stroke-width:0.5;" width="105.335" x="998.6162" y="75.5762"/><text fill="#000000" font-family="sans-serif" font-size="14" lengthAdjust="spacing" textLength="63.54" x="1019.5137" y="96.1113">Key Vault</text><text fill="#000000" font-family="sans-serif" font-size="14" lengthAdjust="spacing" textLength="37.9053" x="1032.3311" y="112.5996">Slot B</text><text fill="#000000" font-family="sans-serif" font-size="14" lengthAdjust="spacing" textLength="91.335" x="1005.6162" y="129.0879">(PMEK Secret)</text><rect fill="#E2E2F0" height="63.4648" rx="2.5" ry="2.5" style="stroke:#181818;stroke-width:0.5;" width="88.2725" x="1113.9512" y="75.5762"/><text fill="#000000" font-family="sans-serif" font-size="14" lengthAdjust="spacing" textLength="63.54" x="1126.3174" y="96.1113">Key Vault</text><text fill="#000000" font-family="sans-serif" font-size="14" lengthAdjust="spacing" textLength="38.6162" x="1138.7793" y="112.5996">Slot X</text><text fill="#000000" font-family="sans-serif" font-size="14" lengthAdjust="spacing" textLength="74.2725" x="1120.9512" y="129.0879">(MEK Seed)</text><rect fill="#E2E2F0" height="63.4648" rx="2.5" ry="2.5" style="stroke:#181818;stroke-width:0.5;" width="96.7422" x="1212.2236" y="75.5762"/><text fill="#000000" font-family="sans-serif" font-size="14" lengthAdjust="spacing" textLength="63.54" x="1228.8247" y="96.1113">Key Vault</text><text fill="#000000" font-family="sans-serif" font-size="14" lengthAdjust="spacing" textLength="38.5752" x="1241.3071" y="112.5996">Slot Y</text><text fill="#000000" font-family="sans-serif" font-size="14" lengthAdjust="spacing" textLength="82.7422" x="1219.2236" y="129.0879">(Temporary)</text><rect fill="#E2E2F0" height="63.4648" rx="2.5" ry="2.5" style="stroke:#181818;stroke-width:0.5;" width="96.7422" x="1318.9658" y="75.5762"/><text fill="#000000" font-family="sans-serif" font-size="14" lengthAdjust="spacing" textLength="63.54" x="1335.5669" y="96.1113">Key Vault</text><text fill="#000000" font-family="sans-serif" font-size="14" lengthAdjust="spacing" textLength="38.3154" x="1348.1792" y="112.5996">Slot Z</text><text fill="#000000" font-family="sans-serif" font-size="14" lengthAdjust="spacing" textLength="82.7422" x="1325.9658" y="129.0879">(Temporary)</text><rect fill="#E2E2F0" height="63.4648" rx="2.5" ry="2.5" style="stroke:#181818;stroke-width:0.5;" width="65.3652" x="55.6382" y="1656.7422"/><text fill="#000000" font-family="sans-serif" font-size="14" lengthAdjust="spacing" textLength="51.3652" x="62.6382" y="1677.2773">Storage</text><text fill="#000000" font-family="sans-serif" font-size="14" lengthAdjust="spacing" textLength="44.5498" x="66.0459" y="1693.7656">Device</text><text fill="#000000" font-family="sans-serif" font-size="14" lengthAdjust="spacing" textLength="19.4824" x="78.5796" y="1710.2539">FW</text><rect fill="#E2E2F0" height="30.4883" rx="2.5" ry="2.5" style="stroke:#181818;stroke-width:0.5;" width="71.5518" x="185.5903" y="1656.7422"/><text fill="#000000" font-family="sans-serif" font-size="14" lengthAdjust="spacing" textLength="57.5518" x="192.5903" y="1677.2773">Mail Box</text><rect fill="#E2E2F0" height="30.4883" rx="2.5" ry="2.5" style="stroke:#181818;stroke-width:0.5;" width="33.4824" x="365.9473" y="1656.7422"/><text fill="#000000" font-family="sans-serif" font-size="14" lengthAdjust="spacing" textLength="19.4824" x="372.9473" y="1677.2773">FW</text><rect fill="#E2E2F0" height="30.4883" rx="2.5" ry="2.5" style="stroke:#181818;stroke-width:0.5;" width="77.54" x="657.5864" y="1656.7422"/><text fill="#000000" font-family="sans-serif" font-size="14" lengthAdjust="spacing" textLength="63.54" x="664.5864" y="1677.2773">Key Vault</text><rect fill="#E2E2F0" height="63.4648" rx="2.5" ry="2.5" style="stroke:#181818;stroke-width:0.5;" width="77.54" x="911.0762" y="1656.7422"/><text fill="#000000" font-family="sans-serif" font-size="14" lengthAdjust="spacing" textLength="63.54" x="918.0762" y="1677.2773">Key Vault</text><text fill="#000000" font-family="sans-serif" font-size="14" lengthAdjust="spacing" textLength="39.5117" x="930.0903" y="1693.7656">Slot A</text><text fill="#000000" font-family="sans-serif" font-size="14" lengthAdjust="spacing" textLength="33.3389" x="933.1768" y="1710.2539">(FEK)</text><rect fill="#E2E2F0" height="63.4648" rx="2.5" ry="2.5" style="stroke:#181818;stroke-width:0.5;" width="105.335" x="998.6162" y="1656.7422"/><text fill="#000000" font-family="sans-serif" font-size="14" lengthAdjust="spacing" textLength="63.54" x="1019.5137" y="1677.2773">Key Vault</text><text fill="#000000" font-family="sans-serif" font-size="14" lengthAdjust="spacing" textLength="37.9053" x="1032.3311" y="1693.7656">Slot B</text><text fill="#000000" font-family="sans-serif" font-size="14" lengthAdjust="spacing" textLength="91.335" x="1005.6162" y="1710.2539">(PMEK Secret)</text><rect fill="#E2E2F0" height="63.4648" rx="2.5" ry="2.5" style="stroke:#181818;stroke-width:0.5;" width="88.2725" x="1113.9512" y="1656.7422"/><text fill="#000000" font-family="sans-serif" font-size="14" lengthAdjust="spacing" textLength="63.54" x="1126.3174" y="1677.2773">Key Vault</text><text fill="#000000" font-family="sans-serif" font-size="14" lengthAdjust="spacing" textLength="38.6162" x="1138.7793" y="1693.7656">Slot X</text><text fill="#000000" font-family="sans-serif" font-size="14" lengthAdjust="spacing" textLength="74.2725" x="1120.9512" y="1710.2539">(MEK Seed)</text><rect fill="#E2E2F0" height="63.4648" rx="2.5" ry="2.5" style="stroke:#181818;stroke-width:0.5;" width="96.7422" x="1212.2236" y="1656.7422"/><text fill="#000000" font-family="sans-serif" font-size="14" lengthAdjust="spacing" textLength="63.54" x="1228.8247" y="1677.2773">Key Vault</text><text fill="#000000" font-family="sans-serif" font-size="14" lengthAdjust="spacing" textLength="38.5752" x="1241.3071" y="1693.7656">Slot Y</text><text fill="#000000" font-family="sans-serif" font-size="14" lengthAdjust="spacing" textLength="82.7422" x="1219.2236" y="1710.2539">(Temporary)</text><rect fill="#E2E2F0" height="63.4648" rx="2.5" ry="2.5" style="stroke:#181818;stroke-width:0.5;" width="96.7422" x="1318.9658" y="1656.7422"/><text fill="#000000" font-family="sans-serif" font-size="14" lengthAdjust="spacing" textLength="63.54" x="1335.5669" y="1677.2773">Key Vault</text><text fill="#000000" font-family="sans-serif" font-size="14" lengthAdjust="spacing" textLength="38.3154" x="1348.1792" y="1693.7656">Slot Z</text><text fill="#000000" font-family="sans-serif" font-size="14" lengthAdjust="spacing" textLength="82.7422" x="1325.9658" y="1710.2539">(Temporary)</text><path d="M10,153.041 L10,285.041 L1445,285.041 L1445,163.041 L1435,153.041 L10,153.041 " fill="#FEFFDD" style="stroke:#181818;stroke-width:0.5;"/><path d="M1435,153.041 L1435,163.041 L1445,163.041 L1435,153.041 " fill="#FEFFDD" style="stroke:#181818;stroke-width:0.5;"/><text fill="#000000" font-family="sans-serif" font-size="13" font-weight="bold" lengthAdjust="spacing" textLength="94.999" x="16" y="170.6094">Preconditions:</text><ellipse cx="21.5" cy="181.1621" fill="#000000" rx="2.5" ry="2.5"/><text fill="#000000" font-family="sans-serif" font-size="13" lengthAdjust="spacing" textLength="253.1763" x="28" y="185.9199">PMEK Secret is stored in Key Vault slot B</text><ellipse cx="21.5" cy="196.4727" fill="#000000" rx="2.5" ry="2.5"/><text fill="#000000" font-family="sans-serif" font-size="13" lengthAdjust="spacing" textLength="548.4565" x="28" y="201.2305">The following sequence has occurred prior: Initialize MEK then zero or more MIX_PMEK</text><text fill="#000000" font-family="sans-serif" font-size="13" lengthAdjust="spacing" textLength="4.1133" x="16" y="216.541">&#160;</text><text fill="#000000" font-family="sans-serif" font-size="13" font-weight="bold" lengthAdjust="spacing" textLength="41.7422" x="16" y="231.8516">Notes:</text><text fill="#000000" font-family="sans-serif" font-size="13" lengthAdjust="spacing" textLength="1406.4312" x="24.2266" y="247.1621">* The sequence diagram assumes that the KV will not allow an input KV slot to also be used as an out KV slot. Caliptra FW is responsible for managing which KV slots are used and can adapt if this assumption is not correct.</text><text fill="#000000" font-family="sans-serif" font-size="13" lengthAdjust="spacing" textLength="480.8032" x="24.2266" y="262.4727">* This sequence is focused on successful execution of operations by the KV.</text><text fill="#000000" font-family="sans-serif" font-size="13" lengthAdjust="spacing" textLength="4.1133" x="16" y="277.7832">&#160;</text><line style="stroke:#008000;stroke-width:1;" x1="214.3662" x2="204.3662" y1="311.8359" y2="307.8359"/><line style="stroke:#008000;stroke-width:1;" x1="214.3662" x2="204.3662" y1="311.8359" y2="315.8359"/><line style="stroke:#008000;stroke-width:1;" x1="88.3208" x2="215.3662" y1="311.8359" y2="311.8359"/><text fill="#000000" font-family="sans-serif" font-size="13" font-weight="bold" lengthAdjust="spacing" textLength="35.3628" x="95.3208" y="307.0938">[001]</text><text fill="#000000" font-family="sans-serif" font-size="13" lengthAdjust="spacing" textLength="63.4956" x="134.6836" y="307.0938">MIX_PMEK</text><path d="M231.3662,324.8359 L231.3662,399.8359 L627.3662,399.8359 L627.3662,334.8359 L617.3662,324.8359 L231.3662,324.8359 " fill="#FEFFDD" style="stroke:#181818;stroke-width:0.5;"/><path d="M617.3662,324.8359 L617.3662,334.8359 L627.3662,334.8359 L617.3662,324.8359 " fill="#FEFFDD" style="stroke:#181818;stroke-width:0.5;"/><text fill="#000000" font-family="sans-serif" font-size="13" lengthAdjust="spacing" textLength="4.1133" x="237.3662" y="344.4043">&#160;</text><text fill="#000000" font-family="sans-serif" font-size="13" font-weight="bold" lengthAdjust="spacing" textLength="32.1509" x="241.4795" y="344.4043">Field</text><text fill="#000000" font-family="sans-serif" font-size="13" lengthAdjust="spacing" textLength="4.1133" x="344.813" y="344.4043">&#160;</text><text fill="#000000" font-family="sans-serif" font-size="13" font-weight="bold" lengthAdjust="spacing" textLength="26.9521" x="348.9263" y="344.4043">Size</text><text fill="#000000" font-family="sans-serif" font-size="13" lengthAdjust="spacing" textLength="4.1133" x="422.7939" y="344.4043">&#160;</text><text fill="#000000" font-family="sans-serif" font-size="13" font-weight="bold" lengthAdjust="spacing" textLength="66.644" x="426.9072" y="344.4043">Definition</text><text fill="#000000" font-family="sans-serif" font-size="13" lengthAdjust="spacing" textLength="49.1563" x="241.4795" y="359.7148">chksum</text><text fill="#000000" font-family="sans-serif" font-size="13" lengthAdjust="spacing" textLength="24.5083" x="348.9263" y="359.7148">u32</text><text fill="#000000" font-family="sans-serif" font-size="13" lengthAdjust="spacing" textLength="78.0254" x="426.9072" y="359.7148">Little endian</text><text fill="#000000" font-family="sans-serif" font-size="13" lengthAdjust="spacing" textLength="99.2202" x="241.4795" y="375.0254">unlocked_pmek</text><text fill="#000000" font-family="sans-serif" font-size="13" lengthAdjust="spacing" textLength="62.48" x="348.9263" y="375.0254">512 bytes</text><text fill="#000000" font-family="sans-serif" font-size="13" lengthAdjust="spacing" textLength="163.1919" x="426.9072" y="375.0254">Unlocked encrypted PMEK</text><text fill="#000000" font-family="sans-serif" font-size="13" lengthAdjust="spacing" textLength="182.0762" x="426.9072" y="390.3359">* PMEK Algorithm embedded</text><line style="stroke:#000000;stroke-width:0.5;" x1="237.3662" x2="613.0967" y1="331.8359" y2="331.8359"/><line style="stroke:#000000;stroke-width:0.5;" x1="237.3662" x2="613.0967" y1="347.1465" y2="347.1465"/><line style="stroke:#000000;stroke-width:0.5;" x1="237.3662" x2="613.0967" y1="362.457" y2="362.457"/><line style="stroke:#000000;stroke-width:0.5;" x1="237.3662" x2="613.0967" y1="393.0781" y2="393.0781"/><line style="stroke:#000000;stroke-width:0.5;" x1="237.3662" x2="237.3662" y1="331.8359" y2="393.0781"/><line style="stroke:#000000;stroke-width:0.5;" x1="344.813" x2="344.813" y1="331.8359" y2="393.0781"/><line style="stroke:#000000;stroke-width:0.5;" x1="422.7939" x2="422.7939" y1="331.8359" y2="393.0781"/><line style="stroke:#000000;stroke-width:0.5;" x1="613.0967" x2="613.0967" y1="331.8359" y2="393.0781"/><line style="stroke:#008000;stroke-width:1;" x1="375.6885" x2="365.6885" y1="426.3887" y2="422.3887"/><line style="stroke:#008000;stroke-width:1;" x1="375.6885" x2="365.6885" y1="426.3887" y2="430.3887"/><line style="stroke:#008000;stroke-width:1;" x1="226.3662" x2="376.6885" y1="426.3887" y2="426.3887"/><text fill="#000000" font-family="sans-serif" font-size="13" font-weight="bold" lengthAdjust="spacing" textLength="35.3628" x="233.3662" y="421.6465">[002]</text><text fill="#000000" font-family="sans-serif" font-size="13" lengthAdjust="spacing" textLength="64.6826" x="272.729" y="421.6465">Command</text><polygon fill="#FF0000" points="237.3662,451.6992,227.3662,455.6992,237.3662,459.6992,233.3662,455.6992" style="stroke:#FF0000;stroke-width:1;"/><line style="stroke:#FF0000;stroke-width:1;" x1="231.3662" x2="376.6885" y1="455.6992" y2="455.6992"/><text fill="#000000" font-family="sans-serif" font-size="13" font-weight="bold" lengthAdjust="spacing" textLength="35.3628" x="243.3662" y="450.957">[003]</text><text fill="#000000" font-family="sans-serif" font-size="13" lengthAdjust="spacing" textLength="87.9595" x="282.729" y="450.957">Get command</text><line style="stroke:#FF0000;stroke-width:1;" x1="387.6885" x2="429.6885" y1="485.0098" y2="485.0098"/><line style="stroke:#FF0000;stroke-width:1;" x1="429.6885" x2="429.6885" y1="485.0098" y2="498.0098"/><line style="stroke:#FF0000;stroke-width:1;" x1="388.6885" x2="429.6885" y1="498.0098" y2="498.0098"/><polygon fill="#FF0000" points="398.6885,494.0098,388.6885,498.0098,398.6885,502.0098,394.6885,498.0098" style="stroke:#FF0000;stroke-width:1;"/><text fill="#000000" font-family="sans-serif" font-size="13" font-weight="bold" lengthAdjust="spacing" textLength="35.3628" x="394.6885" y="480.2676">[004]</text><text fill="#000000" font-family="sans-serif" font-size="13" lengthAdjust="spacing" textLength="132.0693" x="434.0513" y="480.2676">Determine command</text><path d="M39.6382,510.0098 L101.7769,510.0098 L101.7769,517.3203 L91.7769,527.3203 L39.6382,527.3203 L39.6382,510.0098 " fill="#EEEEEE" style="stroke:#000000;stroke-width:1.5;"/><rect fill="transparent" height="1008.1797" style="stroke:#000000;stroke-width:1.5;" width="1348.6987" x="39.6382" y="510.0098"/><text fill="#000000" font-family="sans-serif" font-size="13" font-weight="bold" lengthAdjust="spacing" textLength="17.1387" x="54.6382" y="523.5781">alt</text><text fill="#000000" font-family="sans-serif" font-size="11" font-weight="bold" lengthAdjust="spacing" textLength="65.9302" x="116.7769" y="522.6445">[FEK exists]</text><path d="M366.6885,541.3203 L428.8271,541.3203 L428.8271,548.6309 L418.8271,558.6309 L366.6885,558.6309 L366.6885,541.3203 " fill="#EEEEEE" style="stroke:#000000;stroke-width:1.5;"/><rect fill="transparent" height="217.4844" style="stroke:#000000;stroke-width:1.5;" width="807.3989" x="366.6885" y="541.3203"/><text fill="#000000" font-family="sans-serif" font-size="13" font-weight="bold" lengthAdjust="spacing" textLength="17.1387" x="381.6885" y="554.8887">alt</text><text fill="#000000" font-family="sans-serif" font-size="11" font-weight="bold" lengthAdjust="spacing" textLength="338.4165" x="443.8271" y="553.9551">[MEK is not initialized (i.e., no PMEK has yet been included)]</text><polygon fill="#FF0000" points="679.3564,616.5625,689.3564,620.5625,679.3564,624.5625,683.3564,620.5625" style="stroke:#FF0000;stroke-width:1;"/><line style="stroke:#FF0000;stroke-width:1;" x1="387.6885" x2="685.3564" y1="620.5625" y2="620.5625"/><text fill="#000000" font-family="sans-serif" font-size="13" font-weight="bold" lengthAdjust="spacing" textLength="35.3628" x="394.6885" y="600.5098">[005]</text><text fill="#000000" font-family="sans-serif" font-size="13" lengthAdjust="spacing" textLength="139.1533" x="434.0513" y="585.1992">HMAC512(Key: Slot A,</text><text fill="#000000" font-family="sans-serif" font-size="13" lengthAdjust="spacing" textLength="138.1567" x="499.8638" y="600.5098">Key Data: "MEK Seed",</text><text fill="#000000" font-family="sans-serif" font-size="13" lengthAdjust="spacing" textLength="120.4595" x="499.8638" y="615.8203">Destination: Slot X)</text><polygon fill="#FF0000" points="937.8462,645.873,947.8462,649.873,937.8462,653.873,941.8462,649.873" style="stroke:#FF0000;stroke-width:1;"/><line style="stroke:#FF0000;stroke-width:1;" x1="701.3564" x2="943.8462" y1="649.873" y2="649.873"/><text fill="#000000" font-family="sans-serif" font-size="13" font-weight="bold" lengthAdjust="spacing" textLength="35.3628" x="708.3564" y="645.1309">[006]</text><text fill="#000000" font-family="sans-serif" font-size="13" lengthAdjust="spacing" textLength="48.1152" x="747.7192" y="645.1309">Get FEK</text><line style="stroke:#FF0000;stroke-width:1;" x1="701.3564" x2="743.3564" y1="679.1836" y2="679.1836"/><line style="stroke:#FF0000;stroke-width:1;" x1="743.3564" x2="743.3564" y1="679.1836" y2="692.1836"/><line style="stroke:#FF0000;stroke-width:1;" x1="702.3564" x2="743.3564" y1="692.1836" y2="692.1836"/><polygon fill="#FF0000" points="712.3564,688.1836,702.3564,692.1836,712.3564,696.1836,708.3564,692.1836" style="stroke:#FF0000;stroke-width:1;"/><text fill="#000000" font-family="sans-serif" font-size="13" font-weight="bold" lengthAdjust="spacing" textLength="35.3628" x="708.3564" y="674.4414">[007]</text><text fill="#000000" font-family="sans-serif" font-size="13" lengthAdjust="spacing" textLength="167.6924" x="747.7192" y="674.4414">HMAC512 slot A with Data</text><polygon fill="#FF0000" points="1141.0874,717.4941,1151.0874,721.4941,1141.0874,725.4941,1145.0874,721.4941" style="stroke:#FF0000;stroke-width:1;"/><line style="stroke:#FF0000;stroke-width:1;" x1="701.3564" x2="1147.0874" y1="721.4941" y2="721.4941"/><text fill="#000000" font-family="sans-serif" font-size="13" font-weight="bold" lengthAdjust="spacing" textLength="35.3628" x="708.3564" y="716.752">[008]</text><text fill="#000000" font-family="sans-serif" font-size="13" lengthAdjust="spacing" textLength="225.4243" x="747.7192" y="716.752">HMAC512 result MEK Seed with FEK</text><polygon fill="#FF0000" points="398.6885,746.8047,388.6885,750.8047,398.6885,754.8047,394.6885,750.8047" style="stroke:#FF0000;stroke-width:1;"/><line style="stroke:#FF0000;stroke-width:1;" x1="392.6885" x2="690.3564" y1="750.8047" y2="750.8047"/><text fill="#000000" font-family="sans-serif" font-size="13" font-weight="bold" lengthAdjust="spacing" textLength="35.3628" x="404.6885" y="746.0625">[009]</text><text fill="#000000" font-family="sans-serif" font-size="13" lengthAdjust="spacing" textLength="31.478" x="444.0513" y="746.0625">done</text><line style="stroke:#FF0000;stroke-width:1;" x1="387.6885" x2="429.6885" y1="794.1152" y2="794.1152"/><line style="stroke:#FF0000;stroke-width:1;" x1="429.6885" x2="429.6885" y1="794.1152" y2="807.1152"/><line style="stroke:#FF0000;stroke-width:1;" x1="388.6885" x2="429.6885" y1="807.1152" y2="807.1152"/><polygon fill="#FF0000" points="398.6885,803.1152,388.6885,807.1152,398.6885,811.1152,394.6885,807.1152" style="stroke:#FF0000;stroke-width:1;"/><text fill="#000000" font-family="sans-serif" font-size="13" font-weight="bold" lengthAdjust="spacing" textLength="35.3628" x="394.6885" y="789.373">[010]</text><text fill="#000000" font-family="sans-serif" font-size="13" lengthAdjust="spacing" textLength="240.9951" x="434.0513" y="789.373">Determine Temporary slox Y for PMEK</text><polygon fill="#FF0000" points="679.3564,863.0469,689.3564,867.0469,679.3564,871.0469,683.3564,867.0469" style="stroke:#FF0000;stroke-width:1;"/><line style="stroke:#FF0000;stroke-width:1;" x1="387.6885" x2="685.3564" y1="867.0469" y2="867.0469"/><text fill="#000000" font-family="sans-serif" font-size="13" font-weight="bold" lengthAdjust="spacing" textLength="35.3628" x="394.6885" y="846.9941">[011]</text><text fill="#000000" font-family="sans-serif" font-size="13" lengthAdjust="spacing" textLength="151.0806" x="434.0513" y="831.6836">Key_Unwrap(Key:  SlotB,</text><text fill="#000000" font-family="sans-serif" font-size="13" lengthAdjust="spacing" textLength="167.1528" x="512.2036" y="846.9941">Key Data: unlocked_pmek,</text><text fill="#000000" font-family="sans-serif" font-size="13" lengthAdjust="spacing" textLength="120.4214" x="512.2036" y="862.3047">Destination Slot: Y)</text><polygon fill="#FF0000" points="1034.2837,892.3574,1044.2837,896.3574,1034.2837,900.3574,1038.2837,896.3574" style="stroke:#FF0000;stroke-width:1;"/><line style="stroke:#FF0000;stroke-width:1;" x1="701.3564" x2="1040.2837" y1="896.3574" y2="896.3574"/><text fill="#000000" font-family="sans-serif" font-size="13" font-weight="bold" lengthAdjust="spacing" textLength="35.3628" x="708.3564" y="891.6152">[012]</text><text fill="#000000" font-family="sans-serif" font-size="13" lengthAdjust="spacing" textLength="101.5942" x="747.7192" y="891.6152">Get PMEK secret</text><line style="stroke:#FF0000;stroke-width:1;" x1="701.3564" x2="743.3564" y1="925.668" y2="925.668"/><line style="stroke:#FF0000;stroke-width:1;" x1="743.3564" x2="743.3564" y1="925.668" y2="938.668"/><line style="stroke:#FF0000;stroke-width:1;" x1="702.3564" x2="743.3564" y1="938.668" y2="938.668"/><polygon fill="#FF0000" points="712.3564,934.668,702.3564,938.668,712.3564,942.668,708.3564,938.668" style="stroke:#FF0000;stroke-width:1;"/><text fill="#000000" font-family="sans-serif" font-size="13" font-weight="bold" lengthAdjust="spacing" textLength="35.3628" x="708.3564" y="920.9258">[013]</text><text fill="#000000" font-family="sans-serif" font-size="13" lengthAdjust="spacing" textLength="180.1274" x="747.7192" y="920.9258">Key_Unwrap unlocked_pmek</text><polygon fill="#FF0000" points="1243.5947,963.9785,1253.5947,967.9785,1243.5947,971.9785,1247.5947,967.9785" style="stroke:#FF0000;stroke-width:1;"/><line style="stroke:#FF0000;stroke-width:1;" x1="701.3564" x2="1249.5947" y1="967.9785" y2="967.9785"/><text fill="#000000" font-family="sans-serif" font-size="13" font-weight="bold" lengthAdjust="spacing" textLength="35.3628" x="708.3564" y="963.2363">[014]</text><text fill="#000000" font-family="sans-serif" font-size="13" lengthAdjust="spacing" textLength="58.1445" x="747.7192" y="963.2363">Put PMEK</text><polygon fill="#FF0000" points="398.6885,993.2891,388.6885,997.2891,398.6885,1001.2891,394.6885,997.2891" style="stroke:#FF0000;stroke-width:1;"/><line style="stroke:#FF0000;stroke-width:1;" x1="392.6885" x2="690.3564" y1="997.2891" y2="997.2891"/><text fill="#000000" font-family="sans-serif" font-size="13" font-weight="bold" lengthAdjust="spacing" textLength="35.3628" x="404.6885" y="992.5469">[015]</text><text fill="#000000" font-family="sans-serif" font-size="13" lengthAdjust="spacing" textLength="31.478" x="444.0513" y="992.5469">done</text><polygon fill="#FF0000" points="679.3564,1053.2207,689.3564,1057.2207,679.3564,1061.2207,683.3564,1057.2207" style="stroke:#FF0000;stroke-width:1;"/><line style="stroke:#FF0000;stroke-width:1;" x1="387.6885" x2="685.3564" y1="1057.2207" y2="1057.2207"/><text fill="#000000" font-family="sans-serif" font-size="13" font-weight="bold" lengthAdjust="spacing" textLength="35.3628" x="394.6885" y="1037.168">[016]</text><text fill="#000000" font-family="sans-serif" font-size="13" lengthAdjust="spacing" textLength="142.4351" x="434.0513" y="1021.8574">HMAC512(Key : Slot X,</text><text fill="#000000" font-family="sans-serif" font-size="13" lengthAdjust="spacing" textLength="158.2471" x="499.8638" y="1037.168">Data String : "PMEK mix",</text><text fill="#000000" font-family="sans-serif" font-size="13" lengthAdjust="spacing" textLength="124.2935" x="499.8638" y="1052.4785">Destination : Slot Z)</text><polygon fill="#FF0000" points="1141.0874,1082.5313,1151.0874,1086.5313,1141.0874,1090.5313,1145.0874,1086.5313" style="stroke:#FF0000;stroke-width:1;"/><line style="stroke:#FF0000;stroke-width:1;" x1="701.3564" x2="1147.0874" y1="1086.5313" y2="1086.5313"/><text fill="#000000" font-family="sans-serif" font-size="13" font-weight="bold" lengthAdjust="spacing" textLength="35.3628" x="708.3564" y="1081.7891">[017]</text><text fill="#000000" font-family="sans-serif" font-size="13" lengthAdjust="spacing" textLength="86.125" x="747.7192" y="1081.7891">Get MEK Seed</text><line style="stroke:#FF0000;stroke-width:1;" x1="701.3564" x2="743.3564" y1="1115.8418" y2="1115.8418"/><line style="stroke:#FF0000;stroke-width:1;" x1="743.3564" x2="743.3564" y1="1115.8418" y2="1128.8418"/><line style="stroke:#FF0000;stroke-width:1;" x1="702.3564" x2="743.3564" y1="1128.8418" y2="1128.8418"/><polygon fill="#FF0000" points="712.3564,1124.8418,702.3564,1128.8418,712.3564,1132.8418,708.3564,1128.8418" style="stroke:#FF0000;stroke-width:1;"/><text fill="#000000" font-family="sans-serif" font-size="13" font-weight="bold" lengthAdjust="spacing" textLength="35.3628" x="708.3564" y="1111.0996">[018]</text><text fill="#000000" font-family="sans-serif" font-size="13" lengthAdjust="spacing" textLength="195.127" x="747.7192" y="1111.0996">HMAC512 Key with Data String</text><polygon fill="#FF0000" points="1350.3369,1154.1523,1360.3369,1158.1523,1350.3369,1162.1523,1354.3369,1158.1523" style="stroke:#FF0000;stroke-width:1;"/><line style="stroke:#FF0000;stroke-width:1;" x1="701.3564" x2="1356.3369" y1="1158.1523" y2="1158.1523"/><text fill="#000000" font-family="sans-serif" font-size="13" font-weight="bold" lengthAdjust="spacing" textLength="35.3628" x="708.3564" y="1153.4102">[019]</text><text fill="#000000" font-family="sans-serif" font-size="13" lengthAdjust="spacing" textLength="207.8857" x="747.7192" y="1153.4102">HMAC512 result Temp MEK Seed</text><polygon fill="#FF0000" points="398.6885,1183.4629,388.6885,1187.4629,398.6885,1191.4629,394.6885,1187.4629" style="stroke:#FF0000;stroke-width:1;"/><line style="stroke:#FF0000;stroke-width:1;" x1="392.6885" x2="690.3564" y1="1187.4629" y2="1187.4629"/><text fill="#000000" font-family="sans-serif" font-size="13" font-weight="bold" lengthAdjust="spacing" textLength="35.3628" x="404.6885" y="1182.7207">[020]</text><text fill="#000000" font-family="sans-serif" font-size="13" lengthAdjust="spacing" textLength="31.478" x="444.0513" y="1182.7207">done</text><polygon fill="#FF0000" points="679.3564,1243.3945,689.3564,1247.3945,679.3564,1251.3945,683.3564,1247.3945" style="stroke:#FF0000;stroke-width:1;"/><line style="stroke:#FF0000;stroke-width:1;" x1="387.6885" x2="685.3564" y1="1247.3945" y2="1247.3945"/><text fill="#000000" font-family="sans-serif" font-size="13" font-weight="bold" lengthAdjust="spacing" textLength="35.3628" x="394.6885" y="1227.3418">[021]</text><text fill="#000000" font-family="sans-serif" font-size="13" lengthAdjust="spacing" textLength="178.8896" x="434.0513" y="1212.0313">HMAC512_Slots(Key : Slot Z,</text><text fill="#000000" font-family="sans-serif" font-size="13" lengthAdjust="spacing" textLength="107.8657" x="536.8833" y="1227.3418">Data Key  : Slot Y</text><text fill="#000000" font-family="sans-serif" font-size="13" lengthAdjust="spacing" textLength="128.686" x="536.8833" y="1242.6523">Destination : Slot: X)</text><polygon fill="#FF0000" points="1350.3369,1272.7051,1360.3369,1276.7051,1350.3369,1280.7051,1354.3369,1276.7051" style="stroke:#FF0000;stroke-width:1;"/><line style="stroke:#FF0000;stroke-width:1;" x1="701.3564" x2="1356.3369" y1="1276.7051" y2="1276.7051"/><text fill="#000000" font-family="sans-serif" font-size="13" font-weight="bold" lengthAdjust="spacing" textLength="35.3628" x="708.3564" y="1271.9629">[022]</text><text fill="#000000" font-family="sans-serif" font-size="13" lengthAdjust="spacing" textLength="126.02" x="747.7192" y="1271.9629">Get Temp MEK Seed</text><polygon fill="#FF0000" points="1243.5947,1302.0156,1253.5947,1306.0156,1243.5947,1310.0156,1247.5947,1306.0156" style="stroke:#FF0000;stroke-width:1;"/><line style="stroke:#FF0000;stroke-width:1;" x1="701.3564" x2="1249.5947" y1="1306.0156" y2="1306.0156"/><text fill="#000000" font-family="sans-serif" font-size="13" font-weight="bold" lengthAdjust="spacing" textLength="35.3628" x="708.3564" y="1301.2734">[023]</text><text fill="#000000" font-family="sans-serif" font-size="13" lengthAdjust="spacing" textLength="59.5283" x="747.7192" y="1301.2734">Get PMEK</text><line style="stroke:#FF0000;stroke-width:1;" x1="701.3564" x2="743.3564" y1="1335.3262" y2="1335.3262"/><line style="stroke:#FF0000;stroke-width:1;" x1="743.3564" x2="743.3564" y1="1335.3262" y2="1348.3262"/><line style="stroke:#FF0000;stroke-width:1;" x1="702.3564" x2="743.3564" y1="1348.3262" y2="1348.3262"/><polygon fill="#FF0000" points="712.3564,1344.3262,702.3564,1348.3262,712.3564,1352.3262,708.3564,1348.3262" style="stroke:#FF0000;stroke-width:1;"/><text fill="#000000" font-family="sans-serif" font-size="13" font-weight="bold" lengthAdjust="spacing" textLength="35.3628" x="708.3564" y="1330.584">[024]</text><text fill="#000000" font-family="sans-serif" font-size="13" lengthAdjust="spacing" textLength="177.2583" x="747.7192" y="1330.584">HMAC512 Key and Data Key</text><polygon fill="#FF0000" points="1141.0874,1373.6367,1151.0874,1377.6367,1141.0874,1381.6367,1145.0874,1377.6367" style="stroke:#FF0000;stroke-width:1;"/><line style="stroke:#FF0000;stroke-width:1;" x1="701.3564" x2="1147.0874" y1="1377.6367" y2="1377.6367"/><text fill="#000000" font-family="sans-serif" font-size="13" font-weight="bold" lengthAdjust="spacing" textLength="35.3628" x="708.3564" y="1372.8945">[025]</text><text fill="#000000" font-family="sans-serif" font-size="13" lengthAdjust="spacing" textLength="292.8491" x="747.7192" y="1372.8945">HMAC512 result MEK Seed updated with PMEK</text><polygon fill="#FF0000" points="398.6885,1402.9473,388.6885,1406.9473,398.6885,1410.9473,394.6885,1406.9473" style="stroke:#FF0000;stroke-width:1;"/><line style="stroke:#FF0000;stroke-width:1;" x1="392.6885" x2="690.3564" y1="1406.9473" y2="1406.9473"/><text fill="#000000" font-family="sans-serif" font-size="13" font-weight="bold" lengthAdjust="spacing" textLength="35.3628" x="404.6885" y="1402.2051">[026]</text><text fill="#000000" font-family="sans-serif" font-size="13" lengthAdjust="spacing" textLength="31.478" x="444.0513" y="1402.2051">done</text><polygon fill="#FF0000" points="679.3564,1447.5684,689.3564,1451.5684,679.3564,1455.5684,683.3564,1451.5684" style="stroke:#FF0000;stroke-width:1;"/><line style="stroke:#FF0000;stroke-width:1;" x1="387.6885" x2="685.3564" y1="1451.5684" y2="1451.5684"/><text fill="#000000" font-family="sans-serif" font-size="13" font-weight="bold" lengthAdjust="spacing" textLength="35.3628" x="394.6885" y="1439.1709">[027]</text><text fill="#000000" font-family="sans-serif" font-size="13" lengthAdjust="spacing" textLength="138.9629" x="434.0513" y="1431.5156">Purge_key(Key: Slot Y,</text><text fill="#000000" font-family="sans-serif" font-size="13" lengthAdjust="spacing" textLength="74.6675" x="499.8638" y="1446.8262">Key : Slot Z)</text><polygon fill="#FF0000" points="1243.5947,1476.8789,1253.5947,1480.8789,1243.5947,1484.8789,1247.5947,1480.8789" style="stroke:#FF0000;stroke-width:1;"/><line style="stroke:#FF0000;stroke-width:1;" x1="701.3564" x2="1249.5947" y1="1480.8789" y2="1480.8789"/><text fill="#000000" font-family="sans-serif" font-size="13" font-weight="bold" lengthAdjust="spacing" textLength="35.3628" x="708.3564" y="1476.1367">[028]</text><text fill="#000000" font-family="sans-serif" font-size="13" lengthAdjust="spacing" textLength="35.9214" x="747.7192" y="1476.1367">Purge</text><polygon fill="#FF0000" points="1350.3369,1476.8789,1360.3369,1480.8789,1350.3369,1484.8789,1354.3369,1480.8789" style="stroke:#FF0000;stroke-width:1;"/><line style="stroke:#FF0000;stroke-width:1;" x1="701.3564" x2="1356.3369" y1="1480.8789" y2="1480.8789"/><text fill="#000000" font-family="sans-serif" font-size="13" font-weight="bold" lengthAdjust="spacing" textLength="35.3628" x="708.3564" y="1476.1367">[029]</text><text fill="#000000" font-family="sans-serif" font-size="13" lengthAdjust="spacing" textLength="4.1133" x="747.7192" y="1476.1367">&#160;</text><polygon fill="#FF0000" points="398.6885,1506.1895,388.6885,1510.1895,398.6885,1514.1895,394.6885,1510.1895" style="stroke:#FF0000;stroke-width:1;"/><line style="stroke:#FF0000;stroke-width:1;" x1="392.6885" x2="690.3564" y1="1510.1895" y2="1510.1895"/><text fill="#000000" font-family="sans-serif" font-size="13" font-weight="bold" lengthAdjust="spacing" textLength="35.3628" x="404.6885" y="1505.4473">[030]</text><text fill="#000000" font-family="sans-serif" font-size="13" lengthAdjust="spacing" textLength="31.478" x="444.0513" y="1505.4473">done</text><line style="stroke:#008000;stroke-width:1;" x1="222.3662" x2="232.3662" y1="1568.8105" y2="1564.8105"/><line style="stroke:#008000;stroke-width:1;" x1="222.3662" x2="232.3662" y1="1568.8105" y2="1572.8105"/><line style="stroke:#008000;stroke-width:1;" x1="221.3662" x2="376.6885" y1="1568.8105" y2="1568.8105"/><text fill="#000000" font-family="sans-serif" font-size="13" font-weight="bold" lengthAdjust="spacing" textLength="35.3628" x="238.3662" y="1556.4131">[031]</text><text fill="#000000" font-family="sans-serif" font-size="13" lengthAdjust="spacing" textLength="64.6826" x="277.729" y="1548.7578">Command</text><text fill="#000000" font-family="sans-serif" font-size="13" lengthAdjust="spacing" textLength="57.2939" x="277.729" y="1564.0684">response</text><line style="stroke:#008000;stroke-width:1;" x1="94.3208" x2="104.3208" y1="1568.8105" y2="1564.8105"/><line style="stroke:#008000;stroke-width:1;" x1="94.3208" x2="104.3208" y1="1568.8105" y2="1572.8105"/><line style="stroke:#008000;stroke-width:1;" x1="93.3208" x2="220.3662" y1="1568.8105" y2="1568.8105"/><text fill="#000000" font-family="sans-serif" font-size="13" font-weight="bold" lengthAdjust="spacing" textLength="35.3628" x="110.3208" y="1556.4131">[032]</text><text fill="#000000" font-family="sans-serif" font-size="13" lengthAdjust="spacing" textLength="64.6826" x="149.6836" y="1548.7578">Command</text><text fill="#000000" font-family="sans-serif" font-size="13" lengthAdjust="spacing" textLength="58.0684" x="149.6836" y="1564.0684">complete</text><path d="M226.3662,1581.8105 L226.3662,1640.8105 L716.3662,1640.8105 L716.3662,1591.8105 L706.3662,1581.8105 L226.3662,1581.8105 " fill="#FEFFDD" style="stroke:#181818;stroke-width:0.5;"/><path d="M706.3662,1581.8105 L706.3662,1591.8105 L716.3662,1591.8105 L706.3662,1581.8105 " fill="#FEFFDD" style="stroke:#181818;stroke-width:0.5;"/><text fill="#000000" font-family="sans-serif" font-size="13" lengthAdjust="spacing" textLength="4.1133" x="232.3662" y="1601.3789">&#160;</text><text fill="#000000" font-family="sans-serif" font-size="13" font-weight="bold" lengthAdjust="spacing" textLength="32.1509" x="236.4795" y="1601.3789">Field</text><text fill="#000000" font-family="sans-serif" font-size="13" lengthAdjust="spacing" textLength="4.1133" x="306.2021" y="1601.3789">&#160;</text><text fill="#000000" font-family="sans-serif" font-size="13" font-weight="bold" lengthAdjust="spacing" textLength="26.9521" x="310.3154" y="1601.3789">Size</text><text fill="#000000" font-family="sans-serif" font-size="13" lengthAdjust="spacing" textLength="4.1133" x="355.3901" y="1601.3789">&#160;</text><text fill="#000000" font-family="sans-serif" font-size="13" font-weight="bold" lengthAdjust="spacing" textLength="66.644" x="359.5034" y="1601.3789">Definition</text><text fill="#000000" font-family="sans-serif" font-size="13" lengthAdjust="spacing" textLength="49.1563" x="236.4795" y="1616.6895">chksum</text><text fill="#000000" font-family="sans-serif" font-size="13" lengthAdjust="spacing" textLength="24.5083" x="310.3154" y="1616.6895">u32</text><text fill="#000000" font-family="sans-serif" font-size="13" lengthAdjust="spacing" textLength="78.0254" x="359.5034" y="1616.6895">Little endian</text><text fill="#000000" font-family="sans-serif" font-size="13" lengthAdjust="spacing" textLength="68.0723" x="236.4795" y="1632">fips_status</text><text fill="#000000" font-family="sans-serif" font-size="13" lengthAdjust="spacing" textLength="24.5083" x="310.3154" y="1632">u32</text><text fill="#000000" font-family="sans-serif" font-size="13" lengthAdjust="spacing" textLength="338.4253" x="359.5034" y="1632">Indicates if the command is FIPS approved or an error</text><line style="stroke:#000000;stroke-width:0.5;" x1="232.3662" x2="702.042" y1="1588.8105" y2="1588.8105"/><line style="stroke:#000000;stroke-width:0.5;" x1="232.3662" x2="702.042" y1="1604.1211" y2="1604.1211"/><line style="stroke:#000000;stroke-width:0.5;" x1="232.3662" x2="702.042" y1="1619.4316" y2="1619.4316"/><line style="stroke:#000000;stroke-width:0.5;" x1="232.3662" x2="702.042" y1="1634.7422" y2="1634.7422"/><line style="stroke:#000000;stroke-width:0.5;" x1="232.3662" x2="232.3662" y1="1588.8105" y2="1634.7422"/><line style="stroke:#000000;stroke-width:0.5;" x1="306.2021" x2="306.2021" y1="1588.8105" y2="1634.7422"/><line style="stroke:#000000;stroke-width:0.5;" x1="355.3901" x2="355.3901" y1="1588.8105" y2="1634.7422"/><line style="stroke:#000000;stroke-width:0.5;" x1="702.042" x2="702.042" y1="1588.8105" y2="1634.7422"/><text fill="#888888" font-family="sans-serif" font-size="10" lengthAdjust="spacing" textLength="138.501" x="708.7166" y="1740.875">Filename: include_pmek.uml</text><!--SRC=[pLPjRzis4FwkNt4nWYvP4WzhiIz6KS19wit8qXdBoveYW45J9vkm96ea5ST1Vdplg7VRIRS16wPFadWytZtFSyVRKwcCyn11osmQQxcSvax5ja-_Ws1FHN2mRnTwDNNAnNWO03tN_0gzI_K8aykF5w1Ifu5VB6BO2_Om3LNKsPmPb3eDY-sfTWX26csj_-Rd_Up3fB1HJkdK3jx_CFjGhtvVd7E5qg03PS4wRJ2aW-42rt0hyjY1ZRM3qzQUwmL2fEDOhrGwfzZ-p36L20jXALUP6_QG6QND0COf7IjYzOG-3xV059xGQD064ZeABiUVfnn3q8xu4oMo4MbrRdrQgCJSY0I4jNc2bbmBn_xXuXPMAeuP3H0S98YK4ifonqi-6K9Ln5R3326t52m5JZQwiUZ36GMTEIDWz0VZOj1cX9wQnPmwnIvICUViLmib5zKsScCgbsa8afoAK6I4R4IXaHiVRCP4i5EEK6g2Ixh-Hg9CHPKflKTQUg-qp-PIehLH7WC-eiozCns1pj08Jp7CrYKG_G9LaetNHYsWxu0qSOAFoZhE8HHE10akxT4Hx9_UZ4OVVvyEpwx7jyFhyM-VWkpbfI28Lh0lx3gLaCp8Pj0Yj2LJaQcMH8sQBnpPrpa_C-aZXN7O-hvYqRGDpZ5IgLSnFBUsoiMIG6s-ytTleVKymw_ASLbnxgAxDK-vBZ6SSehq_TEFRmayqXwztvHhj4-QTUReZTEwJwkY6SPpRPHR98393CEG39vtmvtCAenajF8WdUc451HsC4hiV9e9OucH0Yl9s9RGqfwVaTLIxEFbP7Poub_sBSRHGO_CUyVGEqU79b4fLiQzGmeajjXigk8ILDmZoiGBmHPQuN- -zHJoL7NzXd2W-jW_fjz5_bpkQuffXiZrvNjTsOYwqIyVZeu6yClby8pmFQ2-Ce0hhiBXCO6vyN3NEISv3gWB-iP4VM-7sJcoShtSIsUVcvEN3-N14IuBs2Z9xTNbGnrKqHM6r3VSmX-_RSqrqDXJEyXBe3Z4OcFxb1QleKxnC6X7NpibZ4vEY5esQRRMP3Ns9TF5iYUl55hmgWAkCScq4MRD2Jx2dMzTJ1vf8jX54i4_lKbNHcG5JnxRqnq4TAZgbD5kunPXtkS0xWfCQYoo0c6cQr9SUNmd1LkKDI5sp-rQEigSuf_aXJU_wF_jxcElKlOoNLsgQfgg-lf66K0btLq29s3XoXbkprGB7f54FNwZ5YgFNpQmRQ2j51kyM0eSM5q7PGZRs3vjrG9hhUlUs_rFy9uoBhQD-fVTGct1pyQLzTrhnbi43Afsj8aPKx0DrAPggnfudIIUCAeuWx_Hg_ACxlkgPzN7_3TiJ78pn-aIrwrhuEw5Q-05BNkCO6yFIcz-zSq6qhJ-xsJbMsuWsrDFSvtVf-MOYC4RQ2xzxfr_dzAzdCNKe__nXDICHtznBcg6ejUceKXbTcgTSBbjRnYJfHGy5FafjfuhU4GOZITN8BBCw0UUJWsFqMWClUmUXJpQmLS0]--></g></svg>