<svg xmlns="http://www.w3.org/2000/svg" xmlns:xlink="http://www.w3.org/1999/xlink" contentStyleType="text/css" data-diagram-type="SEQUENCE" height="1720px" preserveAspectRatio="none" style="width:1452px;height:1720px;background:#FFFFFF;" version="1.1" viewBox="0 0 1452 1720" width="1452px" zoomAndPan="magnify"><title>Mix PMEK into MEK seed</title><defs/><g><rect fill="#DDDDDD" height="1670.9414" style="stroke:#181818;stroke-width:0.5;" width="1238.1177" x="181.5903" y="43.4883"/><text fill="#000000" font-family="sans-serif" font-size="13" font-weight="bold" lengthAdjust="spacing" textLength="52.7935" x="774.2524" y="56.0566">Caliptra</text><text fill="#000000" font-family="sans-serif" font-size="14" font-weight="bold" lengthAdjust="spacing" textLength="176.6475" x="689.6433" y="28.5352">Mix PMEK into MEK seed</text><g><title>Storage</title><rect fill="transparent" height="1516.7012" width="8" x="84.8208" y="127.2637"/><line style="stroke:#181818;stroke-width:0.5;stroke-dasharray:5.0,5.0;" x1="88.3208" x2="88.3208" y1="127.2637" y2="1643.9648"/></g><g><title/><rect fill="#FFFFFF" height="87.9316" style="stroke:#181818;stroke-width:1;" width="10" x="83.3208" y="1556.0332"/></g><g><title>Mail Box</title><rect fill="transparent" height="1516.7012" width="8" x="217.8662" y="127.2637"/><line style="stroke:#181818;stroke-width:0.5;stroke-dasharray:5.0,5.0;" x1="221.3662" x2="221.3662" y1="127.2637" y2="1643.9648"/></g><g><title/><rect fill="#FFFFFF" height="143.8633" style="stroke:#181818;stroke-width:1;" width="10" x="216.3662" y="299.0586"/></g><g><title>FW</title><rect fill="transparent" height="1516.7012" width="8" x="379.1885" y="127.2637"/><line style="stroke:#181818;stroke-width:0.5;stroke-dasharray:5.0,5.0;" x1="382.6885" x2="382.6885" y1="127.2637" y2="1643.9648"/></g><g><title/><rect fill="#FFFFFF" height="1142.4219" style="stroke:#181818;stroke-width:1;" width="10" x="377.6885" y="413.6113"/></g><g><title>Key Vault</title><rect fill="transparent" height="1516.7012" width="8" x="692.8564" y="127.2637"/><line style="stroke:#181818;stroke-width:0.5;stroke-dasharray:5.0,5.0;" x1="696.3564" x2="696.3564" y1="127.2637" y2="1643.9648"/></g><g><title/><rect fill="#FFFFFF" height="130.2422" style="stroke:#181818;stroke-width:1;" width="10" x="691.3564" y="607.7852"/></g><g><title/><rect fill="#FFFFFF" height="130.2422" style="stroke:#181818;stroke-width:1;" width="10" x="691.3564" y="854.2695"/></g><g><title/><rect fill="#FFFFFF" height="130.2422" style="stroke:#181818;stroke-width:1;" width="10" x="691.3564" y="1044.4434"/></g><g><title/><rect fill="#FFFFFF" height="159.5527" style="stroke:#181818;stroke-width:1;" width="10" x="691.3564" y="1234.6172"/></g><g><title/><rect fill="#FFFFFF" height="58.6211" style="stroke:#181818;stroke-width:1;" width="10" x="691.3564" y="1438.791"/></g><g><title>Key Vault</title><rect fill="transparent" height="1516.7012" width="8" x="946.3462" y="127.2637"/><line style="stroke:#181818;stroke-width:0.5;stroke-dasharray:5.0,5.0;" x1="949.8462" x2="949.8462" y1="127.2637" y2="1643.9648"/></g><g><title>Key Vault</title><rect fill="transparent" height="1516.7012" width="8" x="1047.7837" y="127.2637"/><line style="stroke:#181818;stroke-width:0.5;stroke-dasharray:5.0,5.0;" x1="1051.2837" x2="1051.2837" y1="127.2637" y2="1643.9648"/></g><g><title/><rect fill="#ADD8E6" height="1366.2168" style="stroke:#181818;stroke-width:1;" width="10" x="1046.2837" y="277.748"/></g><g><title>Key Vault</title><rect fill="transparent" height="1516.7012" width="8" x="1154.5874" y="127.2637"/><line style="stroke:#181818;stroke-width:0.5;stroke-dasharray:5.0,5.0;" x1="1158.0874" x2="1158.0874" y1="127.2637" y2="1643.9648"/></g><g><title/><rect fill="#ADD8E6" height="1366.2168" style="stroke:#181818;stroke-width:1;" width="10" x="1153.0874" y="277.748"/></g><g><title>Key Vault</title><rect fill="transparent" height="1516.7012" width="8" x="1257.0947" y="127.2637"/><line style="stroke:#181818;stroke-width:0.5;stroke-dasharray:5.0,5.0;" x1="1260.5947" x2="1260.5947" y1="127.2637" y2="1643.9648"/></g><g><title/><rect fill="#ADD8E6" height="512.9004" style="stroke:#181818;stroke-width:1;" width="10" x="1255.5947" y="955.2012"/></g><line style="stroke:#181818;stroke-width:2;" x1="1251.5947" x2="1269.5947" y1="1459.1016" y2="1477.1016"/><line style="stroke:#181818;stroke-width:2;" x1="1251.5947" x2="1269.5947" y1="1477.1016" y2="1459.1016"/><g><title>Key Vault</title><rect fill="transparent" height="1516.7012" width="8" x="1363.8369" y="127.2637"/><line style="stroke:#181818;stroke-width:0.5;stroke-dasharray:5.0,5.0;" x1="1367.3369" x2="1367.3369" y1="127.2637" y2="1643.9648"/></g><g><title/><rect fill="#ADD8E6" height="322.7266" style="stroke:#181818;stroke-width:1;" width="10" x="1362.3369" y="1145.375"/></g><rect fill="#E2E2F0" height="63.4648" rx="2.5" ry="2.5" style="stroke:#181818;stroke-width:0.5;" width="65.3652" x="55.6382" y="62.7988"/><text fill="#000000" font-family="sans-serif" font-size="14" lengthAdjust="spacing" textLength="51.3652" x="62.6382" y="83.334">Storage</text><text fill="#000000" font-family="sans-serif" font-size="14" lengthAdjust="spacing" textLength="44.5498" x="66.0459" y="99.8223">Device</text><text fill="#000000" font-family="sans-serif" font-size="14" lengthAdjust="spacing" textLength="19.4824" x="78.5796" y="116.3105">FW</text><rect fill="#E2E2F0" height="30.4883" rx="2.5" ry="2.5" style="stroke:#181818;stroke-width:0.5;" width="71.5518" x="185.5903" y="95.7754"/><text fill="#000000" font-family="sans-serif" font-size="14" lengthAdjust="spacing" textLength="57.5518" x="192.5903" y="116.3105">Mail Box</text><rect fill="#E2E2F0" height="30.4883" rx="2.5" ry="2.5" style="stroke:#181818;stroke-width:0.5;" width="33.4824" x="365.9473" y="95.7754"/><text fill="#000000" font-family="sans-serif" font-size="14" lengthAdjust="spacing" textLength="19.4824" x="372.9473" y="116.3105">FW</text><rect fill="#E2E2F0" height="30.4883" rx="2.5" ry="2.5" style="stroke:#181818;stroke-width:0.5;" width="77.54" x="657.5864" y="95.7754"/><text fill="#000000" font-family="sans-serif" font-size="14" lengthAdjust="spacing" textLength="63.54" x="664.5864" y="116.3105">Key Vault</text><rect fill="#E2E2F0" height="63.4648" rx="2.5" ry="2.5" style="stroke:#181818;stroke-width:0.5;" width="77.54" x="911.0762" y="62.7988"/><text fill="#000000" font-family="sans-serif" font-size="14" lengthAdjust="spacing" textLength="63.54" x="918.0762" y="83.334">Key Vault</text><text fill="#000000" font-family="sans-serif" font-size="14" lengthAdjust="spacing" textLength="39.5117" x="930.0903" y="99.8223">Slot A</text><text fill="#000000" font-family="sans-serif" font-size="14" lengthAdjust="spacing" textLength="33.3389" x="933.1768" y="116.3105">(FEK)</text><rect fill="#E2E2F0" height="63.4648" rx="2.5" ry="2.5" style="stroke:#181818;stroke-width:0.5;" width="105.335" x="998.6162" y="62.7988"/><text fill="#000000" font-family="sans-serif" font-size="14" lengthAdjust="spacing" textLength="63.54" x="1019.5137" y="83.334">Key Vault</text><text fill="#000000" font-family="sans-serif" font-size="14" lengthAdjust="spacing" textLength="37.9053" x="1032.3311" y="99.8223">Slot B</text><text fill="#000000" font-family="sans-serif" font-size="14" lengthAdjust="spacing" textLength="91.335" x="1005.6162" y="116.3105">(PMEK Secret)</text><rect fill="#E2E2F0" height="63.4648" rx="2.5" ry="2.5" style="stroke:#181818;stroke-width:0.5;" width="88.2725" x="1113.9512" y="62.7988"/><text fill="#000000" font-family="sans-serif" font-size="14" lengthAdjust="spacing" textLength="63.54" x="1126.3174" y="83.334">Key Vault</text><text fill="#000000" font-family="sans-serif" font-size="14" lengthAdjust="spacing" textLength="38.6162" x="1138.7793" y="99.8223">Slot X</text><text fill="#000000" font-family="sans-serif" font-size="14" lengthAdjust="spacing" textLength="74.2725" x="1120.9512" y="116.3105">(MEK Seed)</text><rect fill="#E2E2F0" height="63.4648" rx="2.5" ry="2.5" style="stroke:#181818;stroke-width:0.5;" width="96.7422" x="1212.2236" y="62.7988"/><text fill="#000000" font-family="sans-serif" font-size="14" lengthAdjust="spacing" textLength="63.54" x="1228.8247" y="83.334">Key Vault</text><text fill="#000000" font-family="sans-serif" font-size="14" lengthAdjust="spacing" textLength="38.5752" x="1241.3071" y="99.8223">Slot Y</text><text fill="#000000" font-family="sans-serif" font-size="14" lengthAdjust="spacing" textLength="82.7422" x="1219.2236" y="116.3105">(Temporary)</text><rect fill="#E2E2F0" height="63.4648" rx="2.5" ry="2.5" style="stroke:#181818;stroke-width:0.5;" width="96.7422" x="1318.9658" y="62.7988"/><text fill="#000000" font-family="sans-serif" font-size="14" lengthAdjust="spacing" textLength="63.54" x="1335.5669" y="83.334">Key Vault</text><text fill="#000000" font-family="sans-serif" font-size="14" lengthAdjust="spacing" textLength="38.3154" x="1348.1792" y="99.8223">Slot Z</text><text fill="#000000" font-family="sans-serif" font-size="14" lengthAdjust="spacing" textLength="82.7422" x="1325.9658" y="116.3105">(Temporary)</text><rect fill="#E2E2F0" height="63.4648" rx="2.5" ry="2.5" style="stroke:#181818;stroke-width:0.5;" width="65.3652" x="55.6382" y="1643.9648"/><text fill="#000000" font-family="sans-serif" font-size="14" lengthAdjust="spacing" textLength="51.3652" x="62.6382" y="1664.5">Storage</text><text fill="#000000" font-family="sans-serif" font-size="14" lengthAdjust="spacing" textLength="44.5498" x="66.0459" y="1680.9883">Device</text><text fill="#000000" font-family="sans-serif" font-size="14" lengthAdjust="spacing" textLength="19.4824" x="78.5796" y="1697.4766">FW</text><rect fill="#E2E2F0" height="30.4883" rx="2.5" ry="2.5" style="stroke:#181818;stroke-width:0.5;" width="71.5518" x="185.5903" y="1643.9648"/><text fill="#000000" font-family="sans-serif" font-size="14" lengthAdjust="spacing" textLength="57.5518" x="192.5903" y="1664.5">Mail Box</text><rect fill="#E2E2F0" height="30.4883" rx="2.5" ry="2.5" style="stroke:#181818;stroke-width:0.5;" width="33.4824" x="365.9473" y="1643.9648"/><text fill="#000000" font-family="sans-serif" font-size="14" lengthAdjust="spacing" textLength="19.4824" x="372.9473" y="1664.5">FW</text><rect fill="#E2E2F0" height="30.4883" rx="2.5" ry="2.5" style="stroke:#181818;stroke-width:0.5;" width="77.54" x="657.5864" y="1643.9648"/><text fill="#000000" font-family="sans-serif" font-size="14" lengthAdjust="spacing" textLength="63.54" x="664.5864" y="1664.5">Key Vault</text><rect fill="#E2E2F0" height="63.4648" rx="2.5" ry="2.5" style="stroke:#181818;stroke-width:0.5;" width="77.54" x="911.0762" y="1643.9648"/><text fill="#000000" font-family="sans-serif" font-size="14" lengthAdjust="spacing" textLength="63.54" x="918.0762" y="1664.5">Key Vault</text><text fill="#000000" font-family="sans-serif" font-size="14" lengthAdjust="spacing" textLength="39.5117" x="930.0903" y="1680.9883">Slot A</text><text fill="#000000" font-family="sans-serif" font-size="14" lengthAdjust="spacing" textLength="33.3389" x="933.1768" y="1697.4766">(FEK)</text><rect fill="#E2E2F0" height="63.4648" rx="2.5" ry="2.5" style="stroke:#181818;stroke-width:0.5;" width="105.335" x="998.6162" y="1643.9648"/><text fill="#000000" font-family="sans-serif" font-size="14" lengthAdjust="spacing" textLength="63.54" x="1019.5137" y="1664.5">Key Vault</text><text fill="#000000" font-family="sans-serif" font-size="14" lengthAdjust="spacing" textLength="37.9053" x="1032.3311" y="1680.9883">Slot B</text><text fill="#000000" font-family="sans-serif" font-size="14" lengthAdjust="spacing" textLength="91.335" x="1005.6162" y="1697.4766">(PMEK Secret)</text><rect fill="#E2E2F0" height="63.4648" rx="2.5" ry="2.5" style="stroke:#181818;stroke-width:0.5;" width="88.2725" x="1113.9512" y="1643.9648"/><text fill="#000000" font-family="sans-serif" font-size="14" lengthAdjust="spacing" textLength="63.54" x="1126.3174" y="1664.5">Key Vault</text><text fill="#000000" font-family="sans-serif" font-size="14" lengthAdjust="spacing" textLength="38.6162" x="1138.7793" y="1680.9883">Slot X</text><text fill="#000000" font-family="sans-serif" font-size="14" lengthAdjust="spacing" textLength="74.2725" x="1120.9512" y="1697.4766">(MEK Seed)</text><rect fill="#E2E2F0" height="63.4648" rx="2.5" ry="2.5" style="stroke:#181818;stroke-width:0.5;" width="96.7422" x="1212.2236" y="1643.9648"/><text fill="#000000" font-family="sans-serif" font-size="14" lengthAdjust="spacing" textLength="63.54" x="1228.8247" y="1664.5">Key Vault</text><text fill="#000000" font-family="sans-serif" font-size="14" lengthAdjust="spacing" textLength="38.5752" x="1241.3071" y="1680.9883">Slot Y</text><text fill="#000000" font-family="sans-serif" font-size="14" lengthAdjust="spacing" textLength="82.7422" x="1219.2236" y="1697.4766">(Temporary)</text><rect fill="#E2E2F0" height="63.4648" rx="2.5" ry="2.5" style="stroke:#181818;stroke-width:0.5;" width="96.7422" x="1318.9658" y="1643.9648"/><text fill="#000000" font-family="sans-serif" font-size="14" lengthAdjust="spacing" textLength="63.54" x="1335.5669" y="1664.5">Key Vault</text><text fill="#000000" font-family="sans-serif" font-size="14" lengthAdjust="spacing" textLength="38.3154" x="1348.1792" y="1680.9883">Slot Z</text><text fill="#000000" font-family="sans-serif" font-size="14" lengthAdjust="spacing" textLength="82.7422" x="1325.9658" y="1697.4766">(Temporary)</text><path d="M10,140.2637 L10,272.2637 L1445,272.2637 L1445,150.2637 L1435,140.2637 L10,140.2637 " fill="#FEFFDD" style="stroke:#181818;stroke-width:0.5;"/><path d="M1435,140.2637 L1435,150.2637 L1445,150.2637 L1435,140.2637 " fill="#FEFFDD" style="stroke:#181818;stroke-width:0.5;"/><text fill="#000000" font-family="sans-serif" font-size="13" font-weight="bold" lengthAdjust="spacing" textLength="94.999" x="16" y="157.832">Preconditions:</text><ellipse cx="21.5" cy="168.3848" fill="#000000" rx="2.5" ry="2.5"/><text fill="#000000" font-family="sans-serif" font-size="13" lengthAdjust="spacing" textLength="253.1763" x="28" y="173.1426">PMEK Secret is stored in Key Vault slot B</text><ellipse cx="21.5" cy="183.6953" fill="#000000" rx="2.5" ry="2.5"/><text fill="#000000" font-family="sans-serif" font-size="13" lengthAdjust="spacing" textLength="548.4565" x="28" y="188.4531">The following sequence has occurred prior: Initialize MEK then zero or more MIX_PMEK</text><text fill="#000000" font-family="sans-serif" font-size="13" lengthAdjust="spacing" textLength="4.1133" x="16" y="203.7637">&#160;</text><text fill="#000000" font-family="sans-serif" font-size="13" font-weight="bold" lengthAdjust="spacing" textLength="41.7422" x="16" y="219.0742">Notes:</text><text fill="#000000" font-family="sans-serif" font-size="13" lengthAdjust="spacing" textLength="1406.4312" x="24.2266" y="234.3848">* The sequence diagram assumes that the KV will not allow an input KV slot to also be used as an out KV slot. Caliptra FW is responsible for managing which KV slots are used and can adapt if this assumption is not correct.</text><text fill="#000000" font-family="sans-serif" font-size="13" lengthAdjust="spacing" textLength="480.8032" x="24.2266" y="249.6953">* This sequence is focused on successful execution of operations by the KV.</text><text fill="#000000" font-family="sans-serif" font-size="13" lengthAdjust="spacing" textLength="4.1133" x="16" y="265.0059">&#160;</text><line style="stroke:#008000;stroke-width:1;" x1="214.3662" x2="204.3662" y1="299.0586" y2="295.0586"/><line style="stroke:#008000;stroke-width:1;" x1="214.3662" x2="204.3662" y1="299.0586" y2="303.0586"/><line style="stroke:#008000;stroke-width:1;" x1="88.3208" x2="215.3662" y1="299.0586" y2="299.0586"/><text fill="#000000" font-family="sans-serif" font-size="13" font-weight="bold" lengthAdjust="spacing" textLength="35.3628" x="95.3208" y="294.3164">[001]</text><text fill="#000000" font-family="sans-serif" font-size="13" lengthAdjust="spacing" textLength="63.4956" x="134.6836" y="294.3164">MIX_PMEK</text><path d="M231.3662,312.0586 L231.3662,387.0586 L627.3662,387.0586 L627.3662,322.0586 L617.3662,312.0586 L231.3662,312.0586 " fill="#FEFFDD" style="stroke:#181818;stroke-width:0.5;"/><path d="M617.3662,312.0586 L617.3662,322.0586 L627.3662,322.0586 L617.3662,312.0586 " fill="#FEFFDD" style="stroke:#181818;stroke-width:0.5;"/><text fill="#000000" font-family="sans-serif" font-size="13" lengthAdjust="spacing" textLength="4.1133" x="237.3662" y="331.627">&#160;</text><text fill="#000000" font-family="sans-serif" font-size="13" font-weight="bold" lengthAdjust="spacing" textLength="32.1509" x="241.4795" y="331.627">Field</text><text fill="#000000" font-family="sans-serif" font-size="13" lengthAdjust="spacing" textLength="4.1133" x="344.813" y="331.627">&#160;</text><text fill="#000000" font-family="sans-serif" font-size="13" font-weight="bold" lengthAdjust="spacing" textLength="26.9521" x="348.9263" y="331.627">Size</text><text fill="#000000" font-family="sans-serif" font-size="13" lengthAdjust="spacing" textLength="4.1133" x="422.7939" y="331.627">&#160;</text><text fill="#000000" font-family="sans-serif" font-size="13" font-weight="bold" lengthAdjust="spacing" textLength="66.644" x="426.9072" y="331.627">Definition</text><text fill="#000000" font-family="sans-serif" font-size="13" lengthAdjust="spacing" textLength="49.1563" x="241.4795" y="346.9375">chksum</text><text fill="#000000" font-family="sans-serif" font-size="13" lengthAdjust="spacing" textLength="24.5083" x="348.9263" y="346.9375">u32</text><text fill="#000000" font-family="sans-serif" font-size="13" lengthAdjust="spacing" textLength="78.0254" x="426.9072" y="346.9375">Little endian</text><text fill="#000000" font-family="sans-serif" font-size="13" lengthAdjust="spacing" textLength="99.2202" x="241.4795" y="362.248">unlocked_pmek</text><text fill="#000000" font-family="sans-serif" font-size="13" lengthAdjust="spacing" textLength="62.48" x="348.9263" y="362.248">512 bytes</text><text fill="#000000" font-family="sans-serif" font-size="13" lengthAdjust="spacing" textLength="163.1919" x="426.9072" y="362.248">Unlocked encrypted PMEK</text><text fill="#000000" font-family="sans-serif" font-size="13" lengthAdjust="spacing" textLength="182.0762" x="426.9072" y="377.5586">* PMEK Algorithm embedded</text><line style="stroke:#000000;stroke-width:0.5;" x1="237.3662" x2="613.0967" y1="319.0586" y2="319.0586"/><line style="stroke:#000000;stroke-width:0.5;" x1="237.3662" x2="613.0967" y1="334.3691" y2="334.3691"/><line style="stroke:#000000;stroke-width:0.5;" x1="237.3662" x2="613.0967" y1="349.6797" y2="349.6797"/><line style="stroke:#000000;stroke-width:0.5;" x1="237.3662" x2="613.0967" y1="380.3008" y2="380.3008"/><line style="stroke:#000000;stroke-width:0.5;" x1="237.3662" x2="237.3662" y1="319.0586" y2="380.3008"/><line style="stroke:#000000;stroke-width:0.5;" x1="344.813" x2="344.813" y1="319.0586" y2="380.3008"/><line style="stroke:#000000;stroke-width:0.5;" x1="422.7939" x2="422.7939" y1="319.0586" y2="380.3008"/><line style="stroke:#000000;stroke-width:0.5;" x1="613.0967" x2="613.0967" y1="319.0586" y2="380.3008"/><line style="stroke:#008000;stroke-width:1;" x1="375.6885" x2="365.6885" y1="413.6113" y2="409.6113"/><line style="stroke:#008000;stroke-width:1;" x1="375.6885" x2="365.6885" y1="413.6113" y2="417.6113"/><line style="stroke:#008000;stroke-width:1;" x1="226.3662" x2="376.6885" y1="413.6113" y2="413.6113"/><text fill="#000000" font-family="sans-serif" font-size="13" font-weight="bold" lengthAdjust="spacing" textLength="35.3628" x="233.3662" y="408.8691">[002]</text><text fill="#000000" font-family="sans-serif" font-size="13" lengthAdjust="spacing" textLength="64.6826" x="272.729" y="408.8691">Command</text><polygon fill="#FF0000" points="237.3662,438.9219,227.3662,442.9219,237.3662,446.9219,233.3662,442.9219" style="stroke:#FF0000;stroke-width:1;"/><line style="stroke:#FF0000;stroke-width:1;" x1="231.3662" x2="376.6885" y1="442.9219" y2="442.9219"/><text fill="#000000" font-family="sans-serif" font-size="13" font-weight="bold" lengthAdjust="spacing" textLength="35.3628" x="243.3662" y="438.1797">[003]</text><text fill="#000000" font-family="sans-serif" font-size="13" lengthAdjust="spacing" textLength="87.9595" x="282.729" y="438.1797">Get command</text><line style="stroke:#FF0000;stroke-width:1;" x1="387.6885" x2="429.6885" y1="472.2324" y2="472.2324"/><line style="stroke:#FF0000;stroke-width:1;" x1="429.6885" x2="429.6885" y1="472.2324" y2="485.2324"/><line style="stroke:#FF0000;stroke-width:1;" x1="388.6885" x2="429.6885" y1="485.2324" y2="485.2324"/><polygon fill="#FF0000" points="398.6885,481.2324,388.6885,485.2324,398.6885,489.2324,394.6885,485.2324" style="stroke:#FF0000;stroke-width:1;"/><text fill="#000000" font-family="sans-serif" font-size="13" font-weight="bold" lengthAdjust="spacing" textLength="35.3628" x="394.6885" y="467.4902">[004]</text><text fill="#000000" font-family="sans-serif" font-size="13" lengthAdjust="spacing" textLength="132.0693" x="434.0513" y="467.4902">Determine command</text><path d="M39.6382,497.2324 L101.7769,497.2324 L101.7769,504.543 L91.7769,514.543 L39.6382,514.543 L39.6382,497.2324 " fill="#EEEEEE" style="stroke:#000000;stroke-width:1.5;"/><rect fill="transparent" height="1008.1797" style="stroke:#000000;stroke-width:1.5;" width="1348.6987" x="39.6382" y="497.2324"/><text fill="#000000" font-family="sans-serif" font-size="13" font-weight="bold" lengthAdjust="spacing" textLength="17.1387" x="54.6382" y="510.8008">alt</text><text fill="#000000" font-family="sans-serif" font-size="11" font-weight="bold" lengthAdjust="spacing" textLength="65.9302" x="116.7769" y="509.8672">[FEK exists]</text><path d="M366.6885,528.543 L428.8271,528.543 L428.8271,535.8535 L418.8271,545.8535 L366.6885,545.8535 L366.6885,528.543 " fill="#EEEEEE" style="stroke:#000000;stroke-width:1.5;"/><rect fill="transparent" height="217.4844" style="stroke:#000000;stroke-width:1.5;" width="807.3989" x="366.6885" y="528.543"/><text fill="#000000" font-family="sans-serif" font-size="13" font-weight="bold" lengthAdjust="spacing" textLength="17.1387" x="381.6885" y="542.1113">alt</text><text fill="#000000" font-family="sans-serif" font-size="11" font-weight="bold" lengthAdjust="spacing" textLength="338.4165" x="443.8271" y="541.1777">[MEK is not initialized (i.e., no PMEK has yet been included)]</text><polygon fill="#FF0000" points="679.3564,603.7852,689.3564,607.7852,679.3564,611.7852,683.3564,607.7852" style="stroke:#FF0000;stroke-width:1;"/><line style="stroke:#FF0000;stroke-width:1;" x1="387.6885" x2="685.3564" y1="607.7852" y2="607.7852"/><text fill="#000000" font-family="sans-serif" font-size="13" font-weight="bold" lengthAdjust="spacing" textLength="35.3628" x="394.6885" y="587.7324">[005]</text><text fill="#000000" font-family="sans-serif" font-size="13" lengthAdjust="spacing" textLength="139.1533" x="434.0513" y="572.4219">HMAC512(Key: Slot A,</text><text fill="#000000" font-family="sans-serif" font-size="13" lengthAdjust="spacing" textLength="138.1567" x="499.8638" y="587.7324">Key Data: "MEK Seed",</text><text fill="#000000" font-family="sans-serif" font-size="13" lengthAdjust="spacing" textLength="120.4595" x="499.8638" y="603.043">Destination: Slot X)</text><polygon fill="#FF0000" points="937.8462,633.0957,947.8462,637.0957,937.8462,641.0957,941.8462,637.0957" style="stroke:#FF0000;stroke-width:1;"/><line style="stroke:#FF0000;stroke-width:1;" x1="701.3564" x2="943.8462" y1="637.0957" y2="637.0957"/><text fill="#000000" font-family="sans-serif" font-size="13" font-weight="bold" lengthAdjust="spacing" textLength="35.3628" x="708.3564" y="632.3535">[006]</text><text fill="#000000" font-family="sans-serif" font-size="13" lengthAdjust="spacing" textLength="48.1152" x="747.7192" y="632.3535">Get FEK</text><line style="stroke:#FF0000;stroke-width:1;" x1="701.3564" x2="743.3564" y1="666.4063" y2="666.4063"/><line style="stroke:#FF0000;stroke-width:1;" x1="743.3564" x2="743.3564" y1="666.4063" y2="679.4063"/><line style="stroke:#FF0000;stroke-width:1;" x1="702.3564" x2="743.3564" y1="679.4063" y2="679.4063"/><polygon fill="#FF0000" points="712.3564,675.4063,702.3564,679.4063,712.3564,683.4063,708.3564,679.4063" style="stroke:#FF0000;stroke-width:1;"/><text fill="#000000" font-family="sans-serif" font-size="13" font-weight="bold" lengthAdjust="spacing" textLength="35.3628" x="708.3564" y="661.6641">[007]</text><text fill="#000000" font-family="sans-serif" font-size="13" lengthAdjust="spacing" textLength="167.6924" x="747.7192" y="661.6641">HMAC512 slot A with Data</text><polygon fill="#FF0000" points="1141.0874,704.7168,1151.0874,708.7168,1141.0874,712.7168,1145.0874,708.7168" style="stroke:#FF0000;stroke-width:1;"/><line style="stroke:#FF0000;stroke-width:1;" x1="701.3564" x2="1147.0874" y1="708.7168" y2="708.7168"/><text fill="#000000" font-family="sans-serif" font-size="13" font-weight="bold" lengthAdjust="spacing" textLength="35.3628" x="708.3564" y="703.9746">[008]</text><text fill="#000000" font-family="sans-serif" font-size="13" lengthAdjust="spacing" textLength="225.4243" x="747.7192" y="703.9746">HMAC512 result MEK Seed with FEK</text><polygon fill="#FF0000" points="398.6885,734.0273,388.6885,738.0273,398.6885,742.0273,394.6885,738.0273" style="stroke:#FF0000;stroke-width:1;"/><line style="stroke:#FF0000;stroke-width:1;" x1="392.6885" x2="690.3564" y1="738.0273" y2="738.0273"/><text fill="#000000" font-family="sans-serif" font-size="13" font-weight="bold" lengthAdjust="spacing" textLength="35.3628" x="404.6885" y="733.2852">[009]</text><text fill="#000000" font-family="sans-serif" font-size="13" lengthAdjust="spacing" textLength="31.478" x="444.0513" y="733.2852">done</text><line style="stroke:#FF0000;stroke-width:1;" x1="387.6885" x2="429.6885" y1="781.3379" y2="781.3379"/><line style="stroke:#FF0000;stroke-width:1;" x1="429.6885" x2="429.6885" y1="781.3379" y2="794.3379"/><line style="stroke:#FF0000;stroke-width:1;" x1="388.6885" x2="429.6885" y1="794.3379" y2="794.3379"/><polygon fill="#FF0000" points="398.6885,790.3379,388.6885,794.3379,398.6885,798.3379,394.6885,794.3379" style="stroke:#FF0000;stroke-width:1;"/><text fill="#000000" font-family="sans-serif" font-size="13" font-weight="bold" lengthAdjust="spacing" textLength="35.3628" x="394.6885" y="776.5957">[010]</text><text fill="#000000" font-family="sans-serif" font-size="13" lengthAdjust="spacing" textLength="240.9951" x="434.0513" y="776.5957">Determine Temporary slox Y for PMEK</text><polygon fill="#FF0000" points="679.3564,850.2695,689.3564,854.2695,679.3564,858.2695,683.3564,854.2695" style="stroke:#FF0000;stroke-width:1;"/><line style="stroke:#FF0000;stroke-width:1;" x1="387.6885" x2="685.3564" y1="854.2695" y2="854.2695"/><text fill="#000000" font-family="sans-serif" font-size="13" font-weight="bold" lengthAdjust="spacing" textLength="35.3628" x="394.6885" y="834.2168">[011]</text><text fill="#000000" font-family="sans-serif" font-size="13" lengthAdjust="spacing" textLength="151.0806" x="434.0513" y="818.9063">Key_Unwrap(Key:  SlotB,</text><text fill="#000000" font-family="sans-serif" font-size="13" lengthAdjust="spacing" textLength="167.1528" x="512.2036" y="834.2168">Key Data: unlocked_pmek,</text><text fill="#000000" font-family="sans-serif" font-size="13" lengthAdjust="spacing" textLength="120.4214" x="512.2036" y="849.5273">Destination Slot: Y)</text><polygon fill="#FF0000" points="1034.2837,879.5801,1044.2837,883.5801,1034.2837,887.5801,1038.2837,883.5801" style="stroke:#FF0000;stroke-width:1;"/><line style="stroke:#FF0000;stroke-width:1;" x1="701.3564" x2="1040.2837" y1="883.5801" y2="883.5801"/><text fill="#000000" font-family="sans-serif" font-size="13" font-weight="bold" lengthAdjust="spacing" textLength="35.3628" x="708.3564" y="878.8379">[012]</text><text fill="#000000" font-family="sans-serif" font-size="13" lengthAdjust="spacing" textLength="101.5942" x="747.7192" y="878.8379">Get PMEK secret</text><line style="stroke:#FF0000;stroke-width:1;" x1="701.3564" x2="743.3564" y1="912.8906" y2="912.8906"/><line style="stroke:#FF0000;stroke-width:1;" x1="743.3564" x2="743.3564" y1="912.8906" y2="925.8906"/><line style="stroke:#FF0000;stroke-width:1;" x1="702.3564" x2="743.3564" y1="925.8906" y2="925.8906"/><polygon fill="#FF0000" points="712.3564,921.8906,702.3564,925.8906,712.3564,929.8906,708.3564,925.8906" style="stroke:#FF0000;stroke-width:1;"/><text fill="#000000" font-family="sans-serif" font-size="13" font-weight="bold" lengthAdjust="spacing" textLength="35.3628" x="708.3564" y="908.1484">[013]</text><text fill="#000000" font-family="sans-serif" font-size="13" lengthAdjust="spacing" textLength="180.1274" x="747.7192" y="908.1484">Key_Unwrap unlocked_pmek</text><polygon fill="#FF0000" points="1243.5947,951.2012,1253.5947,955.2012,1243.5947,959.2012,1247.5947,955.2012" style="stroke:#FF0000;stroke-width:1;"/><line style="stroke:#FF0000;stroke-width:1;" x1="701.3564" x2="1249.5947" y1="955.2012" y2="955.2012"/><text fill="#000000" font-family="sans-serif" font-size="13" font-weight="bold" lengthAdjust="spacing" textLength="35.3628" x="708.3564" y="950.459">[014]</text><text fill="#000000" font-family="sans-serif" font-size="13" lengthAdjust="spacing" textLength="58.1445" x="747.7192" y="950.459">Put PMEK</text><polygon fill="#FF0000" points="398.6885,980.5117,388.6885,984.5117,398.6885,988.5117,394.6885,984.5117" style="stroke:#FF0000;stroke-width:1;"/><line style="stroke:#FF0000;stroke-width:1;" x1="392.6885" x2="690.3564" y1="984.5117" y2="984.5117"/><text fill="#000000" font-family="sans-serif" font-size="13" font-weight="bold" lengthAdjust="spacing" textLength="35.3628" x="404.6885" y="979.7695">[015]</text><text fill="#000000" font-family="sans-serif" font-size="13" lengthAdjust="spacing" textLength="31.478" x="444.0513" y="979.7695">done</text><polygon fill="#FF0000" points="679.3564,1040.4434,689.3564,1044.4434,679.3564,1048.4434,683.3564,1044.4434" style="stroke:#FF0000;stroke-width:1;"/><line style="stroke:#FF0000;stroke-width:1;" x1="387.6885" x2="685.3564" y1="1044.4434" y2="1044.4434"/><text fill="#000000" font-family="sans-serif" font-size="13" font-weight="bold" lengthAdjust="spacing" textLength="35.3628" x="394.6885" y="1024.3906">[016]</text><text fill="#000000" font-family="sans-serif" font-size="13" lengthAdjust="spacing" textLength="142.4351" x="434.0513" y="1009.0801">HMAC512(Key : Slot X,</text><text fill="#000000" font-family="sans-serif" font-size="13" lengthAdjust="spacing" textLength="158.2471" x="499.8638" y="1024.3906">Data String : "PMEK mix",</text><text fill="#000000" font-family="sans-serif" font-size="13" lengthAdjust="spacing" textLength="124.2935" x="499.8638" y="1039.7012">Destination : Slot Z)</text><polygon fill="#FF0000" points="1141.0874,1069.7539,1151.0874,1073.7539,1141.0874,1077.7539,1145.0874,1073.7539" style="stroke:#FF0000;stroke-width:1;"/><line style="stroke:#FF0000;stroke-width:1;" x1="701.3564" x2="1147.0874" y1="1073.7539" y2="1073.7539"/><text fill="#000000" font-family="sans-serif" font-size="13" font-weight="bold" lengthAdjust="spacing" textLength="35.3628" x="708.3564" y="1069.0117">[017]</text><text fill="#000000" font-family="sans-serif" font-size="13" lengthAdjust="spacing" textLength="86.125" x="747.7192" y="1069.0117">Get MEK Seed</text><line style="stroke:#FF0000;stroke-width:1;" x1="701.3564" x2="743.3564" y1="1103.0645" y2="1103.0645"/><line style="stroke:#FF0000;stroke-width:1;" x1="743.3564" x2="743.3564" y1="1103.0645" y2="1116.0645"/><line style="stroke:#FF0000;stroke-width:1;" x1="702.3564" x2="743.3564" y1="1116.0645" y2="1116.0645"/><polygon fill="#FF0000" points="712.3564,1112.0645,702.3564,1116.0645,712.3564,1120.0645,708.3564,1116.0645" style="stroke:#FF0000;stroke-width:1;"/><text fill="#000000" font-family="sans-serif" font-size="13" font-weight="bold" lengthAdjust="spacing" textLength="35.3628" x="708.3564" y="1098.3223">[018]</text><text fill="#000000" font-family="sans-serif" font-size="13" lengthAdjust="spacing" textLength="195.127" x="747.7192" y="1098.3223">HMAC512 Key with Data String</text><polygon fill="#FF0000" points="1350.3369,1141.375,1360.3369,1145.375,1350.3369,1149.375,1354.3369,1145.375" style="stroke:#FF0000;stroke-width:1;"/><line style="stroke:#FF0000;stroke-width:1;" x1="701.3564" x2="1356.3369" y1="1145.375" y2="1145.375"/><text fill="#000000" font-family="sans-serif" font-size="13" font-weight="bold" lengthAdjust="spacing" textLength="35.3628" x="708.3564" y="1140.6328">[019]</text><text fill="#000000" font-family="sans-serif" font-size="13" lengthAdjust="spacing" textLength="207.8857" x="747.7192" y="1140.6328">HMAC512 result Temp MEK Seed</text><polygon fill="#FF0000" points="398.6885,1170.6855,388.6885,1174.6855,398.6885,1178.6855,394.6885,1174.6855" style="stroke:#FF0000;stroke-width:1;"/><line style="stroke:#FF0000;stroke-width:1;" x1="392.6885" x2="690.3564" y1="1174.6855" y2="1174.6855"/><text fill="#000000" font-family="sans-serif" font-size="13" font-weight="bold" lengthAdjust="spacing" textLength="35.3628" x="404.6885" y="1169.9434">[020]</text><text fill="#000000" font-family="sans-serif" font-size="13" lengthAdjust="spacing" textLength="31.478" x="444.0513" y="1169.9434">done</text><polygon fill="#FF0000" points="679.3564,1230.6172,689.3564,1234.6172,679.3564,1238.6172,683.3564,1234.6172" style="stroke:#FF0000;stroke-width:1;"/><line style="stroke:#FF0000;stroke-width:1;" x1="387.6885" x2="685.3564" y1="1234.6172" y2="1234.6172"/><text fill="#000000" font-family="sans-serif" font-size="13" font-weight="bold" lengthAdjust="spacing" textLength="35.3628" x="394.6885" y="1214.5645">[021]</text><text fill="#000000" font-family="sans-serif" font-size="13" lengthAdjust="spacing" textLength="178.8896" x="434.0513" y="1199.2539">HMAC512_Slots(Key : Slot Z,</text><text fill="#000000" font-family="sans-serif" font-size="13" lengthAdjust="spacing" textLength="107.8657" x="536.8833" y="1214.5645">Data Key  : Slot Y</text><text fill="#000000" font-family="sans-serif" font-size="13" lengthAdjust="spacing" textLength="128.686" x="536.8833" y="1229.875">Destination : Slot: X)</text><polygon fill="#FF0000" points="1350.3369,1259.9277,1360.3369,1263.9277,1350.3369,1267.9277,1354.3369,1263.9277" style="stroke:#FF0000;stroke-width:1;"/><line style="stroke:#FF0000;stroke-width:1;" x1="701.3564" x2="1356.3369" y1="1263.9277" y2="1263.9277"/><text fill="#000000" font-family="sans-serif" font-size="13" font-weight="bold" lengthAdjust="spacing" textLength="35.3628" x="708.3564" y="1259.1855">[022]</text><text fill="#000000" font-family="sans-serif" font-size="13" lengthAdjust="spacing" textLength="126.02" x="747.7192" y="1259.1855">Get Temp MEK Seed</text><polygon fill="#FF0000" points="1243.5947,1289.2383,1253.5947,1293.2383,1243.5947,1297.2383,1247.5947,1293.2383" style="stroke:#FF0000;stroke-width:1;"/><line style="stroke:#FF0000;stroke-width:1;" x1="701.3564" x2="1249.5947" y1="1293.2383" y2="1293.2383"/><text fill="#000000" font-family="sans-serif" font-size="13" font-weight="bold" lengthAdjust="spacing" textLength="35.3628" x="708.3564" y="1288.4961">[023]</text><text fill="#000000" font-family="sans-serif" font-size="13" lengthAdjust="spacing" textLength="59.5283" x="747.7192" y="1288.4961">Get PMEK</text><line style="stroke:#FF0000;stroke-width:1;" x1="701.3564" x2="743.3564" y1="1322.5488" y2="1322.5488"/><line style="stroke:#FF0000;stroke-width:1;" x1="743.3564" x2="743.3564" y1="1322.5488" y2="1335.5488"/><line style="stroke:#FF0000;stroke-width:1;" x1="702.3564" x2="743.3564" y1="1335.5488" y2="1335.5488"/><polygon fill="#FF0000" points="712.3564,1331.5488,702.3564,1335.5488,712.3564,1339.5488,708.3564,1335.5488" style="stroke:#FF0000;stroke-width:1;"/><text fill="#000000" font-family="sans-serif" font-size="13" font-weight="bold" lengthAdjust="spacing" textLength="35.3628" x="708.3564" y="1317.8066">[024]</text><text fill="#000000" font-family="sans-serif" font-size="13" lengthAdjust="spacing" textLength="177.2583" x="747.7192" y="1317.8066">HMAC512 Key and Data Key</text><polygon fill="#FF0000" points="1141.0874,1360.8594,1151.0874,1364.8594,1141.0874,1368.8594,1145.0874,1364.8594" style="stroke:#FF0000;stroke-width:1;"/><line style="stroke:#FF0000;stroke-width:1;" x1="701.3564" x2="1147.0874" y1="1364.8594" y2="1364.8594"/><text fill="#000000" font-family="sans-serif" font-size="13" font-weight="bold" lengthAdjust="spacing" textLength="35.3628" x="708.3564" y="1360.1172">[025]</text><text fill="#000000" font-family="sans-serif" font-size="13" lengthAdjust="spacing" textLength="292.8491" x="747.7192" y="1360.1172">HMAC512 result MEK Seed updated with PMEK</text><polygon fill="#FF0000" points="398.6885,1390.1699,388.6885,1394.1699,398.6885,1398.1699,394.6885,1394.1699" style="stroke:#FF0000;stroke-width:1;"/><line style="stroke:#FF0000;stroke-width:1;" x1="392.6885" x2="690.3564" y1="1394.1699" y2="1394.1699"/><text fill="#000000" font-family="sans-serif" font-size="13" font-weight="bold" lengthAdjust="spacing" textLength="35.3628" x="404.6885" y="1389.4277">[026]</text><text fill="#000000" font-family="sans-serif" font-size="13" lengthAdjust="spacing" textLength="31.478" x="444.0513" y="1389.4277">done</text><polygon fill="#FF0000" points="679.3564,1434.791,689.3564,1438.791,679.3564,1442.791,683.3564,1438.791" style="stroke:#FF0000;stroke-width:1;"/><line style="stroke:#FF0000;stroke-width:1;" x1="387.6885" x2="685.3564" y1="1438.791" y2="1438.791"/><text fill="#000000" font-family="sans-serif" font-size="13" font-weight="bold" lengthAdjust="spacing" textLength="35.3628" x="394.6885" y="1426.3936">[027]</text><text fill="#000000" font-family="sans-serif" font-size="13" lengthAdjust="spacing" textLength="138.9629" x="434.0513" y="1418.7383">Purge_key(Key: Slot Y,</text><text fill="#000000" font-family="sans-serif" font-size="13" lengthAdjust="spacing" textLength="74.6675" x="499.8638" y="1434.0488">Key : Slot Z)</text><polygon fill="#FF0000" points="1243.5947,1464.1016,1253.5947,1468.1016,1243.5947,1472.1016,1247.5947,1468.1016" style="stroke:#FF0000;stroke-width:1;"/><line style="stroke:#FF0000;stroke-width:1;" x1="701.3564" x2="1249.5947" y1="1468.1016" y2="1468.1016"/><text fill="#000000" font-family="sans-serif" font-size="13" font-weight="bold" lengthAdjust="spacing" textLength="35.3628" x="708.3564" y="1463.3594">[028]</text><text fill="#000000" font-family="sans-serif" font-size="13" lengthAdjust="spacing" textLength="35.9214" x="747.7192" y="1463.3594">Purge</text><polygon fill="#FF0000" points="1350.3369,1464.1016,1360.3369,1468.1016,1350.3369,1472.1016,1354.3369,1468.1016" style="stroke:#FF0000;stroke-width:1;"/><line style="stroke:#FF0000;stroke-width:1;" x1="701.3564" x2="1356.3369" y1="1468.1016" y2="1468.1016"/><text fill="#000000" font-family="sans-serif" font-size="13" font-weight="bold" lengthAdjust="spacing" textLength="35.3628" x="708.3564" y="1463.3594">[029]</text><text fill="#000000" font-family="sans-serif" font-size="13" lengthAdjust="spacing" textLength="4.1133" x="747.7192" y="1463.3594">&#160;</text><polygon fill="#FF0000" points="398.6885,1493.4121,388.6885,1497.4121,398.6885,1501.4121,394.6885,1497.4121" style="stroke:#FF0000;stroke-width:1;"/><line style="stroke:#FF0000;stroke-width:1;" x1="392.6885" x2="690.3564" y1="1497.4121" y2="1497.4121"/><text fill="#000000" font-family="sans-serif" font-size="13" font-weight="bold" lengthAdjust="spacing" textLength="35.3628" x="404.6885" y="1492.6699">[030]</text><text fill="#000000" font-family="sans-serif" font-size="13" lengthAdjust="spacing" textLength="31.478" x="444.0513" y="1492.6699">done</text><line style="stroke:#008000;stroke-width:1;" x1="222.3662" x2="232.3662" y1="1556.0332" y2="1552.0332"/><line style="stroke:#008000;stroke-width:1;" x1="222.3662" x2="232.3662" y1="1556.0332" y2="1560.0332"/><line style="stroke:#008000;stroke-width:1;" x1="221.3662" x2="376.6885" y1="1556.0332" y2="1556.0332"/><text fill="#000000" font-family="sans-serif" font-size="13" font-weight="bold" lengthAdjust="spacing" textLength="35.3628" x="238.3662" y="1543.6357">[031]</text><text fill="#000000" font-family="sans-serif" font-size="13" lengthAdjust="spacing" textLength="64.6826" x="277.729" y="1535.9805">Command</text><text fill="#000000" font-family="sans-serif" font-size="13" lengthAdjust="spacing" textLength="57.2939" x="277.729" y="1551.291">response</text><line style="stroke:#008000;stroke-width:1;" x1="94.3208" x2="104.3208" y1="1556.0332" y2="1552.0332"/><line style="stroke:#008000;stroke-width:1;" x1="94.3208" x2="104.3208" y1="1556.0332" y2="1560.0332"/><line style="stroke:#008000;stroke-width:1;" x1="93.3208" x2="220.3662" y1="1556.0332" y2="1556.0332"/><text fill="#000000" font-family="sans-serif" font-size="13" font-weight="bold" lengthAdjust="spacing" textLength="35.3628" x="110.3208" y="1543.6357">[032]</text><text fill="#000000" font-family="sans-serif" font-size="13" lengthAdjust="spacing" textLength="64.6826" x="149.6836" y="1535.9805">Command</text><text fill="#000000" font-family="sans-serif" font-size="13" lengthAdjust="spacing" textLength="58.0684" x="149.6836" y="1551.291">complete</text><path d="M226.3662,1569.0332 L226.3662,1628.0332 L716.3662,1628.0332 L716.3662,1579.0332 L706.3662,1569.0332 L226.3662,1569.0332 " fill="#FEFFDD" style="stroke:#181818;stroke-width:0.5;"/><path d="M706.3662,1569.0332 L706.3662,1579.0332 L716.3662,1579.0332 L706.3662,1569.0332 " fill="#FEFFDD" style="stroke:#181818;stroke-width:0.5;"/><text fill="#000000" font-family="sans-serif" font-size="13" lengthAdjust="spacing" textLength="4.1133" x="232.3662" y="1588.6016">&#160;</text><text fill="#000000" font-family="sans-serif" font-size="13" font-weight="bold" lengthAdjust="spacing" textLength="32.1509" x="236.4795" y="1588.6016">Field</text><text fill="#000000" font-family="sans-serif" font-size="13" lengthAdjust="spacing" textLength="4.1133" x="306.2021" y="1588.6016">&#160;</text><text fill="#000000" font-family="sans-serif" font-size="13" font-weight="bold" lengthAdjust="spacing" textLength="26.9521" x="310.3154" y="1588.6016">Size</text><text fill="#000000" font-family="sans-serif" font-size="13" lengthAdjust="spacing" textLength="4.1133" x="355.3901" y="1588.6016">&#160;</text><text fill="#000000" font-family="sans-serif" font-size="13" font-weight="bold" lengthAdjust="spacing" textLength="66.644" x="359.5034" y="1588.6016">Definition</text><text fill="#000000" font-family="sans-serif" font-size="13" lengthAdjust="spacing" textLength="49.1563" x="236.4795" y="1603.9121">chksum</text><text fill="#000000" font-family="sans-serif" font-size="13" lengthAdjust="spacing" textLength="24.5083" x="310.3154" y="1603.9121">u32</text><text fill="#000000" font-family="sans-serif" font-size="13" lengthAdjust="spacing" textLength="78.0254" x="359.5034" y="1603.9121">Little endian</text><text fill="#000000" font-family="sans-serif" font-size="13" lengthAdjust="spacing" textLength="68.0723" x="236.4795" y="1619.2227">fips_status</text><text fill="#000000" font-family="sans-serif" font-size="13" lengthAdjust="spacing" textLength="24.5083" x="310.3154" y="1619.2227">u32</text><text fill="#000000" font-family="sans-serif" font-size="13" lengthAdjust="spacing" textLength="338.4253" x="359.5034" y="1619.2227">Indicates if the command is FIPS approved or an error</text><line style="stroke:#000000;stroke-width:0.5;" x1="232.3662" x2="702.042" y1="1576.0332" y2="1576.0332"/><line style="stroke:#000000;stroke-width:0.5;" x1="232.3662" x2="702.042" y1="1591.3438" y2="1591.3438"/><line style="stroke:#000000;stroke-width:0.5;" x1="232.3662" x2="702.042" y1="1606.6543" y2="1606.6543"/><line style="stroke:#000000;stroke-width:0.5;" x1="232.3662" x2="702.042" y1="1621.9648" y2="1621.9648"/><line style="stroke:#000000;stroke-width:0.5;" x1="232.3662" x2="232.3662" y1="1576.0332" y2="1621.9648"/><line style="stroke:#000000;stroke-width:0.5;" x1="306.2021" x2="306.2021" y1="1576.0332" y2="1621.9648"/><line style="stroke:#000000;stroke-width:0.5;" x1="355.3901" x2="355.3901" y1="1576.0332" y2="1621.9648"/><line style="stroke:#000000;stroke-width:0.5;" x1="702.042" x2="702.042" y1="1576.0332" y2="1621.9648"/><!--SRC=[pLPjRzis4FwkNt4nWYvP4WzhiIz6KS19wit8qXdBoveYW45J9vkm96ea5ST1Vdplg7VRIRS16wPFadWytZtFSyVRKwcCyn11osmQQxcSvax5ja-_Ws1FHN2mRnTwDNNAnNWO03tN_0gzI_K8aykF5w1Ifu5VB6BO2_Om3LNKsPmPb3eDY-sfTWX26csj_-Rd_Up3fB1HJkdK3jx_CFjGhtvVd7E5qg03PS4wRJ2aW-42rt0hyjY1ZRM3qzQUwmL2fEDOhrGwfzZ-p36L20jXALUP6_QG6QND0COf7IjYzOG-3xV059xGQD064ZeABiUVfnn3q8xu4oMo4MbrRdrQgCJSY0I4jNc2bbmBn_xXuXPMAeuP3H0S98YK4ifonqi-6K9Ln5R3326t52m5JZQwiUZ36GMTEIDWz0VZOj1cX9wQnPmwnIvICUViLmib5zKsScCgbsa8afoAK6I4R4IXaHiVRCP4i5EEK6g2Ixh-Hg9CHPKflKTQUg-qp-PIehLH7WC-eiozCns1pj08Jp7CrYKG_G9LaetNHYsWxu0qSOAFoZhE8HHE10akxT4Hx9_UZ4OVVvyEpwx7jyFhyM-VWkpbfI28Lh0lx3gLaCp8Pj0Yj2LJaQcMH8sQBnpPrpa_C-aZXN7O-hvYqRGDpZ5IgLSnFBUsoiMIG6s-ytTleVKymw_ASLbnxgAxDK-vBZ6SSehq_TEFRmayqXwztvHhj4-QTUReZTEwJwkY6SPpRPHR98393CEG39vtmvtCAenajF8WdUc451HsC4hiV9e9OucH0Yl9s9RGqfwVaTLIxEFbP7Poub_sBSRHGO_CUyVGEqU79b4fLiQzGmeajjXigk8ILDmZoiGBmHPQuN- -zHJoL7NzXd2W-jW_fjz5_bpkQuffXiZrvNjTsOYwqIyVZeu6yClby8pmFQ2-Ce0hhiBXCO6vyN3NEISv3gWB-iP4VM-7sJcoShtSIsUVcvEN3-N14IuBs2Z9xTNbGnrKqHM6r3VSmX-_RSqrqDXJEyXBe3Z4OcFxb1QleKxnC6X7NpibZ4vEY5esQRRMP3Ns9TF5iYUl55hmgWAkCScq4MRD2Jx2dMzTJ1vf8jX54i4_lKbNHcG5JnxRqnq4TAZgbD5kunPXtkS0xWfCQYoo0c6cQr9SUNmd1LkKDI5sp-rQEigSuf_aXJU_wF_jxcElKlOoNLsgQfgg-lf66K0btLq29s3XoXbkprGB7f54FNwZ5YgFNpQmRQ2j51kyM0eSM5q7PGZRs3vjrG9hhUlUs_rFy9uoBhQD-fVTGct1pyQLzTrhnbi43Afsj8aPKx0DrAPggnfudIIUCAeuWx_Hg_ACxlkgPzN7_3TiJ78pn-aIrwrhuEw5Q-05BNkCO6yFIcz-zSq6qhJ-xsJbMsuWsrDFSvtVf-MOYC4RQ2xzxfr_dzAzdCNKe__nXDICHtznBcg6ejUceKXbTcgTSBbjRnYJfHGy5FafjfuhU4GOZITN8BBCw0UUJWsFqMWClUmUXJpQmLS0]--></g></svg>