<svg xmlns="http://www.w3.org/2000/svg" xmlns:xlink="http://www.w3.org/1999/xlink" contentStyleType="text/css" data-diagram-type="SEQUENCE" height="1750px" preserveAspectRatio="none" style="width:1492px;height:1750px;background:#FFFFFF;" version="1.1" viewBox="0 0 1492 1750" width="1492px" zoomAndPan="magnify"><title>Mix PMEK into MEK seed</title><defs/><g><rect fill="#DDDDDD" height="1670.9414" style="stroke:#181818;stroke-width:0.5;" width="1268.7837" x="166.2573" y="56.2656"/><text fill="#000000" font-family="sans-serif" font-size="13" font-weight="bold" lengthAdjust="spacing" textLength="52.7935" x="774.2524" y="68.834">Caliptra</text><text fill="#888888" font-family="sans-serif" font-size="10" lengthAdjust="spacing" textLength="46.0254" x="1438.9375" y="14.668">Version 1</text><text fill="#000000" font-family="sans-serif" font-size="14" font-weight="bold" lengthAdjust="spacing" textLength="176.6475" x="674.3103" y="41.3125">Mix PMEK into MEK seed</text><g><title>Storage</title><rect fill="transparent" height="1516.7012" width="8" x="69.4878" y="140.041"/><line style="stroke:#181818;stroke-width:0.5;stroke-dasharray:5.0,5.0;" x1="72.9878" x2="72.9878" y1="140.041" y2="1656.7422"/></g><g><title/><rect fill="#FFFFFF" height="87.9316" style="stroke:#181818;stroke-width:1;" width="10" x="67.9878" y="1568.8105"/></g><g><title>Mail Box</title><rect fill="transparent" height="1516.7012" width="8" x="202.5332" y="140.041"/><line style="stroke:#181818;stroke-width:0.5;stroke-dasharray:5.0,5.0;" x1="206.0332" x2="206.0332" y1="140.041" y2="1656.7422"/></g><g><title/><rect fill="#FFFFFF" height="143.8633" style="stroke:#181818;stroke-width:1;" width="10" x="201.0332" y="311.8359"/></g><g><title>FW</title><rect fill="transparent" height="1516.7012" width="8" x="363.8555" y="140.041"/><line style="stroke:#181818;stroke-width:0.5;stroke-dasharray:5.0,5.0;" x1="367.3555" x2="367.3555" y1="140.041" y2="1656.7422"/></g><g><title/><rect fill="#FFFFFF" height="1142.4219" style="stroke:#181818;stroke-width:1;" width="10" x="362.3555" y="426.3887"/></g><g><title>Key Vault</title><rect fill="transparent" height="1516.7012" width="8" x="677.5234" y="140.041"/><line style="stroke:#181818;stroke-width:0.5;stroke-dasharray:5.0,5.0;" x1="681.0234" x2="681.0234" y1="140.041" y2="1656.7422"/></g><g><title/><rect fill="#FFFFFF" height="130.2422" style="stroke:#181818;stroke-width:1;" width="10" x="676.0234" y="620.5625"/></g><g><title/><rect fill="#FFFFFF" height="130.2422" style="stroke:#181818;stroke-width:1;" width="10" x="676.0234" y="867.0469"/></g><g><title/><rect fill="#FFFFFF" height="130.2422" style="stroke:#181818;stroke-width:1;" width="10" x="676.0234" y="1057.2207"/></g><g><title/><rect fill="#FFFFFF" height="159.5527" style="stroke:#181818;stroke-width:1;" width="10" x="676.0234" y="1247.3945"/></g><g><title/><rect fill="#FFFFFF" height="58.6211" style="stroke:#181818;stroke-width:1;" width="10" x="676.0234" y="1451.5684"/></g><g><title>Key Vault</title><rect fill="transparent" height="1516.7012" width="8" x="931.0132" y="140.041"/><line style="stroke:#181818;stroke-width:0.5;stroke-dasharray:5.0,5.0;" x1="934.5132" x2="934.5132" y1="140.041" y2="1656.7422"/></g><g><title>Key Vault</title><rect fill="transparent" height="1516.7012" width="8" x="1063.1167" y="140.041"/><line style="stroke:#181818;stroke-width:0.5;stroke-dasharray:5.0,5.0;" x1="1066.6167" x2="1066.6167" y1="140.041" y2="1656.7422"/></g><g><title/><rect fill="#ADD8E6" height="1366.2168" style="stroke:#181818;stroke-width:1;" width="10" x="1061.6167" y="290.5254"/></g><g><title>Key Vault</title><rect fill="transparent" height="1516.7012" width="8" x="1169.9204" y="140.041"/><line style="stroke:#181818;stroke-width:0.5;stroke-dasharray:5.0,5.0;" x1="1173.4204" x2="1173.4204" y1="140.041" y2="1656.7422"/></g><g><title/><rect fill="#ADD8E6" height="1366.2168" style="stroke:#181818;stroke-width:1;" width="10" x="1168.4204" y="290.5254"/></g><g><title>Key Vault</title><rect fill="transparent" height="1516.7012" width="8" x="1272.4277" y="140.041"/><line style="stroke:#181818;stroke-width:0.5;stroke-dasharray:5.0,5.0;" x1="1275.9277" x2="1275.9277" y1="140.041" y2="1656.7422"/></g><g><title/><rect fill="#ADD8E6" height="512.9004" style="stroke:#181818;stroke-width:1;" width="10" x="1270.9277" y="967.9785"/></g><line style="stroke:#181818;stroke-width:2;" x1="1266.9277" x2="1284.9277" y1="1471.8789" y2="1489.8789"/><line style="stroke:#181818;stroke-width:2;" x1="1266.9277" x2="1284.9277" y1="1489.8789" y2="1471.8789"/><g><title>Key Vault</title><rect fill="transparent" height="1516.7012" width="8" x="1379.1699" y="140.041"/><line style="stroke:#181818;stroke-width:0.5;stroke-dasharray:5.0,5.0;" x1="1382.6699" x2="1382.6699" y1="140.041" y2="1656.7422"/></g><g><title/><rect fill="#ADD8E6" height="322.7266" style="stroke:#181818;stroke-width:1;" width="10" x="1377.6699" y="1158.1523"/></g><rect fill="#E2E2F0" height="63.4648" rx="2.5" ry="2.5" style="stroke:#181818;stroke-width:0.5;" width="65.3652" x="40.3052" y="75.5762"/><text fill="#000000" font-family="sans-serif" font-size="14" lengthAdjust="spacing" textLength="51.3652" x="47.3052" y="96.1113">Storage</text><text fill="#000000" font-family="sans-serif" font-size="14" lengthAdjust="spacing" textLength="44.5498" x="50.7129" y="112.5996">Device</text><text fill="#000000" font-family="sans-serif" font-size="14" lengthAdjust="spacing" textLength="19.4824" x="63.2466" y="129.0879">FW</text><rect fill="#E2E2F0" height="30.4883" rx="2.5" ry="2.5" style="stroke:#181818;stroke-width:0.5;" width="71.5518" x="170.2573" y="108.5527"/><text fill="#000000" font-family="sans-serif" font-size="14" lengthAdjust="spacing" textLength="57.5518" x="177.2573" y="129.0879">Mail Box</text><rect fill="#E2E2F0" height="30.4883" rx="2.5" ry="2.5" style="stroke:#181818;stroke-width:0.5;" width="33.4824" x="350.6143" y="108.5527"/><text fill="#000000" font-family="sans-serif" font-size="14" lengthAdjust="spacing" textLength="19.4824" x="357.6143" y="129.0879">FW</text><rect fill="#E2E2F0" height="30.4883" rx="2.5" ry="2.5" style="stroke:#181818;stroke-width:0.5;" width="77.54" x="642.2534" y="108.5527"/><text fill="#000000" font-family="sans-serif" font-size="14" lengthAdjust="spacing" textLength="63.54" x="649.2534" y="129.0879">Key Vault</text><rect fill="#E2E2F0" height="63.4648" rx="2.5" ry="2.5" style="stroke:#181818;stroke-width:0.5;" width="138.8721" x="865.0771" y="75.5762"/><text fill="#000000" font-family="sans-serif" font-size="14" lengthAdjust="spacing" textLength="63.54" x="902.7432" y="96.1113">Key Vault</text><text fill="#000000" font-family="sans-serif" font-size="14" lengthAdjust="spacing" textLength="39.5117" x="914.7573" y="112.5996">Slot A</text><text fill="#000000" font-family="sans-serif" font-size="14" lengthAdjust="spacing" textLength="124.8721" x="872.0771" y="129.0879">(Storage Root Key)</text><rect fill="#E2E2F0" height="63.4648" rx="2.5" ry="2.5" style="stroke:#181818;stroke-width:0.5;" width="105.335" x="1013.9492" y="75.5762"/><text fill="#000000" font-family="sans-serif" font-size="14" lengthAdjust="spacing" textLength="63.54" x="1034.8467" y="96.1113">Key Vault</text><text fill="#000000" font-family="sans-serif" font-size="14" lengthAdjust="spacing" textLength="37.9053" x="1047.6641" y="112.5996">Slot B</text><text fill="#000000" font-family="sans-serif" font-size="14" lengthAdjust="spacing" textLength="91.335" x="1020.9492" y="129.0879">(PMEK Secret)</text><rect fill="#E2E2F0" height="63.4648" rx="2.5" ry="2.5" style="stroke:#181818;stroke-width:0.5;" width="88.2725" x="1129.2842" y="75.5762"/><text fill="#000000" font-family="sans-serif" font-size="14" lengthAdjust="spacing" textLength="63.54" x="1141.6504" y="96.1113">Key Vault</text><text fill="#000000" font-family="sans-serif" font-size="14" lengthAdjust="spacing" textLength="38.6162" x="1154.1123" y="112.5996">Slot X</text><text fill="#000000" font-family="sans-serif" font-size="14" lengthAdjust="spacing" textLength="74.2725" x="1136.2842" y="129.0879">(MEK Seed)</text><rect fill="#E2E2F0" height="63.4648" rx="2.5" ry="2.5" style="stroke:#181818;stroke-width:0.5;" width="96.7422" x="1227.5566" y="75.5762"/><text fill="#000000" font-family="sans-serif" font-size="14" lengthAdjust="spacing" textLength="63.54" x="1244.1577" y="96.1113">Key Vault</text><text fill="#000000" font-family="sans-serif" font-size="14" lengthAdjust="spacing" textLength="38.5752" x="1256.6401" y="112.5996">Slot Y</text><text fill="#000000" font-family="sans-serif" font-size="14" lengthAdjust="spacing" textLength="82.7422" x="1234.5566" y="129.0879">(Temporary)</text><rect fill="#E2E2F0" height="63.4648" rx="2.5" ry="2.5" style="stroke:#181818;stroke-width:0.5;" width="96.7422" x="1334.2988" y="75.5762"/><text fill="#000000" font-family="sans-serif" font-size="14" lengthAdjust="spacing" textLength="63.54" x="1350.8999" y="96.1113">Key Vault</text><text fill="#000000" font-family="sans-serif" font-size="14" lengthAdjust="spacing" textLength="38.3154" x="1363.5122" y="112.5996">Slot Z</text><text fill="#000000" font-family="sans-serif" font-size="14" lengthAdjust="spacing" textLength="82.7422" x="1341.2988" y="129.0879">(Temporary)</text><rect fill="#E2E2F0" height="63.4648" rx="2.5" ry="2.5" style="stroke:#181818;stroke-width:0.5;" width="65.3652" x="40.3052" y="1656.7422"/><text fill="#000000" font-family="sans-serif" font-size="14" lengthAdjust="spacing" textLength="51.3652" x="47.3052" y="1677.2773">Storage</text><text fill="#000000" font-family="sans-serif" font-size="14" lengthAdjust="spacing" textLength="44.5498" x="50.7129" y="1693.7656">Device</text><text fill="#000000" font-family="sans-serif" font-size="14" lengthAdjust="spacing" textLength="19.4824" x="63.2466" y="1710.2539">FW</text><rect fill="#E2E2F0" height="30.4883" rx="2.5" ry="2.5" style="stroke:#181818;stroke-width:0.5;" width="71.5518" x="170.2573" y="1656.7422"/><text fill="#000000" font-family="sans-serif" font-size="14" lengthAdjust="spacing" textLength="57.5518" x="177.2573" y="1677.2773">Mail Box</text><rect fill="#E2E2F0" height="30.4883" rx="2.5" ry="2.5" style="stroke:#181818;stroke-width:0.5;" width="33.4824" x="350.6143" y="1656.7422"/><text fill="#000000" font-family="sans-serif" font-size="14" lengthAdjust="spacing" textLength="19.4824" x="357.6143" y="1677.2773">FW</text><rect fill="#E2E2F0" height="30.4883" rx="2.5" ry="2.5" style="stroke:#181818;stroke-width:0.5;" width="77.54" x="642.2534" y="1656.7422"/><text fill="#000000" font-family="sans-serif" font-size="14" lengthAdjust="spacing" textLength="63.54" x="649.2534" y="1677.2773">Key Vault</text><rect fill="#E2E2F0" height="63.4648" rx="2.5" ry="2.5" style="stroke:#181818;stroke-width:0.5;" width="138.8721" x="865.0771" y="1656.7422"/><text fill="#000000" font-family="sans-serif" font-size="14" lengthAdjust="spacing" textLength="63.54" x="902.7432" y="1677.2773">Key Vault</text><text fill="#000000" font-family="sans-serif" font-size="14" lengthAdjust="spacing" textLength="39.5117" x="914.7573" y="1693.7656">Slot A</text><text fill="#000000" font-family="sans-serif" font-size="14" lengthAdjust="spacing" textLength="124.8721" x="872.0771" y="1710.2539">(Storage Root Key)</text><rect fill="#E2E2F0" height="63.4648" rx="2.5" ry="2.5" style="stroke:#181818;stroke-width:0.5;" width="105.335" x="1013.9492" y="1656.7422"/><text fill="#000000" font-family="sans-serif" font-size="14" lengthAdjust="spacing" textLength="63.54" x="1034.8467" y="1677.2773">Key Vault</text><text fill="#000000" font-family="sans-serif" font-size="14" lengthAdjust="spacing" textLength="37.9053" x="1047.6641" y="1693.7656">Slot B</text><text fill="#000000" font-family="sans-serif" font-size="14" lengthAdjust="spacing" textLength="91.335" x="1020.9492" y="1710.2539">(PMEK Secret)</text><rect fill="#E2E2F0" height="63.4648" rx="2.5" ry="2.5" style="stroke:#181818;stroke-width:0.5;" width="88.2725" x="1129.2842" y="1656.7422"/><text fill="#000000" font-family="sans-serif" font-size="14" lengthAdjust="spacing" textLength="63.54" x="1141.6504" y="1677.2773">Key Vault</text><text fill="#000000" font-family="sans-serif" font-size="14" lengthAdjust="spacing" textLength="38.6162" x="1154.1123" y="1693.7656">Slot X</text><text fill="#000000" font-family="sans-serif" font-size="14" lengthAdjust="spacing" textLength="74.2725" x="1136.2842" y="1710.2539">(MEK Seed)</text><rect fill="#E2E2F0" height="63.4648" rx="2.5" ry="2.5" style="stroke:#181818;stroke-width:0.5;" width="96.7422" x="1227.5566" y="1656.7422"/><text fill="#000000" font-family="sans-serif" font-size="14" lengthAdjust="spacing" textLength="63.54" x="1244.1577" y="1677.2773">Key Vault</text><text fill="#000000" font-family="sans-serif" font-size="14" lengthAdjust="spacing" textLength="38.5752" x="1256.6401" y="1693.7656">Slot Y</text><text fill="#000000" font-family="sans-serif" font-size="14" lengthAdjust="spacing" textLength="82.7422" x="1234.5566" y="1710.2539">(Temporary)</text><rect fill="#E2E2F0" height="63.4648" rx="2.5" ry="2.5" style="stroke:#181818;stroke-width:0.5;" width="96.7422" x="1334.2988" y="1656.7422"/><text fill="#000000" font-family="sans-serif" font-size="14" lengthAdjust="spacing" textLength="63.54" x="1350.8999" y="1677.2773">Key Vault</text><text fill="#000000" font-family="sans-serif" font-size="14" lengthAdjust="spacing" textLength="38.3154" x="1363.5122" y="1693.7656">Slot Z</text><text fill="#000000" font-family="sans-serif" font-size="14" lengthAdjust="spacing" textLength="82.7422" x="1341.2988" y="1710.2539">(Temporary)</text><path d="M10,153.041 L10,285.041 L1445,285.041 L1445,163.041 L1435,153.041 L10,153.041 " fill="#FEFFDD" style="stroke:#181818;stroke-width:0.5;"/><path d="M1435,153.041 L1435,163.041 L1445,163.041 L1435,153.041 " fill="#FEFFDD" style="stroke:#181818;stroke-width:0.5;"/><text fill="#000000" font-family="sans-serif" font-size="13" font-weight="bold" lengthAdjust="spacing" textLength="94.999" x="16" y="170.6094">Preconditions:</text><ellipse cx="21.5" cy="181.1621" fill="#000000" rx="2.5" ry="2.5"/><text fill="#000000" font-family="sans-serif" font-size="13" lengthAdjust="spacing" textLength="253.1763" x="28" y="185.9199">PMEK Secret is stored in Key Vault slot B</text><ellipse cx="21.5" cy="196.4727" fill="#000000" rx="2.5" ry="2.5"/><text fill="#000000" font-family="sans-serif" font-size="13" lengthAdjust="spacing" textLength="548.4565" x="28" y="201.2305">The following sequence has occurred prior: Initialize MEK then zero or more MIX_PMEK</text><text fill="#000000" font-family="sans-serif" font-size="13" lengthAdjust="spacing" textLength="4.1133" x="16" y="216.541">&#160;</text><text fill="#000000" font-family="sans-serif" font-size="13" font-weight="bold" lengthAdjust="spacing" textLength="41.7422" x="16" y="231.8516">Notes:</text><text fill="#000000" font-family="sans-serif" font-size="13" lengthAdjust="spacing" textLength="1406.4312" x="24.2266" y="247.1621">* The sequence diagram assumes that the KV will not allow an input KV slot to also be used as an out KV slot. Caliptra FW is responsible for managing which KV slots are used and can adapt if this assumption is not correct.</text><text fill="#000000" font-family="sans-serif" font-size="13" lengthAdjust="spacing" textLength="480.8032" x="24.2266" y="262.4727">* This sequence is focused on successful execution of operations by the KV.</text><text fill="#000000" font-family="sans-serif" font-size="13" lengthAdjust="spacing" textLength="4.1133" x="16" y="277.7832">&#160;</text><line style="stroke:#008000;stroke-width:1;" x1="199.0332" x2="189.0332" y1="311.8359" y2="307.8359"/><line style="stroke:#008000;stroke-width:1;" x1="199.0332" x2="189.0332" y1="311.8359" y2="315.8359"/><line style="stroke:#008000;stroke-width:1;" x1="72.9878" x2="200.0332" y1="311.8359" y2="311.8359"/><text fill="#000000" font-family="sans-serif" font-size="13" font-weight="bold" lengthAdjust="spacing" textLength="35.3628" x="79.9878" y="307.0938">[001]</text><text fill="#000000" font-family="sans-serif" font-size="13" lengthAdjust="spacing" textLength="63.4956" x="119.3506" y="307.0938">MIX_PMEK</text><path d="M216.0332,324.8359 L216.0332,399.8359 L612.0332,399.8359 L612.0332,334.8359 L602.0332,324.8359 L216.0332,324.8359 " fill="#FEFFDD" style="stroke:#181818;stroke-width:0.5;"/><path d="M602.0332,324.8359 L602.0332,334.8359 L612.0332,334.8359 L602.0332,324.8359 " fill="#FEFFDD" style="stroke:#181818;stroke-width:0.5;"/><text fill="#000000" font-family="sans-serif" font-size="13" lengthAdjust="spacing" textLength="4.1133" x="222.0332" y="344.4043">&#160;</text><text fill="#000000" font-family="sans-serif" font-size="13" font-weight="bold" lengthAdjust="spacing" textLength="32.1509" x="226.1465" y="344.4043">Field</text><text fill="#000000" font-family="sans-serif" font-size="13" lengthAdjust="spacing" textLength="4.1133" x="329.48" y="344.4043">&#160;</text><text fill="#000000" font-family="sans-serif" font-size="13" font-weight="bold" lengthAdjust="spacing" textLength="26.9521" x="333.5933" y="344.4043">Size</text><text fill="#000000" font-family="sans-serif" font-size="13" lengthAdjust="spacing" textLength="4.1133" x="407.4609" y="344.4043">&#160;</text><text fill="#000000" font-family="sans-serif" font-size="13" font-weight="bold" lengthAdjust="spacing" textLength="66.644" x="411.5742" y="344.4043">Definition</text><text fill="#000000" font-family="sans-serif" font-size="13" lengthAdjust="spacing" textLength="49.1563" x="226.1465" y="359.7148">chksum</text><text fill="#000000" font-family="sans-serif" font-size="13" lengthAdjust="spacing" textLength="24.5083" x="333.5933" y="359.7148">u32</text><text fill="#000000" font-family="sans-serif" font-size="13" lengthAdjust="spacing" textLength="78.0254" x="411.5742" y="359.7148">Little endian</text><text fill="#000000" font-family="sans-serif" font-size="13" lengthAdjust="spacing" textLength="99.2202" x="226.1465" y="375.0254">unlocked_pmek</text><text fill="#000000" font-family="sans-serif" font-size="13" lengthAdjust="spacing" textLength="62.48" x="333.5933" y="375.0254">512 bytes</text><text fill="#000000" font-family="sans-serif" font-size="13" lengthAdjust="spacing" textLength="163.1919" x="411.5742" y="375.0254">Unlocked encrypted PMEK</text><text fill="#000000" font-family="sans-serif" font-size="13" lengthAdjust="spacing" textLength="182.0762" x="411.5742" y="390.3359">* PMEK Algorithm embedded</text><line style="stroke:#000000;stroke-width:0.5;" x1="222.0332" x2="597.7637" y1="331.8359" y2="331.8359"/><line style="stroke:#000000;stroke-width:0.5;" x1="222.0332" x2="597.7637" y1="347.1465" y2="347.1465"/><line style="stroke:#000000;stroke-width:0.5;" x1="222.0332" x2="597.7637" y1="362.457" y2="362.457"/><line style="stroke:#000000;stroke-width:0.5;" x1="222.0332" x2="597.7637" y1="393.0781" y2="393.0781"/><line style="stroke:#000000;stroke-width:0.5;" x1="222.0332" x2="222.0332" y1="331.8359" y2="393.0781"/><line style="stroke:#000000;stroke-width:0.5;" x1="329.48" x2="329.48" y1="331.8359" y2="393.0781"/><line style="stroke:#000000;stroke-width:0.5;" x1="407.4609" x2="407.4609" y1="331.8359" y2="393.0781"/><line style="stroke:#000000;stroke-width:0.5;" x1="597.7637" x2="597.7637" y1="331.8359" y2="393.0781"/><line style="stroke:#008000;stroke-width:1;" x1="360.3555" x2="350.3555" y1="426.3887" y2="422.3887"/><line style="stroke:#008000;stroke-width:1;" x1="360.3555" x2="350.3555" y1="426.3887" y2="430.3887"/><line style="stroke:#008000;stroke-width:1;" x1="211.0332" x2="361.3555" y1="426.3887" y2="426.3887"/><text fill="#000000" font-family="sans-serif" font-size="13" font-weight="bold" lengthAdjust="spacing" textLength="35.3628" x="218.0332" y="421.6465">[002]</text><text fill="#000000" font-family="sans-serif" font-size="13" lengthAdjust="spacing" textLength="64.6826" x="257.396" y="421.6465">Command</text><polygon fill="#FF0000" points="222.0332,451.6992,212.0332,455.6992,222.0332,459.6992,218.0332,455.6992" style="stroke:#FF0000;stroke-width:1;"/><line style="stroke:#FF0000;stroke-width:1;" x1="216.0332" x2="361.3555" y1="455.6992" y2="455.6992"/><text fill="#000000" font-family="sans-serif" font-size="13" font-weight="bold" lengthAdjust="spacing" textLength="35.3628" x="228.0332" y="450.957">[003]</text><text fill="#000000" font-family="sans-serif" font-size="13" lengthAdjust="spacing" textLength="87.9595" x="267.396" y="450.957">Get command</text><line style="stroke:#FF0000;stroke-width:1;" x1="372.3555" x2="414.3555" y1="485.0098" y2="485.0098"/><line style="stroke:#FF0000;stroke-width:1;" x1="414.3555" x2="414.3555" y1="485.0098" y2="498.0098"/><line style="stroke:#FF0000;stroke-width:1;" x1="373.3555" x2="414.3555" y1="498.0098" y2="498.0098"/><polygon fill="#FF0000" points="383.3555,494.0098,373.3555,498.0098,383.3555,502.0098,379.3555,498.0098" style="stroke:#FF0000;stroke-width:1;"/><text fill="#000000" font-family="sans-serif" font-size="13" font-weight="bold" lengthAdjust="spacing" textLength="35.3628" x="379.3555" y="480.2676">[004]</text><text fill="#000000" font-family="sans-serif" font-size="13" lengthAdjust="spacing" textLength="132.0693" x="418.7183" y="480.2676">Determine command</text><path d="M24.3052,510.0098 L86.4438,510.0098 L86.4438,517.3203 L76.4438,527.3203 L24.3052,527.3203 L24.3052,510.0098 " fill="#EEEEEE" style="stroke:#000000;stroke-width:1.5;"/><rect fill="transparent" height="1008.1797" style="stroke:#000000;stroke-width:1.5;" width="1379.3647" x="24.3052" y="510.0098"/><text fill="#000000" font-family="sans-serif" font-size="13" font-weight="bold" lengthAdjust="spacing" textLength="17.1387" x="39.3052" y="523.5781">alt</text><text fill="#000000" font-family="sans-serif" font-size="11" font-weight="bold" lengthAdjust="spacing" textLength="142.1514" x="101.4438" y="522.6445">[Storage Root Key exists]</text><path d="M351.3555,541.3203 L413.4941,541.3203 L413.4941,548.6309 L403.4941,558.6309 L351.3555,558.6309 L351.3555,541.3203 " fill="#EEEEEE" style="stroke:#000000;stroke-width:1.5;"/><rect fill="transparent" height="217.4844" style="stroke:#000000;stroke-width:1.5;" width="838.0649" x="351.3555" y="541.3203"/><text fill="#000000" font-family="sans-serif" font-size="13" font-weight="bold" lengthAdjust="spacing" textLength="17.1387" x="366.3555" y="554.8887">alt</text><text fill="#000000" font-family="sans-serif" font-size="11" font-weight="bold" lengthAdjust="spacing" textLength="338.4165" x="428.4941" y="553.9551">[MEK is not initialized (i.e., no PMEK has yet been included)]</text><polygon fill="#FF0000" points="664.0234,616.5625,674.0234,620.5625,664.0234,624.5625,668.0234,620.5625" style="stroke:#FF0000;stroke-width:1;"/><line style="stroke:#FF0000;stroke-width:1;" x1="372.3555" x2="670.0234" y1="620.5625" y2="620.5625"/><text fill="#000000" font-family="sans-serif" font-size="13" font-weight="bold" lengthAdjust="spacing" textLength="35.3628" x="379.3555" y="600.5098">[005]</text><text fill="#000000" font-family="sans-serif" font-size="13" lengthAdjust="spacing" textLength="139.1533" x="418.7183" y="585.1992">HMAC512(Key: Slot A,</text><text fill="#000000" font-family="sans-serif" font-size="13" lengthAdjust="spacing" textLength="138.1567" x="484.5308" y="600.5098">Key Data: "MEK Seed",</text><text fill="#000000" font-family="sans-serif" font-size="13" lengthAdjust="spacing" textLength="120.4595" x="484.5308" y="615.8203">Destination: Slot X)</text><polygon fill="#FF0000" points="922.5132,645.873,932.5132,649.873,922.5132,653.873,926.5132,649.873" style="stroke:#FF0000;stroke-width:1;"/><line style="stroke:#FF0000;stroke-width:1;" x1="686.0234" x2="928.5132" y1="649.873" y2="649.873"/><text fill="#000000" font-family="sans-serif" font-size="13" font-weight="bold" lengthAdjust="spacing" textLength="35.3628" x="693.0234" y="645.1309">[006]</text><text fill="#000000" font-family="sans-serif" font-size="13" lengthAdjust="spacing" textLength="133.1104" x="732.3862" y="645.1309">Get Storage Root Key</text><line style="stroke:#FF0000;stroke-width:1;" x1="686.0234" x2="728.0234" y1="679.1836" y2="679.1836"/><line style="stroke:#FF0000;stroke-width:1;" x1="728.0234" x2="728.0234" y1="679.1836" y2="692.1836"/><line style="stroke:#FF0000;stroke-width:1;" x1="687.0234" x2="728.0234" y1="692.1836" y2="692.1836"/><polygon fill="#FF0000" points="697.0234,688.1836,687.0234,692.1836,697.0234,696.1836,693.0234,692.1836" style="stroke:#FF0000;stroke-width:1;"/><text fill="#000000" font-family="sans-serif" font-size="13" font-weight="bold" lengthAdjust="spacing" textLength="35.3628" x="693.0234" y="674.4414">[007]</text><text fill="#000000" font-family="sans-serif" font-size="13" lengthAdjust="spacing" textLength="167.6924" x="732.3862" y="674.4414">HMAC512 slot A with Data</text><polygon fill="#FF0000" points="1156.4204,717.4941,1166.4204,721.4941,1156.4204,725.4941,1160.4204,721.4941" style="stroke:#FF0000;stroke-width:1;"/><line style="stroke:#FF0000;stroke-width:1;" x1="686.0234" x2="1162.4204" y1="721.4941" y2="721.4941"/><text fill="#000000" font-family="sans-serif" font-size="13" font-weight="bold" lengthAdjust="spacing" textLength="35.3628" x="693.0234" y="716.752">[008]</text><text fill="#000000" font-family="sans-serif" font-size="13" lengthAdjust="spacing" textLength="310.4194" x="732.3862" y="716.752">HMAC512 result MEK Seed with Storage Root Key</text><polygon fill="#FF0000" points="383.3555,746.8047,373.3555,750.8047,383.3555,754.8047,379.3555,750.8047" style="stroke:#FF0000;stroke-width:1;"/><line style="stroke:#FF0000;stroke-width:1;" x1="377.3555" x2="675.0234" y1="750.8047" y2="750.8047"/><text fill="#000000" font-family="sans-serif" font-size="13" font-weight="bold" lengthAdjust="spacing" textLength="35.3628" x="389.3555" y="746.0625">[009]</text><text fill="#000000" font-family="sans-serif" font-size="13" lengthAdjust="spacing" textLength="31.478" x="428.7183" y="746.0625">done</text><line style="stroke:#FF0000;stroke-width:1;" x1="372.3555" x2="414.3555" y1="794.1152" y2="794.1152"/><line style="stroke:#FF0000;stroke-width:1;" x1="414.3555" x2="414.3555" y1="794.1152" y2="807.1152"/><line style="stroke:#FF0000;stroke-width:1;" x1="373.3555" x2="414.3555" y1="807.1152" y2="807.1152"/><polygon fill="#FF0000" points="383.3555,803.1152,373.3555,807.1152,383.3555,811.1152,379.3555,807.1152" style="stroke:#FF0000;stroke-width:1;"/><text fill="#000000" font-family="sans-serif" font-size="13" font-weight="bold" lengthAdjust="spacing" textLength="35.3628" x="379.3555" y="789.373">[010]</text><text fill="#000000" font-family="sans-serif" font-size="13" lengthAdjust="spacing" textLength="240.9951" x="418.7183" y="789.373">Determine Temporary slox Y for PMEK</text><polygon fill="#FF0000" points="664.0234,863.0469,674.0234,867.0469,664.0234,871.0469,668.0234,867.0469" style="stroke:#FF0000;stroke-width:1;"/><line style="stroke:#FF0000;stroke-width:1;" x1="372.3555" x2="670.0234" y1="867.0469" y2="867.0469"/><text fill="#000000" font-family="sans-serif" font-size="13" font-weight="bold" lengthAdjust="spacing" textLength="35.3628" x="379.3555" y="846.9941">[011]</text><text fill="#000000" font-family="sans-serif" font-size="13" lengthAdjust="spacing" textLength="151.0806" x="418.7183" y="831.6836">Key_Unwrap(Key:  SlotB,</text><text fill="#000000" font-family="sans-serif" font-size="13" lengthAdjust="spacing" textLength="167.1528" x="496.8706" y="846.9941">Key Data: unlocked_pmek,</text><text fill="#000000" font-family="sans-serif" font-size="13" lengthAdjust="spacing" textLength="120.4214" x="496.8706" y="862.3047">Destination Slot: Y)</text><polygon fill="#FF0000" points="1049.6167,892.3574,1059.6167,896.3574,1049.6167,900.3574,1053.6167,896.3574" style="stroke:#FF0000;stroke-width:1;"/><line style="stroke:#FF0000;stroke-width:1;" x1="686.0234" x2="1055.6167" y1="896.3574" y2="896.3574"/><text fill="#000000" font-family="sans-serif" font-size="13" font-weight="bold" lengthAdjust="spacing" textLength="35.3628" x="693.0234" y="891.6152">[012]</text><text fill="#000000" font-family="sans-serif" font-size="13" lengthAdjust="spacing" textLength="101.5942" x="732.3862" y="891.6152">Get PMEK secret</text><line style="stroke:#FF0000;stroke-width:1;" x1="686.0234" x2="728.0234" y1="925.668" y2="925.668"/><line style="stroke:#FF0000;stroke-width:1;" x1="728.0234" x2="728.0234" y1="925.668" y2="938.668"/><line style="stroke:#FF0000;stroke-width:1;" x1="687.0234" x2="728.0234" y1="938.668" y2="938.668"/><polygon fill="#FF0000" points="697.0234,934.668,687.0234,938.668,697.0234,942.668,693.0234,938.668" style="stroke:#FF0000;stroke-width:1;"/><text fill="#000000" font-family="sans-serif" font-size="13" font-weight="bold" lengthAdjust="spacing" textLength="35.3628" x="693.0234" y="920.9258">[013]</text><text fill="#000000" font-family="sans-serif" font-size="13" lengthAdjust="spacing" textLength="180.1274" x="732.3862" y="920.9258">Key_Unwrap unlocked_pmek</text><polygon fill="#FF0000" points="1258.9277,963.9785,1268.9277,967.9785,1258.9277,971.9785,1262.9277,967.9785" style="stroke:#FF0000;stroke-width:1;"/><line style="stroke:#FF0000;stroke-width:1;" x1="686.0234" x2="1264.9277" y1="967.9785" y2="967.9785"/><text fill="#000000" font-family="sans-serif" font-size="13" font-weight="bold" lengthAdjust="spacing" textLength="35.3628" x="693.0234" y="963.2363">[014]</text><text fill="#000000" font-family="sans-serif" font-size="13" lengthAdjust="spacing" textLength="58.1445" x="732.3862" y="963.2363">Put PMEK</text><polygon fill="#FF0000" points="383.3555,993.2891,373.3555,997.2891,383.3555,1001.2891,379.3555,997.2891" style="stroke:#FF0000;stroke-width:1;"/><line style="stroke:#FF0000;stroke-width:1;" x1="377.3555" x2="675.0234" y1="997.2891" y2="997.2891"/><text fill="#000000" font-family="sans-serif" font-size="13" font-weight="bold" lengthAdjust="spacing" textLength="35.3628" x="389.3555" y="992.5469">[015]</text><text fill="#000000" font-family="sans-serif" font-size="13" lengthAdjust="spacing" textLength="31.478" x="428.7183" y="992.5469">done</text><polygon fill="#FF0000" points="664.0234,1053.2207,674.0234,1057.2207,664.0234,1061.2207,668.0234,1057.2207" style="stroke:#FF0000;stroke-width:1;"/><line style="stroke:#FF0000;stroke-width:1;" x1="372.3555" x2="670.0234" y1="1057.2207" y2="1057.2207"/><text fill="#000000" font-family="sans-serif" font-size="13" font-weight="bold" lengthAdjust="spacing" textLength="35.3628" x="379.3555" y="1037.168">[016]</text><text fill="#000000" font-family="sans-serif" font-size="13" lengthAdjust="spacing" textLength="142.4351" x="418.7183" y="1021.8574">HMAC512(Key : Slot X,</text><text fill="#000000" font-family="sans-serif" font-size="13" lengthAdjust="spacing" textLength="158.2471" x="484.5308" y="1037.168">Data String : "PMEK mix",</text><text fill="#000000" font-family="sans-serif" font-size="13" lengthAdjust="spacing" textLength="124.2935" x="484.5308" y="1052.4785">Destination : Slot Z)</text><polygon fill="#FF0000" points="1156.4204,1082.5313,1166.4204,1086.5313,1156.4204,1090.5313,1160.4204,1086.5313" style="stroke:#FF0000;stroke-width:1;"/><line style="stroke:#FF0000;stroke-width:1;" x1="686.0234" x2="1162.4204" y1="1086.5313" y2="1086.5313"/><text fill="#000000" font-family="sans-serif" font-size="13" font-weight="bold" lengthAdjust="spacing" textLength="35.3628" x="693.0234" y="1081.7891">[017]</text><text fill="#000000" font-family="sans-serif" font-size="13" lengthAdjust="spacing" textLength="86.125" x="732.3862" y="1081.7891">Get MEK Seed</text><line style="stroke:#FF0000;stroke-width:1;" x1="686.0234" x2="728.0234" y1="1115.8418" y2="1115.8418"/><line style="stroke:#FF0000;stroke-width:1;" x1="728.0234" x2="728.0234" y1="1115.8418" y2="1128.8418"/><line style="stroke:#FF0000;stroke-width:1;" x1="687.0234" x2="728.0234" y1="1128.8418" y2="1128.8418"/><polygon fill="#FF0000" points="697.0234,1124.8418,687.0234,1128.8418,697.0234,1132.8418,693.0234,1128.8418" style="stroke:#FF0000;stroke-width:1;"/><text fill="#000000" font-family="sans-serif" font-size="13" font-weight="bold" lengthAdjust="spacing" textLength="35.3628" x="693.0234" y="1111.0996">[018]</text><text fill="#000000" font-family="sans-serif" font-size="13" lengthAdjust="spacing" textLength="195.127" x="732.3862" y="1111.0996">HMAC512 Key with Data String</text><polygon fill="#FF0000" points="1365.6699,1154.1523,1375.6699,1158.1523,1365.6699,1162.1523,1369.6699,1158.1523" style="stroke:#FF0000;stroke-width:1;"/><line style="stroke:#FF0000;stroke-width:1;" x1="686.0234" x2="1371.6699" y1="1158.1523" y2="1158.1523"/><text fill="#000000" font-family="sans-serif" font-size="13" font-weight="bold" lengthAdjust="spacing" textLength="35.3628" x="693.0234" y="1153.4102">[019]</text><text fill="#000000" font-family="sans-serif" font-size="13" lengthAdjust="spacing" textLength="207.8857" x="732.3862" y="1153.4102">HMAC512 result Temp MEK Seed</text><polygon fill="#FF0000" points="383.3555,1183.4629,373.3555,1187.4629,383.3555,1191.4629,379.3555,1187.4629" style="stroke:#FF0000;stroke-width:1;"/><line style="stroke:#FF0000;stroke-width:1;" x1="377.3555" x2="675.0234" y1="1187.4629" y2="1187.4629"/><text fill="#000000" font-family="sans-serif" font-size="13" font-weight="bold" lengthAdjust="spacing" textLength="35.3628" x="389.3555" y="1182.7207">[020]</text><text fill="#000000" font-family="sans-serif" font-size="13" lengthAdjust="spacing" textLength="31.478" x="428.7183" y="1182.7207">done</text><polygon fill="#FF0000" points="664.0234,1243.3945,674.0234,1247.3945,664.0234,1251.3945,668.0234,1247.3945" style="stroke:#FF0000;stroke-width:1;"/><line style="stroke:#FF0000;stroke-width:1;" x1="372.3555" x2="670.0234" y1="1247.3945" y2="1247.3945"/><text fill="#000000" font-family="sans-serif" font-size="13" font-weight="bold" lengthAdjust="spacing" textLength="35.3628" x="379.3555" y="1227.3418">[021]</text><text fill="#000000" font-family="sans-serif" font-size="13" lengthAdjust="spacing" textLength="178.8896" x="418.7183" y="1212.0313">HMAC512_Slots(Key : Slot Z,</text><text fill="#000000" font-family="sans-serif" font-size="13" lengthAdjust="spacing" textLength="107.8657" x="521.5503" y="1227.3418">Data Key  : Slot Y</text><text fill="#000000" font-family="sans-serif" font-size="13" lengthAdjust="spacing" textLength="128.686" x="521.5503" y="1242.6523">Destination : Slot: X)</text><polygon fill="#FF0000" points="1365.6699,1272.7051,1375.6699,1276.7051,1365.6699,1280.7051,1369.6699,1276.7051" style="stroke:#FF0000;stroke-width:1;"/><line style="stroke:#FF0000;stroke-width:1;" x1="686.0234" x2="1371.6699" y1="1276.7051" y2="1276.7051"/><text fill="#000000" font-family="sans-serif" font-size="13" font-weight="bold" lengthAdjust="spacing" textLength="35.3628" x="693.0234" y="1271.9629">[022]</text><text fill="#000000" font-family="sans-serif" font-size="13" lengthAdjust="spacing" textLength="126.02" x="732.3862" y="1271.9629">Get Temp MEK Seed</text><polygon fill="#FF0000" points="1258.9277,1302.0156,1268.9277,1306.0156,1258.9277,1310.0156,1262.9277,1306.0156" style="stroke:#FF0000;stroke-width:1;"/><line style="stroke:#FF0000;stroke-width:1;" x1="686.0234" x2="1264.9277" y1="1306.0156" y2="1306.0156"/><text fill="#000000" font-family="sans-serif" font-size="13" font-weight="bold" lengthAdjust="spacing" textLength="35.3628" x="693.0234" y="1301.2734">[023]</text><text fill="#000000" font-family="sans-serif" font-size="13" lengthAdjust="spacing" textLength="59.5283" x="732.3862" y="1301.2734">Get PMEK</text><line style="stroke:#FF0000;stroke-width:1;" x1="686.0234" x2="728.0234" y1="1335.3262" y2="1335.3262"/><line style="stroke:#FF0000;stroke-width:1;" x1="728.0234" x2="728.0234" y1="1335.3262" y2="1348.3262"/><line style="stroke:#FF0000;stroke-width:1;" x1="687.0234" x2="728.0234" y1="1348.3262" y2="1348.3262"/><polygon fill="#FF0000" points="697.0234,1344.3262,687.0234,1348.3262,697.0234,1352.3262,693.0234,1348.3262" style="stroke:#FF0000;stroke-width:1;"/><text fill="#000000" font-family="sans-serif" font-size="13" font-weight="bold" lengthAdjust="spacing" textLength="35.3628" x="693.0234" y="1330.584">[024]</text><text fill="#000000" font-family="sans-serif" font-size="13" lengthAdjust="spacing" textLength="177.2583" x="732.3862" y="1330.584">HMAC512 Key and Data Key</text><polygon fill="#FF0000" points="1156.4204,1373.6367,1166.4204,1377.6367,1156.4204,1381.6367,1160.4204,1377.6367" style="stroke:#FF0000;stroke-width:1;"/><line style="stroke:#FF0000;stroke-width:1;" x1="686.0234" x2="1162.4204" y1="1377.6367" y2="1377.6367"/><text fill="#000000" font-family="sans-serif" font-size="13" font-weight="bold" lengthAdjust="spacing" textLength="35.3628" x="693.0234" y="1372.8945">[025]</text><text fill="#000000" font-family="sans-serif" font-size="13" lengthAdjust="spacing" textLength="292.8491" x="732.3862" y="1372.8945">HMAC512 result MEK Seed updated with PMEK</text><polygon fill="#FF0000" points="383.3555,1402.9473,373.3555,1406.9473,383.3555,1410.9473,379.3555,1406.9473" style="stroke:#FF0000;stroke-width:1;"/><line style="stroke:#FF0000;stroke-width:1;" x1="377.3555" x2="675.0234" y1="1406.9473" y2="1406.9473"/><text fill="#000000" font-family="sans-serif" font-size="13" font-weight="bold" lengthAdjust="spacing" textLength="35.3628" x="389.3555" y="1402.2051">[026]</text><text fill="#000000" font-family="sans-serif" font-size="13" lengthAdjust="spacing" textLength="31.478" x="428.7183" y="1402.2051">done</text><polygon fill="#FF0000" points="664.0234,1447.5684,674.0234,1451.5684,664.0234,1455.5684,668.0234,1451.5684" style="stroke:#FF0000;stroke-width:1;"/><line style="stroke:#FF0000;stroke-width:1;" x1="372.3555" x2="670.0234" y1="1451.5684" y2="1451.5684"/><text fill="#000000" font-family="sans-serif" font-size="13" font-weight="bold" lengthAdjust="spacing" textLength="35.3628" x="379.3555" y="1439.1709">[027]</text><text fill="#000000" font-family="sans-serif" font-size="13" lengthAdjust="spacing" textLength="138.9629" x="418.7183" y="1431.5156">Purge_key(Key: Slot Y,</text><text fill="#000000" font-family="sans-serif" font-size="13" lengthAdjust="spacing" textLength="74.6675" x="484.5308" y="1446.8262">Key : Slot Z)</text><polygon fill="#FF0000" points="1258.9277,1476.8789,1268.9277,1480.8789,1258.9277,1484.8789,1262.9277,1480.8789" style="stroke:#FF0000;stroke-width:1;"/><line style="stroke:#FF0000;stroke-width:1;" x1="686.0234" x2="1264.9277" y1="1480.8789" y2="1480.8789"/><text fill="#000000" font-family="sans-serif" font-size="13" font-weight="bold" lengthAdjust="spacing" textLength="35.3628" x="693.0234" y="1476.1367">[028]</text><text fill="#000000" font-family="sans-serif" font-size="13" lengthAdjust="spacing" textLength="35.9214" x="732.3862" y="1476.1367">Purge</text><polygon fill="#FF0000" points="1365.6699,1476.8789,1375.6699,1480.8789,1365.6699,1484.8789,1369.6699,1480.8789" style="stroke:#FF0000;stroke-width:1;"/><line style="stroke:#FF0000;stroke-width:1;" x1="686.0234" x2="1371.6699" y1="1480.8789" y2="1480.8789"/><text fill="#000000" font-family="sans-serif" font-size="13" font-weight="bold" lengthAdjust="spacing" textLength="35.3628" x="693.0234" y="1476.1367">[029]</text><text fill="#000000" font-family="sans-serif" font-size="13" lengthAdjust="spacing" textLength="4.1133" x="732.3862" y="1476.1367">&#160;</text><polygon fill="#FF0000" points="383.3555,1506.1895,373.3555,1510.1895,383.3555,1514.1895,379.3555,1510.1895" style="stroke:#FF0000;stroke-width:1;"/><line style="stroke:#FF0000;stroke-width:1;" x1="377.3555" x2="675.0234" y1="1510.1895" y2="1510.1895"/><text fill="#000000" font-family="sans-serif" font-size="13" font-weight="bold" lengthAdjust="spacing" textLength="35.3628" x="389.3555" y="1505.4473">[030]</text><text fill="#000000" font-family="sans-serif" font-size="13" lengthAdjust="spacing" textLength="31.478" x="428.7183" y="1505.4473">done</text><line style="stroke:#008000;stroke-width:1;" x1="207.0332" x2="217.0332" y1="1568.8105" y2="1564.8105"/><line style="stroke:#008000;stroke-width:1;" x1="207.0332" x2="217.0332" y1="1568.8105" y2="1572.8105"/><line style="stroke:#008000;stroke-width:1;" x1="206.0332" x2="361.3555" y1="1568.8105" y2="1568.8105"/><text fill="#000000" font-family="sans-serif" font-size="13" font-weight="bold" lengthAdjust="spacing" textLength="35.3628" x="223.0332" y="1556.4131">[031]</text><text fill="#000000" font-family="sans-serif" font-size="13" lengthAdjust="spacing" textLength="64.6826" x="262.396" y="1548.7578">Command</text><text fill="#000000" font-family="sans-serif" font-size="13" lengthAdjust="spacing" textLength="57.2939" x="262.396" y="1564.0684">response</text><line style="stroke:#008000;stroke-width:1;" x1="78.9878" x2="88.9878" y1="1568.8105" y2="1564.8105"/><line style="stroke:#008000;stroke-width:1;" x1="78.9878" x2="88.9878" y1="1568.8105" y2="1572.8105"/><line style="stroke:#008000;stroke-width:1;" x1="77.9878" x2="205.0332" y1="1568.8105" y2="1568.8105"/><text fill="#000000" font-family="sans-serif" font-size="13" font-weight="bold" lengthAdjust="spacing" textLength="35.3628" x="94.9878" y="1556.4131">[032]</text><text fill="#000000" font-family="sans-serif" font-size="13" lengthAdjust="spacing" textLength="64.6826" x="134.3506" y="1548.7578">Command</text><text fill="#000000" font-family="sans-serif" font-size="13" lengthAdjust="spacing" textLength="58.0684" x="134.3506" y="1564.0684">complete</text><path d="M211.0332,1581.8105 L211.0332,1640.8105 L701.0332,1640.8105 L701.0332,1591.8105 L691.0332,1581.8105 L211.0332,1581.8105 " fill="#FEFFDD" style="stroke:#181818;stroke-width:0.5;"/><path d="M691.0332,1581.8105 L691.0332,1591.8105 L701.0332,1591.8105 L691.0332,1581.8105 " fill="#FEFFDD" style="stroke:#181818;stroke-width:0.5;"/><text fill="#000000" font-family="sans-serif" font-size="13" lengthAdjust="spacing" textLength="4.1133" x="217.0332" y="1601.3789">&#160;</text><text fill="#000000" font-family="sans-serif" font-size="13" font-weight="bold" lengthAdjust="spacing" textLength="32.1509" x="221.1465" y="1601.3789">Field</text><text fill="#000000" font-family="sans-serif" font-size="13" lengthAdjust="spacing" textLength="4.1133" x="290.8691" y="1601.3789">&#160;</text><text fill="#000000" font-family="sans-serif" font-size="13" font-weight="bold" lengthAdjust="spacing" textLength="26.9521" x="294.9824" y="1601.3789">Size</text><text fill="#000000" font-family="sans-serif" font-size="13" lengthAdjust="spacing" textLength="4.1133" x="340.0571" y="1601.3789">&#160;</text><text fill="#000000" font-family="sans-serif" font-size="13" font-weight="bold" lengthAdjust="spacing" textLength="66.644" x="344.1704" y="1601.3789">Definition</text><text fill="#000000" font-family="sans-serif" font-size="13" lengthAdjust="spacing" textLength="49.1563" x="221.1465" y="1616.6895">chksum</text><text fill="#000000" font-family="sans-serif" font-size="13" lengthAdjust="spacing" textLength="24.5083" x="294.9824" y="1616.6895">u32</text><text fill="#000000" font-family="sans-serif" font-size="13" lengthAdjust="spacing" textLength="78.0254" x="344.1704" y="1616.6895">Little endian</text><text fill="#000000" font-family="sans-serif" font-size="13" lengthAdjust="spacing" textLength="68.0723" x="221.1465" y="1632">fips_status</text><text fill="#000000" font-family="sans-serif" font-size="13" lengthAdjust="spacing" textLength="24.5083" x="294.9824" y="1632">u32</text><text fill="#000000" font-family="sans-serif" font-size="13" lengthAdjust="spacing" textLength="338.4253" x="344.1704" y="1632">Indicates if the command is FIPS approved or an error</text><line style="stroke:#000000;stroke-width:0.5;" x1="217.0332" x2="686.709" y1="1588.8105" y2="1588.8105"/><line style="stroke:#000000;stroke-width:0.5;" x1="217.0332" x2="686.709" y1="1604.1211" y2="1604.1211"/><line style="stroke:#000000;stroke-width:0.5;" x1="217.0332" x2="686.709" y1="1619.4316" y2="1619.4316"/><line style="stroke:#000000;stroke-width:0.5;" x1="217.0332" x2="686.709" y1="1634.7422" y2="1634.7422"/><line style="stroke:#000000;stroke-width:0.5;" x1="217.0332" x2="217.0332" y1="1588.8105" y2="1634.7422"/><line style="stroke:#000000;stroke-width:0.5;" x1="290.8691" x2="290.8691" y1="1588.8105" y2="1634.7422"/><line style="stroke:#000000;stroke-width:0.5;" x1="340.0571" x2="340.0571" y1="1588.8105" y2="1634.7422"/><line style="stroke:#000000;stroke-width:0.5;" x1="686.709" x2="686.709" y1="1588.8105" y2="1634.7422"/><text fill="#888888" font-family="sans-serif" font-size="10" lengthAdjust="spacing" textLength="138.501" x="693.3835" y="1740.875">Filename: include_pmek.uml</text><!--SRC=[pLRRRjj647tdLum58xLhMqLJz4K80iXst0gkKo6-D0uC4AlbK5g8v3AxIyio_F6TMLvrSze2BSgd9NUkPyuCPqzbCYaY12tpCD5o7XPE9RPFduDWJyLmi6zdUX4wvH8y382U6pv2xqezmVZgmoMep6dWWqMCUi4UPf6ALvHpWr9dKQcUQOSWfD7M-dT-tatUZqiPvPJExE3T3vFtpUttfPzhb0OTA0lMQOCHEOPBNCATA187Dj4EJZiwDpE4M2U9NgXiIh5zBJ2J23DXALTP6BQG6wND04OPkHM9UaQVXvjX1izeD6W3ARc2gz7da6C8kX5_f4JM8gtzDjuY9QP6f22iBLAqP5eujW-NTx1GIS9eWE0WGMIKK5uullB94AeYiHec28MbO2bmaj6jH1_EAEZS6G4NVp0k1crEwAb9mgbJx28JKyv-CLDoLgkH6LERp2AGP5H48YTaOmgDpFXWSou46-K8fIQufEkl9Sgbg3EbSwobjqfwjf0IhOsB1F09PU6DwHXqZaRu4iDaMG7HBr4bsdXkD0Jw3eWJ9_YahECS8k54aEBS7Xt1_kdjnSM7J-7mx6PqDxmP_Vuno7TV1K6yW7rXbvc4T48oWqv1EpGLkUfGrAZfp95ya_CB5_r2OH9rtg-PD5s1SunLvbaCBnrLEPiJgErxyTDRw3mly9jot5QSkrXLBJBkIun2Jf7UV_xnBO57tAFpRNL7Uj8iSqSdJkiXgvjcc4orKMwM0gOJZ28IUDaETpgfCPBnmeDqfbDYKBI2KMgdOIwCfOgKM4d6jeAMT7v1PakfnzVfvEJ47_Oj9l51ZyHxnz0xHuScLHdMmhr32YIns2hLSGbgxcjgU355-AI9ZDppdXMs90uB-3bKSbKrpHp1WUfZ_vW-bs1mxoyfm0aYDviVVDLKMarb_dXqD81VhuPd1FO1EHp0DRVay9YGNNiud7FYve16efzID0ItY9qZqzXplpBskVKyVwmSMpClCLpFU5Dq_jX4MCwB8KqKD_EnR4fpTxJoD2YA2ZMEjrJSwR9J_aXdU1Xqysey47ed9yG05cbLcvgsyXKXocjVuugFmQj4kS4qfm3DahDzWdi_uRYiH9rWM_aeXV0sMnYHbnNqg9zkASrA4LUwRRjmfvJUvW3kIqmQBF8IRYxakFmpygyhsAXV6-AgtrL9HvbJ_EEYjEOl_RVju-xLakqkrsgfcZBLRVYD1e6QrDkeJy0IkmnFSUeIZqYgdhxH9RN5BslOjj3Mz0rszWK7rZH55S8cjiyRZS5SMpNlvVudU8UCY-sY_cKxKJlmit0jVV-Qy4O11lMWMiUCIx09r3fhwnvulKYyYDHn1dzZS1KvhGNr06lS_3VL61TcYk4SbvqVnFsE7yGEBdkCO6yFAcl-ziqQqdJ_xsJbHsuWkyjH-zT_oAfj4eCtqEu6gwl1GqQ_xpoX6VsF5wbsY_gBwrExExssDCKgjw5rmXMsgp0YIIbuT_BBRhD-yF9mCHfVWyXpenzvYJMyRQCnTDY-CNcqWpy1]--></g></svg>