<svg xmlns="http://www.w3.org/2000/svg" xmlns:xlink="http://www.w3.org/1999/xlink" contentStyleType="text/css" data-diagram-type="SEQUENCE" height="841px" preserveAspectRatio="none" style="width:657px;height:841px;background:#FFFFFF;" version="1.1" viewBox="0 0 657 841" width="657px" zoomAndPan="magnify"><title>Load MEK into the Key Cache of the Encryption Engine</title><defs/><g><rect fill="#DDDDDD" height="761.4063" style="stroke:#181818;stroke-width:0.5;" width="415.3242" x="229.0044" y="56.2656"/><text fill="#000000" font-family="sans-serif" font-size="13" font-weight="bold" lengthAdjust="spacing" textLength="121.291" x="376.021" y="68.834">Encryption Engine</text><text fill="#888888" font-family="sans-serif" font-size="10" lengthAdjust="spacing" textLength="46.0254" x="603.3032" y="14.668">Version 1</text><text fill="#000000" font-family="sans-serif" font-size="14" font-weight="bold" lengthAdjust="spacing" textLength="391.7881" x="131.2703" y="41.3125">Load MEK into the Key Cache of the Encryption Engine</text><g><title>SFR</title><rect fill="transparent" height="640.1426" width="8" x="266.1724" y="123.5527"/><line style="stroke:#181818;stroke-width:0.5;stroke-dasharray:5.0,5.0;" x1="269.6724" x2="269.6724" y1="123.5527" y2="763.6953"/></g><g><title/><rect fill="#FFFFFF" height="385.6582" style="stroke:#181818;stroke-width:1;" width="10" x="264.6724" y="360.0371"/></g><g><title>Control</title><rect fill="transparent" height="640.1426" width="8" x="472.5396" y="123.5527"/><line style="stroke:#181818;stroke-width:0.5;stroke-dasharray:5.0,5.0;" x1="476.0396" x2="476.0396" y1="123.5527" y2="763.6953"/></g><g><title/><rect fill="#FFFFFF" height="59.9316" style="stroke:#181818;stroke-width:1;" width="10" x="471.0396" y="196.1738"/></g><g><title/><rect fill="#FFFFFF" height="237.7949" style="stroke:#181818;stroke-width:1;" width="10" x="471.0396" y="507.9004"/></g><g><title>Key Cache</title><rect fill="transparent" height="640.1426" width="8" x="594.9482" y="123.5527"/><line style="stroke:#181818;stroke-width:0.5;stroke-dasharray:5.0,5.0;" x1="598.4482" x2="598.4482" y1="123.5527" y2="763.6953"/></g><rect fill="#E2E2F0" height="46.9766" rx="2.5" ry="2.5" style="stroke:#181818;stroke-width:0.5;" width="73.3359" x="233.0044" y="75.5762"/><text fill="#000000" font-family="sans-serif" font-size="14" lengthAdjust="spacing" textLength="23.8984" x="257.7231" y="96.1113">SFR</text><text fill="#000000" font-family="sans-serif" font-size="14" lengthAdjust="spacing" textLength="59.3359" x="240.0044" y="112.5996">Interface</text><rect fill="#E2E2F0" height="30.4883" rx="2.5" ry="2.5" style="stroke:#181818;stroke-width:0.5;" width="64.5859" x="443.7466" y="92.0645"/><text fill="#000000" font-family="sans-serif" font-size="14" lengthAdjust="spacing" textLength="50.5859" x="450.7466" y="112.5996">Control</text><rect fill="#E2E2F0" height="30.4883" rx="2.5" ry="2.5" style="stroke:#181818;stroke-width:0.5;" width="83.7607" x="556.5679" y="92.0645"/><text fill="#000000" font-family="sans-serif" font-size="14" lengthAdjust="spacing" textLength="69.7607" x="563.5679" y="112.5996">Key Cache</text><rect fill="#E2E2F0" height="46.9766" rx="2.5" ry="2.5" style="stroke:#181818;stroke-width:0.5;" width="73.3359" x="233.0044" y="763.6953"/><text fill="#000000" font-family="sans-serif" font-size="14" lengthAdjust="spacing" textLength="23.8984" x="257.7231" y="784.2305">SFR</text><text fill="#000000" font-family="sans-serif" font-size="14" lengthAdjust="spacing" textLength="59.3359" x="240.0044" y="800.7188">Interface</text><rect fill="#E2E2F0" height="30.4883" rx="2.5" ry="2.5" style="stroke:#181818;stroke-width:0.5;" width="64.5859" x="443.7466" y="763.6953"/><text fill="#000000" font-family="sans-serif" font-size="14" lengthAdjust="spacing" textLength="50.5859" x="450.7466" y="784.2305">Control</text><rect fill="#E2E2F0" height="30.4883" rx="2.5" ry="2.5" style="stroke:#181818;stroke-width:0.5;" width="83.7607" x="556.5679" y="763.6953"/><text fill="#000000" font-family="sans-serif" font-size="14" lengthAdjust="spacing" textLength="69.7607" x="563.5679" y="784.2305">Key Cache</text><rect fill="#EEEEEE" height="3" style="stroke:#EEEEEE;stroke-width:1;" width="645.3286" x="5" y="152.208"/><line style="stroke:#000000;stroke-width:1;" x1="5" x2="650.3286" y1="152.208" y2="152.208"/><line style="stroke:#000000;stroke-width:1;" x1="5" x2="650.3286" y1="155.208" y2="155.208"/><rect fill="#EEEEEE" height="23.3105" style="stroke:#000000;stroke-width:2;" width="206.5498" x="224.3894" y="141.5527"/><text fill="#000000" font-family="sans-serif" font-size="13" font-weight="bold" lengthAdjust="spacing" textLength="188.2651" x="230.3894" y="158.1211">Prepare for a new command</text><polygon fill="#FF0000" points="257.6724,192.1738,267.6724,196.1738,257.6724,200.1738,261.6724,196.1738" style="stroke:#FF0000;stroke-width:1;"/><line style="stroke:#FF0000;stroke-width:1;" x1="5" x2="263.6724" y1="196.1738" y2="196.1738"/><text fill="#000000" font-family="sans-serif" font-size="13" font-weight="bold" lengthAdjust="spacing" textLength="35.3628" x="12" y="191.4316">[001]</text><text fill="#000000" font-family="sans-serif" font-size="13" lengthAdjust="spacing" textLength="201.3096" x="51.3628" y="191.4316">Write Control Reg(DONE == 1b)</text><line style="stroke:#008000;stroke-width:1;" x1="469.0396" x2="459.0396" y1="196.1738" y2="192.1738"/><line style="stroke:#008000;stroke-width:1;" x1="469.0396" x2="459.0396" y1="196.1738" y2="200.1738"/><line style="stroke:#008000;stroke-width:1;" x1="269.6724" x2="470.0396" y1="196.1738" y2="196.1738"/><text fill="#000000" font-family="sans-serif" font-size="13" font-weight="bold" lengthAdjust="spacing" textLength="35.3628" x="276.6724" y="191.4316">[002]</text><text fill="#000000" font-family="sans-serif" font-size="13" lengthAdjust="spacing" textLength="4.1133" x="316.0352" y="191.4316">&#160;</text><polygon fill="#FF0000" points="280.6724,252.1055,270.6724,256.1055,280.6724,260.1055,276.6724,256.1055" style="stroke:#FF0000;stroke-width:1;"/><line style="stroke:#FF0000;stroke-width:1;" x1="274.6724" x2="470.0396" y1="256.1055" y2="256.1055"/><text fill="#000000" font-family="sans-serif" font-size="13" font-weight="bold" lengthAdjust="spacing" textLength="35.3628" x="286.6724" y="236.0527">[003]</text><text fill="#000000" font-family="sans-serif" font-size="13" lengthAdjust="spacing" textLength="111.0713" x="326.0352" y="220.7422">Write Control Reg</text><text fill="#000000" font-family="sans-serif" font-size="13" lengthAdjust="spacing" textLength="63.9272" x="330.1484" y="236.0527">Done = 0,</text><text fill="#000000" font-family="sans-serif" font-size="13" lengthAdjust="spacing" textLength="133.8911" x="330.1484" y="251.3633">EXE = 0, ERROR = 0h</text><rect fill="#EEEEEE" height="3" style="stroke:#EEEEEE;stroke-width:1;" width="645.3286" x="5" y="284.7607"/><line style="stroke:#000000;stroke-width:1;" x1="5" x2="650.3286" y1="284.7607" y2="284.7607"/><line style="stroke:#000000;stroke-width:1;" x1="5" x2="650.3286" y1="287.7607" y2="287.7607"/><rect fill="#EEEEEE" height="23.3105" style="stroke:#000000;stroke-width:2;" width="151.1729" x="252.0779" y="274.1055"/><text fill="#000000" font-family="sans-serif" font-size="13" font-weight="bold" lengthAdjust="spacing" textLength="132.8882" x="258.0779" y="290.6738">Execute a command</text><path d="M96.0088,311.416 L222.4556,311.416 L222.4556,318.7266 L212.4556,328.7266 L96.0088,328.7266 L96.0088,311.416 " fill="#EEEEEE" style="stroke:#000000;stroke-width:1.5;"/><rect fill="transparent" height="115.2422" style="stroke:#000000;stroke-width:1.5;" width="194.6636" x="96.0088" y="311.416"/><text fill="#000000" font-family="sans-serif" font-size="13" font-weight="bold" lengthAdjust="spacing" textLength="81.4468" x="111.0088" y="324.9844">in any order</text><polygon fill="#FF0000" points="252.6724,356.0371,262.6724,360.0371,252.6724,364.0371,256.6724,360.0371" style="stroke:#FF0000;stroke-width:1;"/><line style="stroke:#FF0000;stroke-width:1;" x1="5" x2="258.6724" y1="360.0371" y2="360.0371"/><text fill="#000000" font-family="sans-serif" font-size="13" font-weight="bold" lengthAdjust="spacing" textLength="35.3628" x="186.5796" y="355.2949">[004]</text><text fill="#000000" font-family="sans-serif" font-size="13" lengthAdjust="spacing" textLength="26.73" x="225.9424" y="355.2949">MEK</text><polygon fill="#FF0000" points="252.6724,385.3477,262.6724,389.3477,252.6724,393.3477,256.6724,389.3477" style="stroke:#FF0000;stroke-width:1;"/><line style="stroke:#FF0000;stroke-width:1;" x1="5" x2="258.6724" y1="389.3477" y2="389.3477"/><text fill="#000000" font-family="sans-serif" font-size="13" font-weight="bold" lengthAdjust="spacing" textLength="35.3628" x="151.8833" y="384.6055">[005]</text><text fill="#000000" font-family="sans-serif" font-size="13" lengthAdjust="spacing" textLength="61.4263" x="191.2461" y="384.6055">Write Aux</text><polygon fill="#FF0000" points="252.6724,414.6582,262.6724,418.6582,252.6724,422.6582,256.6724,418.6582" style="stroke:#FF0000;stroke-width:1;"/><line style="stroke:#FF0000;stroke-width:1;" x1="5" x2="258.6724" y1="418.6582" y2="418.6582"/><text fill="#000000" font-family="sans-serif" font-size="13" font-weight="bold" lengthAdjust="spacing" textLength="35.3628" x="119.0088" y="413.916">[006]</text><text fill="#000000" font-family="sans-serif" font-size="13" lengthAdjust="spacing" textLength="94.3008" x="158.3716" y="413.916">Write Metadata</text><polygon fill="#FF0000" points="252.6724,503.9004,262.6724,507.9004,252.6724,511.9004,256.6724,507.9004" style="stroke:#FF0000;stroke-width:1;"/><line style="stroke:#FF0000;stroke-width:1;" x1="5" x2="258.6724" y1="507.9004" y2="507.9004"/><text fill="#000000" font-family="sans-serif" font-size="13" font-weight="bold" lengthAdjust="spacing" textLength="35.3628" x="100.6704" y="480.1924">[007]</text><text fill="#000000" font-family="sans-serif" font-size="13" lengthAdjust="spacing" textLength="111.0713" x="140.0332" y="457.2266">Write Control Reg</text><text fill="#000000" font-family="sans-serif" font-size="13" lengthAdjust="spacing" textLength="112.6392" x="140.0332" y="472.5371">(EXE = Load_MEK,</text><text fill="#000000" font-family="sans-serif" font-size="13" lengthAdjust="spacing" textLength="67.3804" x="144.1465" y="487.8477">DONE = 0,</text><text fill="#000000" font-family="sans-serif" font-size="13" lengthAdjust="spacing" textLength="53.2378" x="144.1465" y="503.1582">EXE = 1)</text><line style="stroke:#008000;stroke-width:1;" x1="469.0396" x2="459.0396" y1="507.9004" y2="503.9004"/><line style="stroke:#008000;stroke-width:1;" x1="469.0396" x2="459.0396" y1="507.9004" y2="511.9004"/><line style="stroke:#008000;stroke-width:1;" x1="274.6724" x2="470.0396" y1="507.9004" y2="507.9004"/><text fill="#000000" font-family="sans-serif" font-size="13" font-weight="bold" lengthAdjust="spacing" textLength="35.3628" x="281.6724" y="503.1582">[008]</text><text fill="#000000" font-family="sans-serif" font-size="13" lengthAdjust="spacing" textLength="4.1133" x="321.0352" y="503.1582">&#160;</text><path d="M253.6724,519.9004 L374.2095,519.9004 L374.2095,527.2109 L364.2095,537.2109 L253.6724,537.2109 L253.6724,519.9004 " fill="#EEEEEE" style="stroke:#000000;stroke-width:1.5;"/><rect fill="transparent" height="115.2422" style="stroke:#000000;stroke-width:1.5;" width="238.3672" x="253.6724" y="519.9004"/><text fill="#000000" font-family="sans-serif" font-size="13" font-weight="bold" lengthAdjust="spacing" textLength="75.5371" x="268.6724" y="533.4688">in any oder</text><polygon fill="#FF0000" points="285.6724,564.5215,275.6724,568.5215,285.6724,572.5215,281.6724,568.5215" style="stroke:#FF0000;stroke-width:1;"/><line style="stroke:#FF0000;stroke-width:1;" x1="279.6724" x2="470.0396" y1="568.5215" y2="568.5215"/><text fill="#000000" font-family="sans-serif" font-size="13" font-weight="bold" lengthAdjust="spacing" textLength="35.3628" x="291.6724" y="563.7793">[009]</text><text fill="#000000" font-family="sans-serif" font-size="13" lengthAdjust="spacing" textLength="61.6675" x="331.0352" y="563.7793">Read MEK</text><polygon fill="#FF0000" points="285.6724,593.832,275.6724,597.832,285.6724,601.832,281.6724,597.832" style="stroke:#FF0000;stroke-width:1;"/><line style="stroke:#FF0000;stroke-width:1;" x1="279.6724" x2="470.0396" y1="597.832" y2="597.832"/><text fill="#000000" font-family="sans-serif" font-size="13" font-weight="bold" lengthAdjust="spacing" textLength="35.3628" x="291.6724" y="593.0898">[010]</text><text fill="#000000" font-family="sans-serif" font-size="13" lengthAdjust="spacing" textLength="61.0518" x="331.0352" y="593.0898">Read AUX</text><polygon fill="#FF0000" points="285.6724,623.1426,275.6724,627.1426,285.6724,631.1426,281.6724,627.1426" style="stroke:#FF0000;stroke-width:1;"/><line style="stroke:#FF0000;stroke-width:1;" x1="279.6724" x2="470.0396" y1="627.1426" y2="627.1426"/><text fill="#000000" font-family="sans-serif" font-size="13" font-weight="bold" lengthAdjust="spacing" textLength="35.3628" x="291.6724" y="622.4004">[011]</text><text fill="#000000" font-family="sans-serif" font-size="13" lengthAdjust="spacing" textLength="92.8218" x="331.0352" y="622.4004">Read Metadata</text><polygon fill="#FF0000" points="586.4482,666.4531,596.4482,670.4531,586.4482,674.4531,590.4482,670.4531" style="stroke:#FF0000;stroke-width:1;"/><line style="stroke:#FF0000;stroke-width:1;" x1="481.0396" x2="592.4482" y1="670.4531" y2="670.4531"/><text fill="#000000" font-family="sans-serif" font-size="13" font-weight="bold" lengthAdjust="spacing" textLength="35.3628" x="488.0396" y="665.7109">[012]</text><text fill="#000000" font-family="sans-serif" font-size="13" lengthAdjust="spacing" textLength="59.0459" x="527.4023" y="665.7109">Store Key</text><polygon fill="#FF0000" points="285.6724,741.6953,275.6724,745.6953,285.6724,749.6953,281.6724,745.6953" style="stroke:#FF0000;stroke-width:1;"/><line style="stroke:#FF0000;stroke-width:1;" x1="279.6724" x2="470.0396" y1="745.6953" y2="745.6953"/><text fill="#000000" font-family="sans-serif" font-size="13" font-weight="bold" lengthAdjust="spacing" textLength="35.3628" x="291.6724" y="717.9873">[013]</text><text fill="#000000" font-family="sans-serif" font-size="13" lengthAdjust="spacing" textLength="111.0713" x="331.0352" y="695.0215">Write Control Reg</text><text fill="#000000" font-family="sans-serif" font-size="13" lengthAdjust="spacing" textLength="76.3369" x="331.0352" y="710.332">(Done = 1b,</text><text fill="#000000" font-family="sans-serif" font-size="13" lengthAdjust="spacing" textLength="61.8833" x="335.1484" y="725.6426">Error = 0,</text><text fill="#000000" font-family="sans-serif" font-size="13" lengthAdjust="spacing" textLength="53.2378" x="335.1484" y="740.9531">EXE = 0)</text><text fill="#888888" font-family="sans-serif" font-size="10" lengthAdjust="spacing" textLength="157.998" x="248.1653" y="831.3398">Filename: load_mek_into_ee.uml</text><!--SRC=[ZLBTQy8m47_FNt6AZ4hdcA-3FeZsoJb7jx71X1BJgmPhhgGfslz-Pzpy6CgMfn-Nkzpl8orjL55d2AJAj22rIckdY-gEoqAqT0v1frhI9dNQ5TWLmETr1w7zI3A3IJm6RHo1MoACiO6XL8mezuNOADkKJfDXkD06swA59jEv4544pnPBQH5oiY31u0OKhTVIP115GdnsgiOeg78B3_1kjKCOad6M2aXm4OocJp7tGN_U5JU-goFz068O2e48X_bUxz8BCmCZCWWHtDyoZZzY3o5EaccoWqjFCjwYgdbIdf5RMAfB5WxID40sG-kTEN8EGzx9vlmg7uWCwksrgmawcKad1JlrXmip4-nvxx98UTrEoTwPKrNzYnQTQ_YHS6eShqnm7_BLky7Rn_MvKoN7I5QA6ruSMVzZ_fTLy9rLV-vbMSj_vZovhl3ZuWi0]--></g></svg>