<svg xmlns="http://www.w3.org/2000/svg" xmlns:xlink="http://www.w3.org/1999/xlink" contentStyleType="text/css" data-diagram-type="SEQUENCE" height="1750px" preserveAspectRatio="none" style="width:1510px;height:1750px;background:#FFFFFF;" version="1.1" viewBox="0 0 1510 1750" width="1510px" zoomAndPan="magnify"><title>Mix PMEK into MEK seed</title><defs/><g><rect fill="#DDDDDD" height="1670.9414" style="stroke:#181818;stroke-width:0.5;" width="1328.5513" x="149.9521" y="56.2656"/><text fill="#000000" font-family="sans-serif" font-size="13" font-weight="bold" lengthAdjust="spacing" textLength="52.7935" x="787.8311" y="68.834">Caliptra</text><text fill="#888888" font-family="sans-serif" font-size="10" lengthAdjust="spacing" textLength="46.0254" x="1456.478" y="14.668">Version 1</text><text fill="#000000" font-family="sans-serif" font-size="14" font-weight="bold" lengthAdjust="spacing" textLength="176.6475" x="674.928" y="41.3125">Mix PMEK into MEK seed</text><g><title>Storage</title><rect fill="transparent" height="1516.7012" width="8" x="53.1826" y="140.041"/><line style="stroke:#181818;stroke-width:0.5;stroke-dasharray:5.0,5.0;" x1="56.6826" x2="56.6826" y1="140.041" y2="1656.7422"/></g><g><title/><rect fill="#FFFFFF" height="87.9316" style="stroke:#181818;stroke-width:1;" width="10" x="51.6826" y="1568.8105"/></g><g><title>Mail Box</title><rect fill="transparent" height="1516.7012" width="8" x="186.228" y="140.041"/><line style="stroke:#181818;stroke-width:0.5;stroke-dasharray:5.0,5.0;" x1="189.728" x2="189.728" y1="140.041" y2="1656.7422"/></g><g><title/><rect fill="#FFFFFF" height="143.8633" style="stroke:#181818;stroke-width:1;" width="10" x="184.728" y="311.8359"/></g><g><title>FW</title><rect fill="transparent" height="1516.7012" width="8" x="347.5503" y="140.041"/><line style="stroke:#181818;stroke-width:0.5;stroke-dasharray:5.0,5.0;" x1="351.0503" x2="351.0503" y1="140.041" y2="1656.7422"/></g><g><title/><rect fill="#FFFFFF" height="1142.4219" style="stroke:#181818;stroke-width:1;" width="10" x="346.0503" y="426.3887"/></g><g><title>Key Vault</title><rect fill="transparent" height="1516.7012" width="8" x="647.4312" y="140.041"/><line style="stroke:#181818;stroke-width:0.5;stroke-dasharray:5.0,5.0;" x1="650.9312" x2="650.9312" y1="140.041" y2="1656.7422"/></g><g><title/><rect fill="#FFFFFF" height="130.2422" style="stroke:#181818;stroke-width:1;" width="10" x="645.9312" y="620.5625"/></g><g><title/><rect fill="#FFFFFF" height="130.2422" style="stroke:#181818;stroke-width:1;" width="10" x="645.9312" y="867.0469"/></g><g><title/><rect fill="#FFFFFF" height="130.2422" style="stroke:#181818;stroke-width:1;" width="10" x="645.9312" y="1057.2207"/></g><g><title/><rect fill="#FFFFFF" height="159.5527" style="stroke:#181818;stroke-width:1;" width="10" x="645.9312" y="1247.3945"/></g><g><title/><rect fill="#FFFFFF" height="58.6211" style="stroke:#181818;stroke-width:1;" width="10" x="645.9312" y="1451.5684"/></g><g><title>Key Vault</title><rect fill="transparent" height="1516.7012" width="8" x="900.9209" y="140.041"/><line style="stroke:#181818;stroke-width:0.5;stroke-dasharray:5.0,5.0;" x1="904.4209" x2="904.4209" y1="140.041" y2="1656.7422"/></g><g><title>Key Vault</title><rect fill="transparent" height="1516.7012" width="8" x="1054.4688" y="140.041"/><line style="stroke:#181818;stroke-width:0.5;stroke-dasharray:5.0,5.0;" x1="1057.9688" x2="1057.9688" y1="140.041" y2="1656.7422"/></g><g><title/><rect fill="#ADD8E6" height="1366.2168" style="stroke:#181818;stroke-width:1;" width="10" x="1052.9688" y="290.5254"/></g><g><title>Key Vault</title><rect fill="transparent" height="1516.7012" width="8" x="1213.3828" y="140.041"/><line style="stroke:#181818;stroke-width:0.5;stroke-dasharray:5.0,5.0;" x1="1216.8828" x2="1216.8828" y1="140.041" y2="1656.7422"/></g><g><title/><rect fill="#ADD8E6" height="1366.2168" style="stroke:#181818;stroke-width:1;" width="10" x="1211.8828" y="290.5254"/></g><g><title>Key Vault</title><rect fill="transparent" height="1516.7012" width="8" x="1315.8901" y="140.041"/><line style="stroke:#181818;stroke-width:0.5;stroke-dasharray:5.0,5.0;" x1="1319.3901" x2="1319.3901" y1="140.041" y2="1656.7422"/></g><g><title/><rect fill="#ADD8E6" height="512.9004" style="stroke:#181818;stroke-width:1;" width="10" x="1314.3901" y="967.9785"/></g><line style="stroke:#181818;stroke-width:2;" x1="1310.3901" x2="1328.3901" y1="1471.8789" y2="1489.8789"/><line style="stroke:#181818;stroke-width:2;" x1="1310.3901" x2="1328.3901" y1="1489.8789" y2="1471.8789"/><g><title>Key Vault</title><rect fill="transparent" height="1516.7012" width="8" x="1422.6323" y="140.041"/><line style="stroke:#181818;stroke-width:0.5;stroke-dasharray:5.0,5.0;" x1="1426.1323" x2="1426.1323" y1="140.041" y2="1656.7422"/></g><g><title/><rect fill="#ADD8E6" height="322.7266" style="stroke:#181818;stroke-width:1;" width="10" x="1421.1323" y="1158.1523"/></g><rect fill="#E2E2F0" height="63.4648" rx="2.5" ry="2.5" style="stroke:#181818;stroke-width:0.5;" width="65.3652" x="24" y="75.5762"/><text fill="#000000" font-family="sans-serif" font-size="14" lengthAdjust="spacing" textLength="51.3652" x="31" y="96.1113">Storage</text><text fill="#000000" font-family="sans-serif" font-size="14" lengthAdjust="spacing" textLength="44.5498" x="34.4077" y="112.5996">Device</text><text fill="#000000" font-family="sans-serif" font-size="14" lengthAdjust="spacing" textLength="19.4824" x="46.9414" y="129.0879">FW</text><rect fill="#E2E2F0" height="30.4883" rx="2.5" ry="2.5" style="stroke:#181818;stroke-width:0.5;" width="71.5518" x="153.9521" y="108.5527"/><text fill="#000000" font-family="sans-serif" font-size="14" lengthAdjust="spacing" textLength="57.5518" x="160.9521" y="129.0879">Mail Box</text><rect fill="#E2E2F0" height="30.4883" rx="2.5" ry="2.5" style="stroke:#181818;stroke-width:0.5;" width="33.4824" x="334.3091" y="108.5527"/><text fill="#000000" font-family="sans-serif" font-size="14" lengthAdjust="spacing" textLength="19.4824" x="341.3091" y="129.0879">FW</text><rect fill="#E2E2F0" height="30.4883" rx="2.5" ry="2.5" style="stroke:#181818;stroke-width:0.5;" width="77.54" x="612.1611" y="108.5527"/><text fill="#000000" font-family="sans-serif" font-size="14" lengthAdjust="spacing" textLength="63.54" x="619.1611" y="129.0879">Key Vault</text><rect fill="#E2E2F0" height="63.4648" rx="2.5" ry="2.5" style="stroke:#181818;stroke-width:0.5;" width="77.54" x="865.6509" y="75.5762"/><text fill="#000000" font-family="sans-serif" font-size="14" lengthAdjust="spacing" textLength="63.54" x="872.6509" y="96.1113">Key Vault</text><text fill="#000000" font-family="sans-serif" font-size="14" lengthAdjust="spacing" textLength="39.5117" x="884.665" y="112.5996">Slot A</text><text fill="#000000" font-family="sans-serif" font-size="14" lengthAdjust="spacing" textLength="33.3389" x="887.7515" y="129.0879">(FEK)</text><rect fill="#E2E2F0" height="63.4648" rx="2.5" ry="2.5" style="stroke:#181818;stroke-width:0.5;" width="209.5557" x="953.1909" y="75.5762"/><text fill="#000000" font-family="sans-serif" font-size="14" lengthAdjust="spacing" textLength="63.54" x="1026.1987" y="96.1113">Key Vault</text><text fill="#000000" font-family="sans-serif" font-size="14" lengthAdjust="spacing" textLength="37.9053" x="1039.0161" y="112.5996">Slot B</text><text fill="#000000" font-family="sans-serif" font-size="14" lengthAdjust="spacing" textLength="195.5557" x="960.1909" y="129.0879">(Ready PMEK Encryption Key)</text><rect fill="#E2E2F0" height="63.4648" rx="2.5" ry="2.5" style="stroke:#181818;stroke-width:0.5;" width="88.2725" x="1172.7466" y="75.5762"/><text fill="#000000" font-family="sans-serif" font-size="14" lengthAdjust="spacing" textLength="63.54" x="1185.1128" y="96.1113">Key Vault</text><text fill="#000000" font-family="sans-serif" font-size="14" lengthAdjust="spacing" textLength="38.6162" x="1197.5747" y="112.5996">Slot X</text><text fill="#000000" font-family="sans-serif" font-size="14" lengthAdjust="spacing" textLength="74.2725" x="1179.7466" y="129.0879">(MEK Seed)</text><rect fill="#E2E2F0" height="63.4648" rx="2.5" ry="2.5" style="stroke:#181818;stroke-width:0.5;" width="96.7422" x="1271.019" y="75.5762"/><text fill="#000000" font-family="sans-serif" font-size="14" lengthAdjust="spacing" textLength="63.54" x="1287.6201" y="96.1113">Key Vault</text><text fill="#000000" font-family="sans-serif" font-size="14" lengthAdjust="spacing" textLength="38.5752" x="1300.1025" y="112.5996">Slot Y</text><text fill="#000000" font-family="sans-serif" font-size="14" lengthAdjust="spacing" textLength="82.7422" x="1278.019" y="129.0879">(Temporary)</text><rect fill="#E2E2F0" height="63.4648" rx="2.5" ry="2.5" style="stroke:#181818;stroke-width:0.5;" width="96.7422" x="1377.7612" y="75.5762"/><text fill="#000000" font-family="sans-serif" font-size="14" lengthAdjust="spacing" textLength="63.54" x="1394.3623" y="96.1113">Key Vault</text><text fill="#000000" font-family="sans-serif" font-size="14" lengthAdjust="spacing" textLength="38.3154" x="1406.9746" y="112.5996">Slot Z</text><text fill="#000000" font-family="sans-serif" font-size="14" lengthAdjust="spacing" textLength="82.7422" x="1384.7612" y="129.0879">(Temporary)</text><rect fill="#E2E2F0" height="63.4648" rx="2.5" ry="2.5" style="stroke:#181818;stroke-width:0.5;" width="65.3652" x="24" y="1656.7422"/><text fill="#000000" font-family="sans-serif" font-size="14" lengthAdjust="spacing" textLength="51.3652" x="31" y="1677.2773">Storage</text><text fill="#000000" font-family="sans-serif" font-size="14" lengthAdjust="spacing" textLength="44.5498" x="34.4077" y="1693.7656">Device</text><text fill="#000000" font-family="sans-serif" font-size="14" lengthAdjust="spacing" textLength="19.4824" x="46.9414" y="1710.2539">FW</text><rect fill="#E2E2F0" height="30.4883" rx="2.5" ry="2.5" style="stroke:#181818;stroke-width:0.5;" width="71.5518" x="153.9521" y="1656.7422"/><text fill="#000000" font-family="sans-serif" font-size="14" lengthAdjust="spacing" textLength="57.5518" x="160.9521" y="1677.2773">Mail Box</text><rect fill="#E2E2F0" height="30.4883" rx="2.5" ry="2.5" style="stroke:#181818;stroke-width:0.5;" width="33.4824" x="334.3091" y="1656.7422"/><text fill="#000000" font-family="sans-serif" font-size="14" lengthAdjust="spacing" textLength="19.4824" x="341.3091" y="1677.2773">FW</text><rect fill="#E2E2F0" height="30.4883" rx="2.5" ry="2.5" style="stroke:#181818;stroke-width:0.5;" width="77.54" x="612.1611" y="1656.7422"/><text fill="#000000" font-family="sans-serif" font-size="14" lengthAdjust="spacing" textLength="63.54" x="619.1611" y="1677.2773">Key Vault</text><rect fill="#E2E2F0" height="63.4648" rx="2.5" ry="2.5" style="stroke:#181818;stroke-width:0.5;" width="77.54" x="865.6509" y="1656.7422"/><text fill="#000000" font-family="sans-serif" font-size="14" lengthAdjust="spacing" textLength="63.54" x="872.6509" y="1677.2773">Key Vault</text><text fill="#000000" font-family="sans-serif" font-size="14" lengthAdjust="spacing" textLength="39.5117" x="884.665" y="1693.7656">Slot A</text><text fill="#000000" font-family="sans-serif" font-size="14" lengthAdjust="spacing" textLength="33.3389" x="887.7515" y="1710.2539">(FEK)</text><rect fill="#E2E2F0" height="63.4648" rx="2.5" ry="2.5" style="stroke:#181818;stroke-width:0.5;" width="209.5557" x="953.1909" y="1656.7422"/><text fill="#000000" font-family="sans-serif" font-size="14" lengthAdjust="spacing" textLength="63.54" x="1026.1987" y="1677.2773">Key Vault</text><text fill="#000000" font-family="sans-serif" font-size="14" lengthAdjust="spacing" textLength="37.9053" x="1039.0161" y="1693.7656">Slot B</text><text fill="#000000" font-family="sans-serif" font-size="14" lengthAdjust="spacing" textLength="195.5557" x="960.1909" y="1710.2539">(Ready PMEK Encryption Key)</text><rect fill="#E2E2F0" height="63.4648" rx="2.5" ry="2.5" style="stroke:#181818;stroke-width:0.5;" width="88.2725" x="1172.7466" y="1656.7422"/><text fill="#000000" font-family="sans-serif" font-size="14" lengthAdjust="spacing" textLength="63.54" x="1185.1128" y="1677.2773">Key Vault</text><text fill="#000000" font-family="sans-serif" font-size="14" lengthAdjust="spacing" textLength="38.6162" x="1197.5747" y="1693.7656">Slot X</text><text fill="#000000" font-family="sans-serif" font-size="14" lengthAdjust="spacing" textLength="74.2725" x="1179.7466" y="1710.2539">(MEK Seed)</text><rect fill="#E2E2F0" height="63.4648" rx="2.5" ry="2.5" style="stroke:#181818;stroke-width:0.5;" width="96.7422" x="1271.019" y="1656.7422"/><text fill="#000000" font-family="sans-serif" font-size="14" lengthAdjust="spacing" textLength="63.54" x="1287.6201" y="1677.2773">Key Vault</text><text fill="#000000" font-family="sans-serif" font-size="14" lengthAdjust="spacing" textLength="38.5752" x="1300.1025" y="1693.7656">Slot Y</text><text fill="#000000" font-family="sans-serif" font-size="14" lengthAdjust="spacing" textLength="82.7422" x="1278.019" y="1710.2539">(Temporary)</text><rect fill="#E2E2F0" height="63.4648" rx="2.5" ry="2.5" style="stroke:#181818;stroke-width:0.5;" width="96.7422" x="1377.7612" y="1656.7422"/><text fill="#000000" font-family="sans-serif" font-size="14" lengthAdjust="spacing" textLength="63.54" x="1394.3623" y="1677.2773">Key Vault</text><text fill="#000000" font-family="sans-serif" font-size="14" lengthAdjust="spacing" textLength="38.3154" x="1406.9746" y="1693.7656">Slot Z</text><text fill="#000000" font-family="sans-serif" font-size="14" lengthAdjust="spacing" textLength="82.7422" x="1384.7612" y="1710.2539">(Temporary)</text><path d="M21.1558,153.041 L21.1558,285.041 L1461.1558,285.041 L1461.1558,163.041 L1451.1558,153.041 L21.1558,153.041 " fill="#FEFFDD" style="stroke:#181818;stroke-width:0.5;"/><path d="M1451.1558,153.041 L1451.1558,163.041 L1461.1558,163.041 L1451.1558,153.041 " fill="#FEFFDD" style="stroke:#181818;stroke-width:0.5;"/><text fill="#000000" font-family="sans-serif" font-size="13" font-weight="bold" lengthAdjust="spacing" textLength="94.999" x="29.5786" y="170.6094">Preconditions:</text><ellipse cx="35.0786" cy="181.1621" fill="#000000" rx="2.5" ry="2.5"/><text fill="#000000" font-family="sans-serif" font-size="13" lengthAdjust="spacing" textLength="349.9526" x="41.5786" y="185.9199">Ready PMEK Encryption Key is stored in Key Vault slot B</text><ellipse cx="35.0786" cy="196.4727" fill="#000000" rx="2.5" ry="2.5"/><text fill="#000000" font-family="sans-serif" font-size="13" lengthAdjust="spacing" textLength="548.4565" x="41.5786" y="201.2305">The following sequence has occurred prior: Initialize MEK then zero or more MIX_PMEK</text><text fill="#000000" font-family="sans-serif" font-size="13" lengthAdjust="spacing" textLength="4.1133" x="29.5786" y="216.541">&#160;</text><text fill="#000000" font-family="sans-serif" font-size="13" font-weight="bold" lengthAdjust="spacing" textLength="41.7422" x="29.5786" y="231.8516">Notes:</text><text fill="#000000" font-family="sans-serif" font-size="13" lengthAdjust="spacing" textLength="1406.4312" x="37.8052" y="247.1621">* The sequence diagram assumes that the KV will not allow an input KV slot to also be used as an out KV slot. Caliptra FW is responsible for managing which KV slots are used and can adapt if this assumption is not correct.</text><text fill="#000000" font-family="sans-serif" font-size="13" lengthAdjust="spacing" textLength="480.8032" x="37.8052" y="262.4727">* This sequence is focused on successful execution of operations by the KV.</text><text fill="#000000" font-family="sans-serif" font-size="13" lengthAdjust="spacing" textLength="4.1133" x="29.5786" y="277.7832">&#160;</text><line style="stroke:#008000;stroke-width:1;" x1="182.728" x2="172.728" y1="311.8359" y2="307.8359"/><line style="stroke:#008000;stroke-width:1;" x1="182.728" x2="172.728" y1="311.8359" y2="315.8359"/><line style="stroke:#008000;stroke-width:1;" x1="56.6826" x2="183.728" y1="311.8359" y2="311.8359"/><text fill="#000000" font-family="sans-serif" font-size="13" font-weight="bold" lengthAdjust="spacing" textLength="35.3628" x="63.6826" y="307.0938">[001]</text><text fill="#000000" font-family="sans-serif" font-size="13" lengthAdjust="spacing" textLength="63.4956" x="103.0454" y="307.0938">MIX_PMEK</text><path d="M199.728,324.8359 L199.728,399.8359 L565.728,399.8359 L565.728,334.8359 L555.728,324.8359 L199.728,324.8359 " fill="#FEFFDD" style="stroke:#181818;stroke-width:0.5;"/><path d="M555.728,324.8359 L555.728,334.8359 L565.728,334.8359 L555.728,324.8359 " fill="#FEFFDD" style="stroke:#181818;stroke-width:0.5;"/><text fill="#000000" font-family="sans-serif" font-size="13" lengthAdjust="spacing" textLength="4.1133" x="205.728" y="344.4043">&#160;</text><text fill="#000000" font-family="sans-serif" font-size="13" font-weight="bold" lengthAdjust="spacing" textLength="32.1509" x="209.8413" y="344.4043">Field</text><text fill="#000000" font-family="sans-serif" font-size="13" lengthAdjust="spacing" textLength="4.1133" x="290.3296" y="344.4043">&#160;</text><text fill="#000000" font-family="sans-serif" font-size="13" font-weight="bold" lengthAdjust="spacing" textLength="26.9521" x="294.4429" y="344.4043">Size</text><text fill="#000000" font-family="sans-serif" font-size="13" lengthAdjust="spacing" textLength="4.1133" x="361.0361" y="344.4043">&#160;</text><text fill="#000000" font-family="sans-serif" font-size="13" font-weight="bold" lengthAdjust="spacing" textLength="66.644" x="365.1494" y="344.4043">Definition</text><text fill="#000000" font-family="sans-serif" font-size="13" lengthAdjust="spacing" textLength="49.1563" x="209.8413" y="359.7148">chksum</text><text fill="#000000" font-family="sans-serif" font-size="13" lengthAdjust="spacing" textLength="24.5083" x="294.4429" y="359.7148">u32</text><text fill="#000000" font-family="sans-serif" font-size="13" lengthAdjust="spacing" textLength="78.0254" x="365.1494" y="359.7148">Little endian</text><text fill="#000000" font-family="sans-serif" font-size="13" lengthAdjust="spacing" textLength="76.375" x="209.8413" y="375.0254">ready_pmek</text><text fill="#000000" font-family="sans-serif" font-size="13" lengthAdjust="spacing" textLength="62.48" x="294.4429" y="375.0254">512 bytes</text><text fill="#000000" font-family="sans-serif" font-size="13" lengthAdjust="spacing" textLength="75.645" x="365.1494" y="375.0254">Ready PMEK</text><text fill="#000000" font-family="sans-serif" font-size="13" lengthAdjust="spacing" textLength="182.0762" x="365.1494" y="390.3359">* PMEK Algorithm embedded</text><line style="stroke:#000000;stroke-width:0.5;" x1="205.728" x2="551.3389" y1="331.8359" y2="331.8359"/><line style="stroke:#000000;stroke-width:0.5;" x1="205.728" x2="551.3389" y1="347.1465" y2="347.1465"/><line style="stroke:#000000;stroke-width:0.5;" x1="205.728" x2="551.3389" y1="362.457" y2="362.457"/><line style="stroke:#000000;stroke-width:0.5;" x1="205.728" x2="551.3389" y1="393.0781" y2="393.0781"/><line style="stroke:#000000;stroke-width:0.5;" x1="205.728" x2="205.728" y1="331.8359" y2="393.0781"/><line style="stroke:#000000;stroke-width:0.5;" x1="290.3296" x2="290.3296" y1="331.8359" y2="393.0781"/><line style="stroke:#000000;stroke-width:0.5;" x1="361.0361" x2="361.0361" y1="331.8359" y2="393.0781"/><line style="stroke:#000000;stroke-width:0.5;" x1="551.3389" x2="551.3389" y1="331.8359" y2="393.0781"/><line style="stroke:#008000;stroke-width:1;" x1="344.0503" x2="334.0503" y1="426.3887" y2="422.3887"/><line style="stroke:#008000;stroke-width:1;" x1="344.0503" x2="334.0503" y1="426.3887" y2="430.3887"/><line style="stroke:#008000;stroke-width:1;" x1="194.728" x2="345.0503" y1="426.3887" y2="426.3887"/><text fill="#000000" font-family="sans-serif" font-size="13" font-weight="bold" lengthAdjust="spacing" textLength="35.3628" x="201.728" y="421.6465">[002]</text><text fill="#000000" font-family="sans-serif" font-size="13" lengthAdjust="spacing" textLength="64.6826" x="241.0908" y="421.6465">Command</text><polygon fill="#FF0000" points="205.728,451.6992,195.728,455.6992,205.728,459.6992,201.728,455.6992" style="stroke:#FF0000;stroke-width:1;"/><line style="stroke:#FF0000;stroke-width:1;" x1="199.728" x2="345.0503" y1="455.6992" y2="455.6992"/><text fill="#000000" font-family="sans-serif" font-size="13" font-weight="bold" lengthAdjust="spacing" textLength="35.3628" x="211.728" y="450.957">[003]</text><text fill="#000000" font-family="sans-serif" font-size="13" lengthAdjust="spacing" textLength="87.9595" x="251.0908" y="450.957">Get command</text><line style="stroke:#FF0000;stroke-width:1;" x1="356.0503" x2="398.0503" y1="485.0098" y2="485.0098"/><line style="stroke:#FF0000;stroke-width:1;" x1="398.0503" x2="398.0503" y1="485.0098" y2="498.0098"/><line style="stroke:#FF0000;stroke-width:1;" x1="357.0503" x2="398.0503" y1="498.0098" y2="498.0098"/><polygon fill="#FF0000" points="367.0503,494.0098,357.0503,498.0098,367.0503,502.0098,363.0503,498.0098" style="stroke:#FF0000;stroke-width:1;"/><text fill="#000000" font-family="sans-serif" font-size="13" font-weight="bold" lengthAdjust="spacing" textLength="35.3628" x="363.0503" y="480.2676">[004]</text><text fill="#000000" font-family="sans-serif" font-size="13" lengthAdjust="spacing" textLength="132.0693" x="402.4131" y="480.2676">Determine command</text><path d="M8,510.0098 L70.1387,510.0098 L70.1387,517.3203 L60.1387,527.3203 L8,527.3203 L8,510.0098 " fill="#EEEEEE" style="stroke:#000000;stroke-width:1.5;"/><rect fill="transparent" height="1008.1797" style="stroke:#000000;stroke-width:1.5;" width="1439.1323" x="8" y="510.0098"/><text fill="#000000" font-family="sans-serif" font-size="13" font-weight="bold" lengthAdjust="spacing" textLength="17.1387" x="23" y="523.5781">alt</text><text fill="#000000" font-family="sans-serif" font-size="11" font-weight="bold" lengthAdjust="spacing" textLength="65.9302" x="85.1387" y="522.6445">[FEK exists]</text><path d="M335.0503,541.3203 L397.189,541.3203 L397.189,548.6309 L387.189,558.6309 L335.0503,558.6309 L335.0503,541.3203 " fill="#EEEEEE" style="stroke:#000000;stroke-width:1.5;"/><rect fill="transparent" height="217.4844" style="stroke:#000000;stroke-width:1.5;" width="897.8325" x="335.0503" y="541.3203"/><text fill="#000000" font-family="sans-serif" font-size="13" font-weight="bold" lengthAdjust="spacing" textLength="17.1387" x="350.0503" y="554.8887">alt</text><text fill="#000000" font-family="sans-serif" font-size="11" font-weight="bold" lengthAdjust="spacing" textLength="338.4165" x="412.189" y="553.9551">[MEK is not initialized (i.e., no PMEK has yet been included)]</text><polygon fill="#FF0000" points="633.9312,616.5625,643.9312,620.5625,633.9312,624.5625,637.9312,620.5625" style="stroke:#FF0000;stroke-width:1;"/><line style="stroke:#FF0000;stroke-width:1;" x1="356.0503" x2="639.9312" y1="620.5625" y2="620.5625"/><text fill="#000000" font-family="sans-serif" font-size="13" font-weight="bold" lengthAdjust="spacing" textLength="35.3628" x="363.0503" y="600.5098">[005]</text><text fill="#000000" font-family="sans-serif" font-size="13" lengthAdjust="spacing" textLength="139.1533" x="402.4131" y="585.1992">HMAC512(Key: Slot A,</text><text fill="#000000" font-family="sans-serif" font-size="13" lengthAdjust="spacing" textLength="138.1567" x="468.2256" y="600.5098">Key Data: "MEK Seed",</text><text fill="#000000" font-family="sans-serif" font-size="13" lengthAdjust="spacing" textLength="120.4595" x="468.2256" y="615.8203">Destination: Slot X)</text><polygon fill="#FF0000" points="892.4209,645.873,902.4209,649.873,892.4209,653.873,896.4209,649.873" style="stroke:#FF0000;stroke-width:1;"/><line style="stroke:#FF0000;stroke-width:1;" x1="655.9312" x2="898.4209" y1="649.873" y2="649.873"/><text fill="#000000" font-family="sans-serif" font-size="13" font-weight="bold" lengthAdjust="spacing" textLength="35.3628" x="662.9312" y="645.1309">[006]</text><text fill="#000000" font-family="sans-serif" font-size="13" lengthAdjust="spacing" textLength="48.1152" x="702.2939" y="645.1309">Get FEK</text><line style="stroke:#FF0000;stroke-width:1;" x1="655.9312" x2="697.9312" y1="679.1836" y2="679.1836"/><line style="stroke:#FF0000;stroke-width:1;" x1="697.9312" x2="697.9312" y1="679.1836" y2="692.1836"/><line style="stroke:#FF0000;stroke-width:1;" x1="656.9312" x2="697.9312" y1="692.1836" y2="692.1836"/><polygon fill="#FF0000" points="666.9312,688.1836,656.9312,692.1836,666.9312,696.1836,662.9312,692.1836" style="stroke:#FF0000;stroke-width:1;"/><text fill="#000000" font-family="sans-serif" font-size="13" font-weight="bold" lengthAdjust="spacing" textLength="35.3628" x="662.9312" y="674.4414">[007]</text><text fill="#000000" font-family="sans-serif" font-size="13" lengthAdjust="spacing" textLength="167.6924" x="702.2939" y="674.4414">HMAC512 slot A with Data</text><polygon fill="#FF0000" points="1199.8828,717.4941,1209.8828,721.4941,1199.8828,725.4941,1203.8828,721.4941" style="stroke:#FF0000;stroke-width:1;"/><line style="stroke:#FF0000;stroke-width:1;" x1="655.9312" x2="1205.8828" y1="721.4941" y2="721.4941"/><text fill="#000000" font-family="sans-serif" font-size="13" font-weight="bold" lengthAdjust="spacing" textLength="35.3628" x="662.9312" y="716.752">[008]</text><text fill="#000000" font-family="sans-serif" font-size="13" lengthAdjust="spacing" textLength="225.4243" x="702.2939" y="716.752">HMAC512 result MEK Seed with FEK</text><polygon fill="#FF0000" points="367.0503,746.8047,357.0503,750.8047,367.0503,754.8047,363.0503,750.8047" style="stroke:#FF0000;stroke-width:1;"/><line style="stroke:#FF0000;stroke-width:1;" x1="361.0503" x2="644.9312" y1="750.8047" y2="750.8047"/><text fill="#000000" font-family="sans-serif" font-size="13" font-weight="bold" lengthAdjust="spacing" textLength="35.3628" x="373.0503" y="746.0625">[009]</text><text fill="#000000" font-family="sans-serif" font-size="13" lengthAdjust="spacing" textLength="31.478" x="412.4131" y="746.0625">done</text><line style="stroke:#FF0000;stroke-width:1;" x1="356.0503" x2="398.0503" y1="794.1152" y2="794.1152"/><line style="stroke:#FF0000;stroke-width:1;" x1="398.0503" x2="398.0503" y1="794.1152" y2="807.1152"/><line style="stroke:#FF0000;stroke-width:1;" x1="357.0503" x2="398.0503" y1="807.1152" y2="807.1152"/><polygon fill="#FF0000" points="367.0503,803.1152,357.0503,807.1152,367.0503,811.1152,363.0503,807.1152" style="stroke:#FF0000;stroke-width:1;"/><text fill="#000000" font-family="sans-serif" font-size="13" font-weight="bold" lengthAdjust="spacing" textLength="35.3628" x="363.0503" y="789.373">[010]</text><text fill="#000000" font-family="sans-serif" font-size="13" lengthAdjust="spacing" textLength="240.9951" x="402.4131" y="789.373">Determine Temporary slox Y for PMEK</text><polygon fill="#FF0000" points="633.9312,863.0469,643.9312,867.0469,633.9312,871.0469,637.9312,867.0469" style="stroke:#FF0000;stroke-width:1;"/><line style="stroke:#FF0000;stroke-width:1;" x1="356.0503" x2="639.9312" y1="867.0469" y2="867.0469"/><text fill="#000000" font-family="sans-serif" font-size="13" font-weight="bold" lengthAdjust="spacing" textLength="35.3628" x="363.0503" y="846.9941">[011]</text><text fill="#000000" font-family="sans-serif" font-size="13" lengthAdjust="spacing" textLength="151.0806" x="402.4131" y="831.6836">Key_Unwrap(Key:  SlotB,</text><text fill="#000000" font-family="sans-serif" font-size="13" lengthAdjust="spacing" textLength="144.3076" x="480.5654" y="846.9941">Key Data: ready_pmek,</text><text fill="#000000" font-family="sans-serif" font-size="13" lengthAdjust="spacing" textLength="120.4214" x="480.5654" y="862.3047">Destination Slot: Y)</text><polygon fill="#FF0000" points="1040.9688,892.3574,1050.9688,896.3574,1040.9688,900.3574,1044.9688,896.3574" style="stroke:#FF0000;stroke-width:1;"/><line style="stroke:#FF0000;stroke-width:1;" x1="655.9312" x2="1046.9688" y1="896.3574" y2="896.3574"/><text fill="#000000" font-family="sans-serif" font-size="13" font-weight="bold" lengthAdjust="spacing" textLength="35.3628" x="662.9312" y="891.6152">[012]</text><text fill="#000000" font-family="sans-serif" font-size="13" lengthAdjust="spacing" textLength="198.7451" x="702.2939" y="891.6152">Get Ready PMEK Encryption Key</text><line style="stroke:#FF0000;stroke-width:1;" x1="655.9312" x2="697.9312" y1="925.668" y2="925.668"/><line style="stroke:#FF0000;stroke-width:1;" x1="697.9312" x2="697.9312" y1="925.668" y2="938.668"/><line style="stroke:#FF0000;stroke-width:1;" x1="656.9312" x2="697.9312" y1="938.668" y2="938.668"/><polygon fill="#FF0000" points="666.9312,934.668,656.9312,938.668,666.9312,942.668,662.9312,938.668" style="stroke:#FF0000;stroke-width:1;"/><text fill="#000000" font-family="sans-serif" font-size="13" font-weight="bold" lengthAdjust="spacing" textLength="35.3628" x="662.9312" y="920.9258">[013]</text><text fill="#000000" font-family="sans-serif" font-size="13" lengthAdjust="spacing" textLength="157.2822" x="702.2939" y="920.9258">Key_Unwrap ready_pmek</text><polygon fill="#FF0000" points="1302.3901,963.9785,1312.3901,967.9785,1302.3901,971.9785,1306.3901,967.9785" style="stroke:#FF0000;stroke-width:1;"/><line style="stroke:#FF0000;stroke-width:1;" x1="655.9312" x2="1308.3901" y1="967.9785" y2="967.9785"/><text fill="#000000" font-family="sans-serif" font-size="13" font-weight="bold" lengthAdjust="spacing" textLength="35.3628" x="662.9312" y="963.2363">[014]</text><text fill="#000000" font-family="sans-serif" font-size="13" lengthAdjust="spacing" textLength="58.1445" x="702.2939" y="963.2363">Put PMEK</text><polygon fill="#FF0000" points="367.0503,993.2891,357.0503,997.2891,367.0503,1001.2891,363.0503,997.2891" style="stroke:#FF0000;stroke-width:1;"/><line style="stroke:#FF0000;stroke-width:1;" x1="361.0503" x2="644.9312" y1="997.2891" y2="997.2891"/><text fill="#000000" font-family="sans-serif" font-size="13" font-weight="bold" lengthAdjust="spacing" textLength="35.3628" x="373.0503" y="992.5469">[015]</text><text fill="#000000" font-family="sans-serif" font-size="13" lengthAdjust="spacing" textLength="31.478" x="412.4131" y="992.5469">done</text><polygon fill="#FF0000" points="633.9312,1053.2207,643.9312,1057.2207,633.9312,1061.2207,637.9312,1057.2207" style="stroke:#FF0000;stroke-width:1;"/><line style="stroke:#FF0000;stroke-width:1;" x1="356.0503" x2="639.9312" y1="1057.2207" y2="1057.2207"/><text fill="#000000" font-family="sans-serif" font-size="13" font-weight="bold" lengthAdjust="spacing" textLength="35.3628" x="363.0503" y="1037.168">[016]</text><text fill="#000000" font-family="sans-serif" font-size="13" lengthAdjust="spacing" textLength="142.4351" x="402.4131" y="1021.8574">HMAC512(Key : Slot X,</text><text fill="#000000" font-family="sans-serif" font-size="13" lengthAdjust="spacing" textLength="158.2471" x="468.2256" y="1037.168">Data String : "PMEK mix",</text><text fill="#000000" font-family="sans-serif" font-size="13" lengthAdjust="spacing" textLength="124.2935" x="468.2256" y="1052.4785">Destination : Slot Z)</text><polygon fill="#FF0000" points="1199.8828,1082.5313,1209.8828,1086.5313,1199.8828,1090.5313,1203.8828,1086.5313" style="stroke:#FF0000;stroke-width:1;"/><line style="stroke:#FF0000;stroke-width:1;" x1="655.9312" x2="1205.8828" y1="1086.5313" y2="1086.5313"/><text fill="#000000" font-family="sans-serif" font-size="13" font-weight="bold" lengthAdjust="spacing" textLength="35.3628" x="662.9312" y="1081.7891">[017]</text><text fill="#000000" font-family="sans-serif" font-size="13" lengthAdjust="spacing" textLength="86.125" x="702.2939" y="1081.7891">Get MEK Seed</text><line style="stroke:#FF0000;stroke-width:1;" x1="655.9312" x2="697.9312" y1="1115.8418" y2="1115.8418"/><line style="stroke:#FF0000;stroke-width:1;" x1="697.9312" x2="697.9312" y1="1115.8418" y2="1128.8418"/><line style="stroke:#FF0000;stroke-width:1;" x1="656.9312" x2="697.9312" y1="1128.8418" y2="1128.8418"/><polygon fill="#FF0000" points="666.9312,1124.8418,656.9312,1128.8418,666.9312,1132.8418,662.9312,1128.8418" style="stroke:#FF0000;stroke-width:1;"/><text fill="#000000" font-family="sans-serif" font-size="13" font-weight="bold" lengthAdjust="spacing" textLength="35.3628" x="662.9312" y="1111.0996">[018]</text><text fill="#000000" font-family="sans-serif" font-size="13" lengthAdjust="spacing" textLength="195.127" x="702.2939" y="1111.0996">HMAC512 Key with Data String</text><polygon fill="#FF0000" points="1409.1323,1154.1523,1419.1323,1158.1523,1409.1323,1162.1523,1413.1323,1158.1523" style="stroke:#FF0000;stroke-width:1;"/><line style="stroke:#FF0000;stroke-width:1;" x1="655.9312" x2="1415.1323" y1="1158.1523" y2="1158.1523"/><text fill="#000000" font-family="sans-serif" font-size="13" font-weight="bold" lengthAdjust="spacing" textLength="35.3628" x="662.9312" y="1153.4102">[019]</text><text fill="#000000" font-family="sans-serif" font-size="13" lengthAdjust="spacing" textLength="207.8857" x="702.2939" y="1153.4102">HMAC512 result Temp MEK Seed</text><polygon fill="#FF0000" points="367.0503,1183.4629,357.0503,1187.4629,367.0503,1191.4629,363.0503,1187.4629" style="stroke:#FF0000;stroke-width:1;"/><line style="stroke:#FF0000;stroke-width:1;" x1="361.0503" x2="644.9312" y1="1187.4629" y2="1187.4629"/><text fill="#000000" font-family="sans-serif" font-size="13" font-weight="bold" lengthAdjust="spacing" textLength="35.3628" x="373.0503" y="1182.7207">[020]</text><text fill="#000000" font-family="sans-serif" font-size="13" lengthAdjust="spacing" textLength="31.478" x="412.4131" y="1182.7207">done</text><polygon fill="#FF0000" points="633.9312,1243.3945,643.9312,1247.3945,633.9312,1251.3945,637.9312,1247.3945" style="stroke:#FF0000;stroke-width:1;"/><line style="stroke:#FF0000;stroke-width:1;" x1="356.0503" x2="639.9312" y1="1247.3945" y2="1247.3945"/><text fill="#000000" font-family="sans-serif" font-size="13" font-weight="bold" lengthAdjust="spacing" textLength="35.3628" x="363.0503" y="1227.3418">[021]</text><text fill="#000000" font-family="sans-serif" font-size="13" lengthAdjust="spacing" textLength="178.8896" x="402.4131" y="1212.0313">HMAC512_Slots(Key : Slot Z,</text><text fill="#000000" font-family="sans-serif" font-size="13" lengthAdjust="spacing" textLength="107.8657" x="505.2451" y="1227.3418">Data Key  : Slot Y</text><text fill="#000000" font-family="sans-serif" font-size="13" lengthAdjust="spacing" textLength="128.686" x="505.2451" y="1242.6523">Destination : Slot: X)</text><polygon fill="#FF0000" points="1409.1323,1272.7051,1419.1323,1276.7051,1409.1323,1280.7051,1413.1323,1276.7051" style="stroke:#FF0000;stroke-width:1;"/><line style="stroke:#FF0000;stroke-width:1;" x1="655.9312" x2="1415.1323" y1="1276.7051" y2="1276.7051"/><text fill="#000000" font-family="sans-serif" font-size="13" font-weight="bold" lengthAdjust="spacing" textLength="35.3628" x="662.9312" y="1271.9629">[022]</text><text fill="#000000" font-family="sans-serif" font-size="13" lengthAdjust="spacing" textLength="126.02" x="702.2939" y="1271.9629">Get Temp MEK Seed</text><polygon fill="#FF0000" points="1302.3901,1302.0156,1312.3901,1306.0156,1302.3901,1310.0156,1306.3901,1306.0156" style="stroke:#FF0000;stroke-width:1;"/><line style="stroke:#FF0000;stroke-width:1;" x1="655.9312" x2="1308.3901" y1="1306.0156" y2="1306.0156"/><text fill="#000000" font-family="sans-serif" font-size="13" font-weight="bold" lengthAdjust="spacing" textLength="35.3628" x="662.9312" y="1301.2734">[023]</text><text fill="#000000" font-family="sans-serif" font-size="13" lengthAdjust="spacing" textLength="59.5283" x="702.2939" y="1301.2734">Get PMEK</text><line style="stroke:#FF0000;stroke-width:1;" x1="655.9312" x2="697.9312" y1="1335.3262" y2="1335.3262"/><line style="stroke:#FF0000;stroke-width:1;" x1="697.9312" x2="697.9312" y1="1335.3262" y2="1348.3262"/><line style="stroke:#FF0000;stroke-width:1;" x1="656.9312" x2="697.9312" y1="1348.3262" y2="1348.3262"/><polygon fill="#FF0000" points="666.9312,1344.3262,656.9312,1348.3262,666.9312,1352.3262,662.9312,1348.3262" style="stroke:#FF0000;stroke-width:1;"/><text fill="#000000" font-family="sans-serif" font-size="13" font-weight="bold" lengthAdjust="spacing" textLength="35.3628" x="662.9312" y="1330.584">[024]</text><text fill="#000000" font-family="sans-serif" font-size="13" lengthAdjust="spacing" textLength="177.2583" x="702.2939" y="1330.584">HMAC512 Key and Data Key</text><polygon fill="#FF0000" points="1199.8828,1373.6367,1209.8828,1377.6367,1199.8828,1381.6367,1203.8828,1377.6367" style="stroke:#FF0000;stroke-width:1;"/><line style="stroke:#FF0000;stroke-width:1;" x1="655.9312" x2="1205.8828" y1="1377.6367" y2="1377.6367"/><text fill="#000000" font-family="sans-serif" font-size="13" font-weight="bold" lengthAdjust="spacing" textLength="35.3628" x="662.9312" y="1372.8945">[025]</text><text fill="#000000" font-family="sans-serif" font-size="13" lengthAdjust="spacing" textLength="292.8491" x="702.2939" y="1372.8945">HMAC512 result MEK Seed updated with PMEK</text><polygon fill="#FF0000" points="367.0503,1402.9473,357.0503,1406.9473,367.0503,1410.9473,363.0503,1406.9473" style="stroke:#FF0000;stroke-width:1;"/><line style="stroke:#FF0000;stroke-width:1;" x1="361.0503" x2="644.9312" y1="1406.9473" y2="1406.9473"/><text fill="#000000" font-family="sans-serif" font-size="13" font-weight="bold" lengthAdjust="spacing" textLength="35.3628" x="373.0503" y="1402.2051">[026]</text><text fill="#000000" font-family="sans-serif" font-size="13" lengthAdjust="spacing" textLength="31.478" x="412.4131" y="1402.2051">done</text><polygon fill="#FF0000" points="633.9312,1447.5684,643.9312,1451.5684,633.9312,1455.5684,637.9312,1451.5684" style="stroke:#FF0000;stroke-width:1;"/><line style="stroke:#FF0000;stroke-width:1;" x1="356.0503" x2="639.9312" y1="1451.5684" y2="1451.5684"/><text fill="#000000" font-family="sans-serif" font-size="13" font-weight="bold" lengthAdjust="spacing" textLength="35.3628" x="363.0503" y="1439.1709">[027]</text><text fill="#000000" font-family="sans-serif" font-size="13" lengthAdjust="spacing" textLength="138.9629" x="402.4131" y="1431.5156">Purge_key(Key: Slot Y,</text><text fill="#000000" font-family="sans-serif" font-size="13" lengthAdjust="spacing" textLength="74.6675" x="468.2256" y="1446.8262">Key : Slot Z)</text><polygon fill="#FF0000" points="1302.3901,1476.8789,1312.3901,1480.8789,1302.3901,1484.8789,1306.3901,1480.8789" style="stroke:#FF0000;stroke-width:1;"/><line style="stroke:#FF0000;stroke-width:1;" x1="655.9312" x2="1308.3901" y1="1480.8789" y2="1480.8789"/><text fill="#000000" font-family="sans-serif" font-size="13" font-weight="bold" lengthAdjust="spacing" textLength="35.3628" x="662.9312" y="1476.1367">[028]</text><text fill="#000000" font-family="sans-serif" font-size="13" lengthAdjust="spacing" textLength="35.9214" x="702.2939" y="1476.1367">Purge</text><polygon fill="#FF0000" points="1409.1323,1476.8789,1419.1323,1480.8789,1409.1323,1484.8789,1413.1323,1480.8789" style="stroke:#FF0000;stroke-width:1;"/><line style="stroke:#FF0000;stroke-width:1;" x1="655.9312" x2="1415.1323" y1="1480.8789" y2="1480.8789"/><text fill="#000000" font-family="sans-serif" font-size="13" font-weight="bold" lengthAdjust="spacing" textLength="35.3628" x="662.9312" y="1476.1367">[029]</text><text fill="#000000" font-family="sans-serif" font-size="13" lengthAdjust="spacing" textLength="4.1133" x="702.2939" y="1476.1367">&#160;</text><polygon fill="#FF0000" points="367.0503,1506.1895,357.0503,1510.1895,367.0503,1514.1895,363.0503,1510.1895" style="stroke:#FF0000;stroke-width:1;"/><line style="stroke:#FF0000;stroke-width:1;" x1="361.0503" x2="644.9312" y1="1510.1895" y2="1510.1895"/><text fill="#000000" font-family="sans-serif" font-size="13" font-weight="bold" lengthAdjust="spacing" textLength="35.3628" x="373.0503" y="1505.4473">[030]</text><text fill="#000000" font-family="sans-serif" font-size="13" lengthAdjust="spacing" textLength="31.478" x="412.4131" y="1505.4473">done</text><line style="stroke:#008000;stroke-width:1;" x1="190.728" x2="200.728" y1="1568.8105" y2="1564.8105"/><line style="stroke:#008000;stroke-width:1;" x1="190.728" x2="200.728" y1="1568.8105" y2="1572.8105"/><line style="stroke:#008000;stroke-width:1;" x1="189.728" x2="345.0503" y1="1568.8105" y2="1568.8105"/><text fill="#000000" font-family="sans-serif" font-size="13" font-weight="bold" lengthAdjust="spacing" textLength="35.3628" x="206.728" y="1556.4131">[031]</text><text fill="#000000" font-family="sans-serif" font-size="13" lengthAdjust="spacing" textLength="64.6826" x="246.0908" y="1548.7578">Command</text><text fill="#000000" font-family="sans-serif" font-size="13" lengthAdjust="spacing" textLength="57.2939" x="246.0908" y="1564.0684">response</text><line style="stroke:#008000;stroke-width:1;" x1="62.6826" x2="72.6826" y1="1568.8105" y2="1564.8105"/><line style="stroke:#008000;stroke-width:1;" x1="62.6826" x2="72.6826" y1="1568.8105" y2="1572.8105"/><line style="stroke:#008000;stroke-width:1;" x1="61.6826" x2="188.728" y1="1568.8105" y2="1568.8105"/><text fill="#000000" font-family="sans-serif" font-size="13" font-weight="bold" lengthAdjust="spacing" textLength="35.3628" x="78.6826" y="1556.4131">[032]</text><text fill="#000000" font-family="sans-serif" font-size="13" lengthAdjust="spacing" textLength="64.6826" x="118.0454" y="1548.7578">Command</text><text fill="#000000" font-family="sans-serif" font-size="13" lengthAdjust="spacing" textLength="58.0684" x="118.0454" y="1564.0684">complete</text><path d="M194.728,1581.8105 L194.728,1640.8105 L684.728,1640.8105 L684.728,1591.8105 L674.728,1581.8105 L194.728,1581.8105 " fill="#FEFFDD" style="stroke:#181818;stroke-width:0.5;"/><path d="M674.728,1581.8105 L674.728,1591.8105 L684.728,1591.8105 L674.728,1581.8105 " fill="#FEFFDD" style="stroke:#181818;stroke-width:0.5;"/><text fill="#000000" font-family="sans-serif" font-size="13" lengthAdjust="spacing" textLength="4.1133" x="200.728" y="1601.3789">&#160;</text><text fill="#000000" font-family="sans-serif" font-size="13" font-weight="bold" lengthAdjust="spacing" textLength="32.1509" x="204.8413" y="1601.3789">Field</text><text fill="#000000" font-family="sans-serif" font-size="13" lengthAdjust="spacing" textLength="4.1133" x="274.564" y="1601.3789">&#160;</text><text fill="#000000" font-family="sans-serif" font-size="13" font-weight="bold" lengthAdjust="spacing" textLength="26.9521" x="278.6772" y="1601.3789">Size</text><text fill="#000000" font-family="sans-serif" font-size="13" lengthAdjust="spacing" textLength="4.1133" x="323.752" y="1601.3789">&#160;</text><text fill="#000000" font-family="sans-serif" font-size="13" font-weight="bold" lengthAdjust="spacing" textLength="66.644" x="327.8652" y="1601.3789">Definition</text><text fill="#000000" font-family="sans-serif" font-size="13" lengthAdjust="spacing" textLength="49.1563" x="204.8413" y="1616.6895">chksum</text><text fill="#000000" font-family="sans-serif" font-size="13" lengthAdjust="spacing" textLength="24.5083" x="278.6772" y="1616.6895">u32</text><text fill="#000000" font-family="sans-serif" font-size="13" lengthAdjust="spacing" textLength="78.0254" x="327.8652" y="1616.6895">Little endian</text><text fill="#000000" font-family="sans-serif" font-size="13" lengthAdjust="spacing" textLength="68.0723" x="204.8413" y="1632">fips_status</text><text fill="#000000" font-family="sans-serif" font-size="13" lengthAdjust="spacing" textLength="24.5083" x="278.6772" y="1632">u32</text><text fill="#000000" font-family="sans-serif" font-size="13" lengthAdjust="spacing" textLength="338.4253" x="327.8652" y="1632">Indicates if the command is FIPS approved or an error</text><line style="stroke:#000000;stroke-width:0.5;" x1="200.728" x2="670.4038" y1="1588.8105" y2="1588.8105"/><line style="stroke:#000000;stroke-width:0.5;" x1="200.728" x2="670.4038" y1="1604.1211" y2="1604.1211"/><line style="stroke:#000000;stroke-width:0.5;" x1="200.728" x2="670.4038" y1="1619.4316" y2="1619.4316"/><line style="stroke:#000000;stroke-width:0.5;" x1="200.728" x2="670.4038" y1="1634.7422" y2="1634.7422"/><line style="stroke:#000000;stroke-width:0.5;" x1="200.728" x2="200.728" y1="1588.8105" y2="1634.7422"/><line style="stroke:#000000;stroke-width:0.5;" x1="274.564" x2="274.564" y1="1588.8105" y2="1634.7422"/><line style="stroke:#000000;stroke-width:0.5;" x1="323.752" x2="323.752" y1="1588.8105" y2="1634.7422"/><line style="stroke:#000000;stroke-width:0.5;" x1="670.4038" x2="670.4038" y1="1588.8105" y2="1634.7422"/><text fill="#888888" font-family="sans-serif" font-size="10" lengthAdjust="spacing" textLength="121.6797" x="702.4119" y="1740.875">Filename: mix_pmek.uml</text><!--SRC=[pLPjRzis4FwkNt4nWYvP4W_hi2z6KS1vyMPawO8cpPeYW45B9ukmHAea5ST1Vlpkg5U_fIYm3TCdIJmUxvxdkUFjIHMcHOIWmtoIwd0-APnCRPz-1y6UZE5WtoPwCN7IfNWO03st_0gzA_a4rrSNbo2Lqy0l5Z7g1Nke8XclRCuDXbf5vNQb7O88ZRRMV_FpRlh-khIHJcfb1-z-chvlLd-4ZoYYPNdQXGhDCcShkCGbI0lMQOCHXU5_t8aYTM1JxU2qu-4sGOXrckg5L3EAz6k1AaH8XANCmyAmXzn8RGOmLXI4IEKp-gnSWWgUqMZG1Z8w2gx6doSSIz2D_mEbjHPtVMvpMYJ5p8WCXBL5XfPS2yV-uV8E5Z9D6HiG72G8HGdbXUCbdmnXB5AhOOfGM0gM0YSRtLhquOo2pfqHCFgBSJ5eSy9IJbDEdM8NIimu-qKYmwJUHcvCxL95499J4OdS0T7d4dBZWoq1fo-ECDG4L-ZwQuao5NMcz1xhq7kbVRO8GxGsBbB09mmBxqp7e7CqmXCEqsK5HBz4bKJabTB8wGSWXPpWaxIESuY44q66Stjq1FkddqQZYu-JuTdj-6vuE_xpGv3lNWg2U07xmYvL2DcKR0OTGZkY5Rdi2DR8MUB8lidvXKaVIKoZ-kE65LEzdsCibTSol7IsXCcSmAm-Yb_UDWj_ICT5nRcArIs6fJ_XVEZZrv_V4b8aD7flQ-914Vw-E8RfJ1lfaWmmcs8K4Vmls-7CfZK6ORpm89pfZ1GIhM2GsTaa5yOIuYKM8MDNGKTxVaDMGxcFbxFfoOb_sRUOnWSzCkyTG-yS7PfCAgoDUuSKI6gntLJ79QXuHvI99zgMMk1_lj6KyfDDVKPm8FlOFwRVPVvSpakAQOh8zUCxMzLsLgEVFnuT3U3tg-4PGNf0VMC0DrnbmsC2S-tXhd9ESXjGpwCpRhZBRJ4xHrQcbtFbx7DxylonEZZ6UGaR9RcvEdziWYghVaXzmIN- -4rhrdXhJ-LUL41nYEN6xYaTNYEjy33eHjyu9OnEJeXQDcctDcIrzXNJvR8dhn9QyAe2RZ7BjH5coGa-mRrlJKmUQIBOHXB1F_ca5aRa9KyUszCj1AnGrPRDTiiEMzxX0EvBG1eWyX9UvchdzHDiiDT6smbXrSmH0fJ7DRLkttHuqV_RtgzUfMutRQkKDNJLTVQDSe1Qmjk4JW33ZJFSXgacF2oPVFf6JTGUlwp1tA9SApVOMH8SM5CFLGYRs3vlr0HhRjMzj_kVu3rXN6mNzI_RDTk1durhw_lNZ3S86DHjQHqpfc0Jg7NLibMZsfqayIHHnnbyHyygShhNwzxL7FFVi75Tc1bEvhZiN0VtEww37Lhs6C7U7bJU_EgRDQHf_T_9ohVU8EnED-sr_g2gSH23Dz1U_gjt_uEY-pbFgLV_0vFGTyz1hqr1iSpjn3hX2jlTC2RBKF0yvAVLPhxWKM4qlhu1aUT6F_8KQdXSHcFePVj8vD4E_WO0]--></g></svg>