<svg xmlns="http://www.w3.org/2000/svg" xmlns:xlink="http://www.w3.org/1999/xlink" contentStyleType="text/css" data-diagram-type="SEQUENCE" height="646px" preserveAspectRatio="none" style="width:776px;height:646px;background:#FFFFFF;" version="1.1" viewBox="0 0 776 646" width="776px" zoomAndPan="magnify"><title>Mix External Entropy</title><defs/><g><rect fill="#DDDDDD" height="566.8984" style="stroke:#181818;stroke-width:0.5;" width="464.749" x="224.999" y="56.2656"/><text fill="#000000" font-family="sans-serif" font-size="13" font-weight="bold" lengthAdjust="spacing" textLength="52.7935" x="430.9768" y="68.834">Caliptra</text><text fill="#888888" font-family="sans-serif" font-size="10" lengthAdjust="spacing" textLength="46.0254" x="722.5386" y="14.668">Version 1</text><text fill="#000000" font-family="sans-serif" font-size="14" font-weight="bold" lengthAdjust="spacing" textLength="149.6797" x="311.9421" y="41.3125">Mix External Entropy</text><g><title>Storage</title><rect fill="transparent" height="412.6582" width="8" x="34.1826" y="140.041"/><line style="stroke:#181818;stroke-width:0.5;stroke-dasharray:5.0,5.0;" x1="37.6826" x2="37.6826" y1="140.041" y2="552.6992"/></g><g><title/><rect fill="#FFFFFF" height="87.9316" style="stroke:#181818;stroke-width:1;" width="10" x="32.6826" y="464.7676"/></g><g><title>Mail Box</title><rect fill="transparent" height="412.6582" width="8" x="261.2749" y="140.041"/><line style="stroke:#181818;stroke-width:0.5;stroke-dasharray:5.0,5.0;" x1="264.7749" x2="264.7749" y1="140.041" y2="552.6992"/></g><g><title/><rect fill="#FFFFFF" height="128.5527" style="stroke:#181818;stroke-width:1;" width="10" x="259.7749" y="219.9727"/></g><g><title>FW</title><rect fill="transparent" height="412.6582" width="8" x="466.0615" y="140.041"/><line style="stroke:#181818;stroke-width:0.5;stroke-dasharray:5.0,5.0;" x1="469.5615" x2="469.5615" y1="140.041" y2="552.6992"/></g><g><title/><rect fill="#FFFFFF" height="145.5527" style="stroke:#181818;stroke-width:1;" width="10" x="464.5615" y="319.2148"/></g><g><title>DRBG</title><rect fill="transparent" height="412.6582" width="8" x="656.4937" y="140.041"/><line style="stroke:#181818;stroke-width:0.5;stroke-dasharray:5.0,5.0;" x1="659.9937" x2="659.9937" y1="140.041" y2="552.6992"/></g><rect fill="#E2E2F0" height="63.4648" rx="2.5" ry="2.5" style="stroke:#181818;stroke-width:0.5;" width="65.3652" x="5" y="75.5762"/><text fill="#000000" font-family="sans-serif" font-size="14" lengthAdjust="spacing" textLength="51.3652" x="12" y="96.1113">Storage</text><text fill="#000000" font-family="sans-serif" font-size="14" lengthAdjust="spacing" textLength="44.5498" x="15.4077" y="112.5996">Device</text><text fill="#000000" font-family="sans-serif" font-size="14" lengthAdjust="spacing" textLength="19.4824" x="27.9414" y="129.0879">FW</text><rect fill="#E2E2F0" height="30.4883" rx="2.5" ry="2.5" style="stroke:#181818;stroke-width:0.5;" width="71.5518" x="228.999" y="108.5527"/><text fill="#000000" font-family="sans-serif" font-size="14" lengthAdjust="spacing" textLength="57.5518" x="235.999" y="129.0879">Mail Box</text><rect fill="#E2E2F0" height="30.4883" rx="2.5" ry="2.5" style="stroke:#181818;stroke-width:0.5;" width="33.4824" x="452.8203" y="108.5527"/><text fill="#000000" font-family="sans-serif" font-size="14" lengthAdjust="spacing" textLength="19.4824" x="459.8203" y="129.0879">FW</text><rect fill="#E2E2F0" height="30.4883" rx="2.5" ry="2.5" style="stroke:#181818;stroke-width:0.5;" width="51.5088" x="634.2393" y="108.5527"/><text fill="#000000" font-family="sans-serif" font-size="14" lengthAdjust="spacing" textLength="37.5088" x="641.2393" y="129.0879">DRBG</text><rect fill="#E2E2F0" height="63.4648" rx="2.5" ry="2.5" style="stroke:#181818;stroke-width:0.5;" width="65.3652" x="5" y="552.6992"/><text fill="#000000" font-family="sans-serif" font-size="14" lengthAdjust="spacing" textLength="51.3652" x="12" y="573.2344">Storage</text><text fill="#000000" font-family="sans-serif" font-size="14" lengthAdjust="spacing" textLength="44.5498" x="15.4077" y="589.7227">Device</text><text fill="#000000" font-family="sans-serif" font-size="14" lengthAdjust="spacing" textLength="19.4824" x="27.9414" y="606.2109">FW</text><rect fill="#E2E2F0" height="30.4883" rx="2.5" ry="2.5" style="stroke:#181818;stroke-width:0.5;" width="71.5518" x="228.999" y="552.6992"/><text fill="#000000" font-family="sans-serif" font-size="14" lengthAdjust="spacing" textLength="57.5518" x="235.999" y="573.2344">Mail Box</text><rect fill="#E2E2F0" height="30.4883" rx="2.5" ry="2.5" style="stroke:#181818;stroke-width:0.5;" width="33.4824" x="452.8203" y="552.6992"/><text fill="#000000" font-family="sans-serif" font-size="14" lengthAdjust="spacing" textLength="19.4824" x="459.8203" y="573.2344">FW</text><rect fill="#E2E2F0" height="30.4883" rx="2.5" ry="2.5" style="stroke:#181818;stroke-width:0.5;" width="51.5088" x="634.2393" y="552.6992"/><text fill="#000000" font-family="sans-serif" font-size="14" lengthAdjust="spacing" textLength="37.5088" x="641.2393" y="573.2344">DRBG</text><path d="M13.4641,153.041 L13.4641,193.041 L683.4641,193.041 L683.4641,163.041 L673.4641,153.041 L13.4641,153.041 " fill="#FEFFDD" style="stroke:#181818;stroke-width:0.5;"/><path d="M673.4641,153.041 L673.4641,163.041 L683.4641,163.041 L673.4641,153.041 " fill="#FEFFDD" style="stroke:#181818;stroke-width:0.5;"/><text fill="#000000" font-family="sans-serif" font-size="13" font-weight="bold" lengthAdjust="spacing" textLength="94.999" x="296.8386" y="170.6094">Preconditions:</text><text fill="#000000" font-family="sans-serif" font-size="13" lengthAdjust="spacing" textLength="43.2783" x="313.2917" y="185.9199">* None</text><line style="stroke:#008000;stroke-width:1;" x1="257.7749" x2="247.7749" y1="219.9727" y2="215.9727"/><line style="stroke:#008000;stroke-width:1;" x1="257.7749" x2="247.7749" y1="219.9727" y2="223.9727"/><line style="stroke:#008000;stroke-width:1;" x1="37.6826" x2="258.7749" y1="219.9727" y2="219.9727"/><text fill="#000000" font-family="sans-serif" font-size="13" font-weight="bold" lengthAdjust="spacing" textLength="35.3628" x="44.6826" y="215.2305">[001]</text><text fill="#000000" font-family="sans-serif" font-size="13" lengthAdjust="spacing" textLength="158.7295" x="84.0454" y="215.2305">MIX_EXTERNAL_ENTROPY</text><path d="M274.7749,232.9727 L274.7749,291.9727 L539.7749,291.9727 L539.7749,242.9727 L529.7749,232.9727 L274.7749,232.9727 " fill="#FEFFDD" style="stroke:#181818;stroke-width:0.5;"/><path d="M529.7749,232.9727 L529.7749,242.9727 L539.7749,242.9727 L529.7749,232.9727 " fill="#FEFFDD" style="stroke:#181818;stroke-width:0.5;"/><text fill="#000000" font-family="sans-serif" font-size="13" lengthAdjust="spacing" textLength="4.1133" x="280.7749" y="252.541">&#160;</text><text fill="#000000" font-family="sans-serif" font-size="13" font-weight="bold" lengthAdjust="spacing" textLength="32.1509" x="284.8882" y="252.541">Field</text><text fill="#000000" font-family="sans-serif" font-size="13" lengthAdjust="spacing" textLength="4.1133" x="346.3843" y="252.541">&#160;</text><text fill="#000000" font-family="sans-serif" font-size="13" font-weight="bold" lengthAdjust="spacing" textLength="26.9521" x="350.4976" y="252.541">Size</text><text fill="#000000" font-family="sans-serif" font-size="13" lengthAdjust="spacing" textLength="4.1133" x="399.9077" y="252.541">&#160;</text><text fill="#000000" font-family="sans-serif" font-size="13" font-weight="bold" lengthAdjust="spacing" textLength="66.644" x="404.021" y="252.541">Definition</text><text fill="#000000" font-family="sans-serif" font-size="13" lengthAdjust="spacing" textLength="49.1563" x="284.8882" y="267.8516">chksum</text><text fill="#000000" font-family="sans-serif" font-size="13" lengthAdjust="spacing" textLength="24.5083" x="350.4976" y="267.8516">u32</text><text fill="#000000" font-family="sans-serif" font-size="13" lengthAdjust="spacing" textLength="78.0254" x="404.021" y="267.8516">Little endian</text><text fill="#000000" font-family="sans-serif" font-size="13" lengthAdjust="spacing" textLength="48.4517" x="284.8882" y="283.1621">entropy</text><text fill="#000000" font-family="sans-serif" font-size="13" lengthAdjust="spacing" textLength="41.1836" x="350.4976" y="283.1621">u8[32]</text><text fill="#000000" font-family="sans-serif" font-size="13" lengthAdjust="spacing" textLength="117.2666" x="404.021" y="283.1621">Additional entropy</text><line style="stroke:#000000;stroke-width:0.5;" x1="280.7749" x2="525.4009" y1="239.9727" y2="239.9727"/><line style="stroke:#000000;stroke-width:0.5;" x1="280.7749" x2="525.4009" y1="255.2832" y2="255.2832"/><line style="stroke:#000000;stroke-width:0.5;" x1="280.7749" x2="525.4009" y1="270.5938" y2="270.5938"/><line style="stroke:#000000;stroke-width:0.5;" x1="280.7749" x2="525.4009" y1="285.9043" y2="285.9043"/><line style="stroke:#000000;stroke-width:0.5;" x1="280.7749" x2="280.7749" y1="239.9727" y2="285.9043"/><line style="stroke:#000000;stroke-width:0.5;" x1="346.3843" x2="346.3843" y1="239.9727" y2="285.9043"/><line style="stroke:#000000;stroke-width:0.5;" x1="399.9077" x2="399.9077" y1="239.9727" y2="285.9043"/><line style="stroke:#000000;stroke-width:0.5;" x1="525.4009" x2="525.4009" y1="239.9727" y2="285.9043"/><line style="stroke:#008000;stroke-width:1;" x1="462.5615" x2="452.5615" y1="319.2148" y2="315.2148"/><line style="stroke:#008000;stroke-width:1;" x1="462.5615" x2="452.5615" y1="319.2148" y2="323.2148"/><line style="stroke:#008000;stroke-width:1;" x1="269.7749" x2="463.5615" y1="319.2148" y2="319.2148"/><text fill="#000000" font-family="sans-serif" font-size="13" font-weight="bold" lengthAdjust="spacing" textLength="35.3628" x="276.7749" y="314.4727">[002]</text><text fill="#000000" font-family="sans-serif" font-size="13" lengthAdjust="spacing" textLength="64.6826" x="316.1377" y="314.4727">Command</text><polygon fill="#FF0000" points="280.7749,344.5254,270.7749,348.5254,280.7749,352.5254,276.7749,348.5254" style="stroke:#FF0000;stroke-width:1;"/><line style="stroke:#FF0000;stroke-width:1;" x1="274.7749" x2="463.5615" y1="348.5254" y2="348.5254"/><text fill="#000000" font-family="sans-serif" font-size="13" font-weight="bold" lengthAdjust="spacing" textLength="35.3628" x="286.7749" y="343.7832">[003]</text><text fill="#000000" font-family="sans-serif" font-size="13" lengthAdjust="spacing" textLength="87.9595" x="326.1377" y="343.7832">Get command</text><line style="stroke:#FF0000;stroke-width:1;" x1="474.5615" x2="516.5615" y1="377.8359" y2="377.8359"/><line style="stroke:#FF0000;stroke-width:1;" x1="516.5615" x2="516.5615" y1="377.8359" y2="390.8359"/><line style="stroke:#FF0000;stroke-width:1;" x1="475.5615" x2="516.5615" y1="390.8359" y2="390.8359"/><polygon fill="#FF0000" points="485.5615,386.8359,475.5615,390.8359,485.5615,394.8359,481.5615,390.8359" style="stroke:#FF0000;stroke-width:1;"/><text fill="#000000" font-family="sans-serif" font-size="13" font-weight="bold" lengthAdjust="spacing" textLength="35.3628" x="481.5615" y="373.0938">[004]</text><text fill="#000000" font-family="sans-serif" font-size="13" lengthAdjust="spacing" textLength="132.0693" x="520.9243" y="373.0938">Determine command</text><polygon fill="#FF0000" points="647.9937,416.1465,657.9937,420.1465,647.9937,424.1465,651.9937,420.1465" style="stroke:#FF0000;stroke-width:1;"/><line style="stroke:#FF0000;stroke-width:1;" x1="474.5615" x2="653.9937" y1="420.1465" y2="420.1465"/><text fill="#000000" font-family="sans-serif" font-size="13" font-weight="bold" lengthAdjust="spacing" textLength="35.3628" x="481.5615" y="415.4043">[005]</text><text fill="#000000" font-family="sans-serif" font-size="13" lengthAdjust="spacing" textLength="101.6641" x="520.9243" y="415.4043">Reseed(entropy)</text><polygon fill="#FF0000" points="275.7749,460.7676,265.7749,464.7676,275.7749,468.7676,271.7749,464.7676" style="stroke:#FF0000;stroke-width:1;"/><line style="stroke:#FF0000;stroke-width:1;" x1="269.7749" x2="463.5615" y1="464.7676" y2="464.7676"/><text fill="#000000" font-family="sans-serif" font-size="13" font-weight="bold" lengthAdjust="spacing" textLength="35.3628" x="281.7749" y="460.0254">[006]</text><text fill="#000000" font-family="sans-serif" font-size="13" lengthAdjust="spacing" textLength="136.4238" x="321.1377" y="460.0254">Command response=</text><line style="stroke:#008000;stroke-width:1;" x1="43.6826" x2="53.6826" y1="464.7676" y2="460.7676"/><line style="stroke:#008000;stroke-width:1;" x1="43.6826" x2="53.6826" y1="464.7676" y2="468.7676"/><line style="stroke:#008000;stroke-width:1;" x1="42.6826" x2="263.7749" y1="464.7676" y2="464.7676"/><text fill="#000000" font-family="sans-serif" font-size="13" font-weight="bold" lengthAdjust="spacing" textLength="35.3628" x="59.6826" y="452.3701">[007]</text><text fill="#000000" font-family="sans-serif" font-size="13" lengthAdjust="spacing" textLength="64.6826" x="99.0454" y="444.7148">Command</text><text fill="#000000" font-family="sans-serif" font-size="13" lengthAdjust="spacing" textLength="58.0684" x="99.0454" y="460.0254">complete</text><path d="M269.7749,477.7676 L269.7749,536.7676 L763.7749,536.7676 L763.7749,487.7676 L753.7749,477.7676 L269.7749,477.7676 " fill="#FEFFDD" style="stroke:#181818;stroke-width:0.5;"/><path d="M753.7749,477.7676 L753.7749,487.7676 L763.7749,487.7676 L753.7749,477.7676 " fill="#FEFFDD" style="stroke:#181818;stroke-width:0.5;"/><text fill="#000000" font-family="sans-serif" font-size="13" lengthAdjust="spacing" textLength="4.1133" x="275.7749" y="497.3359">&#160;</text><text fill="#000000" font-family="sans-serif" font-size="13" font-weight="bold" lengthAdjust="spacing" textLength="32.1509" x="279.8882" y="497.3359">Field</text><text fill="#000000" font-family="sans-serif" font-size="13" lengthAdjust="spacing" textLength="4.1133" x="353.7241" y="497.3359">&#160;</text><text fill="#000000" font-family="sans-serif" font-size="13" font-weight="bold" lengthAdjust="spacing" textLength="26.9521" x="357.8374" y="497.3359">Size</text><text fill="#000000" font-family="sans-serif" font-size="13" lengthAdjust="spacing" textLength="4.1133" x="402.9121" y="497.3359">&#160;</text><text fill="#000000" font-family="sans-serif" font-size="13" font-weight="bold" lengthAdjust="spacing" textLength="66.644" x="407.0254" y="497.3359">Definition</text><text fill="#000000" font-family="sans-serif" font-size="13" lengthAdjust="spacing" textLength="49.1563" x="279.8882" y="512.6465">chksum</text><text fill="#000000" font-family="sans-serif" font-size="13" lengthAdjust="spacing" textLength="24.5083" x="357.8374" y="512.6465">u32</text><text fill="#000000" font-family="sans-serif" font-size="13" lengthAdjust="spacing" textLength="78.0254" x="407.0254" y="512.6465">Little endian</text><text fill="#000000" font-family="sans-serif" font-size="13" lengthAdjust="spacing" textLength="68.0723" x="279.8882" y="527.957">fips_status</text><text fill="#000000" font-family="sans-serif" font-size="13" lengthAdjust="spacing" textLength="24.5083" x="357.8374" y="527.957">u32</text><text fill="#000000" font-family="sans-serif" font-size="13" lengthAdjust="spacing" textLength="338.4253" x="407.0254" y="527.957">Indicates if the command is FIPS approved or an error</text><line style="stroke:#000000;stroke-width:0.5;" x1="275.7749" x2="749.564" y1="484.7676" y2="484.7676"/><line style="stroke:#000000;stroke-width:0.5;" x1="275.7749" x2="749.564" y1="500.0781" y2="500.0781"/><line style="stroke:#000000;stroke-width:0.5;" x1="275.7749" x2="749.564" y1="515.3887" y2="515.3887"/><line style="stroke:#000000;stroke-width:0.5;" x1="275.7749" x2="749.564" y1="530.6992" y2="530.6992"/><line style="stroke:#000000;stroke-width:0.5;" x1="275.7749" x2="275.7749" y1="484.7676" y2="530.6992"/><line style="stroke:#000000;stroke-width:0.5;" x1="353.7241" x2="353.7241" y1="484.7676" y2="530.6992"/><line style="stroke:#000000;stroke-width:0.5;" x1="402.9121" x2="402.9121" y1="484.7676" y2="530.6992"/><line style="stroke:#000000;stroke-width:0.5;" x1="749.564" x2="749.564" y1="484.7676" y2="530.6992"/><text fill="#888888" font-family="sans-serif" font-size="10" lengthAdjust="spacing" textLength="176.6309" x="298.4666" y="636.832">Filename: mix_external_entropy.uml</text><!--SRC=[dLFlJzim4FsUl-8QTLiPOvFWouG02OqoLOAkAlt0j4sHwrnQ2yUsR6U5gN_yBiuF4fH9QFvqyNjtzzwTCnAAoo95qDmaKlE7fF12kezq7KMZiTlgNSAaX7Duuss1auFeNVysOzALrz58P31feOC8wDHKOv5hbNQAT40llCHXY1an3EHkanXcdL2ROKAgLRVc24daFnGr1eOa3M2rfW7aXQW1HgEgWKQeKf7rHXTQLqche2A-5OymVVHe5PCmLTvgynGFfTQUgcIbFGBZLZiNlijpjhvOL1pXXLRkzEpJ-g95o_CUvYGnN57zKAJjbErWpDoJuf2l3m_X56vdzydqVZLTpYzlakbyjVos-Dv_1aPqn5YnsNhARHlkIq7N0cLQXNVY3rRH5MP21Osmxz3vzi4LUGYBa-FwyaRuSaobIDQdOpMhGF_yu-JuLnbTffLvccM3xuVzvkl6ByzsmV0NdUTCfJsFdQLNNdavftfCbFCLFV0whuJpzT5H2COEPJQ9YHv_WFWAQS6veETHa-Fkemr9ZQxd1fPur6A93Z6Tr7ReJunUQAXrWqLdQEru7hs5PtTzSpyL2J2IvFpdAfklrs_prGlDX769yymNhfSn8ofd7XsGOBzjPmZ2mVLiSGVC6Aj_OmhQ0jL4QoaONZkDZcOT_GK0]--></g></svg>