<svg xmlns="http://www.w3.org/2000/svg" xmlns:xlink="http://www.w3.org/1999/xlink" contentStyleType="text/css" data-diagram-type="SEQUENCE" height="1750px" preserveAspectRatio="none" style="width:1499px;height:1750px;background:#FFFFFF;" version="1.1" viewBox="0 0 1499 1750" width="1499px" zoomAndPan="magnify"><title>Mix PMEK into MEK seed</title><defs/><g><rect fill="#DDDDDD" height="1670.9414" style="stroke:#181818;stroke-width:0.5;" width="1254.9966" x="173.1509" y="56.2656"/><text fill="#000000" font-family="sans-serif" font-size="13" font-weight="bold" lengthAdjust="spacing" textLength="52.7935" x="774.2524" y="68.834">Caliptra</text><text fill="#888888" font-family="sans-serif" font-size="10" lengthAdjust="spacing" textLength="46.0254" x="1445.8311" y="14.668">Version 1</text><text fill="#000000" font-family="sans-serif" font-size="14" font-weight="bold" lengthAdjust="spacing" textLength="176.6475" x="681.2039" y="41.3125">Mix PMEK into MEK seed</text><g><title>Storage</title><rect fill="transparent" height="1516.7012" width="8" x="76.3813" y="140.041"/><line style="stroke:#181818;stroke-width:0.5;stroke-dasharray:5.0,5.0;" x1="79.8813" x2="79.8813" y1="140.041" y2="1656.7422"/></g><g><title/><rect fill="#FFFFFF" height="87.9316" style="stroke:#181818;stroke-width:1;" width="10" x="74.8813" y="1568.8105"/></g><g><title>Mail Box</title><rect fill="transparent" height="1516.7012" width="8" x="209.4268" y="140.041"/><line style="stroke:#181818;stroke-width:0.5;stroke-dasharray:5.0,5.0;" x1="212.9268" x2="212.9268" y1="140.041" y2="1656.7422"/></g><g><title/><rect fill="#FFFFFF" height="143.8633" style="stroke:#181818;stroke-width:1;" width="10" x="207.9268" y="311.8359"/></g><g><title>FW</title><rect fill="transparent" height="1516.7012" width="8" x="370.749" y="140.041"/><line style="stroke:#181818;stroke-width:0.5;stroke-dasharray:5.0,5.0;" x1="374.249" x2="374.249" y1="140.041" y2="1656.7422"/></g><g><title/><rect fill="#FFFFFF" height="1142.4219" style="stroke:#181818;stroke-width:1;" width="10" x="369.249" y="426.3887"/></g><g><title>Key Vault</title><rect fill="transparent" height="1516.7012" width="8" x="670.6299" y="140.041"/><line style="stroke:#181818;stroke-width:0.5;stroke-dasharray:5.0,5.0;" x1="674.1299" x2="674.1299" y1="140.041" y2="1656.7422"/></g><g><title/><rect fill="#FFFFFF" height="130.2422" style="stroke:#181818;stroke-width:1;" width="10" x="669.1299" y="620.5625"/></g><g><title/><rect fill="#FFFFFF" height="130.2422" style="stroke:#181818;stroke-width:1;" width="10" x="669.1299" y="867.0469"/></g><g><title/><rect fill="#FFFFFF" height="130.2422" style="stroke:#181818;stroke-width:1;" width="10" x="669.1299" y="1057.2207"/></g><g><title/><rect fill="#FFFFFF" height="159.5527" style="stroke:#181818;stroke-width:1;" width="10" x="669.1299" y="1247.3945"/></g><g><title/><rect fill="#FFFFFF" height="58.6211" style="stroke:#181818;stroke-width:1;" width="10" x="669.1299" y="1451.5684"/></g><g><title>Key Vault</title><rect fill="transparent" height="1516.7012" width="8" x="924.1196" y="140.041"/><line style="stroke:#181818;stroke-width:0.5;stroke-dasharray:5.0,5.0;" x1="927.6196" x2="927.6196" y1="140.041" y2="1656.7422"/></g><g><title>Key Vault</title><rect fill="transparent" height="1516.7012" width="8" x="1056.2231" y="140.041"/><line style="stroke:#181818;stroke-width:0.5;stroke-dasharray:5.0,5.0;" x1="1059.7231" x2="1059.7231" y1="140.041" y2="1656.7422"/></g><g><title/><rect fill="#ADD8E6" height="1366.2168" style="stroke:#181818;stroke-width:1;" width="10" x="1054.7231" y="290.5254"/></g><g><title>Key Vault</title><rect fill="transparent" height="1516.7012" width="8" x="1163.0269" y="140.041"/><line style="stroke:#181818;stroke-width:0.5;stroke-dasharray:5.0,5.0;" x1="1166.5269" x2="1166.5269" y1="140.041" y2="1656.7422"/></g><g><title/><rect fill="#ADD8E6" height="1366.2168" style="stroke:#181818;stroke-width:1;" width="10" x="1161.5269" y="290.5254"/></g><g><title>Key Vault</title><rect fill="transparent" height="1516.7012" width="8" x="1265.5342" y="140.041"/><line style="stroke:#181818;stroke-width:0.5;stroke-dasharray:5.0,5.0;" x1="1269.0342" x2="1269.0342" y1="140.041" y2="1656.7422"/></g><g><title/><rect fill="#ADD8E6" height="512.9004" style="stroke:#181818;stroke-width:1;" width="10" x="1264.0342" y="967.9785"/></g><line style="stroke:#181818;stroke-width:2;" x1="1260.0342" x2="1278.0342" y1="1471.8789" y2="1489.8789"/><line style="stroke:#181818;stroke-width:2;" x1="1260.0342" x2="1278.0342" y1="1489.8789" y2="1471.8789"/><g><title>Key Vault</title><rect fill="transparent" height="1516.7012" width="8" x="1372.2764" y="140.041"/><line style="stroke:#181818;stroke-width:0.5;stroke-dasharray:5.0,5.0;" x1="1375.7764" x2="1375.7764" y1="140.041" y2="1656.7422"/></g><g><title/><rect fill="#ADD8E6" height="322.7266" style="stroke:#181818;stroke-width:1;" width="10" x="1370.7764" y="1158.1523"/></g><rect fill="#E2E2F0" height="63.4648" rx="2.5" ry="2.5" style="stroke:#181818;stroke-width:0.5;" width="65.3652" x="47.1987" y="75.5762"/><text fill="#000000" font-family="sans-serif" font-size="14" lengthAdjust="spacing" textLength="51.3652" x="54.1987" y="96.1113">Storage</text><text fill="#000000" font-family="sans-serif" font-size="14" lengthAdjust="spacing" textLength="44.5498" x="57.6064" y="112.5996">Device</text><text fill="#000000" font-family="sans-serif" font-size="14" lengthAdjust="spacing" textLength="19.4824" x="70.1401" y="129.0879">FW</text><rect fill="#E2E2F0" height="30.4883" rx="2.5" ry="2.5" style="stroke:#181818;stroke-width:0.5;" width="71.5518" x="177.1509" y="108.5527"/><text fill="#000000" font-family="sans-serif" font-size="14" lengthAdjust="spacing" textLength="57.5518" x="184.1509" y="129.0879">Mail Box</text><rect fill="#E2E2F0" height="30.4883" rx="2.5" ry="2.5" style="stroke:#181818;stroke-width:0.5;" width="33.4824" x="357.5078" y="108.5527"/><text fill="#000000" font-family="sans-serif" font-size="14" lengthAdjust="spacing" textLength="19.4824" x="364.5078" y="129.0879">FW</text><rect fill="#E2E2F0" height="30.4883" rx="2.5" ry="2.5" style="stroke:#181818;stroke-width:0.5;" width="77.54" x="635.3599" y="108.5527"/><text fill="#000000" font-family="sans-serif" font-size="14" lengthAdjust="spacing" textLength="63.54" x="642.3599" y="129.0879">Key Vault</text><rect fill="#E2E2F0" height="63.4648" rx="2.5" ry="2.5" style="stroke:#181818;stroke-width:0.5;" width="138.8721" x="858.1836" y="75.5762"/><text fill="#000000" font-family="sans-serif" font-size="14" lengthAdjust="spacing" textLength="63.54" x="895.8496" y="96.1113">Key Vault</text><text fill="#000000" font-family="sans-serif" font-size="14" lengthAdjust="spacing" textLength="39.5117" x="907.8638" y="112.5996">Slot A</text><text fill="#000000" font-family="sans-serif" font-size="14" lengthAdjust="spacing" textLength="124.8721" x="865.1836" y="129.0879">(Storage Root Key)</text><rect fill="#E2E2F0" height="63.4648" rx="2.5" ry="2.5" style="stroke:#181818;stroke-width:0.5;" width="105.335" x="1007.0557" y="75.5762"/><text fill="#000000" font-family="sans-serif" font-size="14" lengthAdjust="spacing" textLength="63.54" x="1027.9531" y="96.1113">Key Vault</text><text fill="#000000" font-family="sans-serif" font-size="14" lengthAdjust="spacing" textLength="37.9053" x="1040.7705" y="112.5996">Slot B</text><text fill="#000000" font-family="sans-serif" font-size="14" lengthAdjust="spacing" textLength="91.335" x="1014.0557" y="129.0879">(PMEK Secret)</text><rect fill="#E2E2F0" height="63.4648" rx="2.5" ry="2.5" style="stroke:#181818;stroke-width:0.5;" width="88.2725" x="1122.3906" y="75.5762"/><text fill="#000000" font-family="sans-serif" font-size="14" lengthAdjust="spacing" textLength="63.54" x="1134.7568" y="96.1113">Key Vault</text><text fill="#000000" font-family="sans-serif" font-size="14" lengthAdjust="spacing" textLength="38.6162" x="1147.2188" y="112.5996">Slot X</text><text fill="#000000" font-family="sans-serif" font-size="14" lengthAdjust="spacing" textLength="74.2725" x="1129.3906" y="129.0879">(MEK Seed)</text><rect fill="#E2E2F0" height="63.4648" rx="2.5" ry="2.5" style="stroke:#181818;stroke-width:0.5;" width="96.7422" x="1220.6631" y="75.5762"/><text fill="#000000" font-family="sans-serif" font-size="14" lengthAdjust="spacing" textLength="63.54" x="1237.2642" y="96.1113">Key Vault</text><text fill="#000000" font-family="sans-serif" font-size="14" lengthAdjust="spacing" textLength="38.5752" x="1249.7466" y="112.5996">Slot Y</text><text fill="#000000" font-family="sans-serif" font-size="14" lengthAdjust="spacing" textLength="82.7422" x="1227.6631" y="129.0879">(Temporary)</text><rect fill="#E2E2F0" height="63.4648" rx="2.5" ry="2.5" style="stroke:#181818;stroke-width:0.5;" width="96.7422" x="1327.4053" y="75.5762"/><text fill="#000000" font-family="sans-serif" font-size="14" lengthAdjust="spacing" textLength="63.54" x="1344.0063" y="96.1113">Key Vault</text><text fill="#000000" font-family="sans-serif" font-size="14" lengthAdjust="spacing" textLength="38.3154" x="1356.6187" y="112.5996">Slot Z</text><text fill="#000000" font-family="sans-serif" font-size="14" lengthAdjust="spacing" textLength="82.7422" x="1334.4053" y="129.0879">(Temporary)</text><rect fill="#E2E2F0" height="63.4648" rx="2.5" ry="2.5" style="stroke:#181818;stroke-width:0.5;" width="65.3652" x="47.1987" y="1656.7422"/><text fill="#000000" font-family="sans-serif" font-size="14" lengthAdjust="spacing" textLength="51.3652" x="54.1987" y="1677.2773">Storage</text><text fill="#000000" font-family="sans-serif" font-size="14" lengthAdjust="spacing" textLength="44.5498" x="57.6064" y="1693.7656">Device</text><text fill="#000000" font-family="sans-serif" font-size="14" lengthAdjust="spacing" textLength="19.4824" x="70.1401" y="1710.2539">FW</text><rect fill="#E2E2F0" height="30.4883" rx="2.5" ry="2.5" style="stroke:#181818;stroke-width:0.5;" width="71.5518" x="177.1509" y="1656.7422"/><text fill="#000000" font-family="sans-serif" font-size="14" lengthAdjust="spacing" textLength="57.5518" x="184.1509" y="1677.2773">Mail Box</text><rect fill="#E2E2F0" height="30.4883" rx="2.5" ry="2.5" style="stroke:#181818;stroke-width:0.5;" width="33.4824" x="357.5078" y="1656.7422"/><text fill="#000000" font-family="sans-serif" font-size="14" lengthAdjust="spacing" textLength="19.4824" x="364.5078" y="1677.2773">FW</text><rect fill="#E2E2F0" height="30.4883" rx="2.5" ry="2.5" style="stroke:#181818;stroke-width:0.5;" width="77.54" x="635.3599" y="1656.7422"/><text fill="#000000" font-family="sans-serif" font-size="14" lengthAdjust="spacing" textLength="63.54" x="642.3599" y="1677.2773">Key Vault</text><rect fill="#E2E2F0" height="63.4648" rx="2.5" ry="2.5" style="stroke:#181818;stroke-width:0.5;" width="138.8721" x="858.1836" y="1656.7422"/><text fill="#000000" font-family="sans-serif" font-size="14" lengthAdjust="spacing" textLength="63.54" x="895.8496" y="1677.2773">Key Vault</text><text fill="#000000" font-family="sans-serif" font-size="14" lengthAdjust="spacing" textLength="39.5117" x="907.8638" y="1693.7656">Slot A</text><text fill="#000000" font-family="sans-serif" font-size="14" lengthAdjust="spacing" textLength="124.8721" x="865.1836" y="1710.2539">(Storage Root Key)</text><rect fill="#E2E2F0" height="63.4648" rx="2.5" ry="2.5" style="stroke:#181818;stroke-width:0.5;" width="105.335" x="1007.0557" y="1656.7422"/><text fill="#000000" font-family="sans-serif" font-size="14" lengthAdjust="spacing" textLength="63.54" x="1027.9531" y="1677.2773">Key Vault</text><text fill="#000000" font-family="sans-serif" font-size="14" lengthAdjust="spacing" textLength="37.9053" x="1040.7705" y="1693.7656">Slot B</text><text fill="#000000" font-family="sans-serif" font-size="14" lengthAdjust="spacing" textLength="91.335" x="1014.0557" y="1710.2539">(PMEK Secret)</text><rect fill="#E2E2F0" height="63.4648" rx="2.5" ry="2.5" style="stroke:#181818;stroke-width:0.5;" width="88.2725" x="1122.3906" y="1656.7422"/><text fill="#000000" font-family="sans-serif" font-size="14" lengthAdjust="spacing" textLength="63.54" x="1134.7568" y="1677.2773">Key Vault</text><text fill="#000000" font-family="sans-serif" font-size="14" lengthAdjust="spacing" textLength="38.6162" x="1147.2188" y="1693.7656">Slot X</text><text fill="#000000" font-family="sans-serif" font-size="14" lengthAdjust="spacing" textLength="74.2725" x="1129.3906" y="1710.2539">(MEK Seed)</text><rect fill="#E2E2F0" height="63.4648" rx="2.5" ry="2.5" style="stroke:#181818;stroke-width:0.5;" width="96.7422" x="1220.6631" y="1656.7422"/><text fill="#000000" font-family="sans-serif" font-size="14" lengthAdjust="spacing" textLength="63.54" x="1237.2642" y="1677.2773">Key Vault</text><text fill="#000000" font-family="sans-serif" font-size="14" lengthAdjust="spacing" textLength="38.5752" x="1249.7466" y="1693.7656">Slot Y</text><text fill="#000000" font-family="sans-serif" font-size="14" lengthAdjust="spacing" textLength="82.7422" x="1227.6631" y="1710.2539">(Temporary)</text><rect fill="#E2E2F0" height="63.4648" rx="2.5" ry="2.5" style="stroke:#181818;stroke-width:0.5;" width="96.7422" x="1327.4053" y="1656.7422"/><text fill="#000000" font-family="sans-serif" font-size="14" lengthAdjust="spacing" textLength="63.54" x="1344.0063" y="1677.2773">Key Vault</text><text fill="#000000" font-family="sans-serif" font-size="14" lengthAdjust="spacing" textLength="38.3154" x="1356.6187" y="1693.7656">Slot Z</text><text fill="#000000" font-family="sans-serif" font-size="14" lengthAdjust="spacing" textLength="82.7422" x="1334.4053" y="1710.2539">(Temporary)</text><path d="M10,153.041 L10,285.041 L1445,285.041 L1445,163.041 L1435,153.041 L10,153.041 " fill="#FEFFDD" style="stroke:#181818;stroke-width:0.5;"/><path d="M1435,153.041 L1435,163.041 L1445,163.041 L1435,153.041 " fill="#FEFFDD" style="stroke:#181818;stroke-width:0.5;"/><text fill="#000000" font-family="sans-serif" font-size="13" font-weight="bold" lengthAdjust="spacing" textLength="94.999" x="16" y="170.6094">Preconditions:</text><ellipse cx="21.5" cy="181.1621" fill="#000000" rx="2.5" ry="2.5"/><text fill="#000000" font-family="sans-serif" font-size="13" lengthAdjust="spacing" textLength="377.8188" x="28" y="185.9199">Ephemeral PMEK encryption key is stored in Key Vault slot B</text><ellipse cx="21.5" cy="196.4727" fill="#000000" rx="2.5" ry="2.5"/><text fill="#000000" font-family="sans-serif" font-size="13" lengthAdjust="spacing" textLength="548.4565" x="28" y="201.2305">The following sequence has occurred prior: Initialize MEK then zero or more MIX_PMEK</text><text fill="#000000" font-family="sans-serif" font-size="13" lengthAdjust="spacing" textLength="4.1133" x="16" y="216.541">&#160;</text><text fill="#000000" font-family="sans-serif" font-size="13" font-weight="bold" lengthAdjust="spacing" textLength="41.7422" x="16" y="231.8516">Notes:</text><text fill="#000000" font-family="sans-serif" font-size="13" lengthAdjust="spacing" textLength="1406.4312" x="24.2266" y="247.1621">* The sequence diagram assumes that the KV will not allow an input KV slot to also be used as an out KV slot. Caliptra FW is responsible for managing which KV slots are used and can adapt if this assumption is not correct.</text><text fill="#000000" font-family="sans-serif" font-size="13" lengthAdjust="spacing" textLength="480.8032" x="24.2266" y="262.4727">* This sequence is focused on successful execution of operations by the KV.</text><text fill="#000000" font-family="sans-serif" font-size="13" lengthAdjust="spacing" textLength="4.1133" x="16" y="277.7832">&#160;</text><line style="stroke:#008000;stroke-width:1;" x1="205.9268" x2="195.9268" y1="311.8359" y2="307.8359"/><line style="stroke:#008000;stroke-width:1;" x1="205.9268" x2="195.9268" y1="311.8359" y2="315.8359"/><line style="stroke:#008000;stroke-width:1;" x1="79.8813" x2="206.9268" y1="311.8359" y2="311.8359"/><text fill="#000000" font-family="sans-serif" font-size="13" font-weight="bold" lengthAdjust="spacing" textLength="35.3628" x="86.8813" y="307.0938">[001]</text><text fill="#000000" font-family="sans-serif" font-size="13" lengthAdjust="spacing" textLength="63.4956" x="126.2441" y="307.0938">MIX_PMEK</text><path d="M222.9268,324.8359 L222.9268,399.8359 L588.9268,399.8359 L588.9268,334.8359 L578.9268,324.8359 L222.9268,324.8359 " fill="#FEFFDD" style="stroke:#181818;stroke-width:0.5;"/><path d="M578.9268,324.8359 L578.9268,334.8359 L588.9268,334.8359 L578.9268,324.8359 " fill="#FEFFDD" style="stroke:#181818;stroke-width:0.5;"/><text fill="#000000" font-family="sans-serif" font-size="13" lengthAdjust="spacing" textLength="4.1133" x="228.9268" y="344.4043">&#160;</text><text fill="#000000" font-family="sans-serif" font-size="13" font-weight="bold" lengthAdjust="spacing" textLength="32.1509" x="233.04" y="344.4043">Field</text><text fill="#000000" font-family="sans-serif" font-size="13" lengthAdjust="spacing" textLength="4.1133" x="313.5283" y="344.4043">&#160;</text><text fill="#000000" font-family="sans-serif" font-size="13" font-weight="bold" lengthAdjust="spacing" textLength="26.9521" x="317.6416" y="344.4043">Size</text><text fill="#000000" font-family="sans-serif" font-size="13" lengthAdjust="spacing" textLength="4.1133" x="384.2349" y="344.4043">&#160;</text><text fill="#000000" font-family="sans-serif" font-size="13" font-weight="bold" lengthAdjust="spacing" textLength="66.644" x="388.3481" y="344.4043">Definition</text><text fill="#000000" font-family="sans-serif" font-size="13" lengthAdjust="spacing" textLength="49.1563" x="233.04" y="359.7148">chksum</text><text fill="#000000" font-family="sans-serif" font-size="13" lengthAdjust="spacing" textLength="24.5083" x="317.6416" y="359.7148">u32</text><text fill="#000000" font-family="sans-serif" font-size="13" lengthAdjust="spacing" textLength="78.0254" x="388.3481" y="359.7148">Little endian</text><text fill="#000000" font-family="sans-serif" font-size="13" lengthAdjust="spacing" textLength="76.375" x="233.04" y="375.0254">ready_pmek</text><text fill="#000000" font-family="sans-serif" font-size="13" lengthAdjust="spacing" textLength="62.48" x="317.6416" y="375.0254">512 bytes</text><text fill="#000000" font-family="sans-serif" font-size="13" lengthAdjust="spacing" textLength="142.3081" x="388.3481" y="375.0254">Ready encrypted PMEK</text><text fill="#000000" font-family="sans-serif" font-size="13" lengthAdjust="spacing" textLength="182.0762" x="388.3481" y="390.3359">* PMEK Algorithm embedded</text><line style="stroke:#000000;stroke-width:0.5;" x1="228.9268" x2="574.5376" y1="331.8359" y2="331.8359"/><line style="stroke:#000000;stroke-width:0.5;" x1="228.9268" x2="574.5376" y1="347.1465" y2="347.1465"/><line style="stroke:#000000;stroke-width:0.5;" x1="228.9268" x2="574.5376" y1="362.457" y2="362.457"/><line style="stroke:#000000;stroke-width:0.5;" x1="228.9268" x2="574.5376" y1="393.0781" y2="393.0781"/><line style="stroke:#000000;stroke-width:0.5;" x1="228.9268" x2="228.9268" y1="331.8359" y2="393.0781"/><line style="stroke:#000000;stroke-width:0.5;" x1="313.5283" x2="313.5283" y1="331.8359" y2="393.0781"/><line style="stroke:#000000;stroke-width:0.5;" x1="384.2349" x2="384.2349" y1="331.8359" y2="393.0781"/><line style="stroke:#000000;stroke-width:0.5;" x1="574.5376" x2="574.5376" y1="331.8359" y2="393.0781"/><line style="stroke:#008000;stroke-width:1;" x1="367.249" x2="357.249" y1="426.3887" y2="422.3887"/><line style="stroke:#008000;stroke-width:1;" x1="367.249" x2="357.249" y1="426.3887" y2="430.3887"/><line style="stroke:#008000;stroke-width:1;" x1="217.9268" x2="368.249" y1="426.3887" y2="426.3887"/><text fill="#000000" font-family="sans-serif" font-size="13" font-weight="bold" lengthAdjust="spacing" textLength="35.3628" x="224.9268" y="421.6465">[002]</text><text fill="#000000" font-family="sans-serif" font-size="13" lengthAdjust="spacing" textLength="64.6826" x="264.2896" y="421.6465">Command</text><polygon fill="#FF0000" points="228.9268,451.6992,218.9268,455.6992,228.9268,459.6992,224.9268,455.6992" style="stroke:#FF0000;stroke-width:1;"/><line style="stroke:#FF0000;stroke-width:1;" x1="222.9268" x2="368.249" y1="455.6992" y2="455.6992"/><text fill="#000000" font-family="sans-serif" font-size="13" font-weight="bold" lengthAdjust="spacing" textLength="35.3628" x="234.9268" y="450.957">[003]</text><text fill="#000000" font-family="sans-serif" font-size="13" lengthAdjust="spacing" textLength="87.9595" x="274.2896" y="450.957">Get command</text><line style="stroke:#FF0000;stroke-width:1;" x1="379.249" x2="421.249" y1="485.0098" y2="485.0098"/><line style="stroke:#FF0000;stroke-width:1;" x1="421.249" x2="421.249" y1="485.0098" y2="498.0098"/><line style="stroke:#FF0000;stroke-width:1;" x1="380.249" x2="421.249" y1="498.0098" y2="498.0098"/><polygon fill="#FF0000" points="390.249,494.0098,380.249,498.0098,390.249,502.0098,386.249,498.0098" style="stroke:#FF0000;stroke-width:1;"/><text fill="#000000" font-family="sans-serif" font-size="13" font-weight="bold" lengthAdjust="spacing" textLength="35.3628" x="386.249" y="480.2676">[004]</text><text fill="#000000" font-family="sans-serif" font-size="13" lengthAdjust="spacing" textLength="132.0693" x="425.6118" y="480.2676">Determine command</text><path d="M31.1987,510.0098 L93.3374,510.0098 L93.3374,517.3203 L83.3374,527.3203 L31.1987,527.3203 L31.1987,510.0098 " fill="#EEEEEE" style="stroke:#000000;stroke-width:1.5;"/><rect fill="transparent" height="1008.1797" style="stroke:#000000;stroke-width:1.5;" width="1365.5776" x="31.1987" y="510.0098"/><text fill="#000000" font-family="sans-serif" font-size="13" font-weight="bold" lengthAdjust="spacing" textLength="17.1387" x="46.1987" y="523.5781">alt</text><text fill="#000000" font-family="sans-serif" font-size="11" font-weight="bold" lengthAdjust="spacing" textLength="142.1514" x="108.3374" y="522.6445">[Storage Root Key exists]</text><path d="M358.249,541.3203 L420.3877,541.3203 L420.3877,548.6309 L410.3877,558.6309 L358.249,558.6309 L358.249,541.3203 " fill="#EEEEEE" style="stroke:#000000;stroke-width:1.5;"/><rect fill="transparent" height="217.4844" style="stroke:#000000;stroke-width:1.5;" width="824.2778" x="358.249" y="541.3203"/><text fill="#000000" font-family="sans-serif" font-size="13" font-weight="bold" lengthAdjust="spacing" textLength="17.1387" x="373.249" y="554.8887">alt</text><text fill="#000000" font-family="sans-serif" font-size="11" font-weight="bold" lengthAdjust="spacing" textLength="338.4165" x="435.3877" y="553.9551">[MEK is not initialized (i.e., no PMEK has yet been included)]</text><polygon fill="#FF0000" points="657.1299,616.5625,667.1299,620.5625,657.1299,624.5625,661.1299,620.5625" style="stroke:#FF0000;stroke-width:1;"/><line style="stroke:#FF0000;stroke-width:1;" x1="379.249" x2="663.1299" y1="620.5625" y2="620.5625"/><text fill="#000000" font-family="sans-serif" font-size="13" font-weight="bold" lengthAdjust="spacing" textLength="35.3628" x="386.249" y="600.5098">[005]</text><text fill="#000000" font-family="sans-serif" font-size="13" lengthAdjust="spacing" textLength="139.1533" x="425.6118" y="585.1992">HMAC512(Key: Slot A,</text><text fill="#000000" font-family="sans-serif" font-size="13" lengthAdjust="spacing" textLength="138.1567" x="491.4243" y="600.5098">Key Data: "MEK Seed",</text><text fill="#000000" font-family="sans-serif" font-size="13" lengthAdjust="spacing" textLength="120.4595" x="491.4243" y="615.8203">Destination: Slot X)</text><polygon fill="#FF0000" points="915.6196,645.873,925.6196,649.873,915.6196,653.873,919.6196,649.873" style="stroke:#FF0000;stroke-width:1;"/><line style="stroke:#FF0000;stroke-width:1;" x1="679.1299" x2="921.6196" y1="649.873" y2="649.873"/><text fill="#000000" font-family="sans-serif" font-size="13" font-weight="bold" lengthAdjust="spacing" textLength="35.3628" x="686.1299" y="645.1309">[006]</text><text fill="#000000" font-family="sans-serif" font-size="13" lengthAdjust="spacing" textLength="133.1104" x="725.4927" y="645.1309">Get Storage Root Key</text><line style="stroke:#FF0000;stroke-width:1;" x1="679.1299" x2="721.1299" y1="679.1836" y2="679.1836"/><line style="stroke:#FF0000;stroke-width:1;" x1="721.1299" x2="721.1299" y1="679.1836" y2="692.1836"/><line style="stroke:#FF0000;stroke-width:1;" x1="680.1299" x2="721.1299" y1="692.1836" y2="692.1836"/><polygon fill="#FF0000" points="690.1299,688.1836,680.1299,692.1836,690.1299,696.1836,686.1299,692.1836" style="stroke:#FF0000;stroke-width:1;"/><text fill="#000000" font-family="sans-serif" font-size="13" font-weight="bold" lengthAdjust="spacing" textLength="35.3628" x="686.1299" y="674.4414">[007]</text><text fill="#000000" font-family="sans-serif" font-size="13" lengthAdjust="spacing" textLength="167.6924" x="725.4927" y="674.4414">HMAC512 slot A with Data</text><polygon fill="#FF0000" points="1149.5269,717.4941,1159.5269,721.4941,1149.5269,725.4941,1153.5269,721.4941" style="stroke:#FF0000;stroke-width:1;"/><line style="stroke:#FF0000;stroke-width:1;" x1="679.1299" x2="1155.5269" y1="721.4941" y2="721.4941"/><text fill="#000000" font-family="sans-serif" font-size="13" font-weight="bold" lengthAdjust="spacing" textLength="35.3628" x="686.1299" y="716.752">[008]</text><text fill="#000000" font-family="sans-serif" font-size="13" lengthAdjust="spacing" textLength="310.4194" x="725.4927" y="716.752">HMAC512 result MEK Seed with Storage Root Key</text><polygon fill="#FF0000" points="390.249,746.8047,380.249,750.8047,390.249,754.8047,386.249,750.8047" style="stroke:#FF0000;stroke-width:1;"/><line style="stroke:#FF0000;stroke-width:1;" x1="384.249" x2="668.1299" y1="750.8047" y2="750.8047"/><text fill="#000000" font-family="sans-serif" font-size="13" font-weight="bold" lengthAdjust="spacing" textLength="35.3628" x="396.249" y="746.0625">[009]</text><text fill="#000000" font-family="sans-serif" font-size="13" lengthAdjust="spacing" textLength="31.478" x="435.6118" y="746.0625">done</text><line style="stroke:#FF0000;stroke-width:1;" x1="379.249" x2="421.249" y1="794.1152" y2="794.1152"/><line style="stroke:#FF0000;stroke-width:1;" x1="421.249" x2="421.249" y1="794.1152" y2="807.1152"/><line style="stroke:#FF0000;stroke-width:1;" x1="380.249" x2="421.249" y1="807.1152" y2="807.1152"/><polygon fill="#FF0000" points="390.249,803.1152,380.249,807.1152,390.249,811.1152,386.249,807.1152" style="stroke:#FF0000;stroke-width:1;"/><text fill="#000000" font-family="sans-serif" font-size="13" font-weight="bold" lengthAdjust="spacing" textLength="35.3628" x="386.249" y="789.373">[010]</text><text fill="#000000" font-family="sans-serif" font-size="13" lengthAdjust="spacing" textLength="240.9951" x="425.6118" y="789.373">Determine Temporary slox Y for PMEK</text><polygon fill="#FF0000" points="657.1299,863.0469,667.1299,867.0469,657.1299,871.0469,661.1299,867.0469" style="stroke:#FF0000;stroke-width:1;"/><line style="stroke:#FF0000;stroke-width:1;" x1="379.249" x2="663.1299" y1="867.0469" y2="867.0469"/><text fill="#000000" font-family="sans-serif" font-size="13" font-weight="bold" lengthAdjust="spacing" textLength="35.3628" x="386.249" y="846.9941">[011]</text><text fill="#000000" font-family="sans-serif" font-size="13" lengthAdjust="spacing" textLength="151.0806" x="425.6118" y="831.6836">Key_Unwrap(Key:  SlotB,</text><text fill="#000000" font-family="sans-serif" font-size="13" lengthAdjust="spacing" textLength="144.3076" x="503.7642" y="846.9941">Key Data: ready_pmek,</text><text fill="#000000" font-family="sans-serif" font-size="13" lengthAdjust="spacing" textLength="120.4214" x="503.7642" y="862.3047">Destination Slot: Y)</text><polygon fill="#FF0000" points="1042.7231,892.3574,1052.7231,896.3574,1042.7231,900.3574,1046.7231,896.3574" style="stroke:#FF0000;stroke-width:1;"/><line style="stroke:#FF0000;stroke-width:1;" x1="679.1299" x2="1048.7231" y1="896.3574" y2="896.3574"/><text fill="#000000" font-family="sans-serif" font-size="13" font-weight="bold" lengthAdjust="spacing" textLength="35.3628" x="686.1299" y="891.6152">[012]</text><text fill="#000000" font-family="sans-serif" font-size="13" lengthAdjust="spacing" textLength="226.8081" x="725.4927" y="891.6152">Get ephemeral PMEK encryption key</text><line style="stroke:#FF0000;stroke-width:1;" x1="679.1299" x2="721.1299" y1="925.668" y2="925.668"/><line style="stroke:#FF0000;stroke-width:1;" x1="721.1299" x2="721.1299" y1="925.668" y2="938.668"/><line style="stroke:#FF0000;stroke-width:1;" x1="680.1299" x2="721.1299" y1="938.668" y2="938.668"/><polygon fill="#FF0000" points="690.1299,934.668,680.1299,938.668,690.1299,942.668,686.1299,938.668" style="stroke:#FF0000;stroke-width:1;"/><text fill="#000000" font-family="sans-serif" font-size="13" font-weight="bold" lengthAdjust="spacing" textLength="35.3628" x="686.1299" y="920.9258">[013]</text><text fill="#000000" font-family="sans-serif" font-size="13" lengthAdjust="spacing" textLength="157.2822" x="725.4927" y="920.9258">Key_Unwrap ready_pmek</text><polygon fill="#FF0000" points="1252.0342,963.9785,1262.0342,967.9785,1252.0342,971.9785,1256.0342,967.9785" style="stroke:#FF0000;stroke-width:1;"/><line style="stroke:#FF0000;stroke-width:1;" x1="679.1299" x2="1258.0342" y1="967.9785" y2="967.9785"/><text fill="#000000" font-family="sans-serif" font-size="13" font-weight="bold" lengthAdjust="spacing" textLength="35.3628" x="686.1299" y="963.2363">[014]</text><text fill="#000000" font-family="sans-serif" font-size="13" lengthAdjust="spacing" textLength="58.1445" x="725.4927" y="963.2363">Put PMEK</text><polygon fill="#FF0000" points="390.249,993.2891,380.249,997.2891,390.249,1001.2891,386.249,997.2891" style="stroke:#FF0000;stroke-width:1;"/><line style="stroke:#FF0000;stroke-width:1;" x1="384.249" x2="668.1299" y1="997.2891" y2="997.2891"/><text fill="#000000" font-family="sans-serif" font-size="13" font-weight="bold" lengthAdjust="spacing" textLength="35.3628" x="396.249" y="992.5469">[015]</text><text fill="#000000" font-family="sans-serif" font-size="13" lengthAdjust="spacing" textLength="31.478" x="435.6118" y="992.5469">done</text><polygon fill="#FF0000" points="657.1299,1053.2207,667.1299,1057.2207,657.1299,1061.2207,661.1299,1057.2207" style="stroke:#FF0000;stroke-width:1;"/><line style="stroke:#FF0000;stroke-width:1;" x1="379.249" x2="663.1299" y1="1057.2207" y2="1057.2207"/><text fill="#000000" font-family="sans-serif" font-size="13" font-weight="bold" lengthAdjust="spacing" textLength="35.3628" x="386.249" y="1037.168">[016]</text><text fill="#000000" font-family="sans-serif" font-size="13" lengthAdjust="spacing" textLength="142.4351" x="425.6118" y="1021.8574">HMAC512(Key : Slot X,</text><text fill="#000000" font-family="sans-serif" font-size="13" lengthAdjust="spacing" textLength="158.2471" x="491.4243" y="1037.168">Data String : "PMEK mix",</text><text fill="#000000" font-family="sans-serif" font-size="13" lengthAdjust="spacing" textLength="124.2935" x="491.4243" y="1052.4785">Destination : Slot Z)</text><polygon fill="#FF0000" points="1149.5269,1082.5313,1159.5269,1086.5313,1149.5269,1090.5313,1153.5269,1086.5313" style="stroke:#FF0000;stroke-width:1;"/><line style="stroke:#FF0000;stroke-width:1;" x1="679.1299" x2="1155.5269" y1="1086.5313" y2="1086.5313"/><text fill="#000000" font-family="sans-serif" font-size="13" font-weight="bold" lengthAdjust="spacing" textLength="35.3628" x="686.1299" y="1081.7891">[017]</text><text fill="#000000" font-family="sans-serif" font-size="13" lengthAdjust="spacing" textLength="86.125" x="725.4927" y="1081.7891">Get MEK Seed</text><line style="stroke:#FF0000;stroke-width:1;" x1="679.1299" x2="721.1299" y1="1115.8418" y2="1115.8418"/><line style="stroke:#FF0000;stroke-width:1;" x1="721.1299" x2="721.1299" y1="1115.8418" y2="1128.8418"/><line style="stroke:#FF0000;stroke-width:1;" x1="680.1299" x2="721.1299" y1="1128.8418" y2="1128.8418"/><polygon fill="#FF0000" points="690.1299,1124.8418,680.1299,1128.8418,690.1299,1132.8418,686.1299,1128.8418" style="stroke:#FF0000;stroke-width:1;"/><text fill="#000000" font-family="sans-serif" font-size="13" font-weight="bold" lengthAdjust="spacing" textLength="35.3628" x="686.1299" y="1111.0996">[018]</text><text fill="#000000" font-family="sans-serif" font-size="13" lengthAdjust="spacing" textLength="195.127" x="725.4927" y="1111.0996">HMAC512 Key with Data String</text><polygon fill="#FF0000" points="1358.7764,1154.1523,1368.7764,1158.1523,1358.7764,1162.1523,1362.7764,1158.1523" style="stroke:#FF0000;stroke-width:1;"/><line style="stroke:#FF0000;stroke-width:1;" x1="679.1299" x2="1364.7764" y1="1158.1523" y2="1158.1523"/><text fill="#000000" font-family="sans-serif" font-size="13" font-weight="bold" lengthAdjust="spacing" textLength="35.3628" x="686.1299" y="1153.4102">[019]</text><text fill="#000000" font-family="sans-serif" font-size="13" lengthAdjust="spacing" textLength="207.8857" x="725.4927" y="1153.4102">HMAC512 result Temp MEK Seed</text><polygon fill="#FF0000" points="390.249,1183.4629,380.249,1187.4629,390.249,1191.4629,386.249,1187.4629" style="stroke:#FF0000;stroke-width:1;"/><line style="stroke:#FF0000;stroke-width:1;" x1="384.249" x2="668.1299" y1="1187.4629" y2="1187.4629"/><text fill="#000000" font-family="sans-serif" font-size="13" font-weight="bold" lengthAdjust="spacing" textLength="35.3628" x="396.249" y="1182.7207">[020]</text><text fill="#000000" font-family="sans-serif" font-size="13" lengthAdjust="spacing" textLength="31.478" x="435.6118" y="1182.7207">done</text><polygon fill="#FF0000" points="657.1299,1243.3945,667.1299,1247.3945,657.1299,1251.3945,661.1299,1247.3945" style="stroke:#FF0000;stroke-width:1;"/><line style="stroke:#FF0000;stroke-width:1;" x1="379.249" x2="663.1299" y1="1247.3945" y2="1247.3945"/><text fill="#000000" font-family="sans-serif" font-size="13" font-weight="bold" lengthAdjust="spacing" textLength="35.3628" x="386.249" y="1227.3418">[021]</text><text fill="#000000" font-family="sans-serif" font-size="13" lengthAdjust="spacing" textLength="178.8896" x="425.6118" y="1212.0313">HMAC512_Slots(Key : Slot Z,</text><text fill="#000000" font-family="sans-serif" font-size="13" lengthAdjust="spacing" textLength="107.8657" x="528.4438" y="1227.3418">Data Key  : Slot Y</text><text fill="#000000" font-family="sans-serif" font-size="13" lengthAdjust="spacing" textLength="128.686" x="528.4438" y="1242.6523">Destination : Slot: X)</text><polygon fill="#FF0000" points="1358.7764,1272.7051,1368.7764,1276.7051,1358.7764,1280.7051,1362.7764,1276.7051" style="stroke:#FF0000;stroke-width:1;"/><line style="stroke:#FF0000;stroke-width:1;" x1="679.1299" x2="1364.7764" y1="1276.7051" y2="1276.7051"/><text fill="#000000" font-family="sans-serif" font-size="13" font-weight="bold" lengthAdjust="spacing" textLength="35.3628" x="686.1299" y="1271.9629">[022]</text><text fill="#000000" font-family="sans-serif" font-size="13" lengthAdjust="spacing" textLength="126.02" x="725.4927" y="1271.9629">Get Temp MEK Seed</text><polygon fill="#FF0000" points="1252.0342,1302.0156,1262.0342,1306.0156,1252.0342,1310.0156,1256.0342,1306.0156" style="stroke:#FF0000;stroke-width:1;"/><line style="stroke:#FF0000;stroke-width:1;" x1="679.1299" x2="1258.0342" y1="1306.0156" y2="1306.0156"/><text fill="#000000" font-family="sans-serif" font-size="13" font-weight="bold" lengthAdjust="spacing" textLength="35.3628" x="686.1299" y="1301.2734">[023]</text><text fill="#000000" font-family="sans-serif" font-size="13" lengthAdjust="spacing" textLength="59.5283" x="725.4927" y="1301.2734">Get PMEK</text><line style="stroke:#FF0000;stroke-width:1;" x1="679.1299" x2="721.1299" y1="1335.3262" y2="1335.3262"/><line style="stroke:#FF0000;stroke-width:1;" x1="721.1299" x2="721.1299" y1="1335.3262" y2="1348.3262"/><line style="stroke:#FF0000;stroke-width:1;" x1="680.1299" x2="721.1299" y1="1348.3262" y2="1348.3262"/><polygon fill="#FF0000" points="690.1299,1344.3262,680.1299,1348.3262,690.1299,1352.3262,686.1299,1348.3262" style="stroke:#FF0000;stroke-width:1;"/><text fill="#000000" font-family="sans-serif" font-size="13" font-weight="bold" lengthAdjust="spacing" textLength="35.3628" x="686.1299" y="1330.584">[024]</text><text fill="#000000" font-family="sans-serif" font-size="13" lengthAdjust="spacing" textLength="177.2583" x="725.4927" y="1330.584">HMAC512 Key and Data Key</text><polygon fill="#FF0000" points="1149.5269,1373.6367,1159.5269,1377.6367,1149.5269,1381.6367,1153.5269,1377.6367" style="stroke:#FF0000;stroke-width:1;"/><line style="stroke:#FF0000;stroke-width:1;" x1="679.1299" x2="1155.5269" y1="1377.6367" y2="1377.6367"/><text fill="#000000" font-family="sans-serif" font-size="13" font-weight="bold" lengthAdjust="spacing" textLength="35.3628" x="686.1299" y="1372.8945">[025]</text><text fill="#000000" font-family="sans-serif" font-size="13" lengthAdjust="spacing" textLength="292.8491" x="725.4927" y="1372.8945">HMAC512 result MEK Seed updated with PMEK</text><polygon fill="#FF0000" points="390.249,1402.9473,380.249,1406.9473,390.249,1410.9473,386.249,1406.9473" style="stroke:#FF0000;stroke-width:1;"/><line style="stroke:#FF0000;stroke-width:1;" x1="384.249" x2="668.1299" y1="1406.9473" y2="1406.9473"/><text fill="#000000" font-family="sans-serif" font-size="13" font-weight="bold" lengthAdjust="spacing" textLength="35.3628" x="396.249" y="1402.2051">[026]</text><text fill="#000000" font-family="sans-serif" font-size="13" lengthAdjust="spacing" textLength="31.478" x="435.6118" y="1402.2051">done</text><polygon fill="#FF0000" points="657.1299,1447.5684,667.1299,1451.5684,657.1299,1455.5684,661.1299,1451.5684" style="stroke:#FF0000;stroke-width:1;"/><line style="stroke:#FF0000;stroke-width:1;" x1="379.249" x2="663.1299" y1="1451.5684" y2="1451.5684"/><text fill="#000000" font-family="sans-serif" font-size="13" font-weight="bold" lengthAdjust="spacing" textLength="35.3628" x="386.249" y="1439.1709">[027]</text><text fill="#000000" font-family="sans-serif" font-size="13" lengthAdjust="spacing" textLength="138.9629" x="425.6118" y="1431.5156">Purge_key(Key: Slot Y,</text><text fill="#000000" font-family="sans-serif" font-size="13" lengthAdjust="spacing" textLength="74.6675" x="491.4243" y="1446.8262">Key : Slot Z)</text><polygon fill="#FF0000" points="1252.0342,1476.8789,1262.0342,1480.8789,1252.0342,1484.8789,1256.0342,1480.8789" style="stroke:#FF0000;stroke-width:1;"/><line style="stroke:#FF0000;stroke-width:1;" x1="679.1299" x2="1258.0342" y1="1480.8789" y2="1480.8789"/><text fill="#000000" font-family="sans-serif" font-size="13" font-weight="bold" lengthAdjust="spacing" textLength="35.3628" x="686.1299" y="1476.1367">[028]</text><text fill="#000000" font-family="sans-serif" font-size="13" lengthAdjust="spacing" textLength="35.9214" x="725.4927" y="1476.1367">Purge</text><polygon fill="#FF0000" points="1358.7764,1476.8789,1368.7764,1480.8789,1358.7764,1484.8789,1362.7764,1480.8789" style="stroke:#FF0000;stroke-width:1;"/><line style="stroke:#FF0000;stroke-width:1;" x1="679.1299" x2="1364.7764" y1="1480.8789" y2="1480.8789"/><text fill="#000000" font-family="sans-serif" font-size="13" font-weight="bold" lengthAdjust="spacing" textLength="35.3628" x="686.1299" y="1476.1367">[029]</text><text fill="#000000" font-family="sans-serif" font-size="13" lengthAdjust="spacing" textLength="4.1133" x="725.4927" y="1476.1367">&#160;</text><polygon fill="#FF0000" points="390.249,1506.1895,380.249,1510.1895,390.249,1514.1895,386.249,1510.1895" style="stroke:#FF0000;stroke-width:1;"/><line style="stroke:#FF0000;stroke-width:1;" x1="384.249" x2="668.1299" y1="1510.1895" y2="1510.1895"/><text fill="#000000" font-family="sans-serif" font-size="13" font-weight="bold" lengthAdjust="spacing" textLength="35.3628" x="396.249" y="1505.4473">[030]</text><text fill="#000000" font-family="sans-serif" font-size="13" lengthAdjust="spacing" textLength="31.478" x="435.6118" y="1505.4473">done</text><line style="stroke:#008000;stroke-width:1;" x1="213.9268" x2="223.9268" y1="1568.8105" y2="1564.8105"/><line style="stroke:#008000;stroke-width:1;" x1="213.9268" x2="223.9268" y1="1568.8105" y2="1572.8105"/><line style="stroke:#008000;stroke-width:1;" x1="212.9268" x2="368.249" y1="1568.8105" y2="1568.8105"/><text fill="#000000" font-family="sans-serif" font-size="13" font-weight="bold" lengthAdjust="spacing" textLength="35.3628" x="229.9268" y="1556.4131">[031]</text><text fill="#000000" font-family="sans-serif" font-size="13" lengthAdjust="spacing" textLength="64.6826" x="269.2896" y="1548.7578">Command</text><text fill="#000000" font-family="sans-serif" font-size="13" lengthAdjust="spacing" textLength="57.2939" x="269.2896" y="1564.0684">response</text><line style="stroke:#008000;stroke-width:1;" x1="85.8813" x2="95.8813" y1="1568.8105" y2="1564.8105"/><line style="stroke:#008000;stroke-width:1;" x1="85.8813" x2="95.8813" y1="1568.8105" y2="1572.8105"/><line style="stroke:#008000;stroke-width:1;" x1="84.8813" x2="211.9268" y1="1568.8105" y2="1568.8105"/><text fill="#000000" font-family="sans-serif" font-size="13" font-weight="bold" lengthAdjust="spacing" textLength="35.3628" x="101.8813" y="1556.4131">[032]</text><text fill="#000000" font-family="sans-serif" font-size="13" lengthAdjust="spacing" textLength="64.6826" x="141.2441" y="1548.7578">Command</text><text fill="#000000" font-family="sans-serif" font-size="13" lengthAdjust="spacing" textLength="58.0684" x="141.2441" y="1564.0684">complete</text><path d="M217.9268,1581.8105 L217.9268,1640.8105 L707.9268,1640.8105 L707.9268,1591.8105 L697.9268,1581.8105 L217.9268,1581.8105 " fill="#FEFFDD" style="stroke:#181818;stroke-width:0.5;"/><path d="M697.9268,1581.8105 L697.9268,1591.8105 L707.9268,1591.8105 L697.9268,1581.8105 " fill="#FEFFDD" style="stroke:#181818;stroke-width:0.5;"/><text fill="#000000" font-family="sans-serif" font-size="13" lengthAdjust="spacing" textLength="4.1133" x="223.9268" y="1601.3789">&#160;</text><text fill="#000000" font-family="sans-serif" font-size="13" font-weight="bold" lengthAdjust="spacing" textLength="32.1509" x="228.04" y="1601.3789">Field</text><text fill="#000000" font-family="sans-serif" font-size="13" lengthAdjust="spacing" textLength="4.1133" x="297.7627" y="1601.3789">&#160;</text><text fill="#000000" font-family="sans-serif" font-size="13" font-weight="bold" lengthAdjust="spacing" textLength="26.9521" x="301.876" y="1601.3789">Size</text><text fill="#000000" font-family="sans-serif" font-size="13" lengthAdjust="spacing" textLength="4.1133" x="346.9507" y="1601.3789">&#160;</text><text fill="#000000" font-family="sans-serif" font-size="13" font-weight="bold" lengthAdjust="spacing" textLength="66.644" x="351.064" y="1601.3789">Definition</text><text fill="#000000" font-family="sans-serif" font-size="13" lengthAdjust="spacing" textLength="49.1563" x="228.04" y="1616.6895">chksum</text><text fill="#000000" font-family="sans-serif" font-size="13" lengthAdjust="spacing" textLength="24.5083" x="301.876" y="1616.6895">u32</text><text fill="#000000" font-family="sans-serif" font-size="13" lengthAdjust="spacing" textLength="78.0254" x="351.064" y="1616.6895">Little endian</text><text fill="#000000" font-family="sans-serif" font-size="13" lengthAdjust="spacing" textLength="68.0723" x="228.04" y="1632">fips_status</text><text fill="#000000" font-family="sans-serif" font-size="13" lengthAdjust="spacing" textLength="24.5083" x="301.876" y="1632">u32</text><text fill="#000000" font-family="sans-serif" font-size="13" lengthAdjust="spacing" textLength="338.4253" x="351.064" y="1632">Indicates if the command is FIPS approved or an error</text><line style="stroke:#000000;stroke-width:0.5;" x1="223.9268" x2="693.6025" y1="1588.8105" y2="1588.8105"/><line style="stroke:#000000;stroke-width:0.5;" x1="223.9268" x2="693.6025" y1="1604.1211" y2="1604.1211"/><line style="stroke:#000000;stroke-width:0.5;" x1="223.9268" x2="693.6025" y1="1619.4316" y2="1619.4316"/><line style="stroke:#000000;stroke-width:0.5;" x1="223.9268" x2="693.6025" y1="1634.7422" y2="1634.7422"/><line style="stroke:#000000;stroke-width:0.5;" x1="223.9268" x2="223.9268" y1="1588.8105" y2="1634.7422"/><line style="stroke:#000000;stroke-width:0.5;" x1="297.7627" x2="297.7627" y1="1588.8105" y2="1634.7422"/><line style="stroke:#000000;stroke-width:0.5;" x1="346.9507" x2="346.9507" y1="1588.8105" y2="1634.7422"/><line style="stroke:#000000;stroke-width:0.5;" x1="693.6025" x2="693.6025" y1="1588.8105" y2="1634.7422"/><text fill="#888888" font-family="sans-serif" font-size="10" lengthAdjust="spacing" textLength="121.6797" x="708.6877" y="1740.875">Filename: mix_pmek.uml</text><!--SRC=[pLRRRjj647tdLum58xLhIqKJv4K80iYtLd2T6hRYne41OaKEnOL8BhExj2p37z-PvLKt1m7QednQScTdPyuvCvmzcGL94IAe8FSJ5Spzmih43EYpv-t920xsJQmMlfKsmKCFw9dm4dfNyWckhyulGMPM0IyCOjZpzZ0BPRHoEDSOg2miZsVA8eX0AsFSEpyVfX-lInjffShCyCClqu_DxizmdiUOeXP9UIDcWLxcR0bpN88qOApI658eS4aVxaIHM329id3IyJA94IAL96eXinb5-wqWHmYnC9HzK6Zsa6kfz1366GKY4lcCBZCROmRFg1Ke3IbT1LVZBpx7udLp-4IfhSLUtzlS5aenqo85OKoHeY7Nmh9_kBo3XKmInWS41maYeuJomlAMIuPm5ebHC4Ke30LBWPEDQYq6S4f1vrOBkFYBST5eSi9JJXDEdM8NcPXnzejO1d5zZDpescKMGa1EHIXo2qIXZScD2xO4dDuuma0HN84Th2NALDIPqZfIWVDAvqmH16XCL2I0JnWKpfcAGEN4goCTfiiAY469AWd9gQMHr4z0AkdZapIMSmY55LwAStDq1Fiddoykpc_yqUbaV3UQZF_yvEMxjpmlMi2-CCiiW7HADiCEeHtXYbnsHAlbBBPat-JymgHVI4p2-kMM5LEjpp2IcTCpl7IE1F6SmAnUYdTlcuq_fEN2ubp5wX6D8bpwd0-zlF_rBI55GgFr3M_KvK0uSm8F6J7XocIKp9IMDau1qoc68HcyR0SsdTPe1D72mN6gKj9Ak896QcP-BhGXx4jK0aQn0f7E_8QiY_8SRwVJVjyjzWqcqK6Fp7l7q3j3YpgL6TR6lKCA937O7ghZ4bJ6jrJQOePmeqXsNDsEVrDAX0rS3ofLAPko3U503d1mJ9zBCBZAbnJW597BoZMzgYEjfZ9_F3eQmkzNerD2-e0k7C8j5z_ec91TUpYSCrBXaDeXtN7B3N2BsHcoO9tAAsTVsfldZzN5HizB3DSptZITFpOHbfrXHBt3nYwMJMkkWzQUMa9HeSRnbWTtNjcXFrGP7dhTl9eR2Br-dnJ09ktHXjFMlX94kUquhlJelIgK2QOv1QYNdEqJtBjUnhIITBnjz54A_kTieKLUCkXGFzb2pGg9RPrjj-pmw1mEuRu4f04YBx5c5l6rVvQtGMSRSIUCLJDBA50krzJlNQVYJVTjUvDxbRxTrAtIrb1Mb-HtYWLgWMyh0mAPbAQvTrF5E5XI-VITYgazVbs3kaMwbhAtiqOuiAP0gX0siNtUA1BMtQfxP_S_mTjdN4mNzQ_RTTk1durhw_lNZ3S86DPDQnqpfc0Jg7NLibMZsfqayVXHn-dzG1ChSXe6wcRMNFFVi75Tw1dwLDITdyNzZf_53YqxZ61l3oflRlVD6jAq_-zavTgl5tH7edO2UCYg6HAzDz3E2QjZmaD6l_8yeNxz3unFFpmylJOwHJ8tlh725gPxO4oMWU0XoesupIZ2WyJ5-FeMH9vhzSYZg-OP6xMcnVRfoQ7j_Gq0]--></g></svg>