<svg xmlns="http://www.w3.org/2000/svg" xmlns:xlink="http://www.w3.org/1999/xlink" contentStyleType="text/css" data-diagram-type="SEQUENCE" height="1577px" preserveAspectRatio="none" style="width:1668px;height:1577px;background:#FFFFFF;" version="1.1" viewBox="0 0 1668 1577" width="1668px" zoomAndPan="magnify"><title>OCP L.O.C.K. Power On</title><defs/><g><rect fill="#DDDDDD" height="1497.1699" style="stroke:#181818;stroke-width:0.5;" width="1556.1255" x="99.3853" y="56.2656"/><text fill="#000000" font-family="sans-serif" font-size="13" font-weight="bold" lengthAdjust="spacing" textLength="52.7935" x="851.0513" y="68.834">Caliptra</text><text fill="#888888" font-family="sans-serif" font-size="10" lengthAdjust="spacing" textLength="46.0254" x="1614.4854" y="14.668">Version 1</text><text fill="#000000" font-family="sans-serif" font-size="14" font-weight="bold" lengthAdjust="spacing" textLength="162.2373" x="751.6367" y="41.3125">OCP L.O.C.K. Power On</text><g><title>ROM</title><rect fill="transparent" height="1131.7559" width="8" x="122.7788" y="140.041"/><line style="stroke:#181818;stroke-width:0.5;stroke-dasharray:5.0,5.0;" x1="126.2788" x2="126.2788" y1="140.041" y2="1271.7969"/></g><line style="stroke:#A80036;stroke-width:1;stroke-dasharray:1.0,4.0;" x1="126.2788" x2="126.2788" y1="1271.7969" y2="1299.7969"/><g><title>ROM</title><rect fill="transparent" height="183.1738" width="8" x="122.7788" y="1299.7969"/><line style="stroke:#181818;stroke-width:0.5;stroke-dasharray:5.0,5.0;" x1="126.2788" x2="126.2788" y1="1299.7969" y2="1482.9707"/></g><g><title/><rect fill="#FFFFFF" height="929.3398" style="stroke:#FFFFFF;stroke-width:1;" width="10" x="121.2788" y="342.457"/><line style="stroke:#181818;stroke-width:1;" x1="121.2788" x2="121.2788" y1="342.457" y2="1271.7969"/><line style="stroke:#181818;stroke-width:1;" x1="131.2788" x2="131.2788" y1="342.457" y2="1271.7969"/><line style="stroke:#181818;stroke-width:1;" x1="121.2788" x2="131.2788" y1="342.457" y2="342.457"/></g><g><title/><rect fill="#FFFFFF" height="21.3105" style="stroke:#FFFFFF;stroke-width:1;" width="10" x="121.2788" y="1299.7969"/><line style="stroke:#181818;stroke-width:1;" x1="121.2788" x2="121.2788" y1="1299.7969" y2="1321.1074"/><line style="stroke:#181818;stroke-width:1;" x1="131.2788" x2="131.2788" y1="1299.7969" y2="1321.1074"/><line style="stroke:#181818;stroke-width:1;" x1="121.2788" x2="131.2788" y1="1321.1074" y2="1321.1074"/></g><g><title>FW</title><rect fill="transparent" height="1131.7559" width="8" x="376.2813" y="140.041"/><line style="stroke:#181818;stroke-width:0.5;stroke-dasharray:5.0,5.0;" x1="379.7813" x2="379.7813" y1="140.041" y2="1271.7969"/></g><line style="stroke:#A80036;stroke-width:1;stroke-dasharray:1.0,4.0;" x1="379.7813" x2="379.7813" y1="1271.7969" y2="1299.7969"/><g><title>FW</title><rect fill="transparent" height="183.1738" width="8" x="376.2813" y="1299.7969"/><line style="stroke:#181818;stroke-width:0.5;stroke-dasharray:5.0,5.0;" x1="379.7813" x2="379.7813" y1="1299.7969" y2="1482.9707"/></g><g><title/><rect fill="#FFFFFF" height="156.8633" style="stroke:#181818;stroke-width:1;" width="10" x="374.7813" y="1321.1074"/></g><g><title>DRBG</title><rect fill="transparent" height="1131.7559" width="8" x="683.853" y="140.041"/><line style="stroke:#181818;stroke-width:0.5;stroke-dasharray:5.0,5.0;" x1="687.353" x2="687.353" y1="140.041" y2="1271.7969"/></g><line style="stroke:#A80036;stroke-width:1;stroke-dasharray:1.0,4.0;" x1="687.353" x2="687.353" y1="1271.7969" y2="1299.7969"/><g><title>DRBG</title><rect fill="transparent" height="183.1738" width="8" x="683.853" y="1299.7969"/><line style="stroke:#181818;stroke-width:0.5;stroke-dasharray:5.0,5.0;" x1="687.353" x2="687.353" y1="1299.7969" y2="1482.9707"/></g><g><title>Key Vault</title><rect fill="transparent" height="1131.7559" width="8" x="967.7441" y="140.041"/><line style="stroke:#181818;stroke-width:0.5;stroke-dasharray:5.0,5.0;" x1="971.2441" x2="971.2441" y1="140.041" y2="1271.7969"/></g><line style="stroke:#A80036;stroke-width:1;stroke-dasharray:1.0,4.0;" x1="971.2441" x2="971.2441" y1="1271.7969" y2="1299.7969"/><g><title>Key Vault</title><rect fill="transparent" height="183.1738" width="8" x="967.7441" y="1299.7969"/><line style="stroke:#181818;stroke-width:0.5;stroke-dasharray:5.0,5.0;" x1="971.2441" x2="971.2441" y1="1299.7969" y2="1482.9707"/></g><g><title/><rect fill="#FFFFFF" height="294.1289" style="stroke:#181818;stroke-width:1;" width="10" x="966.2441" y="415.0781"/></g><g><title/><rect fill="#FFFFFF" height="109.2422" style="stroke:#181818;stroke-width:1;" width="10" x="966.2441" y="855.4492"/></g><g><title/><rect fill="#FFFFFF" height="87.9316" style="stroke:#181818;stroke-width:1;" width="10" x="966.2441" y="1175.8652"/></g><g><title>Key Vault</title><rect fill="transparent" height="1131.7559" width="8" x="1228.1401" y="140.041"/><line style="stroke:#181818;stroke-width:0.5;stroke-dasharray:5.0,5.0;" x1="1231.6401" x2="1231.6401" y1="140.041" y2="1271.7969"/></g><line style="stroke:#A80036;stroke-width:1;stroke-dasharray:1.0,4.0;" x1="1231.6401" x2="1231.6401" y1="1271.7969" y2="1299.7969"/><g><title>Key Vault</title><rect fill="transparent" height="183.1738" width="8" x="1228.1401" y="1299.7969"/><line style="stroke:#181818;stroke-width:0.5;stroke-dasharray:5.0,5.0;" x1="1231.6401" x2="1231.6401" y1="1299.7969" y2="1482.9707"/></g><g><title/><rect fill="#ADD8E6" height="950.6504" style="stroke:#ADD8E6;stroke-width:1;" width="10" x="1226.6401" y="321.1465"/><line style="stroke:#181818;stroke-width:1;" x1="1226.6401" x2="1226.6401" y1="321.1465" y2="1271.7969"/><line style="stroke:#181818;stroke-width:1;" x1="1236.6401" x2="1236.6401" y1="321.1465" y2="1271.7969"/><line style="stroke:#181818;stroke-width:1;" x1="1226.6401" x2="1236.6401" y1="321.1465" y2="321.1465"/></g><g><title/><rect fill="#ADD8E6" height="183.1738" style="stroke:#ADD8E6;stroke-width:1;" width="10" x="1226.6401" y="1299.7969"/><line style="stroke:#181818;stroke-width:1;" x1="1226.6401" x2="1226.6401" y1="1299.7969" y2="1482.9707"/><line style="stroke:#181818;stroke-width:1;" x1="1236.6401" x2="1236.6401" y1="1299.7969" y2="1482.9707"/><line style="stroke:#181818;stroke-width:1;" x1="1226.6401" x2="1236.6401" y1="1482.9707" y2="1482.9707"/></g><g><title>Key Vault</title><rect fill="transparent" height="1131.7559" width="8" x="1346.3462" y="140.041"/><line style="stroke:#181818;stroke-width:0.5;stroke-dasharray:5.0,5.0;" x1="1349.8462" x2="1349.8462" y1="140.041" y2="1271.7969"/></g><line style="stroke:#A80036;stroke-width:1;stroke-dasharray:1.0,4.0;" x1="1349.8462" x2="1349.8462" y1="1271.7969" y2="1299.7969"/><g><title>Key Vault</title><rect fill="transparent" height="183.1738" width="8" x="1346.3462" y="1299.7969"/><line style="stroke:#181818;stroke-width:0.5;stroke-dasharray:5.0,5.0;" x1="1349.8462" x2="1349.8462" y1="1299.7969" y2="1482.9707"/></g><g><title/><rect fill="#ADD8E6" height="721.4766" style="stroke:#ADD8E6;stroke-width:1;" width="10" x="1344.8462" y="550.3203"/><line style="stroke:#181818;stroke-width:1;" x1="1344.8462" x2="1344.8462" y1="550.3203" y2="1271.7969"/><line style="stroke:#181818;stroke-width:1;" x1="1354.8462" x2="1354.8462" y1="550.3203" y2="1271.7969"/><line style="stroke:#181818;stroke-width:1;" x1="1344.8462" x2="1354.8462" y1="550.3203" y2="550.3203"/></g><g><title/><rect fill="#ADD8E6" height="183.1738" style="stroke:#ADD8E6;stroke-width:1;" width="10" x="1344.8462" y="1299.7969"/><line style="stroke:#181818;stroke-width:1;" x1="1344.8462" x2="1344.8462" y1="1299.7969" y2="1482.9707"/><line style="stroke:#181818;stroke-width:1;" x1="1354.8462" x2="1354.8462" y1="1299.7969" y2="1482.9707"/><line style="stroke:#181818;stroke-width:1;" x1="1344.8462" x2="1354.8462" y1="1482.9707" y2="1482.9707"/></g><g><title>Key Vault</title><rect fill="transparent" height="1131.7559" width="8" x="1478.4497" y="140.041"/><line style="stroke:#181818;stroke-width:0.5;stroke-dasharray:5.0,5.0;" x1="1481.9497" x2="1481.9497" y1="140.041" y2="1271.7969"/></g><line style="stroke:#A80036;stroke-width:1;stroke-dasharray:1.0,4.0;" x1="1481.9497" x2="1481.9497" y1="1271.7969" y2="1299.7969"/><g><title>Key Vault</title><rect fill="transparent" height="183.1738" width="8" x="1478.4497" y="1299.7969"/><line style="stroke:#181818;stroke-width:0.5;stroke-dasharray:5.0,5.0;" x1="1481.9497" x2="1481.9497" y1="1299.7969" y2="1482.9707"/></g><g><title/><rect fill="#ADD8E6" height="37.3105" style="stroke:#ADD8E6;stroke-width:1;" width="10" x="1476.9497" y="1234.4863"/><line style="stroke:#181818;stroke-width:1;" x1="1476.9497" x2="1476.9497" y1="1234.4863" y2="1271.7969"/><line style="stroke:#181818;stroke-width:1;" x1="1486.9497" x2="1486.9497" y1="1234.4863" y2="1271.7969"/><line style="stroke:#181818;stroke-width:1;" x1="1476.9497" x2="1486.9497" y1="1234.4863" y2="1234.4863"/></g><g><title/><rect fill="#ADD8E6" height="183.1738" style="stroke:#ADD8E6;stroke-width:1;" width="10" x="1476.9497" y="1299.7969"/><line style="stroke:#181818;stroke-width:1;" x1="1476.9497" x2="1476.9497" y1="1299.7969" y2="1482.9707"/><line style="stroke:#181818;stroke-width:1;" x1="1486.9497" x2="1486.9497" y1="1299.7969" y2="1482.9707"/><line style="stroke:#181818;stroke-width:1;" x1="1476.9497" x2="1486.9497" y1="1482.9707" y2="1482.9707"/></g><g><title>Key Vault</title><rect fill="transparent" height="1131.7559" width="8" x="1594.564" y="140.041"/><line style="stroke:#181818;stroke-width:0.5;stroke-dasharray:5.0,5.0;" x1="1598.064" x2="1598.064" y1="140.041" y2="1271.7969"/></g><line style="stroke:#A80036;stroke-width:1;stroke-dasharray:1.0,4.0;" x1="1598.064" x2="1598.064" y1="1271.7969" y2="1299.7969"/><g><title>Key Vault</title><rect fill="transparent" height="183.1738" width="8" x="1594.564" y="1299.7969"/><line style="stroke:#181818;stroke-width:0.5;stroke-dasharray:5.0,5.0;" x1="1598.064" x2="1598.064" y1="1299.7969" y2="1482.9707"/></g><g><title/><rect fill="#ADD8E6" height="336.416" style="stroke:#ADD8E6;stroke-width:1;" width="10" x="1593.064" y="935.3809"/><line style="stroke:#181818;stroke-width:1;" x1="1593.064" x2="1593.064" y1="935.3809" y2="1271.7969"/><line style="stroke:#181818;stroke-width:1;" x1="1603.064" x2="1603.064" y1="935.3809" y2="1271.7969"/><line style="stroke:#181818;stroke-width:1;" x1="1593.064" x2="1603.064" y1="935.3809" y2="935.3809"/></g><g><title/><rect fill="#ADD8E6" height="183.1738" style="stroke:#ADD8E6;stroke-width:1;" width="10" x="1593.064" y="1299.7969"/><line style="stroke:#181818;stroke-width:1;" x1="1593.064" x2="1593.064" y1="1299.7969" y2="1482.9707"/><line style="stroke:#181818;stroke-width:1;" x1="1603.064" x2="1603.064" y1="1299.7969" y2="1482.9707"/><line style="stroke:#181818;stroke-width:1;" x1="1593.064" x2="1603.064" y1="1482.9707" y2="1482.9707"/></g><rect fill="#E2E2F0" height="30.4883" rx="2.5" ry="2.5" style="stroke:#181818;stroke-width:0.5;" width="45.7871" x="103.3853" y="108.5527"/><text fill="#000000" font-family="sans-serif" font-size="14" lengthAdjust="spacing" textLength="31.7871" x="110.3853" y="129.0879">ROM</text><rect fill="#E2E2F0" height="30.4883" rx="2.5" ry="2.5" style="stroke:#181818;stroke-width:0.5;" width="33.4824" x="363.04" y="108.5527"/><text fill="#000000" font-family="sans-serif" font-size="14" lengthAdjust="spacing" textLength="19.4824" x="370.04" y="129.0879">FW</text><rect fill="#E2E2F0" height="30.4883" rx="2.5" ry="2.5" style="stroke:#181818;stroke-width:0.5;" width="51.5088" x="661.5986" y="108.5527"/><text fill="#000000" font-family="sans-serif" font-size="14" lengthAdjust="spacing" textLength="37.5088" x="668.5986" y="129.0879">DRBG</text><rect fill="#E2E2F0" height="30.4883" rx="2.5" ry="2.5" style="stroke:#181818;stroke-width:0.5;" width="77.54" x="932.4741" y="108.5527"/><text fill="#000000" font-family="sans-serif" font-size="14" lengthAdjust="spacing" textLength="63.54" x="939.4741" y="129.0879">Key Vault</text><rect fill="#E2E2F0" height="46.9766" rx="2.5" ry="2.5" style="stroke:#181818;stroke-width:0.5;" width="77.54" x="1192.8701" y="92.0645"/><text fill="#000000" font-family="sans-serif" font-size="14" lengthAdjust="spacing" textLength="63.54" x="1199.8701" y="112.5996">Key Vault</text><text fill="#000000" font-family="sans-serif" font-size="14" lengthAdjust="spacing" textLength="38.2676" x="1212.5063" y="129.0879">Fuses</text><rect fill="#E2E2F0" height="63.4648" rx="2.5" ry="2.5" style="stroke:#181818;stroke-width:0.5;" width="138.8721" x="1280.4102" y="75.5762"/><text fill="#000000" font-family="sans-serif" font-size="14" lengthAdjust="spacing" textLength="63.54" x="1318.0762" y="96.1113">Key Vault</text><text fill="#000000" font-family="sans-serif" font-size="14" lengthAdjust="spacing" textLength="39.5117" x="1330.0903" y="112.5996">Slot A</text><text fill="#000000" font-family="sans-serif" font-size="14" lengthAdjust="spacing" textLength="124.8721" x="1287.4102" y="129.0879">(Storage Root Key)</text><rect fill="#E2E2F0" height="63.4648" rx="2.5" ry="2.5" style="stroke:#181818;stroke-width:0.5;" width="105.335" x="1429.2822" y="75.5762"/><text fill="#000000" font-family="sans-serif" font-size="14" lengthAdjust="spacing" textLength="63.54" x="1450.1797" y="96.1113">Key Vault</text><text fill="#000000" font-family="sans-serif" font-size="14" lengthAdjust="spacing" textLength="37.9053" x="1462.9971" y="112.5996">Slot B</text><text fill="#000000" font-family="sans-serif" font-size="14" lengthAdjust="spacing" textLength="91.335" x="1436.2822" y="129.0879">(PMEK Secret)</text><rect fill="#E2E2F0" height="63.4648" rx="2.5" ry="2.5" style="stroke:#181818;stroke-width:0.5;" width="106.8936" x="1544.6172" y="75.5762"/><text fill="#000000" font-family="sans-serif" font-size="14" lengthAdjust="spacing" textLength="63.54" x="1566.2939" y="96.1113">Key Vault</text><text fill="#000000" font-family="sans-serif" font-size="14" lengthAdjust="spacing" textLength="39.9697" x="1578.0791" y="112.5996">Slot G</text><text fill="#000000" font-family="sans-serif" font-size="14" lengthAdjust="spacing" textLength="92.8936" x="1551.6172" y="129.0879">(KEM Keypair)</text><rect fill="#E2E2F0" height="30.4883" rx="2.5" ry="2.5" style="stroke:#181818;stroke-width:0.5;" width="45.7871" x="103.3853" y="1482.9707"/><text fill="#000000" font-family="sans-serif" font-size="14" lengthAdjust="spacing" textLength="31.7871" x="110.3853" y="1503.5059">ROM</text><rect fill="#E2E2F0" height="30.4883" rx="2.5" ry="2.5" style="stroke:#181818;stroke-width:0.5;" width="33.4824" x="363.04" y="1482.9707"/><text fill="#000000" font-family="sans-serif" font-size="14" lengthAdjust="spacing" textLength="19.4824" x="370.04" y="1503.5059">FW</text><rect fill="#E2E2F0" height="30.4883" rx="2.5" ry="2.5" style="stroke:#181818;stroke-width:0.5;" width="51.5088" x="661.5986" y="1482.9707"/><text fill="#000000" font-family="sans-serif" font-size="14" lengthAdjust="spacing" textLength="37.5088" x="668.5986" y="1503.5059">DRBG</text><rect fill="#E2E2F0" height="30.4883" rx="2.5" ry="2.5" style="stroke:#181818;stroke-width:0.5;" width="77.54" x="932.4741" y="1482.9707"/><text fill="#000000" font-family="sans-serif" font-size="14" lengthAdjust="spacing" textLength="63.54" x="939.4741" y="1503.5059">Key Vault</text><rect fill="#E2E2F0" height="46.9766" rx="2.5" ry="2.5" style="stroke:#181818;stroke-width:0.5;" width="77.54" x="1192.8701" y="1482.9707"/><text fill="#000000" font-family="sans-serif" font-size="14" lengthAdjust="spacing" textLength="63.54" x="1199.8701" y="1503.5059">Key Vault</text><text fill="#000000" font-family="sans-serif" font-size="14" lengthAdjust="spacing" textLength="38.2676" x="1212.5063" y="1519.9941">Fuses</text><rect fill="#E2E2F0" height="63.4648" rx="2.5" ry="2.5" style="stroke:#181818;stroke-width:0.5;" width="138.8721" x="1280.4102" y="1482.9707"/><text fill="#000000" font-family="sans-serif" font-size="14" lengthAdjust="spacing" textLength="63.54" x="1318.0762" y="1503.5059">Key Vault</text><text fill="#000000" font-family="sans-serif" font-size="14" lengthAdjust="spacing" textLength="39.5117" x="1330.0903" y="1519.9941">Slot A</text><text fill="#000000" font-family="sans-serif" font-size="14" lengthAdjust="spacing" textLength="124.8721" x="1287.4102" y="1536.4824">(Storage Root Key)</text><rect fill="#E2E2F0" height="63.4648" rx="2.5" ry="2.5" style="stroke:#181818;stroke-width:0.5;" width="105.335" x="1429.2822" y="1482.9707"/><text fill="#000000" font-family="sans-serif" font-size="14" lengthAdjust="spacing" textLength="63.54" x="1450.1797" y="1503.5059">Key Vault</text><text fill="#000000" font-family="sans-serif" font-size="14" lengthAdjust="spacing" textLength="37.9053" x="1462.9971" y="1519.9941">Slot B</text><text fill="#000000" font-family="sans-serif" font-size="14" lengthAdjust="spacing" textLength="91.335" x="1436.2822" y="1536.4824">(PMEK Secret)</text><rect fill="#E2E2F0" height="63.4648" rx="2.5" ry="2.5" style="stroke:#181818;stroke-width:0.5;" width="106.8936" x="1544.6172" y="1482.9707"/><text fill="#000000" font-family="sans-serif" font-size="14" lengthAdjust="spacing" textLength="63.54" x="1566.2939" y="1503.5059">Key Vault</text><text fill="#000000" font-family="sans-serif" font-size="14" lengthAdjust="spacing" textLength="39.9697" x="1578.0791" y="1519.9941">Slot G</text><text fill="#000000" font-family="sans-serif" font-size="14" lengthAdjust="spacing" textLength="92.8936" x="1551.6172" y="1536.4824">(KEM Keypair)</text><path d="M93.1086,153.041 L93.1086,316.041 L1631.1086,316.041 L1631.1086,163.041 L1621.1086,153.041 L93.1086,153.041 " fill="#FEFFDD" style="stroke:#181818;stroke-width:0.5;"/><path d="M1621.1086,153.041 L1621.1086,163.041 L1631.1086,163.041 L1621.1086,153.041 " fill="#FEFFDD" style="stroke:#181818;stroke-width:0.5;"/><text fill="#000000" font-family="sans-serif" font-size="13" font-weight="bold" lengthAdjust="spacing" textLength="94.999" x="387.1404" y="170.6094">Preconditions:</text><ellipse cx="392.6404" cy="181.1621" fill="#000000" rx="2.5" ry="2.5"/><text fill="#000000" font-family="sans-serif" font-size="13" lengthAdjust="spacing" textLength="226.3828" x="399.1404" y="185.9199">Storage Root Key exists in the fuses</text><text fill="#000000" font-family="sans-serif" font-size="13" lengthAdjust="spacing" textLength="4.1133" x="387.1404" y="201.2305">&#160;</text><text fill="#000000" font-family="sans-serif" font-size="13" font-weight="bold" lengthAdjust="spacing" textLength="41.7422" x="387.1404" y="216.541">Notes:</text><ellipse cx="392.6404" cy="227.0938" fill="#000000" rx="2.5" ry="2.5"/><text fill="#FF0000" font-family="sans-serif" font-size="13" lengthAdjust="spacing" textLength="929.062" x="399.1404" y="231.8516">Need to add the ability to Purge the existing Storage Root Key and creating a new Storage Root Key to be determined as part of the fuse discussion</text><ellipse cx="392.6404" cy="242.4043" fill="#000000" rx="2.5" ry="2.5"/><text fill="#FF0000" font-family="sans-serif" font-size="13" lengthAdjust="spacing" textLength="216.5186" x="399.1404" y="247.1621">Need to discuss Warm Reset cases</text><text fill="#000000" font-family="sans-serif" font-size="13" lengthAdjust="spacing" textLength="7.522" x="395.3669" y="262.4727">-</text><text fill="#FF0000" font-family="sans-serif" font-size="13" lengthAdjust="spacing" textLength="464.6484" x="407.0022" y="262.4727">NVM subsystem Reset - assume reset of ASIC and ROM code re-executed</text><text fill="#000000" font-family="sans-serif" font-size="13" lengthAdjust="spacing" textLength="7.522" x="395.3669" y="277.7832">-</text><text fill="#FF0000" font-family="sans-serif" font-size="13" lengthAdjust="spacing" textLength="329.3989" x="407.0022" y="277.7832">PCIe Warm Reset - Discuss : PMEKs maybe unlocked</text><text fill="#000000" font-family="sans-serif" font-size="13" lengthAdjust="spacing" textLength="125.7344" x="407.7068" y="293.0938">Gamil to investigate</text><text fill="#000000" font-family="sans-serif" font-size="13" lengthAdjust="spacing" textLength="7.522" x="395.3669" y="308.4043">-</text><text fill="#FF0000" font-family="sans-serif" font-size="13" lengthAdjust="spacing" textLength="165.4517" x="407.0022" y="308.4043">Controller Reset - Discuss</text><line style="stroke:#008000;stroke-width:1;" x1="119.2788" x2="109.2788" y1="342.457" y2="338.457"/><line style="stroke:#008000;stroke-width:1;" x1="119.2788" x2="109.2788" y1="342.457" y2="346.457"/><line style="stroke:#008000;stroke-width:1;" x1="5" x2="120.2788" y1="342.457" y2="342.457"/><text fill="#000000" font-family="sans-serif" font-size="13" font-weight="bold" lengthAdjust="spacing" textLength="35.3628" x="12" y="337.7148">[001]</text><text fill="#000000" font-family="sans-serif" font-size="13" lengthAdjust="spacing" textLength="57.916" x="51.3628" y="337.7148">Power on</text><rect fill="#EEEEEE" height="3" style="stroke:#EEEEEE;stroke-width:1;" width="1656.5107" x="5" y="371.1123"/><line style="stroke:#000000;stroke-width:1;" x1="5" x2="1661.5107" y1="371.1123" y2="371.1123"/><line style="stroke:#000000;stroke-width:1;" x1="5" x2="1661.5107" y1="374.1123" y2="374.1123"/><rect fill="#EEEEEE" height="23.3105" style="stroke:#000000;stroke-width:2;" width="271.0483" x="697.7312" y="360.457"/><text fill="#000000" font-family="sans-serif" font-size="13" font-weight="bold" lengthAdjust="spacing" textLength="248.479" x="703.7312" y="377.0254">Load a KV slot with Storage Root Key</text><polygon fill="#FF0000" points="954.2441,411.0781,964.2441,415.0781,954.2441,419.0781,958.2441,415.0781" style="stroke:#FF0000;stroke-width:1;"/><line style="stroke:#FF0000;stroke-width:1;" x1="131.2788" x2="960.2441" y1="415.0781" y2="415.0781"/><text fill="#000000" font-family="sans-serif" font-size="13" font-weight="bold" lengthAdjust="spacing" textLength="35.3628" x="138.2788" y="410.3359">[002]</text><text fill="#000000" font-family="sans-serif" font-size="13" lengthAdjust="spacing" textLength="189.4712" x="177.6416" y="410.3359">load_storage_root(Key: Slot A)</text><path d="M955.2441,427.0781 L1029.6909,427.0781 L1029.6909,434.3887 L1019.6909,444.3887 L955.2441,444.3887 L955.2441,427.0781 " fill="#EEEEEE" style="stroke:#000000;stroke-width:1.5;"/><rect fill="transparent" height="56.6211" style="stroke:#000000;stroke-width:1.5;" width="395.2388" x="955.2441" y="427.0781"/><text fill="#000000" font-family="sans-serif" font-size="13" font-weight="bold" lengthAdjust="spacing" textLength="29.4468" x="970.2441" y="440.6465">loop</text><text fill="#000000" font-family="sans-serif" font-size="11" font-weight="bold" lengthAdjust="spacing" textLength="289.792" x="1044.6909" y="439.7129">[through fuses entries until valid fuse entry found]</text><polygon fill="#FF0000" points="1214.6401,471.6992,1224.6401,475.6992,1214.6401,479.6992,1218.6401,475.6992" style="stroke:#FF0000;stroke-width:1;"/><line style="stroke:#FF0000;stroke-width:1;" x1="976.2441" x2="1220.6401" y1="475.6992" y2="475.6992"/><text fill="#000000" font-family="sans-serif" font-size="13" font-weight="bold" lengthAdjust="spacing" textLength="35.3628" x="983.2441" y="470.957">[003]</text><text fill="#000000" font-family="sans-serif" font-size="13" lengthAdjust="spacing" textLength="88.8672" x="1022.6069" y="470.957">get next entry</text><path d="M955.2441,501.6992 L1017.3828,501.6992 L1017.3828,509.0098 L1007.3828,519.0098 L955.2441,519.0098 L955.2441,501.6992 " fill="#EEEEEE" style="stroke:#000000;stroke-width:1.5;"/><rect fill="transparent" height="172.1973" style="stroke:#000000;stroke-width:1.5;" width="415.6021" x="955.2441" y="501.6992"/><text fill="#000000" font-family="sans-serif" font-size="13" font-weight="bold" lengthAdjust="spacing" textLength="17.1387" x="970.2441" y="515.2676">alt</text><text fill="#000000" font-family="sans-serif" font-size="11" font-weight="bold" lengthAdjust="spacing" textLength="90.6104" x="1032.3828" y="514.334">[if a valid entry]</text><line style="stroke:#000000;stroke-width:1;stroke-dasharray:2.0,2.0;" x1="955.2441" x2="1370.8462" y1="611.6309" y2="611.6309"/><text fill="#000000" font-family="sans-serif" font-size="11" font-weight="bold" lengthAdjust="spacing" textLength="87.8604" x="960.2441" y="624.2656">[No valid entry]</text><polygon fill="#FF0000" points="1332.8462,546.3203,1342.8462,550.3203,1332.8462,554.3203,1336.8462,550.3203" style="stroke:#FF0000;stroke-width:1;"/><line style="stroke:#FF0000;stroke-width:1;" x1="976.2441" x2="1338.8462" y1="550.3203" y2="550.3203"/><text fill="#000000" font-family="sans-serif" font-size="13" font-weight="bold" lengthAdjust="spacing" textLength="35.3628" x="983.2441" y="545.5781">[004]</text><text fill="#000000" font-family="sans-serif" font-size="13" lengthAdjust="spacing" textLength="131.7266" x="1022.6069" y="545.5781">Put Storage Root Key</text><line style="stroke:#FF0000;stroke-width:1;" x1="976.2441" x2="1018.2441" y1="579.6309" y2="579.6309"/><line style="stroke:#FF0000;stroke-width:1;" x1="1018.2441" x2="1018.2441" y1="579.6309" y2="592.6309"/><line style="stroke:#FF0000;stroke-width:1;" x1="977.2441" x2="1018.2441" y1="592.6309" y2="592.6309"/><polygon fill="#FF0000" points="987.2441,588.6309,977.2441,592.6309,987.2441,596.6309,983.2441,592.6309" style="stroke:#FF0000;stroke-width:1;"/><text fill="#000000" font-family="sans-serif" font-size="13" font-weight="bold" lengthAdjust="spacing" textLength="35.3628" x="983.2441" y="574.8887">[005]</text><text fill="#000000" font-family="sans-serif" font-size="13" lengthAdjust="spacing" textLength="197.1772" x="1022.6069" y="574.8887">storage_root_ket_exists = True</text><line style="stroke:#FF0000;stroke-width:1;" x1="976.2441" x2="1018.2441" y1="652.8965" y2="652.8965"/><line style="stroke:#FF0000;stroke-width:1;" x1="1018.2441" x2="1018.2441" y1="652.8965" y2="665.8965"/><line style="stroke:#FF0000;stroke-width:1;" x1="977.2441" x2="1018.2441" y1="665.8965" y2="665.8965"/><polygon fill="#FF0000" points="987.2441,661.8965,977.2441,665.8965,987.2441,669.8965,983.2441,665.8965" style="stroke:#FF0000;stroke-width:1;"/><text fill="#000000" font-family="sans-serif" font-size="13" font-weight="bold" lengthAdjust="spacing" textLength="35.3628" x="983.2441" y="648.1543">[006]</text><text fill="#000000" font-family="sans-serif" font-size="13" lengthAdjust="spacing" textLength="202.0332" x="1022.6069" y="648.1543">storage_root_key_exists = False</text><polygon fill="#FF0000" points="142.2788,705.207,132.2788,709.207,142.2788,713.207,138.2788,709.207" style="stroke:#FF0000;stroke-width:1;"/><line style="stroke:#FF0000;stroke-width:1;" x1="136.2788" x2="965.2441" y1="709.207" y2="709.207"/><text fill="#000000" font-family="sans-serif" font-size="13" font-weight="bold" lengthAdjust="spacing" textLength="35.3628" x="148.2788" y="704.4648">[007]</text><text fill="#000000" font-family="sans-serif" font-size="13" lengthAdjust="spacing" textLength="151.6963" x="187.6416" y="704.4648">storage_root_key_exists</text><line style="stroke:#FF0000;stroke-width:1;" x1="131.2788" x2="173.2788" y1="738.5176" y2="738.5176"/><line style="stroke:#FF0000;stroke-width:1;" x1="173.2788" x2="173.2788" y1="738.5176" y2="751.5176"/><line style="stroke:#FF0000;stroke-width:1;" x1="132.2788" x2="173.2788" y1="751.5176" y2="751.5176"/><polygon fill="#FF0000" points="142.2788,747.5176,132.2788,751.5176,142.2788,755.5176,138.2788,751.5176" style="stroke:#FF0000;stroke-width:1;"/><text fill="#000000" font-family="sans-serif" font-size="13" font-weight="bold" lengthAdjust="spacing" textLength="35.3628" x="138.2788" y="733.7754">[008]</text><text fill="#000000" font-family="sans-serif" font-size="13" lengthAdjust="spacing" textLength="195.1396" x="177.6416" y="733.7754">Retain storage_root_key_exists</text><rect fill="#EEEEEE" height="3" style="stroke:#EEEEEE;stroke-width:1;" width="1656.5107" x="5" y="780.1729"/><line style="stroke:#000000;stroke-width:1;" x1="5" x2="1661.5107" y1="780.1729" y2="780.1729"/><line style="stroke:#000000;stroke-width:1;" x1="5" x2="1661.5107" y1="783.1729" y2="783.1729"/><rect fill="#EEEEEE" height="23.3105" style="stroke:#000000;stroke-width:2;" width="420.0088" x="623.251" y="769.5176"/><text fill="#000000" font-family="sans-serif" font-size="13" font-weight="bold" lengthAdjust="spacing" textLength="397.4395" x="629.251" y="786.0859">Load a KV slot with KEM for each KEM algorithm supported</text><path d="M110.2788,806.8281 L172.4175,806.8281 L172.4175,814.1387 L162.4175,824.1387 L110.2788,824.1387 L110.2788,806.8281 " fill="#EEEEEE" style="stroke:#000000;stroke-width:1.5;"/><rect fill="transparent" height="165.8633" style="stroke:#000000;stroke-width:1.5;" width="1508.7852" x="110.2788" y="806.8281"/><text fill="#000000" font-family="sans-serif" font-size="13" font-weight="bold" lengthAdjust="spacing" textLength="17.1387" x="125.2788" y="820.3965">alt</text><text fill="#000000" font-family="sans-serif" font-size="11" font-weight="bold" lengthAdjust="spacing" textLength="250.6152" x="187.4175" y="819.4629">[kem_algorithm ecdh_secp384r1 supported]</text><polygon fill="#FF0000" points="954.2441,851.4492,964.2441,855.4492,954.2441,859.4492,958.2441,855.4492" style="stroke:#FF0000;stroke-width:1;"/><line style="stroke:#FF0000;stroke-width:1;" x1="131.2788" x2="960.2441" y1="855.4492" y2="855.4492"/><text fill="#000000" font-family="sans-serif" font-size="13" font-weight="bold" lengthAdjust="spacing" textLength="35.3628" x="138.2788" y="850.707">[009]</text><text fill="#000000" font-family="sans-serif" font-size="13" lengthAdjust="spacing" textLength="241.6426" x="177.6416" y="850.707">generate_ecdh_secp384r1(Key: Slot G)</text><polygon fill="#FF0000" points="698.353,880.7598,688.353,884.7598,698.353,888.7598,694.353,884.7598" style="stroke:#FF0000;stroke-width:1;"/><line style="stroke:#FF0000;stroke-width:1;" x1="692.353" x2="965.2441" y1="884.7598" y2="884.7598"/><text fill="#000000" font-family="sans-serif" font-size="13" font-weight="bold" lengthAdjust="spacing" textLength="35.3628" x="704.353" y="880.0176">[010]</text><text fill="#000000" font-family="sans-serif" font-size="13" lengthAdjust="spacing" textLength="215.5283" x="743.7158" y="880.0176">Get random bytes for KEM keypair</text><path d="M981.2441,868.4492 L981.2441,908.4492 L1260.2441,908.4492 L1260.2441,878.4492 L1250.2441,868.4492 L981.2441,868.4492 " fill="#FEFFDD" style="stroke:#181818;stroke-width:0.5;"/><path d="M1250.2441,868.4492 L1250.2441,878.4492 L1260.2441,878.4492 L1250.2441,868.4492 " fill="#FEFFDD" style="stroke:#181818;stroke-width:0.5;"/><text fill="#FF0000" font-family="sans-serif" font-size="13" lengthAdjust="spacing" textLength="73.2583" x="987.2441" y="886.0176">move to FW</text><text fill="#FF0000" font-family="sans-serif" font-size="13" lengthAdjust="spacing" textLength="258.8257" x="987.2441" y="901.3281">add note to indiacte would be nice in HW</text><polygon fill="#FF0000" points="1581.064,931.3809,1591.064,935.3809,1581.064,939.3809,1585.064,935.3809" style="stroke:#FF0000;stroke-width:1;"/><line style="stroke:#FF0000;stroke-width:1;" x1="976.2441" x2="1587.064" y1="935.3809" y2="935.3809"/><text fill="#000000" font-family="sans-serif" font-size="13" font-weight="bold" lengthAdjust="spacing" textLength="35.3628" x="983.2441" y="930.6387">[011]</text><text fill="#000000" font-family="sans-serif" font-size="13" lengthAdjust="spacing" textLength="101.1436" x="1022.6069" y="930.6387">Put KEM keypair</text><polygon fill="#FF0000" points="142.2788,960.6914,132.2788,964.6914,142.2788,968.6914,138.2788,964.6914" style="stroke:#FF0000;stroke-width:1;"/><line style="stroke:#FF0000;stroke-width:1;" x1="136.2788" x2="965.2441" y1="964.6914" y2="964.6914"/><text fill="#000000" font-family="sans-serif" font-size="13" font-weight="bold" lengthAdjust="spacing" textLength="35.3628" x="148.2788" y="959.9492">[012]</text><text fill="#000000" font-family="sans-serif" font-size="13" lengthAdjust="spacing" textLength="31.478" x="187.6416" y="959.9492">done</text><rect fill="#EEEEEE" height="3" style="stroke:#EEEEEE;stroke-width:1;" width="1656.5107" x="5" y="1007.3467"/><line style="stroke:#000000;stroke-width:1;" x1="5" x2="1661.5107" y1="1007.3467" y2="1007.3467"/><line style="stroke:#000000;stroke-width:1;" x1="5" x2="1661.5107" y1="1010.3467" y2="1010.3467"/><rect fill="#EEEEEE" height="23.3105" style="stroke:#000000;stroke-width:2;" width="450.5664" x="607.9722" y="996.6914"/><text fill="#000000" font-family="sans-serif" font-size="13" font-weight="bold" lengthAdjust="spacing" textLength="427.9971" x="613.9722" y="1013.2598">Load a KV slot with DICE key for each KEM algorithm supported</text><path d="M136.2788,1035.002 L136.2788,1090.002 L821.2788,1090.002 L821.2788,1045.002 L811.2788,1035.002 L136.2788,1035.002 " fill="#FEFFDD" style="stroke:#181818;stroke-width:0.5;"/><path d="M811.2788,1035.002 L811.2788,1045.002 L821.2788,1045.002 L811.2788,1035.002 " fill="#FEFFDD" style="stroke:#181818;stroke-width:0.5;"/><text fill="#000000" font-family="sans-serif" font-size="13" lengthAdjust="spacing" textLength="4.1133" x="142.2788" y="1052.5703">&#160;</text><text fill="#000000" font-family="sans-serif" font-size="13" lengthAdjust="spacing" textLength="664.2441" x="142.2788" y="1067.8809">ROM/FMC code already created DICE keys and loaded them. Caliptra FW knows the key so no work to do.</text><text fill="#000000" font-family="sans-serif" font-size="13" lengthAdjust="spacing" textLength="4.1133" x="142.2788" y="1083.1914">&#160;</text><rect fill="#EEEEEE" height="3" style="stroke:#EEEEEE;stroke-width:1;" width="1656.5107" x="5" y="1116.5889"/><line style="stroke:#000000;stroke-width:1;" x1="5" x2="1661.5107" y1="1116.5889" y2="1116.5889"/><line style="stroke:#000000;stroke-width:1;" x1="5" x2="1661.5107" y1="1119.5889" y2="1119.5889"/><rect fill="#EEEEEE" height="23.3105" style="stroke:#000000;stroke-width:2;" width="282.9502" x="691.7803" y="1105.9336"/><text fill="#000000" font-family="sans-serif" font-size="13" font-weight="bold" lengthAdjust="spacing" textLength="260.3809" x="697.7803" y="1122.502">Load a KV slot with a PMEK unlock Key</text><polygon fill="#FF0000" points="954.2441,1171.8652,964.2441,1175.8652,954.2441,1179.8652,958.2441,1175.8652" style="stroke:#FF0000;stroke-width:1;"/><line style="stroke:#FF0000;stroke-width:1;" x1="131.2788" x2="960.2441" y1="1175.8652" y2="1175.8652"/><text fill="#000000" font-family="sans-serif" font-size="13" font-weight="bold" lengthAdjust="spacing" textLength="35.3628" x="138.2788" y="1163.4678">[013]</text><text fill="#000000" font-family="sans-serif" font-size="13" lengthAdjust="spacing" textLength="113.7563" x="177.6416" y="1155.8125">new_key(len: 256,</text><text fill="#000000" font-family="sans-serif" font-size="13" lengthAdjust="spacing" textLength="119.7993" x="235.2275" y="1171.123">Destination: Slot B)</text><polygon fill="#FF0000" points="698.353,1201.1758,688.353,1205.1758,698.353,1209.1758,694.353,1205.1758" style="stroke:#FF0000;stroke-width:1;"/><line style="stroke:#FF0000;stroke-width:1;" x1="692.353" x2="965.2441" y1="1205.1758" y2="1205.1758"/><text fill="#000000" font-family="sans-serif" font-size="13" font-weight="bold" lengthAdjust="spacing" textLength="35.3628" x="704.353" y="1200.4336">[014]</text><text fill="#000000" font-family="sans-serif" font-size="13" lengthAdjust="spacing" textLength="202.8647" x="743.7158" y="1200.4336">Get new random key of 256 bits</text><polygon fill="#FF0000" points="1464.9497,1230.4863,1474.9497,1234.4863,1464.9497,1238.4863,1468.9497,1234.4863" style="stroke:#FF0000;stroke-width:1;"/><line style="stroke:#FF0000;stroke-width:1;" x1="976.2441" x2="1470.9497" y1="1234.4863" y2="1234.4863"/><text fill="#000000" font-family="sans-serif" font-size="13" font-weight="bold" lengthAdjust="spacing" textLength="35.3628" x="983.2441" y="1229.7441">[015]</text><text fill="#000000" font-family="sans-serif" font-size="13" lengthAdjust="spacing" textLength="127.2197" x="1022.6069" y="1229.7441">Put PMEK Secret Key</text><polygon fill="#FF0000" points="142.2788,1259.7969,132.2788,1263.7969,142.2788,1267.7969,138.2788,1263.7969" style="stroke:#FF0000;stroke-width:1;"/><line style="stroke:#FF0000;stroke-width:1;" x1="136.2788" x2="965.2441" y1="1263.7969" y2="1263.7969"/><text fill="#000000" font-family="sans-serif" font-size="13" font-weight="bold" lengthAdjust="spacing" textLength="35.3628" x="148.2788" y="1259.0547">[016]</text><text fill="#000000" font-family="sans-serif" font-size="13" lengthAdjust="spacing" textLength="31.478" x="187.6416" y="1259.0547">done</text><polygon fill="#FF0000" points="362.7813,1317.1074,372.7813,1321.1074,362.7813,1325.1074,366.7813,1321.1074" style="stroke:#FF0000;stroke-width:1;"/><line style="stroke:#FF0000;stroke-width:1;" x1="131.2788" x2="368.7813" y1="1321.1074" y2="1321.1074"/><text fill="#000000" font-family="sans-serif" font-size="13" font-weight="bold" lengthAdjust="spacing" textLength="35.3628" x="138.2788" y="1316.3652">[017]</text><text fill="#000000" font-family="sans-serif" font-size="13" lengthAdjust="spacing" textLength="136.062" x="177.6416" y="1316.3652">Hand-off information</text><path d="M389.7813,1334.1074 L389.7813,1420.1074 L950.7813,1420.1074 L950.7813,1344.1074 L940.7813,1334.1074 L389.7813,1334.1074 " fill="#FEFFDD" style="stroke:#181818;stroke-width:0.5;"/><path d="M940.7813,1334.1074 L940.7813,1344.1074 L950.7813,1344.1074 L940.7813,1334.1074 " fill="#FEFFDD" style="stroke:#181818;stroke-width:0.5;"/><text fill="#000000" font-family="sans-serif" font-size="13" lengthAdjust="spacing" textLength="294.8169" x="395.7813" y="1351.6758">Currently, there is already handoff information</text><text fill="#000000" font-family="sans-serif" font-size="13" lengthAdjust="spacing" textLength="275.5264" x="395.7813" y="1366.9863">from ROM to run-time FW. Need to include:</text><ellipse cx="401.2813" cy="1377.5391" fill="#000000" rx="2.5" ry="2.5"/><text fill="#000000" font-family="sans-serif" font-size="13" lengthAdjust="spacing" textLength="528.5947" x="407.7813" y="1382.2969">If the Storage Root Key exists and if so the KV slot containing that Storage Root Key</text><ellipse cx="401.2813" cy="1392.8496" fill="#000000" rx="2.5" ry="2.5"/><text fill="#000000" font-family="sans-serif" font-size="13" lengthAdjust="spacing" textLength="248.2886" x="407.7813" y="1397.6074">The KV Slot containing the KEM keypair</text><text fill="#000000" font-family="sans-serif" font-size="13" lengthAdjust="spacing" textLength="4.1133" x="395.7813" y="1412.918">&#160;</text><line style="stroke:#FF0000;stroke-width:1;" x1="384.7813" x2="426.7813" y1="1446.9707" y2="1446.9707"/><line style="stroke:#FF0000;stroke-width:1;" x1="426.7813" x2="426.7813" y1="1446.9707" y2="1459.9707"/><line style="stroke:#FF0000;stroke-width:1;" x1="385.7813" x2="426.7813" y1="1459.9707" y2="1459.9707"/><polygon fill="#FF0000" points="395.7813,1455.9707,385.7813,1459.9707,395.7813,1463.9707,391.7813,1459.9707" style="stroke:#FF0000;stroke-width:1;"/><text fill="#000000" font-family="sans-serif" font-size="13" font-weight="bold" lengthAdjust="spacing" textLength="35.3628" x="391.7813" y="1442.2285">[018]</text><text fill="#000000" font-family="sans-serif" font-size="13" lengthAdjust="spacing" textLength="249.209" x="431.144" y="1442.2285">Mark that no MEK sequence has started</text><text fill="#888888" font-family="sans-serif" font-size="10" lengthAdjust="spacing" textLength="118.4277" x="773.5415" y="1567.1035">Filename: power_on.uml</text><!--SRC=[ZLPjR-8u4FxkNp5TzNJjTc7lRKydL2frwQjQIbLwhLPxfyWa0rWaDcSxKAJ- -9jn0eGILiqNIER5y_BCCzvJEaxp1C74qoWryIJAlKfTapuBiRVlncOUoJI5DlpaROu7X-BdpQz3cJh-BFRK40vMeaC1z9IgKuknqKd5IKNebK-nNYIdgbwGkL4qbTOfFQfNI8ok-jn32d97HCi4waAgaPKnrKZU15MZiOngATf3dQYXu4BththFqMtlz2owEVz6Eh-8ZOg6Y0fVZo6u3xtEFTmsUyrEywO9zsQE5dhwmyfbnRRCjR3MnYF8s1hdmZi_nuEJ-q97UMMqQnr_7foif1-XxusL8uG7OppSu0BmHJdlG6dmOuHXxj29ghSxEcJBo_7GQ0-nIOrjMqnExX0Jy0PaaWGtSg1IvHVywJwtT1n_32TnGRTYaDIzsA8CKWaQvziwv6g0aA17cobDnqa7r24FPhYA71BbujmvIlmTmPRAy2nj1W_ea9Gafm-hfx5j_DG5bm_SmdbSMZKe5fTd23QyKa2d_UjEoEgXroNZX4KDVC4uzvZyqFzzvngh4JNWh0op1VVTyni7cLnG8NBD0xxXZ9vBcQcKSrDwXbJiaVJum-Cwz6fDcXBYtfmNp0Y00MKhA0Py71t1_jU_BoxE7wBJpkFrq-dZTUzEYE-Dx_kd_MztdQZJk-qz_7joGaqr6MctIb1JMqIx3RT6KllWvWbSIjsTAp_UxZUqsqAmFUoxXOvXCZiwQa5Aff4hT2DBkWUasu8- -paz5AanKqA3DVbeN62PKl1MqM-kYGjX9bEL55XXmGA69jT54IUpygJ2hWKZAeV65rze2gg043BrGDCeIqU5PCFQsGddc_kjb88UYUlBj-5aCcj1DSjeWZug9xKDZqI4WbaGxipkG6fyBDO-BfYsGauLTc5EEzpqmXreD62dgmeTJsQDnWeebSw5lot2bvV4Chlyx4J6pNcNkcG1PLoyo7HaB4ao6iJfr5WQgG8jt9m9Pj5Q0UDa73cCfx__zOVzTQqVujq2rmWrMfgOQDEi0h7BDzMnDECjk2IWy3zoDrWGMuPmEL9ARogLNPErLQEnNxFhcs7Cp0nvU2-UTwemmGPFOSOJ9MFwFpTvcZ0xQXKZC_dLy-RqRk82ir69qBSnicWtEck1KWyMbXSsAtIi459y3YW98xMZxMVNdNCExfszNvStH244CU_dYswdO5-PqdP95iMI8PEbSnT8caa5m-BAcj2XUPfwAwaBCD5cxi9suK2SeMfIiMd0UNkOfX2h2k_AGWRIBjdw1xn6Au-7uI15tOBVllpvwH-zGUnmndIk9U_q4ejV3qKD3dbtbbZac6aNaJSOA9gmbVOqmuah412YwoFLfQ2e8Ag7m3jv8hH-1odiEvEXLnccr0NB5yqgJGpdOLLSKVGDCnmIaAdrMKXP99I-DOkYjzLU3-VXc4vkBN5WklZ4xR8q1MxLz36Nuuq_jXdosRoWgPisrmqEZBhUXEK5eRnEjqHnZxWkBXgxRb2C92eHeOIrbYYWcnZJ7bzi_5ZkM0eVuR4mwM-PuCQGLW17cQyBruAkP5Zo2OHHRgh3_tBKn0TZkYWvBmFjlRv-UNrbKsgA-1y0]--></g></svg>