<svg xmlns="http://www.w3.org/2000/svg" xmlns:xlink="http://www.w3.org/1999/xlink" contentStyleType="text/css" data-diagram-type="SEQUENCE" height="825px" preserveAspectRatio="none" style="width:1248px;height:825px;background:#FFFFFF;" version="1.1" viewBox="0 0 1248 825" width="1248px" zoomAndPan="magnify"><title>Rotate Encapsulation Key</title><defs/><g><rect fill="#DDDDDD" height="776.0723" style="stroke:#181818;stroke-width:0.5;" width="966.3989" x="275.647" y="43.4883"/><text fill="#000000" font-family="sans-serif" font-size="13" font-weight="bold" lengthAdjust="spacing" textLength="52.7935" x="732.4497" y="56.0566">Caliptra</text><text fill="#000000" font-family="sans-serif" font-size="14" font-weight="bold" lengthAdjust="spacing" textLength="182.7314" x="534.6572" y="28.5352">Rotate Encapsulation Key</text><g><title>Storage</title><rect fill="transparent" height="621.832" width="8" x="34.1826" y="127.2637"/><line style="stroke:#181818;stroke-width:0.5;stroke-dasharray:5.0,5.0;" x1="37.6826" x2="37.6826" y1="127.2637" y2="749.0957"/></g><g><title/><rect fill="#FFFFFF" height="103.2422" style="stroke:#181818;stroke-width:1;" width="10" x="32.6826" y="645.8535"/></g><g><title>Mail Box</title><rect fill="transparent" height="621.832" width="8" x="311.9229" y="127.2637"/><line style="stroke:#181818;stroke-width:0.5;stroke-dasharray:5.0,5.0;" x1="315.4229" x2="315.4229" y1="127.2637" y2="749.0957"/></g><g><title/><rect fill="#FFFFFF" height="128.5527" style="stroke:#181818;stroke-width:1;" width="10" x="310.4229" y="222.5059"/></g><g><title>FW</title><rect fill="transparent" height="621.832" width="8" x="528.186" y="127.2637"/><line style="stroke:#181818;stroke-width:0.5;stroke-dasharray:5.0,5.0;" x1="531.686" x2="531.686" y1="127.2637" y2="749.0957"/></g><g><title/><rect fill="#FFFFFF" height="324.1055" style="stroke:#181818;stroke-width:1;" width="10" x="526.686" y="321.748"/></g><g><title>DRBG</title><rect fill="transparent" height="621.832" width="8" x="720.9541" y="127.2637"/><line style="stroke:#181818;stroke-width:0.5;stroke-dasharray:5.0,5.0;" x1="724.4541" x2="724.4541" y1="127.2637" y2="749.0957"/></g><g><title>Key Vault</title><rect fill="transparent" height="621.832" width="8" x="1004.8452" y="127.2637"/><line style="stroke:#181818;stroke-width:0.5;stroke-dasharray:5.0,5.0;" x1="1008.3452" x2="1008.3452" y1="127.2637" y2="749.0957"/></g><g><title/><rect fill="#FFFFFF" height="87.9316" style="stroke:#181818;stroke-width:1;" width="10" x="1003.3452" y="485.3008"/></g><g><title>Key Vault</title><rect fill="transparent" height="621.832" width="8" x="1181.0991" y="127.2637"/><line style="stroke:#181818;stroke-width:0.5;stroke-dasharray:5.0,5.0;" x1="1184.5991" x2="1184.5991" y1="127.2637" y2="749.0957"/></g><g><title/><rect fill="#ADD8E6" height="547.9004" style="stroke:#181818;stroke-width:1;" width="10" x="1179.5991" y="201.1953"/></g><rect fill="#E2E2F0" height="63.4648" rx="2.5" ry="2.5" style="stroke:#181818;stroke-width:0.5;" width="65.3652" x="5" y="62.7988"/><text fill="#000000" font-family="sans-serif" font-size="14" lengthAdjust="spacing" textLength="51.3652" x="12" y="83.334">Storage</text><text fill="#000000" font-family="sans-serif" font-size="14" lengthAdjust="spacing" textLength="44.5498" x="15.4077" y="99.8223">Device</text><text fill="#000000" font-family="sans-serif" font-size="14" lengthAdjust="spacing" textLength="19.4824" x="27.9414" y="116.3105">FW</text><rect fill="#E2E2F0" height="30.4883" rx="2.5" ry="2.5" style="stroke:#181818;stroke-width:0.5;" width="71.5518" x="279.647" y="95.7754"/><text fill="#000000" font-family="sans-serif" font-size="14" lengthAdjust="spacing" textLength="57.5518" x="286.647" y="116.3105">Mail Box</text><rect fill="#E2E2F0" height="30.4883" rx="2.5" ry="2.5" style="stroke:#181818;stroke-width:0.5;" width="33.4824" x="514.9448" y="95.7754"/><text fill="#000000" font-family="sans-serif" font-size="14" lengthAdjust="spacing" textLength="19.4824" x="521.9448" y="116.3105">FW</text><rect fill="#E2E2F0" height="30.4883" rx="2.5" ry="2.5" style="stroke:#181818;stroke-width:0.5;" width="51.5088" x="698.6997" y="95.7754"/><text fill="#000000" font-family="sans-serif" font-size="14" lengthAdjust="spacing" textLength="37.5088" x="705.6997" y="116.3105">DRBG</text><rect fill="#E2E2F0" height="30.4883" rx="2.5" ry="2.5" style="stroke:#181818;stroke-width:0.5;" width="77.54" x="969.5752" y="95.7754"/><text fill="#000000" font-family="sans-serif" font-size="14" lengthAdjust="spacing" textLength="63.54" x="976.5752" y="116.3105">Key Vault</text><rect fill="#E2E2F0" height="63.4648" rx="2.5" ry="2.5" style="stroke:#181818;stroke-width:0.5;" width="106.8936" x="1131.1523" y="62.7988"/><text fill="#000000" font-family="sans-serif" font-size="14" lengthAdjust="spacing" textLength="63.54" x="1152.8291" y="83.334">Key Vault</text><text fill="#000000" font-family="sans-serif" font-size="14" lengthAdjust="spacing" textLength="39.9697" x="1164.6143" y="99.8223">Slot G</text><text fill="#000000" font-family="sans-serif" font-size="14" lengthAdjust="spacing" textLength="92.8936" x="1138.1523" y="116.3105">(KEM Keypair)</text><rect fill="#E2E2F0" height="63.4648" rx="2.5" ry="2.5" style="stroke:#181818;stroke-width:0.5;" width="65.3652" x="5" y="749.0957"/><text fill="#000000" font-family="sans-serif" font-size="14" lengthAdjust="spacing" textLength="51.3652" x="12" y="769.6309">Storage</text><text fill="#000000" font-family="sans-serif" font-size="14" lengthAdjust="spacing" textLength="44.5498" x="15.4077" y="786.1191">Device</text><text fill="#000000" font-family="sans-serif" font-size="14" lengthAdjust="spacing" textLength="19.4824" x="27.9414" y="802.6074">FW</text><rect fill="#E2E2F0" height="30.4883" rx="2.5" ry="2.5" style="stroke:#181818;stroke-width:0.5;" width="71.5518" x="279.647" y="749.0957"/><text fill="#000000" font-family="sans-serif" font-size="14" lengthAdjust="spacing" textLength="57.5518" x="286.647" y="769.6309">Mail Box</text><rect fill="#E2E2F0" height="30.4883" rx="2.5" ry="2.5" style="stroke:#181818;stroke-width:0.5;" width="33.4824" x="514.9448" y="749.0957"/><text fill="#000000" font-family="sans-serif" font-size="14" lengthAdjust="spacing" textLength="19.4824" x="521.9448" y="769.6309">FW</text><rect fill="#E2E2F0" height="30.4883" rx="2.5" ry="2.5" style="stroke:#181818;stroke-width:0.5;" width="51.5088" x="698.6997" y="749.0957"/><text fill="#000000" font-family="sans-serif" font-size="14" lengthAdjust="spacing" textLength="37.5088" x="705.6997" y="769.6309">DRBG</text><rect fill="#E2E2F0" height="30.4883" rx="2.5" ry="2.5" style="stroke:#181818;stroke-width:0.5;" width="77.54" x="969.5752" y="749.0957"/><text fill="#000000" font-family="sans-serif" font-size="14" lengthAdjust="spacing" textLength="63.54" x="976.5752" y="769.6309">Key Vault</text><rect fill="#E2E2F0" height="63.4648" rx="2.5" ry="2.5" style="stroke:#181818;stroke-width:0.5;" width="106.8936" x="1131.1523" y="749.0957"/><text fill="#000000" font-family="sans-serif" font-size="14" lengthAdjust="spacing" textLength="63.54" x="1152.8291" y="769.6309">Key Vault</text><text fill="#000000" font-family="sans-serif" font-size="14" lengthAdjust="spacing" textLength="39.9697" x="1164.6143" y="786.1191">Slot G</text><text fill="#000000" font-family="sans-serif" font-size="14" lengthAdjust="spacing" textLength="92.8936" x="1138.1523" y="802.6074">(KEM Keypair)</text><path d="M-0.3821,140.2637 L-0.3821,195.2637 L1222.6179,195.2637 L1222.6179,150.2637 L1212.6179,140.2637 L-0.3821,140.2637 " fill="#FEFFDD" style="stroke:#181818;stroke-width:0.5;"/><path d="M1212.6179,140.2637 L1212.6179,150.2637 L1222.6179,150.2637 L1212.6179,140.2637 " fill="#FEFFDD" style="stroke:#181818;stroke-width:0.5;"/><text fill="#000000" font-family="sans-serif" font-size="13" font-weight="bold" lengthAdjust="spacing" textLength="94.999" x="338.8428" y="157.832">Preconditions:</text><text fill="#000000" font-family="sans-serif" font-size="13" lengthAdjust="spacing" textLength="369.7192" x="351.1826" y="173.1426">* KEM_HANDLE value is a KV slot containing a KEM keypair</text><text fill="#000000" font-family="sans-serif" font-size="13" lengthAdjust="spacing" textLength="523.2563" x="351.1826" y="188.4531">* KEM Keypair has been loaded into KV at power on or has been rotated by this API</text><line style="stroke:#008000;stroke-width:1;" x1="308.4229" x2="298.4229" y1="222.5059" y2="218.5059"/><line style="stroke:#008000;stroke-width:1;" x1="308.4229" x2="298.4229" y1="222.5059" y2="226.5059"/><line style="stroke:#008000;stroke-width:1;" x1="37.6826" x2="309.4229" y1="222.5059" y2="222.5059"/><text fill="#000000" font-family="sans-serif" font-size="13" font-weight="bold" lengthAdjust="spacing" textLength="35.3628" x="44.6826" y="217.7637">[001]</text><text fill="#000000" font-family="sans-serif" font-size="13" lengthAdjust="spacing" textLength="209.3774" x="84.0454" y="217.7637">ROTATE_ENCAPSULATION_KEY(X)</text><path d="M325.4229,235.5059 L325.4229,294.5059 L789.4229,294.5059 L789.4229,245.5059 L779.4229,235.5059 L325.4229,235.5059 " fill="#FEFFDD" style="stroke:#181818;stroke-width:0.5;"/><path d="M779.4229,235.5059 L779.4229,245.5059 L789.4229,245.5059 L779.4229,235.5059 " fill="#FEFFDD" style="stroke:#181818;stroke-width:0.5;"/><text fill="#000000" font-family="sans-serif" font-size="13" lengthAdjust="spacing" textLength="4.1133" x="331.4229" y="255.0742">&#160;</text><text fill="#000000" font-family="sans-serif" font-size="13" font-weight="bold" lengthAdjust="spacing" textLength="32.1509" x="335.5361" y="255.0742">Field</text><text fill="#000000" font-family="sans-serif" font-size="13" lengthAdjust="spacing" textLength="4.1133" x="415.6245" y="255.0742">&#160;</text><text fill="#000000" font-family="sans-serif" font-size="13" font-weight="bold" lengthAdjust="spacing" textLength="26.9521" x="419.7378" y="255.0742">Size</text><text fill="#000000" font-family="sans-serif" font-size="13" lengthAdjust="spacing" textLength="4.1133" x="464.8125" y="255.0742">&#160;</text><text fill="#000000" font-family="sans-serif" font-size="13" font-weight="bold" lengthAdjust="spacing" textLength="66.644" x="468.9258" y="255.0742">Definition</text><text fill="#000000" font-family="sans-serif" font-size="13" lengthAdjust="spacing" textLength="49.1563" x="335.5361" y="270.3848">chksum</text><text fill="#000000" font-family="sans-serif" font-size="13" lengthAdjust="spacing" textLength="24.5083" x="419.7378" y="270.3848">u32</text><text fill="#000000" font-family="sans-serif" font-size="13" lengthAdjust="spacing" textLength="78.0254" x="468.9258" y="270.3848">Little endian</text><text fill="#000000" font-family="sans-serif" font-size="13" lengthAdjust="spacing" textLength="75.9751" x="335.5361" y="285.6953">kem_handle</text><text fill="#000000" font-family="sans-serif" font-size="13" lengthAdjust="spacing" textLength="24.5083" x="419.7378" y="285.6953">u32</text><text fill="#000000" font-family="sans-serif" font-size="13" lengthAdjust="spacing" textLength="305.5508" x="468.9258" y="285.6953">Handle for old KEM keypair held in KMB memory</text><line style="stroke:#000000;stroke-width:0.5;" x1="331.4229" x2="774.4766" y1="242.5059" y2="242.5059"/><line style="stroke:#000000;stroke-width:0.5;" x1="331.4229" x2="774.4766" y1="257.8164" y2="257.8164"/><line style="stroke:#000000;stroke-width:0.5;" x1="331.4229" x2="774.4766" y1="273.127" y2="273.127"/><line style="stroke:#000000;stroke-width:0.5;" x1="331.4229" x2="774.4766" y1="288.4375" y2="288.4375"/><line style="stroke:#000000;stroke-width:0.5;" x1="331.4229" x2="331.4229" y1="242.5059" y2="288.4375"/><line style="stroke:#000000;stroke-width:0.5;" x1="415.6245" x2="415.6245" y1="242.5059" y2="288.4375"/><line style="stroke:#000000;stroke-width:0.5;" x1="464.8125" x2="464.8125" y1="242.5059" y2="288.4375"/><line style="stroke:#000000;stroke-width:0.5;" x1="774.4766" x2="774.4766" y1="242.5059" y2="288.4375"/><line style="stroke:#008000;stroke-width:1;" x1="524.686" x2="514.686" y1="321.748" y2="317.748"/><line style="stroke:#008000;stroke-width:1;" x1="524.686" x2="514.686" y1="321.748" y2="325.748"/><line style="stroke:#008000;stroke-width:1;" x1="320.4229" x2="525.686" y1="321.748" y2="321.748"/><text fill="#000000" font-family="sans-serif" font-size="13" font-weight="bold" lengthAdjust="spacing" textLength="35.3628" x="327.4229" y="317.0059">[002]</text><text fill="#000000" font-family="sans-serif" font-size="13" lengthAdjust="spacing" textLength="64.6826" x="366.7856" y="317.0059">Command</text><polygon fill="#FF0000" points="331.4229,347.0586,321.4229,351.0586,331.4229,355.0586,327.4229,351.0586" style="stroke:#FF0000;stroke-width:1;"/><line style="stroke:#FF0000;stroke-width:1;" x1="325.4229" x2="525.686" y1="351.0586" y2="351.0586"/><text fill="#000000" font-family="sans-serif" font-size="13" font-weight="bold" lengthAdjust="spacing" textLength="35.3628" x="337.4229" y="346.3164">[003]</text><text fill="#000000" font-family="sans-serif" font-size="13" lengthAdjust="spacing" textLength="87.9595" x="376.7856" y="346.3164">Get command</text><line style="stroke:#FF0000;stroke-width:1;" x1="536.686" x2="578.686" y1="380.3691" y2="380.3691"/><line style="stroke:#FF0000;stroke-width:1;" x1="578.686" x2="578.686" y1="380.3691" y2="393.3691"/><line style="stroke:#FF0000;stroke-width:1;" x1="537.686" x2="578.686" y1="393.3691" y2="393.3691"/><polygon fill="#FF0000" points="547.686,389.3691,537.686,393.3691,547.686,397.3691,543.686,393.3691" style="stroke:#FF0000;stroke-width:1;"/><text fill="#000000" font-family="sans-serif" font-size="13" font-weight="bold" lengthAdjust="spacing" textLength="35.3628" x="543.686" y="375.627">[004]</text><text fill="#000000" font-family="sans-serif" font-size="13" lengthAdjust="spacing" textLength="134.4053" x="583.0488" y="375.627">Determine Command</text><path d="M496.686,405.3691 L558.8247,405.3691 L558.8247,412.6797 L548.8247,422.6797 L496.686,422.6797 L496.686,405.3691 " fill="#EEEEEE" style="stroke:#000000;stroke-width:1.5;"/><rect fill="transparent" height="189.8633" style="stroke:#000000;stroke-width:1.5;" width="728.9131" x="496.686" y="405.3691"/><text fill="#000000" font-family="sans-serif" font-size="13" font-weight="bold" lengthAdjust="spacing" textLength="17.1387" x="511.686" y="418.9375">alt</text><text fill="#000000" font-family="sans-serif" font-size="11" font-weight="bold" lengthAdjust="spacing" textLength="252.812" x="573.8247" y="418.0039">[kem_handle (XG has a Key Pair in KV slot G]</text><path d="M515.686,436.6797 L577.8247,436.6797 L577.8247,443.9902 L567.8247,453.9902 L515.686,453.9902 L515.686,436.6797 " fill="#EEEEEE" style="stroke:#000000;stroke-width:1.5;"/><rect fill="transparent" height="144.5527" style="stroke:#000000;stroke-width:1.5;" width="684.9131" x="515.686" y="436.6797"/><text fill="#000000" font-family="sans-serif" font-size="13" font-weight="bold" lengthAdjust="spacing" textLength="17.1387" x="530.686" y="450.248">alt</text><text fill="#000000" font-family="sans-serif" font-size="11" font-weight="bold" lengthAdjust="spacing" textLength="201.126" x="592.8247" y="449.3145">[kem_algorithm = ecdh_secp384r1]</text><polygon fill="#FF0000" points="991.3452,481.3008,1001.3452,485.3008,991.3452,489.3008,995.3452,485.3008" style="stroke:#FF0000;stroke-width:1;"/><line style="stroke:#FF0000;stroke-width:1;" x1="536.686" x2="997.3452" y1="485.3008" y2="485.3008"/><text fill="#000000" font-family="sans-serif" font-size="13" font-weight="bold" lengthAdjust="spacing" textLength="35.3628" x="543.686" y="480.5586">[005]</text><text fill="#000000" font-family="sans-serif" font-size="13" lengthAdjust="spacing" textLength="241.6426" x="583.0488" y="480.5586">generate_ecdh_secp384r1(Key: Slot G)</text><polygon fill="#FF0000" points="735.4541,510.6113,725.4541,514.6113,735.4541,518.6113,731.4541,514.6113" style="stroke:#FF0000;stroke-width:1;"/><line style="stroke:#FF0000;stroke-width:1;" x1="729.4541" x2="1002.3452" y1="514.6113" y2="514.6113"/><text fill="#000000" font-family="sans-serif" font-size="13" font-weight="bold" lengthAdjust="spacing" textLength="35.3628" x="741.4541" y="509.8691">[006]</text><text fill="#000000" font-family="sans-serif" font-size="13" lengthAdjust="spacing" textLength="215.5283" x="780.8169" y="509.8691">Get random bytes for KEM keypair</text><polygon fill="#FF0000" points="1167.5991,539.9219,1177.5991,543.9219,1167.5991,547.9219,1171.5991,543.9219" style="stroke:#FF0000;stroke-width:1;"/><line style="stroke:#FF0000;stroke-width:1;" x1="1013.3452" x2="1173.5991" y1="543.9219" y2="543.9219"/><text fill="#000000" font-family="sans-serif" font-size="13" font-weight="bold" lengthAdjust="spacing" textLength="35.3628" x="1020.3452" y="539.1797">[007]</text><text fill="#000000" font-family="sans-serif" font-size="13" lengthAdjust="spacing" textLength="107.8911" x="1059.708" y="539.1797">New KEM keypair</text><polygon fill="#FF0000" points="547.686,569.2324,537.686,573.2324,547.686,577.2324,543.686,573.2324" style="stroke:#FF0000;stroke-width:1;"/><line style="stroke:#FF0000;stroke-width:1;" x1="541.686" x2="1002.3452" y1="573.2324" y2="573.2324"/><text fill="#000000" font-family="sans-serif" font-size="13" font-weight="bold" lengthAdjust="spacing" textLength="35.3628" x="553.686" y="568.4902">[008]</text><text fill="#000000" font-family="sans-serif" font-size="13" lengthAdjust="spacing" textLength="31.478" x="593.0488" y="568.4902">done</text><polygon fill="#FF0000" points="326.4229,641.8535,316.4229,645.8535,326.4229,649.8535,322.4229,645.8535" style="stroke:#FF0000;stroke-width:1;"/><line style="stroke:#FF0000;stroke-width:1;" x1="320.4229" x2="525.686" y1="645.8535" y2="645.8535"/><text fill="#000000" font-family="sans-serif" font-size="13" font-weight="bold" lengthAdjust="spacing" textLength="35.3628" x="332.4229" y="633.4561">[009]</text><text fill="#000000" font-family="sans-serif" font-size="13" lengthAdjust="spacing" textLength="128.9907" x="371.7856" y="625.8008">Command Response</text><text fill="#000000" font-family="sans-serif" font-size="13" lengthAdjust="spacing" textLength="143.7871" x="375.8989" y="641.1113">kem_handle is set to G</text><line style="stroke:#008000;stroke-width:1;" x1="43.6826" x2="53.6826" y1="645.8535" y2="641.8535"/><line style="stroke:#008000;stroke-width:1;" x1="43.6826" x2="53.6826" y1="645.8535" y2="649.8535"/><line style="stroke:#008000;stroke-width:1;" x1="42.6826" x2="314.4229" y1="645.8535" y2="645.8535"/><text fill="#000000" font-family="sans-serif" font-size="13" font-weight="bold" lengthAdjust="spacing" textLength="35.3628" x="59.6826" y="633.4561">[010]</text><text fill="#000000" font-family="sans-serif" font-size="13" lengthAdjust="spacing" textLength="64.6826" x="99.0454" y="625.8008">Command</text><text fill="#000000" font-family="sans-serif" font-size="13" lengthAdjust="spacing" textLength="60.4043" x="99.0454" y="641.1113">Complete</text><path d="M320.4229,658.8535 L320.4229,733.8535 L821.4229,733.8535 L821.4229,668.8535 L811.4229,658.8535 L320.4229,658.8535 " fill="#FEFFDD" style="stroke:#181818;stroke-width:0.5;"/><path d="M811.4229,658.8535 L811.4229,668.8535 L821.4229,668.8535 L811.4229,658.8535 " fill="#FEFFDD" style="stroke:#181818;stroke-width:0.5;"/><text fill="#000000" font-family="sans-serif" font-size="13" lengthAdjust="spacing" textLength="4.1133" x="326.4229" y="678.4219">&#160;</text><text fill="#000000" font-family="sans-serif" font-size="13" font-weight="bold" lengthAdjust="spacing" textLength="32.1509" x="330.5361" y="678.4219">Field</text><text fill="#000000" font-family="sans-serif" font-size="13" lengthAdjust="spacing" textLength="4.1133" x="410.6245" y="678.4219">&#160;</text><text fill="#000000" font-family="sans-serif" font-size="13" font-weight="bold" lengthAdjust="spacing" textLength="26.9521" x="414.7378" y="678.4219">Size</text><text fill="#000000" font-family="sans-serif" font-size="13" lengthAdjust="spacing" textLength="4.1133" x="459.8125" y="678.4219">&#160;</text><text fill="#000000" font-family="sans-serif" font-size="13" font-weight="bold" lengthAdjust="spacing" textLength="66.644" x="463.9258" y="678.4219">Definition</text><text fill="#000000" font-family="sans-serif" font-size="13" lengthAdjust="spacing" textLength="49.1563" x="330.5361" y="693.7324">chksum</text><text fill="#000000" font-family="sans-serif" font-size="13" lengthAdjust="spacing" textLength="24.5083" x="414.7378" y="693.7324">u32</text><text fill="#000000" font-family="sans-serif" font-size="13" lengthAdjust="spacing" textLength="78.0254" x="463.9258" y="693.7324">Little endian</text><text fill="#000000" font-family="sans-serif" font-size="13" lengthAdjust="spacing" textLength="68.0723" x="330.5361" y="709.043">fips_status</text><text fill="#000000" font-family="sans-serif" font-size="13" lengthAdjust="spacing" textLength="24.5083" x="414.7378" y="709.043">u32</text><text fill="#000000" font-family="sans-serif" font-size="13" lengthAdjust="spacing" textLength="338.4253" x="463.9258" y="709.043">Indicates if the command is FIPS approved or an error</text><text fill="#000000" font-family="sans-serif" font-size="13" lengthAdjust="spacing" textLength="75.9751" x="330.5361" y="724.3535">kem_handle</text><text fill="#000000" font-family="sans-serif" font-size="13" lengthAdjust="spacing" textLength="24.5083" x="414.7378" y="724.3535">u32</text><text fill="#000000" font-family="sans-serif" font-size="13" lengthAdjust="spacing" textLength="310.9526" x="463.9258" y="724.3535">Handle for new KEM keypair held in KMB memory</text><line style="stroke:#000000;stroke-width:0.5;" x1="326.4229" x2="806.4644" y1="665.8535" y2="665.8535"/><line style="stroke:#000000;stroke-width:0.5;" x1="326.4229" x2="806.4644" y1="681.1641" y2="681.1641"/><line style="stroke:#000000;stroke-width:0.5;" x1="326.4229" x2="806.4644" y1="696.4746" y2="696.4746"/><line style="stroke:#000000;stroke-width:0.5;" x1="326.4229" x2="806.4644" y1="711.7852" y2="711.7852"/><line style="stroke:#000000;stroke-width:0.5;" x1="326.4229" x2="806.4644" y1="727.0957" y2="727.0957"/><line style="stroke:#000000;stroke-width:0.5;" x1="326.4229" x2="326.4229" y1="665.8535" y2="727.0957"/><line style="stroke:#000000;stroke-width:0.5;" x1="410.6245" x2="410.6245" y1="665.8535" y2="727.0957"/><line style="stroke:#000000;stroke-width:0.5;" x1="459.8125" x2="459.8125" y1="665.8535" y2="727.0957"/><line style="stroke:#000000;stroke-width:0.5;" x1="806.4644" x2="806.4644" y1="665.8535" y2="727.0957"/><!--SRC=[pLHHRzem47xFhxWYDC4OcxRkOK9R9Te6YcWf0bfrKgN891TYuTYHRK1C_V4x9m6IZPUzBLAaittV-Rxlxdp1PIWs4O8Aiq2eS1riB1Vc8srxtWMFeTKqYTe5bbk1RG_eMpWJ6ZDbcKNmPSWoin7CSYLXZFk6Tu4oud4DdcaCbOoA058HZeLQ6PEltVTzUJKjVBWBP7hVFoslZgVqlOUn_n3SzIUtzpvicTWWS0CCnizWXB90KCkuv7BbDlq7MEC-Orp_5SFbw0uWOGQMY1A4OX56mALLBXopaAaTQY0-gkAcSy8HBFTW4xgxFntbmObjJkd8UutfgjE1vlNJOE3FWlxDOlJSNumU9vuNxw39p5w6a2x9fGUpnqL_uGV-vAO_dJ_Tvsx1sF_PUcdN16GPhuYd-Ign5E98xiq9EE0eeiDYpdzXOTrYJBhavNch0C9aRJPfkTXSVYcjUsvTUHqLLWSGhI1XCX9O0zmLMp59fUZwYlIGk7muTSN3DQIOAhr_EwzOkZp84iQxN9SRbQOKkAP1QbP1nhIX6XTQX4xEKat23D6rGO5pn-cosysDfa4HjnhatlW0ZLkqg5CkyN19eqs928Cdq24l9coLTkjbcBS3Spq4KqVHiIixSEZb0GuO9bPASvkay0CmZ9B0O9XTVlkgFnyrFUM_tdOwFLYXH4qz5jJzMtHR3-Rv7UqZUBqjiPgIAyWxIwNKe1PDNf1pSt34kJObrIQuE-jN4JvI4jlLGJe58GhTBaLnBYVeKSsJVrcAuZXNj-m4p_tU7wKiAmCpD1cz1lWggtMWuJD4byPrwBs3K_FKU-TLaf49glR_DaanpqnWw3NPc2fWH9uXSxMZR6s2XsPsV0UZwHnObccrfIU8IaiXKMio_cr4PRtQPqOKpizeNcZF-mq0]--></g></svg>