<svg xmlns="http://www.w3.org/2000/svg" xmlns:xlink="http://www.w3.org/1999/xlink" contentStyleType="text/css" data-diagram-type="SEQUENCE" height="856px" preserveAspectRatio="none" style="width:1255px;height:856px;background:#FFFFFF;" version="1.1" viewBox="0 0 1255 856" width="1255px" zoomAndPan="magnify"><title>Rotate Encapsulation Key</title><defs/><g><rect fill="#DDDDDD" height="776.0723" style="stroke:#181818;stroke-width:0.5;" width="966.3989" x="275.647" y="56.2656"/><text fill="#000000" font-family="sans-serif" font-size="13" font-weight="bold" lengthAdjust="spacing" textLength="52.7935" x="732.4497" y="68.834">Caliptra</text><text fill="#888888" font-family="sans-serif" font-size="10" lengthAdjust="spacing" textLength="46.0254" x="1201.0205" y="14.668">Version 1</text><text fill="#000000" font-family="sans-serif" font-size="14" font-weight="bold" lengthAdjust="spacing" textLength="182.7314" x="534.6572" y="41.3125">Rotate Encapsulation Key</text><g><title>Storage</title><rect fill="transparent" height="621.832" width="8" x="34.1826" y="140.041"/><line style="stroke:#181818;stroke-width:0.5;stroke-dasharray:5.0,5.0;" x1="37.6826" x2="37.6826" y1="140.041" y2="761.873"/></g><g><title/><rect fill="#FFFFFF" height="103.2422" style="stroke:#181818;stroke-width:1;" width="10" x="32.6826" y="658.6309"/></g><g><title>Mail Box</title><rect fill="transparent" height="621.832" width="8" x="311.9229" y="140.041"/><line style="stroke:#181818;stroke-width:0.5;stroke-dasharray:5.0,5.0;" x1="315.4229" x2="315.4229" y1="140.041" y2="761.873"/></g><g><title/><rect fill="#FFFFFF" height="128.5527" style="stroke:#181818;stroke-width:1;" width="10" x="310.4229" y="235.2832"/></g><g><title>FW</title><rect fill="transparent" height="621.832" width="8" x="528.186" y="140.041"/><line style="stroke:#181818;stroke-width:0.5;stroke-dasharray:5.0,5.0;" x1="531.686" x2="531.686" y1="140.041" y2="761.873"/></g><g><title/><rect fill="#FFFFFF" height="324.1055" style="stroke:#181818;stroke-width:1;" width="10" x="526.686" y="334.5254"/></g><g><title>DRBG</title><rect fill="transparent" height="621.832" width="8" x="720.9541" y="140.041"/><line style="stroke:#181818;stroke-width:0.5;stroke-dasharray:5.0,5.0;" x1="724.4541" x2="724.4541" y1="140.041" y2="761.873"/></g><g><title>Key Vault</title><rect fill="transparent" height="621.832" width="8" x="1004.8452" y="140.041"/><line style="stroke:#181818;stroke-width:0.5;stroke-dasharray:5.0,5.0;" x1="1008.3452" x2="1008.3452" y1="140.041" y2="761.873"/></g><g><title/><rect fill="#FFFFFF" height="87.9316" style="stroke:#181818;stroke-width:1;" width="10" x="1003.3452" y="498.0781"/></g><g><title>Key Vault</title><rect fill="transparent" height="621.832" width="8" x="1181.0991" y="140.041"/><line style="stroke:#181818;stroke-width:0.5;stroke-dasharray:5.0,5.0;" x1="1184.5991" x2="1184.5991" y1="140.041" y2="761.873"/></g><g><title/><rect fill="#ADD8E6" height="547.9004" style="stroke:#181818;stroke-width:1;" width="10" x="1179.5991" y="213.9727"/></g><rect fill="#E2E2F0" height="63.4648" rx="2.5" ry="2.5" style="stroke:#181818;stroke-width:0.5;" width="65.3652" x="5" y="75.5762"/><text fill="#000000" font-family="sans-serif" font-size="14" lengthAdjust="spacing" textLength="51.3652" x="12" y="96.1113">Storage</text><text fill="#000000" font-family="sans-serif" font-size="14" lengthAdjust="spacing" textLength="44.5498" x="15.4077" y="112.5996">Device</text><text fill="#000000" font-family="sans-serif" font-size="14" lengthAdjust="spacing" textLength="19.4824" x="27.9414" y="129.0879">FW</text><rect fill="#E2E2F0" height="30.4883" rx="2.5" ry="2.5" style="stroke:#181818;stroke-width:0.5;" width="71.5518" x="279.647" y="108.5527"/><text fill="#000000" font-family="sans-serif" font-size="14" lengthAdjust="spacing" textLength="57.5518" x="286.647" y="129.0879">Mail Box</text><rect fill="#E2E2F0" height="30.4883" rx="2.5" ry="2.5" style="stroke:#181818;stroke-width:0.5;" width="33.4824" x="514.9448" y="108.5527"/><text fill="#000000" font-family="sans-serif" font-size="14" lengthAdjust="spacing" textLength="19.4824" x="521.9448" y="129.0879">FW</text><rect fill="#E2E2F0" height="30.4883" rx="2.5" ry="2.5" style="stroke:#181818;stroke-width:0.5;" width="51.5088" x="698.6997" y="108.5527"/><text fill="#000000" font-family="sans-serif" font-size="14" lengthAdjust="spacing" textLength="37.5088" x="705.6997" y="129.0879">DRBG</text><rect fill="#E2E2F0" height="30.4883" rx="2.5" ry="2.5" style="stroke:#181818;stroke-width:0.5;" width="77.54" x="969.5752" y="108.5527"/><text fill="#000000" font-family="sans-serif" font-size="14" lengthAdjust="spacing" textLength="63.54" x="976.5752" y="129.0879">Key Vault</text><rect fill="#E2E2F0" height="63.4648" rx="2.5" ry="2.5" style="stroke:#181818;stroke-width:0.5;" width="106.8936" x="1131.1523" y="75.5762"/><text fill="#000000" font-family="sans-serif" font-size="14" lengthAdjust="spacing" textLength="63.54" x="1152.8291" y="96.1113">Key Vault</text><text fill="#000000" font-family="sans-serif" font-size="14" lengthAdjust="spacing" textLength="39.9697" x="1164.6143" y="112.5996">Slot G</text><text fill="#000000" font-family="sans-serif" font-size="14" lengthAdjust="spacing" textLength="92.8936" x="1138.1523" y="129.0879">(KEM Keypair)</text><rect fill="#E2E2F0" height="63.4648" rx="2.5" ry="2.5" style="stroke:#181818;stroke-width:0.5;" width="65.3652" x="5" y="761.873"/><text fill="#000000" font-family="sans-serif" font-size="14" lengthAdjust="spacing" textLength="51.3652" x="12" y="782.4082">Storage</text><text fill="#000000" font-family="sans-serif" font-size="14" lengthAdjust="spacing" textLength="44.5498" x="15.4077" y="798.8965">Device</text><text fill="#000000" font-family="sans-serif" font-size="14" lengthAdjust="spacing" textLength="19.4824" x="27.9414" y="815.3848">FW</text><rect fill="#E2E2F0" height="30.4883" rx="2.5" ry="2.5" style="stroke:#181818;stroke-width:0.5;" width="71.5518" x="279.647" y="761.873"/><text fill="#000000" font-family="sans-serif" font-size="14" lengthAdjust="spacing" textLength="57.5518" x="286.647" y="782.4082">Mail Box</text><rect fill="#E2E2F0" height="30.4883" rx="2.5" ry="2.5" style="stroke:#181818;stroke-width:0.5;" width="33.4824" x="514.9448" y="761.873"/><text fill="#000000" font-family="sans-serif" font-size="14" lengthAdjust="spacing" textLength="19.4824" x="521.9448" y="782.4082">FW</text><rect fill="#E2E2F0" height="30.4883" rx="2.5" ry="2.5" style="stroke:#181818;stroke-width:0.5;" width="51.5088" x="698.6997" y="761.873"/><text fill="#000000" font-family="sans-serif" font-size="14" lengthAdjust="spacing" textLength="37.5088" x="705.6997" y="782.4082">DRBG</text><rect fill="#E2E2F0" height="30.4883" rx="2.5" ry="2.5" style="stroke:#181818;stroke-width:0.5;" width="77.54" x="969.5752" y="761.873"/><text fill="#000000" font-family="sans-serif" font-size="14" lengthAdjust="spacing" textLength="63.54" x="976.5752" y="782.4082">Key Vault</text><rect fill="#E2E2F0" height="63.4648" rx="2.5" ry="2.5" style="stroke:#181818;stroke-width:0.5;" width="106.8936" x="1131.1523" y="761.873"/><text fill="#000000" font-family="sans-serif" font-size="14" lengthAdjust="spacing" textLength="63.54" x="1152.8291" y="782.4082">Key Vault</text><text fill="#000000" font-family="sans-serif" font-size="14" lengthAdjust="spacing" textLength="39.9697" x="1164.6143" y="798.8965">Slot G</text><text fill="#000000" font-family="sans-serif" font-size="14" lengthAdjust="spacing" textLength="92.8936" x="1138.1523" y="815.3848">(KEM Keypair)</text><path d="M-0.3821,153.041 L-0.3821,208.041 L1222.6179,208.041 L1222.6179,163.041 L1212.6179,153.041 L-0.3821,153.041 " fill="#FEFFDD" style="stroke:#181818;stroke-width:0.5;"/><path d="M1212.6179,153.041 L1212.6179,163.041 L1222.6179,163.041 L1212.6179,153.041 " fill="#FEFFDD" style="stroke:#181818;stroke-width:0.5;"/><text fill="#000000" font-family="sans-serif" font-size="13" font-weight="bold" lengthAdjust="spacing" textLength="94.999" x="338.8428" y="170.6094">Preconditions:</text><text fill="#000000" font-family="sans-serif" font-size="13" lengthAdjust="spacing" textLength="369.7192" x="351.1826" y="185.9199">* KEM_HANDLE value is a KV slot containing a KEM keypair</text><text fill="#000000" font-family="sans-serif" font-size="13" lengthAdjust="spacing" textLength="523.2563" x="351.1826" y="201.2305">* KEM Keypair has been loaded into KV at power on or has been rotated by this API</text><line style="stroke:#008000;stroke-width:1;" x1="308.4229" x2="298.4229" y1="235.2832" y2="231.2832"/><line style="stroke:#008000;stroke-width:1;" x1="308.4229" x2="298.4229" y1="235.2832" y2="239.2832"/><line style="stroke:#008000;stroke-width:1;" x1="37.6826" x2="309.4229" y1="235.2832" y2="235.2832"/><text fill="#000000" font-family="sans-serif" font-size="13" font-weight="bold" lengthAdjust="spacing" textLength="35.3628" x="44.6826" y="230.541">[001]</text><text fill="#000000" font-family="sans-serif" font-size="13" lengthAdjust="spacing" textLength="209.3774" x="84.0454" y="230.541">ROTATE_ENCAPSULATION_KEY(X)</text><path d="M325.4229,248.2832 L325.4229,307.2832 L789.4229,307.2832 L789.4229,258.2832 L779.4229,248.2832 L325.4229,248.2832 " fill="#FEFFDD" style="stroke:#181818;stroke-width:0.5;"/><path d="M779.4229,248.2832 L779.4229,258.2832 L789.4229,258.2832 L779.4229,248.2832 " fill="#FEFFDD" style="stroke:#181818;stroke-width:0.5;"/><text fill="#000000" font-family="sans-serif" font-size="13" lengthAdjust="spacing" textLength="4.1133" x="331.4229" y="267.8516">&#160;</text><text fill="#000000" font-family="sans-serif" font-size="13" font-weight="bold" lengthAdjust="spacing" textLength="32.1509" x="335.5361" y="267.8516">Field</text><text fill="#000000" font-family="sans-serif" font-size="13" lengthAdjust="spacing" textLength="4.1133" x="415.6245" y="267.8516">&#160;</text><text fill="#000000" font-family="sans-serif" font-size="13" font-weight="bold" lengthAdjust="spacing" textLength="26.9521" x="419.7378" y="267.8516">Size</text><text fill="#000000" font-family="sans-serif" font-size="13" lengthAdjust="spacing" textLength="4.1133" x="464.8125" y="267.8516">&#160;</text><text fill="#000000" font-family="sans-serif" font-size="13" font-weight="bold" lengthAdjust="spacing" textLength="66.644" x="468.9258" y="267.8516">Definition</text><text fill="#000000" font-family="sans-serif" font-size="13" lengthAdjust="spacing" textLength="49.1563" x="335.5361" y="283.1621">chksum</text><text fill="#000000" font-family="sans-serif" font-size="13" lengthAdjust="spacing" textLength="24.5083" x="419.7378" y="283.1621">u32</text><text fill="#000000" font-family="sans-serif" font-size="13" lengthAdjust="spacing" textLength="78.0254" x="468.9258" y="283.1621">Little endian</text><text fill="#000000" font-family="sans-serif" font-size="13" lengthAdjust="spacing" textLength="75.9751" x="335.5361" y="298.4727">kem_handle</text><text fill="#000000" font-family="sans-serif" font-size="13" lengthAdjust="spacing" textLength="24.5083" x="419.7378" y="298.4727">u32</text><text fill="#000000" font-family="sans-serif" font-size="13" lengthAdjust="spacing" textLength="305.5508" x="468.9258" y="298.4727">Handle for old KEM keypair held in KMB memory</text><line style="stroke:#000000;stroke-width:0.5;" x1="331.4229" x2="774.4766" y1="255.2832" y2="255.2832"/><line style="stroke:#000000;stroke-width:0.5;" x1="331.4229" x2="774.4766" y1="270.5938" y2="270.5938"/><line style="stroke:#000000;stroke-width:0.5;" x1="331.4229" x2="774.4766" y1="285.9043" y2="285.9043"/><line style="stroke:#000000;stroke-width:0.5;" x1="331.4229" x2="774.4766" y1="301.2148" y2="301.2148"/><line style="stroke:#000000;stroke-width:0.5;" x1="331.4229" x2="331.4229" y1="255.2832" y2="301.2148"/><line style="stroke:#000000;stroke-width:0.5;" x1="415.6245" x2="415.6245" y1="255.2832" y2="301.2148"/><line style="stroke:#000000;stroke-width:0.5;" x1="464.8125" x2="464.8125" y1="255.2832" y2="301.2148"/><line style="stroke:#000000;stroke-width:0.5;" x1="774.4766" x2="774.4766" y1="255.2832" y2="301.2148"/><line style="stroke:#008000;stroke-width:1;" x1="524.686" x2="514.686" y1="334.5254" y2="330.5254"/><line style="stroke:#008000;stroke-width:1;" x1="524.686" x2="514.686" y1="334.5254" y2="338.5254"/><line style="stroke:#008000;stroke-width:1;" x1="320.4229" x2="525.686" y1="334.5254" y2="334.5254"/><text fill="#000000" font-family="sans-serif" font-size="13" font-weight="bold" lengthAdjust="spacing" textLength="35.3628" x="327.4229" y="329.7832">[002]</text><text fill="#000000" font-family="sans-serif" font-size="13" lengthAdjust="spacing" textLength="64.6826" x="366.7856" y="329.7832">Command</text><polygon fill="#FF0000" points="331.4229,359.8359,321.4229,363.8359,331.4229,367.8359,327.4229,363.8359" style="stroke:#FF0000;stroke-width:1;"/><line style="stroke:#FF0000;stroke-width:1;" x1="325.4229" x2="525.686" y1="363.8359" y2="363.8359"/><text fill="#000000" font-family="sans-serif" font-size="13" font-weight="bold" lengthAdjust="spacing" textLength="35.3628" x="337.4229" y="359.0938">[003]</text><text fill="#000000" font-family="sans-serif" font-size="13" lengthAdjust="spacing" textLength="87.9595" x="376.7856" y="359.0938">Get command</text><line style="stroke:#FF0000;stroke-width:1;" x1="536.686" x2="578.686" y1="393.1465" y2="393.1465"/><line style="stroke:#FF0000;stroke-width:1;" x1="578.686" x2="578.686" y1="393.1465" y2="406.1465"/><line style="stroke:#FF0000;stroke-width:1;" x1="537.686" x2="578.686" y1="406.1465" y2="406.1465"/><polygon fill="#FF0000" points="547.686,402.1465,537.686,406.1465,547.686,410.1465,543.686,406.1465" style="stroke:#FF0000;stroke-width:1;"/><text fill="#000000" font-family="sans-serif" font-size="13" font-weight="bold" lengthAdjust="spacing" textLength="35.3628" x="543.686" y="388.4043">[004]</text><text fill="#000000" font-family="sans-serif" font-size="13" lengthAdjust="spacing" textLength="134.4053" x="583.0488" y="388.4043">Determine Command</text><path d="M496.686,418.1465 L558.8247,418.1465 L558.8247,425.457 L548.8247,435.457 L496.686,435.457 L496.686,418.1465 " fill="#EEEEEE" style="stroke:#000000;stroke-width:1.5;"/><rect fill="transparent" height="189.8633" style="stroke:#000000;stroke-width:1.5;" width="728.9131" x="496.686" y="418.1465"/><text fill="#000000" font-family="sans-serif" font-size="13" font-weight="bold" lengthAdjust="spacing" textLength="17.1387" x="511.686" y="431.7148">alt</text><text fill="#000000" font-family="sans-serif" font-size="11" font-weight="bold" lengthAdjust="spacing" textLength="252.812" x="573.8247" y="430.7813">[kem_handle (XG has a Key Pair in KV slot G]</text><path d="M515.686,449.457 L577.8247,449.457 L577.8247,456.7676 L567.8247,466.7676 L515.686,466.7676 L515.686,449.457 " fill="#EEEEEE" style="stroke:#000000;stroke-width:1.5;"/><rect fill="transparent" height="144.5527" style="stroke:#000000;stroke-width:1.5;" width="684.9131" x="515.686" y="449.457"/><text fill="#000000" font-family="sans-serif" font-size="13" font-weight="bold" lengthAdjust="spacing" textLength="17.1387" x="530.686" y="463.0254">alt</text><text fill="#000000" font-family="sans-serif" font-size="11" font-weight="bold" lengthAdjust="spacing" textLength="201.126" x="592.8247" y="462.0918">[kem_algorithm = ecdh_secp384r1]</text><polygon fill="#FF0000" points="991.3452,494.0781,1001.3452,498.0781,991.3452,502.0781,995.3452,498.0781" style="stroke:#FF0000;stroke-width:1;"/><line style="stroke:#FF0000;stroke-width:1;" x1="536.686" x2="997.3452" y1="498.0781" y2="498.0781"/><text fill="#000000" font-family="sans-serif" font-size="13" font-weight="bold" lengthAdjust="spacing" textLength="35.3628" x="543.686" y="493.3359">[005]</text><text fill="#000000" font-family="sans-serif" font-size="13" lengthAdjust="spacing" textLength="241.6426" x="583.0488" y="493.3359">generate_ecdh_secp384r1(Key: Slot G)</text><polygon fill="#FF0000" points="735.4541,523.3887,725.4541,527.3887,735.4541,531.3887,731.4541,527.3887" style="stroke:#FF0000;stroke-width:1;"/><line style="stroke:#FF0000;stroke-width:1;" x1="729.4541" x2="1002.3452" y1="527.3887" y2="527.3887"/><text fill="#000000" font-family="sans-serif" font-size="13" font-weight="bold" lengthAdjust="spacing" textLength="35.3628" x="741.4541" y="522.6465">[006]</text><text fill="#000000" font-family="sans-serif" font-size="13" lengthAdjust="spacing" textLength="215.5283" x="780.8169" y="522.6465">Get random bytes for KEM keypair</text><polygon fill="#FF0000" points="1167.5991,552.6992,1177.5991,556.6992,1167.5991,560.6992,1171.5991,556.6992" style="stroke:#FF0000;stroke-width:1;"/><line style="stroke:#FF0000;stroke-width:1;" x1="1013.3452" x2="1173.5991" y1="556.6992" y2="556.6992"/><text fill="#000000" font-family="sans-serif" font-size="13" font-weight="bold" lengthAdjust="spacing" textLength="35.3628" x="1020.3452" y="551.957">[007]</text><text fill="#000000" font-family="sans-serif" font-size="13" lengthAdjust="spacing" textLength="107.8911" x="1059.708" y="551.957">New KEM keypair</text><polygon fill="#FF0000" points="547.686,582.0098,537.686,586.0098,547.686,590.0098,543.686,586.0098" style="stroke:#FF0000;stroke-width:1;"/><line style="stroke:#FF0000;stroke-width:1;" x1="541.686" x2="1002.3452" y1="586.0098" y2="586.0098"/><text fill="#000000" font-family="sans-serif" font-size="13" font-weight="bold" lengthAdjust="spacing" textLength="35.3628" x="553.686" y="581.2676">[008]</text><text fill="#000000" font-family="sans-serif" font-size="13" lengthAdjust="spacing" textLength="31.478" x="593.0488" y="581.2676">done</text><polygon fill="#FF0000" points="326.4229,654.6309,316.4229,658.6309,326.4229,662.6309,322.4229,658.6309" style="stroke:#FF0000;stroke-width:1;"/><line style="stroke:#FF0000;stroke-width:1;" x1="320.4229" x2="525.686" y1="658.6309" y2="658.6309"/><text fill="#000000" font-family="sans-serif" font-size="13" font-weight="bold" lengthAdjust="spacing" textLength="35.3628" x="332.4229" y="646.2334">[009]</text><text fill="#000000" font-family="sans-serif" font-size="13" lengthAdjust="spacing" textLength="128.9907" x="371.7856" y="638.5781">Command Response</text><text fill="#000000" font-family="sans-serif" font-size="13" lengthAdjust="spacing" textLength="143.7871" x="375.8989" y="653.8887">kem_handle is set to G</text><line style="stroke:#008000;stroke-width:1;" x1="43.6826" x2="53.6826" y1="658.6309" y2="654.6309"/><line style="stroke:#008000;stroke-width:1;" x1="43.6826" x2="53.6826" y1="658.6309" y2="662.6309"/><line style="stroke:#008000;stroke-width:1;" x1="42.6826" x2="314.4229" y1="658.6309" y2="658.6309"/><text fill="#000000" font-family="sans-serif" font-size="13" font-weight="bold" lengthAdjust="spacing" textLength="35.3628" x="59.6826" y="646.2334">[010]</text><text fill="#000000" font-family="sans-serif" font-size="13" lengthAdjust="spacing" textLength="64.6826" x="99.0454" y="638.5781">Command</text><text fill="#000000" font-family="sans-serif" font-size="13" lengthAdjust="spacing" textLength="60.4043" x="99.0454" y="653.8887">Complete</text><path d="M320.4229,671.6309 L320.4229,746.6309 L821.4229,746.6309 L821.4229,681.6309 L811.4229,671.6309 L320.4229,671.6309 " fill="#FEFFDD" style="stroke:#181818;stroke-width:0.5;"/><path d="M811.4229,671.6309 L811.4229,681.6309 L821.4229,681.6309 L811.4229,671.6309 " fill="#FEFFDD" style="stroke:#181818;stroke-width:0.5;"/><text fill="#000000" font-family="sans-serif" font-size="13" lengthAdjust="spacing" textLength="4.1133" x="326.4229" y="691.1992">&#160;</text><text fill="#000000" font-family="sans-serif" font-size="13" font-weight="bold" lengthAdjust="spacing" textLength="32.1509" x="330.5361" y="691.1992">Field</text><text fill="#000000" font-family="sans-serif" font-size="13" lengthAdjust="spacing" textLength="4.1133" x="410.6245" y="691.1992">&#160;</text><text fill="#000000" font-family="sans-serif" font-size="13" font-weight="bold" lengthAdjust="spacing" textLength="26.9521" x="414.7378" y="691.1992">Size</text><text fill="#000000" font-family="sans-serif" font-size="13" lengthAdjust="spacing" textLength="4.1133" x="459.8125" y="691.1992">&#160;</text><text fill="#000000" font-family="sans-serif" font-size="13" font-weight="bold" lengthAdjust="spacing" textLength="66.644" x="463.9258" y="691.1992">Definition</text><text fill="#000000" font-family="sans-serif" font-size="13" lengthAdjust="spacing" textLength="49.1563" x="330.5361" y="706.5098">chksum</text><text fill="#000000" font-family="sans-serif" font-size="13" lengthAdjust="spacing" textLength="24.5083" x="414.7378" y="706.5098">u32</text><text fill="#000000" font-family="sans-serif" font-size="13" lengthAdjust="spacing" textLength="78.0254" x="463.9258" y="706.5098">Little endian</text><text fill="#000000" font-family="sans-serif" font-size="13" lengthAdjust="spacing" textLength="68.0723" x="330.5361" y="721.8203">fips_status</text><text fill="#000000" font-family="sans-serif" font-size="13" lengthAdjust="spacing" textLength="24.5083" x="414.7378" y="721.8203">u32</text><text fill="#000000" font-family="sans-serif" font-size="13" lengthAdjust="spacing" textLength="338.4253" x="463.9258" y="721.8203">Indicates if the command is FIPS approved or an error</text><text fill="#000000" font-family="sans-serif" font-size="13" lengthAdjust="spacing" textLength="75.9751" x="330.5361" y="737.1309">kem_handle</text><text fill="#000000" font-family="sans-serif" font-size="13" lengthAdjust="spacing" textLength="24.5083" x="414.7378" y="737.1309">u32</text><text fill="#000000" font-family="sans-serif" font-size="13" lengthAdjust="spacing" textLength="310.9526" x="463.9258" y="737.1309">Handle for new KEM keypair held in KMB memory</text><line style="stroke:#000000;stroke-width:0.5;" x1="326.4229" x2="806.4644" y1="678.6309" y2="678.6309"/><line style="stroke:#000000;stroke-width:0.5;" x1="326.4229" x2="806.4644" y1="693.9414" y2="693.9414"/><line style="stroke:#000000;stroke-width:0.5;" x1="326.4229" x2="806.4644" y1="709.252" y2="709.252"/><line style="stroke:#000000;stroke-width:0.5;" x1="326.4229" x2="806.4644" y1="724.5625" y2="724.5625"/><line style="stroke:#000000;stroke-width:0.5;" x1="326.4229" x2="806.4644" y1="739.873" y2="739.873"/><line style="stroke:#000000;stroke-width:0.5;" x1="326.4229" x2="326.4229" y1="678.6309" y2="739.873"/><line style="stroke:#000000;stroke-width:0.5;" x1="410.6245" x2="410.6245" y1="678.6309" y2="739.873"/><line style="stroke:#000000;stroke-width:0.5;" x1="459.8125" x2="459.8125" y1="678.6309" y2="739.873"/><line style="stroke:#000000;stroke-width:0.5;" x1="806.4644" x2="806.4644" y1="678.6309" y2="739.873"/><text fill="#888888" font-family="sans-serif" font-size="10" lengthAdjust="spacing" textLength="194.1357" x="528.9551" y="846.0059">Filename: rotate_encapsulation_key.uml</text><!--SRC=[pLHHRzem47xFhxWYDC4OcxRkOK9R9Te6YcWf0bfrKgN891TYuTYHRK1C_V4x9m6IZPUzBLAaittV-Rxlxdp1PIWs4O8Aiq2eS1riB1Vc8srxtWMFeTKqYTe5bbk1RG_eMpWJ6ZDbcKNmPSWoin7CSYLXZFk6Tu4oud4DdcaCbOoA058HZeLQ6PEltVTzUJKjVBWBP7hVFoslZgVqlOUn_n3SzIUtzpvicTWWS0CCnizWXB90KCkuv7BbDlq7MEC-Orp_5SFbw0uWOGQMY1A4OX56mALLBXopaAaTQY0-gkAcSy8HBFTW4xgxFntbmObjJkd8UutfgjE1vlNJOE3FWlxDOlJSNumU9vuNxw39p5w6a2x9fGUpnqL_uGV-vAO_dJ_Tvsx1sF_PUcdN16GPhuYd-Ign5E98xiq9EE0eeiDYpdzXOTrYJBhavNch0C9aRJPfkTXSVYcjUsvTUHqLLWSGhI1XCX9O0zmLMp59fUZwYlIGk7muTSN3DQIOAhr_EwzOkZp84iQxN9SRbQOKkAP1QbP1nhIX6XTQX4xEKat23D6rGO5pn-cosysDfa4HjnhatlW0ZLkqg5CkyN19eqs928Cdq24l9coLTkjbcBS3Spq4KqVHiIixSEZb0GuO9bPASvkay0CmZ9B0O9XTVlkgFnyrFUM_tdOwFLYXH4qz5jJzMtHR3-Rv7UqZUBqjiPgIAyWxIwNKe1PDNf1pSt34kJObrIQuE-jN4JvI4jlLGJe58GhTBaLnBYVeKSsJVrcAuZXNj-m4p_tU7wKiAmCpD1cz1lWggtMWuJD4byPrwBs3K_FKU-TLaf49glR_DaanpqnWw3NPc2fWH9uXSxMZR6s2XsPsV0UZwHnObccrfIU8IaiXKMio_cr4PRtQPqOKpizeNcZF-mq0]--></g></svg>