<svg xmlns="http://www.w3.org/2000/svg" xmlns:xlink="http://www.w3.org/1999/xlink" contentStyleType="text/css" data-diagram-type="SEQUENCE" height="1303px" preserveAspectRatio="none" style="width:1293px;height:1303px;background:#FFFFFF;" version="1.1" viewBox="0 0 1293 1303" width="1293px" zoomAndPan="magnify"><title>Unload MEK</title><defs/><g><rect fill="#DDDDDD" height="1223.041" style="stroke:#181818;stroke-width:0.5;" width="264.9229" x="153.8481" y="56.2656"/><text fill="#000000" font-family="sans-serif" font-size="13" font-weight="bold" lengthAdjust="spacing" textLength="52.7935" x="259.9128" y="68.834">Caliptra</text><rect fill="#DDDDDD" height="1223.041" style="stroke:#181818;stroke-width:0.5;" width="400.1597" x="781.8491" y="56.2656"/><text fill="#000000" font-family="sans-serif" font-size="13" font-weight="bold" lengthAdjust="spacing" textLength="121.291" x="921.2834" y="68.834">Encryption Engine</text><text fill="#888888" font-family="sans-serif" font-size="10" lengthAdjust="spacing" textLength="46.0254" x="1239.7827" y="14.668">Version 1</text><text fill="#000000" font-family="sans-serif" font-size="14" font-weight="bold" lengthAdjust="spacing" textLength="86.1738" x="602.3171" y="41.3125">Unload MEK</text><g><title>Storage</title><rect fill="transparent" height="1068.8008" width="8" x="34.1826" y="140.041"/><line style="stroke:#181818;stroke-width:0.5;stroke-dasharray:5.0,5.0;" x1="37.6826" x2="37.6826" y1="140.041" y2="1208.8418"/></g><g><title/><rect fill="#FFFFFF" height="87.9316" style="stroke:#181818;stroke-width:1;" width="10" x="32.6826" y="1120.9102"/></g><g><title>Mail Box</title><rect fill="transparent" height="1068.8008" width="8" x="190.124" y="140.041"/><line style="stroke:#181818;stroke-width:0.5;stroke-dasharray:5.0,5.0;" x1="193.624" x2="193.624" y1="140.041" y2="1208.8418"/></g><g><title/><rect fill="#FFFFFF" height="159.1738" style="stroke:#181818;stroke-width:1;" width="10" x="188.624" y="219.9727"/></g><g><title>FW</title><rect fill="transparent" height="1068.8008" width="8" x="394.5298" y="140.041"/><line style="stroke:#181818;stroke-width:0.5;stroke-dasharray:5.0,5.0;" x1="398.0298" x2="398.0298" y1="140.041" y2="1208.8418"/></g><g><title/><rect fill="#FFFFFF" height="771.0742" style="stroke:#181818;stroke-width:1;" width="10" x="393.0298" y="349.8359"/></g><g><title>SFR</title><rect fill="transparent" height="1068.8008" width="8" x="819.0171" y="140.041"/><line style="stroke:#181818;stroke-width:0.5;stroke-dasharray:5.0,5.0;" x1="822.5171" x2="822.5171" y1="140.041" y2="1208.8418"/></g><g><title>Control</title><rect fill="transparent" height="1068.8008" width="8" x="998.4512" y="140.041"/><line style="stroke:#181818;stroke-width:0.5;stroke-dasharray:5.0,5.0;" x1="1001.9512" x2="1001.9512" y1="140.041" y2="1208.8418"/></g><g><title/><rect fill="#FFFFFF" height="236.7949" style="stroke:#181818;stroke-width:1;" width="10" x="996.9512" y="730.252"/></g><g><title>Key Cache</title><rect fill="transparent" height="1068.8008" width="8" x="1132.6284" y="140.041"/><line style="stroke:#181818;stroke-width:0.5;stroke-dasharray:5.0,5.0;" x1="1136.1284" x2="1136.1284" y1="140.041" y2="1208.8418"/></g><rect fill="#E2E2F0" height="63.4648" rx="2.5" ry="2.5" style="stroke:#181818;stroke-width:0.5;" width="65.3652" x="5" y="75.5762"/><text fill="#000000" font-family="sans-serif" font-size="14" lengthAdjust="spacing" textLength="51.3652" x="12" y="96.1113">Storage</text><text fill="#000000" font-family="sans-serif" font-size="14" lengthAdjust="spacing" textLength="44.5498" x="15.4077" y="112.5996">Device</text><text fill="#000000" font-family="sans-serif" font-size="14" lengthAdjust="spacing" textLength="19.4824" x="27.9414" y="129.0879">FW</text><rect fill="#E2E2F0" height="30.4883" rx="2.5" ry="2.5" style="stroke:#181818;stroke-width:0.5;" width="71.5518" x="157.8481" y="108.5527"/><text fill="#000000" font-family="sans-serif" font-size="14" lengthAdjust="spacing" textLength="57.5518" x="164.8481" y="129.0879">Mail Box</text><rect fill="#E2E2F0" height="30.4883" rx="2.5" ry="2.5" style="stroke:#181818;stroke-width:0.5;" width="33.4824" x="381.2886" y="108.5527"/><text fill="#000000" font-family="sans-serif" font-size="14" lengthAdjust="spacing" textLength="19.4824" x="388.2886" y="129.0879">FW</text><rect fill="#E2E2F0" height="46.9766" rx="2.5" ry="2.5" style="stroke:#181818;stroke-width:0.5;" width="73.3359" x="785.8491" y="92.0645"/><text fill="#000000" font-family="sans-serif" font-size="14" lengthAdjust="spacing" textLength="23.8984" x="810.5679" y="112.5996">SFR</text><text fill="#000000" font-family="sans-serif" font-size="14" lengthAdjust="spacing" textLength="59.3359" x="792.8491" y="129.0879">Interface</text><rect fill="#E2E2F0" height="30.4883" rx="2.5" ry="2.5" style="stroke:#181818;stroke-width:0.5;" width="64.5859" x="969.6582" y="108.5527"/><text fill="#000000" font-family="sans-serif" font-size="14" lengthAdjust="spacing" textLength="50.5859" x="976.6582" y="129.0879">Control</text><rect fill="#E2E2F0" height="30.4883" rx="2.5" ry="2.5" style="stroke:#181818;stroke-width:0.5;" width="83.7607" x="1094.248" y="108.5527"/><text fill="#000000" font-family="sans-serif" font-size="14" lengthAdjust="spacing" textLength="69.7607" x="1101.248" y="129.0879">Key Cache</text><rect fill="#E2E2F0" height="63.4648" rx="2.5" ry="2.5" style="stroke:#181818;stroke-width:0.5;" width="65.3652" x="5" y="1208.8418"/><text fill="#000000" font-family="sans-serif" font-size="14" lengthAdjust="spacing" textLength="51.3652" x="12" y="1229.377">Storage</text><text fill="#000000" font-family="sans-serif" font-size="14" lengthAdjust="spacing" textLength="44.5498" x="15.4077" y="1245.8652">Device</text><text fill="#000000" font-family="sans-serif" font-size="14" lengthAdjust="spacing" textLength="19.4824" x="27.9414" y="1262.3535">FW</text><rect fill="#E2E2F0" height="30.4883" rx="2.5" ry="2.5" style="stroke:#181818;stroke-width:0.5;" width="71.5518" x="157.8481" y="1208.8418"/><text fill="#000000" font-family="sans-serif" font-size="14" lengthAdjust="spacing" textLength="57.5518" x="164.8481" y="1229.377">Mail Box</text><rect fill="#E2E2F0" height="30.4883" rx="2.5" ry="2.5" style="stroke:#181818;stroke-width:0.5;" width="33.4824" x="381.2886" y="1208.8418"/><text fill="#000000" font-family="sans-serif" font-size="14" lengthAdjust="spacing" textLength="19.4824" x="388.2886" y="1229.377">FW</text><rect fill="#E2E2F0" height="46.9766" rx="2.5" ry="2.5" style="stroke:#181818;stroke-width:0.5;" width="73.3359" x="785.8491" y="1208.8418"/><text fill="#000000" font-family="sans-serif" font-size="14" lengthAdjust="spacing" textLength="23.8984" x="810.5679" y="1229.377">SFR</text><text fill="#000000" font-family="sans-serif" font-size="14" lengthAdjust="spacing" textLength="59.3359" x="792.8491" y="1245.8652">Interface</text><rect fill="#E2E2F0" height="30.4883" rx="2.5" ry="2.5" style="stroke:#181818;stroke-width:0.5;" width="64.5859" x="969.6582" y="1208.8418"/><text fill="#000000" font-family="sans-serif" font-size="14" lengthAdjust="spacing" textLength="50.5859" x="976.6582" y="1229.377">Control</text><rect fill="#E2E2F0" height="30.4883" rx="2.5" ry="2.5" style="stroke:#181818;stroke-width:0.5;" width="83.7607" x="1094.248" y="1208.8418"/><text fill="#000000" font-family="sans-serif" font-size="14" lengthAdjust="spacing" textLength="69.7607" x="1101.248" y="1229.377">Key Cache</text><path d="M5.4011,153.041 L5.4011,193.041 L1168.4011,193.041 L1168.4011,163.041 L1158.4011,153.041 L5.4011,153.041 " fill="#FEFFDD" style="stroke:#181818;stroke-width:0.5;"/><path d="M1158.4011,153.041 L1158.4011,163.041 L1168.4011,163.041 L1158.4011,153.041 " fill="#FEFFDD" style="stroke:#181818;stroke-width:0.5;"/><text fill="#000000" font-family="sans-serif" font-size="13" font-weight="bold" lengthAdjust="spacing" textLength="94.999" x="422.1575" y="170.6094">Preconditions:</text><ellipse cx="427.6575" cy="181.1621" fill="#000000" rx="2.5" ry="2.5"/><text fill="#000000" font-family="sans-serif" font-size="13" lengthAdjust="spacing" textLength="308.4961" x="434.1575" y="185.9199">None - a MEK may or may not have been loaded.</text><line style="stroke:#008000;stroke-width:1;" x1="186.624" x2="176.624" y1="219.9727" y2="215.9727"/><line style="stroke:#008000;stroke-width:1;" x1="186.624" x2="176.624" y1="219.9727" y2="223.9727"/><line style="stroke:#008000;stroke-width:1;" x1="37.6826" x2="187.624" y1="219.9727" y2="219.9727"/><text fill="#000000" font-family="sans-serif" font-size="13" font-weight="bold" lengthAdjust="spacing" textLength="35.3628" x="44.6826" y="215.2305">[001]</text><text fill="#000000" font-family="sans-serif" font-size="13" lengthAdjust="spacing" textLength="87.5786" x="84.0454" y="215.2305">UNLOAD_MEK</text><path d="M203.624,232.9727 L203.624,322.9727 L862.624,322.9727 L862.624,242.9727 L852.624,232.9727 L203.624,232.9727 " fill="#FEFFDD" style="stroke:#181818;stroke-width:0.5;"/><path d="M852.624,232.9727 L852.624,242.9727 L862.624,242.9727 L852.624,232.9727 " fill="#FEFFDD" style="stroke:#181818;stroke-width:0.5;"/><text fill="#000000" font-family="sans-serif" font-size="13" lengthAdjust="spacing" textLength="29.9102" x="213.7373" y="252.541">Field</text><text fill="#000000" font-family="sans-serif" font-size="13" lengthAdjust="spacing" textLength="25.4541" x="308.4697" y="252.541">Size</text><text fill="#000000" font-family="sans-serif" font-size="13" lengthAdjust="spacing" textLength="62.0166" x="357.8799" y="252.541">Definition</text><text fill="#000000" font-family="sans-serif" font-size="13" lengthAdjust="spacing" textLength="49.1563" x="213.7373" y="267.8516">chksum</text><text fill="#000000" font-family="sans-serif" font-size="13" lengthAdjust="spacing" textLength="24.5083" x="308.4697" y="267.8516">u32</text><text fill="#000000" font-family="sans-serif" font-size="13" lengthAdjust="spacing" textLength="78.0254" x="357.8799" y="267.8516">Little endian</text><text fill="#000000" font-family="sans-serif" font-size="13" lengthAdjust="spacing" textLength="58.8237" x="213.7373" y="283.1621">metadata</text><text fill="#000000" font-family="sans-serif" font-size="13" lengthAdjust="spacing" textLength="41.1836" x="308.4697" y="283.1621">u8[20]</text><text fill="#000000" font-family="sans-serif" font-size="13" lengthAdjust="spacing" textLength="485.9956" x="357.8799" y="283.1621">Metadata for MEK to load into the drive crypto engine (i.e. NSID + LBA range)</text><text fill="#000000" font-family="sans-serif" font-size="13" lengthAdjust="spacing" textLength="75.7085" x="213.7373" y="298.4727">rdy_timeout</text><text fill="#000000" font-family="sans-serif" font-size="13" lengthAdjust="spacing" textLength="24.5083" x="308.4697" y="298.4727">u32</text><text fill="#000000" font-family="sans-serif" font-size="13" lengthAdjust="spacing" textLength="469.6758" x="357.8799" y="298.4727">Timeout in ms for encryption engine to become ready for a new command</text><text fill="#000000" font-family="sans-serif" font-size="13" lengthAdjust="spacing" textLength="82.3926" x="213.7373" y="313.7832">cmd_timeout</text><text fill="#000000" font-family="sans-serif" font-size="13" lengthAdjust="spacing" textLength="24.5083" x="308.4697" y="313.7832">u32</text><text fill="#000000" font-family="sans-serif" font-size="13" lengthAdjust="spacing" textLength="366.3613" x="357.8799" y="313.7832">Timeout in ms for command to crypto engine to complete</text><line style="stroke:#000000;stroke-width:0.5;" x1="209.624" x2="847.9888" y1="239.9727" y2="239.9727"/><line style="stroke:#000000;stroke-width:0.5;" x1="209.624" x2="847.9888" y1="255.2832" y2="255.2832"/><line style="stroke:#000000;stroke-width:0.5;" x1="209.624" x2="847.9888" y1="270.5938" y2="270.5938"/><line style="stroke:#000000;stroke-width:0.5;" x1="209.624" x2="847.9888" y1="285.9043" y2="285.9043"/><line style="stroke:#000000;stroke-width:0.5;" x1="209.624" x2="847.9888" y1="301.2148" y2="301.2148"/><line style="stroke:#000000;stroke-width:0.5;" x1="209.624" x2="847.9888" y1="316.5254" y2="316.5254"/><line style="stroke:#000000;stroke-width:0.5;" x1="209.624" x2="209.624" y1="239.9727" y2="316.5254"/><line style="stroke:#000000;stroke-width:0.5;" x1="304.3564" x2="304.3564" y1="239.9727" y2="316.5254"/><line style="stroke:#000000;stroke-width:0.5;" x1="353.7666" x2="353.7666" y1="239.9727" y2="316.5254"/><line style="stroke:#000000;stroke-width:0.5;" x1="847.9888" x2="847.9888" y1="239.9727" y2="316.5254"/><line style="stroke:#008000;stroke-width:1;" x1="391.0298" x2="381.0298" y1="349.8359" y2="345.8359"/><line style="stroke:#008000;stroke-width:1;" x1="391.0298" x2="381.0298" y1="349.8359" y2="353.8359"/><line style="stroke:#008000;stroke-width:1;" x1="198.624" x2="392.0298" y1="349.8359" y2="349.8359"/><text fill="#000000" font-family="sans-serif" font-size="13" font-weight="bold" lengthAdjust="spacing" textLength="35.3628" x="205.624" y="345.0938">[002]</text><text fill="#000000" font-family="sans-serif" font-size="13" lengthAdjust="spacing" textLength="64.6826" x="244.9868" y="345.0938">Command</text><polygon fill="#FF0000" points="209.624,375.1465,199.624,379.1465,209.624,383.1465,205.624,379.1465" style="stroke:#FF0000;stroke-width:1;"/><line style="stroke:#FF0000;stroke-width:1;" x1="203.624" x2="392.0298" y1="379.1465" y2="379.1465"/><text fill="#000000" font-family="sans-serif" font-size="13" font-weight="bold" lengthAdjust="spacing" textLength="35.3628" x="215.624" y="374.4043">[003]</text><text fill="#000000" font-family="sans-serif" font-size="13" lengthAdjust="spacing" textLength="87.9595" x="254.9868" y="374.4043">Get command</text><line style="stroke:#FF0000;stroke-width:1;" x1="403.0298" x2="445.0298" y1="408.457" y2="408.457"/><line style="stroke:#FF0000;stroke-width:1;" x1="445.0298" x2="445.0298" y1="408.457" y2="421.457"/><line style="stroke:#FF0000;stroke-width:1;" x1="404.0298" x2="445.0298" y1="421.457" y2="421.457"/><polygon fill="#FF0000" points="414.0298,417.457,404.0298,421.457,414.0298,425.457,410.0298,421.457" style="stroke:#FF0000;stroke-width:1;"/><text fill="#000000" font-family="sans-serif" font-size="13" font-weight="bold" lengthAdjust="spacing" textLength="35.3628" x="410.0298" y="403.7148">[004]</text><text fill="#000000" font-family="sans-serif" font-size="13" lengthAdjust="spacing" textLength="132.0693" x="449.3926" y="403.7148">Determine command</text><polygon fill="#FF0000" points="810.5171,446.7676,820.5171,450.7676,810.5171,454.7676,814.5171,450.7676" style="stroke:#FF0000;stroke-width:1;"/><line style="stroke:#FF0000;stroke-width:1;" x1="403.0298" x2="816.5171" y1="450.7676" y2="450.7676"/><text fill="#000000" font-family="sans-serif" font-size="13" font-weight="bold" lengthAdjust="spacing" textLength="35.3628" x="410.0298" y="446.0254">[005]</text><text fill="#000000" font-family="sans-serif" font-size="13" lengthAdjust="spacing" textLength="109.5923" x="449.3926" y="446.0254">Read Control Reg</text><path d="M363.0298,462.7676 L425.1685,462.7676 L425.1685,470.0781 L415.1685,480.0781 L363.0298,480.0781 L363.0298,462.7676 " fill="#EEEEEE" style="stroke:#000000;stroke-width:1.5;"/><rect fill="transparent" height="202.8633" style="stroke:#000000;stroke-width:1.5;" width="556.9912" x="363.0298" y="462.7676"/><text fill="#000000" font-family="sans-serif" font-size="13" font-weight="bold" lengthAdjust="spacing" textLength="17.1387" x="378.0298" y="476.3359">alt</text><text fill="#000000" font-family="sans-serif" font-size="11" font-weight="bold" lengthAdjust="spacing" textLength="225.1777" x="440.1685" y="475.4023">[(DN == 1b || ERR == 1b || EXE == 1b)]</text><polygon fill="#FF0000" points="810.5171,507.3887,820.5171,511.3887,810.5171,515.3887,814.5171,511.3887" style="stroke:#FF0000;stroke-width:1;"/><line style="stroke:#FF0000;stroke-width:1;" x1="403.0298" x2="816.5171" y1="511.3887" y2="511.3887"/><text fill="#000000" font-family="sans-serif" font-size="13" font-weight="bold" lengthAdjust="spacing" textLength="35.3628" x="410.0298" y="506.6465">[006]</text><text fill="#000000" font-family="sans-serif" font-size="13" lengthAdjust="spacing" textLength="177.9438" x="449.3926" y="506.6465">Write Control Reg (DN = 1b)</text><line style="stroke:#FF0000;stroke-width:1;" x1="403.0298" x2="445.0298" y1="540.6992" y2="540.6992"/><line style="stroke:#FF0000;stroke-width:1;" x1="445.0298" x2="445.0298" y1="540.6992" y2="553.6992"/><line style="stroke:#FF0000;stroke-width:1;" x1="404.0298" x2="445.0298" y1="553.6992" y2="553.6992"/><polygon fill="#FF0000" points="414.0298,549.6992,404.0298,553.6992,414.0298,557.6992,410.0298,553.6992" style="stroke:#FF0000;stroke-width:1;"/><text fill="#000000" font-family="sans-serif" font-size="13" font-weight="bold" lengthAdjust="spacing" textLength="35.3628" x="410.0298" y="535.957">[007]</text><text fill="#000000" font-family="sans-serif" font-size="13" lengthAdjust="spacing" textLength="82.2529" x="449.3926" y="535.957">Start timeout</text><polygon fill="#FF0000" points="810.5171,579.0098,820.5171,583.0098,810.5171,587.0098,814.5171,583.0098" style="stroke:#FF0000;stroke-width:1;"/><line style="stroke:#FF0000;stroke-width:1;" x1="403.0298" x2="816.5171" y1="583.0098" y2="583.0098"/><text fill="#000000" font-family="sans-serif" font-size="13" font-weight="bold" lengthAdjust="spacing" textLength="35.3628" x="410.0298" y="578.2676">[008]</text><text fill="#000000" font-family="sans-serif" font-size="13" lengthAdjust="spacing" textLength="109.5923" x="449.3926" y="578.2676">Read Control Reg</text><path d="M382.0298,595.0098 L879.021,595.0098 L879.021,602.3203 L869.021,612.3203 L382.0298,612.3203 L382.0298,595.0098 " fill="#EEEEEE" style="stroke:#000000;stroke-width:1.5;"/><rect fill="transparent" height="56.6211" style="stroke:#000000;stroke-width:1.5;" width="512.9912" x="382.0298" y="595.0098"/><text fill="#000000" font-family="sans-serif" font-size="13" font-weight="bold" lengthAdjust="spacing" textLength="451.9912" x="397.0298" y="608.5781">loop until (rdy_timeout or (DN == 0b &amp;&amp; ERR == 0b &amp;&amp; EXE == 0b)</text><polygon fill="#FF0000" points="810.5171,639.6309,820.5171,643.6309,810.5171,647.6309,814.5171,643.6309" style="stroke:#FF0000;stroke-width:1;"/><line style="stroke:#FF0000;stroke-width:1;" x1="403.0298" x2="816.5171" y1="643.6309" y2="643.6309"/><text fill="#000000" font-family="sans-serif" font-size="13" font-weight="bold" lengthAdjust="spacing" textLength="35.3628" x="410.0298" y="638.8887">[009]</text><text fill="#000000" font-family="sans-serif" font-size="13" lengthAdjust="spacing" textLength="109.5923" x="449.3926" y="638.8887">Read Control Reg</text><polygon fill="#FF0000" points="810.5171,696.9414,820.5171,700.9414,810.5171,704.9414,814.5171,700.9414" style="stroke:#FF0000;stroke-width:1;"/><line style="stroke:#FF0000;stroke-width:1;" x1="403.0298" x2="816.5171" y1="700.9414" y2="700.9414"/><text fill="#000000" font-family="sans-serif" font-size="13" font-weight="bold" lengthAdjust="spacing" textLength="35.3628" x="410.0298" y="696.1992">[010]</text><text fill="#000000" font-family="sans-serif" font-size="13" lengthAdjust="spacing" textLength="94.3008" x="449.3926" y="696.1992">Write Metadata</text><polygon fill="#FF0000" points="810.5171,726.252,820.5171,730.252,810.5171,734.252,814.5171,730.252" style="stroke:#FF0000;stroke-width:1;"/><line style="stroke:#FF0000;stroke-width:1;" x1="403.0298" x2="816.5171" y1="730.252" y2="730.252"/><text fill="#000000" font-family="sans-serif" font-size="13" font-weight="bold" lengthAdjust="spacing" textLength="35.3628" x="410.0298" y="725.5098">[011]</text><text fill="#000000" font-family="sans-serif" font-size="13" lengthAdjust="spacing" textLength="361.1245" x="449.3926" y="725.5098">Write Control Reg (CMD = Unload_MEK, DN = 0, EXE = 1)</text><line style="stroke:#008000;stroke-width:1;" x1="994.9512" x2="984.9512" y1="730.252" y2="726.252"/><line style="stroke:#008000;stroke-width:1;" x1="994.9512" x2="984.9512" y1="730.252" y2="734.252"/><line style="stroke:#008000;stroke-width:1;" x1="822.5171" x2="995.9512" y1="730.252" y2="730.252"/><text fill="#000000" font-family="sans-serif" font-size="13" font-weight="bold" lengthAdjust="spacing" textLength="35.3628" x="829.5171" y="725.5098">[012]</text><text fill="#000000" font-family="sans-serif" font-size="13" lengthAdjust="spacing" textLength="4.1133" x="868.8799" y="725.5098">&#160;</text><line style="stroke:#FF0000;stroke-width:1;" x1="403.0298" x2="445.0298" y1="759.5625" y2="759.5625"/><line style="stroke:#FF0000;stroke-width:1;" x1="445.0298" x2="445.0298" y1="759.5625" y2="772.5625"/><line style="stroke:#FF0000;stroke-width:1;" x1="404.0298" x2="445.0298" y1="772.5625" y2="772.5625"/><polygon fill="#FF0000" points="414.0298,768.5625,404.0298,772.5625,414.0298,776.5625,410.0298,772.5625" style="stroke:#FF0000;stroke-width:1;"/><text fill="#000000" font-family="sans-serif" font-size="13" font-weight="bold" lengthAdjust="spacing" textLength="35.3628" x="410.0298" y="754.8203">[013]</text><text fill="#000000" font-family="sans-serif" font-size="13" lengthAdjust="spacing" textLength="82.2529" x="449.3926" y="754.8203">Start timeout</text><polygon fill="#FF0000" points="810.5171,797.873,820.5171,801.873,810.5171,805.873,814.5171,801.873" style="stroke:#FF0000;stroke-width:1;"/><line style="stroke:#FF0000;stroke-width:1;" x1="403.0298" x2="816.5171" y1="801.873" y2="801.873"/><text fill="#000000" font-family="sans-serif" font-size="13" font-weight="bold" lengthAdjust="spacing" textLength="35.3628" x="410.0298" y="797.1309">[014]</text><text fill="#000000" font-family="sans-serif" font-size="13" lengthAdjust="spacing" textLength="109.5923" x="449.3926" y="797.1309">Read Control Reg</text><polygon fill="#FF0000" points="833.5171,827.1836,823.5171,831.1836,833.5171,835.1836,829.5171,831.1836" style="stroke:#FF0000;stroke-width:1;"/><line style="stroke:#FF0000;stroke-width:1;" x1="827.5171" x2="995.9512" y1="831.1836" y2="831.1836"/><text fill="#000000" font-family="sans-serif" font-size="13" font-weight="bold" lengthAdjust="spacing" textLength="35.3628" x="839.5171" y="826.4414">[015]</text><text fill="#000000" font-family="sans-serif" font-size="13" lengthAdjust="spacing" textLength="92.8218" x="878.8799" y="826.4414">Read Metadata</text><polygon fill="#FF0000" points="1124.1284,856.4941,1134.1284,860.4941,1124.1284,864.4941,1128.1284,860.4941" style="stroke:#FF0000;stroke-width:1;"/><line style="stroke:#FF0000;stroke-width:1;" x1="1006.9512" x2="1130.1284" y1="860.4941" y2="860.4941"/><text fill="#000000" font-family="sans-serif" font-size="13" font-weight="bold" lengthAdjust="spacing" textLength="35.3628" x="1013.9512" y="855.752">[016]</text><text fill="#000000" font-family="sans-serif" font-size="13" lengthAdjust="spacing" textLength="70.8145" x="1053.314" y="855.752">Unload Key</text><path d="M382.0298,872.4941 L671.1289,872.4941 L671.1289,879.8047 L661.1289,889.8047 L382.0298,889.8047 L382.0298,872.4941 " fill="#EEEEEE" style="stroke:#000000;stroke-width:1.5;"/><rect fill="transparent" height="131.8633" style="stroke:#000000;stroke-width:1.5;" width="635.9214" x="382.0298" y="872.4941"/><text fill="#000000" font-family="sans-serif" font-size="13" font-weight="bold" lengthAdjust="spacing" textLength="244.0991" x="397.0298" y="886.0625">loop until (cmd_timeout or DN = 1b)</text><line style="stroke:#008000;stroke-width:1;" x1="823.5171" x2="833.5171" y1="967.0469" y2="963.0469"/><line style="stroke:#008000;stroke-width:1;" x1="823.5171" x2="833.5171" y1="967.0469" y2="971.0469"/><line style="stroke:#008000;stroke-width:1;" x1="822.5171" x2="995.9512" y1="967.0469" y2="967.0469"/><text fill="#000000" font-family="sans-serif" font-size="13" font-weight="bold" lengthAdjust="spacing" textLength="35.3628" x="839.5171" y="939.3389">[017]</text><text fill="#000000" font-family="sans-serif" font-size="13" lengthAdjust="spacing" textLength="111.0713" x="878.8799" y="916.373">Write Control Reg</text><text fill="#000000" font-family="sans-serif" font-size="13" lengthAdjust="spacing" textLength="62.645" x="878.8799" y="931.6836">(DN = 1b,</text><text fill="#000000" font-family="sans-serif" font-size="13" lengthAdjust="spacing" textLength="62.5625" x="882.9932" y="946.9941">ERR = 0b,</text><text fill="#000000" font-family="sans-serif" font-size="13" lengthAdjust="spacing" textLength="61.4199" x="882.9932" y="962.3047">EXE = 0b)</text><polygon fill="#FF0000" points="810.5171,992.3574,820.5171,996.3574,810.5171,1000.3574,814.5171,996.3574" style="stroke:#FF0000;stroke-width:1;"/><line style="stroke:#FF0000;stroke-width:1;" x1="403.0298" x2="816.5171" y1="996.3574" y2="996.3574"/><text fill="#000000" font-family="sans-serif" font-size="13" font-weight="bold" lengthAdjust="spacing" textLength="35.3628" x="410.0298" y="991.6152">[018]</text><text fill="#000000" font-family="sans-serif" font-size="13" lengthAdjust="spacing" textLength="109.5923" x="449.3926" y="991.6152">Read Control Reg</text><polygon fill="#FF0000" points="810.5171,1035.668,820.5171,1039.668,810.5171,1043.668,814.5171,1039.668" style="stroke:#FF0000;stroke-width:1;"/><line style="stroke:#FF0000;stroke-width:1;" x1="403.0298" x2="816.5171" y1="1039.668" y2="1039.668"/><text fill="#000000" font-family="sans-serif" font-size="13" font-weight="bold" lengthAdjust="spacing" textLength="35.3628" x="410.0298" y="1034.9258">[019]</text><text fill="#000000" font-family="sans-serif" font-size="13" lengthAdjust="spacing" textLength="177.9438" x="449.3926" y="1034.9258">Write Control Reg (DN = 1b)</text><path d="M827.5171,1023.3574 L827.5171,1048.3574 L1281.5171,1048.3574 L1281.5171,1033.3574 L1271.5171,1023.3574 L827.5171,1023.3574 " fill="#FEFFDD" style="stroke:#181818;stroke-width:0.5;"/><path d="M1271.5171,1023.3574 L1271.5171,1033.3574 L1281.5171,1033.3574 L1271.5171,1023.3574 " fill="#FEFFDD" style="stroke:#181818;stroke-width:0.5;"/><text fill="#000000" font-family="sans-serif" font-size="13" lengthAdjust="spacing" textLength="433.291" x="833.5171" y="1040.9258">Reset the SFR interface for next operation - not waiting for response</text><polygon fill="#FF0000" points="204.624,1116.9102,194.624,1120.9102,204.624,1124.9102,200.624,1120.9102" style="stroke:#FF0000;stroke-width:1;"/><line style="stroke:#FF0000;stroke-width:1;" x1="198.624" x2="392.0298" y1="1120.9102" y2="1120.9102"/><text fill="#000000" font-family="sans-serif" font-size="13" font-weight="bold" lengthAdjust="spacing" textLength="35.3628" x="210.624" y="1093.2021">[020]</text><text fill="#000000" font-family="sans-serif" font-size="13" lengthAdjust="spacing" textLength="64.6826" x="249.9868" y="1070.2363">Command</text><text fill="#000000" font-family="sans-serif" font-size="13" lengthAdjust="spacing" textLength="57.2939" x="249.9868" y="1085.5469">response</text><text fill="#000000" font-family="sans-serif" font-size="13" lengthAdjust="spacing" textLength="136.043" x="249.9868" y="1100.8574">(Status = Control Reg</text><text fill="#000000" font-family="sans-serif" font-size="13" lengthAdjust="spacing" textLength="67.0503" x="311.686" y="1116.168">Error field)</text><line style="stroke:#008000;stroke-width:1;" x1="43.6826" x2="53.6826" y1="1120.9102" y2="1116.9102"/><line style="stroke:#008000;stroke-width:1;" x1="43.6826" x2="53.6826" y1="1120.9102" y2="1124.9102"/><line style="stroke:#008000;stroke-width:1;" x1="42.6826" x2="192.624" y1="1120.9102" y2="1120.9102"/><text fill="#000000" font-family="sans-serif" font-size="13" font-weight="bold" lengthAdjust="spacing" textLength="35.3628" x="59.6826" y="1108.5127">[021]</text><text fill="#000000" font-family="sans-serif" font-size="13" lengthAdjust="spacing" textLength="64.6826" x="99.0454" y="1100.8574">Command</text><text fill="#000000" font-family="sans-serif" font-size="13" lengthAdjust="spacing" textLength="58.0684" x="99.0454" y="1116.168">complete</text><path d="M198.624,1133.9102 L198.624,1192.9102 L692.624,1192.9102 L692.624,1143.9102 L682.624,1133.9102 L198.624,1133.9102 " fill="#FEFFDD" style="stroke:#181818;stroke-width:0.5;"/><path d="M682.624,1133.9102 L682.624,1143.9102 L692.624,1143.9102 L682.624,1133.9102 " fill="#FEFFDD" style="stroke:#181818;stroke-width:0.5;"/><text fill="#000000" font-family="sans-serif" font-size="13" lengthAdjust="spacing" textLength="4.1133" x="204.624" y="1153.4785">&#160;</text><text fill="#000000" font-family="sans-serif" font-size="13" font-weight="bold" lengthAdjust="spacing" textLength="32.1509" x="208.7373" y="1153.4785">Field</text><text fill="#000000" font-family="sans-serif" font-size="13" lengthAdjust="spacing" textLength="4.1133" x="282.5732" y="1153.4785">&#160;</text><text fill="#000000" font-family="sans-serif" font-size="13" font-weight="bold" lengthAdjust="spacing" textLength="26.9521" x="286.6865" y="1153.4785">Size</text><text fill="#000000" font-family="sans-serif" font-size="13" lengthAdjust="spacing" textLength="4.1133" x="331.7612" y="1153.4785">&#160;</text><text fill="#000000" font-family="sans-serif" font-size="13" font-weight="bold" lengthAdjust="spacing" textLength="66.644" x="335.8745" y="1153.4785">Definition</text><text fill="#000000" font-family="sans-serif" font-size="13" lengthAdjust="spacing" textLength="49.1563" x="208.7373" y="1168.7891">chksum</text><text fill="#000000" font-family="sans-serif" font-size="13" lengthAdjust="spacing" textLength="24.5083" x="286.6865" y="1168.7891">u32</text><text fill="#000000" font-family="sans-serif" font-size="13" lengthAdjust="spacing" textLength="78.0254" x="335.8745" y="1168.7891">Little endian</text><text fill="#000000" font-family="sans-serif" font-size="13" lengthAdjust="spacing" textLength="68.0723" x="208.7373" y="1184.0996">fips_status</text><text fill="#000000" font-family="sans-serif" font-size="13" lengthAdjust="spacing" textLength="24.5083" x="286.6865" y="1184.0996">u32</text><text fill="#000000" font-family="sans-serif" font-size="13" lengthAdjust="spacing" textLength="338.4253" x="335.8745" y="1184.0996">Indicates if the command is FIPS approved or an error</text><line style="stroke:#000000;stroke-width:0.5;" x1="204.624" x2="678.4131" y1="1140.9102" y2="1140.9102"/><line style="stroke:#000000;stroke-width:0.5;" x1="204.624" x2="678.4131" y1="1156.2207" y2="1156.2207"/><line style="stroke:#000000;stroke-width:0.5;" x1="204.624" x2="678.4131" y1="1171.5313" y2="1171.5313"/><line style="stroke:#000000;stroke-width:0.5;" x1="204.624" x2="678.4131" y1="1186.8418" y2="1186.8418"/><line style="stroke:#000000;stroke-width:0.5;" x1="204.624" x2="204.624" y1="1140.9102" y2="1186.8418"/><line style="stroke:#000000;stroke-width:0.5;" x1="282.5732" x2="282.5732" y1="1140.9102" y2="1186.8418"/><line style="stroke:#000000;stroke-width:0.5;" x1="331.7612" x2="331.7612" y1="1140.9102" y2="1186.8418"/><line style="stroke:#000000;stroke-width:0.5;" x1="678.4131" x2="678.4131" y1="1140.9102" y2="1186.8418"/><text fill="#888888" font-family="sans-serif" font-size="10" lengthAdjust="spacing" textLength="130.2881" x="580.26" y="1292.9746">Filename: unload_mek.uml</text><!--SRC=[dLLjRzis4FxENt4siioUaypjlWn1Kw2hao5eaXLnYmre1eEIJZOHYHH8gfw7_FWTIL6MOxNrAi0moNjxxhdZSI1aMjGPWaghHQ7InqLjHM7Ew9YnmP5PgVM25mLSm0zMrpWQinztJtDU67VC1YA7KIiQCw2lKQqqfafc7ISTeHMsm7uHhqI_e3JBHSMr4NBPhv0fsVKvG0Bv1KGnWJv8FR86Ku_a6QWUZOWgYWOeCv7lKET31wCF7iNmeomKp-3syjsmpw3999X8PH5ugfKnVk- -Lydhzq57MA6aEN_rS_AwbVu4TmxKAN0N0Kg-0QNz7_c25V-Ca21AS1WmE_Ds1C97Qk6mV0r7t6na2cKocS0vVBox-UFDR44kMI2WqnoL6BVXFM0jbYjBbksf-vxWIc2HRRTpyI-w_ndcGlfKuEcPHRfwD7NPRkjVNlh_6s4TamuitpSgqVACMnwDVltqSletBMxZUKw4E6wiyYo0aBIoAuHC2w8drPkA3b0k1H4v4cTu1dVpwnbCuEQtDw2vNE9uBwhEDbJh4bLjkr0_D4T2GcbyP9G-W4kt2K714gfdISGXppPUYuF4DT1XoQauUxoKsM71eWCAiPkMEr1bLI2LQ-kzRGHVugOPoYJsGfglVJEy3LvtshPpMK8tfAw7cXOYcz_HHZHUN2QdftvnPB38HqDI7vx0S4Q0TEaGDih3xcNtHX7NDe39DKMu9_88chHQ5RHPCiOB2wFP7LnSm8i4dfxWylw-i_dhCcoUumtk_jI2kEdu2wwy_ZC3jpg7kUNQGbEMNfTx29tIKgkweaPK5TIIHZMCkgr4DMmoc2PmV1mpQ3OXWsb4T71COf2v7oCTOhG_zNXV63k0chUtC-8cZ3Ot9Kx0apKz2I3XnPWTU-kcbH0dawxZFWeFg33YlaABknK-fcw2XR7x3ZUCxNFUlL74-RRIWI-Ck3rXVHGyoDWU9myob8aAuzUUWEaNscml9rUNK1RsVrfoEtYTJqEtpKsq-TMz6s-eSvwYdmWI_w4CAzJSZw1J_ooiESrVUkMSWaPJqQk2h1lVN-7csZ_8g48vKyLiRGZ33XMm-rrgJOvpD_vT6sm7okuyUP1n9Bd8Ze3lVMdeYMmV6x_pRurV7VZQnA7wxUSc5vLPc413r-gQr5DkqG0bu6eHPx4mS7NzVWwyghJwZ9dhD_ABdgIlp-B_0000]--></g></svg>