<svg xmlns="http://www.w3.org/2000/svg" xmlns:xlink="http://www.w3.org/1999/xlink" contentStyleType="text/css" data-diagram-type="SEQUENCE" height="1285px" preserveAspectRatio="none" style="width:1182px;height:1285px;background:#FFFFFF;" version="1.1" viewBox="0 0 1182 1285" width="1182px" zoomAndPan="magnify"><title>Clear the key cache in the encryption engine</title><defs/><g><rect fill="#DDDDDD" height="1235.9609" style="stroke:#181818;stroke-width:0.5;" width="231.8252" x="195.9116" y="43.2969"/><text fill="#000000" font-family="sans-serif" font-size="13" font-weight="bold" lengthAdjust="spacing" textLength="57.9287" x="282.8599" y="55.3638">Caliptra</text><rect fill="#DDDDDD" height="1235.9609" style="stroke:#181818;stroke-width:0.5;" width="381.7759" x="794.4941" y="43.2969"/><text fill="#000000" font-family="sans-serif" font-size="13" font-weight="bold" lengthAdjust="spacing" textLength="133.3198" x="918.7222" y="55.3638">Encryption engine</text><text fill="#000000" font-family="sans-serif" font-size="14" font-weight="bold" lengthAdjust="spacing" textLength="354.1836" x="416.0432" y="27.9951">Clear the key cache in the encryption engine</text><g><title>Storage</title><rect fill="#000000" fill-opacity="0.00000" height="1083.0469" width="8" x="35.8882" y="126.3203"/><line style="stroke:#181818;stroke-width:0.5;stroke-dasharray:5.0,5.0;" x1="39.3882" x2="39.3882" y1="126.3203" y2="1209.3672"/></g><g><title/><rect fill="#FFFFFF" height="92.3984" style="stroke:#181818;stroke-width:1;" width="10" x="34.3882" y="1116.9688"/></g><g><title>Mail Box</title><rect fill="#000000" fill-opacity="0.00000" height="1083.0469" width="8" x="233.083" y="126.3203"/><line style="stroke:#181818;stroke-width:0.5;stroke-dasharray:5.0,5.0;" x1="236.583" x2="236.583" y1="126.3203" y2="1209.3672"/></g><g><title/><rect fill="#FFFFFF" height="142.7969" style="stroke:#181818;stroke-width:1;" width="10" x="231.583" y="251.1172"/></g><g><title>FW</title><rect fill="#000000" fill-opacity="0.00000" height="1083.0469" width="8" x="402.2891" y="126.3203"/><line style="stroke:#181818;stroke-width:0.5;stroke-dasharray:5.0,5.0;" x1="405.7891" x2="405.7891" y1="126.3203" y2="1209.3672"/></g><g><title/><rect fill="#FFFFFF" height="752.1875" style="stroke:#181818;stroke-width:1;" width="10" x="400.7891" y="364.7813"/></g><g><title>SFR</title><rect fill="#000000" fill-opacity="0.00000" height="1083.0469" width="8" x="833.3335" y="126.3203"/><line style="stroke:#181818;stroke-width:0.5;stroke-dasharray:5.0,5.0;" x1="836.8335" x2="836.8335" y1="126.3203" y2="1209.3672"/></g><g><title>Control</title><rect fill="#000000" fill-opacity="0.00000" height="1083.0469" width="8" x="1021.083" y="126.3203"/><line style="stroke:#181818;stroke-width:0.5;stroke-dasharray:5.0,5.0;" x1="1024.583" x2="1024.583" y1="126.3203" y2="1209.3672"/></g><g><title/><rect fill="#FFFFFF" height="235.1953" style="stroke:#181818;stroke-width:1;" width="10" x="1019.583" y="745.2422"/></g><g><title>Key cache</title><rect fill="#000000" fill-opacity="0.00000" height="1083.0469" width="8" x="1125.7754" y="126.3203"/><line style="stroke:#181818;stroke-width:0.5;stroke-dasharray:5.0,5.0;" x1="1129.2754" x2="1129.2754" y1="126.3203" y2="1209.3672"/></g><rect fill="#E2E2F0" height="62.8906" rx="2.5" ry="2.5" style="stroke:#181818;stroke-width:0.5;" width="68.7764" x="5" y="62.4297"/><text fill="#000000" font-family="sans-serif" font-size="14" lengthAdjust="spacing" textLength="54.7764" x="12" y="82.4248">Storage</text><text fill="#000000" font-family="sans-serif" font-size="14" lengthAdjust="spacing" textLength="47.8789" x="15.4487" y="98.7217">Device</text><text fill="#000000" font-family="sans-serif" font-size="14" lengthAdjust="spacing" textLength="21.8955" x="28.4404" y="115.0186">FW</text><rect fill="#E2E2F0" height="30.2969" rx="2.5" ry="2.5" style="stroke:#181818;stroke-width:0.5;" width="73.3428" x="199.9116" y="95.0234"/><text fill="#000000" font-family="sans-serif" font-size="14" lengthAdjust="spacing" textLength="59.3428" x="206.9116" y="115.0186">Mail Box</text><rect fill="#E2E2F0" height="30.2969" rx="2.5" ry="2.5" style="stroke:#181818;stroke-width:0.5;" width="35.8955" x="387.8413" y="95.0234"/><text fill="#000000" font-family="sans-serif" font-size="14" lengthAdjust="spacing" textLength="21.8955" x="394.8413" y="115.0186">FW</text><rect fill="#E2E2F0" height="46.5938" rx="2.5" ry="2.5" style="stroke:#181818;stroke-width:0.5;" width="76.6787" x="798.4941" y="78.7266"/><text fill="#000000" font-family="sans-serif" font-size="14" lengthAdjust="spacing" textLength="26.667" x="823.5" y="98.7217">SFR</text><text fill="#000000" font-family="sans-serif" font-size="14" lengthAdjust="spacing" textLength="62.6787" x="805.4941" y="115.0186">Interface</text><rect fill="#E2E2F0" height="30.2969" rx="2.5" ry="2.5" style="stroke:#181818;stroke-width:0.5;" width="64.9141" x="992.126" y="95.0234"/><text fill="#000000" font-family="sans-serif" font-size="14" lengthAdjust="spacing" textLength="50.9141" x="999.126" y="115.0186">Control</text><rect fill="#E2E2F0" height="30.2969" rx="2.5" ry="2.5" style="stroke:#181818;stroke-width:0.5;" width="85.9893" x="1086.2808" y="95.0234"/><text fill="#000000" font-family="sans-serif" font-size="14" lengthAdjust="spacing" textLength="71.9893" x="1093.2808" y="115.0186">Key cache</text><rect fill="#E2E2F0" height="62.8906" rx="2.5" ry="2.5" style="stroke:#181818;stroke-width:0.5;" width="68.7764" x="5" y="1209.3672"/><text fill="#000000" font-family="sans-serif" font-size="14" lengthAdjust="spacing" textLength="54.7764" x="12" y="1229.3623">Storage</text><text fill="#000000" font-family="sans-serif" font-size="14" lengthAdjust="spacing" textLength="47.8789" x="15.4487" y="1245.6592">Device</text><text fill="#000000" font-family="sans-serif" font-size="14" lengthAdjust="spacing" textLength="21.8955" x="28.4404" y="1261.9561">FW</text><rect fill="#E2E2F0" height="30.2969" rx="2.5" ry="2.5" style="stroke:#181818;stroke-width:0.5;" width="73.3428" x="199.9116" y="1209.3672"/><text fill="#000000" font-family="sans-serif" font-size="14" lengthAdjust="spacing" textLength="59.3428" x="206.9116" y="1229.3623">Mail Box</text><rect fill="#E2E2F0" height="30.2969" rx="2.5" ry="2.5" style="stroke:#181818;stroke-width:0.5;" width="35.8955" x="387.8413" y="1209.3672"/><text fill="#000000" font-family="sans-serif" font-size="14" lengthAdjust="spacing" textLength="21.8955" x="394.8413" y="1229.3623">FW</text><rect fill="#E2E2F0" height="46.5938" rx="2.5" ry="2.5" style="stroke:#181818;stroke-width:0.5;" width="76.6787" x="798.4941" y="1209.3672"/><text fill="#000000" font-family="sans-serif" font-size="14" lengthAdjust="spacing" textLength="26.667" x="823.5" y="1229.3623">SFR</text><text fill="#000000" font-family="sans-serif" font-size="14" lengthAdjust="spacing" textLength="62.6787" x="805.4941" y="1245.6592">Interface</text><rect fill="#E2E2F0" height="30.2969" rx="2.5" ry="2.5" style="stroke:#181818;stroke-width:0.5;" width="64.9141" x="992.126" y="1209.3672"/><text fill="#000000" font-family="sans-serif" font-size="14" lengthAdjust="spacing" textLength="50.9141" x="999.126" y="1229.3623">Control</text><rect fill="#E2E2F0" height="30.2969" rx="2.5" ry="2.5" style="stroke:#181818;stroke-width:0.5;" width="85.9893" x="1086.2808" y="1209.3672"/><text fill="#000000" font-family="sans-serif" font-size="14" lengthAdjust="spacing" textLength="71.9893" x="1093.2808" y="1229.3623">Key cache</text><path d="M5.6968,139.3203 L5.6968,224.3203 L1162.6968,224.3203 L1162.6968,149.3203 L1152.6968,139.3203 L5.6968,139.3203" fill="#FEFFDD" style="stroke:#181818;stroke-width:0.5;"/><path d="M1152.6968,139.3203 L1152.6968,149.3203 L1162.6968,149.3203 L1152.6968,139.3203" fill="#FEFFDD" style="stroke:#181818;stroke-width:0.5;"/><text fill="#000000" font-family="sans-serif" font-size="13" font-weight="bold" lengthAdjust="spacing" textLength="106.2026" x="187.0977" y="156.3872">Preconditions:</text><ellipse cx="192.5977" cy="167.0859" fill="#000000" rx="2.5" ry="2.5"/><text fill="#000000" font-family="sans-serif" font-size="13" lengthAdjust="spacing" textLength="483.0439" x="199.0977" y="171.52">Keys may or may not be loaded in the key cache of the encryption engine</text><text fill="#000000" font-family="sans-serif" font-size="13" lengthAdjust="spacing" textLength="4.1323" x="187.0977" y="186.6528">&#160;</text><text fill="#000000" font-family="sans-serif" font-size="13" font-weight="bold" lengthAdjust="spacing" textLength="47.7788" x="187.0977" y="201.7856">Notes:</text><ellipse cx="192.5977" cy="212.4844" fill="#000000" rx="2.5" ry="2.5"/><text fill="#000000" font-family="sans-serif" font-size="13" lengthAdjust="spacing" textLength="773.4683" x="199.0977" y="216.9185">This sequence diagram is not showing any error reporting due to timeouts or errors reported by the encryption engine</text><line style="stroke:#008000;stroke-width:1;" x1="229.583" x2="219.583" y1="251.1172" y2="247.1172"/><line style="stroke:#008000;stroke-width:1;" x1="229.583" x2="219.583" y1="251.1172" y2="255.1172"/><line style="stroke:#008000;stroke-width:1;" x1="39.3882" x2="230.583" y1="251.1172" y2="251.1172"/><text fill="#000000" font-family="sans-serif" font-size="13" font-weight="bold" lengthAdjust="spacing" textLength="39.019" x="46.3882" y="246.0513">[001]</text><text fill="#000000" font-family="sans-serif" font-size="13" lengthAdjust="spacing" textLength="125.1758" x="89.4072" y="246.0513">CLEAR_KEY_CACHE</text><path d="M246.583,264.1172 L246.583,338.1172 L922.583,338.1172 L922.583,274.1172 L912.583,264.1172 L246.583,264.1172" fill="#FEFFDD" style="stroke:#181818;stroke-width:0.5;"/><path d="M912.583,264.1172 L912.583,274.1172 L922.583,274.1172 L912.583,264.1172" fill="#FEFFDD" style="stroke:#181818;stroke-width:0.5;"/><text fill="#000000" font-family="sans-serif" font-size="13" lengthAdjust="spacing" textLength="4.1323" x="252.583" y="283.1841">&#160;</text><text fill="#000000" font-family="sans-serif" font-size="13" font-weight="bold" lengthAdjust="spacing" textLength="35.915" x="256.7153" y="283.1841">Field</text><text fill="#000000" font-family="sans-serif" font-size="13" lengthAdjust="spacing" textLength="4.1323" x="346.0713" y="283.1841">&#160;</text><text fill="#000000" font-family="sans-serif" font-size="13" font-weight="bold" lengthAdjust="spacing" textLength="30.2021" x="350.2036" y="283.1841">Size</text><text fill="#000000" font-family="sans-serif" font-size="13" lengthAdjust="spacing" textLength="4.1323" x="395.6465" y="283.1841">&#160;</text><text fill="#000000" font-family="sans-serif" font-size="13" font-weight="bold" lengthAdjust="spacing" textLength="72.2871" x="399.7788" y="283.1841">Definition</text><text fill="#000000" font-family="sans-serif" font-size="13" lengthAdjust="spacing" textLength="50.5908" x="256.7153" y="298.3169">chksum</text><text fill="#000000" font-family="sans-serif" font-size="13" lengthAdjust="spacing" textLength="24.7813" x="350.2036" y="298.3169">u32</text><text fill="#000000" font-family="sans-serif" font-size="13" lengthAdjust="spacing" textLength="504.5498" x="399.7788" y="298.3169">Checksum over other input arguments, computed by the caller. Little endian.</text><text fill="#000000" font-family="sans-serif" font-size="13" lengthAdjust="spacing" textLength="78.4507" x="256.7153" y="313.4497">rdy_timeout</text><text fill="#000000" font-family="sans-serif" font-size="13" lengthAdjust="spacing" textLength="24.7813" x="350.2036" y="313.4497">u32</text><text fill="#000000" font-family="sans-serif" font-size="13" lengthAdjust="spacing" textLength="486.0845" x="399.7788" y="313.4497">Timeout in ms for encryption engine to become ready for a new command</text><text fill="#000000" font-family="sans-serif" font-size="13" lengthAdjust="spacing" textLength="85.2236" x="256.7153" y="328.5825">cmd_timeout</text><text fill="#000000" font-family="sans-serif" font-size="13" lengthAdjust="spacing" textLength="24.7813" x="350.2036" y="328.5825">u32</text><text fill="#000000" font-family="sans-serif" font-size="13" lengthAdjust="spacing" textLength="377.3936" x="399.7788" y="328.5825">Timeout in ms for command to crypto engine to complete</text><line style="stroke:#000000;stroke-width:0.5;" x1="252.583" x2="908.4609" y1="271.1172" y2="271.1172"/><line style="stroke:#000000;stroke-width:0.5;" x1="252.583" x2="908.4609" y1="286.25" y2="286.25"/><line style="stroke:#000000;stroke-width:0.5;" x1="252.583" x2="908.4609" y1="301.3828" y2="301.3828"/><line style="stroke:#000000;stroke-width:0.5;" x1="252.583" x2="908.4609" y1="316.5156" y2="316.5156"/><line style="stroke:#000000;stroke-width:0.5;" x1="252.583" x2="908.4609" y1="331.6484" y2="331.6484"/><line style="stroke:#000000;stroke-width:0.5;" x1="252.583" x2="252.583" y1="271.1172" y2="331.6484"/><line style="stroke:#000000;stroke-width:0.5;" x1="346.0713" x2="346.0713" y1="271.1172" y2="331.6484"/><line style="stroke:#000000;stroke-width:0.5;" x1="395.6465" x2="395.6465" y1="271.1172" y2="331.6484"/><line style="stroke:#000000;stroke-width:0.5;" x1="908.4609" x2="908.4609" y1="271.1172" y2="331.6484"/><line style="stroke:#008000;stroke-width:1;" x1="398.7891" x2="388.7891" y1="364.7813" y2="360.7813"/><line style="stroke:#008000;stroke-width:1;" x1="398.7891" x2="388.7891" y1="364.7813" y2="368.7813"/><line style="stroke:#008000;stroke-width:1;" x1="241.583" x2="399.7891" y1="364.7813" y2="364.7813"/><text fill="#000000" font-family="sans-serif" font-size="13" font-weight="bold" lengthAdjust="spacing" textLength="39.019" x="248.583" y="359.7153">[002]</text><text fill="#000000" font-family="sans-serif" font-size="13" lengthAdjust="spacing" textLength="66.8154" x="291.6021" y="359.7153">Command</text><polygon fill="#FF0000" points="252.583,389.9141,242.583,393.9141,252.583,397.9141,248.583,393.9141" style="stroke:#FF0000;stroke-width:1;"/><line style="stroke:#FF0000;stroke-width:1;" x1="246.583" x2="399.7891" y1="393.9141" y2="393.9141"/><text fill="#000000" font-family="sans-serif" font-size="13" font-weight="bold" lengthAdjust="spacing" textLength="39.019" x="258.583" y="388.8481">[003]</text><text fill="#000000" font-family="sans-serif" font-size="13" lengthAdjust="spacing" textLength="92.187" x="301.6021" y="388.8481">Get command</text><line style="stroke:#FF0000;stroke-width:1;" x1="410.7891" x2="452.7891" y1="423.0469" y2="423.0469"/><line style="stroke:#FF0000;stroke-width:1;" x1="452.7891" x2="452.7891" y1="423.0469" y2="436.0469"/><line style="stroke:#FF0000;stroke-width:1;" x1="411.7891" x2="452.7891" y1="436.0469" y2="436.0469"/><polygon fill="#FF0000" points="421.7891,432.0469,411.7891,436.0469,421.7891,440.0469,417.7891,436.0469" style="stroke:#FF0000;stroke-width:1;"/><text fill="#000000" font-family="sans-serif" font-size="13" font-weight="bold" lengthAdjust="spacing" textLength="39.019" x="417.7891" y="417.981">[004]</text><text fill="#000000" font-family="sans-serif" font-size="13" lengthAdjust="spacing" textLength="137.979" x="460.8081" y="417.981">Determine command</text><path d="M343.4854,448.0469 L407.9282,448.0469 L407.9282,455.1797 L397.9282,465.1797 L343.4854,465.1797 L343.4854,448.0469" fill="#EEEEEE" style="stroke:#000000;stroke-width:1.5;"/><rect fill="none" height="618.6563" style="stroke:#000000;stroke-width:1.5;" width="801.79" x="343.4854" y="448.0469"/><text fill="#000000" font-family="sans-serif" font-size="13" font-weight="bold" lengthAdjust="spacing" textLength="19.4429" x="358.4854" y="461.1138">alt</text><text fill="#000000" font-family="sans-serif" font-size="11" font-weight="bold" lengthAdjust="spacing" textLength="239.8408" x="422.9282" y="460.2573">[Encryption engine has become ready]</text><polygon fill="#FF0000" points="824.8335,492.3125,834.8335,496.3125,824.8335,500.3125,828.8335,496.3125" style="stroke:#FF0000;stroke-width:1;"/><line style="stroke:#FF0000;stroke-width:1;" x1="410.7891" x2="830.8335" y1="496.3125" y2="496.3125"/><text fill="#000000" font-family="sans-serif" font-size="13" font-weight="bold" lengthAdjust="spacing" textLength="39.019" x="417.7891" y="491.2466">[005]</text><text fill="#000000" font-family="sans-serif" font-size="13" lengthAdjust="spacing" textLength="114.0737" x="460.8081" y="491.2466">Read Control Reg</text><path d="M370.7891,508.3125 L435.2319,508.3125 L435.2319,515.4453 L425.2319,525.4453 L370.7891,525.4453 L370.7891,508.3125" fill="#EEEEEE" style="stroke:#000000;stroke-width:1.5;"/><rect fill="none" height="201.7969" style="stroke:#000000;stroke-width:1.5;" width="599.0254" x="370.7891" y="508.3125"/><text fill="#000000" font-family="sans-serif" font-size="13" font-weight="bold" lengthAdjust="spacing" textLength="19.4429" x="385.7891" y="521.3794">alt</text><text fill="#000000" font-family="sans-serif" font-size="11" font-weight="bold" lengthAdjust="spacing" textLength="242.6606" x="450.2319" y="520.5229">[(DN == 1b || ERR == 1b || EXE == 1b)]</text><polygon fill="#FF0000" points="824.8335,552.5781,834.8335,556.5781,824.8335,560.5781,828.8335,556.5781" style="stroke:#FF0000;stroke-width:1;"/><line style="stroke:#FF0000;stroke-width:1;" x1="410.7891" x2="830.8335" y1="556.5781" y2="556.5781"/><text fill="#000000" font-family="sans-serif" font-size="13" font-weight="bold" lengthAdjust="spacing" textLength="39.019" x="417.7891" y="551.5122">[006]</text><text fill="#000000" font-family="sans-serif" font-size="13" lengthAdjust="spacing" textLength="185.4214" x="460.8081" y="551.5122">Write Control Reg (DN = 1b)</text><line style="stroke:#FF0000;stroke-width:1;" x1="410.7891" x2="452.7891" y1="585.7109" y2="585.7109"/><line style="stroke:#FF0000;stroke-width:1;" x1="452.7891" x2="452.7891" y1="585.7109" y2="598.7109"/><line style="stroke:#FF0000;stroke-width:1;" x1="411.7891" x2="452.7891" y1="598.7109" y2="598.7109"/><polygon fill="#FF0000" points="421.7891,594.7109,411.7891,598.7109,421.7891,602.7109,417.7891,598.7109" style="stroke:#FF0000;stroke-width:1;"/><text fill="#000000" font-family="sans-serif" font-size="13" font-weight="bold" lengthAdjust="spacing" textLength="39.019" x="417.7891" y="580.645">[007]</text><text fill="#000000" font-family="sans-serif" font-size="13" lengthAdjust="spacing" textLength="86.5503" x="460.8081" y="580.645">Start timeout</text><polygon fill="#FF0000" points="824.8335,623.8438,834.8335,627.8438,824.8335,631.8438,828.8335,627.8438" style="stroke:#FF0000;stroke-width:1;"/><line style="stroke:#FF0000;stroke-width:1;" x1="410.7891" x2="830.8335" y1="627.8438" y2="627.8438"/><text fill="#000000" font-family="sans-serif" font-size="13" font-weight="bold" lengthAdjust="spacing" textLength="39.019" x="417.7891" y="622.7778">[008]</text><text fill="#000000" font-family="sans-serif" font-size="13" lengthAdjust="spacing" textLength="114.0737" x="460.8081" y="622.7778">Read Control Reg</text><path d="M389.7891,639.8438 L928.8145,639.8438 L928.8145,646.9766 L918.8145,656.9766 L389.7891,656.9766 L389.7891,639.8438" fill="#EEEEEE" style="stroke:#000000;stroke-width:1.5;"/><rect fill="none" height="56.2656" style="stroke:#000000;stroke-width:1.5;" width="555.0254" x="389.7891" y="639.8438"/><text fill="#000000" font-family="sans-serif" font-size="13" font-weight="bold" lengthAdjust="spacing" textLength="494.0254" x="404.7891" y="652.9106">loop until (rdy_timeout or (DN == 0b &amp;&amp; ERR == 0b &amp;&amp; EXE == 0b)</text><polygon fill="#FF0000" points="824.8335,684.1094,834.8335,688.1094,824.8335,692.1094,828.8335,688.1094" style="stroke:#FF0000;stroke-width:1;"/><line style="stroke:#FF0000;stroke-width:1;" x1="410.7891" x2="830.8335" y1="688.1094" y2="688.1094"/><text fill="#000000" font-family="sans-serif" font-size="13" font-weight="bold" lengthAdjust="spacing" textLength="39.019" x="417.7891" y="683.0435">[009]</text><text fill="#000000" font-family="sans-serif" font-size="13" lengthAdjust="spacing" textLength="114.0737" x="460.8081" y="683.0435">Read Control Reg</text><polygon fill="#FF0000" points="824.8335,741.2422,834.8335,745.2422,824.8335,749.2422,828.8335,745.2422" style="stroke:#FF0000;stroke-width:1;"/><line style="stroke:#FF0000;stroke-width:1;" x1="410.7891" x2="830.8335" y1="745.2422" y2="745.2422"/><text fill="#000000" font-family="sans-serif" font-size="13" font-weight="bold" lengthAdjust="spacing" textLength="39.019" x="417.7891" y="740.1763">[010]</text><text fill="#000000" font-family="sans-serif" font-size="13" lengthAdjust="spacing" textLength="364.0254" x="460.8081" y="740.1763">Write Control Reg (CMD = Sanitize, DN = 0b, EXE = 1b)</text><line style="stroke:#008000;stroke-width:1;" x1="1017.583" x2="1007.583" y1="745.2422" y2="741.2422"/><line style="stroke:#008000;stroke-width:1;" x1="1017.583" x2="1007.583" y1="745.2422" y2="749.2422"/><line style="stroke:#008000;stroke-width:1;" x1="836.8335" x2="1018.583" y1="745.2422" y2="745.2422"/><text fill="#000000" font-family="sans-serif" font-size="13" font-weight="bold" lengthAdjust="spacing" textLength="39.019" x="843.8335" y="740.1763">[011]</text><text fill="#000000" font-family="sans-serif" font-size="13" lengthAdjust="spacing" textLength="4.1323" x="886.8525" y="740.1763">&#160;</text><polygon fill="#FF0000" points="1117.2754,770.375,1127.2754,774.375,1117.2754,778.375,1121.2754,774.375" style="stroke:#FF0000;stroke-width:1;"/><line style="stroke:#FF0000;stroke-width:1;" x1="1029.583" x2="1123.2754" y1="774.375" y2="774.375"/><text fill="#000000" font-family="sans-serif" font-size="13" font-weight="bold" lengthAdjust="spacing" textLength="39.019" x="1036.583" y="769.3091">[012]</text><text fill="#000000" font-family="sans-serif" font-size="13" lengthAdjust="spacing" textLength="37.6733" x="1079.6021" y="769.3091">Purge</text><line style="stroke:#FF0000;stroke-width:1;" x1="410.7891" x2="452.7891" y1="803.5078" y2="803.5078"/><line style="stroke:#FF0000;stroke-width:1;" x1="452.7891" x2="452.7891" y1="803.5078" y2="816.5078"/><line style="stroke:#FF0000;stroke-width:1;" x1="411.7891" x2="452.7891" y1="816.5078" y2="816.5078"/><polygon fill="#FF0000" points="421.7891,812.5078,411.7891,816.5078,421.7891,820.5078,417.7891,816.5078" style="stroke:#FF0000;stroke-width:1;"/><text fill="#000000" font-family="sans-serif" font-size="13" font-weight="bold" lengthAdjust="spacing" textLength="39.019" x="417.7891" y="798.4419">[013]</text><text fill="#000000" font-family="sans-serif" font-size="13" lengthAdjust="spacing" textLength="86.5503" x="460.8081" y="798.4419">Start timeout</text><polygon fill="#FF0000" points="824.8335,841.6406,834.8335,845.6406,824.8335,849.6406,828.8335,845.6406" style="stroke:#FF0000;stroke-width:1;"/><line style="stroke:#FF0000;stroke-width:1;" x1="410.7891" x2="830.8335" y1="845.6406" y2="845.6406"/><text fill="#000000" font-family="sans-serif" font-size="13" font-weight="bold" lengthAdjust="spacing" textLength="39.019" x="417.7891" y="840.5747">[014]</text><text fill="#000000" font-family="sans-serif" font-size="13" lengthAdjust="spacing" textLength="114.0737" x="460.8081" y="840.5747">Read Control Reg</text><path d="M389.7891,857.6406 L710.728,857.6406 L710.728,864.7734 L700.728,874.7734 L389.7891,874.7734 L389.7891,857.6406" fill="#EEEEEE" style="stroke:#000000;stroke-width:1.5;"/><rect fill="none" height="130.7969" style="stroke:#000000;stroke-width:1.5;" width="650.7939" x="389.7891" y="857.6406"/><text fill="#000000" font-family="sans-serif" font-size="13" font-weight="bold" lengthAdjust="spacing" textLength="275.939" x="404.7891" y="870.7075">loop until (cmd_timeout or DN == 1b)</text><polygon fill="#FF0000" points="824.8335,901.9063,834.8335,905.9063,824.8335,909.9063,828.8335,905.9063" style="stroke:#FF0000;stroke-width:1;"/><line style="stroke:#FF0000;stroke-width:1;" x1="410.7891" x2="830.8335" y1="905.9063" y2="905.9063"/><text fill="#000000" font-family="sans-serif" font-size="13" font-weight="bold" lengthAdjust="spacing" textLength="39.019" x="417.7891" y="900.8403">[015]</text><text fill="#000000" font-family="sans-serif" font-size="13" lengthAdjust="spacing" textLength="114.0737" x="460.8081" y="900.8403">Read Control Reg</text><polygon fill="#FF0000" points="847.8335,976.4375,837.8335,980.4375,847.8335,984.4375,843.8335,980.4375" style="stroke:#FF0000;stroke-width:1;"/><line style="stroke:#FF0000;stroke-width:1;" x1="841.8335" x2="1018.583" y1="980.4375" y2="980.4375"/><text fill="#000000" font-family="sans-serif" font-size="13" font-weight="bold" lengthAdjust="spacing" textLength="39.019" x="853.8335" y="952.6724">[016]</text><text fill="#000000" font-family="sans-serif" font-size="13" lengthAdjust="spacing" textLength="115.7305" x="896.8525" y="929.9731">Write Control Reg</text><text fill="#000000" font-family="sans-serif" font-size="13" lengthAdjust="spacing" textLength="79.0854" x="896.8525" y="945.106">(Done = 1b,</text><text fill="#000000" font-family="sans-serif" font-size="13" lengthAdjust="spacing" textLength="63.7622" x="900.9849" y="960.2388">Error = 0,</text><text fill="#000000" font-family="sans-serif" font-size="13" lengthAdjust="spacing" textLength="57.8335" x="900.9849" y="975.3716">EXE = 0)</text><polygon fill="#FF0000" points="824.8335,1019.5703,834.8335,1023.5703,824.8335,1027.5703,828.8335,1023.5703" style="stroke:#FF0000;stroke-width:1;"/><line style="stroke:#FF0000;stroke-width:1;" x1="410.7891" x2="830.8335" y1="1023.5703" y2="1023.5703"/><text fill="#000000" font-family="sans-serif" font-size="13" font-weight="bold" lengthAdjust="spacing" textLength="39.019" x="417.7891" y="1018.5044">[017]</text><text fill="#000000" font-family="sans-serif" font-size="13" lengthAdjust="spacing" textLength="185.4214" x="460.8081" y="1018.5044">Write Control Reg (DN = 1b)</text><path d="M364.4854,1036.5703 L364.4854,1061.5703 L831.4854,1061.5703 L831.4854,1046.5703 L821.4854,1036.5703 L364.4854,1036.5703" fill="#FEFFDD" style="stroke:#181818;stroke-width:0.5;"/><path d="M821.4854,1036.5703 L821.4854,1046.5703 L831.4854,1046.5703 L821.4854,1036.5703" fill="#FEFFDD" style="stroke:#181818;stroke-width:0.5;"/><text fill="#000000" font-family="sans-serif" font-size="13" lengthAdjust="spacing" textLength="446.3481" x="370.4854" y="1053.6372">Reset the SFR interface for next operation - not waiting for response</text><polygon fill="#FF0000" points="247.583,1112.9688,237.583,1116.9688,247.583,1120.9688,243.583,1116.9688" style="stroke:#FF0000;stroke-width:1;"/><line style="stroke:#FF0000;stroke-width:1;" x1="241.583" x2="399.7891" y1="1116.9688" y2="1116.9688"/><text fill="#000000" font-family="sans-serif" font-size="13" font-weight="bold" lengthAdjust="spacing" textLength="39.019" x="253.583" y="1104.3364">[018]</text><text fill="#000000" font-family="sans-serif" font-size="13" lengthAdjust="spacing" textLength="66.8154" x="296.6021" y="1096.77">Command</text><text fill="#000000" font-family="sans-serif" font-size="13" lengthAdjust="spacing" textLength="63.0195" x="296.6021" y="1111.9028">Response</text><line style="stroke:#008000;stroke-width:1;" x1="45.3882" x2="55.3882" y1="1116.9688" y2="1112.9688"/><line style="stroke:#008000;stroke-width:1;" x1="45.3882" x2="55.3882" y1="1116.9688" y2="1120.9688"/><line style="stroke:#008000;stroke-width:1;" x1="44.3882" x2="235.583" y1="1116.9688" y2="1116.9688"/><text fill="#000000" font-family="sans-serif" font-size="13" font-weight="bold" lengthAdjust="spacing" textLength="39.019" x="61.3882" y="1104.3364">[019]</text><text fill="#000000" font-family="sans-serif" font-size="13" lengthAdjust="spacing" textLength="66.8154" x="104.4072" y="1096.77">Command</text><text fill="#000000" font-family="sans-serif" font-size="13" lengthAdjust="spacing" textLength="62.6514" x="104.4072" y="1111.9028">Complete</text><path d="M241.583,1134.9688 L241.583,1193.9688 L903.583,1193.9688 L903.583,1144.9688 L893.583,1134.9688 L241.583,1134.9688" fill="#FEFFDD" style="stroke:#181818;stroke-width:0.5;"/><path d="M893.583,1134.9688 L893.583,1144.9688 L903.583,1144.9688 L893.583,1134.9688" fill="#FEFFDD" style="stroke:#181818;stroke-width:0.5;"/><text fill="#000000" font-family="sans-serif" font-size="13" lengthAdjust="spacing" textLength="4.1323" x="247.583" y="1154.0356">&#160;</text><text fill="#000000" font-family="sans-serif" font-size="13" font-weight="bold" lengthAdjust="spacing" textLength="35.915" x="251.7153" y="1154.0356">Field</text><text fill="#000000" font-family="sans-serif" font-size="13" lengthAdjust="spacing" textLength="4.1323" x="327.1001" y="1154.0356">&#160;</text><text fill="#000000" font-family="sans-serif" font-size="13" font-weight="bold" lengthAdjust="spacing" textLength="30.2021" x="331.2324" y="1154.0356">Size</text><text fill="#000000" font-family="sans-serif" font-size="13" lengthAdjust="spacing" textLength="4.1323" x="376.6753" y="1154.0356">&#160;</text><text fill="#000000" font-family="sans-serif" font-size="13" font-weight="bold" lengthAdjust="spacing" textLength="72.2871" x="380.8076" y="1154.0356">Definition</text><text fill="#000000" font-family="sans-serif" font-size="13" lengthAdjust="spacing" textLength="50.5908" x="251.7153" y="1169.1685">chksum</text><text fill="#000000" font-family="sans-serif" font-size="13" lengthAdjust="spacing" textLength="24.7813" x="331.2324" y="1169.1685">u32</text><text fill="#000000" font-family="sans-serif" font-size="13" lengthAdjust="spacing" textLength="503.769" x="380.8076" y="1169.1685">Checksum over other output arguments, computed by Caliptra. Little endian.</text><text fill="#000000" font-family="sans-serif" font-size="13" lengthAdjust="spacing" textLength="69.6592" x="251.7153" y="1184.3013">fips_status</text><text fill="#000000" font-family="sans-serif" font-size="13" lengthAdjust="spacing" textLength="24.7813" x="331.2324" y="1184.3013">u32</text><text fill="#000000" font-family="sans-serif" font-size="13" lengthAdjust="spacing" textLength="351.5078" x="380.8076" y="1184.3013">Indicates if the command is FIPS approved or an error</text><line style="stroke:#000000;stroke-width:0.5;" x1="247.583" x2="888.709" y1="1141.9688" y2="1141.9688"/><line style="stroke:#000000;stroke-width:0.5;" x1="247.583" x2="888.709" y1="1157.1016" y2="1157.1016"/><line style="stroke:#000000;stroke-width:0.5;" x1="247.583" x2="888.709" y1="1172.2344" y2="1172.2344"/><line style="stroke:#000000;stroke-width:0.5;" x1="247.583" x2="888.709" y1="1187.3672" y2="1187.3672"/><line style="stroke:#000000;stroke-width:0.5;" x1="247.583" x2="247.583" y1="1141.9688" y2="1187.3672"/><line style="stroke:#000000;stroke-width:0.5;" x1="327.1001" x2="327.1001" y1="1141.9688" y2="1187.3672"/><line style="stroke:#000000;stroke-width:0.5;" x1="376.6753" x2="376.6753" y1="1141.9688" y2="1187.3672"/><line style="stroke:#000000;stroke-width:0.5;" x1="888.709" x2="888.709" y1="1141.9688" y2="1187.3672"/><!--SRC=[hLPjJzim4FwUNt5KY9NHChPfNz10GctP46n2BT8s2QboaajgaTYPxQnaoe_VsNaXAHtgfFLB_78lpprtlkiU5q6IXmWoo9Q931wMkU69FgPZpzlZ4GptzKgkbuQR10yzeD-TNS9WaY1JO5O83rX0m09QSU4EK0Igo0oNWfOn5pZmzb24FEgPp1G6KeILKI4D0WkKrDhjxU-ZVtvRoN1hIvz-VEEVjxUluHeB3IahG2ht8HlW8oIIXHWsM9x0oMWxEA_hy2lXUEReRiKrQFoPaov2o5ciM0fqPZtQMBY8WOa2K2d2eZ2JojYpC4Sm4WnFKUP6Mw1EHDSo1DCl_eBAkYRI73CjVQ-061dZ8zVElZQCBktnnUqLXPaaNhI6VQOB4K3g7nt1AKnkPXVpvVNint9oCVaywwM0PRn3l-Bnof1Q6tbf6Rdac8JjRi5_OxMQOiI5ImoK7OrWzQ3pjDdbxz_LgyaA0tSZVw42IJ4hIb6M6s0gpbCKHeyWa2cTFB5Y8q9r33VSs9gp931ntFEdmc9PyzlpTrUVKHca6YBB_2R5DZK-rLTAeICB2oV5GE3Q0aaPaT-BB0rtzDHeattdKdOSsX0J9BRBxHbE_IP_GRIk4bXPwoKkrV4oOqfJ4LG936pUwxIJpYSq3GftdVhZiLliQqoYuO341oCOJ0c8IYsoMdXmI40IZKzA3IwM69WzOt35T8z2RmECZXIXcTCLXI6CaWbjuahAMXnElyBP6RpreInXDfztDjzdrUQmJS6csM-A4uyTkvKvfxD5oQvEOM6OCisB_AlfPuWRmLZ9FACM8pF81NLA67OBa79VHtJYmy514r6zgI8wwQBx9zzO9zD-lHq9cNoP4YCBPb_gRno18-Z47rLeMdeFd8Mwy12FZYe7YBNzXu3Ct-OgnatFsrZrTWxhEPtTLqPqDlMnDQClLLSFFWcEnzi8kXV3gQGwjYv6zm9che4JGsxZA3evzBhaErCxqz_MOzja4unC2rpJCxLzRd4vf_P1Rp5YD61i2n7uIF5dg9XxRcCtQjQCkxOVkI6ZCvg9b0zN3Xlll-uPzsBUY1t0KsVfDvPxCQbxahLYd_oM0L6M7yforr7n_oS5LSCBesB24fuPnLuS517FzD8Ep5ptt5sHR41ZL0El_Y0qtPlc- -NLxG9ObYc24jfoPAAUyTkxzny0]--></g></svg>