<svg xmlns="http://www.w3.org/2000/svg" xmlns:xlink="http://www.w3.org/1999/xlink" contentStyleType="text/css" data-diagram-type="SEQUENCE" height="1293px" preserveAspectRatio="none" style="width:1129px;height:1293px;background:#FFFFFF;" version="1.1" viewBox="0 0 1129 1293" width="1129px" zoomAndPan="magnify"><title>Clear the key cache in the encryption engine</title><defs/><g><rect fill="#DDDDDD" height="1244.041" style="stroke:#181818;stroke-width:0.5;" width="221.8394" x="186.6211" y="43.4883"/><text fill="#000000" font-family="sans-serif" font-size="13" font-weight="bold" lengthAdjust="spacing" textLength="52.7935" x="271.144" y="56.0566">Caliptra</text><rect fill="#DDDDDD" height="1244.041" style="stroke:#181818;stroke-width:0.5;" width="364.0088" x="759.8145" y="43.4883"/><text fill="#000000" font-family="sans-serif" font-size="13" font-weight="bold" lengthAdjust="spacing" textLength="121.1006" x="881.2686" y="56.0566">Encryption engine</text><text fill="#000000" font-family="sans-serif" font-size="14" font-weight="bold" lengthAdjust="spacing" textLength="320.8652" x="406.479" y="28.5352">Clear the key cache in the encryption engine</text><g><title>Storage</title><rect fill="transparent" height="1089.8008" width="8" x="34.1826" y="127.2637"/><line style="stroke:#181818;stroke-width:0.5;stroke-dasharray:5.0,5.0;" x1="37.6826" x2="37.6826" y1="127.2637" y2="1217.0645"/></g><g><title/><rect fill="#FFFFFF" height="92.9316" style="stroke:#181818;stroke-width:1;" width="10" x="32.6826" y="1124.1328"/></g><g><title>Mail Box</title><rect fill="transparent" height="1089.8008" width="8" x="222.897" y="127.2637"/><line style="stroke:#181818;stroke-width:0.5;stroke-dasharray:5.0,5.0;" x1="226.397" x2="226.397" y1="127.2637" y2="1217.0645"/></g><g><title/><rect fill="#FFFFFF" height="143.8633" style="stroke:#181818;stroke-width:1;" width="10" x="221.397" y="253.127"/></g><g><title>FW</title><rect fill="transparent" height="1089.8008" width="8" x="384.2192" y="127.2637"/><line style="stroke:#181818;stroke-width:0.5;stroke-dasharray:5.0,5.0;" x1="387.7192" x2="387.7192" y1="127.2637" y2="1217.0645"/></g><g><title/><rect fill="#FFFFFF" height="756.4531" style="stroke:#181818;stroke-width:1;" width="10" x="382.7192" y="367.6797"/></g><g><title>SFR</title><rect fill="transparent" height="1089.8008" width="8" x="796.9824" y="127.2637"/><line style="stroke:#181818;stroke-width:0.5;stroke-dasharray:5.0,5.0;" x1="800.4824" x2="800.4824" y1="127.2637" y2="1217.0645"/></g><g><title>Control</title><rect fill="transparent" height="1089.8008" width="8" x="976.4165" y="127.2637"/><line style="stroke:#181818;stroke-width:0.5;stroke-dasharray:5.0,5.0;" x1="979.9165" x2="979.9165" y1="127.2637" y2="1217.0645"/></g><g><title/><rect fill="#FFFFFF" height="236.7949" style="stroke:#181818;stroke-width:1;" width="10" x="974.9165" y="750.0957"/></g><g><title>Key cache</title><rect fill="transparent" height="1089.8008" width="8" x="1075.7007" y="127.2637"/><line style="stroke:#181818;stroke-width:0.5;stroke-dasharray:5.0,5.0;" x1="1079.2007" x2="1079.2007" y1="127.2637" y2="1217.0645"/></g><rect fill="#E2E2F0" height="63.4648" rx="2.5" ry="2.5" style="stroke:#181818;stroke-width:0.5;" width="65.3652" x="5" y="62.7988"/><text fill="#000000" font-family="sans-serif" font-size="14" lengthAdjust="spacing" textLength="51.3652" x="12" y="83.334">Storage</text><text fill="#000000" font-family="sans-serif" font-size="14" lengthAdjust="spacing" textLength="44.5498" x="15.4077" y="99.8223">Device</text><text fill="#000000" font-family="sans-serif" font-size="14" lengthAdjust="spacing" textLength="19.4824" x="27.9414" y="116.3105">FW</text><rect fill="#E2E2F0" height="30.4883" rx="2.5" ry="2.5" style="stroke:#181818;stroke-width:0.5;" width="71.5518" x="190.6211" y="95.7754"/><text fill="#000000" font-family="sans-serif" font-size="14" lengthAdjust="spacing" textLength="57.5518" x="197.6211" y="116.3105">Mail Box</text><rect fill="#E2E2F0" height="30.4883" rx="2.5" ry="2.5" style="stroke:#181818;stroke-width:0.5;" width="33.4824" x="370.978" y="95.7754"/><text fill="#000000" font-family="sans-serif" font-size="14" lengthAdjust="spacing" textLength="19.4824" x="377.978" y="116.3105">FW</text><rect fill="#E2E2F0" height="46.9766" rx="2.5" ry="2.5" style="stroke:#181818;stroke-width:0.5;" width="73.3359" x="763.8145" y="79.2871"/><text fill="#000000" font-family="sans-serif" font-size="14" lengthAdjust="spacing" textLength="23.8984" x="788.5332" y="99.8223">SFR</text><text fill="#000000" font-family="sans-serif" font-size="14" lengthAdjust="spacing" textLength="59.3359" x="770.8145" y="116.3105">Interface</text><rect fill="#E2E2F0" height="30.4883" rx="2.5" ry="2.5" style="stroke:#181818;stroke-width:0.5;" width="64.5859" x="947.6235" y="95.7754"/><text fill="#000000" font-family="sans-serif" font-size="14" lengthAdjust="spacing" textLength="50.5859" x="954.6235" y="116.3105">Control</text><rect fill="#E2E2F0" height="30.4883" rx="2.5" ry="2.5" style="stroke:#181818;stroke-width:0.5;" width="81.2451" x="1038.5781" y="95.7754"/><text fill="#000000" font-family="sans-serif" font-size="14" lengthAdjust="spacing" textLength="67.2451" x="1045.5781" y="116.3105">Key cache</text><rect fill="#E2E2F0" height="63.4648" rx="2.5" ry="2.5" style="stroke:#181818;stroke-width:0.5;" width="65.3652" x="5" y="1217.0645"/><text fill="#000000" font-family="sans-serif" font-size="14" lengthAdjust="spacing" textLength="51.3652" x="12" y="1237.5996">Storage</text><text fill="#000000" font-family="sans-serif" font-size="14" lengthAdjust="spacing" textLength="44.5498" x="15.4077" y="1254.0879">Device</text><text fill="#000000" font-family="sans-serif" font-size="14" lengthAdjust="spacing" textLength="19.4824" x="27.9414" y="1270.5762">FW</text><rect fill="#E2E2F0" height="30.4883" rx="2.5" ry="2.5" style="stroke:#181818;stroke-width:0.5;" width="71.5518" x="190.6211" y="1217.0645"/><text fill="#000000" font-family="sans-serif" font-size="14" lengthAdjust="spacing" textLength="57.5518" x="197.6211" y="1237.5996">Mail Box</text><rect fill="#E2E2F0" height="30.4883" rx="2.5" ry="2.5" style="stroke:#181818;stroke-width:0.5;" width="33.4824" x="370.978" y="1217.0645"/><text fill="#000000" font-family="sans-serif" font-size="14" lengthAdjust="spacing" textLength="19.4824" x="377.978" y="1237.5996">FW</text><rect fill="#E2E2F0" height="46.9766" rx="2.5" ry="2.5" style="stroke:#181818;stroke-width:0.5;" width="73.3359" x="763.8145" y="1217.0645"/><text fill="#000000" font-family="sans-serif" font-size="14" lengthAdjust="spacing" textLength="23.8984" x="788.5332" y="1237.5996">SFR</text><text fill="#000000" font-family="sans-serif" font-size="14" lengthAdjust="spacing" textLength="59.3359" x="770.8145" y="1254.0879">Interface</text><rect fill="#E2E2F0" height="30.4883" rx="2.5" ry="2.5" style="stroke:#181818;stroke-width:0.5;" width="64.5859" x="947.6235" y="1217.0645"/><text fill="#000000" font-family="sans-serif" font-size="14" lengthAdjust="spacing" textLength="50.5859" x="954.6235" y="1237.5996">Control</text><rect fill="#E2E2F0" height="30.4883" rx="2.5" ry="2.5" style="stroke:#181818;stroke-width:0.5;" width="81.2451" x="1038.5781" y="1217.0645"/><text fill="#000000" font-family="sans-serif" font-size="14" lengthAdjust="spacing" textLength="67.2451" x="1045.5781" y="1237.5996">Key cache</text><path d="M6.03,140.2637 L6.03,226.2637 L1110.03,226.2637 L1110.03,150.2637 L1100.03,140.2637 L6.03,140.2637 " fill="#FEFFDD" style="stroke:#181818;stroke-width:0.5;"/><path d="M1100.03,140.2637 L1100.03,150.2637 L1110.03,150.2637 L1100.03,140.2637 " fill="#FEFFDD" style="stroke:#181818;stroke-width:0.5;"/><text fill="#000000" font-family="sans-serif" font-size="13" font-weight="bold" lengthAdjust="spacing" textLength="94.999" x="173.0396" y="157.832">Preconditions:</text><ellipse cx="178.5396" cy="168.3848" fill="#000000" rx="2.5" ry="2.5"/><text fill="#000000" font-family="sans-serif" font-size="13" lengthAdjust="spacing" textLength="462.9219" x="185.0396" y="173.1426">Keys may or may not be loaded in the key cache of the encryption engine</text><text fill="#000000" font-family="sans-serif" font-size="13" lengthAdjust="spacing" textLength="4.1133" x="173.0396" y="188.4531">&#160;</text><text fill="#000000" font-family="sans-serif" font-size="13" font-weight="bold" lengthAdjust="spacing" textLength="41.7422" x="173.0396" y="203.7637">Notes:</text><ellipse cx="178.5396" cy="214.3164" fill="#000000" rx="2.5" ry="2.5"/><text fill="#000000" font-family="sans-serif" font-size="13" lengthAdjust="spacing" textLength="749.8042" x="185.0396" y="219.0742">This sequence diagram is not showing any error reporting due to timeouts or errors reported by the encryption engine</text><line style="stroke:#008000;stroke-width:1;" x1="219.397" x2="209.397" y1="253.127" y2="249.127"/><line style="stroke:#008000;stroke-width:1;" x1="219.397" x2="209.397" y1="253.127" y2="257.127"/><line style="stroke:#008000;stroke-width:1;" x1="37.6826" x2="220.397" y1="253.127" y2="253.127"/><text fill="#000000" font-family="sans-serif" font-size="13" font-weight="bold" lengthAdjust="spacing" textLength="35.3628" x="44.6826" y="248.3848">[001]</text><text fill="#000000" font-family="sans-serif" font-size="13" lengthAdjust="spacing" textLength="120.3516" x="84.0454" y="248.3848">CLEAR_KEY_CACHE</text><path d="M236.397,266.127 L236.397,341.127 L891.397,341.127 L891.397,276.127 L881.397,266.127 L236.397,266.127 " fill="#FEFFDD" style="stroke:#181818;stroke-width:0.5;"/><path d="M881.397,266.127 L881.397,276.127 L891.397,276.127 L881.397,266.127 " fill="#FEFFDD" style="stroke:#181818;stroke-width:0.5;"/><text fill="#000000" font-family="sans-serif" font-size="13" lengthAdjust="spacing" textLength="4.1133" x="242.397" y="285.6953">&#160;</text><text fill="#000000" font-family="sans-serif" font-size="13" font-weight="bold" lengthAdjust="spacing" textLength="32.1509" x="246.5103" y="285.6953">Field</text><text fill="#000000" font-family="sans-serif" font-size="13" lengthAdjust="spacing" textLength="4.1133" x="333.0161" y="285.6953">&#160;</text><text fill="#000000" font-family="sans-serif" font-size="13" font-weight="bold" lengthAdjust="spacing" textLength="26.9521" x="337.1294" y="285.6953">Size</text><text fill="#000000" font-family="sans-serif" font-size="13" lengthAdjust="spacing" textLength="4.1133" x="382.2041" y="285.6953">&#160;</text><text fill="#000000" font-family="sans-serif" font-size="13" font-weight="bold" lengthAdjust="spacing" textLength="66.644" x="386.3174" y="285.6953">Definition</text><text fill="#000000" font-family="sans-serif" font-size="13" lengthAdjust="spacing" textLength="49.1563" x="246.5103" y="301.0059">chksum</text><text fill="#000000" font-family="sans-serif" font-size="13" lengthAdjust="spacing" textLength="24.5083" x="337.1294" y="301.0059">u32</text><text fill="#000000" font-family="sans-serif" font-size="13" lengthAdjust="spacing" textLength="486.459" x="386.3174" y="301.0059">Checksum over other input arguments, computed by the caller. Little endian.</text><text fill="#000000" font-family="sans-serif" font-size="13" lengthAdjust="spacing" textLength="75.7085" x="246.5103" y="316.3164">rdy_timeout</text><text fill="#000000" font-family="sans-serif" font-size="13" lengthAdjust="spacing" textLength="24.5083" x="337.1294" y="316.3164">u32</text><text fill="#000000" font-family="sans-serif" font-size="13" lengthAdjust="spacing" textLength="469.6758" x="386.3174" y="316.3164">Timeout in ms for encryption engine to become ready for a new command</text><text fill="#000000" font-family="sans-serif" font-size="13" lengthAdjust="spacing" textLength="82.3926" x="246.5103" y="331.627">cmd_timeout</text><text fill="#000000" font-family="sans-serif" font-size="13" lengthAdjust="spacing" textLength="24.5083" x="337.1294" y="331.627">u32</text><text fill="#000000" font-family="sans-serif" font-size="13" lengthAdjust="spacing" textLength="366.3613" x="386.3174" y="331.627">Timeout in ms for command to crypto engine to complete</text><line style="stroke:#000000;stroke-width:0.5;" x1="242.397" x2="876.8896" y1="273.127" y2="273.127"/><line style="stroke:#000000;stroke-width:0.5;" x1="242.397" x2="876.8896" y1="288.4375" y2="288.4375"/><line style="stroke:#000000;stroke-width:0.5;" x1="242.397" x2="876.8896" y1="303.748" y2="303.748"/><line style="stroke:#000000;stroke-width:0.5;" x1="242.397" x2="876.8896" y1="319.0586" y2="319.0586"/><line style="stroke:#000000;stroke-width:0.5;" x1="242.397" x2="876.8896" y1="334.3691" y2="334.3691"/><line style="stroke:#000000;stroke-width:0.5;" x1="242.397" x2="242.397" y1="273.127" y2="334.3691"/><line style="stroke:#000000;stroke-width:0.5;" x1="333.0161" x2="333.0161" y1="273.127" y2="334.3691"/><line style="stroke:#000000;stroke-width:0.5;" x1="382.2041" x2="382.2041" y1="273.127" y2="334.3691"/><line style="stroke:#000000;stroke-width:0.5;" x1="876.8896" x2="876.8896" y1="273.127" y2="334.3691"/><line style="stroke:#008000;stroke-width:1;" x1="380.7192" x2="370.7192" y1="367.6797" y2="363.6797"/><line style="stroke:#008000;stroke-width:1;" x1="380.7192" x2="370.7192" y1="367.6797" y2="371.6797"/><line style="stroke:#008000;stroke-width:1;" x1="231.397" x2="381.7192" y1="367.6797" y2="367.6797"/><text fill="#000000" font-family="sans-serif" font-size="13" font-weight="bold" lengthAdjust="spacing" textLength="35.3628" x="238.397" y="362.9375">[002]</text><text fill="#000000" font-family="sans-serif" font-size="13" lengthAdjust="spacing" textLength="64.6826" x="277.7598" y="362.9375">Command</text><polygon fill="#FF0000" points="242.397,392.9902,232.397,396.9902,242.397,400.9902,238.397,396.9902" style="stroke:#FF0000;stroke-width:1;"/><line style="stroke:#FF0000;stroke-width:1;" x1="236.397" x2="381.7192" y1="396.9902" y2="396.9902"/><text fill="#000000" font-family="sans-serif" font-size="13" font-weight="bold" lengthAdjust="spacing" textLength="35.3628" x="248.397" y="392.248">[003]</text><text fill="#000000" font-family="sans-serif" font-size="13" lengthAdjust="spacing" textLength="87.9595" x="287.7598" y="392.248">Get command</text><line style="stroke:#FF0000;stroke-width:1;" x1="392.7192" x2="434.7192" y1="426.3008" y2="426.3008"/><line style="stroke:#FF0000;stroke-width:1;" x1="434.7192" x2="434.7192" y1="426.3008" y2="439.3008"/><line style="stroke:#FF0000;stroke-width:1;" x1="393.7192" x2="434.7192" y1="439.3008" y2="439.3008"/><polygon fill="#FF0000" points="403.7192,435.3008,393.7192,439.3008,403.7192,443.3008,399.7192,439.3008" style="stroke:#FF0000;stroke-width:1;"/><text fill="#000000" font-family="sans-serif" font-size="13" font-weight="bold" lengthAdjust="spacing" textLength="35.3628" x="399.7192" y="421.5586">[004]</text><text fill="#000000" font-family="sans-serif" font-size="13" lengthAdjust="spacing" textLength="132.0693" x="439.082" y="421.5586">Determine command</text><path d="M320.1914,451.3008 L382.3301,451.3008 L382.3301,458.6113 L372.3301,468.6113 L320.1914,468.6113 L320.1914,451.3008 " fill="#EEEEEE" style="stroke:#000000;stroke-width:1.5;"/><rect fill="transparent" height="622.2109" style="stroke:#000000;stroke-width:1.5;" width="775.0093" x="320.1914" y="451.3008"/><text fill="#000000" font-family="sans-serif" font-size="13" font-weight="bold" lengthAdjust="spacing" textLength="17.1387" x="335.1914" y="464.8691">alt</text><text fill="#000000" font-family="sans-serif" font-size="11" font-weight="bold" lengthAdjust="spacing" textLength="216.7505" x="397.3301" y="463.9355">[Encryption engine has become ready]</text><polygon fill="#FF0000" points="788.4824,495.9219,798.4824,499.9219,788.4824,503.9219,792.4824,499.9219" style="stroke:#FF0000;stroke-width:1;"/><line style="stroke:#FF0000;stroke-width:1;" x1="392.7192" x2="794.4824" y1="499.9219" y2="499.9219"/><text fill="#000000" font-family="sans-serif" font-size="13" font-weight="bold" lengthAdjust="spacing" textLength="35.3628" x="399.7192" y="495.1797">[005]</text><text fill="#000000" font-family="sans-serif" font-size="13" lengthAdjust="spacing" textLength="109.5923" x="439.082" y="495.1797">Read Control Reg</text><path d="M352.7192,511.9219 L414.8579,511.9219 L414.8579,519.2324 L404.8579,529.2324 L352.7192,529.2324 L352.7192,511.9219 " fill="#EEEEEE" style="stroke:#000000;stroke-width:1.5;"/><rect fill="transparent" height="202.8633" style="stroke:#000000;stroke-width:1.5;" width="556.9912" x="352.7192" y="511.9219"/><text fill="#000000" font-family="sans-serif" font-size="13" font-weight="bold" lengthAdjust="spacing" textLength="17.1387" x="367.7192" y="525.4902">alt</text><text fill="#000000" font-family="sans-serif" font-size="11" font-weight="bold" lengthAdjust="spacing" textLength="225.1777" x="429.8579" y="524.5566">[(DN == 1b || ERR == 1b || EXE == 1b)]</text><polygon fill="#FF0000" points="788.4824,556.543,798.4824,560.543,788.4824,564.543,792.4824,560.543" style="stroke:#FF0000;stroke-width:1;"/><line style="stroke:#FF0000;stroke-width:1;" x1="392.7192" x2="794.4824" y1="560.543" y2="560.543"/><text fill="#000000" font-family="sans-serif" font-size="13" font-weight="bold" lengthAdjust="spacing" textLength="35.3628" x="399.7192" y="555.8008">[006]</text><text fill="#000000" font-family="sans-serif" font-size="13" lengthAdjust="spacing" textLength="177.9438" x="439.082" y="555.8008">Write Control Reg (DN = 1b)</text><line style="stroke:#FF0000;stroke-width:1;" x1="392.7192" x2="434.7192" y1="589.8535" y2="589.8535"/><line style="stroke:#FF0000;stroke-width:1;" x1="434.7192" x2="434.7192" y1="589.8535" y2="602.8535"/><line style="stroke:#FF0000;stroke-width:1;" x1="393.7192" x2="434.7192" y1="602.8535" y2="602.8535"/><polygon fill="#FF0000" points="403.7192,598.8535,393.7192,602.8535,403.7192,606.8535,399.7192,602.8535" style="stroke:#FF0000;stroke-width:1;"/><text fill="#000000" font-family="sans-serif" font-size="13" font-weight="bold" lengthAdjust="spacing" textLength="35.3628" x="399.7192" y="585.1113">[007]</text><text fill="#000000" font-family="sans-serif" font-size="13" lengthAdjust="spacing" textLength="82.2529" x="439.082" y="585.1113">Start timeout</text><polygon fill="#FF0000" points="788.4824,628.1641,798.4824,632.1641,788.4824,636.1641,792.4824,632.1641" style="stroke:#FF0000;stroke-width:1;"/><line style="stroke:#FF0000;stroke-width:1;" x1="392.7192" x2="794.4824" y1="632.1641" y2="632.1641"/><text fill="#000000" font-family="sans-serif" font-size="13" font-weight="bold" lengthAdjust="spacing" textLength="35.3628" x="399.7192" y="627.4219">[008]</text><text fill="#000000" font-family="sans-serif" font-size="13" lengthAdjust="spacing" textLength="109.5923" x="439.082" y="627.4219">Read Control Reg</text><path d="M371.7192,644.1641 L868.7104,644.1641 L868.7104,651.4746 L858.7104,661.4746 L371.7192,661.4746 L371.7192,644.1641 " fill="#EEEEEE" style="stroke:#000000;stroke-width:1.5;"/><rect fill="transparent" height="56.6211" style="stroke:#000000;stroke-width:1.5;" width="512.9912" x="371.7192" y="644.1641"/><text fill="#000000" font-family="sans-serif" font-size="13" font-weight="bold" lengthAdjust="spacing" textLength="451.9912" x="386.7192" y="657.7324">loop until (rdy_timeout or (DN == 0b &amp;&amp; ERR == 0b &amp;&amp; EXE == 0b)</text><polygon fill="#FF0000" points="788.4824,688.7852,798.4824,692.7852,788.4824,696.7852,792.4824,692.7852" style="stroke:#FF0000;stroke-width:1;"/><line style="stroke:#FF0000;stroke-width:1;" x1="392.7192" x2="794.4824" y1="692.7852" y2="692.7852"/><text fill="#000000" font-family="sans-serif" font-size="13" font-weight="bold" lengthAdjust="spacing" textLength="35.3628" x="399.7192" y="688.043">[009]</text><text fill="#000000" font-family="sans-serif" font-size="13" lengthAdjust="spacing" textLength="109.5923" x="439.082" y="688.043">Read Control Reg</text><polygon fill="#FF0000" points="788.4824,746.0957,798.4824,750.0957,788.4824,754.0957,792.4824,750.0957" style="stroke:#FF0000;stroke-width:1;"/><line style="stroke:#FF0000;stroke-width:1;" x1="392.7192" x2="794.4824" y1="750.0957" y2="750.0957"/><text fill="#000000" font-family="sans-serif" font-size="13" font-weight="bold" lengthAdjust="spacing" textLength="35.3628" x="399.7192" y="745.3535">[010]</text><text fill="#000000" font-family="sans-serif" font-size="13" lengthAdjust="spacing" textLength="349.4004" x="439.082" y="745.3535">Write Control Reg (CMD = Sanitize, DN = 0b, EXE = 1b)</text><line style="stroke:#008000;stroke-width:1;" x1="972.9165" x2="962.9165" y1="750.0957" y2="746.0957"/><line style="stroke:#008000;stroke-width:1;" x1="972.9165" x2="962.9165" y1="750.0957" y2="754.0957"/><line style="stroke:#008000;stroke-width:1;" x1="800.4824" x2="973.9165" y1="750.0957" y2="750.0957"/><text fill="#000000" font-family="sans-serif" font-size="13" font-weight="bold" lengthAdjust="spacing" textLength="35.3628" x="807.4824" y="745.3535">[011]</text><text fill="#000000" font-family="sans-serif" font-size="13" lengthAdjust="spacing" textLength="4.1133" x="846.8452" y="745.3535">&#160;</text><polygon fill="#FF0000" points="1067.2007,775.4063,1077.2007,779.4063,1067.2007,783.4063,1071.2007,779.4063" style="stroke:#FF0000;stroke-width:1;"/><line style="stroke:#FF0000;stroke-width:1;" x1="984.9165" x2="1073.2007" y1="779.4063" y2="779.4063"/><text fill="#000000" font-family="sans-serif" font-size="13" font-weight="bold" lengthAdjust="spacing" textLength="35.3628" x="991.9165" y="774.6641">[012]</text><text fill="#000000" font-family="sans-serif" font-size="13" lengthAdjust="spacing" textLength="35.9214" x="1031.2793" y="774.6641">Purge</text><line style="stroke:#FF0000;stroke-width:1;" x1="392.7192" x2="434.7192" y1="808.7168" y2="808.7168"/><line style="stroke:#FF0000;stroke-width:1;" x1="434.7192" x2="434.7192" y1="808.7168" y2="821.7168"/><line style="stroke:#FF0000;stroke-width:1;" x1="393.7192" x2="434.7192" y1="821.7168" y2="821.7168"/><polygon fill="#FF0000" points="403.7192,817.7168,393.7192,821.7168,403.7192,825.7168,399.7192,821.7168" style="stroke:#FF0000;stroke-width:1;"/><text fill="#000000" font-family="sans-serif" font-size="13" font-weight="bold" lengthAdjust="spacing" textLength="35.3628" x="399.7192" y="803.9746">[013]</text><text fill="#000000" font-family="sans-serif" font-size="13" lengthAdjust="spacing" textLength="82.2529" x="439.082" y="803.9746">Start timeout</text><polygon fill="#FF0000" points="788.4824,847.0273,798.4824,851.0273,788.4824,855.0273,792.4824,851.0273" style="stroke:#FF0000;stroke-width:1;"/><line style="stroke:#FF0000;stroke-width:1;" x1="392.7192" x2="794.4824" y1="851.0273" y2="851.0273"/><text fill="#000000" font-family="sans-serif" font-size="13" font-weight="bold" lengthAdjust="spacing" textLength="35.3628" x="399.7192" y="846.2852">[014]</text><text fill="#000000" font-family="sans-serif" font-size="13" lengthAdjust="spacing" textLength="109.5923" x="439.082" y="846.2852">Read Control Reg</text><path d="M371.7192,863.0273 L671.1587,863.0273 L671.1587,870.3379 L661.1587,880.3379 L371.7192,880.3379 L371.7192,863.0273 " fill="#EEEEEE" style="stroke:#000000;stroke-width:1.5;"/><rect fill="transparent" height="131.8633" style="stroke:#000000;stroke-width:1.5;" width="624.1973" x="371.7192" y="863.0273"/><text fill="#000000" font-family="sans-serif" font-size="13" font-weight="bold" lengthAdjust="spacing" textLength="254.4395" x="386.7192" y="876.5957">loop until (cmd_timeout or DN == 1b)</text><polygon fill="#FF0000" points="788.4824,907.6484,798.4824,911.6484,788.4824,915.6484,792.4824,911.6484" style="stroke:#FF0000;stroke-width:1;"/><line style="stroke:#FF0000;stroke-width:1;" x1="392.7192" x2="794.4824" y1="911.6484" y2="911.6484"/><text fill="#000000" font-family="sans-serif" font-size="13" font-weight="bold" lengthAdjust="spacing" textLength="35.3628" x="399.7192" y="906.9063">[015]</text><text fill="#000000" font-family="sans-serif" font-size="13" lengthAdjust="spacing" textLength="109.5923" x="439.082" y="906.9063">Read Control Reg</text><polygon fill="#FF0000" points="811.4824,982.8906,801.4824,986.8906,811.4824,990.8906,807.4824,986.8906" style="stroke:#FF0000;stroke-width:1;"/><line style="stroke:#FF0000;stroke-width:1;" x1="805.4824" x2="973.9165" y1="986.8906" y2="986.8906"/><text fill="#000000" font-family="sans-serif" font-size="13" font-weight="bold" lengthAdjust="spacing" textLength="35.3628" x="817.4824" y="959.1826">[016]</text><text fill="#000000" font-family="sans-serif" font-size="13" lengthAdjust="spacing" textLength="111.0713" x="856.8452" y="936.2168">Write Control Reg</text><text fill="#000000" font-family="sans-serif" font-size="13" lengthAdjust="spacing" textLength="76.3369" x="856.8452" y="951.5273">(Done = 1b,</text><text fill="#000000" font-family="sans-serif" font-size="13" lengthAdjust="spacing" textLength="61.8833" x="860.9585" y="966.8379">Error = 0,</text><text fill="#000000" font-family="sans-serif" font-size="13" lengthAdjust="spacing" textLength="53.2378" x="860.9585" y="982.1484">EXE = 0)</text><polygon fill="#FF0000" points="788.4824,1026.2012,798.4824,1030.2012,788.4824,1034.2012,792.4824,1030.2012" style="stroke:#FF0000;stroke-width:1;"/><line style="stroke:#FF0000;stroke-width:1;" x1="392.7192" x2="794.4824" y1="1030.2012" y2="1030.2012"/><text fill="#000000" font-family="sans-serif" font-size="13" font-weight="bold" lengthAdjust="spacing" textLength="35.3628" x="399.7192" y="1025.459">[017]</text><text fill="#000000" font-family="sans-serif" font-size="13" lengthAdjust="spacing" textLength="177.9438" x="439.082" y="1025.459">Write Control Reg (DN = 1b)</text><path d="M341.1914,1043.2012 L341.1914,1068.2012 L795.1914,1068.2012 L795.1914,1053.2012 L785.1914,1043.2012 L341.1914,1043.2012 " fill="#FEFFDD" style="stroke:#181818;stroke-width:0.5;"/><path d="M785.1914,1043.2012 L785.1914,1053.2012 L795.1914,1053.2012 L785.1914,1043.2012 " fill="#FEFFDD" style="stroke:#181818;stroke-width:0.5;"/><text fill="#000000" font-family="sans-serif" font-size="13" lengthAdjust="spacing" textLength="433.291" x="347.1914" y="1060.7695">Reset the SFR interface for next operation - not waiting for response</text><polygon fill="#FF0000" points="237.397,1120.1328,227.397,1124.1328,237.397,1128.1328,233.397,1124.1328" style="stroke:#FF0000;stroke-width:1;"/><line style="stroke:#FF0000;stroke-width:1;" x1="231.397" x2="381.7192" y1="1124.1328" y2="1124.1328"/><text fill="#000000" font-family="sans-serif" font-size="13" font-weight="bold" lengthAdjust="spacing" textLength="35.3628" x="243.397" y="1111.7354">[018]</text><text fill="#000000" font-family="sans-serif" font-size="13" lengthAdjust="spacing" textLength="64.6826" x="282.7598" y="1104.0801">Command</text><text fill="#000000" font-family="sans-serif" font-size="13" lengthAdjust="spacing" textLength="60.1948" x="282.7598" y="1119.3906">Response</text><line style="stroke:#008000;stroke-width:1;" x1="43.6826" x2="53.6826" y1="1124.1328" y2="1120.1328"/><line style="stroke:#008000;stroke-width:1;" x1="43.6826" x2="53.6826" y1="1124.1328" y2="1128.1328"/><line style="stroke:#008000;stroke-width:1;" x1="42.6826" x2="225.397" y1="1124.1328" y2="1124.1328"/><text fill="#000000" font-family="sans-serif" font-size="13" font-weight="bold" lengthAdjust="spacing" textLength="35.3628" x="59.6826" y="1111.7354">[019]</text><text fill="#000000" font-family="sans-serif" font-size="13" lengthAdjust="spacing" textLength="64.6826" x="99.0454" y="1104.0801">Command</text><text fill="#000000" font-family="sans-serif" font-size="13" lengthAdjust="spacing" textLength="60.4043" x="99.0454" y="1119.3906">Complete</text><path d="M231.397,1142.1328 L231.397,1201.1328 L873.397,1201.1328 L873.397,1152.1328 L863.397,1142.1328 L231.397,1142.1328 " fill="#FEFFDD" style="stroke:#181818;stroke-width:0.5;"/><path d="M863.397,1142.1328 L863.397,1152.1328 L873.397,1152.1328 L863.397,1142.1328 " fill="#FEFFDD" style="stroke:#181818;stroke-width:0.5;"/><text fill="#000000" font-family="sans-serif" font-size="13" lengthAdjust="spacing" textLength="4.1133" x="237.397" y="1161.7012">&#160;</text><text fill="#000000" font-family="sans-serif" font-size="13" font-weight="bold" lengthAdjust="spacing" textLength="32.1509" x="241.5103" y="1161.7012">Field</text><text fill="#000000" font-family="sans-serif" font-size="13" lengthAdjust="spacing" textLength="4.1133" x="315.3462" y="1161.7012">&#160;</text><text fill="#000000" font-family="sans-serif" font-size="13" font-weight="bold" lengthAdjust="spacing" textLength="26.9521" x="319.4595" y="1161.7012">Size</text><text fill="#000000" font-family="sans-serif" font-size="13" lengthAdjust="spacing" textLength="4.1133" x="364.5342" y="1161.7012">&#160;</text><text fill="#000000" font-family="sans-serif" font-size="13" font-weight="bold" lengthAdjust="spacing" textLength="66.644" x="368.6475" y="1161.7012">Definition</text><text fill="#000000" font-family="sans-serif" font-size="13" lengthAdjust="spacing" textLength="49.1563" x="241.5103" y="1177.0117">chksum</text><text fill="#000000" font-family="sans-serif" font-size="13" lengthAdjust="spacing" textLength="24.5083" x="319.4595" y="1177.0117">u32</text><text fill="#000000" font-family="sans-serif" font-size="13" lengthAdjust="spacing" textLength="486.5796" x="368.6475" y="1177.0117">Checksum over other output arguments, computed by Caliptra. Little endian.</text><text fill="#000000" font-family="sans-serif" font-size="13" lengthAdjust="spacing" textLength="68.0723" x="241.5103" y="1192.3223">fips_status</text><text fill="#000000" font-family="sans-serif" font-size="13" lengthAdjust="spacing" textLength="24.5083" x="319.4595" y="1192.3223">u32</text><text fill="#000000" font-family="sans-serif" font-size="13" lengthAdjust="spacing" textLength="338.4253" x="368.6475" y="1192.3223">Indicates if the command is FIPS approved or an error</text><line style="stroke:#000000;stroke-width:0.5;" x1="237.397" x2="859.3403" y1="1149.1328" y2="1149.1328"/><line style="stroke:#000000;stroke-width:0.5;" x1="237.397" x2="859.3403" y1="1164.4434" y2="1164.4434"/><line style="stroke:#000000;stroke-width:0.5;" x1="237.397" x2="859.3403" y1="1179.7539" y2="1179.7539"/><line style="stroke:#000000;stroke-width:0.5;" x1="237.397" x2="859.3403" y1="1195.0645" y2="1195.0645"/><line style="stroke:#000000;stroke-width:0.5;" x1="237.397" x2="237.397" y1="1149.1328" y2="1195.0645"/><line style="stroke:#000000;stroke-width:0.5;" x1="315.3462" x2="315.3462" y1="1149.1328" y2="1195.0645"/><line style="stroke:#000000;stroke-width:0.5;" x1="364.5342" x2="364.5342" y1="1149.1328" y2="1195.0645"/><line style="stroke:#000000;stroke-width:0.5;" x1="859.3403" x2="859.3403" y1="1149.1328" y2="1195.0645"/><!--SRC=[hLPjJzim4FwUNt5KY9NHChPfNz10GctP46n2BT8s2QboaajgaTYPxQnaoe_VsNaXAHtgfFLB_78lpprtlkiU5q6IXmWoo9Q931wMkU69FgPZpzlZ4GptzKgkbuQR10yzeD-TNS9WaY1JO5O83rX0m09QSU4EK0Igo0oNWfOn5pZmzb24FEgPp1G6KeILKI4D0WkKrDhjxU-ZVtvRoN1hIvz-VEEVjxUluHeB3IahG2ht8HlW8oIIXHWsM9x0oMWxEA_hy2lXUEReRiKrQFoPaov2o5ciM0fqPZtQMBY8WOa2K2d2eZ2JojYpC4Sm4WnFKUP6Mw1EHDSo1DCl_eBAkYRI73CjVQ-061dZ8zVElZQCBktnnUqLXPaaNhI6VQOB4K3g7nt1AKnkPXVpvVNint9oCVaywwM0PRn3l-Bnof1Q6tbf6Rdac8JjRi5_OxMQOiI5ImoK7OrWzQ3pjDdbxz_LgyaA0tSZVw42IJ4hIb6M6s0gpbCKHeyWa2cTFB5Y8q9r33VSs9gp931ntFEdmc9PyzlpTrUVKHca6YBB_2R5DZK-rLTAeICB2oV5GE3Q0aaPaT-BB0rtzDHeattdKdOSsX0J9BRBxHbE_IP_GRIk4bXPwoKkrV4oOqfJ4LG936pUwxIJpYSq3GftdVhZiLliQqoYuO341oCOJ0c8IYsoMdXmI40IZKzA3IwM69WzOt35T8z2RmECZXIXcTCLXI6CaWbjuahAMXnElyBP6RpreInXDfztDjzdrUQmJS6csM-A4uyTkvKvfxD5oQvEOM6OCisB_AlfPuWRmLZ9FACM8pF81NLA67OBa79VHtJYmy514r6zgI8wwQBx9zzO9zD-lHq9cNoP4YCBPb_gRno18-Z47rLeMdeFd8Mwy12FZYe7YBNzXu3Ct-OgnatFsrZrTWxhEPtTLqPqDlMnDQClLLSFFWcEnzi8kXV3gQGwjYv6zm9che4JGsxZA3evzBhaErCxqz_MOzja4unC2rpJCxLzRd4vf_P1Rp5YD61i2n7uIF5dg9XxRcCtQjQCkxOVkI6ZCvg9b0zN3Xlll-uPzsBUY1t0KsVfDvPxCQbxahLYd_oM0L6M7yforr7n_oS5LSCBesB24fuPnLuS517FzD8Ep5ptt5sHR41ZL0El_Y0qtPlc- -NLxG9ObYc24jfoPAAUyTkxzny0]--></g></svg>