<svg xmlns="http://www.w3.org/2000/svg" xmlns:xlink="http://www.w3.org/1999/xlink" contentStyleType="text/css" data-diagram-type="SEQUENCE" height="1720px" preserveAspectRatio="none" style="width:1545px;height:1720px;background:#FFFFFF;" version="1.1" viewBox="0 0 1545 1720" width="1545px" zoomAndPan="magnify"><title>Mix PMEK into MEK Secret Seed</title><defs/><g><rect fill="#DDDDDD" height="1670.9414" style="stroke:#181818;stroke-width:0.5;" width="1389.1479" x="149.9521" y="43.4883"/><text fill="#000000" font-family="sans-serif" font-size="13" font-weight="bold" lengthAdjust="spacing" textLength="52.7935" x="818.1294" y="56.0566">Caliptra</text><text fill="#000000" font-family="sans-serif" font-size="14" font-weight="bold" lengthAdjust="spacing" textLength="225.2373" x="680.9314" y="28.5352">Mix PMEK into MEK Secret Seed</text><g><title>Storage</title><rect fill="transparent" height="1516.7012" width="8" x="53.1826" y="127.2637"/><line style="stroke:#181818;stroke-width:0.5;stroke-dasharray:5.0,5.0;" x1="56.6826" x2="56.6826" y1="127.2637" y2="1643.9648"/></g><g><title/><rect fill="#FFFFFF" height="87.9316" style="stroke:#181818;stroke-width:1;" width="10" x="51.6826" y="1556.0332"/></g><g><title>Mail Box</title><rect fill="transparent" height="1516.7012" width="8" x="186.228" y="127.2637"/><line style="stroke:#181818;stroke-width:0.5;stroke-dasharray:5.0,5.0;" x1="189.728" x2="189.728" y1="127.2637" y2="1643.9648"/></g><g><title/><rect fill="#FFFFFF" height="143.8633" style="stroke:#181818;stroke-width:1;" width="10" x="184.728" y="299.0586"/></g><g><title>FW</title><rect fill="transparent" height="1516.7012" width="8" x="347.5503" y="127.2637"/><line style="stroke:#181818;stroke-width:0.5;stroke-dasharray:5.0,5.0;" x1="351.0503" x2="351.0503" y1="127.2637" y2="1643.9648"/></g><g><title/><rect fill="#FFFFFF" height="1142.4219" style="stroke:#181818;stroke-width:1;" width="10" x="346.0503" y="413.6113"/></g><g><title>Key Vault</title><rect fill="transparent" height="1516.7012" width="8" x="662.3228" y="127.2637"/><line style="stroke:#181818;stroke-width:0.5;stroke-dasharray:5.0,5.0;" x1="665.8228" x2="665.8228" y1="127.2637" y2="1643.9648"/></g><g><title/><rect fill="#FFFFFF" height="130.2422" style="stroke:#181818;stroke-width:1;" width="10" x="660.8228" y="607.7852"/></g><g><title/><rect fill="#FFFFFF" height="130.2422" style="stroke:#181818;stroke-width:1;" width="10" x="660.8228" y="854.2695"/></g><g><title/><rect fill="#FFFFFF" height="130.2422" style="stroke:#181818;stroke-width:1;" width="10" x="660.8228" y="1044.4434"/></g><g><title/><rect fill="#FFFFFF" height="159.5527" style="stroke:#181818;stroke-width:1;" width="10" x="660.8228" y="1234.6172"/></g><g><title/><rect fill="#FFFFFF" height="58.6211" style="stroke:#181818;stroke-width:1;" width="10" x="660.8228" y="1438.791"/></g><g><title>Key Vault</title><rect fill="transparent" height="1516.7012" width="8" x="915.8125" y="127.2637"/><line style="stroke:#181818;stroke-width:0.5;stroke-dasharray:5.0,5.0;" x1="919.3125" x2="919.3125" y1="127.2637" y2="1643.9648"/></g><g><title>Key Vault</title><rect fill="transparent" height="1516.7012" width="8" x="1069.3604" y="127.2637"/><line style="stroke:#181818;stroke-width:0.5;stroke-dasharray:5.0,5.0;" x1="1072.8604" x2="1072.8604" y1="127.2637" y2="1643.9648"/></g><g><title/><rect fill="#ADD8E6" height="1366.2168" style="stroke:#181818;stroke-width:1;" width="10" x="1067.8604" y="277.748"/></g><g><title>Key Vault</title><rect fill="transparent" height="1516.7012" width="8" x="1251.127" y="127.2637"/><line style="stroke:#181818;stroke-width:0.5;stroke-dasharray:5.0,5.0;" x1="1254.627" x2="1254.627" y1="127.2637" y2="1643.9648"/></g><g><title/><rect fill="#ADD8E6" height="1366.2168" style="stroke:#181818;stroke-width:1;" width="10" x="1249.627" y="277.748"/></g><g><title>Key Vault</title><rect fill="transparent" height="1516.7012" width="8" x="1376.4868" y="127.2637"/><line style="stroke:#181818;stroke-width:0.5;stroke-dasharray:5.0,5.0;" x1="1379.9868" x2="1379.9868" y1="127.2637" y2="1643.9648"/></g><g><title/><rect fill="#ADD8E6" height="512.9004" style="stroke:#181818;stroke-width:1;" width="10" x="1374.9868" y="955.2012"/></g><line style="stroke:#181818;stroke-width:2;" x1="1370.9868" x2="1388.9868" y1="1459.1016" y2="1477.1016"/><line style="stroke:#181818;stroke-width:2;" x1="1370.9868" x2="1388.9868" y1="1477.1016" y2="1459.1016"/><g><title>Key Vault</title><rect fill="transparent" height="1516.7012" width="8" x="1483.229" y="127.2637"/><line style="stroke:#181818;stroke-width:0.5;stroke-dasharray:5.0,5.0;" x1="1486.729" x2="1486.729" y1="127.2637" y2="1643.9648"/></g><g><title/><rect fill="#ADD8E6" height="322.7266" style="stroke:#181818;stroke-width:1;" width="10" x="1481.729" y="1145.375"/></g><rect fill="#E2E2F0" height="63.4648" rx="2.5" ry="2.5" style="stroke:#181818;stroke-width:0.5;" width="65.3652" x="24" y="62.7988"/><text fill="#000000" font-family="sans-serif" font-size="14" lengthAdjust="spacing" textLength="51.3652" x="31" y="83.334">Storage</text><text fill="#000000" font-family="sans-serif" font-size="14" lengthAdjust="spacing" textLength="44.5498" x="34.4077" y="99.8223">Device</text><text fill="#000000" font-family="sans-serif" font-size="14" lengthAdjust="spacing" textLength="19.4824" x="46.9414" y="116.3105">FW</text><rect fill="#E2E2F0" height="30.4883" rx="2.5" ry="2.5" style="stroke:#181818;stroke-width:0.5;" width="71.5518" x="153.9521" y="95.7754"/><text fill="#000000" font-family="sans-serif" font-size="14" lengthAdjust="spacing" textLength="57.5518" x="160.9521" y="116.3105">Mail Box</text><rect fill="#E2E2F0" height="30.4883" rx="2.5" ry="2.5" style="stroke:#181818;stroke-width:0.5;" width="33.4824" x="334.3091" y="95.7754"/><text fill="#000000" font-family="sans-serif" font-size="14" lengthAdjust="spacing" textLength="19.4824" x="341.3091" y="116.3105">FW</text><rect fill="#E2E2F0" height="30.4883" rx="2.5" ry="2.5" style="stroke:#181818;stroke-width:0.5;" width="77.54" x="627.0527" y="95.7754"/><text fill="#000000" font-family="sans-serif" font-size="14" lengthAdjust="spacing" textLength="63.54" x="634.0527" y="116.3105">Key Vault</text><rect fill="#E2E2F0" height="63.4648" rx="2.5" ry="2.5" style="stroke:#181818;stroke-width:0.5;" width="77.54" x="880.5425" y="62.7988"/><text fill="#000000" font-family="sans-serif" font-size="14" lengthAdjust="spacing" textLength="63.54" x="887.5425" y="83.334">Key Vault</text><text fill="#000000" font-family="sans-serif" font-size="14" lengthAdjust="spacing" textLength="39.5117" x="899.5566" y="99.8223">Slot A</text><text fill="#000000" font-family="sans-serif" font-size="14" lengthAdjust="spacing" textLength="33.3389" x="902.6431" y="116.3105">(FEK)</text><rect fill="#E2E2F0" height="63.4648" rx="2.5" ry="2.5" style="stroke:#181818;stroke-width:0.5;" width="209.5557" x="968.0825" y="62.7988"/><text fill="#000000" font-family="sans-serif" font-size="14" lengthAdjust="spacing" textLength="63.54" x="1041.0903" y="83.334">Key Vault</text><text fill="#000000" font-family="sans-serif" font-size="14" lengthAdjust="spacing" textLength="37.9053" x="1053.9077" y="99.8223">Slot B</text><text fill="#000000" font-family="sans-serif" font-size="14" lengthAdjust="spacing" textLength="195.5557" x="975.0825" y="116.3105">(Ready PMEK Encryption Key)</text><rect fill="#E2E2F0" height="63.4648" rx="2.5" ry="2.5" style="stroke:#181818;stroke-width:0.5;" width="133.9775" x="1187.6382" y="62.7988"/><text fill="#000000" font-family="sans-serif" font-size="14" lengthAdjust="spacing" textLength="63.54" x="1222.8569" y="83.334">Key Vault</text><text fill="#000000" font-family="sans-serif" font-size="14" lengthAdjust="spacing" textLength="38.6162" x="1235.3188" y="99.8223">Slot X</text><text fill="#000000" font-family="sans-serif" font-size="14" lengthAdjust="spacing" textLength="119.9775" x="1194.6382" y="116.3105">(MEK Secret Seed)</text><rect fill="#E2E2F0" height="63.4648" rx="2.5" ry="2.5" style="stroke:#181818;stroke-width:0.5;" width="96.7422" x="1331.6157" y="62.7988"/><text fill="#000000" font-family="sans-serif" font-size="14" lengthAdjust="spacing" textLength="63.54" x="1348.2168" y="83.334">Key Vault</text><text fill="#000000" font-family="sans-serif" font-size="14" lengthAdjust="spacing" textLength="38.5752" x="1360.6992" y="99.8223">Slot Y</text><text fill="#000000" font-family="sans-serif" font-size="14" lengthAdjust="spacing" textLength="82.7422" x="1338.6157" y="116.3105">(Temporary)</text><rect fill="#E2E2F0" height="63.4648" rx="2.5" ry="2.5" style="stroke:#181818;stroke-width:0.5;" width="96.7422" x="1438.3579" y="62.7988"/><text fill="#000000" font-family="sans-serif" font-size="14" lengthAdjust="spacing" textLength="63.54" x="1454.959" y="83.334">Key Vault</text><text fill="#000000" font-family="sans-serif" font-size="14" lengthAdjust="spacing" textLength="38.3154" x="1467.5713" y="99.8223">Slot Z</text><text fill="#000000" font-family="sans-serif" font-size="14" lengthAdjust="spacing" textLength="82.7422" x="1445.3579" y="116.3105">(Temporary)</text><rect fill="#E2E2F0" height="63.4648" rx="2.5" ry="2.5" style="stroke:#181818;stroke-width:0.5;" width="65.3652" x="24" y="1643.9648"/><text fill="#000000" font-family="sans-serif" font-size="14" lengthAdjust="spacing" textLength="51.3652" x="31" y="1664.5">Storage</text><text fill="#000000" font-family="sans-serif" font-size="14" lengthAdjust="spacing" textLength="44.5498" x="34.4077" y="1680.9883">Device</text><text fill="#000000" font-family="sans-serif" font-size="14" lengthAdjust="spacing" textLength="19.4824" x="46.9414" y="1697.4766">FW</text><rect fill="#E2E2F0" height="30.4883" rx="2.5" ry="2.5" style="stroke:#181818;stroke-width:0.5;" width="71.5518" x="153.9521" y="1643.9648"/><text fill="#000000" font-family="sans-serif" font-size="14" lengthAdjust="spacing" textLength="57.5518" x="160.9521" y="1664.5">Mail Box</text><rect fill="#E2E2F0" height="30.4883" rx="2.5" ry="2.5" style="stroke:#181818;stroke-width:0.5;" width="33.4824" x="334.3091" y="1643.9648"/><text fill="#000000" font-family="sans-serif" font-size="14" lengthAdjust="spacing" textLength="19.4824" x="341.3091" y="1664.5">FW</text><rect fill="#E2E2F0" height="30.4883" rx="2.5" ry="2.5" style="stroke:#181818;stroke-width:0.5;" width="77.54" x="627.0527" y="1643.9648"/><text fill="#000000" font-family="sans-serif" font-size="14" lengthAdjust="spacing" textLength="63.54" x="634.0527" y="1664.5">Key Vault</text><rect fill="#E2E2F0" height="63.4648" rx="2.5" ry="2.5" style="stroke:#181818;stroke-width:0.5;" width="77.54" x="880.5425" y="1643.9648"/><text fill="#000000" font-family="sans-serif" font-size="14" lengthAdjust="spacing" textLength="63.54" x="887.5425" y="1664.5">Key Vault</text><text fill="#000000" font-family="sans-serif" font-size="14" lengthAdjust="spacing" textLength="39.5117" x="899.5566" y="1680.9883">Slot A</text><text fill="#000000" font-family="sans-serif" font-size="14" lengthAdjust="spacing" textLength="33.3389" x="902.6431" y="1697.4766">(FEK)</text><rect fill="#E2E2F0" height="63.4648" rx="2.5" ry="2.5" style="stroke:#181818;stroke-width:0.5;" width="209.5557" x="968.0825" y="1643.9648"/><text fill="#000000" font-family="sans-serif" font-size="14" lengthAdjust="spacing" textLength="63.54" x="1041.0903" y="1664.5">Key Vault</text><text fill="#000000" font-family="sans-serif" font-size="14" lengthAdjust="spacing" textLength="37.9053" x="1053.9077" y="1680.9883">Slot B</text><text fill="#000000" font-family="sans-serif" font-size="14" lengthAdjust="spacing" textLength="195.5557" x="975.0825" y="1697.4766">(Ready PMEK Encryption Key)</text><rect fill="#E2E2F0" height="63.4648" rx="2.5" ry="2.5" style="stroke:#181818;stroke-width:0.5;" width="133.9775" x="1187.6382" y="1643.9648"/><text fill="#000000" font-family="sans-serif" font-size="14" lengthAdjust="spacing" textLength="63.54" x="1222.8569" y="1664.5">Key Vault</text><text fill="#000000" font-family="sans-serif" font-size="14" lengthAdjust="spacing" textLength="38.6162" x="1235.3188" y="1680.9883">Slot X</text><text fill="#000000" font-family="sans-serif" font-size="14" lengthAdjust="spacing" textLength="119.9775" x="1194.6382" y="1697.4766">(MEK Secret Seed)</text><rect fill="#E2E2F0" height="63.4648" rx="2.5" ry="2.5" style="stroke:#181818;stroke-width:0.5;" width="96.7422" x="1331.6157" y="1643.9648"/><text fill="#000000" font-family="sans-serif" font-size="14" lengthAdjust="spacing" textLength="63.54" x="1348.2168" y="1664.5">Key Vault</text><text fill="#000000" font-family="sans-serif" font-size="14" lengthAdjust="spacing" textLength="38.5752" x="1360.6992" y="1680.9883">Slot Y</text><text fill="#000000" font-family="sans-serif" font-size="14" lengthAdjust="spacing" textLength="82.7422" x="1338.6157" y="1697.4766">(Temporary)</text><rect fill="#E2E2F0" height="63.4648" rx="2.5" ry="2.5" style="stroke:#181818;stroke-width:0.5;" width="96.7422" x="1438.3579" y="1643.9648"/><text fill="#000000" font-family="sans-serif" font-size="14" lengthAdjust="spacing" textLength="63.54" x="1454.959" y="1664.5">Key Vault</text><text fill="#000000" font-family="sans-serif" font-size="14" lengthAdjust="spacing" textLength="38.3154" x="1467.5713" y="1680.9883">Slot Z</text><text fill="#000000" font-family="sans-serif" font-size="14" lengthAdjust="spacing" textLength="82.7422" x="1445.3579" y="1697.4766">(Temporary)</text><path d="M21.1558,140.2637 L21.1558,272.2637 L1522.1558,272.2637 L1522.1558,150.2637 L1512.1558,140.2637 L21.1558,140.2637 " fill="#FEFFDD" style="stroke:#181818;stroke-width:0.5;"/><path d="M1512.1558,140.2637 L1512.1558,150.2637 L1522.1558,150.2637 L1512.1558,140.2637 " fill="#FEFFDD" style="stroke:#181818;stroke-width:0.5;"/><text fill="#000000" font-family="sans-serif" font-size="13" font-weight="bold" lengthAdjust="spacing" textLength="94.999" x="59.877" y="157.832">Preconditions:</text><ellipse cx="65.377" cy="168.3848" fill="#000000" rx="2.5" ry="2.5"/><text fill="#000000" font-family="sans-serif" font-size="13" lengthAdjust="spacing" textLength="349.9526" x="71.877" y="173.1426">Ready PMEK Encryption Key is stored in Key Vault slot B</text><ellipse cx="65.377" cy="183.6953" fill="#000000" rx="2.5" ry="2.5"/><text fill="#000000" font-family="sans-serif" font-size="13" lengthAdjust="spacing" textLength="548.4565" x="71.877" y="188.4531">The following sequence has occurred prior: Initialize MEK then zero or more MIX_PMEK</text><text fill="#000000" font-family="sans-serif" font-size="13" lengthAdjust="spacing" textLength="4.1133" x="59.877" y="203.7637">&#160;</text><text fill="#000000" font-family="sans-serif" font-size="13" font-weight="bold" lengthAdjust="spacing" textLength="41.7422" x="59.877" y="219.0742">Notes:</text><text fill="#000000" font-family="sans-serif" font-size="13" lengthAdjust="spacing" textLength="1406.4312" x="68.1035" y="234.3848">* The sequence diagram assumes that the KV will not allow an input KV slot to also be used as an out KV slot. Caliptra FW is responsible for managing which KV slots are used and can adapt if this assumption is not correct.</text><text fill="#000000" font-family="sans-serif" font-size="13" lengthAdjust="spacing" textLength="480.8032" x="68.1035" y="249.6953">* This sequence is focused on successful execution of operations by the KV.</text><text fill="#000000" font-family="sans-serif" font-size="13" lengthAdjust="spacing" textLength="4.1133" x="59.877" y="265.0059">&#160;</text><line style="stroke:#008000;stroke-width:1;" x1="182.728" x2="172.728" y1="299.0586" y2="295.0586"/><line style="stroke:#008000;stroke-width:1;" x1="182.728" x2="172.728" y1="299.0586" y2="303.0586"/><line style="stroke:#008000;stroke-width:1;" x1="56.6826" x2="183.728" y1="299.0586" y2="299.0586"/><text fill="#000000" font-family="sans-serif" font-size="13" font-weight="bold" lengthAdjust="spacing" textLength="35.3628" x="63.6826" y="294.3164">[001]</text><text fill="#000000" font-family="sans-serif" font-size="13" lengthAdjust="spacing" textLength="63.4956" x="103.0454" y="294.3164">MIX_PMEK</text><path d="M199.728,312.0586 L199.728,387.0586 L565.728,387.0586 L565.728,322.0586 L555.728,312.0586 L199.728,312.0586 " fill="#FEFFDD" style="stroke:#181818;stroke-width:0.5;"/><path d="M555.728,312.0586 L555.728,322.0586 L565.728,322.0586 L555.728,312.0586 " fill="#FEFFDD" style="stroke:#181818;stroke-width:0.5;"/><text fill="#000000" font-family="sans-serif" font-size="13" lengthAdjust="spacing" textLength="4.1133" x="205.728" y="331.627">&#160;</text><text fill="#000000" font-family="sans-serif" font-size="13" font-weight="bold" lengthAdjust="spacing" textLength="32.1509" x="209.8413" y="331.627">Field</text><text fill="#000000" font-family="sans-serif" font-size="13" lengthAdjust="spacing" textLength="4.1133" x="290.3296" y="331.627">&#160;</text><text fill="#000000" font-family="sans-serif" font-size="13" font-weight="bold" lengthAdjust="spacing" textLength="26.9521" x="294.4429" y="331.627">Size</text><text fill="#000000" font-family="sans-serif" font-size="13" lengthAdjust="spacing" textLength="4.1133" x="361.0361" y="331.627">&#160;</text><text fill="#000000" font-family="sans-serif" font-size="13" font-weight="bold" lengthAdjust="spacing" textLength="66.644" x="365.1494" y="331.627">Definition</text><text fill="#000000" font-family="sans-serif" font-size="13" lengthAdjust="spacing" textLength="49.1563" x="209.8413" y="346.9375">chksum</text><text fill="#000000" font-family="sans-serif" font-size="13" lengthAdjust="spacing" textLength="24.5083" x="294.4429" y="346.9375">u32</text><text fill="#000000" font-family="sans-serif" font-size="13" lengthAdjust="spacing" textLength="78.0254" x="365.1494" y="346.9375">Little endian</text><text fill="#000000" font-family="sans-serif" font-size="13" lengthAdjust="spacing" textLength="76.375" x="209.8413" y="362.248">ready_pmek</text><text fill="#000000" font-family="sans-serif" font-size="13" lengthAdjust="spacing" textLength="62.48" x="294.4429" y="362.248">512 bytes</text><text fill="#000000" font-family="sans-serif" font-size="13" lengthAdjust="spacing" textLength="75.645" x="365.1494" y="362.248">Ready PMEK</text><text fill="#000000" font-family="sans-serif" font-size="13" lengthAdjust="spacing" textLength="182.0762" x="365.1494" y="377.5586">* PMEK Algorithm embedded</text><line style="stroke:#000000;stroke-width:0.5;" x1="205.728" x2="551.3389" y1="319.0586" y2="319.0586"/><line style="stroke:#000000;stroke-width:0.5;" x1="205.728" x2="551.3389" y1="334.3691" y2="334.3691"/><line style="stroke:#000000;stroke-width:0.5;" x1="205.728" x2="551.3389" y1="349.6797" y2="349.6797"/><line style="stroke:#000000;stroke-width:0.5;" x1="205.728" x2="551.3389" y1="380.3008" y2="380.3008"/><line style="stroke:#000000;stroke-width:0.5;" x1="205.728" x2="205.728" y1="319.0586" y2="380.3008"/><line style="stroke:#000000;stroke-width:0.5;" x1="290.3296" x2="290.3296" y1="319.0586" y2="380.3008"/><line style="stroke:#000000;stroke-width:0.5;" x1="361.0361" x2="361.0361" y1="319.0586" y2="380.3008"/><line style="stroke:#000000;stroke-width:0.5;" x1="551.3389" x2="551.3389" y1="319.0586" y2="380.3008"/><line style="stroke:#008000;stroke-width:1;" x1="344.0503" x2="334.0503" y1="413.6113" y2="409.6113"/><line style="stroke:#008000;stroke-width:1;" x1="344.0503" x2="334.0503" y1="413.6113" y2="417.6113"/><line style="stroke:#008000;stroke-width:1;" x1="194.728" x2="345.0503" y1="413.6113" y2="413.6113"/><text fill="#000000" font-family="sans-serif" font-size="13" font-weight="bold" lengthAdjust="spacing" textLength="35.3628" x="201.728" y="408.8691">[002]</text><text fill="#000000" font-family="sans-serif" font-size="13" lengthAdjust="spacing" textLength="64.6826" x="241.0908" y="408.8691">Command</text><polygon fill="#FF0000" points="205.728,438.9219,195.728,442.9219,205.728,446.9219,201.728,442.9219" style="stroke:#FF0000;stroke-width:1;"/><line style="stroke:#FF0000;stroke-width:1;" x1="199.728" x2="345.0503" y1="442.9219" y2="442.9219"/><text fill="#000000" font-family="sans-serif" font-size="13" font-weight="bold" lengthAdjust="spacing" textLength="35.3628" x="211.728" y="438.1797">[003]</text><text fill="#000000" font-family="sans-serif" font-size="13" lengthAdjust="spacing" textLength="87.9595" x="251.0908" y="438.1797">Get command</text><line style="stroke:#FF0000;stroke-width:1;" x1="356.0503" x2="398.0503" y1="472.2324" y2="472.2324"/><line style="stroke:#FF0000;stroke-width:1;" x1="398.0503" x2="398.0503" y1="472.2324" y2="485.2324"/><line style="stroke:#FF0000;stroke-width:1;" x1="357.0503" x2="398.0503" y1="485.2324" y2="485.2324"/><polygon fill="#FF0000" points="367.0503,481.2324,357.0503,485.2324,367.0503,489.2324,363.0503,485.2324" style="stroke:#FF0000;stroke-width:1;"/><text fill="#000000" font-family="sans-serif" font-size="13" font-weight="bold" lengthAdjust="spacing" textLength="35.3628" x="363.0503" y="467.4902">[004]</text><text fill="#000000" font-family="sans-serif" font-size="13" lengthAdjust="spacing" textLength="132.0693" x="402.4131" y="467.4902">Determine command</text><path d="M8,497.2324 L70.1387,497.2324 L70.1387,504.543 L60.1387,514.543 L8,514.543 L8,497.2324 " fill="#EEEEEE" style="stroke:#000000;stroke-width:1.5;"/><rect fill="transparent" height="1008.1797" style="stroke:#000000;stroke-width:1.5;" width="1499.729" x="8" y="497.2324"/><text fill="#000000" font-family="sans-serif" font-size="13" font-weight="bold" lengthAdjust="spacing" textLength="17.1387" x="23" y="510.8008">alt</text><text fill="#000000" font-family="sans-serif" font-size="11" font-weight="bold" lengthAdjust="spacing" textLength="65.9302" x="85.1387" y="509.8672">[FEK exists]</text><path d="M335.0503,528.543 L397.189,528.543 L397.189,535.8535 L387.189,545.8535 L335.0503,545.8535 L335.0503,528.543 " fill="#EEEEEE" style="stroke:#000000;stroke-width:1.5;"/><rect fill="transparent" height="217.4844" style="stroke:#000000;stroke-width:1.5;" width="935.5767" x="335.0503" y="528.543"/><text fill="#000000" font-family="sans-serif" font-size="13" font-weight="bold" lengthAdjust="spacing" textLength="17.1387" x="350.0503" y="542.1113">alt</text><text fill="#000000" font-family="sans-serif" font-size="11" font-weight="bold" lengthAdjust="spacing" textLength="338.4165" x="412.189" y="541.1777">[MEK is not initialized (i.e., no PMEK has yet been included)]</text><polygon fill="#FF0000" points="648.8228,603.7852,658.8228,607.7852,648.8228,611.7852,652.8228,607.7852" style="stroke:#FF0000;stroke-width:1;"/><line style="stroke:#FF0000;stroke-width:1;" x1="356.0503" x2="654.8228" y1="607.7852" y2="607.7852"/><text fill="#000000" font-family="sans-serif" font-size="13" font-weight="bold" lengthAdjust="spacing" textLength="35.3628" x="363.0503" y="587.7324">[005]</text><text fill="#000000" font-family="sans-serif" font-size="13" lengthAdjust="spacing" textLength="139.1533" x="402.4131" y="572.4219">HMAC512(Key: Slot A,</text><text fill="#000000" font-family="sans-serif" font-size="13" lengthAdjust="spacing" textLength="180.5972" x="468.2256" y="587.7324">Key Data: "MEK Secret Seed",</text><text fill="#000000" font-family="sans-serif" font-size="13" lengthAdjust="spacing" textLength="120.4595" x="468.2256" y="603.043">Destination: Slot X)</text><polygon fill="#FF0000" points="907.3125,633.0957,917.3125,637.0957,907.3125,641.0957,911.3125,637.0957" style="stroke:#FF0000;stroke-width:1;"/><line style="stroke:#FF0000;stroke-width:1;" x1="670.8228" x2="913.3125" y1="637.0957" y2="637.0957"/><text fill="#000000" font-family="sans-serif" font-size="13" font-weight="bold" lengthAdjust="spacing" textLength="35.3628" x="677.8228" y="632.3535">[006]</text><text fill="#000000" font-family="sans-serif" font-size="13" lengthAdjust="spacing" textLength="48.1152" x="717.1855" y="632.3535">Get FEK</text><line style="stroke:#FF0000;stroke-width:1;" x1="670.8228" x2="712.8228" y1="666.4063" y2="666.4063"/><line style="stroke:#FF0000;stroke-width:1;" x1="712.8228" x2="712.8228" y1="666.4063" y2="679.4063"/><line style="stroke:#FF0000;stroke-width:1;" x1="671.8228" x2="712.8228" y1="679.4063" y2="679.4063"/><polygon fill="#FF0000" points="681.8228,675.4063,671.8228,679.4063,681.8228,683.4063,677.8228,679.4063" style="stroke:#FF0000;stroke-width:1;"/><text fill="#000000" font-family="sans-serif" font-size="13" font-weight="bold" lengthAdjust="spacing" textLength="35.3628" x="677.8228" y="661.6641">[007]</text><text fill="#000000" font-family="sans-serif" font-size="13" lengthAdjust="spacing" textLength="167.6924" x="717.1855" y="661.6641">HMAC512 slot A with Data</text><polygon fill="#FF0000" points="1237.627,704.7168,1247.627,708.7168,1237.627,712.7168,1241.627,708.7168" style="stroke:#FF0000;stroke-width:1;"/><line style="stroke:#FF0000;stroke-width:1;" x1="670.8228" x2="1243.627" y1="708.7168" y2="708.7168"/><text fill="#000000" font-family="sans-serif" font-size="13" font-weight="bold" lengthAdjust="spacing" textLength="35.3628" x="677.8228" y="703.9746">[008]</text><text fill="#000000" font-family="sans-serif" font-size="13" lengthAdjust="spacing" textLength="267.8647" x="717.1855" y="703.9746">HMAC512 result MEK Secret Seed with FEK</text><polygon fill="#FF0000" points="367.0503,734.0273,357.0503,738.0273,367.0503,742.0273,363.0503,738.0273" style="stroke:#FF0000;stroke-width:1;"/><line style="stroke:#FF0000;stroke-width:1;" x1="361.0503" x2="659.8228" y1="738.0273" y2="738.0273"/><text fill="#000000" font-family="sans-serif" font-size="13" font-weight="bold" lengthAdjust="spacing" textLength="35.3628" x="373.0503" y="733.2852">[009]</text><text fill="#000000" font-family="sans-serif" font-size="13" lengthAdjust="spacing" textLength="31.478" x="412.4131" y="733.2852">done</text><line style="stroke:#FF0000;stroke-width:1;" x1="356.0503" x2="398.0503" y1="781.3379" y2="781.3379"/><line style="stroke:#FF0000;stroke-width:1;" x1="398.0503" x2="398.0503" y1="781.3379" y2="794.3379"/><line style="stroke:#FF0000;stroke-width:1;" x1="357.0503" x2="398.0503" y1="794.3379" y2="794.3379"/><polygon fill="#FF0000" points="367.0503,790.3379,357.0503,794.3379,367.0503,798.3379,363.0503,794.3379" style="stroke:#FF0000;stroke-width:1;"/><text fill="#000000" font-family="sans-serif" font-size="13" font-weight="bold" lengthAdjust="spacing" textLength="35.3628" x="363.0503" y="776.5957">[010]</text><text fill="#000000" font-family="sans-serif" font-size="13" lengthAdjust="spacing" textLength="240.9951" x="402.4131" y="776.5957">Determine Temporary slox Y for PMEK</text><polygon fill="#FF0000" points="648.8228,850.2695,658.8228,854.2695,648.8228,858.2695,652.8228,854.2695" style="stroke:#FF0000;stroke-width:1;"/><line style="stroke:#FF0000;stroke-width:1;" x1="356.0503" x2="654.8228" y1="854.2695" y2="854.2695"/><text fill="#000000" font-family="sans-serif" font-size="13" font-weight="bold" lengthAdjust="spacing" textLength="35.3628" x="363.0503" y="834.2168">[011]</text><text fill="#000000" font-family="sans-serif" font-size="13" lengthAdjust="spacing" textLength="151.0806" x="402.4131" y="818.9063">Key_Unwrap(Key:  SlotB,</text><text fill="#000000" font-family="sans-serif" font-size="13" lengthAdjust="spacing" textLength="144.3076" x="480.5654" y="834.2168">Key Data: ready_pmek,</text><text fill="#000000" font-family="sans-serif" font-size="13" lengthAdjust="spacing" textLength="120.4214" x="480.5654" y="849.5273">Destination Slot: Y)</text><polygon fill="#FF0000" points="1055.8604,879.5801,1065.8604,883.5801,1055.8604,887.5801,1059.8604,883.5801" style="stroke:#FF0000;stroke-width:1;"/><line style="stroke:#FF0000;stroke-width:1;" x1="670.8228" x2="1061.8604" y1="883.5801" y2="883.5801"/><text fill="#000000" font-family="sans-serif" font-size="13" font-weight="bold" lengthAdjust="spacing" textLength="35.3628" x="677.8228" y="878.8379">[012]</text><text fill="#000000" font-family="sans-serif" font-size="13" lengthAdjust="spacing" textLength="198.7451" x="717.1855" y="878.8379">Get Ready PMEK Encryption Key</text><line style="stroke:#FF0000;stroke-width:1;" x1="670.8228" x2="712.8228" y1="912.8906" y2="912.8906"/><line style="stroke:#FF0000;stroke-width:1;" x1="712.8228" x2="712.8228" y1="912.8906" y2="925.8906"/><line style="stroke:#FF0000;stroke-width:1;" x1="671.8228" x2="712.8228" y1="925.8906" y2="925.8906"/><polygon fill="#FF0000" points="681.8228,921.8906,671.8228,925.8906,681.8228,929.8906,677.8228,925.8906" style="stroke:#FF0000;stroke-width:1;"/><text fill="#000000" font-family="sans-serif" font-size="13" font-weight="bold" lengthAdjust="spacing" textLength="35.3628" x="677.8228" y="908.1484">[013]</text><text fill="#000000" font-family="sans-serif" font-size="13" lengthAdjust="spacing" textLength="157.2822" x="717.1855" y="908.1484">Key_Unwrap ready_pmek</text><polygon fill="#FF0000" points="1362.9868,951.2012,1372.9868,955.2012,1362.9868,959.2012,1366.9868,955.2012" style="stroke:#FF0000;stroke-width:1;"/><line style="stroke:#FF0000;stroke-width:1;" x1="670.8228" x2="1368.9868" y1="955.2012" y2="955.2012"/><text fill="#000000" font-family="sans-serif" font-size="13" font-weight="bold" lengthAdjust="spacing" textLength="35.3628" x="677.8228" y="950.459">[014]</text><text fill="#000000" font-family="sans-serif" font-size="13" lengthAdjust="spacing" textLength="58.1445" x="717.1855" y="950.459">Put PMEK</text><polygon fill="#FF0000" points="367.0503,980.5117,357.0503,984.5117,367.0503,988.5117,363.0503,984.5117" style="stroke:#FF0000;stroke-width:1;"/><line style="stroke:#FF0000;stroke-width:1;" x1="361.0503" x2="659.8228" y1="984.5117" y2="984.5117"/><text fill="#000000" font-family="sans-serif" font-size="13" font-weight="bold" lengthAdjust="spacing" textLength="35.3628" x="373.0503" y="979.7695">[015]</text><text fill="#000000" font-family="sans-serif" font-size="13" lengthAdjust="spacing" textLength="31.478" x="412.4131" y="979.7695">done</text><polygon fill="#FF0000" points="648.8228,1040.4434,658.8228,1044.4434,648.8228,1048.4434,652.8228,1044.4434" style="stroke:#FF0000;stroke-width:1;"/><line style="stroke:#FF0000;stroke-width:1;" x1="356.0503" x2="654.8228" y1="1044.4434" y2="1044.4434"/><text fill="#000000" font-family="sans-serif" font-size="13" font-weight="bold" lengthAdjust="spacing" textLength="35.3628" x="363.0503" y="1024.3906">[016]</text><text fill="#000000" font-family="sans-serif" font-size="13" lengthAdjust="spacing" textLength="142.4351" x="402.4131" y="1009.0801">HMAC512(Key : Slot X,</text><text fill="#000000" font-family="sans-serif" font-size="13" lengthAdjust="spacing" textLength="158.2471" x="468.2256" y="1024.3906">Data String : "PMEK mix",</text><text fill="#000000" font-family="sans-serif" font-size="13" lengthAdjust="spacing" textLength="124.2935" x="468.2256" y="1039.7012">Destination : Slot Z)</text><polygon fill="#FF0000" points="1237.627,1069.7539,1247.627,1073.7539,1237.627,1077.7539,1241.627,1073.7539" style="stroke:#FF0000;stroke-width:1;"/><line style="stroke:#FF0000;stroke-width:1;" x1="670.8228" x2="1243.627" y1="1073.7539" y2="1073.7539"/><text fill="#000000" font-family="sans-serif" font-size="13" font-weight="bold" lengthAdjust="spacing" textLength="35.3628" x="677.8228" y="1069.0117">[017]</text><text fill="#000000" font-family="sans-serif" font-size="13" lengthAdjust="spacing" textLength="128.5654" x="717.1855" y="1069.0117">Get MEK Secret Seed</text><line style="stroke:#FF0000;stroke-width:1;" x1="670.8228" x2="712.8228" y1="1103.0645" y2="1103.0645"/><line style="stroke:#FF0000;stroke-width:1;" x1="712.8228" x2="712.8228" y1="1103.0645" y2="1116.0645"/><line style="stroke:#FF0000;stroke-width:1;" x1="671.8228" x2="712.8228" y1="1116.0645" y2="1116.0645"/><polygon fill="#FF0000" points="681.8228,1112.0645,671.8228,1116.0645,681.8228,1120.0645,677.8228,1116.0645" style="stroke:#FF0000;stroke-width:1;"/><text fill="#000000" font-family="sans-serif" font-size="13" font-weight="bold" lengthAdjust="spacing" textLength="35.3628" x="677.8228" y="1098.3223">[018]</text><text fill="#000000" font-family="sans-serif" font-size="13" lengthAdjust="spacing" textLength="195.127" x="717.1855" y="1098.3223">HMAC512 Key with Data String</text><polygon fill="#FF0000" points="1469.729,1141.375,1479.729,1145.375,1469.729,1149.375,1473.729,1145.375" style="stroke:#FF0000;stroke-width:1;"/><line style="stroke:#FF0000;stroke-width:1;" x1="670.8228" x2="1475.729" y1="1145.375" y2="1145.375"/><text fill="#000000" font-family="sans-serif" font-size="13" font-weight="bold" lengthAdjust="spacing" textLength="35.3628" x="677.8228" y="1140.6328">[019]</text><text fill="#000000" font-family="sans-serif" font-size="13" lengthAdjust="spacing" textLength="250.3262" x="717.1855" y="1140.6328">HMAC512 result Temp MEK Secret Seed</text><polygon fill="#FF0000" points="367.0503,1170.6855,357.0503,1174.6855,367.0503,1178.6855,363.0503,1174.6855" style="stroke:#FF0000;stroke-width:1;"/><line style="stroke:#FF0000;stroke-width:1;" x1="361.0503" x2="659.8228" y1="1174.6855" y2="1174.6855"/><text fill="#000000" font-family="sans-serif" font-size="13" font-weight="bold" lengthAdjust="spacing" textLength="35.3628" x="373.0503" y="1169.9434">[020]</text><text fill="#000000" font-family="sans-serif" font-size="13" lengthAdjust="spacing" textLength="31.478" x="412.4131" y="1169.9434">done</text><polygon fill="#FF0000" points="648.8228,1230.6172,658.8228,1234.6172,648.8228,1238.6172,652.8228,1234.6172" style="stroke:#FF0000;stroke-width:1;"/><line style="stroke:#FF0000;stroke-width:1;" x1="356.0503" x2="654.8228" y1="1234.6172" y2="1234.6172"/><text fill="#000000" font-family="sans-serif" font-size="13" font-weight="bold" lengthAdjust="spacing" textLength="35.3628" x="363.0503" y="1214.5645">[021]</text><text fill="#000000" font-family="sans-serif" font-size="13" lengthAdjust="spacing" textLength="178.8896" x="402.4131" y="1199.2539">HMAC512_Slots(Key : Slot Z,</text><text fill="#000000" font-family="sans-serif" font-size="13" lengthAdjust="spacing" textLength="107.8657" x="505.2451" y="1214.5645">Data Key  : Slot Y</text><text fill="#000000" font-family="sans-serif" font-size="13" lengthAdjust="spacing" textLength="128.686" x="505.2451" y="1229.875">Destination : Slot: X)</text><polygon fill="#FF0000" points="1469.729,1259.9277,1479.729,1263.9277,1469.729,1267.9277,1473.729,1263.9277" style="stroke:#FF0000;stroke-width:1;"/><line style="stroke:#FF0000;stroke-width:1;" x1="670.8228" x2="1475.729" y1="1263.9277" y2="1263.9277"/><text fill="#000000" font-family="sans-serif" font-size="13" font-weight="bold" lengthAdjust="spacing" textLength="35.3628" x="677.8228" y="1259.1855">[022]</text><text fill="#000000" font-family="sans-serif" font-size="13" lengthAdjust="spacing" textLength="168.4604" x="717.1855" y="1259.1855">Get Temp MEK Secret Seed</text><polygon fill="#FF0000" points="1362.9868,1289.2383,1372.9868,1293.2383,1362.9868,1297.2383,1366.9868,1293.2383" style="stroke:#FF0000;stroke-width:1;"/><line style="stroke:#FF0000;stroke-width:1;" x1="670.8228" x2="1368.9868" y1="1293.2383" y2="1293.2383"/><text fill="#000000" font-family="sans-serif" font-size="13" font-weight="bold" lengthAdjust="spacing" textLength="35.3628" x="677.8228" y="1288.4961">[023]</text><text fill="#000000" font-family="sans-serif" font-size="13" lengthAdjust="spacing" textLength="59.5283" x="717.1855" y="1288.4961">Get PMEK</text><line style="stroke:#FF0000;stroke-width:1;" x1="670.8228" x2="712.8228" y1="1322.5488" y2="1322.5488"/><line style="stroke:#FF0000;stroke-width:1;" x1="712.8228" x2="712.8228" y1="1322.5488" y2="1335.5488"/><line style="stroke:#FF0000;stroke-width:1;" x1="671.8228" x2="712.8228" y1="1335.5488" y2="1335.5488"/><polygon fill="#FF0000" points="681.8228,1331.5488,671.8228,1335.5488,681.8228,1339.5488,677.8228,1335.5488" style="stroke:#FF0000;stroke-width:1;"/><text fill="#000000" font-family="sans-serif" font-size="13" font-weight="bold" lengthAdjust="spacing" textLength="35.3628" x="677.8228" y="1317.8066">[024]</text><text fill="#000000" font-family="sans-serif" font-size="13" lengthAdjust="spacing" textLength="177.2583" x="717.1855" y="1317.8066">HMAC512 Key and Data Key</text><polygon fill="#FF0000" points="1237.627,1360.8594,1247.627,1364.8594,1237.627,1368.8594,1241.627,1364.8594" style="stroke:#FF0000;stroke-width:1;"/><line style="stroke:#FF0000;stroke-width:1;" x1="670.8228" x2="1243.627" y1="1364.8594" y2="1364.8594"/><text fill="#000000" font-family="sans-serif" font-size="13" font-weight="bold" lengthAdjust="spacing" textLength="35.3628" x="677.8228" y="1360.1172">[025]</text><text fill="#000000" font-family="sans-serif" font-size="13" lengthAdjust="spacing" textLength="335.2896" x="717.1855" y="1360.1172">HMAC512 result MEK Secret Seed updated with PMEK</text><polygon fill="#FF0000" points="367.0503,1390.1699,357.0503,1394.1699,367.0503,1398.1699,363.0503,1394.1699" style="stroke:#FF0000;stroke-width:1;"/><line style="stroke:#FF0000;stroke-width:1;" x1="361.0503" x2="659.8228" y1="1394.1699" y2="1394.1699"/><text fill="#000000" font-family="sans-serif" font-size="13" font-weight="bold" lengthAdjust="spacing" textLength="35.3628" x="373.0503" y="1389.4277">[026]</text><text fill="#000000" font-family="sans-serif" font-size="13" lengthAdjust="spacing" textLength="31.478" x="412.4131" y="1389.4277">done</text><polygon fill="#FF0000" points="648.8228,1434.791,658.8228,1438.791,648.8228,1442.791,652.8228,1438.791" style="stroke:#FF0000;stroke-width:1;"/><line style="stroke:#FF0000;stroke-width:1;" x1="356.0503" x2="654.8228" y1="1438.791" y2="1438.791"/><text fill="#000000" font-family="sans-serif" font-size="13" font-weight="bold" lengthAdjust="spacing" textLength="35.3628" x="363.0503" y="1426.3936">[027]</text><text fill="#000000" font-family="sans-serif" font-size="13" lengthAdjust="spacing" textLength="138.9629" x="402.4131" y="1418.7383">Purge_key(Key: Slot Y,</text><text fill="#000000" font-family="sans-serif" font-size="13" lengthAdjust="spacing" textLength="74.6675" x="468.2256" y="1434.0488">Key : Slot Z)</text><polygon fill="#FF0000" points="1362.9868,1464.1016,1372.9868,1468.1016,1362.9868,1472.1016,1366.9868,1468.1016" style="stroke:#FF0000;stroke-width:1;"/><line style="stroke:#FF0000;stroke-width:1;" x1="670.8228" x2="1368.9868" y1="1468.1016" y2="1468.1016"/><text fill="#000000" font-family="sans-serif" font-size="13" font-weight="bold" lengthAdjust="spacing" textLength="35.3628" x="677.8228" y="1463.3594">[028]</text><text fill="#000000" font-family="sans-serif" font-size="13" lengthAdjust="spacing" textLength="35.9214" x="717.1855" y="1463.3594">Purge</text><polygon fill="#FF0000" points="1469.729,1464.1016,1479.729,1468.1016,1469.729,1472.1016,1473.729,1468.1016" style="stroke:#FF0000;stroke-width:1;"/><line style="stroke:#FF0000;stroke-width:1;" x1="670.8228" x2="1475.729" y1="1468.1016" y2="1468.1016"/><text fill="#000000" font-family="sans-serif" font-size="13" font-weight="bold" lengthAdjust="spacing" textLength="35.3628" x="677.8228" y="1463.3594">[029]</text><text fill="#000000" font-family="sans-serif" font-size="13" lengthAdjust="spacing" textLength="4.1133" x="717.1855" y="1463.3594">&#160;</text><polygon fill="#FF0000" points="367.0503,1493.4121,357.0503,1497.4121,367.0503,1501.4121,363.0503,1497.4121" style="stroke:#FF0000;stroke-width:1;"/><line style="stroke:#FF0000;stroke-width:1;" x1="361.0503" x2="659.8228" y1="1497.4121" y2="1497.4121"/><text fill="#000000" font-family="sans-serif" font-size="13" font-weight="bold" lengthAdjust="spacing" textLength="35.3628" x="373.0503" y="1492.6699">[030]</text><text fill="#000000" font-family="sans-serif" font-size="13" lengthAdjust="spacing" textLength="31.478" x="412.4131" y="1492.6699">done</text><line style="stroke:#008000;stroke-width:1;" x1="190.728" x2="200.728" y1="1556.0332" y2="1552.0332"/><line style="stroke:#008000;stroke-width:1;" x1="190.728" x2="200.728" y1="1556.0332" y2="1560.0332"/><line style="stroke:#008000;stroke-width:1;" x1="189.728" x2="345.0503" y1="1556.0332" y2="1556.0332"/><text fill="#000000" font-family="sans-serif" font-size="13" font-weight="bold" lengthAdjust="spacing" textLength="35.3628" x="206.728" y="1543.6357">[031]</text><text fill="#000000" font-family="sans-serif" font-size="13" lengthAdjust="spacing" textLength="64.6826" x="246.0908" y="1535.9805">Command</text><text fill="#000000" font-family="sans-serif" font-size="13" lengthAdjust="spacing" textLength="57.2939" x="246.0908" y="1551.291">response</text><line style="stroke:#008000;stroke-width:1;" x1="62.6826" x2="72.6826" y1="1556.0332" y2="1552.0332"/><line style="stroke:#008000;stroke-width:1;" x1="62.6826" x2="72.6826" y1="1556.0332" y2="1560.0332"/><line style="stroke:#008000;stroke-width:1;" x1="61.6826" x2="188.728" y1="1556.0332" y2="1556.0332"/><text fill="#000000" font-family="sans-serif" font-size="13" font-weight="bold" lengthAdjust="spacing" textLength="35.3628" x="78.6826" y="1543.6357">[032]</text><text fill="#000000" font-family="sans-serif" font-size="13" lengthAdjust="spacing" textLength="64.6826" x="118.0454" y="1535.9805">Command</text><text fill="#000000" font-family="sans-serif" font-size="13" lengthAdjust="spacing" textLength="58.0684" x="118.0454" y="1551.291">complete</text><path d="M194.728,1569.0332 L194.728,1628.0332 L684.728,1628.0332 L684.728,1579.0332 L674.728,1569.0332 L194.728,1569.0332 " fill="#FEFFDD" style="stroke:#181818;stroke-width:0.5;"/><path d="M674.728,1569.0332 L674.728,1579.0332 L684.728,1579.0332 L674.728,1569.0332 " fill="#FEFFDD" style="stroke:#181818;stroke-width:0.5;"/><text fill="#000000" font-family="sans-serif" font-size="13" lengthAdjust="spacing" textLength="4.1133" x="200.728" y="1588.6016">&#160;</text><text fill="#000000" font-family="sans-serif" font-size="13" font-weight="bold" lengthAdjust="spacing" textLength="32.1509" x="204.8413" y="1588.6016">Field</text><text fill="#000000" font-family="sans-serif" font-size="13" lengthAdjust="spacing" textLength="4.1133" x="274.564" y="1588.6016">&#160;</text><text fill="#000000" font-family="sans-serif" font-size="13" font-weight="bold" lengthAdjust="spacing" textLength="26.9521" x="278.6772" y="1588.6016">Size</text><text fill="#000000" font-family="sans-serif" font-size="13" lengthAdjust="spacing" textLength="4.1133" x="323.752" y="1588.6016">&#160;</text><text fill="#000000" font-family="sans-serif" font-size="13" font-weight="bold" lengthAdjust="spacing" textLength="66.644" x="327.8652" y="1588.6016">Definition</text><text fill="#000000" font-family="sans-serif" font-size="13" lengthAdjust="spacing" textLength="49.1563" x="204.8413" y="1603.9121">chksum</text><text fill="#000000" font-family="sans-serif" font-size="13" lengthAdjust="spacing" textLength="24.5083" x="278.6772" y="1603.9121">u32</text><text fill="#000000" font-family="sans-serif" font-size="13" lengthAdjust="spacing" textLength="78.0254" x="327.8652" y="1603.9121">Little endian</text><text fill="#000000" font-family="sans-serif" font-size="13" lengthAdjust="spacing" textLength="68.0723" x="204.8413" y="1619.2227">fips_status</text><text fill="#000000" font-family="sans-serif" font-size="13" lengthAdjust="spacing" textLength="24.5083" x="278.6772" y="1619.2227">u32</text><text fill="#000000" font-family="sans-serif" font-size="13" lengthAdjust="spacing" textLength="338.4253" x="327.8652" y="1619.2227">Indicates if the command is FIPS approved or an error</text><line style="stroke:#000000;stroke-width:0.5;" x1="200.728" x2="670.4038" y1="1576.0332" y2="1576.0332"/><line style="stroke:#000000;stroke-width:0.5;" x1="200.728" x2="670.4038" y1="1591.3438" y2="1591.3438"/><line style="stroke:#000000;stroke-width:0.5;" x1="200.728" x2="670.4038" y1="1606.6543" y2="1606.6543"/><line style="stroke:#000000;stroke-width:0.5;" x1="200.728" x2="670.4038" y1="1621.9648" y2="1621.9648"/><line style="stroke:#000000;stroke-width:0.5;" x1="200.728" x2="200.728" y1="1576.0332" y2="1621.9648"/><line style="stroke:#000000;stroke-width:0.5;" x1="274.564" x2="274.564" y1="1576.0332" y2="1621.9648"/><line style="stroke:#000000;stroke-width:0.5;" x1="323.752" x2="323.752" y1="1576.0332" y2="1621.9648"/><line style="stroke:#000000;stroke-width:0.5;" x1="670.4038" x2="670.4038" y1="1576.0332" y2="1621.9648"/><!--SRC=[pLPjRzis4FwkNt4nWYvP4W_hi2z6KS1vyMPawO8cpPeYW45J9ukm9Aea5ST1Vlpkg5U_fIYm3VCNK-BnUFSypvrkJsKoAK84BVD9ekLyKZYLs3wz3e8z5S71letrOkAKI_0m0FhTyX9wL-e9hgykBa5bJWClRb0QTFI7OI_OmonKqOgFtA3KMLXwoRH34D9eQ_qp_zvDtr-NDiefdTd1kv-cxvlT7-4ZYd1PNdgHIRFCsGekSGdAWdNQO4ZH-1TteaWSs4GxEEruk8qH8fqaUg6o6LZyMc0c4M9X2G1P6FQG6wND0COP1I4IzOm-EHTZ1izeD6W3ALq5L-FF4uubwCR_WT9QYxk-jxajL69cH0h2sY95Iww5O_zmUGSBbIIC3GWE4aH62UM5uosV344j4gjXYb1O2fO29nlTMlJXZ8BEdH4m-ejnCMXpmb9D4qwTOXUPc77sYrZ9k3v6RapjCWj1abCHYjm1qUTYSkE3BG6d9uvGQe9BklvQean5dIcj8oszLpfd2odHsgX809zG5jwPZa3dQ8Gd7ARB2eX-YIg9o2kbaTCFG0evmITb7USG2YU25EVsw0ZsJp-DHXSV9yEps_7Ty7RyvuSWtxqL1D42zeLTPXBIATaCEeHsH2jorH6iKRFOaNsJymkJFbAOXFN33IkcMfzZf3AlPNZf797ndC2i7efVtZORVoZ7jSMvYjKZXgK_uNpeuTUVtn9I93HQjpNna17-lZY6oKmRvU8KC9rY61ByBzlXJASr1Z9QU13ET4eA2LSmIEriaWjZ2V4I2ydOLT3HcT-GrL2Uu-rqUdBY5_iMa-YWH-QzO-YTeqEJgWnhuzuX1P9OR0_LSGagtX5buecsfHRudUytfVnKKvyX7AW-ze_fTPa_b_EIOfeYSltu1bUrdTNevuz7HmFu_MfuHf0UKDyOm0rNsV2Om5pxSLSv9xaDgFMjDRijrkV80lMghdn-RWEOFrRtHpWlqQDSDtVdZqriPV4FgJsus4UnQSrIR-sfweiAhqwavVdkPHsMGvtXOT1Del5DY9sS4D5iqXvjg6ljAzxBRKzb9RlWLJtSOffh8yoIyto2Uz-ec4fIIB2DCY9ZyYbR696Nh7c8JxVmi49SMqJRBJkaUOS3k2y1QO38IvIPifqVes23n3RQJWYhPeuGe3okgP7x5iIR_jtsxlKgTRjfMwMieQkkkcyK1zHAtgPt0XXkdE6cJ1NYOKdLqpTAe_RuPGtc5kKr0GSx2uJZQwgZYcGJukUD2c7fRRt5c_zFq9ymIhRBmPVj2kwGmSQrzVrhnXjq3EfUjGuT4x8JhtKfit4ZvPsKyR1HXnjyVpyhSfe0whxMtFRVS7DTc1bEvhZiV3ZkTtmuTkZSGmLxUr1vyxjlrd2d_NydAz-M0zcTWze1u26h1aSCta0x9gnE2GyPVSdpXFhuFp0pVVV4zDgy5AdSJgmJhh3T0sEob88d9p_NDfC83nMZyVKDY3mt-f7dLSE3DHf3Y-t3aqSx-1i0]--></g></svg>