<svg xmlns="http://www.w3.org/2000/svg" xmlns:xlink="http://www.w3.org/1999/xlink" contentStyleType="text/css" data-diagram-type="SEQUENCE" height="820px" preserveAspectRatio="none" style="width:1304px;height:820px;background:#FFFFFF;" version="1.1" viewBox="0 0 1304 820" width="1304px" zoomAndPan="magnify"><title>Rotate Encapsulation Key</title><defs/><g><rect fill="#DDDDDD" height="770.8359" style="stroke:#181818;stroke-width:0.5;" width="1009.2842" x="289.1016" y="43.2969"/><text fill="#000000" font-family="sans-serif" font-size="13" font-weight="bold" lengthAdjust="spacing" textLength="57.9287" x="764.7793" y="55.3638">Caliptra</text><text fill="#000000" font-family="sans-serif" font-size="14" font-weight="bold" lengthAdjust="spacing" textLength="202.8633" x="552.7612" y="27.9951">Rotate Encapsulation Key</text><g><title>Storage</title><rect fill="#000000" fill-opacity="0.00000" height="617.9219" width="8" x="35.8882" y="126.3203"/><line style="stroke:#181818;stroke-width:0.5;stroke-dasharray:5.0,5.0;" x1="39.3882" x2="39.3882" y1="126.3203" y2="744.2422"/></g><g><title/><rect fill="#FFFFFF" height="102.5313" style="stroke:#181818;stroke-width:1;" width="10" x="34.3882" y="641.7109"/></g><g><title>Mail Box</title><rect fill="#000000" fill-opacity="0.00000" height="617.9219" width="8" x="326.2729" y="126.3203"/><line style="stroke:#181818;stroke-width:0.5;stroke-dasharray:5.0,5.0;" x1="329.7729" x2="329.7729" y1="126.3203" y2="744.2422"/></g><g><title/><rect fill="#FFFFFF" height="127.6641" style="stroke:#181818;stroke-width:1;" width="10" x="324.7729" y="220.8516"/></g><g><title>FW</title><rect fill="#000000" fill-opacity="0.00000" height="617.9219" width="8" x="551.3276" y="126.3203"/><line style="stroke:#181818;stroke-width:0.5;stroke-dasharray:5.0,5.0;" x1="554.8276" x2="554.8276" y1="126.3203" y2="744.2422"/></g><g><title/><rect fill="#FFFFFF" height="322.3281" style="stroke:#181818;stroke-width:1;" width="10" x="549.8276" y="319.3828"/></g><g><title>DRBG</title><rect fill="#000000" fill-opacity="0.00000" height="617.9219" width="8" x="753.2554" y="126.3203"/><line style="stroke:#181818;stroke-width:0.5;stroke-dasharray:5.0,5.0;" x1="756.7554" x2="756.7554" y1="126.3203" y2="744.2422"/></g><g><title>Key Vault</title><rect fill="#000000" fill-opacity="0.00000" height="617.9219" width="8" x="1049.5625" y="126.3203"/><line style="stroke:#181818;stroke-width:0.5;stroke-dasharray:5.0,5.0;" x1="1053.0625" x2="1053.0625" y1="126.3203" y2="744.2422"/></g><g><title/><rect fill="#FFFFFF" height="87.3984" style="stroke:#181818;stroke-width:1;" width="10" x="1048.0625" y="482.0469"/></g><g><title>Key Vault</title><rect fill="#000000" fill-opacity="0.00000" height="617.9219" width="8" x="1234.5508" y="126.3203"/><line style="stroke:#181818;stroke-width:0.5;stroke-dasharray:5.0,5.0;" x1="1238.0508" x2="1238.0508" y1="126.3203" y2="744.2422"/></g><g><title/><rect fill="#ADD8E6" height="544.5234" style="stroke:#181818;stroke-width:1;" width="10" x="1233.0508" y="199.7188"/></g><rect fill="#E2E2F0" height="62.8906" rx="2.5" ry="2.5" style="stroke:#181818;stroke-width:0.5;" width="68.7764" x="5" y="62.4297"/><text fill="#000000" font-family="sans-serif" font-size="14" lengthAdjust="spacing" textLength="54.7764" x="12" y="82.4248">Storage</text><text fill="#000000" font-family="sans-serif" font-size="14" lengthAdjust="spacing" textLength="47.8789" x="15.4487" y="98.7217">Device</text><text fill="#000000" font-family="sans-serif" font-size="14" lengthAdjust="spacing" textLength="21.8955" x="28.4404" y="115.0186">FW</text><rect fill="#E2E2F0" height="30.2969" rx="2.5" ry="2.5" style="stroke:#181818;stroke-width:0.5;" width="73.3428" x="293.1016" y="95.0234"/><text fill="#000000" font-family="sans-serif" font-size="14" lengthAdjust="spacing" textLength="59.3428" x="300.1016" y="115.0186">Mail Box</text><rect fill="#E2E2F0" height="30.2969" rx="2.5" ry="2.5" style="stroke:#181818;stroke-width:0.5;" width="35.8955" x="536.8799" y="95.0234"/><text fill="#000000" font-family="sans-serif" font-size="14" lengthAdjust="spacing" textLength="21.8955" x="543.8799" y="115.0186">FW</text><rect fill="#E2E2F0" height="30.2969" rx="2.5" ry="2.5" style="stroke:#181818;stroke-width:0.5;" width="54.9609" x="729.2749" y="95.0234"/><text fill="#000000" font-family="sans-serif" font-size="14" lengthAdjust="spacing" textLength="40.9609" x="736.2749" y="115.0186">DRBG</text><rect fill="#E2E2F0" height="30.2969" rx="2.5" ry="2.5" style="stroke:#181818;stroke-width:0.5;" width="80.9375" x="1012.5938" y="95.0234"/><text fill="#000000" font-family="sans-serif" font-size="14" lengthAdjust="spacing" textLength="66.9375" x="1019.5938" y="115.0186">Key Vault</text><rect fill="#E2E2F0" height="62.8906" rx="2.5" ry="2.5" style="stroke:#181818;stroke-width:0.5;" width="112.6699" x="1181.7158" y="62.4297"/><text fill="#000000" font-family="sans-serif" font-size="14" lengthAdjust="spacing" textLength="66.9375" x="1204.582" y="82.4248">Key Vault</text><text fill="#000000" font-family="sans-serif" font-size="14" lengthAdjust="spacing" textLength="42.1299" x="1216.9858" y="98.7217">Slot G</text><text fill="#000000" font-family="sans-serif" font-size="14" lengthAdjust="spacing" textLength="98.6699" x="1188.7158" y="115.0186">(KEM Keypair)</text><rect fill="#E2E2F0" height="62.8906" rx="2.5" ry="2.5" style="stroke:#181818;stroke-width:0.5;" width="68.7764" x="5" y="744.2422"/><text fill="#000000" font-family="sans-serif" font-size="14" lengthAdjust="spacing" textLength="54.7764" x="12" y="764.2373">Storage</text><text fill="#000000" font-family="sans-serif" font-size="14" lengthAdjust="spacing" textLength="47.8789" x="15.4487" y="780.5342">Device</text><text fill="#000000" font-family="sans-serif" font-size="14" lengthAdjust="spacing" textLength="21.8955" x="28.4404" y="796.8311">FW</text><rect fill="#E2E2F0" height="30.2969" rx="2.5" ry="2.5" style="stroke:#181818;stroke-width:0.5;" width="73.3428" x="293.1016" y="744.2422"/><text fill="#000000" font-family="sans-serif" font-size="14" lengthAdjust="spacing" textLength="59.3428" x="300.1016" y="764.2373">Mail Box</text><rect fill="#E2E2F0" height="30.2969" rx="2.5" ry="2.5" style="stroke:#181818;stroke-width:0.5;" width="35.8955" x="536.8799" y="744.2422"/><text fill="#000000" font-family="sans-serif" font-size="14" lengthAdjust="spacing" textLength="21.8955" x="543.8799" y="764.2373">FW</text><rect fill="#E2E2F0" height="30.2969" rx="2.5" ry="2.5" style="stroke:#181818;stroke-width:0.5;" width="54.9609" x="729.2749" y="744.2422"/><text fill="#000000" font-family="sans-serif" font-size="14" lengthAdjust="spacing" textLength="40.9609" x="736.2749" y="764.2373">DRBG</text><rect fill="#E2E2F0" height="30.2969" rx="2.5" ry="2.5" style="stroke:#181818;stroke-width:0.5;" width="80.9375" x="1012.5938" y="744.2422"/><text fill="#000000" font-family="sans-serif" font-size="14" lengthAdjust="spacing" textLength="66.9375" x="1019.5938" y="764.2373">Key Vault</text><rect fill="#E2E2F0" height="62.8906" rx="2.5" ry="2.5" style="stroke:#181818;stroke-width:0.5;" width="112.6699" x="1181.7158" y="744.2422"/><text fill="#000000" font-family="sans-serif" font-size="14" lengthAdjust="spacing" textLength="66.9375" x="1204.582" y="764.2373">Key Vault</text><text fill="#000000" font-family="sans-serif" font-size="14" lengthAdjust="spacing" textLength="42.1299" x="1216.9858" y="780.5342">Slot G</text><text fill="#000000" font-family="sans-serif" font-size="14" lengthAdjust="spacing" textLength="98.6699" x="1188.7158" y="796.8311">(KEM Keypair)</text><path d="M-0.9734,139.3203 L-0.9734,194.3203 L1278.0266,194.3203 L1278.0266,149.3203 L1268.0266,139.3203 L-0.9734,139.3203" fill="#FEFFDD" style="stroke:#181818;stroke-width:0.5;"/><path d="M1268.0266,139.3203 L1268.0266,149.3203 L1278.0266,149.3203 L1268.0266,139.3203" fill="#FEFFDD" style="stroke:#181818;stroke-width:0.5;"/><text fill="#000000" font-family="sans-serif" font-size="13" font-weight="bold" lengthAdjust="spacing" textLength="106.2026" x="356.9919" y="156.3872">Preconditions:</text><text fill="#000000" font-family="sans-serif" font-size="13" lengthAdjust="spacing" textLength="383.5254" x="369.3889" y="171.52">* KEM_HANDLE value is a KV slot containing a KEM keypair</text><text fill="#000000" font-family="sans-serif" font-size="13" lengthAdjust="spacing" textLength="542.0581" x="369.3889" y="186.6528">* KEM Keypair has been loaded into KV at power on or has been rotated by this API</text><line style="stroke:#008000;stroke-width:1;" x1="322.7729" x2="312.7729" y1="220.8516" y2="216.8516"/><line style="stroke:#008000;stroke-width:1;" x1="322.7729" x2="312.7729" y1="220.8516" y2="224.8516"/><line style="stroke:#008000;stroke-width:1;" x1="39.3882" x2="323.7729" y1="220.8516" y2="220.8516"/><text fill="#000000" font-family="sans-serif" font-size="13" font-weight="bold" lengthAdjust="spacing" textLength="39.019" x="46.3882" y="215.7856">[001]</text><text fill="#000000" font-family="sans-serif" font-size="13" lengthAdjust="spacing" textLength="218.3657" x="89.4072" y="215.7856">ROTATE_ENCAPSULATION_KEY(X)</text><path d="M339.7729,233.8516 L339.7729,292.8516 L816.7729,292.8516 L816.7729,243.8516 L806.7729,233.8516 L339.7729,233.8516" fill="#FEFFDD" style="stroke:#181818;stroke-width:0.5;"/><path d="M806.7729,233.8516 L806.7729,243.8516 L816.7729,243.8516 L806.7729,233.8516" fill="#FEFFDD" style="stroke:#181818;stroke-width:0.5;"/><text fill="#000000" font-family="sans-serif" font-size="13" lengthAdjust="spacing" textLength="4.1323" x="345.7729" y="252.9185">&#160;</text><text fill="#000000" font-family="sans-serif" font-size="13" font-weight="bold" lengthAdjust="spacing" textLength="35.915" x="349.9053" y="252.9185">Field</text><text fill="#000000" font-family="sans-serif" font-size="13" lengthAdjust="spacing" textLength="4.1323" x="433.0342" y="252.9185">&#160;</text><text fill="#000000" font-family="sans-serif" font-size="13" font-weight="bold" lengthAdjust="spacing" textLength="30.2021" x="437.1665" y="252.9185">Size</text><text fill="#000000" font-family="sans-serif" font-size="13" lengthAdjust="spacing" textLength="4.1323" x="482.6094" y="252.9185">&#160;</text><text fill="#000000" font-family="sans-serif" font-size="13" font-weight="bold" lengthAdjust="spacing" textLength="72.2871" x="486.7417" y="252.9185">Definition</text><text fill="#000000" font-family="sans-serif" font-size="13" lengthAdjust="spacing" textLength="50.5908" x="349.9053" y="268.0513">chksum</text><text fill="#000000" font-family="sans-serif" font-size="13" lengthAdjust="spacing" textLength="24.7813" x="437.1665" y="268.0513">u32</text><text fill="#000000" font-family="sans-serif" font-size="13" lengthAdjust="spacing" textLength="81.0977" x="486.7417" y="268.0513">Little endian</text><text fill="#000000" font-family="sans-serif" font-size="13" lengthAdjust="spacing" textLength="78.9966" x="349.9053" y="283.1841">kem_handle</text><text fill="#000000" font-family="sans-serif" font-size="13" lengthAdjust="spacing" textLength="24.7813" x="437.1665" y="283.1841">u32</text><text fill="#000000" font-family="sans-serif" font-size="13" lengthAdjust="spacing" textLength="315.8721" x="486.7417" y="283.1841">Handle for old KEM keypair held in KMB memory</text><line style="stroke:#000000;stroke-width:0.5;" x1="345.7729" x2="802.6138" y1="240.8516" y2="240.8516"/><line style="stroke:#000000;stroke-width:0.5;" x1="345.7729" x2="802.6138" y1="255.9844" y2="255.9844"/><line style="stroke:#000000;stroke-width:0.5;" x1="345.7729" x2="802.6138" y1="271.1172" y2="271.1172"/><line style="stroke:#000000;stroke-width:0.5;" x1="345.7729" x2="802.6138" y1="286.25" y2="286.25"/><line style="stroke:#000000;stroke-width:0.5;" x1="345.7729" x2="345.7729" y1="240.8516" y2="286.25"/><line style="stroke:#000000;stroke-width:0.5;" x1="433.0342" x2="433.0342" y1="240.8516" y2="286.25"/><line style="stroke:#000000;stroke-width:0.5;" x1="482.6094" x2="482.6094" y1="240.8516" y2="286.25"/><line style="stroke:#000000;stroke-width:0.5;" x1="802.6138" x2="802.6138" y1="240.8516" y2="286.25"/><line style="stroke:#008000;stroke-width:1;" x1="547.8276" x2="537.8276" y1="319.3828" y2="315.3828"/><line style="stroke:#008000;stroke-width:1;" x1="547.8276" x2="537.8276" y1="319.3828" y2="323.3828"/><line style="stroke:#008000;stroke-width:1;" x1="334.7729" x2="548.8276" y1="319.3828" y2="319.3828"/><text fill="#000000" font-family="sans-serif" font-size="13" font-weight="bold" lengthAdjust="spacing" textLength="39.019" x="341.7729" y="314.3169">[002]</text><text fill="#000000" font-family="sans-serif" font-size="13" lengthAdjust="spacing" textLength="66.8154" x="384.792" y="314.3169">Command</text><polygon fill="#FF0000" points="345.7729,344.5156,335.7729,348.5156,345.7729,352.5156,341.7729,348.5156" style="stroke:#FF0000;stroke-width:1;"/><line style="stroke:#FF0000;stroke-width:1;" x1="339.7729" x2="548.8276" y1="348.5156" y2="348.5156"/><text fill="#000000" font-family="sans-serif" font-size="13" font-weight="bold" lengthAdjust="spacing" textLength="39.019" x="351.7729" y="343.4497">[003]</text><text fill="#000000" font-family="sans-serif" font-size="13" lengthAdjust="spacing" textLength="92.187" x="394.792" y="343.4497">Get command</text><line style="stroke:#FF0000;stroke-width:1;" x1="559.8276" x2="601.8276" y1="377.6484" y2="377.6484"/><line style="stroke:#FF0000;stroke-width:1;" x1="601.8276" x2="601.8276" y1="377.6484" y2="390.6484"/><line style="stroke:#FF0000;stroke-width:1;" x1="560.8276" x2="601.8276" y1="390.6484" y2="390.6484"/><polygon fill="#FF0000" points="570.8276,386.6484,560.8276,390.6484,570.8276,394.6484,566.8276,390.6484" style="stroke:#FF0000;stroke-width:1;"/><text fill="#000000" font-family="sans-serif" font-size="13" font-weight="bold" lengthAdjust="spacing" textLength="39.019" x="566.8276" y="372.5825">[004]</text><text fill="#000000" font-family="sans-serif" font-size="13" lengthAdjust="spacing" textLength="139.9087" x="609.8467" y="372.5825">Determine Command</text><path d="M519.8276,402.6484 L584.2705,402.6484 L584.2705,409.7813 L574.2705,419.7813 L519.8276,419.7813 L519.8276,402.6484" fill="#EEEEEE" style="stroke:#000000;stroke-width:1.5;"/><rect fill="none" height="188.7969" style="stroke:#000000;stroke-width:1.5;" width="759.2231" x="519.8276" y="402.6484"/><text fill="#000000" font-family="sans-serif" font-size="13" font-weight="bold" lengthAdjust="spacing" textLength="19.4429" x="534.8276" y="415.7153">alt</text><text fill="#000000" font-family="sans-serif" font-size="11" font-weight="bold" lengthAdjust="spacing" textLength="278.8457" x="599.2705" y="414.8589">[kem_handle (XG has a Key Pair in KV slot G]</text><path d="M538.8276,433.7813 L603.2705,433.7813 L603.2705,440.9141 L593.2705,450.9141 L538.8276,450.9141 L538.8276,433.7813" fill="#EEEEEE" style="stroke:#000000;stroke-width:1.5;"/><rect fill="none" height="143.6641" style="stroke:#000000;stroke-width:1.5;" width="715.2231" x="538.8276" y="433.7813"/><text fill="#000000" font-family="sans-serif" font-size="13" font-weight="bold" lengthAdjust="spacing" textLength="19.4429" x="553.8276" y="446.8481">alt</text><text fill="#000000" font-family="sans-serif" font-size="11" font-weight="bold" lengthAdjust="spacing" textLength="218.668" x="618.2705" y="445.9917">[kem_algorithm = ecdh_secp384r1]</text><polygon fill="#FF0000" points="1036.0625,478.0469,1046.0625,482.0469,1036.0625,486.0469,1040.0625,482.0469" style="stroke:#FF0000;stroke-width:1;"/><line style="stroke:#FF0000;stroke-width:1;" x1="559.8276" x2="1042.0625" y1="482.0469" y2="482.0469"/><text fill="#000000" font-family="sans-serif" font-size="13" font-weight="bold" lengthAdjust="spacing" textLength="39.019" x="566.8276" y="476.981">[005]</text><text fill="#000000" font-family="sans-serif" font-size="13" lengthAdjust="spacing" textLength="254.1221" x="609.8467" y="476.981">generate_ecdh_secp384r1(Key: Slot G)</text><polygon fill="#FF0000" points="767.7554,507.1797,757.7554,511.1797,767.7554,515.1797,763.7554,511.1797" style="stroke:#FF0000;stroke-width:1;"/><line style="stroke:#FF0000;stroke-width:1;" x1="761.7554" x2="1047.0625" y1="511.1797" y2="511.1797"/><text fill="#000000" font-family="sans-serif" font-size="13" font-weight="bold" lengthAdjust="spacing" textLength="39.019" x="773.7554" y="506.1138">[006]</text><text fill="#000000" font-family="sans-serif" font-size="13" lengthAdjust="spacing" textLength="224.2881" x="816.7744" y="506.1138">Get random bytes for KEM keypair</text><polygon fill="#FF0000" points="1221.0508,536.3125,1231.0508,540.3125,1221.0508,544.3125,1225.0508,540.3125" style="stroke:#FF0000;stroke-width:1;"/><line style="stroke:#FF0000;stroke-width:1;" x1="1058.0625" x2="1227.0508" y1="540.3125" y2="540.3125"/><text fill="#000000" font-family="sans-serif" font-size="13" font-weight="bold" lengthAdjust="spacing" textLength="39.019" x="1065.0625" y="535.2466">[007]</text><text fill="#000000" font-family="sans-serif" font-size="13" lengthAdjust="spacing" textLength="112.9692" x="1108.0815" y="535.2466">New KEM keypair</text><polygon fill="#FF0000" points="570.8276,565.4453,560.8276,569.4453,570.8276,573.4453,566.8276,569.4453" style="stroke:#FF0000;stroke-width:1;"/><line style="stroke:#FF0000;stroke-width:1;" x1="564.8276" x2="1047.0625" y1="569.4453" y2="569.4453"/><text fill="#000000" font-family="sans-serif" font-size="13" font-weight="bold" lengthAdjust="spacing" textLength="39.019" x="576.8276" y="564.3794">[008]</text><text fill="#000000" font-family="sans-serif" font-size="13" lengthAdjust="spacing" textLength="32.4429" x="619.8467" y="564.3794">done</text><polygon fill="#FF0000" points="340.7729,637.7109,330.7729,641.7109,340.7729,645.7109,336.7729,641.7109" style="stroke:#FF0000;stroke-width:1;"/><line style="stroke:#FF0000;stroke-width:1;" x1="334.7729" x2="548.8276" y1="641.7109" y2="641.7109"/><text fill="#000000" font-family="sans-serif" font-size="13" font-weight="bold" lengthAdjust="spacing" textLength="39.019" x="346.7729" y="629.0786">[009]</text><text fill="#000000" font-family="sans-serif" font-size="13" lengthAdjust="spacing" textLength="133.9673" x="389.792" y="621.5122">Command Response</text><text fill="#000000" font-family="sans-serif" font-size="13" lengthAdjust="spacing" textLength="148.9033" x="393.9243" y="636.645">kem_handle is set to G</text><line style="stroke:#008000;stroke-width:1;" x1="45.3882" x2="55.3882" y1="641.7109" y2="637.7109"/><line style="stroke:#008000;stroke-width:1;" x1="45.3882" x2="55.3882" y1="641.7109" y2="645.7109"/><line style="stroke:#008000;stroke-width:1;" x1="44.3882" x2="328.7729" y1="641.7109" y2="641.7109"/><text fill="#000000" font-family="sans-serif" font-size="13" font-weight="bold" lengthAdjust="spacing" textLength="39.019" x="61.3882" y="629.0786">[010]</text><text fill="#000000" font-family="sans-serif" font-size="13" lengthAdjust="spacing" textLength="66.8154" x="104.4072" y="621.5122">Command</text><text fill="#000000" font-family="sans-serif" font-size="13" lengthAdjust="spacing" textLength="62.6514" x="104.4072" y="636.645">Complete</text><path d="M334.7729,654.7109 L334.7729,728.7109 L851.7729,728.7109 L851.7729,664.7109 L841.7729,654.7109 L334.7729,654.7109" fill="#FEFFDD" style="stroke:#181818;stroke-width:0.5;"/><path d="M841.7729,654.7109 L841.7729,664.7109 L851.7729,664.7109 L841.7729,654.7109" fill="#FEFFDD" style="stroke:#181818;stroke-width:0.5;"/><text fill="#000000" font-family="sans-serif" font-size="13" lengthAdjust="spacing" textLength="4.1323" x="340.7729" y="673.7778">&#160;</text><text fill="#000000" font-family="sans-serif" font-size="13" font-weight="bold" lengthAdjust="spacing" textLength="35.915" x="344.9053" y="673.7778">Field</text><text fill="#000000" font-family="sans-serif" font-size="13" lengthAdjust="spacing" textLength="4.1323" x="428.0342" y="673.7778">&#160;</text><text fill="#000000" font-family="sans-serif" font-size="13" font-weight="bold" lengthAdjust="spacing" textLength="30.2021" x="432.1665" y="673.7778">Size</text><text fill="#000000" font-family="sans-serif" font-size="13" lengthAdjust="spacing" textLength="4.1323" x="477.6094" y="673.7778">&#160;</text><text fill="#000000" font-family="sans-serif" font-size="13" font-weight="bold" lengthAdjust="spacing" textLength="72.2871" x="481.7417" y="673.7778">Definition</text><text fill="#000000" font-family="sans-serif" font-size="13" lengthAdjust="spacing" textLength="50.5908" x="344.9053" y="688.9106">chksum</text><text fill="#000000" font-family="sans-serif" font-size="13" lengthAdjust="spacing" textLength="24.7813" x="432.1665" y="688.9106">u32</text><text fill="#000000" font-family="sans-serif" font-size="13" lengthAdjust="spacing" textLength="81.0977" x="481.7417" y="688.9106">Little endian</text><text fill="#000000" font-family="sans-serif" font-size="13" lengthAdjust="spacing" textLength="69.6592" x="344.9053" y="704.0435">fips_status</text><text fill="#000000" font-family="sans-serif" font-size="13" lengthAdjust="spacing" textLength="24.7813" x="432.1665" y="704.0435">u32</text><text fill="#000000" font-family="sans-serif" font-size="13" lengthAdjust="spacing" textLength="351.5078" x="481.7417" y="704.0435">Indicates if the command is FIPS approved or an error</text><text fill="#000000" font-family="sans-serif" font-size="13" lengthAdjust="spacing" textLength="78.9966" x="344.9053" y="719.1763">kem_handle</text><text fill="#000000" font-family="sans-serif" font-size="13" lengthAdjust="spacing" textLength="24.7813" x="432.1665" y="719.1763">u32</text><text fill="#000000" font-family="sans-serif" font-size="13" lengthAdjust="spacing" textLength="322.9243" x="481.7417" y="719.1763">Handle for new KEM keypair held in KMB memory</text><line style="stroke:#000000;stroke-width:0.5;" x1="340.7729" x2="837.3818" y1="661.7109" y2="661.7109"/><line style="stroke:#000000;stroke-width:0.5;" x1="340.7729" x2="837.3818" y1="676.8438" y2="676.8438"/><line style="stroke:#000000;stroke-width:0.5;" x1="340.7729" x2="837.3818" y1="691.9766" y2="691.9766"/><line style="stroke:#000000;stroke-width:0.5;" x1="340.7729" x2="837.3818" y1="707.1094" y2="707.1094"/><line style="stroke:#000000;stroke-width:0.5;" x1="340.7729" x2="837.3818" y1="722.2422" y2="722.2422"/><line style="stroke:#000000;stroke-width:0.5;" x1="340.7729" x2="340.7729" y1="661.7109" y2="722.2422"/><line style="stroke:#000000;stroke-width:0.5;" x1="428.0342" x2="428.0342" y1="661.7109" y2="722.2422"/><line style="stroke:#000000;stroke-width:0.5;" x1="477.6094" x2="477.6094" y1="661.7109" y2="722.2422"/><line style="stroke:#000000;stroke-width:0.5;" x1="837.3818" x2="837.3818" y1="661.7109" y2="722.2422"/><!--SRC=[pLHHRzem47xFhxWYDC4OcxRkOK9R9Te6YcWf0bfrKgN891TYuTYHRK1C_V4x9m6IZPUzBLAaittV-Rxlxdp1PIWs4O8Aiq2eS1riB1Vc8srxtWMFeTKqYTe5bbk1RG_eMpWJ6ZDbcKNmPSWoin7CSYLXZFk6Tu4oud4DdcaCbOoA058HZeLQ6PEltVTzUJKjVBWBP7hVFoslZgVqlOUn_n3SzIUtzpvicTWWS0CCnizWXB90KCkuv7BbDlq7MEC-Orp_5SFbw0uWOGQMY1A4OX56mALLBXopaAaTQY0-gkAcSy8HBFTW4xgxFntbmObjJkd8UutfgjE1vlNJOE3FWlxDOlJSNumU9vuNxw39p5w6a2x9fGUpnqL_uGV-vAO_dJ_Tvsx1sF_PUcdN16GPhuYd-Ign5E98xiq9EE0eeiDYpdzXOTrYJBhavNch0C9aRJPfkTXSVYcjUsvTUHqLLWSGhI1XCX9O0zmLMp59fUZwYlIGk7muTSN3DQIOAhr_EwzOkZp84iQxN9SRbQOKkAP1QbP1nhIX6XTQX4xEKat23D6rGO5pn-cosysDfa4HjnhatlW0ZLkqg5CkyN19eqs928Cdq24l9coLTkjbcBS3Spq4KqVHiIixSEZb0GuO9bPASvkay0CmZ9B0O9XTVlkgFnyrFUM_tdOwFLYXH4qz5jJzMtHR3-Rv7UqZUBqjiPgIAyWxIwNKe1PDNf1pSt34kJObrIQuE-jN4JvI4jlLGJe58GhTBaLnBYVeKSsJVrcAuZXNj-m4p_tU7wKiAmCpD1cz1lWggtMWuJD4byPrwBs3K_FKU-TLaf49glR_DaanpqnWw3NPc2fWH9uXSxMZR6s2XsPsV0UZwHnObccrfIU8IaiXKMio_cr4PRtQPqOKpizeNcZF-mq0]--></g></svg>