<svg xmlns="http://www.w3.org/2000/svg" xmlns:xlink="http://www.w3.org/1999/xlink" contentStyleType="text/css" data-diagram-type="SEQUENCE" height="1272px" preserveAspectRatio="none" style="width:1288px;height:1272px;background:#FFFFFF;" version="1.1" viewBox="0 0 1288 1272" width="1288px" zoomAndPan="magnify"><title>Unload MEK</title><defs/><g><rect fill="#DDDDDD" height="1223.041" style="stroke:#181818;stroke-width:0.5;" width="264.9229" x="153.8481" y="43.4883"/><text fill="#000000" font-family="sans-serif" font-size="13" font-weight="bold" lengthAdjust="spacing" textLength="52.7935" x="259.9128" y="56.0566">Caliptra</text><rect fill="#DDDDDD" height="1223.041" style="stroke:#181818;stroke-width:0.5;" width="398.9019" x="781.8491" y="43.4883"/><text fill="#000000" font-family="sans-serif" font-size="13" font-weight="bold" lengthAdjust="spacing" textLength="121.1006" x="920.7498" y="56.0566">Encryption engine</text><text fill="#000000" font-family="sans-serif" font-size="14" font-weight="bold" lengthAdjust="spacing" textLength="86.1738" x="602.3171" y="28.5352">Unload MEK</text><g><title>Storage</title><rect fill="transparent" height="1068.8008" width="8" x="34.1826" y="127.2637"/><line style="stroke:#181818;stroke-width:0.5;stroke-dasharray:5.0,5.0;" x1="37.6826" x2="37.6826" y1="127.2637" y2="1196.0645"/></g><g><title/><rect fill="#FFFFFF" height="87.9316" style="stroke:#181818;stroke-width:1;" width="10" x="32.6826" y="1108.1328"/></g><g><title>Mail Box</title><rect fill="transparent" height="1068.8008" width="8" x="190.124" y="127.2637"/><line style="stroke:#181818;stroke-width:0.5;stroke-dasharray:5.0,5.0;" x1="193.624" x2="193.624" y1="127.2637" y2="1196.0645"/></g><g><title/><rect fill="#FFFFFF" height="159.1738" style="stroke:#181818;stroke-width:1;" width="10" x="188.624" y="207.1953"/></g><g><title>FW</title><rect fill="transparent" height="1068.8008" width="8" x="394.5298" y="127.2637"/><line style="stroke:#181818;stroke-width:0.5;stroke-dasharray:5.0,5.0;" x1="398.0298" x2="398.0298" y1="127.2637" y2="1196.0645"/></g><g><title/><rect fill="#FFFFFF" height="771.0742" style="stroke:#181818;stroke-width:1;" width="10" x="393.0298" y="337.0586"/></g><g><title>SFR</title><rect fill="transparent" height="1068.8008" width="8" x="819.0171" y="127.2637"/><line style="stroke:#181818;stroke-width:0.5;stroke-dasharray:5.0,5.0;" x1="822.5171" x2="822.5171" y1="127.2637" y2="1196.0645"/></g><g><title>Control</title><rect fill="transparent" height="1068.8008" width="8" x="998.4512" y="127.2637"/><line style="stroke:#181818;stroke-width:0.5;stroke-dasharray:5.0,5.0;" x1="1001.9512" x2="1001.9512" y1="127.2637" y2="1196.0645"/></g><g><title/><rect fill="#FFFFFF" height="236.7949" style="stroke:#181818;stroke-width:1;" width="10" x="996.9512" y="717.4746"/></g><g><title>Key cache</title><rect fill="transparent" height="1068.8008" width="8" x="1132.6284" y="127.2637"/><line style="stroke:#181818;stroke-width:0.5;stroke-dasharray:5.0,5.0;" x1="1136.1284" x2="1136.1284" y1="127.2637" y2="1196.0645"/></g><rect fill="#E2E2F0" height="63.4648" rx="2.5" ry="2.5" style="stroke:#181818;stroke-width:0.5;" width="65.3652" x="5" y="62.7988"/><text fill="#000000" font-family="sans-serif" font-size="14" lengthAdjust="spacing" textLength="51.3652" x="12" y="83.334">Storage</text><text fill="#000000" font-family="sans-serif" font-size="14" lengthAdjust="spacing" textLength="44.5498" x="15.4077" y="99.8223">Device</text><text fill="#000000" font-family="sans-serif" font-size="14" lengthAdjust="spacing" textLength="19.4824" x="27.9414" y="116.3105">FW</text><rect fill="#E2E2F0" height="30.4883" rx="2.5" ry="2.5" style="stroke:#181818;stroke-width:0.5;" width="71.5518" x="157.8481" y="95.7754"/><text fill="#000000" font-family="sans-serif" font-size="14" lengthAdjust="spacing" textLength="57.5518" x="164.8481" y="116.3105">Mail Box</text><rect fill="#E2E2F0" height="30.4883" rx="2.5" ry="2.5" style="stroke:#181818;stroke-width:0.5;" width="33.4824" x="381.2886" y="95.7754"/><text fill="#000000" font-family="sans-serif" font-size="14" lengthAdjust="spacing" textLength="19.4824" x="388.2886" y="116.3105">FW</text><rect fill="#E2E2F0" height="46.9766" rx="2.5" ry="2.5" style="stroke:#181818;stroke-width:0.5;" width="73.3359" x="785.8491" y="79.2871"/><text fill="#000000" font-family="sans-serif" font-size="14" lengthAdjust="spacing" textLength="23.8984" x="810.5679" y="99.8223">SFR</text><text fill="#000000" font-family="sans-serif" font-size="14" lengthAdjust="spacing" textLength="59.3359" x="792.8491" y="116.3105">Interface</text><rect fill="#E2E2F0" height="30.4883" rx="2.5" ry="2.5" style="stroke:#181818;stroke-width:0.5;" width="64.5859" x="969.6582" y="95.7754"/><text fill="#000000" font-family="sans-serif" font-size="14" lengthAdjust="spacing" textLength="50.5859" x="976.6582" y="116.3105">Control</text><rect fill="#E2E2F0" height="30.4883" rx="2.5" ry="2.5" style="stroke:#181818;stroke-width:0.5;" width="81.2451" x="1095.5059" y="95.7754"/><text fill="#000000" font-family="sans-serif" font-size="14" lengthAdjust="spacing" textLength="67.2451" x="1102.5059" y="116.3105">Key cache</text><rect fill="#E2E2F0" height="63.4648" rx="2.5" ry="2.5" style="stroke:#181818;stroke-width:0.5;" width="65.3652" x="5" y="1196.0645"/><text fill="#000000" font-family="sans-serif" font-size="14" lengthAdjust="spacing" textLength="51.3652" x="12" y="1216.5996">Storage</text><text fill="#000000" font-family="sans-serif" font-size="14" lengthAdjust="spacing" textLength="44.5498" x="15.4077" y="1233.0879">Device</text><text fill="#000000" font-family="sans-serif" font-size="14" lengthAdjust="spacing" textLength="19.4824" x="27.9414" y="1249.5762">FW</text><rect fill="#E2E2F0" height="30.4883" rx="2.5" ry="2.5" style="stroke:#181818;stroke-width:0.5;" width="71.5518" x="157.8481" y="1196.0645"/><text fill="#000000" font-family="sans-serif" font-size="14" lengthAdjust="spacing" textLength="57.5518" x="164.8481" y="1216.5996">Mail Box</text><rect fill="#E2E2F0" height="30.4883" rx="2.5" ry="2.5" style="stroke:#181818;stroke-width:0.5;" width="33.4824" x="381.2886" y="1196.0645"/><text fill="#000000" font-family="sans-serif" font-size="14" lengthAdjust="spacing" textLength="19.4824" x="388.2886" y="1216.5996">FW</text><rect fill="#E2E2F0" height="46.9766" rx="2.5" ry="2.5" style="stroke:#181818;stroke-width:0.5;" width="73.3359" x="785.8491" y="1196.0645"/><text fill="#000000" font-family="sans-serif" font-size="14" lengthAdjust="spacing" textLength="23.8984" x="810.5679" y="1216.5996">SFR</text><text fill="#000000" font-family="sans-serif" font-size="14" lengthAdjust="spacing" textLength="59.3359" x="792.8491" y="1233.0879">Interface</text><rect fill="#E2E2F0" height="30.4883" rx="2.5" ry="2.5" style="stroke:#181818;stroke-width:0.5;" width="64.5859" x="969.6582" y="1196.0645"/><text fill="#000000" font-family="sans-serif" font-size="14" lengthAdjust="spacing" textLength="50.5859" x="976.6582" y="1216.5996">Control</text><rect fill="#E2E2F0" height="30.4883" rx="2.5" ry="2.5" style="stroke:#181818;stroke-width:0.5;" width="81.2451" x="1095.5059" y="1196.0645"/><text fill="#000000" font-family="sans-serif" font-size="14" lengthAdjust="spacing" textLength="67.2451" x="1102.5059" y="1216.5996">Key cache</text><path d="M6.03,140.2637 L6.03,180.2637 L1167.03,180.2637 L1167.03,150.2637 L1157.03,140.2637 L6.03,140.2637 " fill="#FEFFDD" style="stroke:#181818;stroke-width:0.5;"/><path d="M1157.03,140.2637 L1157.03,150.2637 L1167.03,150.2637 L1157.03,140.2637 " fill="#FEFFDD" style="stroke:#181818;stroke-width:0.5;"/><text fill="#000000" font-family="sans-serif" font-size="13" font-weight="bold" lengthAdjust="spacing" textLength="94.999" x="422.1575" y="157.832">Preconditions:</text><ellipse cx="427.6575" cy="168.3848" fill="#000000" rx="2.5" ry="2.5"/><text fill="#000000" font-family="sans-serif" font-size="13" lengthAdjust="spacing" textLength="308.4961" x="434.1575" y="173.1426">None - a MEK may or may not have been loaded.</text><line style="stroke:#008000;stroke-width:1;" x1="186.624" x2="176.624" y1="207.1953" y2="203.1953"/><line style="stroke:#008000;stroke-width:1;" x1="186.624" x2="176.624" y1="207.1953" y2="211.1953"/><line style="stroke:#008000;stroke-width:1;" x1="37.6826" x2="187.624" y1="207.1953" y2="207.1953"/><text fill="#000000" font-family="sans-serif" font-size="13" font-weight="bold" lengthAdjust="spacing" textLength="35.3628" x="44.6826" y="202.4531">[001]</text><text fill="#000000" font-family="sans-serif" font-size="13" lengthAdjust="spacing" textLength="87.5786" x="84.0454" y="202.4531">UNLOAD_MEK</text><path d="M203.624,220.1953 L203.624,310.1953 L862.624,310.1953 L862.624,230.1953 L852.624,220.1953 L203.624,220.1953 " fill="#FEFFDD" style="stroke:#181818;stroke-width:0.5;"/><path d="M852.624,220.1953 L852.624,230.1953 L862.624,230.1953 L852.624,220.1953 " fill="#FEFFDD" style="stroke:#181818;stroke-width:0.5;"/><text fill="#000000" font-family="sans-serif" font-size="13" lengthAdjust="spacing" textLength="29.9102" x="213.7373" y="239.7637">Field</text><text fill="#000000" font-family="sans-serif" font-size="13" lengthAdjust="spacing" textLength="25.4541" x="308.4697" y="239.7637">Size</text><text fill="#000000" font-family="sans-serif" font-size="13" lengthAdjust="spacing" textLength="62.0166" x="357.8799" y="239.7637">Definition</text><text fill="#000000" font-family="sans-serif" font-size="13" lengthAdjust="spacing" textLength="49.1563" x="213.7373" y="255.0742">chksum</text><text fill="#000000" font-family="sans-serif" font-size="13" lengthAdjust="spacing" textLength="24.5083" x="308.4697" y="255.0742">u32</text><text fill="#000000" font-family="sans-serif" font-size="13" lengthAdjust="spacing" textLength="78.0254" x="357.8799" y="255.0742">Little endian</text><text fill="#000000" font-family="sans-serif" font-size="13" lengthAdjust="spacing" textLength="58.8237" x="213.7373" y="270.3848">metadata</text><text fill="#000000" font-family="sans-serif" font-size="13" lengthAdjust="spacing" textLength="41.1836" x="308.4697" y="270.3848">u8[20]</text><text fill="#000000" font-family="sans-serif" font-size="13" lengthAdjust="spacing" textLength="485.9956" x="357.8799" y="270.3848">Metadata for MEK to load into the drive crypto engine (i.e. NSID + LBA range)</text><text fill="#000000" font-family="sans-serif" font-size="13" lengthAdjust="spacing" textLength="75.7085" x="213.7373" y="285.6953">rdy_timeout</text><text fill="#000000" font-family="sans-serif" font-size="13" lengthAdjust="spacing" textLength="24.5083" x="308.4697" y="285.6953">u32</text><text fill="#000000" font-family="sans-serif" font-size="13" lengthAdjust="spacing" textLength="469.6758" x="357.8799" y="285.6953">Timeout in ms for encryption engine to become ready for a new command</text><text fill="#000000" font-family="sans-serif" font-size="13" lengthAdjust="spacing" textLength="82.3926" x="213.7373" y="301.0059">cmd_timeout</text><text fill="#000000" font-family="sans-serif" font-size="13" lengthAdjust="spacing" textLength="24.5083" x="308.4697" y="301.0059">u32</text><text fill="#000000" font-family="sans-serif" font-size="13" lengthAdjust="spacing" textLength="366.3613" x="357.8799" y="301.0059">Timeout in ms for command to crypto engine to complete</text><line style="stroke:#000000;stroke-width:0.5;" x1="209.624" x2="847.9888" y1="227.1953" y2="227.1953"/><line style="stroke:#000000;stroke-width:0.5;" x1="209.624" x2="847.9888" y1="242.5059" y2="242.5059"/><line style="stroke:#000000;stroke-width:0.5;" x1="209.624" x2="847.9888" y1="257.8164" y2="257.8164"/><line style="stroke:#000000;stroke-width:0.5;" x1="209.624" x2="847.9888" y1="273.127" y2="273.127"/><line style="stroke:#000000;stroke-width:0.5;" x1="209.624" x2="847.9888" y1="288.4375" y2="288.4375"/><line style="stroke:#000000;stroke-width:0.5;" x1="209.624" x2="847.9888" y1="303.748" y2="303.748"/><line style="stroke:#000000;stroke-width:0.5;" x1="209.624" x2="209.624" y1="227.1953" y2="303.748"/><line style="stroke:#000000;stroke-width:0.5;" x1="304.3564" x2="304.3564" y1="227.1953" y2="303.748"/><line style="stroke:#000000;stroke-width:0.5;" x1="353.7666" x2="353.7666" y1="227.1953" y2="303.748"/><line style="stroke:#000000;stroke-width:0.5;" x1="847.9888" x2="847.9888" y1="227.1953" y2="303.748"/><line style="stroke:#008000;stroke-width:1;" x1="391.0298" x2="381.0298" y1="337.0586" y2="333.0586"/><line style="stroke:#008000;stroke-width:1;" x1="391.0298" x2="381.0298" y1="337.0586" y2="341.0586"/><line style="stroke:#008000;stroke-width:1;" x1="198.624" x2="392.0298" y1="337.0586" y2="337.0586"/><text fill="#000000" font-family="sans-serif" font-size="13" font-weight="bold" lengthAdjust="spacing" textLength="35.3628" x="205.624" y="332.3164">[002]</text><text fill="#000000" font-family="sans-serif" font-size="13" lengthAdjust="spacing" textLength="64.6826" x="244.9868" y="332.3164">Command</text><polygon fill="#FF0000" points="209.624,362.3691,199.624,366.3691,209.624,370.3691,205.624,366.3691" style="stroke:#FF0000;stroke-width:1;"/><line style="stroke:#FF0000;stroke-width:1;" x1="203.624" x2="392.0298" y1="366.3691" y2="366.3691"/><text fill="#000000" font-family="sans-serif" font-size="13" font-weight="bold" lengthAdjust="spacing" textLength="35.3628" x="215.624" y="361.627">[003]</text><text fill="#000000" font-family="sans-serif" font-size="13" lengthAdjust="spacing" textLength="87.9595" x="254.9868" y="361.627">Get command</text><line style="stroke:#FF0000;stroke-width:1;" x1="403.0298" x2="445.0298" y1="395.6797" y2="395.6797"/><line style="stroke:#FF0000;stroke-width:1;" x1="445.0298" x2="445.0298" y1="395.6797" y2="408.6797"/><line style="stroke:#FF0000;stroke-width:1;" x1="404.0298" x2="445.0298" y1="408.6797" y2="408.6797"/><polygon fill="#FF0000" points="414.0298,404.6797,404.0298,408.6797,414.0298,412.6797,410.0298,408.6797" style="stroke:#FF0000;stroke-width:1;"/><text fill="#000000" font-family="sans-serif" font-size="13" font-weight="bold" lengthAdjust="spacing" textLength="35.3628" x="410.0298" y="390.9375">[004]</text><text fill="#000000" font-family="sans-serif" font-size="13" lengthAdjust="spacing" textLength="132.0693" x="449.3926" y="390.9375">Determine command</text><polygon fill="#FF0000" points="810.5171,433.9902,820.5171,437.9902,810.5171,441.9902,814.5171,437.9902" style="stroke:#FF0000;stroke-width:1;"/><line style="stroke:#FF0000;stroke-width:1;" x1="403.0298" x2="816.5171" y1="437.9902" y2="437.9902"/><text fill="#000000" font-family="sans-serif" font-size="13" font-weight="bold" lengthAdjust="spacing" textLength="35.3628" x="410.0298" y="433.248">[005]</text><text fill="#000000" font-family="sans-serif" font-size="13" lengthAdjust="spacing" textLength="109.5923" x="449.3926" y="433.248">Read Control Reg</text><path d="M363.0298,449.9902 L425.1685,449.9902 L425.1685,457.3008 L415.1685,467.3008 L363.0298,467.3008 L363.0298,449.9902 " fill="#EEEEEE" style="stroke:#000000;stroke-width:1.5;"/><rect fill="transparent" height="202.8633" style="stroke:#000000;stroke-width:1.5;" width="556.9912" x="363.0298" y="449.9902"/><text fill="#000000" font-family="sans-serif" font-size="13" font-weight="bold" lengthAdjust="spacing" textLength="17.1387" x="378.0298" y="463.5586">alt</text><text fill="#000000" font-family="sans-serif" font-size="11" font-weight="bold" lengthAdjust="spacing" textLength="225.1777" x="440.1685" y="462.625">[(DN == 1b || ERR == 1b || EXE == 1b)]</text><polygon fill="#FF0000" points="810.5171,494.6113,820.5171,498.6113,810.5171,502.6113,814.5171,498.6113" style="stroke:#FF0000;stroke-width:1;"/><line style="stroke:#FF0000;stroke-width:1;" x1="403.0298" x2="816.5171" y1="498.6113" y2="498.6113"/><text fill="#000000" font-family="sans-serif" font-size="13" font-weight="bold" lengthAdjust="spacing" textLength="35.3628" x="410.0298" y="493.8691">[006]</text><text fill="#000000" font-family="sans-serif" font-size="13" lengthAdjust="spacing" textLength="177.9438" x="449.3926" y="493.8691">Write Control Reg (DN = 1b)</text><line style="stroke:#FF0000;stroke-width:1;" x1="403.0298" x2="445.0298" y1="527.9219" y2="527.9219"/><line style="stroke:#FF0000;stroke-width:1;" x1="445.0298" x2="445.0298" y1="527.9219" y2="540.9219"/><line style="stroke:#FF0000;stroke-width:1;" x1="404.0298" x2="445.0298" y1="540.9219" y2="540.9219"/><polygon fill="#FF0000" points="414.0298,536.9219,404.0298,540.9219,414.0298,544.9219,410.0298,540.9219" style="stroke:#FF0000;stroke-width:1;"/><text fill="#000000" font-family="sans-serif" font-size="13" font-weight="bold" lengthAdjust="spacing" textLength="35.3628" x="410.0298" y="523.1797">[007]</text><text fill="#000000" font-family="sans-serif" font-size="13" lengthAdjust="spacing" textLength="82.2529" x="449.3926" y="523.1797">Start timeout</text><polygon fill="#FF0000" points="810.5171,566.2324,820.5171,570.2324,810.5171,574.2324,814.5171,570.2324" style="stroke:#FF0000;stroke-width:1;"/><line style="stroke:#FF0000;stroke-width:1;" x1="403.0298" x2="816.5171" y1="570.2324" y2="570.2324"/><text fill="#000000" font-family="sans-serif" font-size="13" font-weight="bold" lengthAdjust="spacing" textLength="35.3628" x="410.0298" y="565.4902">[008]</text><text fill="#000000" font-family="sans-serif" font-size="13" lengthAdjust="spacing" textLength="109.5923" x="449.3926" y="565.4902">Read Control Reg</text><path d="M382.0298,582.2324 L879.021,582.2324 L879.021,589.543 L869.021,599.543 L382.0298,599.543 L382.0298,582.2324 " fill="#EEEEEE" style="stroke:#000000;stroke-width:1.5;"/><rect fill="transparent" height="56.6211" style="stroke:#000000;stroke-width:1.5;" width="512.9912" x="382.0298" y="582.2324"/><text fill="#000000" font-family="sans-serif" font-size="13" font-weight="bold" lengthAdjust="spacing" textLength="451.9912" x="397.0298" y="595.8008">loop until (rdy_timeout or (DN == 0b &amp;&amp; ERR == 0b &amp;&amp; EXE == 0b)</text><polygon fill="#FF0000" points="810.5171,626.8535,820.5171,630.8535,810.5171,634.8535,814.5171,630.8535" style="stroke:#FF0000;stroke-width:1;"/><line style="stroke:#FF0000;stroke-width:1;" x1="403.0298" x2="816.5171" y1="630.8535" y2="630.8535"/><text fill="#000000" font-family="sans-serif" font-size="13" font-weight="bold" lengthAdjust="spacing" textLength="35.3628" x="410.0298" y="626.1113">[009]</text><text fill="#000000" font-family="sans-serif" font-size="13" lengthAdjust="spacing" textLength="109.5923" x="449.3926" y="626.1113">Read Control Reg</text><polygon fill="#FF0000" points="810.5171,684.1641,820.5171,688.1641,810.5171,692.1641,814.5171,688.1641" style="stroke:#FF0000;stroke-width:1;"/><line style="stroke:#FF0000;stroke-width:1;" x1="403.0298" x2="816.5171" y1="688.1641" y2="688.1641"/><text fill="#000000" font-family="sans-serif" font-size="13" font-weight="bold" lengthAdjust="spacing" textLength="35.3628" x="410.0298" y="683.4219">[010]</text><text fill="#000000" font-family="sans-serif" font-size="13" lengthAdjust="spacing" textLength="94.3008" x="449.3926" y="683.4219">Write Metadata</text><polygon fill="#FF0000" points="810.5171,713.4746,820.5171,717.4746,810.5171,721.4746,814.5171,717.4746" style="stroke:#FF0000;stroke-width:1;"/><line style="stroke:#FF0000;stroke-width:1;" x1="403.0298" x2="816.5171" y1="717.4746" y2="717.4746"/><text fill="#000000" font-family="sans-serif" font-size="13" font-weight="bold" lengthAdjust="spacing" textLength="35.3628" x="410.0298" y="712.7324">[011]</text><text fill="#000000" font-family="sans-serif" font-size="13" lengthAdjust="spacing" textLength="361.1245" x="449.3926" y="712.7324">Write Control Reg (CMD = Unload_MEK, DN = 0, EXE = 1)</text><line style="stroke:#008000;stroke-width:1;" x1="994.9512" x2="984.9512" y1="717.4746" y2="713.4746"/><line style="stroke:#008000;stroke-width:1;" x1="994.9512" x2="984.9512" y1="717.4746" y2="721.4746"/><line style="stroke:#008000;stroke-width:1;" x1="822.5171" x2="995.9512" y1="717.4746" y2="717.4746"/><text fill="#000000" font-family="sans-serif" font-size="13" font-weight="bold" lengthAdjust="spacing" textLength="35.3628" x="829.5171" y="712.7324">[012]</text><text fill="#000000" font-family="sans-serif" font-size="13" lengthAdjust="spacing" textLength="4.1133" x="868.8799" y="712.7324">&#160;</text><line style="stroke:#FF0000;stroke-width:1;" x1="403.0298" x2="445.0298" y1="746.7852" y2="746.7852"/><line style="stroke:#FF0000;stroke-width:1;" x1="445.0298" x2="445.0298" y1="746.7852" y2="759.7852"/><line style="stroke:#FF0000;stroke-width:1;" x1="404.0298" x2="445.0298" y1="759.7852" y2="759.7852"/><polygon fill="#FF0000" points="414.0298,755.7852,404.0298,759.7852,414.0298,763.7852,410.0298,759.7852" style="stroke:#FF0000;stroke-width:1;"/><text fill="#000000" font-family="sans-serif" font-size="13" font-weight="bold" lengthAdjust="spacing" textLength="35.3628" x="410.0298" y="742.043">[013]</text><text fill="#000000" font-family="sans-serif" font-size="13" lengthAdjust="spacing" textLength="82.2529" x="449.3926" y="742.043">Start timeout</text><polygon fill="#FF0000" points="810.5171,785.0957,820.5171,789.0957,810.5171,793.0957,814.5171,789.0957" style="stroke:#FF0000;stroke-width:1;"/><line style="stroke:#FF0000;stroke-width:1;" x1="403.0298" x2="816.5171" y1="789.0957" y2="789.0957"/><text fill="#000000" font-family="sans-serif" font-size="13" font-weight="bold" lengthAdjust="spacing" textLength="35.3628" x="410.0298" y="784.3535">[014]</text><text fill="#000000" font-family="sans-serif" font-size="13" lengthAdjust="spacing" textLength="109.5923" x="449.3926" y="784.3535">Read Control Reg</text><polygon fill="#FF0000" points="833.5171,814.4063,823.5171,818.4063,833.5171,822.4063,829.5171,818.4063" style="stroke:#FF0000;stroke-width:1;"/><line style="stroke:#FF0000;stroke-width:1;" x1="827.5171" x2="995.9512" y1="818.4063" y2="818.4063"/><text fill="#000000" font-family="sans-serif" font-size="13" font-weight="bold" lengthAdjust="spacing" textLength="35.3628" x="839.5171" y="813.6641">[015]</text><text fill="#000000" font-family="sans-serif" font-size="13" lengthAdjust="spacing" textLength="92.8218" x="878.8799" y="813.6641">Read Metadata</text><polygon fill="#FF0000" points="1124.1284,843.7168,1134.1284,847.7168,1124.1284,851.7168,1128.1284,847.7168" style="stroke:#FF0000;stroke-width:1;"/><line style="stroke:#FF0000;stroke-width:1;" x1="1006.9512" x2="1130.1284" y1="847.7168" y2="847.7168"/><text fill="#000000" font-family="sans-serif" font-size="13" font-weight="bold" lengthAdjust="spacing" textLength="35.3628" x="1013.9512" y="842.9746">[016]</text><text fill="#000000" font-family="sans-serif" font-size="13" lengthAdjust="spacing" textLength="70.8145" x="1053.314" y="842.9746">Unload Key</text><path d="M382.0298,859.7168 L671.1289,859.7168 L671.1289,867.0273 L661.1289,877.0273 L382.0298,877.0273 L382.0298,859.7168 " fill="#EEEEEE" style="stroke:#000000;stroke-width:1.5;"/><rect fill="transparent" height="131.8633" style="stroke:#000000;stroke-width:1.5;" width="635.9214" x="382.0298" y="859.7168"/><text fill="#000000" font-family="sans-serif" font-size="13" font-weight="bold" lengthAdjust="spacing" textLength="244.0991" x="397.0298" y="873.2852">loop until (cmd_timeout or DN = 1b)</text><line style="stroke:#008000;stroke-width:1;" x1="823.5171" x2="833.5171" y1="954.2695" y2="950.2695"/><line style="stroke:#008000;stroke-width:1;" x1="823.5171" x2="833.5171" y1="954.2695" y2="958.2695"/><line style="stroke:#008000;stroke-width:1;" x1="822.5171" x2="995.9512" y1="954.2695" y2="954.2695"/><text fill="#000000" font-family="sans-serif" font-size="13" font-weight="bold" lengthAdjust="spacing" textLength="35.3628" x="839.5171" y="926.5615">[017]</text><text fill="#000000" font-family="sans-serif" font-size="13" lengthAdjust="spacing" textLength="111.0713" x="878.8799" y="903.5957">Write Control Reg</text><text fill="#000000" font-family="sans-serif" font-size="13" lengthAdjust="spacing" textLength="62.645" x="878.8799" y="918.9063">(DN = 1b,</text><text fill="#000000" font-family="sans-serif" font-size="13" lengthAdjust="spacing" textLength="62.5625" x="882.9932" y="934.2168">ERR = 0b,</text><text fill="#000000" font-family="sans-serif" font-size="13" lengthAdjust="spacing" textLength="61.4199" x="882.9932" y="949.5273">EXE = 0b)</text><polygon fill="#FF0000" points="810.5171,979.5801,820.5171,983.5801,810.5171,987.5801,814.5171,983.5801" style="stroke:#FF0000;stroke-width:1;"/><line style="stroke:#FF0000;stroke-width:1;" x1="403.0298" x2="816.5171" y1="983.5801" y2="983.5801"/><text fill="#000000" font-family="sans-serif" font-size="13" font-weight="bold" lengthAdjust="spacing" textLength="35.3628" x="410.0298" y="978.8379">[018]</text><text fill="#000000" font-family="sans-serif" font-size="13" lengthAdjust="spacing" textLength="109.5923" x="449.3926" y="978.8379">Read Control Reg</text><polygon fill="#FF0000" points="810.5171,1022.8906,820.5171,1026.8906,810.5171,1030.8906,814.5171,1026.8906" style="stroke:#FF0000;stroke-width:1;"/><line style="stroke:#FF0000;stroke-width:1;" x1="403.0298" x2="816.5171" y1="1026.8906" y2="1026.8906"/><text fill="#000000" font-family="sans-serif" font-size="13" font-weight="bold" lengthAdjust="spacing" textLength="35.3628" x="410.0298" y="1022.1484">[019]</text><text fill="#000000" font-family="sans-serif" font-size="13" lengthAdjust="spacing" textLength="177.9438" x="449.3926" y="1022.1484">Write Control Reg (DN = 1b)</text><path d="M827.5171,1010.5801 L827.5171,1035.5801 L1281.5171,1035.5801 L1281.5171,1020.5801 L1271.5171,1010.5801 L827.5171,1010.5801 " fill="#FEFFDD" style="stroke:#181818;stroke-width:0.5;"/><path d="M1271.5171,1010.5801 L1271.5171,1020.5801 L1281.5171,1020.5801 L1271.5171,1010.5801 " fill="#FEFFDD" style="stroke:#181818;stroke-width:0.5;"/><text fill="#000000" font-family="sans-serif" font-size="13" lengthAdjust="spacing" textLength="433.291" x="833.5171" y="1028.1484">Reset the SFR interface for next operation - not waiting for response</text><polygon fill="#FF0000" points="204.624,1104.1328,194.624,1108.1328,204.624,1112.1328,200.624,1108.1328" style="stroke:#FF0000;stroke-width:1;"/><line style="stroke:#FF0000;stroke-width:1;" x1="198.624" x2="392.0298" y1="1108.1328" y2="1108.1328"/><text fill="#000000" font-family="sans-serif" font-size="13" font-weight="bold" lengthAdjust="spacing" textLength="35.3628" x="210.624" y="1080.4248">[020]</text><text fill="#000000" font-family="sans-serif" font-size="13" lengthAdjust="spacing" textLength="64.6826" x="249.9868" y="1057.459">Command</text><text fill="#000000" font-family="sans-serif" font-size="13" lengthAdjust="spacing" textLength="57.2939" x="249.9868" y="1072.7695">response</text><text fill="#000000" font-family="sans-serif" font-size="13" lengthAdjust="spacing" textLength="136.043" x="249.9868" y="1088.0801">(Status = Control Reg</text><text fill="#000000" font-family="sans-serif" font-size="13" lengthAdjust="spacing" textLength="67.0503" x="311.686" y="1103.3906">Error field)</text><line style="stroke:#008000;stroke-width:1;" x1="43.6826" x2="53.6826" y1="1108.1328" y2="1104.1328"/><line style="stroke:#008000;stroke-width:1;" x1="43.6826" x2="53.6826" y1="1108.1328" y2="1112.1328"/><line style="stroke:#008000;stroke-width:1;" x1="42.6826" x2="192.624" y1="1108.1328" y2="1108.1328"/><text fill="#000000" font-family="sans-serif" font-size="13" font-weight="bold" lengthAdjust="spacing" textLength="35.3628" x="59.6826" y="1095.7354">[021]</text><text fill="#000000" font-family="sans-serif" font-size="13" lengthAdjust="spacing" textLength="64.6826" x="99.0454" y="1088.0801">Command</text><text fill="#000000" font-family="sans-serif" font-size="13" lengthAdjust="spacing" textLength="58.0684" x="99.0454" y="1103.3906">complete</text><path d="M198.624,1121.1328 L198.624,1180.1328 L692.624,1180.1328 L692.624,1131.1328 L682.624,1121.1328 L198.624,1121.1328 " fill="#FEFFDD" style="stroke:#181818;stroke-width:0.5;"/><path d="M682.624,1121.1328 L682.624,1131.1328 L692.624,1131.1328 L682.624,1121.1328 " fill="#FEFFDD" style="stroke:#181818;stroke-width:0.5;"/><text fill="#000000" font-family="sans-serif" font-size="13" lengthAdjust="spacing" textLength="4.1133" x="204.624" y="1140.7012">&#160;</text><text fill="#000000" font-family="sans-serif" font-size="13" font-weight="bold" lengthAdjust="spacing" textLength="32.1509" x="208.7373" y="1140.7012">Field</text><text fill="#000000" font-family="sans-serif" font-size="13" lengthAdjust="spacing" textLength="4.1133" x="282.5732" y="1140.7012">&#160;</text><text fill="#000000" font-family="sans-serif" font-size="13" font-weight="bold" lengthAdjust="spacing" textLength="26.9521" x="286.6865" y="1140.7012">Size</text><text fill="#000000" font-family="sans-serif" font-size="13" lengthAdjust="spacing" textLength="4.1133" x="331.7612" y="1140.7012">&#160;</text><text fill="#000000" font-family="sans-serif" font-size="13" font-weight="bold" lengthAdjust="spacing" textLength="66.644" x="335.8745" y="1140.7012">Definition</text><text fill="#000000" font-family="sans-serif" font-size="13" lengthAdjust="spacing" textLength="49.1563" x="208.7373" y="1156.0117">chksum</text><text fill="#000000" font-family="sans-serif" font-size="13" lengthAdjust="spacing" textLength="24.5083" x="286.6865" y="1156.0117">u32</text><text fill="#000000" font-family="sans-serif" font-size="13" lengthAdjust="spacing" textLength="78.0254" x="335.8745" y="1156.0117">Little endian</text><text fill="#000000" font-family="sans-serif" font-size="13" lengthAdjust="spacing" textLength="68.0723" x="208.7373" y="1171.3223">fips_status</text><text fill="#000000" font-family="sans-serif" font-size="13" lengthAdjust="spacing" textLength="24.5083" x="286.6865" y="1171.3223">u32</text><text fill="#000000" font-family="sans-serif" font-size="13" lengthAdjust="spacing" textLength="338.4253" x="335.8745" y="1171.3223">Indicates if the command is FIPS approved or an error</text><line style="stroke:#000000;stroke-width:0.5;" x1="204.624" x2="678.4131" y1="1128.1328" y2="1128.1328"/><line style="stroke:#000000;stroke-width:0.5;" x1="204.624" x2="678.4131" y1="1143.4434" y2="1143.4434"/><line style="stroke:#000000;stroke-width:0.5;" x1="204.624" x2="678.4131" y1="1158.7539" y2="1158.7539"/><line style="stroke:#000000;stroke-width:0.5;" x1="204.624" x2="678.4131" y1="1174.0645" y2="1174.0645"/><line style="stroke:#000000;stroke-width:0.5;" x1="204.624" x2="204.624" y1="1128.1328" y2="1174.0645"/><line style="stroke:#000000;stroke-width:0.5;" x1="282.5732" x2="282.5732" y1="1128.1328" y2="1174.0645"/><line style="stroke:#000000;stroke-width:0.5;" x1="331.7612" x2="331.7612" y1="1128.1328" y2="1174.0645"/><line style="stroke:#000000;stroke-width:0.5;" x1="678.4131" x2="678.4131" y1="1128.1328" y2="1174.0645"/><!--SRC=[dLLjJzim4FxkNt5K2BLhwGhxCY50OYjCY9UX5hH9OwgSvD9Q97PaEtIT-F4xEozDQRTrYrJLTkxbkUSkZtU439CyGb1XDabK-3J9hKXCduuPsn4nj7VDJCqdLjW4EmpekNTBQ3t8HF48RiwlMcm7PIJY5OTCOwXaLBX8PH5ug9KnVk-Uu-3qhh0HLYXfZexV1gVrspTmgoJ2Fd2N0LA-0ANz7yM26Nz6210bE0mOzRqVWV2PQZWidiCkDmiPGXfqkt043xVNdy-64mh9l4i3CCz4fqxl0MindLdoh4_Tym8N0fDekHsBd-Z-XnWBwKk1brSUuUp9v6czpTyT-lzhOHsJ3YnVTqhHyeXRNZcz_tOu-4wBc-ey9a8SDrPv5a18MjaPGgG5qHFgHKO7AAU2Y6oBFlRXTdmvX2vSVpW3pUKKEsjPTRIWNgUeSjk4UbyU2GcfyPbH-WIkt3859GkedoaHXpnQU2iE4kT0XocdvgpnaaRR9Qi2K8hLijo1IhC4gLtBwFKW-1QNmv06rIo4yTmFmySYwihOfcOwoRWsGawBQGZT39KZH3wVq5Pe_EiqsD_tYrs3ITnkaNch1wqX0TAfGrWQjpeqbOd1fLE5Qvd0n9eoZ8WyWYQjLWbjfepnn49xU0id9t0GmCiBd8z6ZStNysBp6cyHxeiMn4qZNX7AsxzoSAiZ65kkBPHjsHXo3Q4pccgLPpI8AeDSaeH0kpbArCEoWa40UtjL1UMcg61G8Tew9p78t8-H3J6wkVJgUs5i2se-tWo9cqBQd4hqm9Crw1KWuQ33zhntEKg8tMupy2OAj-Wmuhf1ZRj- -HGw1IjazmeNZArptloYYFDbfmk-iCBj2Tj4mQEingFtA8isKMFysXCm-CsOhTNa-bAqXVtBI2w5ryKqzBKvHHjVZ9oyeOvvY5uH9FwW2ZFKt4lGlhyMvfpqLqwzWKQJqQs2h9dVVyBbP_yeAnEgcJfcSqCOLgY0rUTSQmeSE_btOx0Kb5KzUPIL9BdCZe3_lMdeYgml6x_pTurVRNdRLABwz-ic5fcPc8A6fjSbcOVSeW4gmFMYqc9XuEBoRWmyoxHwniZD6yL5JzAVjVWN]--></g></svg>