<?xml version="1.0" encoding="UTF-8" standalone="no"?>
<!DOCTYPE svg PUBLIC "-//W3C//DTD SVG 1.1//EN" "http://www.w3.org/Graphics/SVG/1.1/DTD/svg11.dtd">
<!-- Generated by Microsoft Visio, SVG Export Caliptra Release Flow.svg Page-1 -->
<svg xmlns="http://www.w3.org/2000/svg" xmlns:xlink="http://www.w3.org/1999/xlink" xmlns:ev="http://www.w3.org/2001/xml-events"
		xmlns:v="http://schemas.microsoft.com/visio/2003/SVGExtensions/" width="11in" height="8.5in" viewBox="0 0 792 612"
		xml:space="preserve" color-interpolation-filters="sRGB" class="st29">
	<v:documentProperties v:langID="1033" v:viewMarkup="false">
		<v:userDefs>
			<v:ud v:nameU="msvNoAutoConnect" v:val="VT0(1):26"/>
			<v:ud v:nameU="msvWarnOnPersonalInfo" v:val="VT0(0):5"/>
		</v:userDefs>
	</v:documentProperties>

	<style type="text/css">
	<![CDATA[
		.st1 {stroke:#505050;stroke-linecap:round;stroke-linejoin:round;stroke-width:1}
		.st2 {fill:#4672c4;stroke:#c7c8c8;stroke-width:0.25}
		.st3 {fill:none;stroke:none;stroke-width:0.25}
		.st4 {fill:#7f7f7f;font-family:Calibri;font-size:1.00001em}
		.st5 {marker-end:url(#mrkr4-19);stroke:#4672c4;stroke-linecap:round;stroke-linejoin:round;stroke-width:1}
		.st6 {fill:#4672c4;fill-opacity:1;stroke:#4672c4;stroke-opacity:1;stroke-width:0.28409090909091}
		.st7 {fill:#ffffff;stroke:none;stroke-linecap:butt;stroke-width:7.2}
		.st8 {fill:#3c63ac;font-family:Calibri;font-size:0.666664em}
		.st9 {fill:#ed7d31}
		.st10 {marker-end:url(#mrkr4-30);stroke:#ed7d31;stroke-dasharray:7,5;stroke-linecap:round;stroke-linejoin:round;stroke-width:1}
		.st11 {stroke:#ed7d31;stroke-dasharray:7,5;stroke-linecap:round;stroke-linejoin:round;stroke-width:1}
		.st12 {fill:#ed7d31;fill-opacity:1;stroke:#ed7d31;stroke-opacity:1;stroke-width:0.28409090909091}
		.st13 {fill:#ed7d31;font-family:Calibri;font-size:0.833336em}
		.st14 {fill:#7f7f7f;font-family:Calibri;font-size:2.33334em;font-weight:bold}
		.st15 {fill:#4672c4;stroke:#c7c8c8;stroke-linecap:butt;stroke-width:0.25}
		.st16 {fill:#4672c4;font-family:Calibri;font-size:0.833336em}
		.st17 {fill:#ffffff;stroke:#70ad47;stroke-width:0.25}
		.st18 {fill:#00b050;font-family:Calibri;font-size:1.16666em}
		.st19 {font-size:1em}
		.st20 {marker-end:url(#mrkr4-57);stroke:#4672c4;stroke-dasharray:7,5;stroke-linecap:round;stroke-linejoin:round;stroke-width:1}
		.st21 {marker-end:url(#mrkr4-57);stroke:#4672c4;stroke-linecap:round;stroke-linejoin:round;stroke-width:1}
		.st22 {fill:#3c63ac;stroke:#30518f;stroke-width:0.75}
		.st23 {fill:#7f7f7f;stroke:#c7c8c8;stroke-width:0.25}
		.st24 {fill:#7f7f7f;stroke:#deebf6;stroke-width:0.25}
		.st25 {fill:#ff0000;font-family:Calibri;font-size:0.666664em}
		.st26 {fill:none;stroke:#7f7f7f;stroke-width:3}
		.st27 {fill:#00b050;font-family:Calibri;font-size:1.16666em;font-weight:bold}
		.st28 {fill:none;stroke:#30518f;stroke-dasharray:0.01,3.75;stroke-width:0.75}
		.st29 {fill:none;fill-rule:evenodd;font-size:12px;overflow:visible;stroke-linecap:square;stroke-miterlimit:3}
	]]>
	</style>

	<defs id="Markers">
		<g id="lend4">
			<path d="M 2 1 L 0 0 L 2 -1 L 2 1 " style="stroke:none"/>
		</g>
		<marker id="mrkr4-19" class="st6" v:arrowType="4" v:arrowSize="2" v:setback="6.68" refX="-6.68" orient="auto"
				markerUnits="strokeWidth" overflow="visible">
			<use xlink:href="#lend4" transform="scale(-3.52,-3.52) "/>
		</marker>
		<marker id="mrkr4-30" class="st12" v:arrowType="4" v:arrowSize="2" v:setback="6.68" refX="-6.68" orient="auto"
				markerUnits="strokeWidth" overflow="visible">
			<use xlink:href="#lend4" transform="scale(-3.52,-3.52) "/>
		</marker>
		<marker id="mrkr4-57" class="st6" v:arrowType="4" v:arrowSize="2" v:setback="7.04" refX="-7.04" orient="auto"
				markerUnits="strokeWidth" overflow="visible">
			<use xlink:href="#lend4" transform="scale(-3.52,-3.52) "/>
		</marker>
	</defs>
	<g v:mID="0" v:index="1" v:groupContext="foregroundPage">
		<v:userDefs>
			<v:ud v:nameU="msvThemeOrder" v:val="VT0(0):26"/>
		</v:userDefs>
		<title>Page-1</title>
		<v:pageProperties v:drawingScale="1" v:pageScale="1" v:drawingUnits="19" v:shadowOffsetX="9" v:shadowOffsetY="-9"/>
		<v:layer v:name="Azure" v:index="0"/>
		<v:layer v:name="Connector" v:index="1"/>
		<v:layer v:name="Flowchart" v:index="2"/>
		<g id="shape2-1" v:mID="2" v:groupContext="shape" v:layerMember="0" transform="translate(105.75,-375.75)">
			<title>Line 1.2</title>
			<path d="M0 612 L630 612" class="st1"/>
		</g>
		<g id="shape3-4" v:mID="3" v:groupContext="shape" transform="translate(250.866,-366.739)">
			<title>Circle.3</title>
			<v:userDefs>
				<v:ud v:nameU="visVersion" v:val="VT0(15):26"/>
			</v:userDefs>
			<path d="M0 601.87 A10.134 10.134 0 0 1 20.27 601.87 A10.134 10.134 0 1 1 0 601.87 Z" class="st2"/>
		</g>
		<g id="shape13-6" v:mID="13" v:groupContext="shape" transform="translate(81,-381.6)">
			<title>Sheet.13</title>
			<desc>Caliptra RTL</desc>
			<v:textBlock v:margins="rect(4,4,4,4)"/>
			<v:textRect cx="37.062" cy="604.8" width="74.13" height="14.4"/>
			<rect x="0" y="597.6" width="74.124" height="14.4" class="st3"/>
			<text x="8.05" y="608.4" class="st4" v:langID="1033"><v:paragraph v:horizAlign="1"/><v:tabList/>Caliptra RTL</text>		</g>
		<g id="shape15-9" v:mID="15" v:groupContext="shape" v:layerMember="0" transform="translate(108,-270)">
			<title>Line 1.15</title>
			<path d="M0 612 L632.26 612" class="st1"/>
		</g>
		<g id="shape16-12" v:mID="16" v:groupContext="shape" transform="translate(246.366,-211.921)">
			<title>Circle.16</title>
			<v:userDefs>
				<v:ud v:nameU="visVersion" v:val="VT0(15):26"/>
			</v:userDefs>
			<path d="M0 601.87 A10.134 10.134 0 0 1 20.27 601.87 A10.134 10.134 0 1 1 0 601.87 Z" class="st2"/>
		</g>
		<g id="shape17-14" v:mID="17" v:groupContext="shape" v:layerMember="1"
				transform="translate(532.582,-156.065) rotate(34.5742)">
			<title>Line-curve connector.17</title>
			<desc>ci_rtl_&#60;date&#62;_n</desc>
			<v:userDefs>
				<v:ud v:nameU="AntiScale" v:val="VT0(1):26"/>
				<v:ud v:nameU="visVersion" v:val="VT0(15):26"/>
			</v:userDefs>
			<v:textBlock v:margins="rect(4,4,4,4)"/>
			<v:textRect cx="24.3025" cy="636.477" width="61.16" height="17.6036" transform="rotate(-34.5742)"/>
			<path d="M0 612 L3.48 622.29 L8.41 629.79 L14.8 634.5 L22.64 636.43 L31.94 635.56 L42.69 631.92 L54.9 625.48 L68.57 616.26
						 L68.86 616.04" class="st5"/>
			<rect v:rectContext="textBkgnd" x="-366.844" y="533.061" width="51.3435" height="9.59985" transform="rotate(-34.5742)"
					class="st7"/>
			<text x="-366.84" y="540.26" transform="rotate(-34.5742)" class="st8" v:langID="1033"><v:paragraph v:horizAlign="1"/><v:tabList/>ci_rtl_&#60;date&#62;_n</text>		</g>
		<g id="shape22-22" v:mID="22" v:groupContext="shape" transform="translate(81.0162,-270)">
			<title>Sheet.22</title>
			<desc>Caliptra SW</desc>
			<v:textBlock v:margins="rect(4,4,4,4)"/>
			<v:textRect cx="37.062" cy="604.8" width="74.13" height="14.4"/>
			<rect x="0" y="597.6" width="74.124" height="14.4" class="st3"/>
			<text x="8.66" y="608.4" class="st4" v:langID="1033"><v:paragraph v:horizAlign="1"/><v:tabList/>Caliptra SW</text>		</g>
		<g id="shape29-25" v:mID="29" v:groupContext="shape" v:layerMember="1"
				transform="translate(-362.353,363.184) rotate(-88.1653)">
			<title>Arced Line Arrow.29</title>
			<v:userDefs>
				<v:ud v:nameU="Scale" v:val="VT0(1):26"/>
				<v:ud v:nameU="AntiScale" v:val="VT0(1):26"/>
				<v:ud v:nameU="visVersion" v:val="VT0(17):26"/>
			</v:userDefs>
			<path d="M135.46 610.04 L134.48 612.59 L140.56 612 L136.44 607.49 L135.46 610.04 Z" class="st9"/>
			<path d="M5.1 610.04 A188.933 188.933 0 0 1 128.81 607.74 L129.15 607.85" class="st10"/>
			<path d="M135.46 610.04 L134.48 612.59 L140.56 612 L136.44 607.49 L135.46 610.04" class="st11"/>
		</g>
		<g id="shape30-32" v:mID="30" v:groupContext="shape" transform="translate(232.852,-273.96)">
			<title>Sheet.30</title>
			<desc>git submodule</desc>
			<v:textBlock v:margins="rect(4,4,4,4)"/>
			<v:textRect cx="55.1484" cy="600.48" width="110.3" height="23.04"/>
			<rect x="0" y="588.96" width="110.297" height="23.04" class="st3"/>
			<text x="26.11" y="603.48" class="st13" v:langID="1033"><v:paragraph v:horizAlign="1"/><v:tabList/>git submodule</text>		</g>
		<g id="shape99-35" v:mID="99" v:groupContext="shape" transform="translate(216,-484.56)">
			<title>Sheet.99</title>
			<desc>HW Release Flow</desc>
			<v:textBlock v:margins="rect(4,4,4,4)"/>
			<v:textRect cx="164.16" cy="593.28" width="328.32" height="37.44"/>
			<rect x="0" y="574.56" width="328.32" height="37.44" class="st3"/>
			<text x="63.53" y="601.68" class="st14" v:langID="1033"><v:paragraph v:horizAlign="1"/><v:tabList/>HW Release Flow</text>		</g>
		<g id="group139-38" transform="translate(389.601,-204.038)" v:mID="139" v:groupContext="group">
			<v:userDefs>
				<v:ud v:nameU="Monoline" v:prompt="" v:val="VT0(0):5"/>
			</v:userDefs>
			<title>Filing Box Archive.139</title>
			<desc>Release N</desc>
			<g id="shape140-39" v:mID="140" v:groupContext="shape">
				<title>Sheet.140</title>
				<v:userDefs>
					<v:ud v:nameU="msvDisableCustomConnectionPoints" v:prompt="" v:val="VT0(1):5"/>
				</v:userDefs>
				<path d="M40.93 595.18 L23.87 595.18 L23.87 590.38 L40.93 590.38 L40.93 595.18 ZM2.56 585.57 L2.56 612 L62.24 612
							 L62.24 585.57 L2.56 585.57 ZM0 583.17 L64.8 583.17 L64.8 575.97 L0 575.97 L0 583.17 Z" class="st15"/>
			</g>
			<g id="shape141-41" v:mID="141" v:groupContext="shape" transform="translate(0.00426319,-0.00300287)">
				<title>Sheet.141</title>
				<v:userDefs>
					<v:ud v:nameU="msvDisableCustomConnectionPoints" v:prompt="" v:val="VT0(1):5"/>
				</v:userDefs>
			</g>
			<g id="shape139-43" v:mID="139" v:groupContext="groupContent">
				<v:textBlock v:margins="rect(4,4,4,4)"/>
				<v:textRect cx="32.4" cy="622.002" width="72" height="20.0036"/>
				<text x="12.37" y="625" class="st16" v:langID="1033"><v:paragraph v:horizAlign="1"/><v:tabList/>Release N</text>			</g>
		</g>
		<g id="shape221-45" v:mID="221" v:groupContext="shape" v:layerMember="2" transform="translate(506.921,-308.751)">
			<title>Process group.221</title>
			<desc>RTL DV Checkout</desc>
			<v:userDefs>
				<v:ud v:nameU="visVersion" v:prompt="" v:val="VT0(15):26"/>
			</v:userDefs>
			<v:textBlock v:margins="rect(2,2,2,2)"/>
			<v:textRect cx="46.2375" cy="588.881" width="92.48" height="46.2375"/>
			<path d="M0 612 L80.92 612 L92.47 588.88 L80.92 565.76 L0 565.76 L11.56 588.88 L0 612 Z" class="st17"/>
			<text x="26.22" y="584.68" class="st18" v:langID="1033"><v:paragraph v:horizAlign="1"/><v:tabList/>RTL DV <tspan
						x="19.49" dy="1.2em" class="st19">Checkout</tspan></text>		</g>
		<g id="shape226-49" v:mID="226" v:groupContext="shape" v:layerMember="2" transform="translate(283.5,-200.68)">
			<title>Process group.226</title>
			<desc>RTL Update</desc>
			<v:userDefs>
				<v:ud v:nameU="visVersion" v:prompt="" v:val="VT0(15):26"/>
			</v:userDefs>
			<v:textBlock v:margins="rect(2,2,2,2)"/>
			<v:textRect cx="42.75" cy="590.625" width="85.5" height="42.75"/>
			<path d="M0 612 L74.81 612 L85.5 590.63 L74.81 569.25 L0 569.25 L10.69 590.63 L0 612 Z" class="st17"/>
			<text x="9.99" y="594.83" class="st18" v:langID="1033"><v:paragraph v:horizAlign="1"/><v:tabList/>RTL Update</text>		</g>
		<g id="shape249-52" v:mID="249" v:groupContext="shape" v:layerMember="1" transform="translate(268.167,-369.706)">
			<title>Dynamic connector.249</title>
			<path d="M0 612 L9.72 612 L9.72 649.84 L243.27 649.84" class="st20"/>
		</g>
		<g id="shape252-58" v:mID="252" v:groupContext="shape" transform="translate(655.938,-340.5)">
			<title>Sheet.252</title>
			<desc>Caliptra Major HW Release</desc>
			<v:textBlock v:margins="rect(4,4,4,4)"/>
			<v:textRect cx="37.062" cy="606.75" width="74.13" height="10.5"/>
			<rect x="0" y="601.5" width="74.124" height="10.5" class="st3"/>
			<text x="4" y="595.95" class="st4" v:langID="1033"><v:paragraph/><v:tabList/>Caliptra <tspan x="4" dy="1.2em"
						class="st19">Major HW </tspan><tspan x="4" dy="1.2em" class="st19">Release</tspan></text>		</g>
		<g id="shape280-63" v:mID="280" v:groupContext="shape" v:layerMember="1" transform="translate(266.634,-213.055)">
			<title>Dynamic connector.280</title>
			<path d="M0 603 L20.51 603" class="st21"/>
		</g>
		<g id="shape283-68" v:mID="283" v:groupContext="shape" v:layerMember="0" transform="translate(108,-432)">
			<title>Line 1.283</title>
			<path d="M0 612 L627.23 612" class="st1"/>
		</g>
		<g id="shape284-71" v:mID="284" v:groupContext="shape" transform="translate(84.438,-438.3)">
			<title>Sheet.284</title>
			<desc>Caliptra Spec</desc>
			<v:textBlock v:margins="rect(4,4,4,4)"/>
			<v:textRect cx="37.062" cy="604.8" width="74.13" height="14.4"/>
			<rect x="0" y="597.6" width="74.124" height="14.4" class="st3"/>
			<text x="5.32" y="608.4" class="st4" v:langID="1033"><v:paragraph v:horizAlign="1"/><v:tabList/>Caliptra Spec</text>		</g>
		<g id="shape285-74" v:mID="285" v:groupContext="shape" transform="translate(1212.88,288) rotate(90) scale(-1,1)">
			<title>Bent Arrow</title>
			<v:userDefs>
				<v:ud v:nameU="visVersion" v:prompt="" v:val="VT0(15):26"/>
			</v:userDefs>
			<path d="M0 612 L11.25 612 L11.25 593.69 A24.1798 24.1798 0 0 1 35.44 569.5 L78.75 569.5 L78.75 574 L94.5 563.88 L78.75
						 553.75 L78.75 558.25 L35.44 558.25 A35.4262 35.4262 -180 0 0 0 593.69 L0 612 Z" class="st22"/>
		</g>
		<g id="shape286-76" v:mID="286" v:groupContext="shape" transform="translate(174.366,-366.732)">
			<title>Circle.1</title>
			<v:userDefs>
				<v:ud v:nameU="visVersion" v:val="VT0(15):26"/>
			</v:userDefs>
			<path d="M0 601.87 A10.134 10.134 0 0 1 20.27 601.87 A10.134 10.134 0 1 1 0 601.87 Z" class="st23"/>
		</g>
		<g id="shape287-78" v:mID="287" v:groupContext="shape" transform="translate(638.857,-423)">
			<title>Circle.287</title>
			<v:userDefs>
				<v:ud v:nameU="visVersion" v:val="VT0(15):26"/>
			</v:userDefs>
			<path d="M0 601.87 A10.134 10.134 0 0 1 20.27 601.87 A10.134 10.134 0 1 1 0 601.87 Z" class="st2"/>
		</g>
		<g id="group288-80" transform="translate(611.929,-471.781)" v:mID="288" v:groupContext="group">
			<v:userDefs>
				<v:ud v:nameU="Monoline" v:prompt="" v:val="VT0(0):5"/>
			</v:userDefs>
			<title>Filing Box Archive.288</title>
			<desc>HW Release Package</desc>
			<g id="shape289-81" v:mID="289" v:groupContext="shape">
				<title>Sheet.289</title>
				<v:userDefs>
					<v:ud v:nameU="msvDisableCustomConnectionPoints" v:prompt="" v:val="VT0(1):5"/>
				</v:userDefs>
				<path d="M46.82 592.76 L27.31 592.76 L27.31 587.27 L46.82 587.27 L46.82 592.76 ZM2.93 581.77 L2.93 612 L71.2 612
							 L71.2 581.77 L2.93 581.77 ZM0 579.02 L74.12 579.02 L74.12 570.78 L0 570.78 L0 579.02 Z" class="st15"/>
			</g>
			<g id="shape290-83" v:mID="290" v:groupContext="shape" transform="translate(0.00487661,-0.00343495)">
				<title>Sheet.290</title>
				<v:userDefs>
					<v:ud v:nameU="msvDisableCustomConnectionPoints" v:prompt="" v:val="VT0(1):5"/>
				</v:userDefs>
			</g>
			<g id="shape288-85" v:mID="288" v:groupContext="groupContent">
				<v:textBlock v:margins="rect(4,4,4,4)"/>
				<v:textRect cx="37.062" cy="628.002" width="74.13" height="32.0037"/>
				<text x="12.69" y="625" class="st16" v:langID="1033"><v:paragraph v:horizAlign="1"/><v:tabList/>HW Release <tspan
							x="20.46" dy="1.2em" class="st19">Package</tspan></text>			</g>
		</g>
		<g id="shape293-88" v:mID="293" v:groupContext="shape" transform="translate(558,-243)">
			<title>Sheet.293</title>
			<desc>Manual for Major releases</desc>
			<v:textBlock v:margins="rect(4,4,4,4)"/>
			<v:textRect cx="30.375" cy="610.308" width="60.75" height="3.384"/>
			<rect x="0" y="608.616" width="60.75" height="3.384" class="st3"/>
			<text x="4" y="599.51" class="st4" v:langID="1033"><v:paragraph/><v:tabList/>Manual <tspan x="4" dy="1.2em"
						class="st19">for Major </tspan><tspan x="4" dy="1.2em" class="st19">releases</tspan></text>		</g>
		<g id="shape297-93" v:mID="297" v:groupContext="shape" transform="translate(363.366,-261)">
			<title>Circle.297</title>
			<v:userDefs>
				<v:ud v:nameU="visVersion" v:val="VT0(15):26"/>
			</v:userDefs>
			<path d="M0 601.87 A10.134 10.134 0 0 1 20.27 601.87 A10.134 10.134 0 1 1 0 601.87 Z" class="st2"/>
		</g>
		<g id="shape299-95" v:mID="299" v:groupContext="shape" transform="translate(477,-261)">
			<title>Circle.299</title>
			<v:userDefs>
				<v:ud v:nameU="visVersion" v:val="VT0(15):26"/>
			</v:userDefs>
			<path d="M0 601.87 A10.134 10.134 0 0 1 20.27 601.87 A10.134 10.134 0 1 1 0 601.87 Z" class="st24"/>
		</g>
		<g id="shape14-97" v:mID="14" v:groupContext="shape" transform="translate(182.14,-261)">
			<title>Circle.14</title>
			<v:userDefs>
				<v:ud v:nameU="visVersion" v:val="VT0(15):26"/>
			</v:userDefs>
			<path d="M0 601.25 A10.7541 10.7541 0 0 1 21.51 601.25 A10.7541 10.7541 0 1 1 0 601.25 Z" class="st23"/>
		</g>
		<g id="shape305-99" v:mID="305" v:groupContext="shape" transform="translate(216,-360)">
			<title>Sheet.305</title>
			<desc>HEAD</desc>
			<v:textBlock v:margins="rect(4,4,4,4)"/>
			<v:textRect cx="16.56" cy="606.96" width="33.13" height="10.08"/>
			<rect x="0" y="601.92" width="33.12" height="10.08" class="st3"/>
			<text x="7.34" y="609.36" class="st25" v:langID="1033"><v:paragraph v:horizAlign="1"/><v:tabList/>HEAD</text>		</g>
		<g id="shape307-102" v:mID="307" v:groupContext="shape" transform="translate(289.611,-248.67)">
			<title>Sheet.307</title>
			<desc>Release_v&#60;date&#62;_n</desc>
			<v:textBlock v:margins="rect(4,4,4,4)"/>
			<v:textRect cx="39.861" cy="606.96" width="79.73" height="10.08"/>
			<rect x="0" y="601.92" width="79.722" height="10.08" class="st3"/>
			<text x="8.1" y="609.36" class="st25" v:langID="1033"><v:paragraph v:horizAlign="1"/><v:tabList/>Release_v&#60;date&#62;_n</text>		</g>
		<g id="shape309-105" v:mID="309" v:groupContext="shape" v:layerMember="1" transform="translate(362.25,-222.055)">
			<title>Dynamic connector.309</title>
			<path d="M6.75 612 L11.25 612 L11.25 580.1" class="st21"/>
		</g>
		<g id="shape318-110" v:mID="318" v:groupContext="shape" transform="translate(159.75,-162)">
			<title>Sheet.318</title>
			<rect x="0" y="463.5" width="299.25" height="148.5" class="st26"/>
		</g>
		<g id="shape319-112" v:mID="319" v:groupContext="shape" transform="translate(159.75,-159.75)">
			<title>Sheet.319</title>
			<desc>Nightly Release Workflow</desc>
			<v:textBlock v:margins="rect(4,4,4,4)"/>
			<v:textRect cx="84.375" cy="600.75" width="168.75" height="22.5"/>
			<rect x="0" y="589.5" width="168.75" height="22.5" class="st3"/>
			<text x="9" y="604.95" class="st27" v:langID="1033"><v:paragraph v:horizAlign="1"/><v:tabList/>Nightly Release Workflow</text>		</g>
		<g id="shape332-115" v:mID="332" v:groupContext="shape" v:layerMember="1" transform="translate(380.667,-263.967)">
			<title>Dynamic connector.332</title>
			<path d="M0 612 L0 621.72 L41.33 621.72 L41.33 628.85" class="st21"/>
		</g>
		<g id="shape333-120" v:mID="333" v:groupContext="shape" transform="translate(1077.53,393.75) rotate(90) scale(-1,1)">
			<title>Bent Arrow.333</title>
			<v:userDefs>
				<v:ud v:nameU="visVersion" v:prompt="" v:val="VT0(15):26"/>
			</v:userDefs>
			<path d="M0 612 L11.25 612 L11.25 556.09 A20.8059 20.8059 0 0 1 32.06 535.28 L69.75 535.28 L69.75 539.78 L85.5 529.65
						 L69.75 519.53 L69.75 524.03 L32.06 524.03 A32.0523 32.0523 -180 0 0 0 556.09 L0 612 Z" class="st28"/>
		</g>
	</g>
</svg>
