<?xml version="1.0" encoding="UTF-8" standalone="no"?>
<svg
   version="1.1"
   viewBox="0.0 0.0 818.2178477690288 572.6745406824147"
   fill="none"
   stroke="none"
   stroke-linecap="square"
   stroke-miterlimit="10"
   id="svg126"
   sodipodi:docname="fw-img-bundle.svg"
   inkscape:version="1.2.2 (732a01da63, 2022-12-09, custom)"
   xmlns:inkscape="http://www.inkscape.org/namespaces/inkscape"
   xmlns:sodipodi="http://sodipodi.sourceforge.net/DTD/sodipodi-0.dtd"
   xmlns="http://www.w3.org/2000/svg"
   xmlns:svg="http://www.w3.org/2000/svg">
  <defs
     id="defs130" />
  <sodipodi:namedview
     id="namedview128"
     pagecolor="#ffffff"
     bordercolor="#000000"
     borderopacity="0.25"
     inkscape:showpageshadow="2"
     inkscape:pageopacity="0.0"
     inkscape:pagecheckerboard="0"
     inkscape:deskcolor="#d1d1d1"
     showgrid="false"
     inkscape:zoom="1.5453804"
     inkscape:cx="388.25393"
     inkscape:cy="289.57272"
     inkscape:window-width="2048"
     inkscape:window-height="1088"
     inkscape:window-x="0"
     inkscape:window-y="0"
     inkscape:window-maximized="1"
     inkscape:current-layer="layer2" />
  <clipPath
     id="p.0">
    <path
       d="m0 0l818.21783 0l0 572.67456l-818.21783 0l0 -572.67456z"
       clip-rule="nonzero"
       id="path25" />
  </clipPath>
  <g
     inkscape:groupmode="layer"
     id="layer2"
     inkscape:label="Layer 2">
    <rect
       style="fill:#ffffff"
       id="rect1173"
       width="799.32538"
       height="555.4635"
       x="7.2519565"
       y="8.2023697" />
  </g>
  <g
     inkscape:groupmode="layer"
     id="layer1"
     inkscape:label="Layer 1">
    <path
       fill="#000000"
       fill-opacity="0.0"
       d="m0 0l818.21783 0l0 572.67456l-818.21783 0z"
       fill-rule="evenodd"
       id="path28" />
    <path
       fill="#d9d9d9"
       d="m314.37625 40.0l244.75589 0l0 57.826775l-244.75589 0z"
       fill-rule="evenodd"
       id="path30" />
    <path
       stroke="#000000"
       stroke-width="1.0"
       stroke-linejoin="round"
       stroke-linecap="butt"
       d="m314.37625 40.0l244.75589 0l0 57.826775l-244.75589 0z"
       fill-rule="evenodd"
       id="path32" />
    <path
       fill="#000000"
       d="m409.37473 67.50526q0 0.875 -0.296875 1.59375q-0.296875 0.703125 -0.84375 1.203125q-0.53125 0.5 -1.328125 0.78125q-0.78125 0.265625 -1.875 0.265625l-1.328125 0l0 4.25q0 0.078125 -0.046875 0.140625q-0.046875 0.046875 -0.140625 0.078125q-0.078125 0.03125 -0.234375 0.046875q-0.140625 0.015625 -0.375 0.015625q-0.21875 0 -0.375 -0.015625q-0.140625 -0.015625 -0.234375 -0.046875q-0.09375 -0.03125 -0.140625 -0.078125q-0.03125 -0.0625 -0.03125 -0.140625l0 -10.875q0 -0.375 0.1875 -0.515625q0.203125 -0.15625 0.4375 -0.15625l2.515625 0q0.390625 0 0.734375 0.03125q0.359375 0.03125 0.828125 0.140625q0.484375 0.09375 0.984375 0.390625q0.5 0.28125 0.84375 0.703125q0.34375 0.40625 0.53125 0.96875q0.1875 0.546875 0.1875 1.21875zm-1.65625 0.125q0 -0.71875 -0.265625 -1.203125q-0.265625 -0.484375 -0.671875 -0.71875q-0.390625 -0.234375 -0.8125 -0.296875q-0.421875 -0.078125 -0.828125 -0.078125l-1.4375 0l0 4.734375l1.40625 0q0.703125 0 1.171875 -0.171875q0.46875 -0.1875 0.78125 -0.515625q0.328125 -0.328125 0.484375 -0.765625q0.171875 -0.453125 0.171875 -0.984375zm8.669098 0.3125q0 0.203125 -0.015625 0.34375q0 0.125 -0.03125 0.203125q-0.03125 0.078125 -0.078125 0.125q-0.03125 0.046875 -0.109375 0.046875q-0.0625 0 -0.171875 -0.046875q-0.109375 -0.046875 -0.25 -0.078125q-0.125 -0.046875 -0.296875 -0.078125q-0.15625 -0.046875 -0.34375 -0.046875q-0.21875 0 -0.4375 0.09375q-0.21875 0.09375 -0.46875 0.3125q-0.234375 0.203125 -0.5 0.546875q-0.265625 0.34375 -0.59375 0.84375l0 5.390625q0 0.078125 -0.03125 0.140625q-0.03125 0.046875 -0.125 0.078125q-0.078125 0.03125 -0.21875 0.046875q-0.140625 0.015625 -0.375 0.015625q-0.21875 0 -0.375 -0.015625q-0.140625 -0.015625 -0.234375 -0.046875q-0.078125 -0.03125 -0.109375 -0.078125q-0.03125 -0.0625 -0.03125 -0.140625l0 -8.1875q0 -0.078125 0.03125 -0.125q0.03125 -0.046875 0.109375 -0.09375q0.078125 -0.046875 0.203125 -0.046875q0.140625 -0.015625 0.34375 -0.015625q0.203125 0 0.328125 0.015625q0.140625 0 0.203125 0.046875q0.078125 0.046875 0.109375 0.09375q0.03125 0.046875 0.03125 0.125l0 1.1875q0.34375 -0.484375 0.640625 -0.796875q0.296875 -0.3125 0.546875 -0.484375q0.265625 -0.1875 0.53125 -0.25q0.265625 -0.078125 0.515625 -0.078125q0.125 0 0.265625 0.015625q0.15625 0.015625 0.3125 0.0625q0.171875 0.03125 0.296875 0.078125q0.140625 0.046875 0.1875 0.09375q0.0625 0.046875 0.078125 0.09375q0.03125 0.03125 0.03125 0.09375q0.015625 0.0625 0.015625 0.1875q0.015625 0.125 0.015625 0.328125zm8.461212 3.203125q0 0.359375 -0.1875 0.515625q-0.171875 0.140625 -0.390625 0.140625l-5.375 0q0 0.6875 0.125 1.234375q0.140625 0.546875 0.453125 0.9375q0.328125 0.390625 0.828125 0.609375q0.515625 0.203125 1.25 0.203125q0.59375 0 1.046875 -0.09375q0.453125 -0.09375 0.78125 -0.203125q0.34375 -0.125 0.546875 -0.21875q0.21875 -0.109375 0.328125 -0.109375q0.0625 0 0.109375 0.03125q0.0625 0.03125 0.078125 0.109375q0.03125 0.0625 0.046875 0.171875q0.015625 0.109375 0.015625 0.28125q0 0.109375 -0.015625 0.203125q0 0.078125 -0.015625 0.15625q-0.015625 0.0625 -0.046875 0.125q-0.03125 0.046875 -0.09375 0.09375q-0.046875 0.046875 -0.296875 0.171875q-0.234375 0.109375 -0.625 0.21875q-0.390625 0.109375 -0.90625 0.1875q-0.515625 0.09375 -1.09375 0.09375q-1.015625 0 -1.78125 -0.28125q-0.765625 -0.28125 -1.28125 -0.828125q-0.515625 -0.5625 -0.78125 -1.390625q-0.265625 -0.84375 -0.265625 -1.96875q0 -1.046875 0.265625 -1.890625q0.28125 -0.84375 0.796875 -1.421875q0.515625 -0.59375 1.234375 -0.90625q0.734375 -0.328125 1.640625 -0.328125q0.96875 0 1.640625 0.3125q0.6875 0.3125 1.125 0.84375q0.4375 0.515625 0.640625 1.234375q0.203125 0.703125 0.203125 1.5l0 0.265625zm-1.515625 -0.4375q0.03125 -1.1875 -0.53125 -1.859375q-0.546875 -0.671875 -1.625 -0.671875q-0.5625 0 -0.984375 0.21875q-0.40625 0.203125 -0.6875 0.546875q-0.28125 0.34375 -0.4375 0.8125q-0.15625 0.453125 -0.171875 0.953125l4.4375 0zm9.970093 4.90625q0 0.109375 -0.078125 0.171875q-0.0625 0.046875 -0.1875 0.0625q-0.125 0.03125 -0.375 0.03125q-0.234375 0 -0.375 -0.03125q-0.140625 -0.015625 -0.203125 -0.0625q-0.0625 -0.0625 -0.0625 -0.171875l0 -0.8125q-0.546875 0.5625 -1.203125 0.890625q-0.65625 0.3125 -1.390625 0.3125q-0.65625 0 -1.1875 -0.171875q-0.515625 -0.15625 -0.890625 -0.46875q-0.359375 -0.328125 -0.5625 -0.796875q-0.203125 -0.46875 -0.203125 -1.0625q0 -0.6875 0.28125 -1.1875q0.28125 -0.515625 0.796875 -0.84375q0.53125 -0.34375 1.296875 -0.515625q0.765625 -0.171875 1.734375 -0.171875l1.125 0l0 -0.640625q0 -0.46875 -0.109375 -0.828125q-0.09375 -0.375 -0.328125 -0.609375q-0.21875 -0.25 -0.578125 -0.359375q-0.34375 -0.125 -0.859375 -0.125q-0.5625 0 -1.0 0.140625q-0.4375 0.125 -0.78125 0.28125q-0.328125 0.15625 -0.546875 0.296875q-0.21875 0.125 -0.328125 0.125q-0.078125 0 -0.140625 -0.03125q-0.046875 -0.046875 -0.09375 -0.109375q-0.03125 -0.078125 -0.0625 -0.1875q-0.015625 -0.125 -0.015625 -0.25q0 -0.234375 0.03125 -0.359375q0.03125 -0.140625 0.15625 -0.25q0.125 -0.125 0.421875 -0.28125q0.3125 -0.171875 0.703125 -0.296875q0.390625 -0.125 0.84375 -0.21875q0.46875 -0.09375 0.953125 -0.09375q0.875 0 1.484375 0.203125q0.625 0.203125 1.0 0.59375q0.390625 0.390625 0.5625 0.96875q0.171875 0.5625 0.171875 1.328125l0 5.53125zm-1.484375 -3.75l-1.28125 0q-0.625 0 -1.078125 0.109375q-0.453125 0.109375 -0.765625 0.3125q-0.296875 0.203125 -0.4375 0.5q-0.140625 0.28125 -0.140625 0.65625q0 0.625 0.40625 1.015625q0.40625 0.375 1.140625 0.375q0.59375 0 1.09375 -0.296875q0.5 -0.3125 1.0625 -0.921875l0 -1.75zm16.420776 3.734375q0 0.078125 -0.046875 0.140625q-0.03125 0.046875 -0.125 0.078125q-0.078125 0.03125 -0.21875 0.046875q-0.140625 0.015625 -0.359375 0.015625q-0.234375 0 -0.390625 -0.015625q-0.140625 -0.015625 -0.234375 -0.046875q-0.078125 -0.03125 -0.109375 -0.078125q-0.03125 -0.0625 -0.03125 -0.140625l0 -4.96875q0 -0.53125 -0.09375 -0.953125q-0.09375 -0.4375 -0.296875 -0.734375q-0.203125 -0.3125 -0.515625 -0.46875q-0.296875 -0.171875 -0.71875 -0.171875q-0.515625 0 -1.046875 0.40625q-0.515625 0.390625 -1.15625 1.171875l0 5.71875q0 0.078125 -0.03125 0.140625q-0.03125 0.046875 -0.125 0.078125q-0.078125 0.03125 -0.234375 0.046875q-0.140625 0.015625 -0.359375 0.015625q-0.203125 0 -0.359375 -0.015625q-0.15625 -0.015625 -0.25 -0.046875q-0.078125 -0.03125 -0.109375 -0.078125q-0.03125 -0.0625 -0.03125 -0.140625l0 -4.96875q0 -0.53125 -0.109375 -0.953125q-0.09375 -0.4375 -0.296875 -0.734375q-0.1875 -0.3125 -0.5 -0.46875q-0.296875 -0.171875 -0.71875 -0.171875q-0.515625 0 -1.046875 0.40625q-0.53125 0.390625 -1.15625 1.171875l0 5.71875q0 0.078125 -0.03125 0.140625q-0.03125 0.046875 -0.125 0.078125q-0.078125 0.03125 -0.21875 0.046875q-0.140625 0.015625 -0.375 0.015625q-0.21875 0 -0.375 -0.015625q-0.140625 -0.015625 -0.234375 -0.046875q-0.078125 -0.03125 -0.109375 -0.078125q-0.03125 -0.0625 -0.03125 -0.140625l0 -8.1875q0 -0.078125 0.03125 -0.125q0.03125 -0.046875 0.109375 -0.09375q0.078125 -0.046875 0.203125 -0.046875q0.140625 -0.015625 0.34375 -0.015625q0.203125 0 0.328125 0.015625q0.140625 0 0.203125 0.046875q0.078125 0.046875 0.109375 0.09375q0.03125 0.046875 0.03125 0.125l0 1.078125q0.6875 -0.765625 1.34375 -1.125q0.65625 -0.375 1.3125 -0.375q0.515625 0 0.921875 0.125q0.40625 0.125 0.703125 0.34375q0.3125 0.203125 0.53125 0.5q0.21875 0.296875 0.375 0.65625q0.40625 -0.4375 0.765625 -0.75q0.375 -0.3125 0.71875 -0.5q0.34375 -0.1875 0.65625 -0.28125q0.328125 -0.09375 0.65625 -0.09375q0.796875 0 1.328125 0.28125q0.546875 0.28125 0.875 0.75q0.328125 0.46875 0.46875 1.09375q0.15625 0.609375 0.15625 1.3125l0 5.171875zm10.278137 -4.203125q0 1.0625 -0.234375 1.921875q-0.234375 0.84375 -0.6875 1.453125q-0.453125 0.59375 -1.109375 0.921875q-0.640625 0.3125 -1.5 0.3125q-0.390625 0 -0.71875 -0.078125q-0.328125 -0.078125 -0.65625 -0.25q-0.3125 -0.171875 -0.640625 -0.4375q-0.3125 -0.265625 -0.671875 -0.640625l0 1.0q0 0.078125 -0.03125 0.140625q-0.03125 0.046875 -0.125 0.078125q-0.078125 0.03125 -0.203125 0.046875q-0.125 0.015625 -0.3125 0.015625q-0.171875 0 -0.3125 -0.015625q-0.125 -0.015625 -0.203125 -0.046875q-0.078125 -0.03125 -0.109375 -0.078125q-0.03125 -0.0625 -0.03125 -0.140625l0 -12.15625q0 -0.078125 0.03125 -0.125q0.03125 -0.0625 0.109375 -0.09375q0.09375 -0.046875 0.234375 -0.0625q0.15625 -0.015625 0.375 -0.015625q0.234375 0 0.375 0.015625q0.140625 0.015625 0.21875 0.0625q0.09375 0.03125 0.125 0.09375q0.03125 0.046875 0.03125 0.125l0 4.90625q0.375 -0.375 0.703125 -0.625q0.34375 -0.265625 0.671875 -0.421875q0.328125 -0.15625 0.65625 -0.234375q0.328125 -0.078125 0.703125 -0.078125q0.890625 0 1.515625 0.359375q0.640625 0.359375 1.03125 0.953125q0.40625 0.59375 0.578125 1.40625q0.1875 0.796875 0.1875 1.6875zm-1.59375 0.171875q0 -0.625 -0.09375 -1.21875q-0.09375 -0.59375 -0.328125 -1.046875q-0.234375 -0.453125 -0.625 -0.734375q-0.390625 -0.28125 -0.984375 -0.28125q-0.28125 0 -0.5625 0.09375q-0.28125 0.078125 -0.578125 0.265625q-0.296875 0.1875 -0.609375 0.5q-0.3125 0.296875 -0.671875 0.75l0 3.265625q0.625 0.765625 1.1875 1.15625q0.5625 0.390625 1.171875 0.390625q0.578125 0 0.96875 -0.265625q0.40625 -0.28125 0.65625 -0.71875q0.25 -0.453125 0.359375 -1.015625q0.109375 -0.5625 0.109375 -1.140625zm5.348694 4.03125q0 0.078125 -0.03125 0.140625q-0.03125 0.046875 -0.125 0.078125q-0.078125 0.03125 -0.21875 0.046875q-0.140625 0.015625 -0.375 0.015625q-0.21875 0 -0.375 -0.015625q-0.140625 -0.015625 -0.234375 -0.046875q-0.078125 -0.03125 -0.109375 -0.078125q-0.03125 -0.0625 -0.03125 -0.140625l0 -12.15625q0 -0.078125 0.03125 -0.125q0.03125 -0.0625 0.109375 -0.09375q0.09375 -0.046875 0.234375 -0.0625q0.15625 -0.015625 0.375 -0.015625q0.234375 0 0.375 0.015625q0.140625 0.015625 0.21875 0.0625q0.09375 0.03125 0.125 0.09375q0.03125 0.046875 0.03125 0.125l0 12.15625zm9.781464 -4.453125q0 0.359375 -0.1875 0.515625q-0.171875 0.140625 -0.390625 0.140625l-5.375 0q0 0.6875 0.125 1.234375q0.140625 0.546875 0.453125 0.9375q0.328125 0.390625 0.828125 0.609375q0.515625 0.203125 1.25 0.203125q0.59375 0 1.046875 -0.09375q0.453125 -0.09375 0.78125 -0.203125q0.34375 -0.125 0.546875 -0.21875q0.21875 -0.109375 0.328125 -0.109375q0.0625 0 0.109375 0.03125q0.0625 0.03125 0.078125 0.109375q0.03125 0.0625 0.046875 0.171875q0.015625 0.109375 0.015625 0.28125q0 0.109375 -0.015625 0.203125q0 0.078125 -0.015625 0.15625q-0.015625 0.0625 -0.046875 0.125q-0.03125 0.046875 -0.09375 0.09375q-0.046875 0.046875 -0.296875 0.171875q-0.234375 0.109375 -0.625 0.21875q-0.390625 0.109375 -0.90625 0.1875q-0.515625 0.09375 -1.09375 0.09375q-1.015625 0 -1.78125 -0.28125q-0.765625 -0.28125 -1.28125 -0.828125q-0.515625 -0.5625 -0.78125 -1.390625q-0.265625 -0.84375 -0.265625 -1.96875q0 -1.046875 0.265625 -1.890625q0.28125 -0.84375 0.796875 -1.421875q0.515625 -0.59375 1.234375 -0.90625q0.734375 -0.328125 1.640625 -0.328125q0.96875 0 1.640625 0.3125q0.6875 0.3125 1.125 0.84375q0.4375 0.515625 0.640625 1.234375q0.203125 0.703125 0.203125 1.5l0 0.265625zm-1.515625 -0.4375q0.03125 -1.1875 -0.53125 -1.859375q-0.546875 -0.671875 -1.625 -0.671875q-0.5625 0 -0.984375 0.21875q-0.40625 0.203125 -0.6875 0.546875q-0.28125 0.34375 -0.4375 0.8125q-0.15625 0.453125 -0.171875 0.953125l4.4375 0z"
       fill-rule="nonzero"
       id="path34" />
    <path
       fill="#d9ead3"
       d="m314.37625 96.0l244.75589 0l0 57.826767l-244.75589 0z"
       fill-rule="evenodd"
       id="path36" />
    <path
       stroke="#000000"
       stroke-width="1.0"
       stroke-linejoin="round"
       stroke-linecap="butt"
       d="m314.37625 96.0l244.75589 0l0 57.826767l-244.75589 0z"
       fill-rule="evenodd"
       id="path38" />
    <path
       fill="#000000"
       d="m419.10104 131.599q0 0.078125 -0.046875 0.140625q-0.03125 0.046875 -0.125 0.078125q-0.09375 0.03125 -0.25 0.046875q-0.140625 0.015625 -0.359375 0.015625q-0.234375 0 -0.390625 -0.015625q-0.140625 -0.015625 -0.234375 -0.046875q-0.078125 -0.03125 -0.125 -0.078125q-0.03125 -0.0625 -0.03125 -0.140625l0 -5.2343674l-5.359375 0l0 5.2343674q0 0.078125 -0.046875 0.140625q-0.03125 0.046875 -0.125 0.078125q-0.09375 0.03125 -0.25 0.046875q-0.140625 0.015625 -0.375 0.015625q-0.21875 0 -0.375 -0.015625q-0.140625 -0.015625 -0.234375 -0.046875q-0.09375 -0.03125 -0.140625 -0.078125q-0.03125 -0.0625 -0.03125 -0.140625l0 -11.312492q0 -0.078125 0.03125 -0.125q0.046875 -0.0625 0.140625 -0.09375q0.09375 -0.03125 0.234375 -0.046875q0.15625 -0.03125 0.375 -0.03125q0.234375 0 0.375 0.03125q0.15625 0.015625 0.25 0.046875q0.09375 0.03125 0.125 0.09375q0.046875 0.046875 0.046875 0.125l0 4.71875l5.359375 0l0 -4.71875q0 -0.078125 0.03125 -0.125q0.046875 -0.0625 0.125 -0.09375q0.09375 -0.03125 0.234375 -0.046875q0.15625 -0.03125 0.390625 -0.03125q0.21875 0 0.359375 0.03125q0.15625 0.015625 0.25 0.046875q0.09375 0.03125 0.125 0.09375q0.046875 0.046875 0.046875 0.125l0 11.312492zm9.951843 -4.4531174q0 0.359375 -0.1875 0.515625q-0.171875 0.140625 -0.390625 0.140625l-5.375 0q0 0.6874924 0.125 1.2343674q0.140625 0.546875 0.453125 0.9375q0.328125 0.390625 0.828125 0.609375q0.515625 0.203125 1.25 0.203125q0.59375 0 1.046875 -0.09375q0.453125 -0.09375 0.78125 -0.203125q0.34375 -0.125 0.546875 -0.21875q0.21875 -0.109375 0.328125 -0.109375q0.0625 0 0.109375 0.03125q0.0625 0.03125 0.078125 0.109375q0.03125 0.0625 0.046875 0.171875q0.015625 0.109375 0.015625 0.28125q0 0.109375 -0.015625 0.203125q0 0.078125 -0.015625 0.15625q-0.015625 0.0625 -0.046875 0.125q-0.03125 0.046875 -0.09375 0.09375q-0.046875 0.046875 -0.296875 0.171875q-0.234375 0.109375 -0.625 0.21875q-0.390625 0.109375 -0.90625 0.1875q-0.515625 0.09375 -1.09375 0.09375q-1.015625 0 -1.78125 -0.28125q-0.765625 -0.28125 -1.28125 -0.828125q-0.515625 -0.5625 -0.78125 -1.390625q-0.265625 -0.84375 -0.265625 -1.9687424q0 -1.046875 0.265625 -1.890625q0.28125 -0.84375 0.796875 -1.421875q0.515625 -0.59375 1.234375 -0.90625q0.734375 -0.328125 1.640625 -0.328125q0.96875 0 1.640625 0.3125q0.6875 0.3125 1.125 0.84375q0.4375 0.515625 0.640625 1.234375q0.203125 0.703125 0.203125 1.5l0 0.265625zm-1.515625 -0.4375q0.03125 -1.1875 -0.53125 -1.859375q-0.546875 -0.671875 -1.625 -0.671875q-0.5625 0 -0.984375 0.21875q-0.40625 0.203125 -0.6875 0.546875q-0.28125 0.34375 -0.4375 0.8125q-0.15625 0.453125 -0.171875 0.953125l4.4375 0zm9.970093 4.9062424q0 0.109375 -0.078125 0.171875q-0.0625 0.046875 -0.1875 0.0625q-0.125 0.03125 -0.375 0.03125q-0.234375 0 -0.375 -0.03125q-0.140625 -0.015625 -0.203125 -0.0625q-0.0625 -0.0625 -0.0625 -0.171875l0 -0.8125q-0.546875 0.5625 -1.203125 0.890625q-0.65625 0.3125 -1.390625 0.3125q-0.65625 0 -1.1875 -0.171875q-0.515625 -0.15625 -0.890625 -0.46875q-0.359375 -0.328125 -0.5625 -0.796875q-0.203125 -0.46875 -0.203125 -1.0625q0 -0.6875 0.28125 -1.1875q0.28125 -0.5156174 0.796875 -0.8437424q0.53125 -0.34375 1.296875 -0.515625q0.765625 -0.171875 1.734375 -0.171875l1.125 0l0 -0.640625q0 -0.46875 -0.109375 -0.828125q-0.09375 -0.375 -0.328125 -0.609375q-0.21875 -0.25 -0.578125 -0.359375q-0.34375 -0.125 -0.859375 -0.125q-0.5625 0 -1.0 0.140625q-0.4375 0.125 -0.78125 0.28125q-0.328125 0.15625 -0.546875 0.296875q-0.21875 0.125 -0.328125 0.125q-0.078125 0 -0.140625 -0.03125q-0.046875 -0.046875 -0.09375 -0.109375q-0.03125 -0.078125 -0.0625 -0.1875q-0.015625 -0.125 -0.015625 -0.25q0 -0.234375 0.03125 -0.359375q0.03125 -0.140625 0.15625 -0.25q0.125 -0.125 0.421875 -0.28125q0.3125 -0.171875 0.703125 -0.296875q0.390625 -0.125 0.84375 -0.21875q0.46875 -0.09375 0.953125 -0.09375q0.875 0 1.484375 0.203125q0.625 0.203125 1.0 0.59375q0.390625 0.390625 0.5625 0.96875q0.171875 0.5625 0.171875 1.328125l0 5.5312424zm-1.484375 -3.7499924l-1.28125 0q-0.625 0 -1.078125 0.109375q-0.453125 0.10936737 -0.765625 0.31249237q-0.296875 0.203125 -0.4375 0.5q-0.140625 0.28125 -0.140625 0.65625q0 0.625 0.40625 1.015625q0.40625 0.375 1.140625 0.375q0.59375 0 1.09375 -0.296875q0.5 -0.3125 1.0625 -0.921875l0 -1.7499924zm11.280151 3.7343674q0 0.078125 -0.03125 0.140625q-0.03125 0.046875 -0.109375 0.078125q-0.078125 0.03125 -0.21875 0.046875q-0.125 0.015625 -0.296875 0.015625q-0.203125 0 -0.328125 -0.015625q-0.125 -0.015625 -0.203125 -0.046875q-0.078125 -0.03125 -0.125 -0.078125q-0.03125 -0.0625 -0.03125 -0.140625l0 -1.078125q-0.640625 0.703125 -1.34375 1.09375q-0.703125 0.390625 -1.53125 0.390625q-0.890625 0 -1.53125 -0.34375q-0.640625 -0.359375 -1.046875 -0.953125q-0.390625 -0.59375 -0.578125 -1.390625q-0.171875 -0.8125 -0.171875 -1.7187424q0 -1.046875 0.21875 -1.890625q0.234375 -0.859375 0.671875 -1.453125q0.453125 -0.609375 1.109375 -0.9375q0.671875 -0.328125 1.53125 -0.328125q0.71875 0 1.3125 0.328125q0.609375 0.3125 1.1875 0.921875l0 -4.765625q0 -0.0625 0.03125 -0.125q0.03125 -0.0625 0.125 -0.09375q0.09375 -0.03125 0.234375 -0.046875q0.140625 -0.03125 0.359375 -0.03125q0.21875 0 0.359375 0.03125q0.15625 0.015625 0.234375 0.046875q0.078125 0.03125 0.125 0.09375q0.046875 0.0625 0.046875 0.125l0 12.124992zm-1.515625 -5.7656174q-0.609375 -0.75 -1.1875 -1.140625q-0.5625 -0.40625 -1.1875 -0.40625q-0.5625 0 -0.96875 0.28125q-0.40625 0.265625 -0.65625 0.71875q-0.25 0.4375 -0.359375 1.015625q-0.109375 0.5625 -0.109375 1.140625q0 0.6249924 0.09375 1.2187424q0.09375 0.578125 0.328125 1.046875q0.234375 0.453125 0.625 0.734375q0.390625 0.28125 0.984375 0.28125q0.296875 0 0.578125 -0.078125q0.28125 -0.09375 0.5625 -0.28125q0.296875 -0.1875 0.609375 -0.484375q0.328125 -0.3125 0.6875 -0.765625l0 -3.2812424zm11.286194 1.3125q0 0.359375 -0.1875 0.515625q-0.171875 0.140625 -0.390625 0.140625l-5.375 0q0 0.6874924 0.125 1.2343674q0.140625 0.546875 0.453125 0.9375q0.328125 0.390625 0.828125 0.609375q0.515625 0.203125 1.25 0.203125q0.59375 0 1.046875 -0.09375q0.453125 -0.09375 0.78125 -0.203125q0.34375 -0.125 0.546875 -0.21875q0.21875 -0.109375 0.328125 -0.109375q0.0625 0 0.109375 0.03125q0.0625 0.03125 0.078125 0.109375q0.03125 0.0625 0.046875 0.171875q0.015625 0.109375 0.015625 0.28125q0 0.109375 -0.015625 0.203125q0 0.078125 -0.015625 0.15625q-0.015625 0.0625 -0.046875 0.125q-0.03125 0.046875 -0.09375 0.09375q-0.046875 0.046875 -0.296875 0.171875q-0.234375 0.109375 -0.625 0.21875q-0.390625 0.109375 -0.90625 0.1875q-0.515625 0.09375 -1.09375 0.09375q-1.015625 0 -1.78125 -0.28125q-0.765625 -0.28125 -1.28125 -0.828125q-0.515625 -0.5625 -0.78125 -1.390625q-0.265625 -0.84375 -0.265625 -1.9687424q0 -1.046875 0.265625 -1.890625q0.28125 -0.84375 0.796875 -1.421875q0.515625 -0.59375 1.234375 -0.90625q0.734375 -0.328125 1.640625 -0.328125q0.96875 0 1.640625 0.3125q0.6875 0.3125 1.125 0.84375q0.4375 0.515625 0.640625 1.234375q0.203125 0.703125 0.203125 1.5l0 0.265625zm-1.515625 -0.4375q0.03125 -1.1875 -0.53125 -1.859375q-0.546875 -0.671875 -1.625 -0.671875q-0.5625 0 -0.984375 0.21875q-0.40625 0.203125 -0.6875 0.546875q-0.28125 0.34375 -0.4375 0.8125q-0.15625 0.453125 -0.171875 0.953125l4.4375 0zm8.595093 -2.765625q0 0.203125 -0.015625 0.34375q0 0.125 -0.03125 0.203125q-0.03125 0.078125 -0.078125 0.125q-0.03125 0.046875 -0.109375 0.046875q-0.0625 0 -0.171875 -0.046875q-0.109375 -0.046875 -0.25 -0.078125q-0.125 -0.046875 -0.296875 -0.078125q-0.15625 -0.046875 -0.34375 -0.046875q-0.21875 0 -0.4375 0.09375q-0.21875 0.09375 -0.46875 0.3125q-0.234375 0.203125 -0.5 0.546875q-0.265625 0.34375 -0.59375 0.84375l0 5.3906174q0 0.078125 -0.03125 0.140625q-0.03125 0.046875 -0.125 0.078125q-0.078125 0.03125 -0.21875 0.046875q-0.140625 0.015625 -0.375 0.015625q-0.21875 0 -0.375 -0.015625q-0.140625 -0.015625 -0.234375 -0.046875q-0.078125 -0.03125 -0.109375 -0.078125q-0.03125 -0.0625 -0.03125 -0.140625l0 -8.187492q0 -0.078125 0.03125 -0.125q0.03125 -0.046875 0.109375 -0.09375q0.078125 -0.046875 0.203125 -0.046875q0.140625 -0.015625 0.34375 -0.015625q0.203125 0 0.328125 0.015625q0.140625 0 0.203125 0.046875q0.078125 0.046875 0.109375 0.09375q0.03125 0.046875 0.03125 0.125l0 1.1875q0.34375 -0.484375 0.640625 -0.796875q0.296875 -0.3125 0.546875 -0.484375q0.265625 -0.1875 0.53125 -0.25q0.265625 -0.078125 0.515625 -0.078125q0.125 0 0.265625 0.015625q0.15625 0.015625 0.3125 0.0625q0.171875 0.03125 0.296875 0.078125q0.140625 0.046875 0.1875 0.09375q0.0625 0.046875 0.078125 0.09375q0.03125 0.03125 0.03125 0.09375q0.015625 0.0625 0.015625 0.1875q0.015625 0.125 0.015625 0.328125z"
       fill-rule="nonzero"
       id="path40" />
    <path
       fill="#cfe2f3"
       d="m314.37625 152.0l244.75589 0l0 32.0l-244.75589 0z"
       fill-rule="evenodd"
       id="path42" />
    <path
       stroke="#000000"
       stroke-width="1.0"
       stroke-linejoin="round"
       stroke-linecap="butt"
       d="m314.37625 152.0l244.75589 0l0 32.0l-244.75589 0z"
       fill-rule="evenodd"
       id="path44" />
    <path
       fill="#000000"
       d="m383.15256 163.81062q0 0.171875 -0.015625 0.296875q-0.015625 0.125 -0.0625 0.203125q-0.03125 0.078125 -0.09375 0.125q-0.0625 0.03125 -0.140625 0.03125l-3.3125 0l0 10.21875q0 0.078125 -0.046875 0.140625q-0.03125 0.046875 -0.125 0.078125q-0.078125 0.03125 -0.234375 0.046875q-0.15625 0.015625 -0.375 0.015625q-0.21875 0 -0.375 -0.015625q-0.15625 -0.015625 -0.25 -0.046875q-0.09375 -0.03125 -0.125 -0.078125q-0.03125 -0.0625 -0.03125 -0.140625l0 -10.21875l-3.3125 0q-0.078125 0 -0.140625 -0.03125q-0.0625 -0.046875 -0.09375 -0.125q-0.03125 -0.078125 -0.0625 -0.203125q-0.015625 -0.125 -0.015625 -0.296875q0 -0.171875 0.015625 -0.296875q0.03125 -0.140625 0.0625 -0.21875q0.03125 -0.09375 0.09375 -0.125q0.0625 -0.03125 0.140625 -0.03125l8.1875 0q0.078125 0 0.140625 0.03125q0.0625 0.03125 0.09375 0.125q0.046875 0.078125 0.0625 0.21875q0.015625 0.125 0.015625 0.296875zm11.047028 5.078125q0 1.4375 -0.34375 2.578125q-0.328125 1.140625 -1.0 1.953125q-0.671875 0.8125 -1.6875 1.25q-1.0 0.421875 -2.34375 0.421875q-1.328125 0 -2.3125 -0.390625q-0.96875 -0.40625 -1.609375 -1.15625q-0.625 -0.75 -0.9375 -1.875q-0.296875 -1.125 -0.296875 -2.578125q0 -1.390625 0.328125 -2.53125q0.34375 -1.140625 1.015625 -1.9375q0.671875 -0.796875 1.6875 -1.21875q1.015625 -0.4375 2.359375 -0.4375q1.296875 0 2.265625 0.390625q0.96875 0.390625 1.609375 1.140625q0.640625 0.75 0.953125 1.859375q0.3125 1.109375 0.3125 2.53125zm-1.640625 0.109375q0 -1.0 -0.1875 -1.859375q-0.171875 -0.859375 -0.59375 -1.484375q-0.40625 -0.640625 -1.109375 -1.0q-0.6875 -0.359375 -1.703125 -0.359375q-1.015625 0 -1.71875 0.390625q-0.6875 0.375 -1.125 1.015625q-0.421875 0.640625 -0.609375 1.5q-0.1875 0.84375 -0.1875 1.78125q0 1.03125 0.171875 1.90625q0.171875 0.875 0.578125 1.515625q0.40625 0.625 1.09375 0.984375q0.6875 0.34375 1.734375 0.34375q1.03125 0 1.734375 -0.375q0.703125 -0.390625 1.125 -1.03125q0.421875 -0.65625 0.609375 -1.515625q0.1875 -0.859375 0.1875 -1.8125zm11.993103 4.25q0 0.15625 -0.015625 0.265625q0 0.109375 -0.03125 0.1875q-0.015625 0.078125 -0.0625 0.140625q-0.03125 0.0625 -0.125 0.15625q-0.078125 0.09375 -0.375 0.28125q-0.296875 0.1875 -0.734375 0.375q-0.421875 0.171875 -0.984375 0.28125q-0.5625 0.125 -1.21875 0.125q-1.15625 0 -2.078125 -0.375q-0.921875 -0.390625 -1.578125 -1.125q-0.65625 -0.75 -1.0 -1.84375q-0.34375 -1.109375 -0.34375 -2.53125q0 -1.46875 0.375 -2.609375q0.375 -1.15625 1.046875 -1.953125q0.6875 -0.796875 1.640625 -1.21875q0.953125 -0.421875 2.109375 -0.421875q0.515625 0 1.0 0.109375q0.484375 0.09375 0.890625 0.234375q0.40625 0.140625 0.71875 0.34375q0.328125 0.1875 0.453125 0.3125q0.125 0.109375 0.15625 0.1875q0.03125 0.0625 0.046875 0.15625q0.03125 0.078125 0.046875 0.203125q0.015625 0.109375 0.015625 0.265625q0 0.1875 -0.015625 0.3125q-0.015625 0.125 -0.0625 0.21875q-0.03125 0.078125 -0.078125 0.125q-0.046875 0.046875 -0.125 0.046875q-0.125 0 -0.359375 -0.171875q-0.21875 -0.1875 -0.578125 -0.40625q-0.359375 -0.21875 -0.875 -0.390625q-0.515625 -0.171875 -1.234375 -0.171875q-0.78125 0 -1.4375 0.3125q-0.640625 0.3125 -1.09375 0.921875q-0.453125 0.609375 -0.703125 1.5q-0.25 0.875 -0.25 2.0q0 1.125 0.234375 1.984375q0.25 0.859375 0.703125 1.4375q0.453125 0.578125 1.109375 0.875q0.65625 0.296875 1.484375 0.296875q0.703125 0 1.21875 -0.171875q0.53125 -0.171875 0.890625 -0.390625q0.375 -0.21875 0.609375 -0.390625q0.234375 -0.171875 0.375 -0.171875q0.0625 0 0.109375 0.03125q0.046875 0.015625 0.0625 0.09375q0.03125 0.078125 0.046875 0.21875q0.015625 0.140625 0.015625 0.34375zm12.852753 1.03125q0 0.15625 -0.015625 0.28125q-0.015625 0.125 -0.0625 0.203125q-0.046875 0.078125 -0.109375 0.125q-0.0625 0.03125 -0.125 0.03125l-5.65625 0q-0.21875 0 -0.40625 -0.140625q-0.1875 -0.140625 -0.1875 -0.5l0 -10.515625q0 -0.34375 0.1875 -0.484375q0.1875 -0.140625 0.40625 -0.140625l5.59375 0q0.0625 0 0.125 0.03125q0.0625 0.03125 0.09375 0.125q0.03125 0.078125 0.046875 0.203125q0.03125 0.109375 0.03125 0.296875q0 0.171875 -0.03125 0.296875q-0.015625 0.109375 -0.046875 0.1875q-0.03125 0.078125 -0.09375 0.125q-0.0625 0.03125 -0.125 0.03125l-4.609375 0l0 3.703125l3.953125 0q0.0625 0 0.125 0.046875q0.0625 0.03125 0.09375 0.109375q0.046875 0.0625 0.0625 0.203125q0.015625 0.125 0.015625 0.296875q0 0.15625 -0.015625 0.28125q-0.015625 0.109375 -0.0625 0.1875q-0.03125 0.078125 -0.09375 0.109375q-0.0625 0.03125 -0.125 0.03125l-3.953125 0l0 4.21875l4.671875 0q0.0625 0 0.125 0.03125q0.0625 0.03125 0.109375 0.109375q0.046875 0.078125 0.0625 0.203125q0.015625 0.125 0.015625 0.3125zm9.437622 0.40625q0 0.078125 -0.046875 0.140625q-0.03125 0.046875 -0.109375 0.078125q-0.078125 0.03125 -0.234375 0.046875q-0.140625 0.015625 -0.359375 0.015625q-0.21875 0 -0.375 -0.015625q-0.140625 -0.015625 -0.234375 -0.046875q-0.078125 -0.03125 -0.109375 -0.078125q-0.03125 -0.0625 -0.03125 -0.140625l0 -4.796875q0 -0.703125 -0.109375 -1.125q-0.109375 -0.4375 -0.328125 -0.734375q-0.203125 -0.3125 -0.546875 -0.46875q-0.328125 -0.171875 -0.765625 -0.171875q-0.5625 0 -1.125 0.40625q-0.5625 0.390625 -1.1875 1.171875l0 5.71875q0 0.078125 -0.03125 0.140625q-0.03125 0.046875 -0.125 0.078125q-0.078125 0.03125 -0.21875 0.046875q-0.140625 0.015625 -0.375 0.015625q-0.21875 0 -0.375 -0.015625q-0.140625 -0.015625 -0.234375 -0.046875q-0.078125 -0.03125 -0.109375 -0.078125q-0.03125 -0.0625 -0.03125 -0.140625l0 -8.1875q0 -0.078125 0.03125 -0.125q0.03125 -0.046875 0.109375 -0.09375q0.078125 -0.046875 0.203125 -0.046875q0.140625 -0.015625 0.34375 -0.015625q0.203125 0 0.328125 0.015625q0.140625 0 0.203125 0.046875q0.078125 0.046875 0.109375 0.09375q0.03125 0.046875 0.03125 0.125l0 1.078125q0.6875 -0.765625 1.375 -1.125q0.6875 -0.375 1.390625 -0.375q0.828125 0 1.375 0.28125q0.5625 0.28125 0.90625 0.75q0.359375 0.46875 0.5 1.09375q0.15625 0.609375 0.15625 1.484375l0 5.0zm6.831787 -0.59375q0 0.265625 -0.046875 0.421875q-0.03125 0.15625 -0.109375 0.234375q-0.0625 0.0625 -0.21875 0.125q-0.140625 0.0625 -0.328125 0.09375q-0.1875 0.046875 -0.390625 0.078125q-0.203125 0.03125 -0.421875 0.03125q-0.640625 0 -1.09375 -0.171875q-0.453125 -0.171875 -0.75 -0.5q-0.28125 -0.34375 -0.421875 -0.859375q-0.125 -0.53125 -0.125 -1.25l0 -4.796875l-1.15625 0q-0.125 0 -0.21875 -0.140625q-0.078125 -0.140625 -0.078125 -0.46875q0 -0.171875 0.015625 -0.28125q0.03125 -0.125 0.0625 -0.203125q0.046875 -0.078125 0.09375 -0.109375q0.0625 -0.03125 0.140625 -0.03125l1.140625 0l0 -1.953125q0 -0.0625 0.03125 -0.109375q0.03125 -0.0625 0.109375 -0.109375q0.09375 -0.046875 0.234375 -0.0625q0.15625 -0.015625 0.375 -0.015625q0.21875 0 0.359375 0.015625q0.15625 0.015625 0.234375 0.0625q0.078125 0.046875 0.109375 0.109375q0.046875 0.046875 0.046875 0.109375l0 1.953125l2.109375 0q0.0625 0 0.109375 0.03125q0.0625 0.03125 0.109375 0.109375q0.046875 0.078125 0.0625 0.203125q0.015625 0.109375 0.015625 0.28125q0 0.328125 -0.078125 0.46875q-0.078125 0.140625 -0.21875 0.140625l-2.109375 0l0 4.578125q0 0.84375 0.25 1.28125q0.25 0.4375 0.90625 0.4375q0.203125 0 0.359375 -0.046875q0.171875 -0.046875 0.296875 -0.078125q0.125 -0.046875 0.21875 -0.09375q0.09375 -0.046875 0.171875 -0.046875q0.046875 0 0.078125 0.03125q0.046875 0.015625 0.0625 0.078125q0.03125 0.0625 0.046875 0.171875q0.015625 0.109375 0.015625 0.28125zm6.780365 -7.0625q0 0.203125 -0.015625 0.34375q0 0.125 -0.03125 0.203125q-0.03125 0.078125 -0.078125 0.125q-0.03125 0.046875 -0.109375 0.046875q-0.0625 0 -0.171875 -0.046875q-0.109375 -0.046875 -0.25 -0.078125q-0.125 -0.046875 -0.296875 -0.078125q-0.15625 -0.046875 -0.34375 -0.046875q-0.21875 0 -0.4375 0.09375q-0.21875 0.09375 -0.46875 0.3125q-0.234375 0.203125 -0.5 0.546875q-0.265625 0.34375 -0.59375 0.84375l0 5.390625q0 0.078125 -0.03125 0.140625q-0.03125 0.046875 -0.125 0.078125q-0.078125 0.03125 -0.21875 0.046875q-0.140625 0.015625 -0.375 0.015625q-0.21875 0 -0.375 -0.015625q-0.140625 -0.015625 -0.234375 -0.046875q-0.078125 -0.03125 -0.109375 -0.078125q-0.03125 -0.0625 -0.03125 -0.140625l0 -8.1875q0 -0.078125 0.03125 -0.125q0.03125 -0.046875 0.109375 -0.09375q0.078125 -0.046875 0.203125 -0.046875q0.140625 -0.015625 0.34375 -0.015625q0.203125 0 0.328125 0.015625q0.140625 0 0.203125 0.046875q0.078125 0.046875 0.109375 0.09375q0.03125 0.046875 0.03125 0.125l0 1.1875q0.34375 -0.484375 0.640625 -0.796875q0.296875 -0.3125 0.546875 -0.484375q0.265625 -0.1875 0.53125 -0.25q0.265625 -0.078125 0.515625 -0.078125q0.125 0 0.265625 0.015625q0.15625 0.015625 0.3125 0.0625q0.171875 0.03125 0.296875 0.078125q0.140625 0.046875 0.1875 0.09375q0.0625 0.046875 0.078125 0.09375q0.03125 0.03125 0.03125 0.09375q0.015625 0.0625 0.015625 0.1875q0.015625 0.125 0.015625 0.328125zm5.532837 7.890625l-1.09375 3.015625q-0.046875 0.140625 -0.28125 0.21875q-0.21875 0.078125 -0.671875 0.078125q-0.234375 0 -0.390625 -0.03125q-0.140625 -0.015625 -0.21875 -0.078125q-0.078125 -0.046875 -0.09375 -0.140625q0 -0.078125 0.0625 -0.21875l1.125 -2.84375q-0.078125 -0.03125 -0.15625 -0.109375q-0.078125 -0.09375 -0.09375 -0.1875l-2.9375305 -7.828125q-0.0625 -0.1875 -0.0625 -0.296875q0 -0.109375 0.0625 -0.171875q0.078125 -0.0625 0.234375 -0.078125q0.171875 -0.03125 0.453125 -0.03125q0.265625 0 0.421875 0.015625q0.15628052 0 0.25003052 0.046875q0.09375 0.03125 0.125 0.109375q0.046875 0.0625 0.09375 0.171875l2.34375 6.578125l0.015625 0l2.265625 -6.609375q0.046875 -0.171875 0.125 -0.21875q0.078125 -0.046875 0.234375 -0.0625q0.15625 -0.03125 0.453125 -0.03125q0.25 0 0.40625 0.03125q0.171875 0.015625 0.25 0.078125q0.078125 0.0625 0.078125 0.171875q0 0.109375 -0.046875 0.265625l-2.953125 8.15625zm12.052826 -12.546875q-0.875 1.828125 -1.296875 3.75q-0.421875 1.921875 -0.421875 3.875q0 1.96875 0.421875 3.890625q0.4375 1.921875 1.265625 3.765625q0.046875 0.109375 0.046875 0.1875q0.015625 0.078125 -0.046875 0.125q-0.0625 0.046875 -0.203125 0.0625q-0.125 0.03125 -0.359375 0.03125q-0.15625 0 -0.28125 -0.015625q-0.109375 0 -0.203125 -0.03125q-0.078125 -0.03125 -0.140625 -0.0625q-0.046875 -0.03125 -0.078125 -0.078125q-0.5 -0.9375 -0.875 -1.890625q-0.359375 -0.9375 -0.625 -1.921875q-0.25 -0.984375 -0.375 -1.984375q-0.125 -1.015625 -0.125 -2.046875q0 -1.03125 0.140625 -2.03125q0.140625 -1.0 0.390625 -1.984375q0.265625 -1.0 0.640625 -1.953125q0.375 -0.953125 0.828125 -1.890625q0.015625 -0.046875 0.046875 -0.0625q0.046875 -0.03125 0.125 -0.0625q0.078125 -0.03125 0.203125 -0.03125q0.125 -0.015625 0.328125 -0.015625q0.203125 0 0.328125 0.03125q0.125 0.015625 0.203125 0.0625q0.078125 0.046875 0.078125 0.125q0.015625 0.0625 -0.015625 0.15625zm8.906982 1.4375q0 0.171875 -0.03125 0.296875q-0.015625 0.125 -0.0625 0.203125q-0.03125 0.078125 -0.09375 0.125q-0.0625 0.03125 -0.125 0.03125l-4.3125 0l0 4.0l4.078125 0q0.0625 0 0.109375 0.03125q0.0625 0.03125 0.109375 0.109375q0.046875 0.078125 0.0625 0.203125q0.03125 0.109375 0.03125 0.3125q0 0.171875 -0.03125 0.296875q-0.015625 0.109375 -0.0625 0.1875q-0.046875 0.078125 -0.109375 0.125q-0.046875 0.046875 -0.109375 0.046875l-4.078125 0l0 4.90625q0 0.0625 -0.046875 0.125q-0.03125 0.0625 -0.125 0.09375q-0.09375 0.03125 -0.234375 0.046875q-0.140625 0.015625 -0.390625 0.015625q-0.21875 0 -0.375 -0.015625q-0.140625 -0.015625 -0.234375 -0.046875q-0.09375 -0.03125 -0.140625 -0.09375q-0.03125 -0.0625 -0.03125 -0.125l0 -10.921875q0 -0.34375 0.1875 -0.484375q0.1875 -0.140625 0.40625 -0.140625l5.296875 0q0.0625 0 0.125 0.03125q0.0625 0.03125 0.09375 0.125q0.046875 0.078125 0.0625 0.21875q0.03125 0.125 0.03125 0.296875zm15.197052 10.875q0 0.078125 -0.046875 0.140625q-0.03125 0.046875 -0.125 0.078125q-0.09375 0.03125 -0.234375 0.046875q-0.140625 0.015625 -0.359375 0.015625q-0.21875 0 -0.375 -0.015625q-0.140625 -0.015625 -0.234375 -0.046875q-0.078125 -0.03125 -0.125 -0.078125q-0.03125 -0.0625 -0.03125 -0.140625l0 -10.265625l-0.015625 0l-4.203125 10.3125q-0.015625 0.0625 -0.078125 0.109375q-0.046875 0.046875 -0.140625 0.078125q-0.09375 0.03125 -0.234375 0.03125q-0.125 0.015625 -0.3125 0.015625q-0.1875 0 -0.328125 -0.015625q-0.125 -0.015625 -0.21875 -0.046875q-0.09375 -0.03125 -0.15625 -0.078125q-0.046875 -0.046875 -0.0625 -0.09375l-4.015625 -10.3125l0 0l0 10.265625q0 0.078125 -0.046875 0.140625q-0.03125 0.046875 -0.125 0.078125q-0.09375 0.03125 -0.234375 0.046875q-0.140625 0.015625 -0.375 0.015625q-0.21875 0 -0.375 -0.015625q-0.140625 -0.015625 -0.234375 -0.046875q-0.078125 -0.03125 -0.109375 -0.078125q-0.03125 -0.0625 -0.03125 -0.140625l0 -10.84375q0 -0.375 0.203125 -0.53125q0.203125 -0.171875 0.453125 -0.171875l0.9375 0q0.296875 0 0.515625 0.0625q0.21875 0.046875 0.375 0.171875q0.171875 0.109375 0.28125 0.296875q0.109375 0.171875 0.1875 0.421875l3.421875 8.53125l0.046875 0l3.546875 -8.5q0.109375 -0.28125 0.21875 -0.46875q0.125 -0.1875 0.265625 -0.296875q0.140625 -0.125 0.3125 -0.171875q0.171875 -0.046875 0.390625 -0.046875l1.0 0q0.140625 0 0.25 0.046875q0.125 0.03125 0.21875 0.125q0.09375 0.078125 0.140625 0.21875q0.0625 0.125 0.0625 0.3125l0 10.84375zm10.997589 -1.4375q0 0.15625 -0.015625 0.265625q0 0.109375 -0.03125 0.1875q-0.015625 0.078125 -0.0625 0.140625q-0.03125 0.0625 -0.125 0.15625q-0.078125 0.09375 -0.375 0.28125q-0.296875 0.1875 -0.734375 0.375q-0.421875 0.171875 -0.984375 0.28125q-0.5625 0.125 -1.21875 0.125q-1.15625 0 -2.078125 -0.375q-0.921875 -0.390625 -1.578125 -1.125q-0.65625 -0.75 -1.0 -1.84375q-0.34375 -1.109375 -0.34375 -2.53125q0 -1.46875 0.375 -2.609375q0.375 -1.15625 1.046875 -1.953125q0.6875 -0.796875 1.640625 -1.21875q0.953125 -0.421875 2.109375 -0.421875q0.515625 0 1.0 0.109375q0.484375 0.09375 0.890625 0.234375q0.40625 0.140625 0.71875 0.34375q0.328125 0.1875 0.453125 0.3125q0.125 0.109375 0.15625 0.1875q0.03125 0.0625 0.046875 0.15625q0.03125 0.078125 0.046875 0.203125q0.015625 0.109375 0.015625 0.265625q0 0.1875 -0.015625 0.3125q-0.015625 0.125 -0.0625 0.21875q-0.03125 0.078125 -0.078125 0.125q-0.046875 0.046875 -0.125 0.046875q-0.125 0 -0.359375 -0.171875q-0.21875 -0.1875 -0.578125 -0.40625q-0.359375 -0.21875 -0.875 -0.390625q-0.515625 -0.171875 -1.234375 -0.171875q-0.78125 0 -1.4375 0.3125q-0.640625 0.3125 -1.09375 0.921875q-0.453125 0.609375 -0.703125 1.5q-0.25 0.875 -0.25 2.0q0 1.125 0.234375 1.984375q0.25 0.859375 0.703125 1.4375q0.453125 0.578125 1.109375 0.875q0.65625 0.296875 1.484375 0.296875q0.703125 0 1.21875 -0.171875q0.53125 -0.171875 0.890625 -0.390625q0.375 -0.21875 0.609375 -0.390625q0.234375 -0.171875 0.375 -0.171875q0.0625 0 0.109375 0.03125q0.046875 0.015625 0.0625 0.09375q0.03125 0.078125 0.046875 0.21875q0.015625 0.140625 0.015625 0.34375zm4.947571 -3.21875q0 1.03125 -0.125 2.046875q-0.125 1.0 -0.390625 1.984375q-0.25 0.984375 -0.625 1.921875q-0.359375 0.953125 -0.859375 1.890625q-0.03125 0.046875 -0.078125 0.078125q-0.046875 0.03125 -0.140625 0.0625q-0.09375 0.03125 -0.21875 0.03125q-0.109375 0.015625 -0.265625 0.015625q-0.234375 0 -0.375 -0.03125q-0.125 -0.015625 -0.1875 -0.0625q-0.0625 -0.046875 -0.0625 -0.125q0.015625 -0.078125 0.0625 -0.1875q0.828125 -1.84375 1.25 -3.765625q0.4375 -1.921875 0.4375 -3.890625q0 -1.953125 -0.4375 -3.875q-0.421875 -1.921875 -1.28125 -3.75q-0.03125 -0.09375 -0.03125 -0.15625q0.015625 -0.078125 0.09375 -0.125q0.078125 -0.046875 0.203125 -0.0625q0.125 -0.03125 0.328125 -0.03125q0.203125 0 0.328125 0.015625q0.125 0 0.203125 0.03125q0.078125 0.03125 0.109375 0.0625q0.03125 0.015625 0.0625 0.0625q0.9375 1.859375 1.46875 3.84375q0.53125 1.96875 0.53125 4.015625z"
       fill-rule="nonzero"
       id="path46" />
    <path
       fill="#cfe2f3"
       d="m314.37625 184.0l244.75589 0l0 32.0l-244.75589 0z"
       fill-rule="evenodd"
       id="path48" />
    <path
       stroke="#000000"
       stroke-width="1.0"
       stroke-linejoin="round"
       stroke-linecap="butt"
       d="m314.37625 184.0l244.75589 0l0 32.0l-244.75589 0z"
       fill-rule="evenodd"
       id="path50" />
    <path
       fill="#000000"
       d="m390.86838 195.81062q0 0.171875 -0.015625 0.296875q-0.015625 0.125 -0.0625 0.203125q-0.03125 0.078125 -0.09375 0.125q-0.0625 0.03125 -0.140625 0.03125l-3.3125 0l0 10.21875q0 0.078125 -0.046875 0.140625q-0.03125 0.046875 -0.125 0.078125q-0.078125 0.03125 -0.234375 0.046875q-0.15625 0.015625 -0.375 0.015625q-0.21875 0 -0.375 -0.015625q-0.15625 -0.015625 -0.25 -0.046875q-0.09375 -0.03125 -0.125 -0.078125q-0.03125 -0.0625 -0.03125 -0.140625l0 -10.21875l-3.3125 0q-0.078125 0 -0.140625 -0.03125q-0.0625 -0.046875 -0.09375 -0.125q-0.03125 -0.078125 -0.0625 -0.203125q-0.015625 -0.125 -0.015625 -0.296875q0 -0.171875 0.015625 -0.296875q0.03125 -0.140625 0.0625 -0.21875q0.03125 -0.09375 0.09375 -0.125q0.0625 -0.03125 0.140625 -0.03125l8.1875 0q0.078125 0 0.140625 0.03125q0.0625 0.03125 0.09375 0.125q0.046875 0.078125 0.0625 0.21875q0.015625 0.125 0.015625 0.296875zm11.046997 5.078125q0 1.4375 -0.34375 2.578125q-0.328125 1.140625 -1.0 1.953125q-0.671875 0.8125 -1.6875 1.25q-1.0 0.421875 -2.34375 0.421875q-1.328125 0 -2.3125 -0.390625q-0.96875 -0.40625 -1.609375 -1.15625q-0.625 -0.75 -0.9375 -1.875q-0.296875 -1.125 -0.296875 -2.578125q0 -1.390625 0.328125 -2.53125q0.34375 -1.140625 1.015625 -1.9375q0.671875 -0.796875 1.6875 -1.21875q1.015625 -0.4375 2.359375 -0.4375q1.296875 0 2.265625 0.390625q0.96875 0.390625 1.609375 1.140625q0.640625 0.75 0.953125 1.859375q0.3125 1.109375 0.3125 2.53125zm-1.640625 0.109375q0 -1.0 -0.1875 -1.859375q-0.171875 -0.859375 -0.59375 -1.484375q-0.40625 -0.640625 -1.109375 -1.0q-0.6875 -0.359375 -1.703125 -0.359375q-1.015625 0 -1.71875 0.390625q-0.6875 0.375 -1.125 1.015625q-0.421875 0.640625 -0.609375 1.5q-0.1875 0.84375 -0.1875 1.78125q0 1.03125 0.171875 1.90625q0.171875 0.875 0.578125 1.515625q0.40625 0.625 1.09375 0.984375q0.6875 0.34375 1.734375 0.34375q1.03125 0 1.734375 -0.375q0.703125 -0.390625 1.125 -1.03125q0.421875 -0.65625 0.609375 -1.515625q0.1875 -0.859375 0.1875 -1.8125zm11.993103 4.25q0 0.15625 -0.015625 0.265625q0 0.109375 -0.03125 0.1875q-0.015625 0.078125 -0.0625 0.140625q-0.03125 0.0625 -0.125 0.15625q-0.078125 0.09375 -0.375 0.28125q-0.296875 0.1875 -0.734375 0.375q-0.421875 0.171875 -0.984375 0.28125q-0.5625 0.125 -1.21875 0.125q-1.15625 0 -2.078125 -0.375q-0.921875 -0.390625 -1.578125 -1.125q-0.65625 -0.75 -1.0 -1.84375q-0.34375 -1.109375 -0.34375 -2.53125q0 -1.46875 0.375 -2.609375q0.375 -1.15625 1.046875 -1.953125q0.6875 -0.796875 1.640625 -1.21875q0.953125 -0.421875 2.109375 -0.421875q0.515625 0 1.0 0.109375q0.484375 0.09375 0.890625 0.234375q0.40625 0.140625 0.71875 0.34375q0.328125 0.1875 0.453125 0.3125q0.125 0.109375 0.15625 0.1875q0.03125 0.0625 0.046875 0.15625q0.03125 0.078125 0.046875 0.203125q0.015625 0.109375 0.015625 0.265625q0 0.1875 -0.015625 0.3125q-0.015625 0.125 -0.0625 0.21875q-0.03125 0.078125 -0.078125 0.125q-0.046875 0.046875 -0.125 0.046875q-0.125 0 -0.359375 -0.171875q-0.21875 -0.1875 -0.578125 -0.40625q-0.359375 -0.21875 -0.875 -0.390625q-0.515625 -0.171875 -1.234375 -0.171875q-0.78125 0 -1.4375 0.3125q-0.640625 0.3125 -1.09375 0.921875q-0.453125 0.609375 -0.703125 1.5q-0.25 0.875 -0.25 2.0q0 1.125 0.234375 1.984375q0.25 0.859375 0.703125 1.4375q0.453125 0.578125 1.109375 0.875q0.65625 0.296875 1.484375 0.296875q0.703125 0 1.21875 -0.171875q0.53125 -0.171875 0.890625 -0.390625q0.375 -0.21875 0.609375 -0.390625q0.234375 -0.171875 0.375 -0.171875q0.0625 0 0.109375 0.03125q0.046875 0.015625 0.0625 0.09375q0.03125 0.078125 0.046875 0.21875q0.015625 0.140625 0.015625 0.34375zm12.852783 1.03125q0 0.15625 -0.015625 0.28125q-0.015625 0.125 -0.0625 0.203125q-0.046875 0.078125 -0.109375 0.125q-0.0625 0.03125 -0.125 0.03125l-5.65625 0q-0.21875 0 -0.40625 -0.140625q-0.1875 -0.140625 -0.1875 -0.5l0 -10.515625q0 -0.34375 0.1875 -0.484375q0.1875 -0.140625 0.40625 -0.140625l5.59375 0q0.0625 0 0.125 0.03125q0.0625 0.03125 0.09375 0.125q0.03125 0.078125 0.046875 0.203125q0.03125 0.109375 0.03125 0.296875q0 0.171875 -0.03125 0.296875q-0.015625 0.109375 -0.046875 0.1875q-0.03125 0.078125 -0.09375 0.125q-0.0625 0.03125 -0.125 0.03125l-4.609375 0l0 3.703125l3.953125 0q0.0625 0 0.125 0.046875q0.0625 0.03125 0.09375 0.109375q0.046875 0.0625 0.0625 0.203125q0.015625 0.125 0.015625 0.296875q0 0.15625 -0.015625 0.28125q-0.015625 0.109375 -0.0625 0.1875q-0.03125 0.078125 -0.09375 0.109375q-0.0625 0.03125 -0.125 0.03125l-3.953125 0l0 4.21875l4.671875 0q0.0625 0 0.125 0.03125q0.0625 0.03125 0.109375 0.109375q0.046875 0.078125 0.0625 0.203125q0.015625 0.125 0.015625 0.3125zm9.437622 0.40625q0 0.078125 -0.046875 0.140625q-0.03125 0.046875 -0.109375 0.078125q-0.078125 0.03125 -0.234375 0.046875q-0.140625 0.015625 -0.359375 0.015625q-0.21875 0 -0.375 -0.015625q-0.140625 -0.015625 -0.234375 -0.046875q-0.078125 -0.03125 -0.109375 -0.078125q-0.03125 -0.0625 -0.03125 -0.140625l0 -4.796875q0 -0.703125 -0.109375 -1.125q-0.109375 -0.4375 -0.328125 -0.734375q-0.203125 -0.3125 -0.546875 -0.46875q-0.328125 -0.171875 -0.765625 -0.171875q-0.5625 0 -1.125 0.40625q-0.5625 0.390625 -1.1875 1.171875l0 5.71875q0 0.078125 -0.03125 0.140625q-0.03125 0.046875 -0.125 0.078125q-0.078125 0.03125 -0.21875 0.046875q-0.140625 0.015625 -0.375 0.015625q-0.21875 0 -0.375 -0.015625q-0.140625 -0.015625 -0.234375 -0.046875q-0.078125 -0.03125 -0.109375 -0.078125q-0.03125 -0.0625 -0.03125 -0.140625l0 -8.1875q0 -0.078125 0.03125 -0.125q0.03125 -0.046875 0.109375 -0.09375q0.078125 -0.046875 0.203125 -0.046875q0.140625 -0.015625 0.34375 -0.015625q0.203125 0 0.328125 0.015625q0.140625 0 0.203125 0.046875q0.078125 0.046875 0.109375 0.09375q0.03125 0.046875 0.03125 0.125l0 1.078125q0.6875 -0.765625 1.375 -1.125q0.6875 -0.375 1.390625 -0.375q0.828125 0 1.375 0.28125q0.5625 0.28125 0.90625 0.75q0.359375 0.46875 0.5 1.09375q0.15625 0.609375 0.15625 1.484375l0 5.0zm6.8317566 -0.59375q0 0.265625 -0.046875 0.421875q-0.03125 0.15625 -0.109375 0.234375q-0.0625 0.0625 -0.21875 0.125q-0.140625 0.0625 -0.328125 0.09375q-0.1875 0.046875 -0.390625 0.078125q-0.203125 0.03125 -0.421875 0.03125q-0.640625 0 -1.09375 -0.171875q-0.453125 -0.171875 -0.75 -0.5q-0.28125 -0.34375 -0.421875 -0.859375q-0.125 -0.53125 -0.125 -1.25l0 -4.796875l-1.15625 0q-0.125 0 -0.21875 -0.140625q-0.078125 -0.140625 -0.078125 -0.46875q0 -0.171875 0.015625 -0.28125q0.03125 -0.125 0.0625 -0.203125q0.046875 -0.078125 0.09375 -0.109375q0.0625 -0.03125 0.140625 -0.03125l1.140625 0l0 -1.953125q0 -0.0625 0.03125 -0.109375q0.03125 -0.0625 0.109375 -0.109375q0.09375 -0.046875 0.234375 -0.0625q0.15625 -0.015625 0.375 -0.015625q0.21875 0 0.359375 0.015625q0.15625 0.015625 0.234375 0.0625q0.078125 0.046875 0.109375 0.109375q0.046875 0.046875 0.046875 0.109375l0 1.953125l2.109375 0q0.0625 0 0.109375 0.03125q0.0625 0.03125 0.109375 0.109375q0.046875 0.078125 0.0625 0.203125q0.015625 0.109375 0.015625 0.28125q0 0.328125 -0.078125 0.46875q-0.078125 0.140625 -0.21875 0.140625l-2.109375 0l0 4.578125q0 0.84375 0.25 1.28125q0.25 0.4375 0.90625 0.4375q0.203125 0 0.359375 -0.046875q0.171875 -0.046875 0.296875 -0.078125q0.125 -0.046875 0.21875 -0.09375q0.09375 -0.046875 0.171875 -0.046875q0.046875 0 0.078125 0.03125q0.046875 0.015625 0.0625 0.078125q0.03125 0.0625 0.046875 0.171875q0.015625 0.109375 0.015625 0.28125zm6.780365 -7.0625q0 0.203125 -0.015625 0.34375q0 0.125 -0.03125 0.203125q-0.03125 0.078125 -0.078125 0.125q-0.03125 0.046875 -0.109375 0.046875q-0.0625 0 -0.171875 -0.046875q-0.109375 -0.046875 -0.25 -0.078125q-0.125 -0.046875 -0.296875 -0.078125q-0.15625 -0.046875 -0.34375 -0.046875q-0.21875 0 -0.4375 0.09375q-0.21875 0.09375 -0.46875 0.3125q-0.234375 0.203125 -0.5 0.546875q-0.265625 0.34375 -0.59375 0.84375l0 5.390625q0 0.078125 -0.03125 0.140625q-0.03125 0.046875 -0.125 0.078125q-0.078125 0.03125 -0.21875 0.046875q-0.140625 0.015625 -0.375 0.015625q-0.21875 0 -0.375 -0.015625q-0.140625 -0.015625 -0.234375 -0.046875q-0.078125 -0.03125 -0.109375 -0.078125q-0.03125 -0.0625 -0.03125 -0.140625l0 -8.1875q0 -0.078125 0.03125 -0.125q0.03125 -0.046875 0.109375 -0.09375q0.078125 -0.046875 0.203125 -0.046875q0.140625 -0.015625 0.34375 -0.015625q0.203125 0 0.328125 0.015625q0.140625 0 0.203125 0.046875q0.078125 0.046875 0.109375 0.09375q0.03125 0.046875 0.03125 0.125l0 1.1875q0.34375 -0.484375 0.640625 -0.796875q0.296875 -0.3125 0.546875 -0.484375q0.265625 -0.1875 0.53125 -0.25q0.265625 -0.078125 0.515625 -0.078125q0.125 0 0.265625 0.015625q0.15625 0.015625 0.3125 0.0625q0.171875 0.03125 0.296875 0.078125q0.140625 0.046875 0.1875 0.09375q0.0625 0.046875 0.078125 0.09375q0.03125 0.03125 0.03125 0.09375q0.015625 0.0625 0.015625 0.1875q0.015625 0.125 0.015625 0.328125zm5.532837 7.890625l-1.09375 3.015625q-0.046875 0.140625 -0.28125 0.21875q-0.21875 0.078125 -0.671875 0.078125q-0.234375 0 -0.390625 -0.03125q-0.140625 -0.015625 -0.21875 -0.078125q-0.078125 -0.046875 -0.09375 -0.140625q0 -0.078125 0.0625 -0.21875l1.125 -2.84375q-0.078125 -0.03125 -0.15625 -0.109375q-0.078125 -0.09375 -0.09375 -0.1875l-2.9375 -7.828125q-0.0625 -0.1875 -0.0625 -0.296875q0 -0.109375 0.0625 -0.171875q0.078125 -0.0625 0.234375 -0.078125q0.171875 -0.03125 0.453125 -0.03125q0.265625 0 0.421875 0.015625q0.15625 0 0.25 0.046875q0.09375 0.03125 0.125 0.109375q0.046875 0.0625 0.09375 0.171875l2.34375 6.578125l0.015625 0l2.265625 -6.609375q0.046875 -0.171875 0.125 -0.21875q0.078125 -0.046875 0.234375 -0.0625q0.15625 -0.03125 0.453125 -0.03125q0.25 0 0.40625 0.03125q0.171875 0.015625 0.25 0.078125q0.078125 0.0625 0.078125 0.171875q0 0.109375 -0.046875 0.265625l-2.953125 8.15625zm12.052826 -12.546875q-0.875 1.828125 -1.296875 3.75q-0.421875 1.921875 -0.421875 3.875q0 1.96875 0.421875 3.890625q0.4375 1.921875 1.265625 3.765625q0.046875 0.109375 0.046875 0.1875q0.015625 0.078125 -0.046875 0.125q-0.0625 0.046875 -0.203125 0.0625q-0.125 0.03125 -0.359375 0.03125q-0.15625 0 -0.28125 -0.015625q-0.109375 0 -0.203125 -0.03125q-0.078125 -0.03125 -0.140625 -0.0625q-0.046875 -0.03125 -0.078125 -0.078125q-0.5 -0.9375 -0.875 -1.890625q-0.359375 -0.9375 -0.625 -1.921875q-0.25 -0.984375 -0.375 -1.984375q-0.125 -1.015625 -0.125 -2.046875q0 -1.03125 0.140625 -2.03125q0.140625 -1.0 0.390625 -1.984375q0.265625 -1.0 0.640625 -1.953125q0.375 -0.953125 0.828125 -1.890625q0.015625 -0.046875 0.046875 -0.0625q0.046875 -0.03125 0.125 -0.0625q0.078125 -0.03125 0.203125 -0.03125q0.125 -0.015625 0.328125 -0.015625q0.203125 0 0.328125 0.03125q0.125 0.015625 0.203125 0.0625q0.078125 0.046875 0.078125 0.125q0.015625 0.0625 -0.015625 0.15625zm10.563232 12.3125q0 0.078125 -0.03125 0.140625q-0.015625 0.046875 -0.109375 0.078125q-0.09375 0.03125 -0.265625 0.046875q-0.15625 0.015625 -0.421875 0.015625q-0.234375 0 -0.390625 -0.015625q-0.15625 -0.015625 -0.25 -0.046875q-0.078125 -0.046875 -0.140625 -0.109375q-0.046875 -0.078125 -0.078125 -0.1875l-1.078125 -2.78125q-0.203125 -0.484375 -0.40625 -0.875q-0.203125 -0.390625 -0.484375 -0.671875q-0.28125 -0.296875 -0.671875 -0.453125q-0.375 -0.15625 -0.90625 -0.15625l-1.046875 0l0 5.015625q0 0.078125 -0.046875 0.140625q-0.046875 0.046875 -0.140625 0.078125q-0.078125 0.03125 -0.234375 0.046875q-0.140625 0.015625 -0.375 0.015625q-0.21875 0 -0.375 -0.015625q-0.140625 -0.015625 -0.234375 -0.046875q-0.09375 -0.03125 -0.140625 -0.078125q-0.03125 -0.0625 -0.03125 -0.140625l0 -10.921875q0 -0.34375 0.1875 -0.484375q0.1875 -0.140625 0.40625 -0.140625l2.5 0q0.4375 0 0.734375 0.03125q0.296875 0.015625 0.546875 0.03125q0.671875 0.125 1.1875 0.375q0.53125 0.25 0.890625 0.65625q0.359375 0.390625 0.53125 0.890625q0.1875 0.5 0.1875 1.109375q0 0.59375 -0.171875 1.0625q-0.15625 0.46875 -0.453125 0.828125q-0.296875 0.359375 -0.71875 0.625q-0.421875 0.265625 -0.9375 0.453125q0.28125 0.125 0.515625 0.328125q0.25 0.1875 0.453125 0.46875q0.203125 0.265625 0.375 0.625q0.1875 0.359375 0.375 0.796875l1.0625 2.59375q0.125 0.328125 0.15625 0.46875q0.03125 0.125 0.03125 0.203125zm-2.359375 -8.28125q0 -0.6875 -0.3125 -1.171875q-0.296875 -0.484375 -1.03125 -0.6875q-0.21875 -0.0625 -0.515625 -0.09375q-0.28125 -0.03125 -0.75 -0.03125l-1.3125 0l0 3.984375l1.53125 0q0.609375 0 1.0625 -0.15625q0.453125 -0.15625 0.75 -0.421875q0.296875 -0.265625 0.4375 -0.625q0.140625 -0.375 0.140625 -0.796875zm11.838104 -2.59375q0 0.171875 -0.015625 0.296875q-0.015625 0.125 -0.0625 0.203125q-0.03125 0.078125 -0.09375 0.125q-0.0625 0.03125 -0.140625 0.03125l-3.3125 0l0 10.21875q0 0.078125 -0.046875 0.140625q-0.03125 0.046875 -0.125 0.078125q-0.078125 0.03125 -0.234375 0.046875q-0.15625 0.015625 -0.375 0.015625q-0.21875 0 -0.375 -0.015625q-0.15625 -0.015625 -0.25 -0.046875q-0.09375 -0.03125 -0.125 -0.078125q-0.03125 -0.0625 -0.03125 -0.140625l0 -10.21875l-3.3125 0q-0.078125 0 -0.140625 -0.03125q-0.0625 -0.046875 -0.09375 -0.125q-0.03125 -0.078125 -0.0625 -0.203125q-0.015625 -0.125 -0.015625 -0.296875q0 -0.171875 0.015625 -0.296875q0.03125 -0.140625 0.0625 -0.21875q0.03125 -0.09375 0.09375 -0.125q0.0625 -0.03125 0.140625 -0.03125l8.1875 0q0.078125 0 0.140625 0.03125q0.0625 0.03125 0.09375 0.125q0.046875 0.078125 0.0625 0.21875q0.015625 0.125 0.015625 0.296875zm4.575653 6.21875q0 1.03125 -0.125 2.046875q-0.125 1.0 -0.390625 1.984375q-0.25 0.984375 -0.625 1.921875q-0.359375 0.953125 -0.859375 1.890625q-0.03125 0.046875 -0.078125 0.078125q-0.046875 0.03125 -0.140625 0.0625q-0.09375 0.03125 -0.21875 0.03125q-0.109375 0.015625 -0.265625 0.015625q-0.234375 0 -0.375 -0.03125q-0.125 -0.015625 -0.1875 -0.0625q-0.0625 -0.046875 -0.0625 -0.125q0.015625 -0.078125 0.0625 -0.1875q0.828125 -1.84375 1.25 -3.765625q0.4375 -1.921875 0.4375 -3.890625q0 -1.953125 -0.4375 -3.875q-0.421875 -1.921875 -1.28125 -3.75q-0.03125 -0.09375 -0.03125 -0.15625q0.015625 -0.078125 0.09375 -0.125q0.078125 -0.046875 0.203125 -0.0625q0.125 -0.03125 0.328125 -0.03125q0.203125 0 0.328125 0.015625q0.125 0 0.203125 0.03125q0.078125 0.03125 0.109375 0.0625q0.03125 0.015625 0.0625 0.0625q0.9375 1.859375 1.46875 3.84375q0.53125 1.96875 0.53125 4.015625z"
       fill-rule="nonzero"
       id="path52" />
    <path
       fill="#d9d2e9"
       d="m314.37625 216.0l244.75589 0l0 112.0l-244.75589 0z"
       fill-rule="evenodd"
       id="path54" />
    <path
       stroke="#000000"
       stroke-width="1.0"
       stroke-linejoin="round"
       stroke-linecap="butt"
       d="m314.37625 216.0l244.75589 0l0 112.0l-244.75589 0z"
       fill-rule="evenodd"
       id="path56" />
    <path
       fill="#000000"
       d="m427.28464 267.8106q0 0.171875 -0.03125 0.296875q-0.015625 0.125 -0.0625 0.203125q-0.03125 0.078125 -0.09375 0.125q-0.0625 0.03125 -0.125 0.03125l-4.3125 0l0 4.0l4.078125 0q0.0625 0 0.109375 0.03125q0.0625 0.03125 0.109375 0.109375q0.046875 0.078125 0.0625 0.203125q0.03125 0.109375 0.03125 0.3125q0 0.171875 -0.03125 0.296875q-0.015625 0.109375 -0.0625 0.1875q-0.046875 0.078125 -0.109375 0.125q-0.046875 0.046875 -0.109375 0.046875l-4.078125 0l0 4.90625q0 0.0625 -0.046875 0.125q-0.03125 0.0625 -0.125 0.09375q-0.09375 0.03125 -0.234375 0.046875q-0.140625 0.015625 -0.390625 0.015625q-0.21875 0 -0.375 -0.015625q-0.140625 -0.015625 -0.234375 -0.046875q-0.09375 -0.03125 -0.140625 -0.09375q-0.03125 -0.0625 -0.03125 -0.125l0 -10.921875q0 -0.34375 0.1875 -0.484375q0.1875 -0.140625 0.40625 -0.140625l5.296875 0q0.0625 0 0.125 0.03125q0.0625 0.03125 0.09375 0.125q0.046875 0.078125 0.0625 0.21875q0.03125 0.125 0.03125 0.296875zm15.197052 10.875q0 0.078125 -0.046875 0.140625q-0.03125 0.046875 -0.125 0.078125q-0.09375 0.03125 -0.234375 0.046875q-0.140625 0.015625 -0.359375 0.015625q-0.21875 0 -0.375 -0.015625q-0.140625 -0.015625 -0.234375 -0.046875q-0.078125 -0.03125 -0.125 -0.078125q-0.03125 -0.0625 -0.03125 -0.140625l0 -10.265625l-0.015625 0l-4.203125 10.3125q-0.015625 0.0625 -0.078125 0.109375q-0.046875 0.046875 -0.140625 0.078125q-0.09375 0.03125 -0.234375 0.03125q-0.125 0.015625 -0.3125 0.015625q-0.1875 0 -0.328125 -0.015625q-0.125 -0.015625 -0.21875 -0.046875q-0.09375 -0.03125 -0.15625 -0.078125q-0.046875 -0.046875 -0.0625 -0.09375l-4.015625 -10.3125l0 0l0 10.265625q0 0.078125 -0.046875 0.140625q-0.03125 0.046875 -0.125 0.078125q-0.09375 0.03125 -0.234375 0.046875q-0.140625 0.015625 -0.375 0.015625q-0.21875 0 -0.375 -0.015625q-0.140625 -0.015625 -0.234375 -0.046875q-0.078125 -0.03125 -0.109375 -0.078125q-0.03125 -0.0625 -0.03125 -0.140625l0 -10.84375q0 -0.375 0.203125 -0.53125q0.203125 -0.171875 0.453125 -0.171875l0.9375 0q0.296875 0 0.515625 0.0625q0.21875 0.046875 0.375 0.171875q0.171875 0.109375 0.28125 0.296875q0.109375 0.171875 0.1875 0.421875l3.421875 8.53125l0.046875 0l3.546875 -8.5q0.109375 -0.28125 0.21875 -0.46875q0.125 -0.1875 0.265625 -0.296875q0.140625 -0.125 0.3125 -0.171875q0.171875 -0.046875 0.390625 -0.046875l1.0 0q0.140625 0 0.25 0.046875q0.125 0.03125 0.21875 0.125q0.09375 0.078125 0.140625 0.21875q0.0625 0.125 0.0625 0.3125l0 10.84375zm10.99762 -1.4375q0 0.15625 -0.015625 0.265625q0 0.109375 -0.03125 0.1875q-0.015625 0.078125 -0.0625 0.140625q-0.03125 0.0625 -0.125 0.15625q-0.078125 0.09375 -0.375 0.28125q-0.296875 0.1875 -0.734375 0.375q-0.421875 0.171875 -0.984375 0.28125q-0.5625 0.125 -1.21875 0.125q-1.15625 0 -2.078125 -0.375q-0.921875 -0.390625 -1.578125 -1.125q-0.65625 -0.75 -1.0 -1.84375q-0.34375 -1.109375 -0.34375 -2.53125q0 -1.46875 0.375 -2.609375q0.375 -1.15625 1.046875 -1.953125q0.6875 -0.796875 1.640625 -1.21875q0.953125 -0.421875 2.109375 -0.421875q0.515625 0 1.0 0.109375q0.484375 0.09375 0.890625 0.234375q0.40625 0.140625 0.71875 0.34375q0.328125 0.1875 0.453125 0.3125q0.125 0.109375 0.15625 0.1875q0.03125 0.0625 0.046875 0.15625q0.03125 0.078125 0.046875 0.203125q0.015625 0.109375 0.015625 0.265625q0 0.1875 -0.015625 0.3125q-0.015625 0.125 -0.0625 0.21875q-0.03125 0.078125 -0.078125 0.125q-0.046875 0.046875 -0.125 0.046875q-0.125 0 -0.359375 -0.171875q-0.21875 -0.1875 -0.578125 -0.40625q-0.359375 -0.21875 -0.875 -0.390625q-0.515625 -0.171875 -1.234375 -0.171875q-0.78125 0 -1.4375 0.3125q-0.640625 0.3125 -1.09375 0.921875q-0.453125 0.609375 -0.703125 1.5q-0.25 0.875 -0.25 2.0q0 1.125 0.234375 1.984375q0.25 0.859375 0.703125 1.4375q0.453125 0.578125 1.109375 0.875q0.65625 0.296875 1.484375 0.296875q0.703125 0 1.21875 -0.171875q0.53125 -0.171875 0.890625 -0.390625q0.375 -0.21875 0.609375 -0.390625q0.234375 -0.171875 0.375 -0.171875q0.0625 0 0.109375 0.03125q0.046875 0.015625 0.0625 0.09375q0.03125 0.078125 0.046875 0.21875q0.015625 0.140625 0.015625 0.34375z"
       fill-rule="nonzero"
       id="path58" />
    <path
       fill="#d9d2e9"
       d="m314.37625 328.0l244.75589 0l0 208.0l-244.75589 0z"
       fill-rule="evenodd"
       id="path60" />
    <path
       stroke="#000000"
       stroke-width="1.0"
       stroke-linejoin="round"
       stroke-linecap="butt"
       d="m314.37625 328.0l244.75589 0l0 208.0l-244.75589 0z"
       fill-rule="evenodd"
       id="path62" />
    <path
       fill="#000000"
       d="m436.6567 438.6856q0 0.078125 -0.03125 0.140625q-0.015625 0.046875 -0.109375 0.078125q-0.09375 0.03125 -0.265625 0.046875q-0.15625 0.015625 -0.421875 0.015625q-0.234375 0 -0.390625 -0.015625q-0.15625 -0.015625 -0.25 -0.046875q-0.078125 -0.046875 -0.140625 -0.109375q-0.046875 -0.078125 -0.078125 -0.1875l-1.078125 -2.78125q-0.203125 -0.484375 -0.40625 -0.875q-0.203125 -0.390625 -0.484375 -0.671875q-0.28125 -0.296875 -0.671875 -0.453125q-0.375 -0.15625 -0.90625 -0.15625l-1.046875 0l0 5.015625q0 0.078125 -0.046875 0.140625q-0.046875 0.046875 -0.140625 0.078125q-0.078125 0.03125 -0.234375 0.046875q-0.140625 0.015625 -0.375 0.015625q-0.21875 0 -0.375 -0.015625q-0.140625 -0.015625 -0.234375 -0.046875q-0.09375 -0.03125 -0.140625 -0.078125q-0.03125 -0.0625 -0.03125 -0.140625l0 -10.921875q0 -0.34375 0.1875 -0.484375q0.1875 -0.140625 0.40625 -0.140625l2.5 0q0.4375 0 0.734375 0.03125q0.296875 0.015625 0.546875 0.03125q0.671875 0.125 1.1875 0.375q0.53125 0.25 0.890625 0.65625q0.359375 0.390625 0.53125 0.890625q0.1875 0.5 0.1875 1.109375q0 0.59375 -0.171875 1.0625q-0.15625 0.46875 -0.453125 0.828125q-0.296875 0.359375 -0.71875 0.625q-0.421875 0.265625 -0.9375 0.453125q0.28125 0.125 0.515625 0.328125q0.25 0.1875 0.453125 0.46875q0.203125 0.265625 0.375 0.625q0.1875 0.359375 0.375 0.796875l1.0625 2.59375q0.125 0.328125 0.15625 0.46875q0.03125 0.125 0.03125 0.203125zm-2.359375 -8.28125q0 -0.6875 -0.3125 -1.171875q-0.296875 -0.484375 -1.03125 -0.6875q-0.21875 -0.0625 -0.515625 -0.09375q-0.28125 -0.03125 -0.75 -0.03125l-1.3125 0l0 3.984375l1.53125 0q0.609375 0 1.0625 -0.15625q0.453125 -0.15625 0.75 -0.421875q0.296875 -0.265625 0.4375 -0.625q0.140625 -0.375 0.140625 -0.796875zm11.838074 -2.59375q0 0.171875 -0.015625 0.296875q-0.015625 0.125 -0.0625 0.203125q-0.03125 0.078125 -0.09375 0.125q-0.0625 0.03125 -0.140625 0.03125l-3.3125 0l0 10.21875q0 0.078125 -0.046875 0.140625q-0.03125 0.046875 -0.125 0.078125q-0.078125 0.03125 -0.234375 0.046875q-0.15625 0.015625 -0.375 0.015625q-0.21875 0 -0.375 -0.015625q-0.15625 -0.015625 -0.25 -0.046875q-0.09375 -0.03125 -0.125 -0.078125q-0.03125 -0.0625 -0.03125 -0.140625l0 -10.21875l-3.3125 0q-0.078125 0 -0.140625 -0.03125q-0.0625 -0.046875 -0.09375 -0.125q-0.03125 -0.078125 -0.0625 -0.203125q-0.015625 -0.125 -0.015625 -0.296875q0 -0.171875 0.015625 -0.296875q0.03125 -0.140625 0.0625 -0.21875q0.03125 -0.09375 0.09375 -0.125q0.0625 -0.03125 0.140625 -0.03125l8.1875 0q0.078125 0 0.140625 0.03125q0.0625 0.03125 0.09375 0.125q0.046875 0.078125 0.0625 0.21875q0.015625 0.125 0.015625 0.296875z"
       fill-rule="nonzero"
       id="path64" />
    <path
       fill="#000000"
       fill-opacity="0.0"
       d="m560.0 48.0l88.0 0l0 35.55905l-88.0 0z"
       fill-rule="evenodd"
       id="path66" />
    <path
       fill="#000000"
       d="m570.0156 69.8l0 -9.546879l1.296875 0l5.015625 7.500004l0 -7.500004l1.203125 0l0 9.546879l-1.296875 0l-5.015625 -7.500004l0 7.500004l-1.203125 0zm9.046997 -3.453125q0 -1.921875 1.078125 -2.8437538q0.890625 -0.765625 2.171875 -0.765625q1.421875 0 2.328125 0.9375q0.90625 0.9218788 0.90625 2.5781288q0 1.328125 -0.40625 2.09375q-0.390625 0.765625 -1.15625 1.1875q-0.765625 0.421875 -1.671875 0.421875q-1.453125 0 -2.359375 -0.921875q-0.890625 -0.9375 -0.890625 -2.6875zm1.203125 0q0 1.328125 0.578125 1.984375q0.59375 0.65625 1.46875 0.65625q0.875 0 1.453125 -0.65625q0.578125 -0.671875 0.578125 -2.03125q0 -1.28125 -0.59375 -1.9375q-0.578125 -0.6562538 -1.4375 -0.6562538q-0.875 0 -1.46875 0.6562538q-0.578125 0.65625 -0.578125 1.984375zm9.209351 2.40625l0.171875 1.03125q-0.5 0.109375 -0.890625 0.109375q-0.640625 0 -1.0 -0.203125q-0.34375 -0.203125 -0.484375 -0.53125q-0.140625 -0.328125 -0.140625 -1.390625l0 -3.9687538l-0.859375 0l0 -0.90625l0.859375 0l0 -1.71875l1.171875 -0.703125l0 2.421875l1.171875 0l0 0.90625l-1.171875 0l0 4.046879q0 0.5 0.046875 0.640625q0.0625 0.140625 0.203125 0.234375q0.140625 0.078125 0.40625 0.078125q0.203125 0 0.515625 -0.046875zm4.562256 -2.015625l1.203125 -0.109375q0.078125 0.71875 0.390625 1.1875q0.3125 0.453125 0.953125 0.734375q0.65625 0.28125 1.46875 0.28125q0.71875 0 1.265625 -0.21875q0.5625 -0.21875 0.828125 -0.578125q0.265625 -0.375 0.265625 -0.828125q0 -0.453125 -0.265625 -0.78125q-0.25 -0.328125 -0.84375 -0.5625q-0.390625 -0.15625 -1.703125 -0.46875q-1.3125 -0.3125 -1.84375 -0.59375q-0.671875 -0.359375 -1.015625 -0.8906288q-0.328125 -0.53125 -0.328125 -1.1875q0 -0.71875 0.40625 -1.34375q0.40625 -0.625 1.1875 -0.953125q0.796875 -0.328125 1.765625 -0.328125q1.046875 0 1.859375 0.34375q0.8125 0.34375 1.25 1.015625q0.4375 0.65625 0.46875 1.484375l-1.203125 0.09375q-0.109375 -0.90625 -0.671875 -1.359375q-0.5625 -0.46875 -1.65625 -0.46875q-1.140625 0 -1.671875 0.421875q-0.515625 0.421875 -0.515625 1.015625q0 0.515625 0.359375 0.84375q0.375 0.328125 1.90625 0.6875038q1.546875 0.34375 2.109375 0.59375q0.84375 0.390625 1.234375 0.984375q0.390625 0.578125 0.390625 1.359375q0 0.75 -0.4375 1.4375q-0.421875 0.671875 -1.25 1.046875q-0.8125 0.359375 -1.828125 0.359375q-1.296875 0 -2.171875 -0.375q-0.875 -0.375 -1.375 -1.125q-0.5 -0.765625 -0.53125 -1.71875zm9.1866455 -5.125004l0 -1.359375l1.171875 0l0 1.359375l-1.171875 0zm0 8.187504l0 -6.906254l1.171875 0l0 6.906254l-1.171875 0zm2.7266846 0.578125l1.140625 0.15625q0.078125 0.53125 0.40625 0.78125q0.4375 0.3125 1.1875 0.3125q0.8125 0 1.25 -0.328125q0.453125 -0.3125 0.609375 -0.90625q0.09375 -0.359375 0.078125 -1.5q-0.765625 0.90625 -1.90625 0.90625q-1.4375 0 -2.21875 -1.03125q-0.78125 -1.03125 -0.78125 -2.46875q0 -0.984375 0.359375 -1.8125q0.359375 -0.8437538 1.03125 -1.2968788q0.6875 -0.453125 1.609375 -0.453125q1.21875 0 2.015625 0.984375l0 -0.828125l1.078125 0l0 5.968754q0 1.609375 -0.328125 2.28125q-0.328125 0.6875 -1.046875 1.078125q-0.703125 0.390625 -1.75 0.390625q-1.234375 0 -2.0 -0.5625q-0.75 -0.5625 -0.734375 -1.671875zm0.984375 -4.15625q0 1.359375 0.53125 1.984375q0.546875 0.625 1.359375 0.625q0.796875 0 1.34375 -0.625q0.546875 -0.625 0.546875 -1.953125q0 -1.265625 -0.5625 -1.90625q-0.5625 -0.6406288 -1.359375 -0.6406288q-0.765625 0 -1.3125 0.6406288q-0.546875 0.625 -0.546875 1.875zm6.6468506 3.578125l0 -6.906254l1.0625 0l0 0.984375q0.75 -1.140625 2.1875 -1.140625q0.625 0 1.15625 0.21875q0.53125 0.21875 0.78125 0.59375q0.265625 0.359375 0.375 0.8593788q0.0625 0.328125 0.0625 1.140625l0 4.25l-1.171875 0l0 -4.203125q0 -0.71875 -0.140625 -1.0625q-0.140625 -0.359375 -0.484375 -0.5625038q-0.34375 -0.21875 -0.8125 -0.21875q-0.75 0 -1.296875 0.4687538q-0.546875 0.46875 -0.546875 1.796875l0 3.78125l-1.171875 0zm12.146851 -2.21875l1.203125 0.140625q-0.28125 1.0625 -1.0625 1.65625q-0.765625 0.578125 -1.96875 0.578125q-1.515625 0 -2.40625 -0.9375q-0.890625 -0.9375 -0.890625 -2.609375q0 -1.75 0.890625 -2.7031288q0.90625 -0.96875 2.34375 -0.96875q1.390625 0 2.265625 0.9375q0.875 0.9375038 0.875 2.6562538q0 0.109375 0 0.3125l-5.15625 0q0.0625 1.140625 0.640625 1.75q0.578125 0.59375 1.4375 0.59375q0.65625 0 1.109375 -0.328125q0.453125 -0.34375 0.71875 -1.078125zm-3.84375 -1.90625l3.859375 0q-0.078125 -0.859375 -0.4375 -1.296875q-0.5625 -0.6875038 -1.453125 -0.6875038q-0.8125 0 -1.359375 0.5468788q-0.546875 0.53125 -0.609375 1.4375zm11.006226 4.125l0 -0.875q-0.65625 1.03125 -1.9375 1.03125q-0.8125 0 -1.515625 -0.453125q-0.6875 -0.453125 -1.078125 -1.265625q-0.375 -0.828125 -0.375 -1.890625q0 -1.03125 0.34375 -1.875q0.34375 -0.8437538 1.03125 -1.2812538q0.703125 -0.453125 1.546875 -0.453125q0.625 0 1.109375 0.265625q0.5 0.25 0.796875 0.671875l0 -3.421875l1.171875 0l0 9.546879l-1.09375 0zm-3.703125 -3.453125q0 1.328125 0.5625 1.984375q0.5625 0.65625 1.328125 0.65625q0.765625 0 1.296875 -0.625q0.53125 -0.625 0.53125 -1.90625q0 -1.421875 -0.546875 -2.078125q-0.546875 -0.6718788 -1.34375 -0.6718788q-0.78125 0 -1.3125 0.6406288q-0.515625 0.625 -0.515625 2.0z"
       fill-rule="nonzero"
       id="path68" />
    <path
       fill="#000000"
       fill-opacity="0.0"
       d="m559.20795 108.44095l88.0 0l0 35.55905l-88.0 0z"
       fill-rule="evenodd"
       id="path70" />
    <path
       fill="#000000"
       d="m568.8017 127.178444l1.203125 -0.109375q0.078125 0.71875 0.390625 1.1875076q0.3125 0.453125 0.953125 0.734375q0.65625 0.28125 1.46875 0.28125q0.71875 0 1.265625 -0.21875q0.5625 -0.21875 0.828125 -0.578125q0.265625 -0.375 0.265625 -0.8281326q0 -0.453125 -0.265625 -0.78125q-0.25 -0.328125 -0.84375 -0.5625q-0.390625 -0.15625 -1.703125 -0.46875q-1.3125 -0.3125 -1.84375 -0.59375q-0.671875 -0.359375 -1.015625 -0.890625q-0.328125 -0.53125 -0.328125 -1.1875q0 -0.71875 0.40625 -1.34375q0.40625 -0.625 1.1875 -0.953125q0.796875 -0.328125 1.765625 -0.328125q1.046875 0 1.859375 0.34375q0.8125 0.34375 1.25 1.015625q0.4375 0.65625 0.46875 1.484375l-1.203125 0.09375q-0.109375 -0.90625 -0.671875 -1.359375q-0.5625 -0.46875 -1.65625 -0.46875q-1.140625 0 -1.671875 0.421875q-0.515625 0.421875 -0.515625 1.015625q0 0.515625 0.359375 0.84375q0.375 0.328125 1.90625 0.6875q1.546875 0.34375 2.109375 0.59375q0.84375 0.390625 1.234375 0.984375q0.390625 0.578125 0.390625 1.359375q0 0.7500076 -0.4375 1.4375076q-0.421875 0.671875 -1.25 1.046875q-0.8125 0.359375 -1.828125 0.359375q-1.296875 0 -2.171875 -0.375q-0.875 -0.375 -1.375 -1.125q-0.5 -0.765625 -0.53125 -1.7187576zm9.186584 -5.125l0 -1.359375l1.171875 0l0 1.359375l-1.171875 0zm0 8.187508l0 -6.9062576l1.171875 0l0 6.9062576l-1.171875 0zm2.7267456 0.578125l1.140625 0.15625q0.078125 0.53125 0.40625 0.78125q0.4375 0.3125 1.1875 0.3125q0.8125 0 1.25 -0.328125q0.453125 -0.3125 0.609375 -0.90625q0.09375 -0.359375 0.078125 -1.5q-0.765625 0.90625 -1.90625 0.90625q-1.4375 0 -2.21875 -1.03125q-0.78125 -1.03125 -0.78125 -2.4687576q0 -0.984375 0.359375 -1.8125q0.359375 -0.84375 1.03125 -1.296875q0.6875 -0.453125 1.609375 -0.453125q1.21875 0 2.015625 0.984375l0 -0.828125l1.078125 0l0 5.9687576q0 1.609375 -0.328125 2.28125q-0.328125 0.6875 -1.046875 1.078125q-0.703125 0.390625 -1.75 0.390625q-1.234375 0 -2.0 -0.5625q-0.75 -0.5625 -0.734375 -1.671875zm0.984375 -4.1562576q0 1.3593826 0.53125 1.9843826q0.546875 0.625 1.359375 0.625q0.796875 0 1.34375 -0.625q0.546875 -0.625 0.546875 -1.9531326q0 -1.265625 -0.5625 -1.90625q-0.5625 -0.640625 -1.359375 -0.640625q-0.765625 0 -1.3125 0.640625q-0.546875 0.625 -0.546875 1.875zm6.6468506 3.5781326l0 -6.9062576l1.0625 0l0 0.984375q0.75 -1.140625 2.1875 -1.140625q0.625 0 1.15625 0.21875q0.53125 0.21875 0.78125 0.59375q0.265625 0.359375 0.375 0.859375q0.0625 0.328125 0.0625 1.140625l0 4.2500076l-1.171875 0l0 -4.2031326q0 -0.71875 -0.140625 -1.0625q-0.140625 -0.359375 -0.484375 -0.5625q-0.34375 -0.21875 -0.8125 -0.21875q-0.75 0 -1.296875 0.46875q-0.546875 0.46875 -0.546875 1.796875l0 3.7812576l-1.171875 0zm12.146851 -2.21875l1.203125 0.140625q-0.28125 1.0625 -1.0625 1.65625q-0.765625 0.578125 -1.96875 0.578125q-1.515625 0 -2.40625 -0.9375q-0.890625 -0.9375 -0.890625 -2.6093826q0 -1.75 0.890625 -2.703125q0.90625 -0.96875 2.34375 -0.96875q1.390625 0 2.265625 0.9375q0.875 0.9375 0.875 2.65625q0 0.109375 0 0.3125l-5.15625 0q0.0625 1.1406326 0.640625 1.7500076q0.578125 0.59375 1.4375 0.59375q0.65625 0 1.109375 -0.328125q0.453125 -0.34375 0.71875 -1.078125zm-3.84375 -1.9062576l3.859375 0q-0.078125 -0.859375 -0.4375 -1.296875q-0.5625 -0.6875 -1.453125 -0.6875q-0.8125 0 -1.359375 0.546875q-0.546875 0.53125 -0.609375 1.4375zm11.006226 4.1250076l0 -0.875q-0.65625 1.03125 -1.9375 1.03125q-0.8125 0 -1.515625 -0.453125q-0.6875 -0.453125 -1.078125 -1.265625q-0.375 -0.8281326 -0.375 -1.8906326q0 -1.03125 0.34375 -1.875q0.34375 -0.84375 1.03125 -1.28125q0.703125 -0.453125 1.546875 -0.453125q0.625 0 1.109375 0.265625q0.5 0.25 0.796875 0.671875l0 -3.421875l1.171875 0l0 9.546883l-1.09375 0zm-3.703125 -3.4531326q0 1.3281326 0.5625 1.9843826q0.5625 0.65625 1.328125 0.65625q0.765625 0 1.296875 -0.625q0.53125 -0.625 0.53125 -1.9062576q0 -1.421875 -0.546875 -2.078125q-0.546875 -0.671875 -1.34375 -0.671875q-0.78125 0 -1.3125 0.640625q-0.515625 0.625 -0.515625 2.0z"
       fill-rule="nonzero"
       id="path72" />
    <path
       fill="#000000"
       fill-opacity="0.0"
       d="m559.20795 149.23302l88.0 0l0 35.559067l-88.0 0z"
       fill-rule="evenodd"
       id="path74" />
    <path
       fill="#000000"
       d="m569.27045 171.03302l0 -9.546875l1.265625 0l0 3.921875l4.953125 0l0 -3.921875l1.265625 0l0 9.546875l-1.265625 0l0 -4.5l-4.953125 0l0 4.5l-1.265625 0zm13.953247 -0.859375q-0.65625 0.5625 -1.265625 0.796875q-0.59375 0.21875 -1.28125 0.21875q-1.140625 0 -1.75 -0.546875q-0.609375 -0.5625 -0.609375 -1.4375q0 -0.5 0.21875 -0.921875q0.234375 -0.421875 0.609375 -0.671875q0.375 -0.25 0.84375 -0.390625q0.34375 -0.078125 1.046875 -0.171875q1.421875 -0.171875 2.09375 -0.40625q0 -0.234375 0 -0.296875q0 -0.71875 -0.328125 -1.015625q-0.453125 -0.390625 -1.34375 -0.390625q-0.8125 0 -1.21875 0.296875q-0.390625 0.28125 -0.578125 1.015625l-1.140625 -0.15625q0.15625 -0.734375 0.515625 -1.1875q0.359375 -0.453125 1.03125 -0.6875q0.671875 -0.25 1.5625 -0.25q0.890625 0 1.4375 0.203125q0.5625 0.203125 0.8125 0.53125q0.265625 0.3125 0.375 0.796875q0.046875 0.296875 0.046875 1.078125l0 1.5625q0 1.625 0.078125 2.0625q0.078125 0.4375 0.296875 0.828125l-1.21875 0q-0.1875 -0.359375 -0.234375 -0.859375zm-0.09375 -2.609375q-0.640625 0.265625 -1.921875 0.4375q-0.71875 0.109375 -1.015625 0.25q-0.296875 0.125 -0.46875 0.375q-0.15625 0.25 -0.15625 0.546875q0 0.46875 0.34375 0.78125q0.359375 0.3125 1.046875 0.3125q0.671875 0 1.203125 -0.296875q0.53125 -0.296875 0.78125 -0.8125q0.1875 -0.390625 0.1875 -1.171875l0 -0.421875zm2.5218506 1.40625l1.15625 -0.1875q0.109375 0.703125 0.546875 1.078125q0.453125 0.359375 1.25 0.359375q0.8125 0 1.203125 -0.328125q0.390625 -0.328125 0.390625 -0.765625q0 -0.390625 -0.359375 -0.625q-0.234375 -0.15625 -1.1875 -0.390625q-1.296875 -0.328125 -1.796875 -0.5625q-0.484375 -0.25 -0.75 -0.65625q-0.25 -0.421875 -0.25 -0.9375q0 -0.453125 0.203125 -0.84375q0.21875 -0.40625 0.578125 -0.671875q0.28125 -0.1875 0.75 -0.328125q0.46875 -0.140625 1.015625 -0.140625q0.8125 0 1.421875 0.234375q0.609375 0.234375 0.90625 0.640625q0.296875 0.390625 0.40625 1.0625l-1.140625 0.15625q-0.078125 -0.53125 -0.453125 -0.828125q-0.375 -0.3125 -1.0625 -0.3125q-0.8125 0 -1.15625 0.265625q-0.34375 0.265625 -0.34375 0.625q0 0.234375 0.140625 0.421875q0.15625 0.1875 0.453125 0.3125q0.171875 0.0625 1.03125 0.296875q1.25 0.328125 1.734375 0.546875q0.5 0.203125 0.78125 0.609375q0.28125 0.40625 0.28125 1.0q0 0.59375 -0.34375 1.109375q-0.34375 0.515625 -1.0 0.796875q-0.640625 0.28125 -1.453125 0.28125q-1.34375 0 -2.046875 -0.5625q-0.703125 -0.5625 -0.90625 -1.65625zm7.1328125 2.0625l0 -9.546875l1.171875 0l0 3.421875q0.828125 -0.9375 2.078125 -0.9375q0.765625 0 1.328125 0.296875q0.5625 0.296875 0.8125 0.84375q0.25 0.53125 0.25 1.546875l0 4.375l-1.171875 0l0 -4.375q0 -0.890625 -0.390625 -1.28125q-0.375 -0.40625 -1.078125 -0.40625q-0.515625 0 -0.984375 0.28125q-0.453125 0.265625 -0.65625 0.734375q-0.1875 0.453125 -0.1875 1.265625l0 3.78125l-1.171875 0zm12.146851 -2.21875l1.203125 0.140625q-0.28125 1.0625 -1.0625 1.65625q-0.765625 0.578125 -1.96875 0.578125q-1.515625 0 -2.40625 -0.9375q-0.890625 -0.9375 -0.890625 -2.609375q0 -1.75 0.890625 -2.703125q0.90625 -0.96875 2.34375 -0.96875q1.390625 0 2.265625 0.9375q0.875 0.9375 0.875 2.65625q0 0.109375 0 0.3125l-5.15625 0q0.0625 1.140625 0.640625 1.75q0.578125 0.59375 1.4375 0.59375q0.65625 0 1.109375 -0.328125q0.453125 -0.34375 0.71875 -1.078125zm-3.84375 -1.90625l3.859375 0q-0.078125 -0.859375 -0.4375 -1.296875q-0.5625 -0.6875 -1.453125 -0.6875q-0.8125 0 -1.359375 0.546875q-0.546875 0.53125 -0.609375 1.4375zm11.006226 4.125l0 -0.875q-0.65625 1.03125 -1.9375 1.03125q-0.8125 0 -1.515625 -0.453125q-0.6875 -0.453125 -1.078125 -1.265625q-0.375 -0.828125 -0.375 -1.890625q0 -1.03125 0.34375 -1.875q0.34375 -0.84375 1.03125 -1.28125q0.703125 -0.453125 1.546875 -0.453125q0.625 0 1.109375 0.265625q0.5 0.25 0.796875 0.671875l0 -3.421875l1.171875 0l0 9.546875l-1.09375 0zm-3.703125 -3.453125q0 1.328125 0.5625 1.984375q0.5625 0.65625 1.328125 0.65625q0.765625 0 1.296875 -0.625q0.53125 -0.625 0.53125 -1.90625q0 -1.421875 -0.546875 -2.078125q-0.546875 -0.671875 -1.34375 -0.671875q-0.78125 0 -1.3125 0.640625q-0.515625 0.625 -0.515625 2.0z"
       fill-rule="nonzero"
       id="path76" />
    <path
       fill="#000000"
       fill-opacity="0.0"
       d="m559.2871 251.64886l88.0 0l0 35.55905l-88.0 0z"
       fill-rule="evenodd"
       id="path78" />
    <path
       fill="#000000"
       d="m569.3496 273.44885l0 -9.546875l1.265625 0l0 3.921875l4.953125 0l0 -3.921875l1.265625 0l0 9.546875l-1.265625 0l0 -4.5l-4.953125 0l0 4.5l-1.265625 0zm13.953308 -0.859375q-0.65625 0.5625 -1.265625 0.796875q-0.59375 0.21875 -1.28125 0.21875q-1.140625 0 -1.75 -0.546875q-0.609375 -0.5625 -0.609375 -1.4375q0 -0.5 0.21875 -0.921875q0.234375 -0.421875 0.609375 -0.671875q0.375 -0.25 0.84375 -0.390625q0.34375 -0.078125 1.046875 -0.171875q1.421875 -0.171875 2.09375 -0.40625q0 -0.234375 0 -0.296875q0 -0.71875 -0.328125 -1.015625q-0.453125 -0.390625 -1.34375 -0.390625q-0.8125 0 -1.21875 0.296875q-0.390625 0.28125 -0.578125 1.015625l-1.140625 -0.15625q0.15625 -0.734375 0.515625 -1.1875q0.359375 -0.453125 1.03125 -0.6875q0.671875 -0.25 1.5625 -0.25q0.890625 0 1.4375 0.203125q0.5625 0.203125 0.8125 0.53125q0.265625 0.3125 0.375 0.796875q0.046875 0.296875 0.046875 1.078125l0 1.5625q0 1.625 0.078125 2.0625q0.078125 0.4375 0.296875 0.828125l-1.21875 0q-0.1875 -0.359375 -0.234375 -0.859375zm-0.09375 -2.609375q-0.640625 0.265625 -1.921875 0.4375q-0.71875 0.109375 -1.015625 0.25q-0.296875 0.125 -0.46875 0.375q-0.15625 0.25 -0.15625 0.546875q0 0.46875 0.34375 0.78125q0.359375 0.3125 1.046875 0.3125q0.671875 0 1.203125 -0.296875q0.53125 -0.296875 0.78125 -0.8125q0.1875 -0.390625 0.1875 -1.171875l0 -0.421875zm2.5218506 1.40625l1.15625 -0.1875q0.109375 0.703125 0.546875 1.078125q0.453125 0.359375 1.25 0.359375q0.8125 0 1.203125 -0.328125q0.390625 -0.328125 0.390625 -0.765625q0 -0.390625 -0.359375 -0.625q-0.234375 -0.15625 -1.1875 -0.390625q-1.296875 -0.328125 -1.796875 -0.5625q-0.484375 -0.25 -0.75 -0.65625q-0.25 -0.421875 -0.25 -0.9375q0 -0.453125 0.203125 -0.84375q0.21875 -0.40625 0.578125 -0.671875q0.28125 -0.1875 0.75 -0.328125q0.46875 -0.140625 1.015625 -0.140625q0.8125 0 1.421875 0.234375q0.609375 0.234375 0.90625 0.640625q0.296875 0.390625 0.40625 1.0625l-1.140625 0.15625q-0.078125 -0.53125 -0.453125 -0.828125q-0.375 -0.3125 -1.0625 -0.3125q-0.8125 0 -1.15625 0.265625q-0.34375 0.265625 -0.34375 0.625q0 0.234375 0.140625 0.421875q0.15625 0.1875 0.453125 0.3125q0.171875 0.0625 1.03125 0.296875q1.25 0.328125 1.734375 0.546875q0.5 0.203125 0.78125 0.609375q0.28125 0.40625 0.28125 1.0q0 0.59375 -0.34375 1.109375q-0.34375 0.515625 -1.0 0.796875q-0.640625 0.28125 -1.453125 0.28125q-1.34375 0 -2.046875 -0.5625q-0.703125 -0.5625 -0.90625 -1.65625zm7.1328125 2.0625l0 -9.546875l1.171875 0l0 3.421875q0.828125 -0.9375 2.078125 -0.9375q0.765625 0 1.328125 0.296875q0.5625 0.296875 0.8125 0.84375q0.25 0.53125 0.25 1.546875l0 4.375l-1.171875 0l0 -4.375q0 -0.890625 -0.390625 -1.28125q-0.375 -0.40625 -1.078125 -0.40625q-0.515625 0 -0.984375 0.28125q-0.453125 0.265625 -0.65625 0.734375q-0.1875 0.453125 -0.1875 1.265625l0 3.78125l-1.171875 0zm12.146851 -2.21875l1.203125 0.140625q-0.28125 1.0625 -1.0625 1.65625q-0.765625 0.578125 -1.96875 0.578125q-1.515625 0 -2.40625 -0.9375q-0.890625 -0.9375 -0.890625 -2.609375q0 -1.75 0.890625 -2.703125q0.90625 -0.96875 2.34375 -0.96875q1.390625 0 2.265625 0.9375q0.875 0.9375 0.875 2.65625q0 0.109375 0 0.3125l-5.15625 0q0.0625 1.140625 0.640625 1.75q0.578125 0.59375 1.4375 0.59375q0.65625 0 1.109375 -0.328125q0.453125 -0.34375 0.71875 -1.078125zm-3.84375 -1.90625l3.859375 0q-0.078125 -0.859375 -0.4375 -1.296875q-0.5625 -0.6875 -1.453125 -0.6875q-0.8125 0 -1.359375 0.546875q-0.546875 0.53125 -0.609375 1.4375zm11.006226 4.125l0 -0.875q-0.65625 1.03125 -1.9375 1.03125q-0.8125 0 -1.515625 -0.453125q-0.6875 -0.453125 -1.078125 -1.265625q-0.375 -0.828125 -0.375 -1.890625q0 -1.03125 0.34375 -1.875q0.34375 -0.84375 1.03125 -1.28125q0.703125 -0.453125 1.546875 -0.453125q0.625 0 1.109375 0.265625q0.5 0.25 0.796875 0.671875l0 -3.421875l1.171875 0l0 9.546875l-1.09375 0zm-3.703125 -3.453125q0 1.328125 0.5625 1.984375q0.5625 0.65625 1.328125 0.65625q0.765625 0 1.296875 -0.625q0.53125 -0.625 0.53125 -1.90625q0 -1.421875 -0.546875 -2.078125q-0.546875 -0.671875 -1.34375 -0.671875q-0.78125 0 -1.3125 0.640625q-0.515625 0.625 -0.515625 2.0z"
       fill-rule="nonzero"
       id="path80" />
    <path
       fill="#000000"
       fill-opacity="0.0"
       d="m560.0 420.44095l88.0 0l0 35.55905l-88.0 0z"
       fill-rule="evenodd"
       id="path82" />
    <path
       fill="#000000"
       d="m570.0625 442.24094l0 -9.546875l1.265625 0l0 3.921875l4.953125 0l0 -3.921875l1.265625 0l0 9.546875l-1.265625 0l0 -4.5l-4.953125 0l0 4.5l-1.265625 0zm13.953247 -0.859375q-0.65625 0.5625 -1.265625 0.796875q-0.59375 0.21875 -1.28125 0.21875q-1.140625 0 -1.75 -0.546875q-0.609375 -0.5625 -0.609375 -1.4375q0 -0.5 0.21875 -0.921875q0.234375 -0.421875 0.609375 -0.671875q0.375 -0.25 0.84375 -0.390625q0.34375 -0.078125 1.046875 -0.171875q1.421875 -0.171875 2.09375 -0.40625q0 -0.234375 0 -0.296875q0 -0.71875 -0.328125 -1.015625q-0.453125 -0.390625 -1.34375 -0.390625q-0.8125 0 -1.21875 0.296875q-0.390625 0.28125 -0.578125 1.015625l-1.140625 -0.15625q0.15625 -0.734375 0.515625 -1.1875q0.359375 -0.453125 1.03125 -0.6875q0.671875 -0.25 1.5625 -0.25q0.890625 0 1.4375 0.203125q0.5625 0.203125 0.8125 0.53125q0.265625 0.3125 0.375 0.796875q0.046875 0.296875 0.046875 1.078125l0 1.5625q0 1.625 0.078125 2.0625q0.078125 0.4375 0.296875 0.828125l-1.21875 0q-0.1875 -0.359375 -0.234375 -0.859375zm-0.09375 -2.609375q-0.640625 0.265625 -1.921875 0.4375q-0.71875 0.109375 -1.015625 0.25q-0.296875 0.125 -0.46875 0.375q-0.15625 0.25 -0.15625 0.546875q0 0.46875 0.34375 0.78125q0.359375 0.3125 1.046875 0.3125q0.671875 0 1.203125 -0.296875q0.53125 -0.296875 0.78125 -0.8125q0.1875 -0.390625 0.1875 -1.171875l0 -0.421875zm2.5218506 1.40625l1.15625 -0.1875q0.109375 0.703125 0.546875 1.078125q0.453125 0.359375 1.25 0.359375q0.8125 0 1.203125 -0.328125q0.390625 -0.328125 0.390625 -0.765625q0 -0.390625 -0.359375 -0.625q-0.234375 -0.15625 -1.1875 -0.390625q-1.296875 -0.328125 -1.796875 -0.5625q-0.484375 -0.25 -0.75 -0.65625q-0.25 -0.421875 -0.25 -0.9375q0 -0.453125 0.203125 -0.84375q0.21875 -0.40625 0.578125 -0.671875q0.28125 -0.1875 0.75 -0.328125q0.46875 -0.140625 1.015625 -0.140625q0.8125 0 1.421875 0.234375q0.609375 0.234375 0.90625 0.640625q0.296875 0.390625 0.40625 1.0625l-1.140625 0.15625q-0.078125 -0.53125 -0.453125 -0.828125q-0.375 -0.3125 -1.0625 -0.3125q-0.8125 0 -1.15625 0.265625q-0.34375 0.265625 -0.34375 0.625q0 0.234375 0.140625 0.421875q0.15625 0.1875 0.453125 0.3125q0.171875 0.0625 1.03125 0.296875q1.25 0.328125 1.734375 0.546875q0.5 0.203125 0.78125 0.609375q0.28125 0.40625 0.28125 1.0q0 0.59375 -0.34375 1.109375q-0.34375 0.515625 -1.0 0.796875q-0.640625 0.28125 -1.453125 0.28125q-1.34375 0 -2.046875 -0.5625q-0.703125 -0.5625 -0.90625 -1.65625zm7.1328125 2.0625l0 -9.546875l1.171875 0l0 3.421875q0.828125 -0.9375 2.078125 -0.9375q0.765625 0 1.328125 0.296875q0.5625 0.296875 0.8125 0.84375q0.25 0.53125 0.25 1.546875l0 4.375l-1.171875 0l0 -4.375q0 -0.890625 -0.390625 -1.28125q-0.375 -0.40625 -1.078125 -0.40625q-0.515625 0 -0.984375 0.28125q-0.453125 0.265625 -0.65625 0.734375q-0.1875 0.453125 -0.1875 1.265625l0 3.78125l-1.171875 0zm12.146851 -2.21875l1.203125 0.140625q-0.28125 1.0625 -1.0625 1.65625q-0.765625 0.578125 -1.96875 0.578125q-1.515625 0 -2.40625 -0.9375q-0.890625 -0.9375 -0.890625 -2.609375q0 -1.75 0.890625 -2.703125q0.90625 -0.96875 2.34375 -0.96875q1.390625 0 2.265625 0.9375q0.875 0.9375 0.875 2.65625q0 0.109375 0 0.3125l-5.15625 0q0.0625 1.140625 0.640625 1.75q0.578125 0.59375 1.4375 0.59375q0.65625 0 1.109375 -0.328125q0.453125 -0.34375 0.71875 -1.078125zm-3.84375 -1.90625l3.859375 0q-0.078125 -0.859375 -0.4375 -1.296875q-0.5625 -0.6875 -1.453125 -0.6875q-0.8125 0 -1.359375 0.546875q-0.546875 0.53125 -0.609375 1.4375zm11.006226 4.125l0 -0.875q-0.65625 1.03125 -1.9375 1.03125q-0.8125 0 -1.515625 -0.453125q-0.6875 -0.453125 -1.078125 -1.265625q-0.375 -0.828125 -0.375 -1.890625q0 -1.03125 0.34375 -1.875q0.34375 -0.84375 1.03125 -1.28125q0.703125 -0.453125 1.546875 -0.453125q0.625 0 1.109375 0.265625q0.5 0.25 0.796875 0.671875l0 -3.421875l1.171875 0l0 9.546875l-1.09375 0zm-3.703125 -3.453125q0 1.328125 0.5625 1.984375q0.5625 0.65625 1.328125 0.65625q0.765625 0 1.296875 -0.625q0.53125 -0.625 0.53125 -1.90625q0 -1.421875 -0.546875 -2.078125q-0.546875 -0.671875 -1.34375 -0.671875q-0.78125 0 -1.3125 0.640625q-0.515625 0.625 -0.515625 2.0z"
       fill-rule="nonzero"
       id="path84" />
    <path
       fill="#000000"
       fill-opacity="0.0"
       d="m314.37625 168.0l-25.0 0l0 104.0l25.062988 0"
       fill-rule="evenodd"
       id="path86" />
    <path
       stroke="#000000"
       stroke-width="1.0"
       stroke-linejoin="round"
       stroke-linecap="butt"
       stroke-dasharray="1.0,3.0"
       d="m314.37622 168.0l-25.0 0l0 104.0l19.062988 0"
       fill-rule="evenodd"
       id="path88" />
    <path
       fill="#000000"
       stroke="#000000"
       stroke-width="1.0"
       stroke-linecap="butt"
       d="m308.4392 273.65173l4.5381165 -1.6517334l-4.5381165 -1.6517334z"
       fill-rule="evenodd"
       id="path90" />
    <path
       fill="#000000"
       fill-opacity="0.0"
       d="m314.37625 200.0l-49.82245 0l0 232.0l49.885437 0"
       fill-rule="evenodd"
       id="path92" />
    <path
       stroke="#000000"
       stroke-width="1.0"
       stroke-linejoin="round"
       stroke-linecap="butt"
       stroke-dasharray="1.0,3.0"
       d="m314.37622 200.0l-49.82242 0l0 232.0l43.885406 0"
       fill-rule="evenodd"
       id="path94" />
    <path
       fill="#000000"
       stroke="#000000"
       stroke-width="1.0"
       stroke-linecap="butt"
       d="m308.4392 433.65173l4.5381165 -1.6517334l-4.5381165 -1.6517334z"
       fill-rule="evenodd"
       id="path96" />
    <path
       fill="#000000"
       fill-opacity="0.0"
       d="m240.0 40.0l-32.0 0l0 167.992l32.0 0"
       fill-rule="evenodd"
       id="path98" />
    <path
       stroke="#000000"
       stroke-width="1.0"
       stroke-linejoin="round"
       stroke-linecap="butt"
       d="m240.0 40.0l-32.0 0l0 167.992l32.0 0"
       fill-rule="evenodd"
       id="path100" />
    <path
       fill="#000000"
       fill-opacity="0.0"
       d="m240.0 216.0l-32.0 0l0 112.00641l32.0 0"
       fill-rule="evenodd"
       id="path102" />
    <path
       stroke="#000000"
       stroke-width="1.0"
       stroke-linejoin="round"
       stroke-linecap="butt"
       d="m240.0 216.0l-32.0 0l0 112.00641l32.0 0"
       fill-rule="evenodd"
       id="path104" />
    <path
       fill="#000000"
       fill-opacity="0.0"
       d="m240.0 336.0l-32.0 0l0 200.00641l32.0 0"
       fill-rule="evenodd"
       id="path106" />
    <path
       stroke="#000000"
       stroke-width="1.0"
       stroke-linejoin="round"
       stroke-linecap="butt"
       d="m240.0 336.0l-32.0 0l0 200.00641l32.0 0"
       fill-rule="evenodd"
       id="path108" />
    <path
       fill="#000000"
       fill-opacity="0.0"
       d="m120.0 96.0l88.0 0l0 51.716537l-88.0 0z"
       fill-rule="evenodd"
       id="path110" />
    <path
       fill="#000000"
       d="m144.56203 117.8l0 -9.546875l6.4375 0l0 1.125l-5.171875 0l0 2.96875l4.46875 0l0 1.125l-4.46875 0l0 4.328125l-1.265625 0zm7.9382324 -8.1875l0 -1.359375l1.171875 0l0 1.359375l-1.171875 0zm0 8.1875l0 -6.90625l1.171875 0l0 6.90625l-1.171875 0zm2.92984 0l0 -6.90625l1.0625 0l0 1.046875q0.40625 -0.734375 0.734375 -0.96875q0.34375 -0.234375 0.765625 -0.234375q0.59375 0 1.203125 0.375l-0.40625 1.078125q-0.4375 -0.25 -0.859375 -0.25q-0.390625 0 -0.703125 0.234375q-0.296875 0.234375 -0.421875 0.640625q-0.203125 0.625 -0.203125 1.359375l0 3.625l-1.171875 0zm4.4539948 0l0 -6.90625l1.046875 0l0 0.96875q0.328125 -0.515625 0.859375 -0.8125q0.546875 -0.3125 1.234375 -0.3125q0.78125 0 1.265625 0.3125q0.484375 0.3125 0.6875 0.890625q0.828125 -1.203125 2.140625 -1.203125q1.03125 0 1.578125 0.578125q0.5625 0.5625 0.5625 1.734375l0 4.75l-1.171875 0l0 -4.359375q0 -0.703125 -0.125 -1.0q-0.109375 -0.3125 -0.40625 -0.5q-0.296875 -0.1875 -0.703125 -0.1875q-0.71875 0 -1.203125 0.484375q-0.484375 0.484375 -0.484375 1.546875l0 4.015625l-1.171875 0l0 -4.484375q0 -0.78125 -0.296875 -1.171875q-0.28125 -0.390625 -0.921875 -0.390625q-0.5 0 -0.921875 0.265625q-0.421875 0.25 -0.609375 0.75q-0.1875 0.5 -0.1875 1.453125l0 3.578125l-1.171875 0zm12.383682 0l-2.125 -6.90625l1.21875 0l1.09375 3.984375l0.421875 1.484375q0.015625 -0.109375 0.359375 -1.421875l1.09375 -4.046875l1.203125 0l1.03125 4.0l0.34375 1.328125l0.40625 -1.34375l1.171875 -3.984375l1.140625 0l-2.15625 6.90625l-1.21875 0l-1.09375 -4.140625l-0.265625 -1.171875l-1.40625 5.3125l-1.21875 0zm12.859528 -0.859375q-0.65625 0.5625 -1.265625 0.796875q-0.59375 0.21875 -1.28125 0.21875q-1.140625 0 -1.75 -0.546875q-0.609375 -0.5625 -0.609375 -1.4375q0 -0.5 0.21875 -0.921875q0.234375 -0.421875 0.609375 -0.671875q0.375 -0.25 0.84375 -0.390625q0.34375 -0.078125 1.046875 -0.171875q1.421875 -0.171875 2.09375 -0.40625q0 -0.234375 0 -0.296875q0 -0.71875 -0.328125 -1.015625q-0.453125 -0.390625 -1.34375 -0.390625q-0.8125 0 -1.21875 0.296875q-0.390625 0.28125 -0.578125 1.015625l-1.140625 -0.15625q0.15625 -0.734375 0.515625 -1.1875q0.359375 -0.453125 1.03125 -0.6875q0.671875 -0.25 1.5625 -0.25q0.890625 0 1.4375 0.203125q0.5625 0.203125 0.8125 0.53125q0.265625 0.3125 0.375 0.796875q0.046875 0.296875 0.046875 1.078125l0 1.5625q0 1.625 0.078125 2.0625q0.078125 0.4375 0.296875 0.828125l-1.21875 0q-0.1875 -0.359375 -0.234375 -0.859375zm-0.09375 -2.609375q-0.640625 0.265625 -1.921875 0.4375q-0.71875 0.109375 -1.015625 0.25q-0.296875 0.125 -0.46875 0.375q-0.15625 0.25 -0.15625 0.546875q0 0.46875 0.34375 0.78125q0.359375 0.3125 1.046875 0.3125q0.671875 0 1.203125 -0.296875q0.53125 -0.296875 0.78125 -0.8125q0.1875 -0.390625 0.1875 -1.171875l0 -0.421875zm2.9749756 3.46875l0 -6.90625l1.0625 0l0 1.046875q0.40625 -0.734375 0.734375 -0.96875q0.34375 -0.234375 0.765625 -0.234375q0.59375 0 1.203125 0.375l-0.40625 1.078125q-0.4375 -0.25 -0.859375 -0.25q-0.390625 0 -0.703125 0.234375q-0.296875 0.234375 -0.421875 0.640625q-0.203125 0.625 -0.203125 1.359375l0 3.625l-1.171875 0zm9.18837 -2.21875l1.203125 0.140625q-0.28125 1.0625 -1.0625 1.65625q-0.765625 0.578125 -1.96875 0.578125q-1.515625 0 -2.40625 -0.9375q-0.890625 -0.9375 -0.890625 -2.609375q0 -1.75 0.890625 -2.703125q0.90625 -0.96875 2.34375 -0.96875q1.390625 0 2.265625 0.9375q0.875 0.9375 0.875 2.65625q0 0.109375 0 0.3125l-5.15625 0q0.0625 1.140625 0.640625 1.75q0.578125 0.59375 1.4375 0.59375q0.65625 0 1.109375 -0.328125q0.453125 -0.34375 0.71875 -1.078125zm-3.84375 -1.90625l3.859375 0q-0.078125 -0.859375 -0.4375 -1.296875q-0.5625 -0.6875 -1.453125 -0.6875q-0.8125 0 -1.359375 0.546875q-0.546875 0.53125 -0.609375 1.4375z"
       fill-rule="nonzero"
       id="path112" />
    <path
       fill="#000000"
       d="m149.61339 133.8l0 -9.546875l1.90625 0l2.25 6.765625q0.3125 0.9375 0.46875 1.40625q0.15625 -0.515625 0.5 -1.53125l2.28125 -6.640625l1.703125 0l0 9.546875l-1.21875 0l0 -7.984375l-2.765625 7.984375l-1.140625 0l-2.765625 -8.125l0 8.125l-1.21875 0zm15.508682 -0.859375q-0.65625 0.5625 -1.265625 0.796875q-0.59375 0.21875 -1.28125 0.21875q-1.140625 0 -1.75 -0.546875q-0.609375 -0.5625 -0.609375 -1.4375q0 -0.5 0.21875 -0.921875q0.234375 -0.421875 0.609375 -0.671875q0.375 -0.25 0.84375 -0.390625q0.34375 -0.078125 1.046875 -0.171875q1.421875 -0.171875 2.09375 -0.40625q0 -0.234375 0 -0.296875q0 -0.71875 -0.328125 -1.015625q-0.453125 -0.390625 -1.34375 -0.390625q-0.8125 0 -1.21875 0.296875q-0.390625 0.28125 -0.578125 1.015625l-1.140625 -0.15625q0.15625 -0.734375 0.515625 -1.1875q0.359375 -0.453125 1.03125 -0.6875q0.671875 -0.25 1.5625 -0.25q0.890625 0 1.4375 0.203125q0.5625 0.203125 0.8125 0.53125q0.265625 0.3125 0.375 0.796875q0.046875 0.296875 0.046875 1.078125l0 1.5625q0 1.625 0.078125 2.0625q0.078125 0.4375 0.296875 0.828125l-1.21875 0q-0.1875 -0.359375 -0.234375 -0.859375zm-0.09375 -2.609375q-0.640625 0.265625 -1.921875 0.4375q-0.71875 0.109375 -1.015625 0.25q-0.296875 0.125 -0.46875 0.375q-0.15625 0.25 -0.15625 0.546875q0 0.46875 0.34375 0.78125q0.359375 0.3125 1.046875 0.3125q0.671875 0 1.203125 -0.296875q0.53125 -0.296875 0.78125 -0.8125q0.1875 -0.390625 0.1875 -1.171875l0 -0.421875zm2.9906006 3.46875l0 -6.90625l1.0625 0l0 0.984375q0.75 -1.140625 2.1875 -1.140625q0.625 0 1.15625 0.21875q0.53125 0.21875 0.78125 0.59375q0.265625 0.359375 0.375 0.859375q0.0625 0.328125 0.0625 1.140625l0 4.25l-1.171875 0l0 -4.203125q0 -0.71875 -0.140625 -1.0625q-0.140625 -0.359375 -0.484375 -0.5625q-0.34375 -0.21875 -0.8125 -0.21875q-0.75 0 -1.296875 0.46875q-0.546875 0.46875 -0.546875 1.796875l0 3.78125l-1.171875 0zm7.4281006 -8.1875l0 -1.359375l1.171875 0l0 1.359375l-1.171875 0zm0 8.1875l0 -6.90625l1.171875 0l0 6.90625l-1.171875 0zm3.226715 0l0 -6.0l-1.03125 0l0 -0.90625l1.03125 0l0 -0.734375q0 -0.703125 0.125 -1.046875q0.171875 -0.453125 0.59375 -0.734375q0.421875 -0.28125 1.203125 -0.28125q0.484375 0 1.09375 0.109375l-0.1875 1.03125q-0.359375 -0.0625 -0.6875 -0.0625q-0.53125 0 -0.75 0.234375q-0.21875 0.21875 -0.21875 0.84375l0 0.640625l1.34375 0l0 0.90625l-1.34375 0l0 6.0l-1.171875 0zm8.156113 -2.21875l1.203125 0.140625q-0.28125 1.0625 -1.0625 1.65625q-0.765625 0.578125 -1.96875 0.578125q-1.515625 0 -2.40625 -0.9375q-0.890625 -0.9375 -0.890625 -2.609375q0 -1.75 0.890625 -2.703125q0.90625 -0.96875 2.34375 -0.96875q1.390625 0 2.265625 0.9375q0.875 0.9375 0.875 2.65625q0 0.109375 0 0.3125l-5.15625 0q0.0625 1.140625 0.640625 1.75q0.578125 0.59375 1.4375 0.59375q0.65625 0 1.109375 -0.328125q0.453125 -0.34375 0.71875 -1.078125zm-3.84375 -1.90625l3.859375 0q-0.078125 -0.859375 -0.4375 -1.296875q-0.5625 -0.6875 -1.453125 -0.6875q-0.8125 0 -1.359375 0.546875q-0.546875 0.53125 -0.609375 1.4375zm6.0531006 2.0625l1.15625 -0.1875q0.109375 0.703125 0.546875 1.078125q0.453125 0.359375 1.25 0.359375q0.8125 0 1.203125 -0.328125q0.390625 -0.328125 0.390625 -0.765625q0 -0.390625 -0.359375 -0.625q-0.234375 -0.15625 -1.1875 -0.390625q-1.296875 -0.328125 -1.796875 -0.5625q-0.484375 -0.25 -0.75 -0.65625q-0.25 -0.421875 -0.25 -0.9375q0 -0.453125 0.203125 -0.84375q0.21875 -0.40625 0.578125 -0.671875q0.28125 -0.1875 0.75 -0.328125q0.46875 -0.140625 1.015625 -0.140625q0.8125 0 1.421875 0.234375q0.609375 0.234375 0.90625 0.640625q0.296875 0.390625 0.40625 1.0625l-1.140625 0.15625q-0.078125 -0.53125 -0.453125 -0.828125q-0.375 -0.3125 -1.0625 -0.3125q-0.8125 0 -1.15625 0.265625q-0.34375 0.265625 -0.34375 0.625q0 0.234375 0.140625 0.421875q0.15625 0.1875 0.453125 0.3125q0.171875 0.0625 1.03125 0.296875q1.25 0.328125 1.734375 0.546875q0.5 0.203125 0.78125 0.609375q0.28125 0.40625 0.28125 1.0q0 0.59375 -0.34375 1.109375q-0.34375 0.515625 -1.0 0.796875q-0.640625 0.28125 -1.453125 0.28125q-1.34375 0 -2.046875 -0.5625q-0.703125 -0.5625 -0.90625 -1.65625zm9.6953125 1.015625l0.171875 1.03125q-0.5 0.109375 -0.890625 0.109375q-0.640625 0 -1.0 -0.203125q-0.34375 -0.203125 -0.484375 -0.53125q-0.140625 -0.328125 -0.140625 -1.390625l0 -3.96875l-0.859375 0l0 -0.90625l0.859375 0l0 -1.71875l1.171875 -0.703125l0 2.421875l1.171875 0l0 0.90625l-1.171875 0l0 4.046875q0 0.5 0.046875 0.640625q0.0625 0.140625 0.203125 0.234375q0.140625 0.078125 0.40625 0.078125q0.203125 0 0.515625 -0.046875z"
       fill-rule="nonzero"
       id="path114" />
    <path
       fill="#000000"
       fill-opacity="0.0"
       d="m120.0 240.0l88.0 0l0 35.55905l-88.0 0z"
       fill-rule="evenodd"
       id="path116" />
    <path
       fill="#000000"
       d="m163.20715 261.8l0 -9.54686l1.25 0l0 9.54686l-1.25 0zm3.3279877 0l0 -6.9062347l1.046875 0l0 0.96875q0.328125 -0.515625 0.859375 -0.8125q0.546875 -0.3125 1.234375 -0.3125q0.78125 0 1.265625 0.3125q0.484375 0.3125 0.6875 0.890625q0.828125 -1.203125 2.140625 -1.203125q1.03125 0 1.578125 0.578125q0.5625 0.5625 0.5625 1.7343597l0 4.75l-1.171875 0l0 -4.359375q0 -0.703125 -0.125 -1.0q-0.109375 -0.3125 -0.40625 -0.49998474q-0.296875 -0.1875 -0.703125 -0.1875q-0.71875 0 -1.203125 0.48435974q-0.484375 0.484375 -0.484375 1.546875l0 4.015625l-1.171875 0l0 -4.484375q0 -0.78125 -0.296875 -1.171875q-0.28125 -0.39060974 -0.921875 -0.39060974q-0.5 0 -0.921875 0.26560974q-0.421875 0.25 -0.609375 0.75q-0.1875 0.5 -0.1875 1.453125l0 3.578125l-1.171875 0zm15.618057 -0.859375q-0.65625 0.5625 -1.265625 0.796875q-0.59375 0.21875 -1.28125 0.21875q-1.140625 0 -1.75 -0.546875q-0.609375 -0.5625 -0.609375 -1.4375q0 -0.5 0.21875 -0.921875q0.234375 -0.421875 0.609375 -0.671875q0.375 -0.25 0.84375 -0.390625q0.34375 -0.078125 1.046875 -0.171875q1.421875 -0.171875 2.09375 -0.40625q0 -0.234375 0 -0.296875q0 -0.71875 -0.328125 -1.015625q-0.453125 -0.39060974 -1.34375 -0.39060974q-0.8125 0 -1.21875 0.29685974q-0.390625 0.28125 -0.578125 1.015625l-1.140625 -0.15625q0.15625 -0.734375 0.515625 -1.1874847q0.359375 -0.453125 1.03125 -0.6875q0.671875 -0.25 1.5625 -0.25q0.890625 0 1.4375 0.203125q0.5625 0.203125 0.8125 0.53125q0.265625 0.3125 0.375 0.79685974q0.046875 0.296875 0.046875 1.078125l0 1.5625q0 1.625 0.078125 2.0625q0.078125 0.4375 0.296875 0.828125l-1.21875 0q-0.1875 -0.359375 -0.234375 -0.859375zm-0.09375 -2.609375q-0.640625 0.265625 -1.921875 0.4375q-0.71875 0.109375 -1.015625 0.25q-0.296875 0.125 -0.46875 0.375q-0.15625 0.25 -0.15625 0.546875q0 0.46875 0.34375 0.78125q0.359375 0.3125 1.046875 0.3125q0.671875 0 1.203125 -0.296875q0.53125 -0.296875 0.78125 -0.8125q0.1875 -0.390625 0.1875 -1.171875l0 -0.421875zm2.7718506 4.046875l1.140625 0.15625q0.078125 0.53125 0.40625 0.78125q0.4375 0.3125 1.1875 0.3125q0.8125 0 1.25 -0.328125q0.453125 -0.3125 0.609375 -0.90625q0.09375 -0.359375 0.078125 -1.5q-0.765625 0.90625 -1.90625 0.90625q-1.4375 0 -2.21875 -1.03125q-0.78125 -1.03125 -0.78125 -2.46875q0 -0.984375 0.359375 -1.8125q0.359375 -0.84373474 1.03125 -1.2968597q0.6875 -0.453125 1.609375 -0.453125q1.21875 0 2.015625 0.984375l0 -0.828125l1.078125 0l0 5.9687347q0 1.609375 -0.328125 2.28125q-0.328125 0.6875 -1.046875 1.078125q-0.703125 0.390625 -1.75 0.390625q-1.234375 0 -2.0 -0.5625q-0.75 -0.5625 -0.734375 -1.671875zm0.984375 -4.15625q0 1.359375 0.53125 1.984375q0.546875 0.625 1.359375 0.625q0.796875 0 1.34375 -0.625q0.546875 -0.625 0.546875 -1.953125q0 -1.265625 -0.5625 -1.90625q-0.5625 -0.64060974 -1.359375 -0.64060974q-0.765625 0 -1.3125 0.64060974q-0.546875 0.625 -0.546875 1.875zm11.381226 1.359375l1.203125 0.140625q-0.28125 1.0625 -1.0625 1.65625q-0.765625 0.578125 -1.96875 0.578125q-1.515625 0 -2.40625 -0.9375q-0.890625 -0.9375 -0.890625 -2.609375q0 -1.75 0.890625 -2.7031097q0.90625 -0.96875 2.34375 -0.96875q1.390625 0 2.265625 0.9375q0.875 0.93748474 0.875 2.6562347q0 0.109375 0 0.3125l-5.15625 0q0.0625 1.140625 0.640625 1.75q0.578125 0.59375 1.4375 0.59375q0.65625 0 1.109375 -0.328125q0.453125 -0.34375 0.71875 -1.078125zm-3.84375 -1.90625l3.859375 0q-0.078125 -0.859375 -0.4375 -1.296875q-0.5625 -0.68748474 -1.453125 -0.68748474q-0.8125 0 -1.359375 0.54685974q-0.546875 0.53125 -0.609375 1.4375z"
       fill-rule="nonzero"
       id="path118" />
    <path
       fill="#000000"
       fill-opacity="0.0"
       d="m120.0 416.0l88.0 0l0 35.55905l-88.0 0z"
       fill-rule="evenodd"
       id="path120" />
    <path
       fill="#000000"
       d="m163.20715 437.8l0 -9.546875l1.25 0l0 9.546875l-1.25 0zm3.3279877 0l0 -6.90625l1.046875 0l0 0.96875q0.328125 -0.515625 0.859375 -0.8125q0.546875 -0.3125 1.234375 -0.3125q0.78125 0 1.265625 0.3125q0.484375 0.3125 0.6875 0.890625q0.828125 -1.203125 2.140625 -1.203125q1.03125 0 1.578125 0.578125q0.5625 0.5625 0.5625 1.734375l0 4.75l-1.171875 0l0 -4.359375q0 -0.703125 -0.125 -1.0q-0.109375 -0.3125 -0.40625 -0.5q-0.296875 -0.1875 -0.703125 -0.1875q-0.71875 0 -1.203125 0.484375q-0.484375 0.484375 -0.484375 1.546875l0 4.015625l-1.171875 0l0 -4.484375q0 -0.78125 -0.296875 -1.171875q-0.28125 -0.390625 -0.921875 -0.390625q-0.5 0 -0.921875 0.265625q-0.421875 0.25 -0.609375 0.75q-0.1875 0.5 -0.1875 1.453125l0 3.578125l-1.171875 0zm15.618057 -0.859375q-0.65625 0.5625 -1.265625 0.796875q-0.59375 0.21875 -1.28125 0.21875q-1.140625 0 -1.75 -0.546875q-0.609375 -0.5625 -0.609375 -1.4375q0 -0.5 0.21875 -0.921875q0.234375 -0.421875 0.609375 -0.671875q0.375 -0.25 0.84375 -0.390625q0.34375 -0.078125 1.046875 -0.171875q1.421875 -0.171875 2.09375 -0.40625q0 -0.234375 0 -0.296875q0 -0.71875 -0.328125 -1.015625q-0.453125 -0.390625 -1.34375 -0.390625q-0.8125 0 -1.21875 0.296875q-0.390625 0.28125 -0.578125 1.015625l-1.140625 -0.15625q0.15625 -0.734375 0.515625 -1.1875q0.359375 -0.453125 1.03125 -0.6875q0.671875 -0.25 1.5625 -0.25q0.890625 0 1.4375 0.203125q0.5625 0.203125 0.8125 0.53125q0.265625 0.3125 0.375 0.796875q0.046875 0.296875 0.046875 1.078125l0 1.5625q0 1.625 0.078125 2.0625q0.078125 0.4375 0.296875 0.828125l-1.21875 0q-0.1875 -0.359375 -0.234375 -0.859375zm-0.09375 -2.609375q-0.640625 0.265625 -1.921875 0.4375q-0.71875 0.109375 -1.015625 0.25q-0.296875 0.125 -0.46875 0.375q-0.15625 0.25 -0.15625 0.546875q0 0.46875 0.34375 0.78125q0.359375 0.3125 1.046875 0.3125q0.671875 0 1.203125 -0.296875q0.53125 -0.296875 0.78125 -0.8125q0.1875 -0.390625 0.1875 -1.171875l0 -0.421875zm2.7718506 4.046875l1.140625 0.15625q0.078125 0.53125 0.40625 0.78125q0.4375 0.3125 1.1875 0.3125q0.8125 0 1.25 -0.328125q0.453125 -0.3125 0.609375 -0.90625q0.09375 -0.359375 0.078125 -1.5q-0.765625 0.90625 -1.90625 0.90625q-1.4375 0 -2.21875 -1.03125q-0.78125 -1.03125 -0.78125 -2.46875q0 -0.984375 0.359375 -1.8125q0.359375 -0.84375 1.03125 -1.296875q0.6875 -0.453125 1.609375 -0.453125q1.21875 0 2.015625 0.984375l0 -0.828125l1.078125 0l0 5.96875q0 1.609375 -0.328125 2.28125q-0.328125 0.6875 -1.046875 1.078125q-0.703125 0.390625 -1.75 0.390625q-1.234375 0 -2.0 -0.5625q-0.75 -0.5625 -0.734375 -1.671875zm0.984375 -4.15625q0 1.359375 0.53125 1.984375q0.546875 0.625 1.359375 0.625q0.796875 0 1.34375 -0.625q0.546875 -0.625 0.546875 -1.953125q0 -1.265625 -0.5625 -1.90625q-0.5625 -0.640625 -1.359375 -0.640625q-0.765625 0 -1.3125 0.640625q-0.546875 0.625 -0.546875 1.875zm11.381226 1.359375l1.203125 0.140625q-0.28125 1.0625 -1.0625 1.65625q-0.765625 0.578125 -1.96875 0.578125q-1.515625 0 -2.40625 -0.9375q-0.890625 -0.9375 -0.890625 -2.609375q0 -1.75 0.890625 -2.703125q0.90625 -0.96875 2.34375 -0.96875q1.390625 0 2.265625 0.9375q0.875 0.9375 0.875 2.65625q0 0.109375 0 0.3125l-5.15625 0q0.0625 1.140625 0.640625 1.75q0.578125 0.59375 1.4375 0.59375q0.65625 0 1.109375 -0.328125q0.453125 -0.34375 0.71875 -1.078125zm-3.84375 -1.90625l3.859375 0q-0.078125 -0.859375 -0.4375 -1.296875q-0.5625 -0.6875 -1.453125 -0.6875q-0.8125 0 -1.359375 0.546875q-0.546875 0.53125 -0.609375 1.4375z"
       fill-rule="nonzero"
       id="path122" />
  </g>
</svg>
