<?xml version="1.0" encoding="UTF-8" standalone="no"?>
<!DOCTYPE svg PUBLIC "-//W3C//DTD SVG 1.1//EN" "http://www.w3.org/Graphics/SVG/1.1/DTD/svg11.dtd">
<!-- Generated by Microsoft Visio, SVG Export Caliptra_release_flow.svg Page-1 -->
<svg xmlns="http://www.w3.org/2000/svg" xmlns:xlink="http://www.w3.org/1999/xlink" xmlns:ev="http://www.w3.org/2001/xml-events"
		xmlns:v="http://schemas.microsoft.com/visio/2003/SVGExtensions/" width="11in" height="8.5in" viewBox="0 0 792 612"
		xml:space="preserve" color-interpolation-filters="sRGB" class="st27">
	<v:documentProperties v:langID="1033" v:viewMarkup="false">
		<v:userDefs>
			<v:ud v:nameU="msvNoAutoConnect" v:val="VT0(1):26"/>
			<v:ud v:nameU="msvWarnOnPersonalInfo" v:val="VT0(0):5"/>
		</v:userDefs>
	</v:documentProperties>

	<style type="text/css">
	<![CDATA[
		.st1 {stroke:#505050;stroke-linecap:round;stroke-linejoin:round;stroke-width:1}
		.st2 {fill:#4672c4;stroke:#c7c8c8;stroke-width:0.25}
		.st3 {fill:none;stroke:none;stroke-width:0.25}
		.st4 {fill:#7f7f7f;font-family:Calibri;font-size:1.00001em}
		.st5 {marker-end:url(#mrkr4-19);stroke:#4672c4;stroke-linecap:round;stroke-linejoin:round;stroke-width:1}
		.st6 {fill:#4672c4;fill-opacity:1;stroke:#4672c4;stroke-opacity:1;stroke-width:0.28409090909091}
		.st7 {fill:#ffffff;stroke:none;stroke-linecap:butt;stroke-width:7.2}
		.st8 {fill:#3c63ac;font-family:Calibri;font-size:0.666664em}
		.st9 {fill:#ff0000;font-family:Calibri;font-size:0.666664em}
		.st10 {fill:#7f7f7f;stroke:#deebf6;stroke-width:0.25}
		.st11 {fill:#ed7d31}
		.st12 {marker-end:url(#mrkr4-35);stroke:#ed7d31;stroke-dasharray:7,5;stroke-linecap:round;stroke-linejoin:round;stroke-width:1}
		.st13 {stroke:#ed7d31;stroke-dasharray:7,5;stroke-linecap:round;stroke-linejoin:round;stroke-width:1}
		.st14 {fill:#ed7d31;fill-opacity:1;stroke:#ed7d31;stroke-opacity:1;stroke-width:0.28409090909091}
		.st15 {fill:#ed7d31;font-family:Calibri;font-size:0.833336em}
		.st16 {fill:#7f7f7f;font-family:Calibri;font-size:2.33334em;font-weight:bold}
		.st17 {fill:#4672c4;stroke:#c7c8c8;stroke-linecap:butt;stroke-width:0.25}
		.st18 {fill:#4672c4;font-family:Calibri;font-size:0.833336em}
		.st19 {font-size:1em}
		.st20 {fill:#7697d3;stroke:#cdcdcd;stroke-width:0.25}
		.st21 {fill:#ffffff;stroke:#70ad47;stroke-width:0.25}
		.st22 {fill:#70ad47;font-family:Calibri;font-size:1.16666em}
		.st23 {marker-end:url(#mrkr4-68);stroke:#4672c4;stroke-dasharray:7,5;stroke-linecap:round;stroke-linejoin:round;stroke-width:1}
		.st24 {marker-end:url(#mrkr4-68);stroke:#4672c4;stroke-linecap:round;stroke-linejoin:round;stroke-width:1}
		.st25 {fill:#3c63ac;stroke:#30518f;stroke-width:0.75}
		.st26 {fill:#7f7f7f;stroke:#c7c8c8;stroke-width:0.25}
		.st27 {fill:none;fill-rule:evenodd;font-size:12px;overflow:visible;stroke-linecap:square;stroke-miterlimit:3}
	]]>
	</style>

	<defs id="Markers">
		<g id="lend4">
			<path d="M 2 1 L 0 0 L 2 -1 L 2 1 " style="stroke:none"/>
		</g>
		<marker id="mrkr4-19" class="st6" v:arrowType="4" v:arrowSize="2" v:setback="6.68" refX="-6.68" orient="auto"
				markerUnits="strokeWidth" overflow="visible">
			<use xlink:href="#lend4" transform="scale(-3.52,-3.52) "/>
		</marker>
		<marker id="mrkr4-35" class="st14" v:arrowType="4" v:arrowSize="2" v:setback="6.68" refX="-6.68" orient="auto"
				markerUnits="strokeWidth" overflow="visible">
			<use xlink:href="#lend4" transform="scale(-3.52,-3.52) "/>
		</marker>
		<marker id="mrkr4-68" class="st6" v:arrowType="4" v:arrowSize="2" v:setback="7.04" refX="-7.04" orient="auto"
				markerUnits="strokeWidth" overflow="visible">
			<use xlink:href="#lend4" transform="scale(-3.52,-3.52) "/>
		</marker>
	</defs>
	<g v:mID="0" v:index="1" v:groupContext="foregroundPage">
		<v:userDefs>
			<v:ud v:nameU="msvThemeOrder" v:val="VT0(0):26"/>
		</v:userDefs>
		<title>Page-1</title>
		<v:pageProperties v:drawingScale="1" v:pageScale="1" v:drawingUnits="19" v:shadowOffsetX="9" v:shadowOffsetY="-9"/>
		<v:layer v:name="Azure" v:index="0"/>
		<v:layer v:name="Connector" v:index="1"/>
		<v:layer v:name="Flowchart" v:index="2"/>
		<g id="shape2-1" v:mID="2" v:groupContext="shape" v:layerMember="0" transform="translate(105.75,-375.75)">
			<title>Line 1.2</title>
			<path d="M0 612 L359.04 612" class="st1"/>
		</g>
		<g id="shape3-4" v:mID="3" v:groupContext="shape" transform="translate(250.866,-366.739)">
			<title>Circle.3</title>
			<v:userDefs>
				<v:ud v:nameU="visVersion" v:val="VT0(15):26"/>
			</v:userDefs>
			<path d="M0 601.87 A10.134 10.134 0 0 1 20.27 601.87 A10.134 10.134 0 1 1 0 601.87 Z" class="st2"/>
		</g>
		<g id="shape13-6" v:mID="13" v:groupContext="shape" transform="translate(117.511,-381.6)">
			<title>Sheet.13</title>
			<desc>Caliptra RTL</desc>
			<v:textBlock v:margins="rect(4,4,4,4)"/>
			<v:textRect cx="37.062" cy="604.8" width="74.13" height="14.4"/>
			<rect x="0" y="597.6" width="74.124" height="14.4" class="st3"/>
			<text x="8.05" y="608.4" class="st4" v:langID="1033"><v:paragraph v:horizAlign="1"/><v:tabList/>Caliptra RTL</text>		</g>
		<g id="shape15-9" v:mID="15" v:groupContext="shape" v:layerMember="0" transform="translate(108.964,-265.248)">
			<title>Line 1.15</title>
			<path d="M0 612 L359.04 612" class="st1"/>
		</g>
		<g id="shape16-12" v:mID="16" v:groupContext="shape" transform="translate(246.366,-211.921)">
			<title>Circle.16</title>
			<v:userDefs>
				<v:ud v:nameU="visVersion" v:val="VT0(15):26"/>
			</v:userDefs>
			<path d="M0 601.87 A10.134 10.134 0 0 1 20.27 601.87 A10.134 10.134 0 1 1 0 601.87 Z" class="st2"/>
		</g>
		<g id="shape17-14" v:mID="17" v:groupContext="shape" v:layerMember="1"
				transform="translate(500.323,-171.243) rotate(30.8613)">
			<title>Line-curve connector.17</title>
			<desc>release-N</desc>
			<v:userDefs>
				<v:ud v:nameU="AntiScale" v:val="VT0(1):26"/>
				<v:ud v:nameU="visVersion" v:val="VT0(15):26"/>
			</v:userDefs>
			<v:textBlock v:margins="rect(4,4,4,4)"/>
			<v:textRect cx="22.8906" cy="636.477" width="40.96" height="17.6036" transform="rotate(-30.8613)"/>
			<path d="M0 612 L3.27 622.27 L7.9 629.76 L13.9 634.48 L21.26 636.42 L29.99 635.59 L40.09 631.97 L51.56 625.58 L64.39
						 616.42 L64.67 616.19" class="st5"/>
			<rect v:rectContext="textBkgnd" x="-322.408" y="553.301" width="31.1402" height="9.59985" transform="rotate(-30.8613)"
					class="st7"/>
			<text x="-322.41" y="560.5" transform="rotate(-30.8613)" class="st8" v:langID="1033"><v:paragraph v:horizAlign="1"/><v:tabList/>release-N</text>		</g>
		<g id="shape18-22" v:mID="18" v:groupContext="shape" transform="translate(257.717,-200.506)">
			<title>Sheet.18</title>
			<desc>RC N.0</desc>
			<v:textBlock v:margins="rect(4,4,4,4)"/>
			<v:textRect cx="16.56" cy="606.96" width="33.13" height="10.08"/>
			<rect x="0" y="601.92" width="33.12" height="10.08" class="st3"/>
			<text x="5.73" y="609.36" class="st9" v:langID="1033"><v:paragraph v:horizAlign="1"/><v:tabList/>RC N.0</text>		</g>
		<g id="shape19-25" v:mID="19" v:groupContext="shape" transform="translate(283.5,-255.366)">
			<title>Circle.19</title>
			<v:userDefs>
				<v:ud v:nameU="visVersion" v:val="VT0(15):26"/>
			</v:userDefs>
			<path d="M0 601.87 A10.134 10.134 0 0 1 20.27 601.87 A10.134 10.134 0 1 1 0 601.87 Z" class="st10"/>
		</g>
		<g id="shape22-27" v:mID="22" v:groupContext="shape" transform="translate(117.511,-271.786)">
			<title>Sheet.22</title>
			<desc>Caliptra SW</desc>
			<v:textBlock v:margins="rect(4,4,4,4)"/>
			<v:textRect cx="37.062" cy="604.8" width="74.13" height="14.4"/>
			<rect x="0" y="597.6" width="74.124" height="14.4" class="st3"/>
			<text x="8.66" y="608.4" class="st4" v:langID="1033"><v:paragraph v:horizAlign="1"/><v:tabList/>Caliptra SW</text>		</g>
		<g id="shape29-30" v:mID="29" v:groupContext="shape" v:layerMember="1"
				transform="translate(-362.353,363.184) rotate(-88.1653)">
			<title>Arced Line Arrow.29</title>
			<v:userDefs>
				<v:ud v:nameU="Scale" v:val="VT0(1):26"/>
				<v:ud v:nameU="AntiScale" v:val="VT0(1):26"/>
				<v:ud v:nameU="visVersion" v:val="VT0(17):26"/>
			</v:userDefs>
			<path d="M135.46 610.04 L134.48 612.59 L140.56 612 L136.44 607.49 L135.46 610.04 Z" class="st11"/>
			<path d="M5.1 610.04 A188.933 188.933 0 0 1 128.81 607.74 L129.15 607.85" class="st12"/>
			<path d="M135.46 610.04 L134.48 612.59 L140.56 612 L136.44 607.49 L135.46 610.04" class="st13"/>
		</g>
		<g id="shape30-37" v:mID="30" v:groupContext="shape" transform="translate(232.852,-273.96)">
			<title>Sheet.30</title>
			<desc>git submodule</desc>
			<v:textBlock v:margins="rect(4,4,4,4)"/>
			<v:textRect cx="55.1484" cy="600.48" width="110.3" height="23.04"/>
			<rect x="0" y="588.96" width="110.297" height="23.04" class="st3"/>
			<text x="26.11" y="603.48" class="st15" v:langID="1033"><v:paragraph v:horizAlign="1"/><v:tabList/>git submodule</text>		</g>
		<g id="shape99-40" v:mID="99" v:groupContext="shape" transform="translate(216,-484.56)">
			<title>Sheet.99</title>
			<desc>HW Release Flow</desc>
			<v:textBlock v:margins="rect(4,4,4,4)"/>
			<v:textRect cx="164.16" cy="593.28" width="328.32" height="37.44"/>
			<rect x="0" y="574.56" width="328.32" height="37.44" class="st3"/>
			<text x="63.53" y="601.68" class="st16" v:langID="1033"><v:paragraph v:horizAlign="1"/><v:tabList/>HW Release Flow</text>		</g>
		<g id="group139-43" transform="translate(520.759,-204.716)" v:mID="139" v:groupContext="group">
			<v:userDefs>
				<v:ud v:nameU="Monoline" v:prompt="" v:val="VT0(0):5"/>
			</v:userDefs>
			<title>Filing Box Archive.139</title>
			<desc>Release N (Nightly)</desc>
			<g id="shape140-44" v:mID="140" v:groupContext="shape">
				<title>Sheet.140</title>
				<v:userDefs>
					<v:ud v:nameU="msvDisableCustomConnectionPoints" v:prompt="" v:val="VT0(1):5"/>
				</v:userDefs>
				<path d="M40.93 595.18 L23.87 595.18 L23.87 590.38 L40.93 590.38 L40.93 595.18 ZM2.56 585.57 L2.56 612 L62.24 612
							 L62.24 585.57 L2.56 585.57 ZM0 583.17 L64.8 583.17 L64.8 575.97 L0 575.97 L0 583.17 Z" class="st17"/>
			</g>
			<g id="shape141-46" v:mID="141" v:groupContext="shape" transform="translate(0.00426319,-0.00300287)">
				<title>Sheet.141</title>
				<v:userDefs>
					<v:ud v:nameU="msvDisableCustomConnectionPoints" v:prompt="" v:val="VT0(1):5"/>
				</v:userDefs>
			</g>
			<g id="shape139-48" v:mID="139" v:groupContext="groupContent">
				<v:textBlock v:margins="rect(4,4,4,4)"/>
				<v:textRect cx="32.4" cy="628.002" width="72" height="32.0037"/>
				<text x="12.37" y="625" class="st18" v:langID="1033"><v:paragraph v:horizAlign="1"/><v:tabList/>Release N<v:newlineChar/><tspan
							x="14.93" dy="1.2em" class="st19">(Nightly)</tspan></text>			</g>
		</g>
		<g id="shape143-51" v:mID="143" v:groupContext="shape"
				transform="translate(509.677,-222.741) rotate(-0.311106) scale(-1,1)">
			<title>Process Arrow.143</title>
			<v:userDefs>
				<v:ud v:nameU="visVersion" v:val="VT0(17):26"/>
				<v:ud v:nameU="ArrowType" v:prompt="" v:val="VT0(2):26"/>
			</v:userDefs>
			<path d="M0 612 L27.83 605.52 L27.83 607.77 L138.12 607.77 L133.89 612 L138.12 616.23 L27.83 616.23 L27.83 618.48 L0
						 612 Z" class="st20"/>
		</g>
		<g id="shape152-53" v:mID="152" v:groupContext="shape" transform="translate(383.389,-204.055)">
			<title>Sheet.152</title>
			<desc>Archive Collaterals</desc>
			<v:textBlock v:margins="rect(4,4,4,4)"/>
			<v:textRect cx="75.6108" cy="606.75" width="151.23" height="10.5"/>
			<rect x="0" y="601.5" width="151.222" height="10.5" class="st3"/>
			<text x="4" y="610.35" class="st4" v:langID="1033"><v:paragraph/><v:tabList/>Archive Collaterals</text>		</g>
		<g id="shape221-56" v:mID="221" v:groupContext="shape" v:layerMember="2" transform="translate(506.921,-308.751)">
			<title>Process group.221</title>
			<desc>RTL DV Checkout</desc>
			<v:userDefs>
				<v:ud v:nameU="visVersion" v:prompt="" v:val="VT0(15):26"/>
			</v:userDefs>
			<v:textBlock v:margins="rect(2,2,2,2)"/>
			<v:textRect cx="46.2375" cy="588.881" width="92.48" height="46.2375"/>
			<path d="M0 612 L80.92 612 L92.47 588.88 L80.92 565.76 L0 565.76 L11.56 588.88 L0 612 Z" class="st21"/>
			<text x="26.22" y="584.68" class="st22" v:langID="1033"><v:paragraph v:horizAlign="1"/><v:tabList/>RTL DV <tspan
						x="19.49" dy="1.2em" class="st19">Checkout</tspan></text>		</g>
		<g id="shape226-60" v:mID="226" v:groupContext="shape" v:layerMember="2" transform="translate(293.472,-204.055)">
			<title>Process group.226</title>
			<desc>SW CI</desc>
			<v:userDefs>
				<v:ud v:nameU="visVersion" v:prompt="" v:val="VT0(15):26"/>
			</v:userDefs>
			<v:textBlock v:margins="rect(2,2,2,2)"/>
			<v:textRect cx="36" cy="594" width="72" height="36"/>
			<path d="M0 612 L63 612 L72 594 L63 576 L0 576 L9 594 L0 612 Z" class="st21"/>
			<text x="19.48" y="598.2" class="st22" v:langID="1033"><v:paragraph v:horizAlign="1"/><v:tabList/>SW CI</text>		</g>
		<g id="shape249-63" v:mID="249" v:groupContext="shape" v:layerMember="1" transform="translate(268.167,-369.706)">
			<title>Dynamic connector.249</title>
			<path d="M0 612 L9.72 612 L9.72 649.84 L243.27 649.84" class="st23"/>
		</g>
		<g id="shape252-69" v:mID="252" v:groupContext="shape" transform="translate(668.25,-372.75)">
			<title>Sheet.252</title>
			<desc>Caliptra Major HW Release</desc>
			<v:textBlock v:margins="rect(4,4,4,4)"/>
			<v:textRect cx="37.062" cy="606.75" width="74.13" height="10.5"/>
			<rect x="0" y="601.5" width="74.124" height="10.5" class="st3"/>
			<text x="4" y="595.95" class="st4" v:langID="1033"><v:paragraph/><v:tabList/>Caliptra <tspan x="4" dy="1.2em"
						class="st19">Major HW </tspan><tspan x="4" dy="1.2em" class="st19">Release</tspan></text>		</g>
		<g id="shape280-74" v:mID="280" v:groupContext="shape" v:layerMember="1" transform="translate(266.634,-231.055)">
			<title>Dynamic connector.280</title>
			<path d="M0 621 L24.5 621" class="st24"/>
		</g>
		<g id="shape283-79" v:mID="283" v:groupContext="shape" v:layerMember="0" transform="translate(108,-432)">
			<title>Line 1.283</title>
			<path d="M0 612 L627.23 612" class="st1"/>
		</g>
		<g id="shape284-82" v:mID="284" v:groupContext="shape" transform="translate(116.547,-438.55)">
			<title>Sheet.284</title>
			<desc>Caliptra Spec</desc>
			<v:textBlock v:margins="rect(4,4,4,4)"/>
			<v:textRect cx="37.062" cy="604.8" width="74.13" height="14.4"/>
			<rect x="0" y="597.6" width="74.124" height="14.4" class="st3"/>
			<text x="5.32" y="608.4" class="st4" v:langID="1033"><v:paragraph v:horizAlign="1"/><v:tabList/>Caliptra Spec</text>		</g>
		<g id="shape285-85" v:mID="285" v:groupContext="shape" transform="translate(1212.88,288) rotate(90) scale(-1,1)">
			<title>Bent Arrow</title>
			<v:userDefs>
				<v:ud v:nameU="visVersion" v:prompt="" v:val="VT0(15):26"/>
			</v:userDefs>
			<path d="M0 612 L11.25 612 L11.25 590.31 A20.8059 20.8059 0 0 1 32.06 569.5 L69.75 569.5 L69.75 574 L85.5 563.88 L69.75
						 553.75 L69.75 558.25 L32.06 558.25 A32.0523 32.0523 -180 0 0 0 590.31 L0 612 Z" class="st25"/>
		</g>
		<g id="shape286-87" v:mID="286" v:groupContext="shape" transform="translate(129.366,-366.739)">
			<title>Circle.1</title>
			<v:userDefs>
				<v:ud v:nameU="visVersion" v:val="VT0(15):26"/>
			</v:userDefs>
			<path d="M0 601.87 A10.134 10.134 0 0 1 20.27 601.87 A10.134 10.134 0 1 1 0 601.87 Z" class="st26"/>
		</g>
		<g id="shape287-89" v:mID="287" v:groupContext="shape" transform="translate(638.857,-423)">
			<title>Circle.287</title>
			<v:userDefs>
				<v:ud v:nameU="visVersion" v:val="VT0(15):26"/>
			</v:userDefs>
			<path d="M0 601.87 A10.134 10.134 0 0 1 20.27 601.87 A10.134 10.134 0 1 1 0 601.87 Z" class="st2"/>
		</g>
		<g id="group288-91" transform="translate(611.929,-471.781)" v:mID="288" v:groupContext="group">
			<v:userDefs>
				<v:ud v:nameU="Monoline" v:prompt="" v:val="VT0(0):5"/>
			</v:userDefs>
			<title>Filing Box Archive.288</title>
			<desc>HW Release Package</desc>
			<g id="shape289-92" v:mID="289" v:groupContext="shape">
				<title>Sheet.289</title>
				<v:userDefs>
					<v:ud v:nameU="msvDisableCustomConnectionPoints" v:prompt="" v:val="VT0(1):5"/>
				</v:userDefs>
				<path d="M46.82 592.76 L27.31 592.76 L27.31 587.27 L46.82 587.27 L46.82 592.76 ZM2.93 581.77 L2.93 612 L71.2 612
							 L71.2 581.77 L2.93 581.77 ZM0 579.02 L74.12 579.02 L74.12 570.78 L0 570.78 L0 579.02 Z" class="st17"/>
			</g>
			<g id="shape290-94" v:mID="290" v:groupContext="shape" transform="translate(0.00487661,-0.00343495)">
				<title>Sheet.290</title>
				<v:userDefs>
					<v:ud v:nameU="msvDisableCustomConnectionPoints" v:prompt="" v:val="VT0(1):5"/>
				</v:userDefs>
			</g>
			<g id="shape288-96" v:mID="288" v:groupContext="groupContent">
				<v:textBlock v:margins="rect(4,4,4,4)"/>
				<v:textRect cx="37.062" cy="628.002" width="74.13" height="32.0037"/>
				<text x="12.69" y="625" class="st18" v:langID="1033"><v:paragraph v:horizAlign="1"/><v:tabList/>HW Release <tspan
							x="20.46" dy="1.2em" class="st19">Package</tspan></text>			</g>
		</g>
		<g id="shape292-99" v:mID="292" v:groupContext="shape" v:layerMember="1" transform="translate(544.169,-240.75)">
			<title>Dynamic connector</title>
			<path d="M8.99 612 L9.01 553.79" class="st23"/>
		</g>
		<g id="shape293-104" v:mID="293" v:groupContext="shape" transform="translate(558,-267.75)">
			<title>Sheet.293</title>
			<desc>Manual for Major releases</desc>
			<v:textBlock v:margins="rect(4,4,4,4)"/>
			<v:textRect cx="30.375" cy="601.875" width="60.75" height="20.25"/>
			<rect x="0" y="591.75" width="60.75" height="20.25" class="st3"/>
			<text x="4" y="591.08" class="st4" v:langID="1033"><v:paragraph/><v:tabList/>Manual <tspan x="4" dy="1.2em"
						class="st19">for Major </tspan><tspan x="4" dy="1.2em" class="st19">releases</tspan></text>		</g>
		<g id="shape297-109" v:mID="297" v:groupContext="shape" transform="translate(363.416,-255.366)">
			<title>Circle.297</title>
			<v:userDefs>
				<v:ud v:nameU="visVersion" v:val="VT0(15):26"/>
			</v:userDefs>
			<path d="M0 601.87 A10.134 10.134 0 0 1 20.27 601.87 A10.134 10.134 0 1 1 0 601.87 Z" class="st10"/>
		</g>
		<g id="shape299-111" v:mID="299" v:groupContext="shape" transform="translate(447.732,-255.114)">
			<title>Circle.299</title>
			<v:userDefs>
				<v:ud v:nameU="visVersion" v:val="VT0(15):26"/>
			</v:userDefs>
			<path d="M0 601.87 A10.134 10.134 0 0 1 20.27 601.87 A10.134 10.134 0 1 1 0 601.87 Z" class="st10"/>
		</g>
		<g id="shape14-113" v:mID="14" v:groupContext="shape" transform="translate(183.242,-254.746)">
			<title>Circle.14</title>
			<v:userDefs>
				<v:ud v:nameU="visVersion" v:val="VT0(15):26"/>
			</v:userDefs>
			<path d="M0 601.25 A10.7541 10.7541 0 0 1 21.51 601.25 A10.7541 10.7541 0 1 1 0 601.25 Z" class="st26"/>
		</g>
		<g id="shape305-115" v:mID="305" v:groupContext="shape" transform="translate(216,-360)">
			<title>Sheet.305</title>
			<desc>HEAD</desc>
			<v:textBlock v:margins="rect(4,4,4,4)"/>
			<v:textRect cx="16.56" cy="606.96" width="33.13" height="10.08"/>
			<rect x="0" y="601.92" width="33.12" height="10.08" class="st3"/>
			<text x="7.34" y="609.36" class="st9" v:langID="1033"><v:paragraph v:horizAlign="1"/><v:tabList/>HEAD</text>		</g>
	</g>
</svg>
