<svg version="1.1" viewBox="0.0 0.0 402.62467191601047 170.11811023622047" fill="none" stroke="none" stroke-linecap="square" stroke-miterlimit="10" xmlns:xlink="http://www.w3.org/1999/xlink" xmlns="http://www.w3.org/2000/svg"><clipPath id="p.0"><path d="m0 0l402.62466 0l0 170.1181l-402.62466 0l0 -170.1181z" clip-rule="nonzero"/></clipPath><g clip-path="url(#p.0)"><path fill="#000000" fill-opacity="0.0" d="m0 0l402.62466 0l0 170.1181l-402.62466 0z" fill-rule="evenodd"/><path fill="#000000" fill-opacity="0.0" d="m178.4078 40.271984l0 45.19685" fill-rule="evenodd"/><path stroke="#999999" stroke-width="1.0" stroke-linejoin="round" stroke-linecap="butt" d="m178.4078 40.271984l0 45.19685" fill-rule="evenodd"/><path fill="#000000" fill-opacity="0.0" d="m178.4078 80.27199l0 45.196846" fill-rule="evenodd"/><path stroke="#999999" stroke-width="1.0" stroke-linejoin="round" stroke-linecap="butt" d="m178.4078 80.27199l0 45.196846" fill-rule="evenodd"/><path fill="#000000" fill-opacity="0.0" d="m186.4078 80.27199l0 45.196846" fill-rule="evenodd"/><path stroke="#999999" stroke-width="1.0" stroke-linejoin="round" stroke-linecap="butt" d="m186.4078 80.27199l0 45.196846" fill-rule="evenodd"/><path fill="#000000" fill-opacity="0.0" d="m191.66765 119.98852l5.480316 0l0 5.480316l-5.480316 0z" fill-rule="evenodd"/><path fill="#000000" fill-opacity="0.0" d="m204.92749 134.23354l5.480316 0l0 5.480316l-5.480316 0z" fill-rule="evenodd"/><path fill="#000000" fill-opacity="0.0" d="m194.4078 80.27199l0 45.196846" fill-rule="evenodd"/><path stroke="#999999" stroke-width="1.0" stroke-linejoin="round" stroke-linecap="butt" d="m194.4078 80.27199l0 45.196846" fill-rule="evenodd"/><path fill="#000000" fill-opacity="0.0" d="m194.4078 125.468834c0 5.7480392 5.259842 11.496071 10.519684 11.496071" fill-rule="evenodd"/><path stroke="#999999" stroke-width="1.0" stroke-linejoin="round" stroke-linecap="butt" d="m194.4078 125.468834c0 5.7480392 5.259842 11.496071 10.519684 11.496071" fill-rule="evenodd"/><path fill="#d9ead3" d="m141.00487 63.73252l0 0c0 -2.0317001 1.6470184 -3.6787148 3.678711 -3.6787148l70.53235 0c0.975647 0 1.9113464 0.38757706 2.601242 1.0774689c0.68989563 0.6898918 1.0774689 1.6255875 1.0774689 2.6012459l0 21.492966c0 2.0317001 -1.6470184 3.678711 -3.678711 3.678711l-70.53235 0c-2.0316925 0 -3.678711 -1.6470108 -3.678711 -3.678711z" fill-rule="evenodd"/><path stroke="#999999" stroke-width="1.0" stroke-linejoin="round" stroke-linecap="butt" d="m141.00487 63.73252l0 0c0 -2.0317001 1.6470184 -3.6787148 3.678711 -3.6787148l70.53235 0c0.975647 0 1.9113464 0.38757706 2.601242 1.0774689c0.68989563 0.6898918 1.0774689 1.6255875 1.0774689 2.6012459l0 21.492966c0 2.0317001 -1.6470184 3.678711 -3.678711 3.678711l-70.53235 0c-2.0316925 0 -3.678711 -1.6470108 -3.678711 -3.678711z" fill-rule="evenodd"/><path fill="#000000" d="m153.34389 79.279l0 -8.75l1.390625 0l1.65625 4.6875q0.15625 0.4375 0.296875 0.875q0.140625 0.4375 0.296875 0.9375l0.046875 0q0.140625 -0.5 0.265625 -0.9375q0.140625 -0.4375 0.296875 -0.875l1.65625 -4.6875l1.375 0l0 8.75l-1.03125 0l0 -4.8125q0 -0.390625 0.015625 -0.859375q0.03125 -0.484375 0.0625 -0.953125q0.046875 -0.484375 0.078125 -0.859375l-0.046875 0l-0.6875 2.09375l-1.640625 4.53125l-0.8125 0l-1.640625 -4.53125l-0.671875 -2.09375l-0.0625 0q0.046875 0.375 0.078125 0.859375q0.03125 0.46875 0.0625 0.953125q0.03125 0.46875 0.03125 0.859375l0 4.8125l-1.015625 0zm12.205139 0.15625q-0.859375 0 -1.578125 -0.40625q-0.71875 -0.40625 -1.140625 -1.15625q-0.40625 -0.75 -0.40625 -1.828125q0 -1.0625 0.421875 -1.8125q0.4375 -0.765625 1.09375 -1.171875q0.671875 -0.421875 1.421875 -0.421875q0.828125 0 1.40625 0.390625q0.578125 0.375 0.875 1.0625q0.296875 0.671875 0.296875 1.59375q0 0.171875 -0.015625 0.328125q0 0.15625 -0.046875 0.3125l-4.65625 0l0 -0.859375l3.734375 0q0 -0.9375 -0.40625 -1.4375q-0.40625 -0.5 -1.171875 -0.5q-0.4375 0 -0.875 0.25q-0.421875 0.25 -0.703125 0.796875q-0.265625 0.546875 -0.265625 1.453125q0 0.828125 0.28125 1.390625q0.296875 0.546875 0.78125 0.84375q0.5 0.28125 1.09375 0.28125q0.453125 0 0.859375 -0.125q0.40625 -0.140625 0.75 -0.359375l0.390625 0.71875q-0.421875 0.28125 -0.953125 0.46875q-0.515625 0.1875 -1.1875 0.1875zm6.204483 0q-1.234375 0 -1.96875 -0.875q-0.71875 -0.890625 -0.71875 -2.5q0 -1.0625 0.390625 -1.828125q0.390625 -0.765625 1.03125 -1.171875q0.640625 -0.421875 1.390625 -0.421875q0.578125 0 0.984375 0.203125q0.40625 0.1875 0.828125 0.546875l-0.046875 -1.109375l0 -2.484375l1.09375 0l0 9.484375l-0.90625 0l-0.09375 -0.765625l-0.03125 0q-0.375 0.375 -0.890625 0.65625q-0.5 0.265625 -1.0625 0.265625zm0.234375 -0.921875q0.453125 0 0.84375 -0.21875q0.40625 -0.234375 0.8125 -0.671875l0 -3.375q-0.40625 -0.375 -0.796875 -0.53125q-0.375 -0.15625 -0.78125 -0.15625q-0.515625 0 -0.9375 0.3125q-0.421875 0.3125 -0.671875 0.875q-0.25 0.546875 -0.25 1.296875q0 1.15625 0.453125 1.8125q0.46875 0.65625 1.328125 0.65625zm4.9439545 0.765625l0 -6.484375l1.09375 0l0 6.484375l-1.09375 0zm0.546875 -7.8125q-0.3125 0 -0.53125 -0.1875q-0.203125 -0.203125 -0.203125 -0.53125q0 -0.3125 0.203125 -0.515625q0.21875 -0.203125 0.53125 -0.203125q0.3125 0 0.515625 0.203125q0.21875 0.203125 0.21875 0.515625q0 0.328125 -0.21875 0.53125q-0.203125 0.1875 -0.515625 0.1875zm4.216202 7.96875q-0.53125 0 -0.96875 -0.21875q-0.421875 -0.21875 -0.671875 -0.625q-0.25 -0.40625 -0.25 -0.984375q0 -1.09375 0.953125 -1.65625q0.953125 -0.5625 3.03125 -0.796875q0 -0.390625 -0.125 -0.765625q-0.109375 -0.375 -0.40625 -0.59375q-0.28125 -0.234375 -0.8125 -0.234375q-0.5625 0 -1.0625 0.21875q-0.484375 0.203125 -0.859375 0.453125l-0.4375 -0.75q0.296875 -0.203125 0.6875 -0.390625q0.40625 -0.203125 0.875 -0.328125q0.46875 -0.125 0.984375 -0.125q0.796875 0 1.28125 0.328125q0.5 0.328125 0.734375 0.9375q0.234375 0.59375 0.234375 1.40625l0 3.96875l-0.90625 0l-0.09375 -0.765625l-0.03125 0q-0.46875 0.375 -1.0 0.65625q-0.53125 0.265625 -1.15625 0.265625zm0.3125 -0.90625q0.484375 0 0.90625 -0.203125q0.421875 -0.21875 0.875 -0.640625l0 -1.734375q-1.09375 0.125 -1.734375 0.34375q-0.625 0.203125 -0.90625 0.515625q-0.265625 0.296875 -0.265625 0.71875q0 0.53125 0.328125 0.765625q0.328125 0.234375 0.796875 0.234375zm7.58609 0.75l0 -9.484375l1.09375 0l0 6.40625l0.03125 0l2.734375 -3.40625l1.234375 0l-2.15625 2.625l2.453125 3.859375l-1.203125 0l-1.890625 -3.125l-1.203125 1.421875l0 1.703125l-1.09375 0zm8.982391 0.15625q-0.859375 0 -1.578125 -0.40625q-0.71875 -0.40625 -1.140625 -1.15625q-0.40625 -0.75 -0.40625 -1.828125q0 -1.0625 0.421875 -1.8125q0.4375 -0.765625 1.09375 -1.171875q0.671875 -0.421875 1.421875 -0.421875q0.828125 0 1.40625 0.390625q0.578125 0.375 0.875 1.0625q0.296875 0.671875 0.296875 1.59375q0 0.171875 -0.015625 0.328125q0 0.15625 -0.046875 0.3125l-4.65625 0l0 -0.859375l3.734375 0q0 -0.9375 -0.40625 -1.4375q-0.40625 -0.5 -1.171875 -0.5q-0.4375 0 -0.875 0.25q-0.421875 0.25 -0.703125 0.796875q-0.265625 0.546875 -0.265625 1.453125q0 0.828125 0.28125 1.390625q0.296875 0.546875 0.78125 0.84375q0.5 0.28125 1.09375 0.28125q0.453125 0 0.859375 -0.125q0.40625 -0.140625 0.75 -0.359375l0.390625 0.71875q-0.421875 0.28125 -0.953125 0.46875q-0.515625 0.1875 -1.1875 0.1875zm4.1617737 2.625q-0.21875 0 -0.421875 -0.046875q-0.1875 -0.03125 -0.34375 -0.078125l0.25 -0.859375q0.109375 0.046875 0.234375 0.0625q0.125 0.015625 0.21875 0.015625q0.5625 0 0.90625 -0.390625q0.359375 -0.390625 0.5625 -0.984375l0.15625 -0.484375l-2.609375 -6.5l1.140625 0l1.3125 3.59375q0.15625 0.40625 0.3125 0.890625q0.171875 0.484375 0.3125 0.9375l0.0625 0q0.140625 -0.453125 0.28125 -0.921875q0.140625 -0.484375 0.265625 -0.90625l1.15625 -3.59375l1.0625 0l-2.4375 7.015625q-0.21875 0.640625 -0.546875 1.15625q-0.3125 0.515625 -0.765625 0.796875q-0.453125 0.296875 -1.109375 0.296875z" fill-rule="nonzero"/><path fill="#000000" fill-opacity="0.0" d="m186.4078 40.271984l0 45.19685" fill-rule="evenodd"/><path stroke="#999999" stroke-width="1.0" stroke-linejoin="round" stroke-linecap="butt" d="m186.4078 40.271984l0 45.19685" fill-rule="evenodd"/><path fill="#d9ead3" d="m146.30647 71.73252l0 0c0 -2.0317001 1.6470184 -3.6787186 3.678711 -3.6787186l70.53233 0c0.97566223 0 1.9113617 0.38758087 2.601242 1.0774765c0.68989563 0.689888 1.0774689 1.6255875 1.0774689 2.601242l0 21.492966c0 2.0317001 -1.6470032 3.678711 -3.678711 3.678711l-70.53233 0c-2.0316925 0 -3.678711 -1.6470108 -3.678711 -3.678711z" fill-rule="evenodd"/><path stroke="#999999" stroke-width="1.0" stroke-linejoin="round" stroke-linecap="butt" d="m146.30647 71.73252l0 0c0 -2.0317001 1.6470184 -3.6787186 3.678711 -3.6787186l70.53233 0c0.97566223 0 1.9113617 0.38758087 2.601242 1.0774765c0.68989563 0.689888 1.0774689 1.6255875 1.0774689 2.601242l0 21.492966c0 2.0317001 -1.6470032 3.678711 -3.678711 3.678711l-70.53233 0c-2.0316925 0 -3.678711 -1.6470108 -3.678711 -3.678711z" fill-rule="evenodd"/><path fill="#000000" d="m158.64548 87.279l0 -8.75l1.390625 0l1.65625 4.6875q0.15625 0.4375 0.296875 0.875q0.140625 0.4375 0.296875 0.9375l0.046875 0q0.140625 -0.5 0.265625 -0.9375q0.140625 -0.4375 0.296875 -0.875l1.65625 -4.6875l1.375 0l0 8.75l-1.03125 0l0 -4.8125q0 -0.390625 0.015625 -0.859375q0.03125 -0.484375 0.0625 -0.953125q0.046875 -0.484375 0.078125 -0.859375l-0.046875 0l-0.6875 2.09375l-1.640625 4.53125l-0.8125 0l-1.640625 -4.53125l-0.671875 -2.09375l-0.0625 0q0.046875 0.375 0.078125 0.859375q0.03125 0.46875 0.0625 0.953125q0.03125 0.46875 0.03125 0.859375l0 4.8125l-1.015625 0zm12.205139 0.15625q-0.859375 0 -1.578125 -0.40625q-0.71875 -0.40625 -1.140625 -1.15625q-0.40625 -0.75 -0.40625 -1.828125q0 -1.0625 0.421875 -1.8125q0.4375 -0.765625 1.09375 -1.171875q0.671875 -0.421875 1.421875 -0.421875q0.828125 0 1.40625 0.390625q0.578125 0.375 0.875 1.0625q0.296875 0.671875 0.296875 1.59375q0 0.171875 -0.015625 0.328125q0 0.15625 -0.046875 0.3125l-4.65625 0l0 -0.859375l3.734375 0q0 -0.9375 -0.40625 -1.4375q-0.40625 -0.5 -1.171875 -0.5q-0.4375 0 -0.875 0.25q-0.421875 0.25 -0.703125 0.796875q-0.265625 0.546875 -0.265625 1.453125q0 0.828125 0.28125 1.390625q0.296875 0.546875 0.78125 0.84375q0.5 0.28125 1.09375 0.28125q0.453125 0 0.859375 -0.125q0.40625 -0.140625 0.75 -0.359375l0.390625 0.71875q-0.421875 0.28125 -0.953125 0.46875q-0.515625 0.1875 -1.1875 0.1875zm6.204483 0q-1.234375 0 -1.96875 -0.875q-0.71875 -0.890625 -0.71875 -2.5q0 -1.0625 0.390625 -1.828125q0.390625 -0.765625 1.03125 -1.171875q0.640625 -0.421875 1.390625 -0.421875q0.578125 0 0.984375 0.203125q0.40625 0.1875 0.828125 0.546875l-0.046875 -1.109375l0 -2.484375l1.09375 0l0 9.484375l-0.90625 0l-0.09375 -0.765625l-0.03125 0q-0.375 0.375 -0.890625 0.65625q-0.5 0.265625 -1.0625 0.265625zm0.234375 -0.921875q0.453125 0 0.84375 -0.21875q0.40625 -0.234375 0.8125 -0.671875l0 -3.375q-0.40625 -0.375 -0.796875 -0.53125q-0.375 -0.15625 -0.78125 -0.15625q-0.515625 0 -0.9375 0.3125q-0.421875 0.3125 -0.671875 0.875q-0.25 0.546875 -0.25 1.296875q0 1.15625 0.453125 1.8125q0.46875 0.65625 1.328125 0.65625zm4.9439545 0.765625l0 -6.484375l1.09375 0l0 6.484375l-1.09375 0zm0.546875 -7.8125q-0.3125 0 -0.53125 -0.1875q-0.203125 -0.203125 -0.203125 -0.53125q0 -0.3125 0.203125 -0.515625q0.21875 -0.203125 0.53125 -0.203125q0.3125 0 0.515625 0.203125q0.21875 0.203125 0.21875 0.515625q0 0.328125 -0.21875 0.53125q-0.203125 0.1875 -0.515625 0.1875zm4.216202 7.96875q-0.53125 0 -0.96875 -0.21875q-0.421875 -0.21875 -0.671875 -0.625q-0.25 -0.40625 -0.25 -0.984375q0 -1.09375 0.953125 -1.65625q0.953125 -0.5625 3.03125 -0.796875q0 -0.390625 -0.125 -0.765625q-0.109375 -0.375 -0.40625 -0.59375q-0.28125 -0.234375 -0.8125 -0.234375q-0.5625 0 -1.0625 0.21875q-0.484375 0.203125 -0.859375 0.453125l-0.4375 -0.75q0.296875 -0.203125 0.6875 -0.390625q0.40625 -0.203125 0.875 -0.328125q0.46875 -0.125 0.984375 -0.125q0.796875 0 1.28125 0.328125q0.5 0.328125 0.734375 0.9375q0.234375 0.59375 0.234375 1.40625l0 3.96875l-0.90625 0l-0.09375 -0.765625l-0.03125 0q-0.46875 0.375 -1.0 0.65625q-0.53125 0.265625 -1.15625 0.265625zm0.3125 -0.90625q0.484375 0 0.90625 -0.203125q0.421875 -0.21875 0.875 -0.640625l0 -1.734375q-1.09375 0.125 -1.734375 0.34375q-0.625 0.203125 -0.90625 0.515625q-0.265625 0.296875 -0.265625 0.71875q0 0.53125 0.328125 0.765625q0.328125 0.234375 0.796875 0.234375zm7.58609 0.75l0 -9.484375l1.09375 0l0 6.40625l0.03125 0l2.734375 -3.40625l1.234375 0l-2.15625 2.625l2.453125 3.859375l-1.203125 0l-1.890625 -3.125l-1.203125 1.421875l0 1.703125l-1.09375 0zm8.982391 0.15625q-0.859375 0 -1.578125 -0.40625q-0.71875 -0.40625 -1.140625 -1.15625q-0.40625 -0.75 -0.40625 -1.828125q0 -1.0625 0.421875 -1.8125q0.4375 -0.765625 1.09375 -1.171875q0.671875 -0.421875 1.421875 -0.421875q0.828125 0 1.40625 0.390625q0.578125 0.375 0.875 1.0625q0.296875 0.671875 0.296875 1.59375q0 0.171875 -0.015625 0.328125q0 0.15625 -0.046875 0.3125l-4.65625 0l0 -0.859375l3.734375 0q0 -0.9375 -0.40625 -1.4375q-0.40625 -0.5 -1.171875 -0.5q-0.4375 0 -0.875 0.25q-0.421875 0.25 -0.703125 0.796875q-0.265625 0.546875 -0.265625 1.453125q0 0.828125 0.28125 1.390625q0.296875 0.546875 0.78125 0.84375q0.5 0.28125 1.09375 0.28125q0.453125 0 0.859375 -0.125q0.40625 -0.140625 0.75 -0.359375l0.390625 0.71875q-0.421875 0.28125 -0.953125 0.46875q-0.515625 0.1875 -1.1875 0.1875zm4.1617737 2.625q-0.21875 0 -0.421875 -0.046875q-0.1875 -0.03125 -0.34375 -0.078125l0.25 -0.859375q0.109375 0.046875 0.234375 0.0625q0.125 0.015625 0.21875 0.015625q0.5625 0 0.90625 -0.390625q0.359375 -0.390625 0.5625 -0.984375l0.15625 -0.484375l-2.609375 -6.5l1.140625 0l1.3125 3.59375q0.15625 0.40625 0.3125 0.890625q0.171875 0.484375 0.3125 0.9375l0.0625 0q0.140625 -0.453125 0.28125 -0.921875q0.140625 -0.484375 0.265625 -0.90625l1.15625 -3.59375l1.0625 0l-2.4375 7.015625q-0.21875 0.640625 -0.546875 1.15625q-0.3125 0.515625 -0.765625 0.796875q-0.453125 0.296875 -1.109375 0.296875z" fill-rule="nonzero"/><path fill="#000000" fill-opacity="0.0" d="m194.4078 40.271984l0 45.19685" fill-rule="evenodd"/><path stroke="#999999" stroke-width="1.0" stroke-linejoin="round" stroke-linecap="butt" d="m194.4078 40.271984l0 45.19685" fill-rule="evenodd"/><path fill="#d9ead3" d="m151.60808 79.73252l0 0c0 -2.0317001 1.6470032 -3.6787186 3.678711 -3.6787186l70.53233 0c0.97566223 0 1.9113464 0.38758087 2.601242 1.0774765c0.68989563 0.689888 1.0774689 1.6255875 1.0774689 2.601242l0 21.492966c0 2.0317001 -1.6470184 3.678711 -3.678711 3.678711l-70.53233 0c-2.0317078 0 -3.678711 -1.6470108 -3.678711 -3.678711z" fill-rule="evenodd"/><path stroke="#999999" stroke-width="1.0" stroke-linejoin="round" stroke-linecap="butt" d="m151.60808 79.73252l0 0c0 -2.0317001 1.6470032 -3.6787186 3.678711 -3.6787186l70.53233 0c0.97566223 0 1.9113464 0.38758087 2.601242 1.0774765c0.68989563 0.689888 1.0774689 1.6255875 1.0774689 2.601242l0 21.492966c0 2.0317001 -1.6470184 3.678711 -3.678711 3.678711l-70.53233 0c-2.0317078 0 -3.678711 -1.6470108 -3.678711 -3.678711z" fill-rule="evenodd"/><path fill="#000000" d="m175.76906 95.279l0 -8.75l2.484375 0q0.984375 0 1.71875 0.25q0.734375 0.25 1.140625 0.8125q0.421875 0.5625 0.421875 1.515625q0 0.921875 -0.40625 1.515625q-0.40625 0.59375 -1.140625 0.890625q-0.71875 0.296875 -1.671875 0.296875l-1.4375 0l0 3.46875l-1.109375 0zm1.109375 -4.375l1.296875 0q1.15625 0 1.703125 -0.4375q0.546875 -0.4375 0.546875 -1.359375q0 -0.953125 -0.578125 -1.3125q-0.578125 -0.359375 -1.71875 -0.359375l-1.25 0l0 3.46875zm6.434311 4.375l0 -8.75l1.390625 0l1.65625 4.6875q0.15625 0.4375 0.296875 0.875q0.140625 0.4375 0.296875 0.9375l0.046875 0q0.140625 -0.5 0.265625 -0.9375q0.140625 -0.4375 0.296875 -0.875l1.65625 -4.6875l1.375 0l0 8.75l-1.03125 0l0 -4.8125q0 -0.390625 0.015625 -0.859375q0.03125 -0.484375 0.0625 -0.953125q0.046875 -0.484375 0.078125 -0.859375l-0.046875 0l-0.6875 2.09375l-1.640625 4.53125l-0.8125 0l-1.640625 -4.53125l-0.671875 -2.09375l-0.0625 0q0.046875 0.375 0.078125 0.859375q0.03125 0.46875 0.0625 0.953125q0.03125 0.46875 0.03125 0.859375l0 4.8125l-1.015625 0zm9.689514 0l0 -8.75l5.03125 0l0 0.9375l-3.921875 0l0 2.75l3.3125 0l0 0.9375l-3.3125 0l0 3.171875l4.0625 0l0 0.953125l-5.171875 0zm7.0238953 0l0 -8.75l1.109375 0l0 4.390625l0.03125 0l3.640625 -4.390625l1.25 0l-2.734375 3.34375l3.15625 5.40625l-1.234375 0l-2.609375 -4.546875l-1.5 1.78125l0 2.765625l-1.109375 0z" fill-rule="nonzero"/><path fill="#d9d2e9" d="m15.635171 79.15155l0 0c0 -2.0427856 1.6560068 -3.6987915 3.6987944 -3.6987915l110.14572 0c0.9809723 0 1.9217834 0.38968658 2.6154327 1.0833511c0.69366455 0.6936569 1.0833588 1.6344604 1.0833588 2.6154404l0 21.610283c0 2.0427933 -1.6560059 3.6987991 -3.6987915 3.6987991l-110.14572 0l0 0c-2.0427876 0 -3.6987944 -1.6560059 -3.6987944 -3.6987991z" fill-rule="evenodd"/><path stroke="#999999" stroke-width="1.0" stroke-linejoin="round" stroke-linecap="butt" d="m15.635171 79.15155l0 0c0 -2.0427856 1.6560068 -3.6987915 3.6987944 -3.6987915l110.14572 0c0.9809723 0 1.9217834 0.38968658 2.6154327 1.0833511c0.69366455 0.6936569 1.0833588 1.6344604 1.0833588 2.6154404l0 21.610283c0 2.0427933 -1.6560059 3.6987991 -3.6987915 3.6987991l-110.14572 0l0 0c-2.0427876 0 -3.6987944 -1.6560059 -3.6987944 -3.6987991z" fill-rule="evenodd"/><path fill="#000000" d="m32.87661 94.91294q-0.9375 0 -1.71875 -0.34375q-0.765625 -0.359375 -1.34375 -0.953125l0.625 -0.71875q0.46875 0.484375 1.109375 0.765625q0.65625 0.28125 1.34375 0.28125q0.859375 0 1.34375 -0.390625q0.484375 -0.390625 0.484375 -1.03125q0 -0.453125 -0.203125 -0.71875q-0.1875 -0.265625 -0.515625 -0.453125q-0.328125 -0.1875 -0.734375 -0.375l-1.25 -0.546875q-0.4375 -0.1875 -0.84375 -0.46875q-0.40625 -0.28125 -0.671875 -0.703125q-0.265625 -0.4375 -0.265625 -1.078125q0 -0.671875 0.34375 -1.1875q0.359375 -0.53125 0.984375 -0.828125q0.625 -0.3125 1.421875 -0.3125q0.796875 0 1.453125 0.296875q0.671875 0.296875 1.125 0.765625l-0.59375 0.71875q-0.421875 -0.359375 -0.921875 -0.578125q-0.484375 -0.234375 -1.0625 -0.234375q-0.734375 0 -1.1875 0.359375q-0.4375 0.34375 -0.4375 0.921875q0 0.421875 0.203125 0.6875q0.21875 0.265625 0.5625 0.4375q0.34375 0.171875 0.6875 0.328125l1.234375 0.53125q0.515625 0.234375 0.921875 0.53125q0.40625 0.28125 0.640625 0.734375q0.234375 0.4375 0.234375 1.078125q0 0.6875 -0.359375 1.265625q-0.34375 0.5625 -1.015625 0.890625q-0.671875 0.328125 -1.59375 0.328125zm6.29718 -0.03125q-1.015625 0 -1.4375 -0.59375q-0.40625 -0.609375 -0.40625 -1.578125l0 -3.53125l-0.96875 0l0 -0.828125l1.015625 -0.078125l0.140625 -2.078125l0.921875 0l0 2.078125l1.75 0l0 0.90625l-1.75 0l0 3.546875q0 0.59375 0.21875 0.9375q0.21875 0.328125 0.78125 0.328125q0.171875 0 0.359375 -0.03125q0.1875 -0.046875 0.375 -0.140625l0.234375 0.78125q-0.25 0.109375 -0.578125 0.1875q-0.3125 0.09375 -0.65625 0.09375zm4.802597 0.03125q-0.78125 0 -1.46875 -0.390625q-0.6875 -0.40625 -1.109375 -1.15625q-0.421875 -0.765625 -0.421875 -1.828125q0 -1.09375 0.421875 -1.859375q0.421875 -0.765625 1.109375 -1.15625q0.6875 -0.40625 1.46875 -0.40625q0.796875 0 1.46875 0.40625q0.6875 0.390625 1.109375 1.15625q0.421875 0.765625 0.421875 1.859375q0 1.0625 -0.421875 1.828125q-0.421875 0.75 -1.109375 1.15625q-0.671875 0.390625 -1.46875 0.390625zm0 -0.90625q0.5625 0 0.984375 -0.3125q0.4375 -0.3125 0.65625 -0.875q0.234375 -0.5625 0.234375 -1.28125q0 -0.75 -0.234375 -1.3125q-0.21875 -0.578125 -0.65625 -0.890625q-0.421875 -0.3125 -0.984375 -0.3125q-0.5625 0 -0.984375 0.3125q-0.40625 0.3125 -0.640625 0.890625q-0.234375 0.5625 -0.234375 1.3125q0 0.71875 0.234375 1.28125q0.234375 0.5625 0.640625 0.875q0.421875 0.3125 0.984375 0.3125zm4.708191 0.75l0 -6.484375l0.90625 0l0.09375 1.1875l0.03125 0q0.328125 -0.625 0.796875 -0.984375q0.484375 -0.359375 1.046875 -0.359375q0.21875 0 0.375 0.03125q0.15625 0.03125 0.328125 0.109375l-0.25 0.921875q-0.140625 -0.03125 -0.265625 -0.046875q-0.125 -0.03125 -0.328125 -0.03125q-0.421875 0 -0.875 0.34375q-0.4375 0.328125 -0.765625 1.15625l0 4.15625l-1.09375 0zm5.789215 0.15625q-0.53125 0 -0.96875 -0.21875q-0.421875 -0.21875 -0.671875 -0.625q-0.25 -0.40625 -0.25 -0.984375q0 -1.09375 0.953125 -1.65625q0.953125 -0.5625 3.03125 -0.796875q0 -0.390625 -0.125 -0.765625q-0.109375 -0.375 -0.40625 -0.59375q-0.28125 -0.234375 -0.8125 -0.234375q-0.5625 0 -1.0625 0.21875q-0.484375 0.203125 -0.859375 0.453125l-0.4375 -0.75q0.296875 -0.203125 0.6875 -0.390625q0.40625 -0.203125 0.875 -0.328125q0.46875 -0.125 0.984375 -0.125q0.796875 0 1.28125 0.328125q0.5 0.328125 0.734375 0.9375q0.234375 0.59375 0.234375 1.40625l0 3.96875l-0.90625 0l-0.09375 -0.765625l-0.03125 0q-0.46875 0.375 -1.0 0.65625q-0.53125 0.265625 -1.15625 0.265625zm0.3125 -0.90625q0.484375 0 0.90625 -0.203125q0.421875 -0.21875 0.875 -0.640625l0 -1.734375q-1.09375 0.125 -1.734375 0.34375q-0.625 0.203125 -0.90625 0.515625q-0.265625 0.296875 -0.265625 0.71875q0 0.53125 0.328125 0.765625q0.328125 0.234375 0.796875 0.234375zm7.107971 3.734375q-0.78125 0 -1.390625 -0.203125q-0.609375 -0.203125 -0.953125 -0.59375q-0.34375 -0.390625 -0.34375 -0.953125q0 -0.40625 0.25 -0.796875q0.265625 -0.375 0.703125 -0.671875l0 -0.046875q-0.234375 -0.15625 -0.40625 -0.40625q-0.171875 -0.265625 -0.171875 -0.640625q0 -0.421875 0.234375 -0.71875q0.234375 -0.3125 0.46875 -0.484375l0 -0.046875q-0.296875 -0.28125 -0.5625 -0.734375q-0.265625 -0.453125 -0.265625 -1.015625q0 -0.703125 0.328125 -1.21875q0.34375 -0.53125 0.890625 -0.8125q0.5625 -0.28125 1.21875 -0.28125q0.265625 0 0.5 0.046875q0.25 0.046875 0.421875 0.109375l2.25 0l0 0.84375l-1.34375 0l0 0.0625q0.234375 0.203125 0.390625 0.53125q0.15625 0.3125 0.15625 0.75q0 0.703125 -0.328125 1.203125q-0.3125 0.5 -0.859375 0.78125q-0.53125 0.265625 -1.1875 0.265625q-0.25 0 -0.5 -0.0625q-0.25 -0.0625 -0.46875 -0.171875q-0.171875 0.15625 -0.296875 0.328125q-0.125 0.171875 -0.125 0.453125q0 0.296875 0.25 0.5q0.25 0.203125 0.890625 0.203125l1.265625 0q1.125 0 1.6875 0.375q0.578125 0.359375 0.578125 1.171875q0 0.59375 -0.40625 1.09375q-0.40625 0.515625 -1.140625 0.828125q-0.734375 0.3125 -1.734375 0.3125zm0 -5.765625q0.375 0 0.6875 -0.1875q0.3125 -0.203125 0.5 -0.546875q0.1875 -0.34375 0.1875 -0.8125q0 -0.71875 -0.40625 -1.109375q-0.390625 -0.40625 -0.96875 -0.40625q-0.578125 0 -0.984375 0.40625q-0.390625 0.390625 -0.390625 1.109375q0 0.46875 0.1875 0.8125q0.1875 0.34375 0.5 0.546875q0.3125 0.1875 0.6875 0.1875zm0.15625 5.0q0.609375 0 1.0625 -0.1875q0.46875 -0.171875 0.71875 -0.484375q0.265625 -0.3125 0.265625 -0.640625q0 -0.453125 -0.34375 -0.625q-0.328125 -0.171875 -0.953125 -0.171875l-1.125 0q-0.1875 0 -0.40625 -0.03125q-0.21875 -0.03125 -0.4375 -0.078125q-0.359375 0.25 -0.515625 0.53125q-0.140625 0.28125 -0.140625 0.5625q0 0.515625 0.5 0.8125q0.5 0.3125 1.375 0.3125zm6.8119354 -2.0625q-0.859375 0 -1.578125 -0.40625q-0.71875 -0.40625 -1.140625 -1.15625q-0.40625 -0.75 -0.40625 -1.828125q0 -1.0625 0.421875 -1.8125q0.4375 -0.765625 1.09375 -1.171875q0.671875 -0.421875 1.421875 -0.421875q0.828125 0 1.40625 0.390625q0.578125 0.375 0.875 1.0625q0.296875 0.671875 0.296875 1.59375q0 0.171875 -0.015625 0.328125q0 0.15625 -0.046875 0.3125l-4.65625 0l0 -0.859375l3.734375 0q0 -0.9375 -0.40625 -1.4375q-0.40625 -0.5 -1.171875 -0.5q-0.4375 0 -0.875 0.25q-0.421875 0.25 -0.703125 0.796875q-0.265625 0.546875 -0.265625 1.453125q0 0.828125 0.28125 1.390625q0.296875 0.546875 0.78125 0.84375q0.5 0.28125 1.09375 0.28125q0.453125 0 0.859375 -0.125q0.40625 -0.140625 0.75 -0.359375l0.390625 0.71875q-0.421875 0.28125 -0.953125 0.46875q-0.515625 0.1875 -1.1875 0.1875zm6.651352 -0.15625l0 -6.484375l0.90625 0l0.09375 1.1875l0.03125 0q0.328125 -0.625 0.796875 -0.984375q0.484375 -0.359375 1.046875 -0.359375q0.21875 0 0.375 0.03125q0.15625 0.03125 0.328125 0.109375l-0.25 0.921875q-0.140625 -0.03125 -0.265625 -0.046875q-0.125 -0.03125 -0.328125 -0.03125q-0.421875 0 -0.875 0.34375q-0.4375 0.328125 -0.765625 1.15625l0 4.15625l-1.09375 0zm7.007141 0.15625q-0.78125 0 -1.46875 -0.390625q-0.6875 -0.40625 -1.109375 -1.15625q-0.421875 -0.765625 -0.421875 -1.828125q0 -1.09375 0.421875 -1.859375q0.421875 -0.765625 1.109375 -1.15625q0.6875 -0.40625 1.46875 -0.40625q0.796875 0 1.46875 0.40625q0.6875 0.390625 1.109375 1.15625q0.421875 0.765625 0.421875 1.859375q0 1.0625 -0.421875 1.828125q-0.421875 0.75 -1.109375 1.15625q-0.671875 0.390625 -1.46875 0.390625zm0 -0.90625q0.5625 0 0.984375 -0.3125q0.4375 -0.3125 0.65625 -0.875q0.234375 -0.5625 0.234375 -1.28125q0 -0.75 -0.234375 -1.3125q-0.21875 -0.578125 -0.65625 -0.890625q-0.421875 -0.3125 -0.984375 -0.3125q-0.5625 0 -0.984375 0.3125q-0.40625 0.3125 -0.640625 0.890625q-0.234375 0.5625 -0.234375 1.3125q0 0.71875 0.234375 1.28125q0.234375 0.5625 0.640625 0.875q0.421875 0.3125 0.984375 0.3125zm7.223816 0.90625q-0.78125 0 -1.46875 -0.390625q-0.6875 -0.40625 -1.109375 -1.15625q-0.421875 -0.765625 -0.421875 -1.828125q0 -1.09375 0.421875 -1.859375q0.421875 -0.765625 1.109375 -1.15625q0.6875 -0.40625 1.46875 -0.40625q0.796875 0 1.46875 0.40625q0.6875 0.390625 1.109375 1.15625q0.421875 0.765625 0.421875 1.859375q0 1.0625 -0.421875 1.828125q-0.421875 0.75 -1.109375 1.15625q-0.671875 0.390625 -1.46875 0.390625zm0 -0.90625q0.5625 0 0.984375 -0.3125q0.4375 -0.3125 0.65625 -0.875q0.234375 -0.5625 0.234375 -1.28125q0 -0.75 -0.234375 -1.3125q-0.21875 -0.578125 -0.65625 -0.890625q-0.421875 -0.3125 -0.984375 -0.3125q-0.5625 0 -0.984375 0.3125q-0.40625 0.3125 -0.640625 0.890625q-0.234375 0.5625 -0.234375 1.3125q0 0.71875 0.234375 1.28125q0.234375 0.5625 0.640625 0.875q0.421875 0.3125 0.984375 0.3125zm6.5127716 0.875q-1.015625 0 -1.4375 -0.59375q-0.40625 -0.609375 -0.40625 -1.578125l0 -3.53125l-0.96875 0l0 -0.828125l1.015625 -0.078125l0.140625 -2.078125l0.921875 0l0 2.078125l1.75 0l0 0.90625l-1.75 0l0 3.546875q0 0.59375 0.21875 0.9375q0.21875 0.328125 0.78125 0.328125q0.171875 0 0.359375 -0.03125q0.1875 -0.046875 0.375 -0.140625l0.234375 0.78125q-0.25 0.109375 -0.578125 0.1875q-0.3125 0.09375 -0.65625 0.09375zm5.1392517 -0.125l0 -9.484375l1.09375 0l0 6.40625l0.03125 0l2.734375 -3.40625l1.234375 0l-2.15625 2.625l2.453125 3.859375l-1.203125 0l-1.890625 -3.125l-1.203125 1.421875l0 1.703125l-1.09375 0zm8.982391 0.15625q-0.859375 0 -1.578125 -0.40625q-0.71875 -0.40625 -1.140625 -1.15625q-0.40625 -0.75 -0.40625 -1.828125q0 -1.0625 0.421875 -1.8125q0.4375 -0.765625 1.09375 -1.171875q0.671875 -0.421875 1.421875 -0.421875q0.828125 0 1.40625 0.390625q0.578125 0.375 0.875 1.0625q0.296875 0.671875 0.296875 1.59375q0 0.171875 -0.015625 0.328125q0 0.15625 -0.046875 0.3125l-4.65625 0l0 -0.859375l3.734375 0q0 -0.9375 -0.40625 -1.4375q-0.40625 -0.5 -1.171875 -0.5q-0.4375 0 -0.875 0.25q-0.421875 0.25 -0.703125 0.796875q-0.265625 0.546875 -0.265625 1.453125q0 0.828125 0.28125 1.390625q0.296875 0.546875 0.78125 0.84375q0.5 0.28125 1.09375 0.28125q0.453125 0 0.859375 -0.125q0.40625 -0.140625 0.75 -0.359375l0.390625 0.71875q-0.421875 0.28125 -0.953125 0.46875q-0.515625 0.1875 -1.1875 0.1875zm4.1617737 2.625q-0.21875 0 -0.421875 -0.046875q-0.1875 -0.03125 -0.34375 -0.078125l0.25 -0.859375q0.109375 0.046875 0.234375 0.0625q0.125 0.015625 0.21875 0.015625q0.5625 0 0.90625 -0.390625q0.359375 -0.390625 0.5625 -0.984375l0.15625 -0.484375l-2.609375 -6.5l1.140625 0l1.3125 3.59375q0.15625 0.40625 0.3125 0.890625q0.171875 0.484375 0.3125 0.9375l0.0625 0q0.140625 -0.453125 0.28125 -0.921875q0.140625 -0.484375 0.265625 -0.90625l1.15625 -3.59375l1.0625 0l-2.4375 7.015625q-0.21875 0.640625 -0.546875 1.15625q-0.3125 0.515625 -0.765625 0.796875q-0.453125 0.296875 -1.109375 0.296875z" fill-rule="nonzero"/><path fill="#000000" fill-opacity="0.0" d="m183.66765 119.98852l5.480316 0l0 5.480316l-5.480316 0z" fill-rule="evenodd"/><path fill="#000000" fill-opacity="0.0" d="m196.92749 134.23354l5.480316 0l0 5.480316l-5.480316 0z" fill-rule="evenodd"/><path fill="#000000" fill-opacity="0.0" d="m186.4078 125.468834c0 5.7480392 5.259842 11.496071 10.519684 11.496071" fill-rule="evenodd"/><path stroke="#999999" stroke-width="1.0" stroke-linejoin="round" stroke-linecap="butt" d="m186.4078 125.468834c0 5.7480392 5.259842 11.496071 10.519684 11.496071" fill-rule="evenodd"/><path fill="#000000" fill-opacity="0.0" d="m175.66765 119.98852l5.480316 0l0 5.480316l-5.480316 0z" fill-rule="evenodd"/><path fill="#000000" fill-opacity="0.0" d="m188.92749 134.23354l5.480316 0l0 5.480316l-5.480316 0z" fill-rule="evenodd"/><path fill="#000000" fill-opacity="0.0" d="m178.4078 125.468834c0 5.7480392 5.259842 11.496071 10.519684 11.496071" fill-rule="evenodd"/><path stroke="#999999" stroke-width="1.0" stroke-linejoin="round" stroke-linecap="butt" d="m178.4078 125.468834c0 5.7480392 5.259842 11.496071 10.519684 11.496071" fill-rule="evenodd"/><path fill="#000000" fill-opacity="0.0" d="m71.66765 111.98852l5.480316 0l0 5.480316l-5.480316 0z" fill-rule="evenodd"/><path fill="#000000" fill-opacity="0.0" d="m92.92224 134.23354l5.480316 0l0 5.480316l-5.480316 0z" fill-rule="evenodd"/><path fill="#000000" fill-opacity="0.0" d="m74.40682 104.46063l0 13.007874" fill-rule="evenodd"/><path stroke="#999999" stroke-width="1.0" stroke-linejoin="round" stroke-linecap="butt" d="m74.40682 104.46063l0 13.007874" fill-rule="evenodd"/><path fill="#000000" fill-opacity="0.0" d="m74.40781 117.468834c0 9.748032 9.259842 19.49607 18.519684 19.49607" fill-rule="evenodd"/><path stroke="#999999" stroke-width="1.0" stroke-linejoin="round" stroke-linecap="butt" d="m74.40781 117.468834c0 9.748032 9.259842 19.49607 18.519684 19.49607" fill-rule="evenodd"/><path fill="#d9ead3" d="m325.50378 126.22596l0 0c0 -2.0317001 1.6470032 -3.6787186 3.678711 -3.6787186l56.64258 0c0.975647 0 1.9113464 0.38758087 2.6012268 1.0774765c0.6899109 0.689888 1.0774841 1.6255875 1.0774841 2.601242l0 21.492958c0 2.0317078 -1.6470032 3.6787262 -3.678711 3.6787262l-56.64258 0c-2.0317078 0 -3.678711 -1.6470184 -3.678711 -3.6787262z" fill-rule="evenodd"/><path stroke="#999999" stroke-width="1.0" stroke-linejoin="round" stroke-linecap="butt" d="m325.50378 126.22596l0 0c0 -2.0317001 1.6470032 -3.6787186 3.678711 -3.6787186l56.64258 0c0.975647 0 1.9113464 0.38758087 2.6012268 1.0774765c0.6899109 0.689888 1.0774841 1.6255875 1.0774841 2.601242l0 21.492958c0 2.0317078 -1.6470032 3.6787262 -3.678711 3.6787262l-56.64258 0c-2.0317078 0 -3.678711 -1.6470184 -3.678711 -3.6787262z" fill-rule="evenodd"/><path fill="#000000" d="m346.49173 141.77245l0 -8.75l1.390625 0l1.65625 4.6875q0.15625 0.4375 0.296875 0.875q0.140625 0.4375 0.296875 0.9375l0.046875 0q0.140625 -0.5 0.265625 -0.9375q0.140625 -0.4375 0.296875 -0.875l1.65625 -4.6875l1.375 0l0 8.75l-1.03125 0l0 -4.8125q0 -0.390625 0.015625 -0.859375q0.03125 -0.484375 0.0625 -0.953125q0.046875 -0.484375 0.078125 -0.859375l-0.046875 0l-0.6875 2.09375l-1.640625 4.53125l-0.8125 0l-1.640625 -4.53125l-0.671875 -2.09375l-0.0625 0q0.046875 0.375 0.078125 0.859375q0.03125 0.46875 0.0625 0.953125q0.03125 0.46875 0.03125 0.859375l0 4.8125l-1.015625 0zm9.689514 0l0 -8.75l5.03125 0l0 0.9375l-3.921875 0l0 2.75l3.3125 0l0 0.9375l-3.3125 0l0 3.171875l4.0625 0l0 0.953125l-5.171875 0zm7.0238953 0l0 -8.75l1.109375 0l0 4.390625l0.03125 0l3.640625 -4.390625l1.25 0l-2.734375 3.34375l3.15625 5.40625l-1.234375 0l-2.609375 -4.546875l-1.5 1.78125l0 2.765625l-1.109375 0z" fill-rule="nonzero"/><path fill="#d9ead3" d="m141.00542 22.284874l0 0c0 -1.3141022 1.0652924 -2.3793926 2.3793945 -2.3793926l73.13716 0c0.63105774 0 1.2362671 0.25068665 1.6824951 0.69690895c0.44621277 0.4462223 0.6968994 1.0514297 0.6968994 1.6824837l0 13.901649c0 1.3141022 -1.0652924 2.3793945 -2.3793945 2.3793945l-73.13716 0c-1.3141022 0 -2.3793945 -1.0652924 -2.3793945 -2.3793945z" fill-rule="evenodd"/><path stroke="#999999" stroke-width="1.0" stroke-linejoin="round" stroke-linecap="butt" d="m141.00542 22.284874l0 0c0 -1.3141022 1.0652924 -2.3793926 2.3793945 -2.3793926l73.13716 0c0.63105774 0 1.2362671 0.25068665 1.6824951 0.69690895c0.44621277 0.4462223 0.6968994 1.0514297 0.6968994 1.6824837l0 13.901649c0 1.3141022 -1.0652924 2.3793945 -2.3793945 2.3793945l-73.13716 0c-1.3141022 0 -2.3793945 -1.0652924 -2.3793945 -2.3793945z" fill-rule="evenodd"/><path fill="#d9ead3" d="m146.30702 27.459274l0 0c0 -1.3141022 1.0652924 -2.3793926 2.3793945 -2.3793926l73.13716 0c0.63105774 0 1.2362671 0.25068474 1.6824799 0.69690895c0.44622803 0.4462223 0.6969147 1.0514297 0.6969147 1.6824837l0 13.901649c0 1.3141022 -1.0652924 2.3793945 -2.3793945 2.3793945l-73.13716 0c-1.3141022 0 -2.3793945 -1.0652924 -2.3793945 -2.3793945z" fill-rule="evenodd"/><path stroke="#999999" stroke-width="1.0" stroke-linejoin="round" stroke-linecap="butt" d="m146.30702 27.459274l0 0c0 -1.3141022 1.0652924 -2.3793926 2.3793945 -2.3793926l73.13716 0c0.63105774 0 1.2362671 0.25068474 1.6824799 0.69690895c0.44622803 0.4462223 0.6969147 1.0514297 0.6969147 1.6824837l0 13.901649c0 1.3141022 -1.0652924 2.3793945 -2.3793945 2.3793945l-73.13716 0c-1.3141022 0 -2.3793945 -1.0652924 -2.3793945 -2.3793945z" fill-rule="evenodd"/><path fill="#d9ead3" d="m151.60863 32.633675l0 0c0 -1.3141022 1.0652924 -2.3793926 2.3793945 -2.3793926l73.13716 0c0.63105774 0 1.2362518 0.25068474 1.6824799 0.69690704c0.44622803 0.4462242 0.6969147 1.0514317 0.6969147 1.6824856l0 13.901649c0 1.3141022 -1.0652924 2.3793945 -2.3793945 2.3793945l-73.13716 0c-1.3141022 0 -2.3793945 -1.0652924 -2.3793945 -2.3793945z" fill-rule="evenodd"/><path stroke="#999999" stroke-width="1.0" stroke-linejoin="round" stroke-linecap="butt" d="m151.60863 32.633675l0 0c0 -1.3141022 1.0652924 -2.3793926 2.3793945 -2.3793926l73.13716 0c0.63105774 0 1.2362518 0.25068474 1.6824799 0.69690704c0.44622803 0.4462242 0.6969147 1.0514317 0.6969147 1.6824856l0 13.901649c0 1.3141022 -1.0652924 2.3793945 -2.3793945 2.3793945l-73.13716 0c-1.3141022 0 -2.3793945 -1.0652924 -2.3793945 -2.3793945z" fill-rule="evenodd"/><path fill="#000000" d="m161.33516 44.3845l2.953125 -8.75l1.25 0l2.953125 8.75l-1.171875 0l-1.53125 -4.890625q-0.234375 -0.734375 -0.453125 -1.453125q-0.203125 -0.734375 -0.421875 -1.5l-0.046875 0q-0.203125 0.765625 -0.421875 1.5q-0.203125 0.71875 -0.453125 1.453125l-1.546875 4.890625l-1.109375 0zm1.546875 -2.671875l0 -0.875l4.03125 0l0 0.875l-4.03125 0zm9.315277 2.828125q-0.875 0 -1.578125 -0.390625q-0.6875 -0.40625 -1.09375 -1.15625q-0.390625 -0.765625 -0.390625 -1.828125q0 -1.09375 0.4375 -1.859375q0.4375 -0.765625 1.140625 -1.15625q0.71875 -0.40625 1.546875 -0.40625q0.640625 0 1.09375 0.21875q0.46875 0.21875 0.796875 0.546875l-0.546875 0.671875q-0.234375 -0.234375 -0.5625 -0.375q-0.328125 -0.140625 -0.75 -0.140625q-0.5625 0 -1.03125 0.3125q-0.453125 0.3125 -0.71875 0.875q-0.265625 0.5625 -0.265625 1.3125q0 0.71875 0.25 1.28125q0.25 0.5625 0.703125 0.875q0.453125 0.3125 1.0625 0.3125q0.453125 0 0.828125 -0.171875q0.390625 -0.171875 0.671875 -0.4375l0.484375 0.671875q-0.421875 0.375 -0.9375 0.609375q-0.515625 0.234375 -1.140625 0.234375zm5.7976074 0q-0.875 0 -1.578125 -0.390625q-0.6875 -0.40625 -1.09375 -1.15625q-0.390625 -0.765625 -0.390625 -1.828125q0 -1.09375 0.4375 -1.859375q0.4375 -0.765625 1.140625 -1.15625q0.71875 -0.40625 1.546875 -0.40625q0.640625 0 1.09375 0.21875q0.46875 0.21875 0.796875 0.546875l-0.546875 0.671875q-0.234375 -0.234375 -0.5625 -0.375q-0.328125 -0.140625 -0.75 -0.140625q-0.5625 0 -1.03125 0.3125q-0.453125 0.3125 -0.71875 0.875q-0.265625 0.5625 -0.265625 1.3125q0 0.71875 0.25 1.28125q0.25 0.5625 0.703125 0.875q0.453125 0.3125 1.0625 0.3125q0.453125 0 0.828125 -0.171875q0.390625 -0.171875 0.671875 -0.4375l0.484375 0.671875q-0.421875 0.375 -0.9375 0.609375q-0.515625 0.234375 -1.140625 0.234375zm5.8444824 0q-0.859375 0 -1.578125 -0.40625q-0.71875 -0.40625 -1.140625 -1.15625q-0.40625 -0.75 -0.40625 -1.828125q0 -1.0625 0.421875 -1.8125q0.4375 -0.765625 1.09375 -1.171875q0.671875 -0.421875 1.421875 -0.421875q0.828125 0 1.40625 0.390625q0.578125 0.375 0.875 1.0625q0.296875 0.671875 0.296875 1.59375q0 0.171875 -0.015625 0.328125q0 0.15625 -0.046875 0.3125l-4.65625 0l0 -0.859375l3.734375 0q0 -0.9375 -0.40625 -1.4375q-0.40625 -0.5 -1.171875 -0.5q-0.4375 0 -0.875 0.25q-0.421875 0.25 -0.703125 0.796875q-0.265625 0.546875 -0.265625 1.453125q0 0.828125 0.28125 1.390625q0.296875 0.546875 0.78125 0.84375q0.5 0.28125 1.09375 0.28125q0.453125 0 0.859375 -0.125q0.40625 -0.140625 0.75 -0.359375l0.390625 0.71875q-0.421875 0.28125 -0.953125 0.46875q-0.515625 0.1875 -1.1875 0.1875zm5.673233 0q-0.703125 0 -1.34375 -0.234375q-0.625 -0.25 -1.0625 -0.6875l0.5 -0.640625q0.4375 0.34375 0.890625 0.53125q0.453125 0.1875 1.0625 0.1875q0.640625 0 0.953125 -0.296875q0.328125 -0.3125 0.328125 -0.71875q0 -0.34375 -0.21875 -0.5625q-0.21875 -0.21875 -0.546875 -0.359375q-0.328125 -0.15625 -0.703125 -0.296875q-0.484375 -0.171875 -0.921875 -0.40625q-0.4375 -0.234375 -0.71875 -0.578125q-0.265625 -0.359375 -0.265625 -0.890625q0 -0.78125 0.59375 -1.3125q0.59375 -0.53125 1.640625 -0.53125q0.609375 0 1.125 0.21875q0.515625 0.203125 0.890625 0.515625l-0.5 0.625q-0.359375 -0.234375 -0.71875 -0.359375q-0.359375 -0.140625 -0.796875 -0.140625q-0.609375 0 -0.90625 0.28125q-0.28125 0.28125 -0.28125 0.65625q0 0.28125 0.171875 0.484375q0.171875 0.1875 0.484375 0.34375q0.328125 0.140625 0.71875 0.265625q0.515625 0.1875 0.96875 0.421875q0.453125 0.234375 0.734375 0.609375q0.296875 0.359375 0.296875 0.953125q0 0.53125 -0.28125 0.96875q-0.265625 0.421875 -0.796875 0.6875q-0.515625 0.265625 -1.296875 0.265625zm5.5844574 0q-0.703125 0 -1.34375 -0.234375q-0.625 -0.25 -1.0625 -0.6875l0.5 -0.640625q0.4375 0.34375 0.890625 0.53125q0.453125 0.1875 1.0625 0.1875q0.640625 0 0.953125 -0.296875q0.328125 -0.3125 0.328125 -0.71875q0 -0.34375 -0.21875 -0.5625q-0.21875 -0.21875 -0.546875 -0.359375q-0.328125 -0.15625 -0.703125 -0.296875q-0.484375 -0.171875 -0.921875 -0.40625q-0.4375 -0.234375 -0.71875 -0.578125q-0.265625 -0.359375 -0.265625 -0.890625q0 -0.78125 0.59375 -1.3125q0.59375 -0.53125 1.640625 -0.53125q0.609375 0 1.125 0.21875q0.515625 0.203125 0.890625 0.515625l-0.5 0.625q-0.359375 -0.234375 -0.71875 -0.359375q-0.359375 -0.140625 -0.796875 -0.140625q-0.609375 0 -0.90625 0.28125q-0.28125 0.28125 -0.28125 0.65625q0 0.28125 0.171875 0.484375q0.171875 0.1875 0.484375 0.34375q0.328125 0.140625 0.71875 0.265625q0.515625 0.1875 0.96875 0.421875q0.453125 0.234375 0.734375 0.609375q0.296875 0.359375 0.296875 0.953125q0 0.53125 -0.28125 0.96875q-0.265625 0.421875 -0.796875 0.6875q-0.515625 0.265625 -1.296875 0.265625zm6.5625763 -0.15625l0 -9.484375l1.09375 0l0 6.40625l0.03125 0l2.734375 -3.40625l1.234375 0l-2.15625 2.625l2.453125 3.859375l-1.203125 0l-1.890625 -3.125l-1.203125 1.421875l0 1.703125l-1.09375 0zm8.982391 0.15625q-0.859375 0 -1.578125 -0.40625q-0.71875 -0.40625 -1.140625 -1.15625q-0.40625 -0.75 -0.40625 -1.828125q0 -1.0625 0.421875 -1.8125q0.4375 -0.765625 1.09375 -1.171875q0.671875 -0.421875 1.421875 -0.421875q0.828125 0 1.40625 0.390625q0.578125 0.375 0.875 1.0625q0.296875 0.671875 0.296875 1.59375q0 0.171875 -0.015625 0.328125q0 0.15625 -0.046875 0.3125l-4.65625 0l0 -0.859375l3.734375 0q0 -0.9375 -0.40625 -1.4375q-0.40625 -0.5 -1.171875 -0.5q-0.4375 0 -0.875 0.25q-0.421875 0.25 -0.703125 0.796875q-0.265625 0.546875 -0.265625 1.453125q0 0.828125 0.28125 1.390625q0.296875 0.546875 0.78125 0.84375q0.5 0.28125 1.09375 0.28125q0.453125 0 0.859375 -0.125q0.40625 -0.140625 0.75 -0.359375l0.390625 0.71875q-0.421875 0.28125 -0.953125 0.46875q-0.515625 0.1875 -1.1875 0.1875zm4.1617737 2.625q-0.21875 0 -0.421875 -0.046875q-0.1875 -0.03125 -0.34375 -0.078125l0.25 -0.859375q0.109375 0.046875 0.234375 0.0625q0.125 0.015625 0.21875 0.015625q0.5625 0 0.90625 -0.390625q0.359375 -0.390625 0.5625 -0.984375l0.15625 -0.484375l-2.609375 -6.5l1.140625 0l1.3125 3.59375q0.15625 0.40625 0.3125 0.890625q0.171875 0.484375 0.3125 0.9375l0.0625 0q0.140625 -0.453125 0.28125 -0.921875q0.140625 -0.484375 0.265625 -0.90625l1.15625 -3.59375l1.0625 0l-2.4375 7.015625q-0.21875 0.640625 -0.546875 1.15625q-0.3125 0.515625 -0.765625 0.796875q-0.453125 0.296875 -1.109375 0.296875z" fill-rule="nonzero"/><path fill="#d9ead3" d="m239.60905 79.73252l0 0c0 -2.0317001 1.6470184 -3.6787186 3.678711 -3.6787186l43.25676 0c0.975647 0 1.9113464 0.38758087 2.6012268 1.0774765c0.6899109 0.689888 1.0774841 1.6255875 1.0774841 2.601242l0 21.492966c0 2.0317001 -1.6470337 3.678711 -3.678711 3.678711l-43.25676 0c-2.0316925 0 -3.678711 -1.6470108 -3.678711 -3.678711z" fill-rule="evenodd"/><path stroke="#999999" stroke-width="1.0" stroke-linejoin="round" stroke-linecap="butt" d="m239.60905 79.73252l0 0c0 -2.0317001 1.6470184 -3.6787186 3.678711 -3.6787186l43.25676 0c0.975647 0 1.9113464 0.38758087 2.6012268 1.0774765c0.6899109 0.689888 1.0774841 1.6255875 1.0774841 2.601242l0 21.492966c0 2.0317001 -1.6470337 3.678711 -3.678711 3.678711l-43.25676 0c-2.0316925 0 -3.678711 -1.6470108 -3.678711 -3.678711z" fill-rule="evenodd"/><path fill="#000000" d="m254.65047 95.279l0 -8.75l2.1874847 0q1.34375 0 2.265625 0.515625q0.921875 0.5 1.390625 1.46875q0.46875 0.96875 0.46875 2.359375q0 1.375 -0.46875 2.375q-0.46875 0.984375 -1.375 1.515625q-0.90625 0.515625 -2.234375 0.515625l-2.2343597 0zm1.109375 -0.90625l0.99998474 0q1.015625 0 1.6875 -0.421875q0.6875 -0.421875 1.015625 -1.1875q0.34375 -0.78125 0.34375 -1.890625q0 -1.09375 -0.34375 -1.859375q-0.328125 -0.78125 -1.015625 -1.171875q-0.671875 -0.40625 -1.6875 -0.40625l-0.99998474 0l0 6.9375zm7.087387 0.90625l0 -8.75l5.03125 0l0 0.9375l-3.921875 0l0 2.75l3.3125 0l0 0.9375l-3.3125 0l0 3.171875l4.0625 0l0 0.953125l-5.171875 0zm7.0238953 0l0 -8.75l1.109375 0l0 4.390625l0.03125 0l3.640625 -4.390625l1.25 0l-2.734375 3.34375l3.15625 5.40625l-1.234375 0l-2.609375 -4.546875l-1.5 1.78125l0 2.765625l-1.109375 0z" fill-rule="nonzero"/><path fill="#000000" fill-opacity="0.0" d="m92.92224 136.9737l232.56693 0" fill-rule="evenodd"/><path stroke="#999999" stroke-width="1.0" stroke-linejoin="round" stroke-linecap="butt" d="m92.92224 136.9737l226.56693 0" fill-rule="evenodd"/><path fill="#999999" stroke="#999999" stroke-width="1.0" stroke-linecap="butt" d="m319.48917 138.62543l4.5381165 -1.6517334l-4.5381165 -1.6517334z" fill-rule="evenodd"/><path fill="#000000" fill-opacity="0.0" d="m262.17685 119.98852l5.4802856 0l0 5.480316l-5.4802856 0z" fill-rule="evenodd"/><path fill="#000000" fill-opacity="0.0" d="m275.2477 134.23354l5.480316 0l0 5.480316l-5.480316 0z" fill-rule="evenodd"/><path fill="#000000" fill-opacity="0.0" d="m264.91614 104.9042l0 20.566933" fill-rule="evenodd"/><path stroke="#999999" stroke-width="1.0" stroke-linejoin="round" stroke-linecap="butt" d="m264.91614 104.9042l0 20.566933" fill-rule="evenodd"/><path fill="#000000" fill-opacity="0.0" d="m264.917 125.468834c0 5.7480392 5.165344 11.496071 10.330719 11.496071" fill-rule="evenodd"/><path stroke="#999999" stroke-width="1.0" stroke-linejoin="round" stroke-linecap="butt" d="m264.917 125.468834c0 5.7480392 5.165344 11.496071 10.330719 11.496071" fill-rule="evenodd"/></g></svg>