<svg xmlns="http://www.w3.org/2000/svg" xmlns:xlink="http://www.w3.org/1999/xlink" viewBox="0 0 5804.92 1218.43"><defs><linearGradient id="linear-gradient" x1="760.77" y1="163.92" x2="1558.55" y2="163.92" gradientUnits="userSpaceOnUse"><stop offset="0" stop-color="#cee6bf"/><stop offset="1" stop-color="#00587e"/></linearGradient><linearGradient id="linear-gradient-2" x1="378.09" y1="425.28" x2="1175.87" y2="425.28" gradientUnits="userSpaceOnUse"><stop offset="0" stop-color="#ece190"/><stop offset="0.36" stop-color="#dde4a8"/><stop offset="0.73" stop-color="#d2e5b9"/><stop offset="1" stop-color="#cee6bf"/></linearGradient><linearGradient id="linear-gradient-3" x1="378.09" y1="724.23" x2="1175.87" y2="724.23" xlink:href="#linear-gradient-2"/><linearGradient id="linear-gradient-4" x1="760.77" y1="1017.4" x2="1558.55" y2="1017.4" xlink:href="#linear-gradient"/><linearGradient id="linear-gradient-5" y1="570.48" x2="797.79" y2="570.48" gradientUnits="userSpaceOnUse"><stop offset="0" stop-color="#e2c675"/><stop offset="1" stop-color="#ece190"/></linearGradient><radialGradient id="radial-gradient" cx="3039.24" cy="807.76" fx="3127.39188510036" fy="947.0120329862466" r="213.8" gradientUnits="userSpaceOnUse"><stop offset="0" stop-color="#cee6bf"/><stop offset="0.01" stop-color="#cae3be"/><stop offset="0.2" stop-color="#8db9ab"/><stop offset="0.38" stop-color="#5b979b"/><stop offset="0.54" stop-color="#337b8e"/><stop offset="0.7" stop-color="#176885"/><stop offset="0.83" stop-color="#065c80"/><stop offset="0.93" stop-color="#00587e"/></radialGradient><radialGradient id="radial-gradient-2" cx="5038.22" cy="565.84" fx="5038.218574697223" fy="565.8442622365747" r="123.41" xlink:href="#radial-gradient"/><radialGradient id="radial-gradient-3" cx="5718.77" cy="843.37" fx="5718.770747831404" fy="843.3681354367363" r="169.91" xlink:href="#radial-gradient"/><radialGradient id="radial-gradient-4" cx="3968.6" cy="872.66" fx="4002.9373786091596" fy="882.7784132095478" r="114.42" xlink:href="#radial-gradient"/><radialGradient id="radial-gradient-5" cx="3981.64" cy="579.29" fx="4024.491420410621" fy="590.9054128458278" r="117.33" xlink:href="#radial-gradient"/></defs><g id="Layer_2" data-name="Layer 2"><g id="GoogleLogo_FullColor_rgb"><g id="_830x271px" data-name="830x271px"><path d="M1624.29,163.93a82,82,0,1,1,82-82A82,82,0,0,1,1624.29,163.93Z" fill="#00587e"/><path d="M760.77,44h797.78v69.51H830.26V283.87H760.77Z" fill-rule="evenodd" fill="url(#linear-gradient)"/><path d="M1241.61,397.94a82,82,0,1,1,82-82A82,82,0,0,1,1241.61,397.94Z" fill="#cee6bf"/><path d="M378.09,278h797.78v69.51H447.59V572.57h-69.5Z" fill-rule="evenodd" fill="url(#linear-gradient-2)"/><path d="M1230.55,925.26a82,82,0,1,1,82-82A82,82,0,0,1,1230.55,925.26Z" fill="#cee6bf"/><path d="M378.09,878.06h797.78V808.55H447.59V570.4h-69.5Z" fill-rule="evenodd" fill="url(#linear-gradient-3)"/><path d="M1613.24,1218.43a82,82,0,1,1,82-82A82,82,0,0,1,1613.24,1218.43Z" fill="#00587e"/><path d="M760.77,1171.23h797.78v-69.51H830.26V863.57H760.77Z" fill-rule="evenodd" fill="url(#linear-gradient-4)"/><path d="M863.52,655.68a82,82,0,1,1,82-82A82,82,0,0,1,863.52,655.68Z" fill="#ece190"/><path d="M0,535.73H797.79v69.5H0Z" fill-rule="evenodd" fill="url(#linear-gradient-5)"/><circle cx="3683.78" cy="267.19" r="60.47" fill="#00587e"/><path d="M1953.16,611.12c0,219.79,135.86,397.61,375.52,397.61,240.78,0,339.08-166.78,349-300.42H2563.93c-11,91.68-82.83,203.23-231.93,203.23-167.89,0-264-133.65-264-300.42s96.09-300.42,264-300.42c149.1,0,220.89,111.55,231.93,203.23h113.76c-9.93-133.64-108.23-300.42-349-300.42C2089,213.51,1953.16,391.33,1953.16,611.12Z" fill="#00587e"/><path d="M2748.08,842c0,96.1,87.25,166.78,194.38,166.78,102.72,0,177.82-56.33,209.85-140.27,2.21-5.52,4.42-14.36,13.25-11,7.74,3.31,3.32,12.14,1.11,22.08-9.94,28.72-12.15,45.29-12.15,66.27V999.9h106V677.39c0-207.65-118.18-251.82-245.19-251.82-130.33,0-229.73,56.32-249.61,185.55h103.82c7.73-55.23,42-92.78,141.37-92.78,116,0,142.47,46.4,143.58,92.78,1.1,58.53-101.6,46.39-203.22,54.12C2843.06,673,2748.08,712.73,2748.08,842Zm406.44-146.89c-1.11,142.48-85,205.44-171.19,216.48-91.67,12.15-129.22-29.83-129.22-75.11,0-51.91,35.34-76.21,103.81-86.14C3044.07,738.14,3120.28,737,3154.52,695.06Z" fill="url(#radial-gradient)"/><path d="M3392.82,204.68V999.9h106V204.68Z" fill="#00587e"/><path d="M3631.18,999.9h106V434.4h-106Z" fill="#00587e"/><path d="M4832.63,527.18V434.4h-159v-159h-106v159h-106v92.78h106v307c0,122.6,55.22,165.68,172.3,165.68h92.77V907.12h-83.94c-61.85,0-75.1-19.88-75.1-83.94v-296Z" fill="#00587e"/><path d="M5045.33,565.84c-8.84-2.21-5.52-11.05-3.31-19.89,9.94-33.13,12.15-50.8,12.15-74V434.4h-106V999.9h106V729.29c0-148,47.49-206.53,212.06-195.48V425.57c-142.49,0-174.51,39.76-209.85,130.32C5054.17,561.42,5050.85,566.94,5045.33,565.84Z" fill="url(#radial-gradient-2)"/><path d="M5292.46,842c0,96.1,87.25,166.78,194.38,166.78,102.72,0,177.82-56.33,209.85-140.27,2.21-5.52,4.42-14.36,13.25-11,7.74,3.31,3.32,12.14,1.11,22.08-9.94,28.72-12.15,45.29-12.15,66.27V999.9h106V677.39c0-207.65-118.17-251.82-245.19-251.82-130.32,0-229.72,56.32-249.61,185.55h103.82c7.73-55.23,42-92.78,141.38-92.78,116,0,142.47,46.4,143.58,92.78,1.1,58.53-101.62,46.39-203.23,54.12C5387.44,673,5292.46,712.73,5292.46,842ZM5698.9,695.06c-1.11,142.48-85,205.44-171.19,216.48-91.68,12.15-129.23-29.83-129.23-75.11,0-51.91,35.34-76.21,103.82-86.14C5588.45,738.14,5664.66,737,5698.9,695.06Z" fill="url(#radial-gradient-3)"/><path d="M3195.86,849.29a25.64,25.64,0,1,1-25.64-25.63A25.63,25.63,0,0,1,3195.86,849.29Z" fill="#fff"/><path d="M3986.94,858.86a25.64,25.64,0,1,1-25.63-25.62A25.63,25.63,0,0,1,3986.94,858.86Z" fill="#fff"/><path d="M3986.94,563.44a25.64,25.64,0,1,1-25.63-25.63A25.65,25.65,0,0,1,3986.94,563.44Z" fill="#fff"/><path d="M5069.32,563.44a25.64,25.64,0,1,1-25.64-25.63A25.65,25.65,0,0,1,5069.32,563.44Z" fill="#fff"/><path d="M5742.29,845.61A25.64,25.64,0,1,1,5716.65,820,25.64,25.64,0,0,1,5742.29,845.61Z" fill="#fff"/><path d="M4311.34,718.35c0,104.93-55.23,194.39-165.67,194.39-100.51,0-170.09-89.46-170.09-194.39h-106v494.8h106V953.6c0-19.88-3.32-35.34-11-59.64-3.32-8.83-8.84-18.77,2.21-22.09,6.62-2.21,9.94,6.62,11,9.94,34.24,76.21,101.62,128.12,190,128.12,146.9,0,249.61-123.7,249.61-291.58Z" fill="url(#radial-gradient-4)"/><path d="M3986.94,860.09a25.64,25.64,0,1,1-25.63-25.63A25.63,25.63,0,0,1,3986.94,860.09Z" fill="#fff"/><path d="M4167.76,426.79c-90.57,0-156.84,53-190,125.91-1.1,3.31-4.42,14.36-13.25,11-9.94-3.32-3.32-14.36,0-23.2,7.72-23.19,11-39.76,11-60.74V435.62h-106V718.37h106c0-104.92,69.58-194.39,170.09-194.39,110.44,0,165.67,89.47,165.67,194.39h106C4417.37,550.49,4314.66,426.79,4167.76,426.79Z" fill="url(#radial-gradient-5)"/><path d="M3992.4,553.75a25.63,25.63,0,1,1-25.62-25.63A25.62,25.62,0,0,1,3992.4,553.75Z" fill="#fff"/></g></g></g></svg>