<svg xmlns="http://www.w3.org/2000/svg" xmlns:xlink="http://www.w3.org/1999/xlink" viewBox="0 0 684.6 143.7"><defs><linearGradient id="linear-gradient" x1="89.72" y1="19.33" x2="183.81" y2="19.33" gradientUnits="userSpaceOnUse"><stop offset="0" stop-color="#ededee"/><stop offset="1" stop-color="#fff"/></linearGradient><linearGradient id="linear-gradient-2" x1="44.59" y1="50.16" x2="138.68" y2="50.16" gradientUnits="userSpaceOnUse"><stop offset="0" stop-color="#dedfe0"/><stop offset="0.44" stop-color="#e7e7e8"/><stop offset="1" stop-color="#ededee"/></linearGradient><linearGradient id="linear-gradient-3" x1="44.59" y1="85.41" x2="138.68" y2="85.41" xlink:href="#linear-gradient-2"/><linearGradient id="linear-gradient-4" x1="89.72" y1="119.99" x2="183.81" y2="119.99" xlink:href="#linear-gradient"/><linearGradient id="linear-gradient-5" y1="67.28" x2="94.09" y2="67.28" gradientUnits="userSpaceOnUse"><stop offset="0" stop-color="#c7c8ca"/><stop offset="0.57" stop-color="#d8d9da"/><stop offset="1" stop-color="#dedfe0"/></linearGradient><radialGradient id="radial-gradient" cx="372.81" cy="99.8" r="11.75" gradientUnits="userSpaceOnUse"><stop offset="0" stop-color="#9aa0a6"/><stop offset="0.22" stop-color="#b3b7bc"/><stop offset="0.53" stop-color="#cfd1d4"/><stop offset="0.79" stop-color="#e0e1e3"/><stop offset="0.99" stop-color="#e6e7e8"/></radialGradient><radialGradient id="radial-gradient-2" cx="594.18" cy="66.73" r="14.55" gradientUnits="userSpaceOnUse"><stop offset="0" stop-color="#9aa0a6"/><stop offset="0.25" stop-color="#babec2"/><stop offset="0.52" stop-color="#d6d8da"/><stop offset="0.75" stop-color="#e7e7e9"/><stop offset="0.93" stop-color="#ededee"/></radialGradient><radialGradient id="radial-gradient-3" cx="674.44" cy="99.46" r="20.04" xlink:href="#radial-gradient-2"/><radialGradient id="radial-gradient-4" cx="468.04" cy="102.92" r="13.49" gradientUnits="userSpaceOnUse"><stop offset="0" stop-color="#9aa0a6"/><stop offset="0.93" stop-color="#ededee"/></radialGradient><radialGradient id="radial-gradient-5" cx="469.57" cy="68.32" r="13.84" gradientUnits="userSpaceOnUse"><stop offset="0" stop-color="#9aa0a6"/><stop offset="0.93" stop-color="#e6e7e8"/></radialGradient></defs><g id="Layer_2" data-name="Layer 2"><g id="GoogleLogo_FullColor_rgb"><g id="_830x271px" data-name="830x271px"><path d="M191.56,19.33a9.67,9.67,0,1,1,9.67-9.66A9.66,9.66,0,0,1,191.56,19.33Z" fill="#fff"/><path d="M89.72,5.19h94.09v8.19H97.92v20.1h-8.2Z" fill-rule="evenodd" fill="url(#linear-gradient)"/><path d="M146.43,46.93a9.67,9.67,0,1,1,9.67-9.67A9.67,9.67,0,0,1,146.43,46.93Z" fill="#ededee"/><path d="M44.59,32.78h94.09V41H52.79V67.53h-8.2Z" fill-rule="evenodd" fill="url(#linear-gradient-2)"/><path d="M145.13,109.12a9.67,9.67,0,1,1,9.66-9.67A9.67,9.67,0,0,1,145.13,109.12Z" fill="#ededee"/><path d="M44.59,103.55h94.09V95.36H52.79V67.27h-8.2Z" fill-rule="evenodd" fill="url(#linear-gradient-3)"/><path d="M190.26,143.7a9.67,9.67,0,1,1,9.66-9.67A9.67,9.67,0,0,1,190.26,143.7Z" fill="#fff"/><path d="M89.72,138.13h94.09v-8.2H97.92V101.84h-8.2Z" fill-rule="evenodd" fill="url(#linear-gradient-4)"/><path d="M101.84,77.33a9.67,9.67,0,1,1,9.67-9.67A9.67,9.67,0,0,1,101.84,77.33Z" fill="#dedfe0"/><path d="M0,63.18H94.09v8.2H0Z" fill-rule="evenodd" fill="url(#linear-gradient-5)"/><circle cx="434.45" cy="31.51" r="7.13" fill="#ededee"/><path d="M230.34,72.07c0,25.92,16,46.89,44.29,46.89s40-19.66,41.16-35.43H302.38c-1.31,10.82-9.77,24-27.36,24-19.8,0-31.13-15.76-31.13-35.43S255.22,36.64,275,36.64c17.59,0,26.05,13.16,27.36,24h13.41C314.62,44.85,303,25.18,274.63,25.18S230.34,46.15,230.34,72.07Z" fill="#ededee"/><path d="M324.09,99.3c0,11.33,10.29,19.66,22.93,19.66,12.11,0,21-6.64,24.75-16.54.26-.65.52-1.69,1.56-1.3s.39,1.43.13,2.6a21.33,21.33,0,0,0-1.43,7.82v6.38h12.5v-38c0-24.49-13.94-29.7-28.91-29.7-15.37,0-27.1,6.64-29.44,21.88h12.24c.91-6.51,4.95-10.94,16.67-10.94,13.68,0,16.81,5.47,16.94,10.94.13,6.91-12,5.47-24,6.39C335.29,79.37,324.09,84.06,324.09,99.3ZM372,82c-.13,16.8-10,24.23-20.19,25.53C341,108.93,336.6,104,336.6,98.64c0-6.12,4.17-9,12.24-10.16C359,87.05,368,86.92,372,82Z" fill="url(#radial-gradient)"/><path d="M400.13,24.14v93.78h12.51V24.14Z" fill="#ededee"/><path d="M428.24,117.92h12.51V51.23H428.24Z" fill="#ededee"/><path d="M569.93,62.17V51.23H551.18V32.47H538.67V51.23h-12.5V62.17h12.5V98.38c0,14.46,6.52,19.54,20.32,19.54h10.94V107H560c-7.3,0-8.86-2.34-8.86-9.9V62.17Z" fill="#ededee"/><path d="M595,66.73c-1-.26-.65-1.3-.39-2.34a26.85,26.85,0,0,0,1.43-8.73V51.23h-12.5v66.69h12.5V86c0-17.46,5.6-24.36,25-23.06V50.19c-16.8,0-20.58,4.69-24.75,15.37C596.06,66.21,595.67,66.86,595,66.73Z" fill="url(#radial-gradient-2)"/><path d="M624.16,99.3c0,11.33,10.29,19.66,22.93,19.66,12.11,0,21-6.64,24.75-16.54.26-.65.52-1.69,1.56-1.3s.39,1.43.13,2.6a21.33,21.33,0,0,0-1.43,7.82v6.38h12.5v-38c0-24.49-13.94-29.7-28.91-29.7-15.37,0-27.1,6.64-29.44,21.88h12.24c.91-6.51,5-10.94,16.68-10.94,13.67,0,16.8,5.47,16.93,10.94.13,6.91-12,5.47-24,6.39C635.37,79.37,624.16,84.06,624.16,99.3ZM672.1,82c-.13,16.8-10,24.23-20.19,25.53-10.81,1.43-15.24-3.52-15.24-8.86,0-6.12,4.17-9,12.24-10.16C659.07,87.05,668.06,86.92,672.1,82Z" fill="url(#radial-gradient-3)"/><path d="M376.9,100.16a3,3,0,1,1-3-3A3,3,0,0,1,376.9,100.16Z"/><path d="M470.2,101.29a3,3,0,1,1-3-3A3,3,0,0,1,470.2,101.29Z" fill="#fff"/><path d="M470.2,66.45a3,3,0,1,1-3-3A3,3,0,0,1,470.2,66.45Z" fill="#fff"/><path d="M597.85,66.45a3,3,0,1,1-3-3A3,3,0,0,1,597.85,66.45Z"/><path d="M677.21,99.73a3,3,0,1,1-3-3A3,3,0,0,1,677.21,99.73Z"/><path d="M508.46,84.72c0,12.37-6.52,22.92-19.54,22.92-11.86,0-20.06-10.55-20.06-22.92h-12.5v58.35h12.5V112.46a21.33,21.33,0,0,0-1.3-7c-.39-1-1.05-2.22.26-2.61.78-.26,1.17.78,1.3,1.18,4,9,12,15.11,22.4,15.11,17.33,0,29.44-14.59,29.44-34.39Z" fill="url(#radial-gradient-4)"/><path d="M470.2,101.43a3,3,0,1,1-3-3A3,3,0,0,1,470.2,101.43Z"/><path d="M491.52,50.33c-10.68,0-18.49,6.26-22.4,14.85-.13.39-.52,1.7-1.56,1.31s-.39-1.7,0-2.74a21,21,0,0,0,1.3-7.16V51.38h-12.5V84.72h12.5c0-12.37,8.2-22.92,20.06-22.92,13,0,19.54,10.55,19.54,22.92H521C521,64.92,508.85,50.33,491.52,50.33Z" fill="url(#radial-gradient-5)"/><path d="M470.84,65.31a3,3,0,1,1-3-3A3,3,0,0,1,470.84,65.31Z"/></g></g></g></svg>